<!-- Generated by IcoMoon.io -->
<svg version="1.1" xmlns="http://www.w3.org/2000/svg" width="1024" height="1024" viewBox="0 0 1024 1024">
<title></title>
<g id="icomoon-ignore">
</g>
<path d="M237.227 213.333h282.453c91.307 0 154.453 23.893 194.56 64 32.846 33.584 53.113 79.589 53.113 130.327 0 3.083-0.075 6.149-0.223 9.196l0.017-0.43v1.707c0.083 2.096 0.131 4.556 0.131 7.027 0 80.73-50.544 149.655-121.713 176.857l-1.298 0.436 142.507 208.213h-190.293l-120.32-180.907h-73.387v180.907h-165.547zM512.853 500.053c55.484 0 88.747-27.307 88.747-70.844v-1.707c0-47.787-34.987-71.68-89.6-71.68h-109.227v144.23z"></path>
</svg>
