<?xml version="1.0" encoding="utf-8"?>
<!-- Generator: Adobe Illustrator 25.4.1, SVG Export Plug-In . SVG Version: 6.00 Build 0)  -->
<svg version="1.1" id="Layer_1" xmlns="http://www.w3.org/2000/svg" xmlns:xlink="http://www.w3.org/1999/xlink" x="0px" y="0px"
	 viewBox="0 0 1024 1024" style="enable-background:new 0 0 1024 1024;" xml:space="preserve">
<g id="icomoon-ignore">
</g>
<g>
	<path d="M716.9,868.6l-482.8,0V167h278v206.4h204.8v108.4l81.6-81.6v-82.8l-80-80v0L568.1,87h-414v860h644.4V702.9l-81.6,81.9
		V868.6z M592.1,223l70.4,70.4h-70.4V223z"/>
	<rect x="296.5" y="495.8" width="358" height="48"/>
	<polygon points="578.1,620.6 296.5,620.6 296.5,668.6 530.1,668.6 	"/>
	<rect x="296.5" y="743.8" width="198" height="48"/>
	<path d="M983,427.7l-59.7-59.7c-5.2-4.3-11.2-6.9-18.2-6.9c-7.8,0-13.8,1.7-18.2,6.9l-50.2,50.2l95.1,95.1l50.2-50.2
		c5.2-5.2,6.9-11.2,7.8-17.3C989.9,438.1,988.2,432.1,983,427.7z"/>
	<polygon points="558.4,696.7 558.4,791.8 653.5,791.8 906.9,537.6 812.6,442.4 	"/>
</g>
</svg>
