<!-- Generated by IcoMoon.io -->
<svg version="1.1" xmlns="http://www.w3.org/2000/svg" width="1024" height="1024" viewBox="0 0 1024 1024">
<title></title>
<g id="icomoon-ignore">
</g>
<path d="M751.548 267.656l-66.167-114.534c-2.745-4.29-7.485-7.092-12.879-7.092-2.756 0-5.342 0.732-7.573 2.011l0.074-0.039-78.899 30.549c-6.040-5.457-12.694-10.493-19.765-14.926l-0.596-0.348c-10.194-8.301-21.984-15.177-34.758-20.066l-0.877-0.295-12.732-86.545c-1.646-7.395-8.151-12.842-15.928-12.842-0.666 0-1.323 0.040-1.968 0.118l0.078-0.008h-129.809c-10.24 0-15.275 2.56-17.835 12.732l-12.715 86.545c-13.755 6.498-25.437 13.282-36.485 20.916l0.85-0.555c-5.903 4.473-12.568 8.699-19.576 12.359l-0.785 0.373-30.618-12.715-48.299-17.818c-1.926-0.746-4.155-1.179-6.485-1.179-5.523 0-10.479 2.429-13.857 6.278l-0.018 0.021-63.642 114.517c-2.543 10.24-2.543 15.275 2.56 20.361l48.35 35.635 22.921 17.818c-1.722 8.051-2.709 17.302-2.709 26.783 0 2.219 0.054 4.426 0.161 6.619l-0.012-0.309v2.594c-0.066 1.51-0.104 3.281-0.104 5.061 0 9.027 0.97 17.827 2.812 26.302l-0.148-0.814-68.727 50.859c-2.711 3.279-4.355 7.526-4.355 12.158 0 2.98 0.681 5.802 1.896 8.317l-0.050-0.114 63.625 114.551c1.774 6.573 7.684 11.331 14.704 11.331 2.038 0 3.982-0.401 5.758-1.128l-0.101 0.037 78.916-33.092c15.287 12.469 32.974 22.787 52.142 30.109l1.311 0.44 12.715 89.088c1.646 7.396 8.151 12.844 15.928 12.844 0.672 0 1.334-0.041 1.985-0.12l-0.078 0.008h129.809c10.24 0 15.275-2.543 17.818-12.732l12.732-89.088c20.415-8.815 37.995-19.042 54.167-31.056l-0.714 0.507 78.899 33.092c10.24 2.543 17.818 0 20.361-10.24l63.642-114.551c2.543-10.24 2.543-15.275-2.543-20.361l-71.27-48.367c1.643-8.852 2.582-19.037 2.582-29.441 0-1.284-0.014-2.565-0.043-3.842l0.003 0.19c0.097-1.756 0.152-3.811 0.152-5.88 0-8.737-0.982-17.244-2.841-25.418l0.146 0.765 68.727-53.453c12.698-10.189 12.698-15.275 10.138-22.921zM435.917 473.839c-54.776-0.078-99.163-44.452-99.26-99.216v-0.009c0.734-54.266 44.897-97.975 99.268-97.975s98.534 43.709 99.268 97.906l0.001 0.069c-0.107 54.776-44.497 99.148-99.269 99.226h-0.007zM627.251 616.192l-73.626 42.53c-2.742 1.767-4.532 4.805-4.532 8.262 0 1.775 0.472 3.44 1.298 4.876l-0.025-0.048 13.38 45.858c-3.656 4.051-7.033 8.512-10.006 13.253l-0.234 0.4c-5.576 6.884-10.189 14.847-13.456 23.472l-0.197 0.592-48.23 11.23c-4.757 1.056-8.262 5.24-8.262 10.242 0 0.426 0.025 0.847 0.075 1.26l-0.005-0.050v83.439c0 6.554 1.707 9.813 8.192 11.452l48.213 11.298c4.397 9.284 8.98 17.167 14.133 24.624l-0.377-0.577c3.002 3.985 5.835 8.489 8.283 13.224l0.25 0.532-1.843 14.711-11.452 31.078c-0.483 1.242-0.763 2.679-0.763 4.181 0 3.545 1.558 6.727 4.026 8.898l0.013 0.011 73.609 40.96c6.554 1.621 9.813 1.621 13.090-1.707l33.297-38.025c5.41 1.151 11.626 1.81 17.996 1.81 1.522 0 3.035-0.038 4.539-0.112l-0.212 0.008h1.707c1.039 0.046 2.258 0.073 3.483 0.073 6.067 0 11.983-0.648 17.682-1.879l-0.549 0.099 31.659 36.386c2.123 1.776 4.882 2.855 7.893 2.855 1.886 0 3.674-0.423 5.272-1.18l-0.075 0.032 73.626-40.96c4.206-1.148 7.248-4.935 7.248-9.433 0-1.318-0.261-2.575-0.735-3.722l0.024 0.065-14.95-45.875c8.408-10.32 15.371-22.257 20.318-35.192l0.298-0.887 49.954-11.298c4.757-1.049 8.264-5.229 8.264-10.228 0-0.431-0.026-0.856-0.077-1.274l0.005 0.050v-83.354c0-6.537-1.707-9.813-8.192-11.452l-49.937-11.23c-5.982-13.792-12.916-25.668-21.059-36.59l0.34 0.477 14.95-45.943c1.707-6.537 0-11.452-6.537-13.090l-73.626-40.96c-6.554-1.621-9.813-1.621-13.090 1.707l-29.935 38.161c-5.95-1.104-12.795-1.735-19.789-1.735-0.897 0-1.792 0.010-2.684 0.031l0.133-0.002c-1.204-0.067-2.612-0.106-4.030-0.106-5.878 0-11.602 0.66-17.101 1.911l0.515-0.098-33.451-36.523c-6.554-8.158-9.813-8.158-14.729-6.519zM787.678 819.063c-0.068 50.613-41.085 91.624-91.694 91.682h-0.006c-50.103-0.705-90.448-41.486-90.448-91.691s40.345-90.985 90.382-91.69l0.066-0.001c50.609 0.078 91.614 41.088 91.682 91.693v0.007z"></path>
</svg>
