<!-- Generated by IcoMoon.io -->
<svg version="1.1" xmlns="http://www.w3.org/2000/svg" width="1024" height="1024" viewBox="0 0 1024 1024">
<title></title>
<g id="icomoon-ignore">
</g>
<path d="M778.581 519.339c-1.195-123.733 101.035-183.125 105.472-186.027-40.181-56.878-104.735-94.229-178.134-96.758l-0.384-0.010c-76.288-7.68-148.651 44.885-187.733 44.885s-98.133-43.691-161.28-42.667c-86.359 2.701-160.894 50.828-200.768 121.182l-0.618 1.186c-86.869 149.504-22.187 371.2 61.952 492.203 40.96 59.221 89.941 126.123 153.6 123.563s85.333-40.107 160.085-40.107 95.744 40.107 161.28 38.741 108.715-60.416 149.504-119.467c27.764-39.945 50.93-85.964 67.181-135.131l1.086-3.792c-77.511-33.748-130.809-109.498-131.242-197.747v-0.056zM655.531 155.989c32.173-37.566 51.755-86.744 51.755-140.496 0-5.452-0.201-10.857-0.597-16.208l0.042 0.715c-57.548 5.793-107.799 33.104-143.315 73.647l-0.216 0.252c-31.573 36.523-59.221 95.232-51.2 151.211 54.784 4.267 110.763-27.989 144.725-69.291v0z"></path>
</svg>
