<!-- Generated by IcoMoon.io -->
<svg version="1.1" xmlns="http://www.w3.org/2000/svg" width="1024" height="1024" viewBox="0 0 1024 1024">
<title></title>
<g id="icomoon-ignore">
</g>
<path d="M676.8 265.6h62.4v472c0 62.4-22.4 116.8-67.2 161.6s-97.6 67.2-160 67.2c-62.4 0-115.2-22.4-160-67.2s-67.2-97.6-67.2-161.6v-513.6c0-46.4 16-84.8 48-118.4 32-32 70.4-48 116.8-48s84.8 16 116.8 48c32 32 48 72 48 118.4v432c0 28.8-9.6 52.8-30.4 72s-44.8 30.4-73.6 30.4c-28.8 0-52.8-9.6-72-30.4-19.2-19.2-30.4-44.8-30.4-72v-390.4h62.4v390.4c0 9.6 4.8 19.2 12.8 27.2s17.6 12.8 28.8 12.8c11.2 0 20.8-4.8 28.8-12.8s12.8-17.6 12.8-27.2v-432c0-28.8-9.6-52.8-30.4-73.6s-44.8-30.4-73.6-30.4c-28.8 0-52.8 9.6-72 30.4s-30.4 44.8-30.4 73.6v513.6c0 46.4 16 84.8 48 118.4 32 32 70.4 48 116.8 48s84.8-16 116.8-48c32-32 48-72 48-118.4v-472z"></path>
</svg>
