<?xml version="1.0" encoding="utf-8"?>
<!-- Generator: Adobe Illustrator 25.4.1, SVG Export Plug-In . SVG Version: 6.00 Build 0)  -->
<svg version="1.1" id="Layer_1" xmlns="http://www.w3.org/2000/svg" xmlns:xlink="http://www.w3.org/1999/xlink" x="0px" y="0px"
	 viewBox="0 0 1024 1024" style="enable-background:new 0 0 1024 1024;" xml:space="preserve">
<g id="icomoon-ignore">
</g>
<path d="M291.2,429.2c0,0.8,0,1.7,0,2.6c0,9.7,1.4,19.1,3.9,28l-0.2-0.7c3.4,9.6,7.1,17.6,11.2,25.2l-0.5-1c1.4,2.2,2.3,4.9,2.4,7.7
	v0c-0.4,4.3-2.9,8-6.3,10.1l-0.1,0l-21.2,14.1c-2.5,1.8-5.5,2.9-8.8,3l0,0c-4-0.3-7.5-2-10.1-4.7l0,0c-4.4-4.7-8.4-9.9-11.9-15.4
	l-0.2-0.4c-3.4-5.7-6.6-12.1-10.4-19.9c-23,28.4-57.8,46.4-96.9,46.4c-0.7,0-1.5,0-2.2,0l0.1,0c-1.4,0.1-3.1,0.1-4.8,0.1
	c-24.2,0-46.1-9.3-62.6-24.5l0.1,0.1c-15.4-15.6-24.9-37-24.9-60.7c0-1.3,0-2.7,0.1-4l0,0.2c0-0.9-0.1-2.1-0.1-3.2
	c0-26.5,11.9-50.2,30.6-66.1l0.1-0.1c20.7-16.5,47.2-26.4,76-26.4c2.3,0,4.5,0.1,6.7,0.2l-0.3,0c12.7,0.1,25,1.1,37.1,2.9l-1.5-0.2
	c12.5,1.7,25.2,4.4,38.7,7.4v-24.6c0.2-2.2,0.4-4.8,0.4-7.4c0-17.6-6.1-33.8-16.3-46.6l0.1,0.1c-12.9-9.9-29.2-15.9-47-15.9
	c-2.8,0-5.5,0.1-8.2,0.4l0.3,0c-12.9,0-25.4,1.6-37.4,4.6l1.1-0.2c-14.3,3.4-26.4,7.4-38.2,12.1l1.8-0.6c-3.2,1.5-7.1,3-11.1,4.2
	l-0.7,0.2c-1.6,0.5-3.4,0.9-5.3,1l-0.1,0c-4.7,0-7.1-3.4-7.1-10.4v-16.5c-0.1-0.6-0.1-1.2-0.1-1.9c0-3.6,0.9-7,2.5-10l-0.1,0.1
	c2.5-3,5.7-5.4,9.3-7l0.2-0.1c12.2-6.2,26.3-11.4,41.1-14.9l1.3-0.3c15.2-4.1,32.7-6.4,50.8-6.4c0.6,0,1.2,0,1.8,0h-0.1
	c3.1-0.3,6.8-0.4,10.5-0.4c29.5,0,56.7,10.4,77.9,27.8l-0.2-0.2c17.5,19.6,28.3,45.6,28.3,74.1c0,3-0.1,6.1-0.4,9.1l0-0.4v109.1
	L291.2,429.2z M154.5,480.4c12.5-0.1,24.4-2.3,35.4-6.3l-0.8,0.2c12.8-4.5,23.5-11.9,31.9-21.5l0.1-0.1c5.2-6,9.2-13.2,11.4-21.2
	l0.1-0.4c2.1-8.5,3.4-18.3,3.4-28.4c0-0.3,0-0.6,0-1v0v-14.1c-8.3-2.2-18.8-4.2-29.5-5.6l-1.4-0.2c-9.5-1.3-20.5-2-31.6-2h0
	c-1.8-0.2-4-0.2-6.1-0.2c-16.5,0-31.7,5.1-44.3,13.9l0.3-0.2c-10.2,8.7-16.6,21.5-16.6,35.8c0,1,0,2,0.1,3.1l0-0.1
	c-0.2,1.5-0.3,3.2-0.3,4.9c0,24,19.4,43.4,43.4,43.4c1.6,0,3.3-0.1,4.8-0.3L154.5,480.4L154.5,480.4z M424.8,516.7
	c-0.6,0.1-1.3,0.1-1.9,0.1c-4.1,0-7.8-1.3-10.9-3.5l0.1,0c-3.4-3.5-5.9-8-7-12.9l0-0.2L325.9,240c-1.4-3.9-2.5-8.5-3-13.2l0-0.3
	c-0.1-0.3-0.1-0.7-0.1-1.1c0-4.1,3.3-7.4,7.4-7.4c0.3,0,0.5,0,0.8,0l0,0h33c0.7-0.1,1.5-0.1,2.3-0.1c4.1,0,7.9,1.3,11,3.5l-0.1,0
	c3.2,3.6,5.6,8,6.6,13l0,0.2l56.6,222.8l52.5-222.8c0.7-5.1,3-9.7,6.4-13.1l0,0c3.4-2.1,7.6-3.4,12.1-3.4c0.5,0,1,0,1.4,0l-0.1,0
	h26.9c0.6-0.1,1.4-0.1,2.1-0.1c4.2,0,8.2,1.3,11.4,3.5l-0.1,0c3.4,3.4,5.7,8,6.4,13l0,0.1l53.2,225.5l58.2-225.5
	c1.1-5.1,3.4-9.5,6.7-13.2l0,0c3.3-2.1,7.4-3.4,11.8-3.4c0.5,0,1,0,1.5,0.1l-0.1,0H722c0.3,0,0.6-0.1,1-0.1c4.1,0,7.5,3.4,7.5,7.5
	c0,0.4,0,0.7-0.1,1l0,0c-0.1,2-0.3,3.8-0.7,5.6l0-0.2c-0.6,3.2-1.4,6-2.5,8.7l0.1-0.3l-81.1,260.2c-1.1,5.2-3.6,9.6-7.1,13.1l0,0
	c-3.3,2.1-7.3,3.4-11.6,3.4c-0.4,0-0.8,0-1.2,0l0.1,0h-29c-0.6,0.1-1.4,0.1-2.1,0.1c-4.2,0-8.2-1.3-11.4-3.5l0.1,0
	c-3.4-3.6-5.7-8.2-6.4-13.3l0-0.1l-52.2-217.1l-51.8,216.7c-0.8,5.2-3.1,9.8-6.4,13.5l0,0c-3.2,2.2-7.2,3.5-11.5,3.5
	c-0.7,0-1.4,0-2.1-0.1l0.1,0L424.8,516.7z M857.3,525.8c0,0-0.1,0-0.1,0c-18.3,0-36.2-2.2-53.2-6.4l1.5,0.3
	c-14.6-3-27.6-7.7-39.6-13.9l0.9,0.4c-4.4-2.1-7.9-5.3-10.4-9.3l-0.1-0.1c-1.3-2.8-2-6-2-9.4v-17.2c0-7.1,2.7-10.4,7.8-10.4
	c2.2,0,4.2,0.4,6.2,1l-0.1,0c2,0.7,5.1,2,8.4,3.4c10.6,4.8,22.9,8.8,35.8,11.6l1.2,0.2c12,2.6,25.9,4,40.1,4h0
	c1.6,0.1,3.5,0.2,5.4,0.2c16,0,31.1-4.2,44.2-11.4l-0.5,0.2c10.6-6.5,17.5-17.9,17.5-31c0-0.3,0-0.7,0-1l0,0c0-0.3,0-0.6,0-0.9
	c0-8.8-3.5-16.8-9.1-22.7l0,0c-9.4-8.1-20.9-14.1-33.4-17.4l-0.6-0.1l-48.8-15.1c-21.8-5.8-40.2-17.9-53.7-34.3l-0.1-0.2
	c-10.4-13.3-16.7-30.3-16.8-48.8v0c0-0.5,0-1,0-1.6c0-13.1,3.4-25.5,9.3-36.2l-0.2,0.4c6.2-11,14.4-20.2,24.1-27.4l0.2-0.2
	c10-7.6,21.6-13.6,34.2-17.3l0.8-0.2c12.2-3.6,26.1-5.7,40.6-5.7c0.6,0,1.3,0,1.9,0l-0.1,0c0.4,0,0.8,0,1.3,0
	c7.5,0,14.9,0.5,22.1,1.4l-0.9-0.1c7.7,1,14.8,2.3,21.9,3.7c6.6,1.7,13.1,3.4,19.2,5.4c5.4,1.7,10.1,3.8,14.5,6.3l-0.4-0.2
	c4.1,2.1,7.4,4.9,10.1,8.3l0.1,0.1c1.9,2.8,3.1,6.3,3.1,10.1c0,0.3,0,0.7,0,1l0,0v15.8c0,7.1-2.7,10.8-7.8,10.8
	c-4.8-0.6-9.1-2-13-4.1l0.2,0.1c-18.3-8.3-39.7-13.2-62.2-13.2c-0.8,0-1.7,0-2.5,0l0.1,0c-1.5-0.1-3.3-0.1-5.1-0.1
	c-14.5,0-28.2,3.5-40.2,9.8l0.5-0.2c-9.6,5.8-15.9,16.1-15.9,28c0,0.7,0,1.4,0.1,2.1l0-0.1c0,0.2,0,0.4,0,0.6
	c0,9.2,3.9,17.4,10.1,23.2l0,0c10.4,8.3,22.8,14.7,36.3,18.3l0.7,0.2l47.8,15.1c21,5.5,38.8,16.8,52.1,32.2l0.1,0.1
	c9.7,12.6,15.5,28.7,15.5,46c0,0.4,0,0.8,0,1.2l0-0.1c0,0.3,0,0.6,0,1c0,13.9-3.3,26.9-9.1,38.5l0.2-0.5
	c-6.2,11.8-14.4,21.6-24.4,29.5l-0.2,0.1c-10.6,8.3-23,14.8-36.6,18.7l-0.8,0.2c-14.2,4.5-30.5,7.2-47.4,7.2
	C857.8,525.8,857.5,525.8,857.3,525.8L857.3,525.8L857.3,525.8z M920.9,689.4c-110.7,81.7-271.6,125.2-410,125.2c-1.1,0-2.5,0-3.9,0
	c-191.3,0-365.8-72.5-497.3-191.4l0.6,0.6c-10.4-9.4-1-22.2,11.5-14.8c143.8,83.6,316.5,132.9,500.7,132.9c0,0,0.1,0,0.1,0h0
	c138.1-0.8,269.3-29.4,388.5-80.6l-6.5,2.5C923.3,655.4,939.1,675.9,920.9,689.4L920.9,689.4z M967.1,636.9
	c-14.1-18.2-93.6-8.8-129.6-4.4c-10.8,1.3-12.5-8.1-2.7-15.1c63.3-44.4,167.3-31.6,179.4-16.8c12.1,14.8-3.4,119.3-62.6,169
	c-9.1,7.7-17.8,3.7-13.8-6.4C951.2,729.8,981.2,654.7,967.1,636.9L967.1,636.9z"/>
</svg>
