<?xml version="1.0" encoding="utf-8"?>
<!-- Generator: Adobe Illustrator 28.3.0, SVG Export Plug-In . SVG Version: 6.00 Build 0)  -->
<svg version="1.1" id="Layer_1" xmlns="http://www.w3.org/2000/svg" xmlns:xlink="http://www.w3.org/1999/xlink" x="0px" y="0px"
	 viewBox="0 0 1024 1024" style="enable-background:new 0 0 1024 1024;" xml:space="preserve">
<style type="text/css">
	.st0{fill-rule:evenodd;clip-rule:evenodd;}
</style>
<g>
	<path class="st0" d="M733.7,118.8H290.6L69.1,511.4L290.6,904h440.7l221.5-392.6L733.7,118.8z M810.6,679L810.6,679l-604,0
		c-18.7,0-32.6-16.8-32.6-35.9V406c0-19.2,14-35.9,32.6-35.9h604c7,0,18.7,0,97.9,153.2l2.3,7.2l-2.3,7.2
		C829.3,679,817.6,679,810.6,679z"/>
	<path class="st0" d="M206.7,396.5c-4.7,0-9.3,4.8-9.3,9.6v237c0,4.8,4.7,12,9.3,12H806c11.7-12,46.6-69.4,77-124.5
		c-30.3-59.9-67.6-122.1-77-134.1H206.7z M500.5,616.7c0,7.2-7,14.4-16.3,14.4H255.7c-7,0-9.3-7.2-9.3-14.4V442
		c0-7.2,2.3-9.6,9.3-9.6h228.5c7,0,16.3,2.4,16.3,9.6L500.5,616.7z M787.3,616.7c0,7.2-4.7,14.4-11.7,14.4H549.5
		c-7,0-11.7-7.2-11.7-14.4V442c0-7.2,4.7-9.6,11.7-9.6h226.2c7,0,11.7,2.4,11.7,9.6V616.7z"/>
	<path class="st0" d="M369.9,561.7c-2.3,0-4.7,0-7-2.4l-88.6-71.8v117.3h202.9V485.1l-95.6,74.2
		C376.9,561.7,372.2,561.7,369.9,561.7z"/>
	<polygon class="st0" points="465.5,458.7 272,458.7 367.6,535.3 	"/>
	<polygon class="st0" points="757,458.7 565.8,458.7 661.4,535.3 	"/>
	<path class="st0" d="M661.4,561.7c-2.3,0-7,0-7-2.4l-90.9-71.8v117.3h202.9V485.1l-95.6,74.2C666.1,561.7,663.7,561.7,661.4,561.7z
		"/>
</g>
</svg>
