<?xml version="1.0" encoding="utf-8"?>
<!-- Generator: Adobe Illustrator 28.3.0, SVG Export Plug-In . SVG Version: 6.00 Build 0)  -->
<svg version="1.1" id="a" xmlns="http://www.w3.org/2000/svg" xmlns:xlink="http://www.w3.org/1999/xlink" x="0px" y="0px"
	 viewBox="0 0 60 60" style="enable-background:new 0 0 60 60;" xml:space="preserve">
<g>
	<path d="M13.2,35c0.9-1.8,3.8-12.1,0.3-21.1c-1-2.5-2.5-5-4.8-7C6.8,5,4.5,3.6,1.5,2.5C-1,1.6-4,0.9-7.5,0.7c4.1,2,7.1,4.3,8.6,5.6
		c0,0,3.2,2.3,5.6,6.7c2.2,3.8,3.8,9.3,3.8,9.3c1.1,3.6,1.9,7.5,2.2,9.9C13.1,33.9,13.2,35,13.2,35z"/>
	<path d="M29.6,27.2L29.6,27.2c2.5-2,4.9-3.7,7.2-4.9c7.5-3.9,14.5-0.1,14-1.5c-0.8-3.1-7.8-6.7-7.8-6.7c-3-3.5-6.4-4.3-8.5-4.8
		c-3.9-0.7-7.9,0.1-9.9,0.6C19.1,2.6,8.3,0.9,4,0.6C2.9,0.5,2.2,0.5,2.2,0.5c3.5,1.1,6.3,2.6,8.3,4.3c1.1,0.8,2.1,1.8,2.8,2.7
		l1.8-0.1l-1.1,1c0.3,0.5,0.7,0.8,0.8,1.3l3-0.5l-2.2,2.2c0.2,0.6,0.3,1,0.5,1.6c4.3,16.6-4.2,26.7-4.2,26.7c0.7-0.3,1.6-0.7,2.3-1
		c3.6-2,7.9-5.4,12-8.8C27.4,29,28.5,28.1,29.6,27.2z M36.4,13.2c0.8,0,2.5,0.7,3.8,1.8c0.1,0.1-0.7,0.3-1.7,0.2
		c-0.7,0-1.6-0.3-2.3-1C35.6,13.5,35.8,13.2,36.4,13.2z"/>
	<path d="M49.4,22.8c-0.2,0-0.5-0.1-0.7-0.1c-0.6-0.1-1.2-0.2-2-0.3c-2.4-0.3-5.7-0.2-9,1.5l0,0l0,0c-1.6,0.8-3.3,1.9-5.1,3.3h16.3
		c0.3,0,0.9,0,4.7,7.3l0.1,0.3l-0.1,0.3C49.7,42,49.1,42,48.8,42l0,0H19.9c-0.9,0-1.6-0.8-1.6-1.7v-1.9c-0.6,0.4-1.3,0.8-1.9,1.2
		l7.5,13.2H45L55.6,34L49.4,22.8z"/>
	<polygon points="46.2,31.5 37.1,31.5 41.7,35.1 	"/>
	<path d="M46.7,32.7l-4.6,3.6c-0.2,0.1-0.3,0.1-0.4,0.1c-0.1,0-0.3,0-0.3-0.1L37,32.8v5.6h9.7V32.7z"/>
	<path d="M19.4,37.6v2.7c0,0.2,0.2,0.6,0.4,0.6h28.7c0.6-0.6,2.2-3.3,3.7-6c-1.5-2.9-3.2-5.8-3.7-6.4H30.8l-0.1,0.1
		c-0.4,0.3-0.8,0.6-1.2,0.9l0,0c-0.3,0.2-0.6,0.5-0.9,0.7h4.5c0.3,0,0.8,0.1,0.8,0.5l0,8.4c0,0.3-0.3,0.7-0.8,0.7H22.2
		c-0.3,0-0.4-0.3-0.4-0.7v-3.2C21,36.4,20.2,37,19.4,37.6z M35.7,30.7c0-0.3,0.2-0.5,0.6-0.5h10.8c0.3,0,0.6,0.1,0.6,0.5V39
		c0,0.3-0.2,0.7-0.6,0.7H36.3c-0.3,0-0.6-0.3-0.6-0.7V30.7z"/>
	<path d="M23.1,34.8v3.7h9.7v-5.7l-4.6,3.6c-0.2,0.1-0.4,0.1-0.6,0.1c-0.1,0-0.2,0-0.3-0.1l-3-2.5C23.9,34.1,23.5,34.5,23.1,34.8z"
		/>
	<path d="M32.3,31.5h-5c-0.1,0.1-0.2,0.2-0.3,0.2l0,0l0,0c-0.6,0.5-1.2,1-1.8,1.5l2.4,2L32.3,31.5z"/>
</g>
</svg>
