<?xml version="1.0" encoding="utf-8"?>
<!-- Generator: Adobe Illustrator 25.4.1, SVG Export Plug-In . SVG Version: 6.00 Build 0)  -->
<svg version="1.1" id="Layer_1" xmlns="http://www.w3.org/2000/svg" xmlns:xlink="http://www.w3.org/1999/xlink" x="0px" y="0px"
	 viewBox="0 0 1024 1024" style="enable-background:new 0 0 1024 1024;" xml:space="preserve">
<g id="icomoon-ignore">
</g>
<g>
	<path d="M410.1,455.7C489.4,285.6,555.5,143.8,557,140.6c0.9-1.7,1.7-3.4,2.2-5.5c-0.3,0.1-61.3,51.1-135.7,113.7L288.2,362.3
		L172.1,563.5C108.3,674.2,56,764.8,56,765h0c0,0.2,47.2,0.2,104.9,0.1h104.9L410.1,455.7z"/>
	<path d="M968.6,840.4c-0.8-1.4-86.3-149.5-189.9-329.2c-110.7-191.9-188.8-326.4-188.8-326c-0.7,1.3-115.2,316.9-115.2,317.2
		c0,0.3,49.9,60,110.9,132.5l110.9,131.9l-2,0.4c-1.1,0.2-98.1,17.3-215.5,38.1l-213.5,37.6H970L968.6,840.4z"/>
</g>
</svg>
