<?xml version="1.0" encoding="UTF-8"?><svg id="Layer_1" xmlns="http://www.w3.org/2000/svg" viewBox="0 0 60 60"><path d="m10.3,25.24v8.38c0,1.22.81,2.19,2.59,3.24.59.35,1.25.66,1.97.96-1.22-2.34-1.92-5-1.92-7.82,0-1.09.11-2.15.31-3.18-1.08-.45-2.06-.97-2.96-1.57Z"/><path d="m47.14,9.33c-1.78-1.05-4.21-1.86-7.21-2.43-3.08-.57-6.32-.81-9.88-.81s-6.89.24-9.88.81c-3,.57-5.51,1.46-7.29,2.43s-2.59,2.03-2.59,3.24v7.24c0,1.22.81,2.19,2.59,3.24.4.24.84.46,1.3.67,2.51-6.3,8.65-10.78,15.84-10.78s13.33,4.47,15.84,10.77c.46-.21.9-.43,1.3-.66,1.78-.97,2.59-2.03,2.59-3.24v-7.24c0-1.22-.81-2.19-2.59-3.24Z"/><path d="m47.05,30c0,2.81-.7,5.46-1.9,7.8.71-.28,1.36-.59,1.94-.93,1.78-.97,2.59-2.03,2.59-3.24v-8.38c-.85.61-1.83,1.15-2.93,1.63.19,1.01.3,2.06.3,3.13Z"/><path d="m30,47.05c-4.67,0-8.9-1.89-11.99-4.94-3.08-.67-5.64-1.73-7.71-3.06v8.38c0,1.13.81,2.19,2.59,3.24s4.21,1.86,7.21,2.43c3.08.57,6.32.81,9.88.81s6.81-.24,9.8-.81c3.08-.65,5.43-1.38,7.21-2.43,1.78-.97,2.59-2.03,2.59-3.24v-8.38c-1.91,1.37-4.4,2.39-7.67,3.11-3.08,3.02-7.29,4.89-11.93,4.89Z"/><path d="m24.6,43.15c1.67.69,3.49,1.07,5.4,1.07s3.69-.38,5.35-1.05c2.2-.9,4.13-2.32,5.62-4.12,2.04-2.46,3.26-5.62,3.26-9.05,0-.74-.07-1.45-.18-2.16-.17-1.1-.45-2.16-.86-3.16-2.11-5.21-7.22-8.91-13.18-8.91s-11.08,3.7-13.19,8.93c-.39.97-.67,1.99-.84,3.06-.12.73-.19,1.47-.19,2.24,0,3.45,1.24,6.61,3.29,9.08,1.47,1.77,3.37,3.18,5.54,4.07Zm-5.42-14.61c.14-1.07.44-2.1.88-3.05,1.72-3.78,5.52-6.41,9.94-6.41s8.22,2.64,9.94,6.41c.44.97.75,2.01.89,3.11.06.46.1.93.1,1.41,0,4.42-2.65,8.23-6.43,9.95-1.37.62-2.89.98-4.49.98s-3.12-.36-4.5-.98c-3.79-1.72-6.43-5.53-6.43-9.95,0-.5.04-.98.11-1.46Z"/><polygon points="37.41 33.96 31.36 30.2 31.36 22.68 28.06 22.68 28.06 31.84 35.93 36.65 37.41 33.96"/></svg>