<!-- Generated by IcoMoon.io -->
<svg version="1.1" xmlns="http://www.w3.org/2000/svg" width="1024" height="1024" viewBox="0 0 1024 1024">
<title></title>
<g id="icomoon-ignore">
</g>
<path d="M571.2 620.8c0-12.8 1.6-25.6 3.2-36.8-40 4.8-81.6 8-126.4 8-68.8 0-134.4-6.4-193.6-19.2-60.8-11.2-108.8-30.4-144-56v75.2c0 19.2 14.4 38.4 44.8 56s72 32 123.2 41.6c52.8 9.6 108.8 14.4 169.6 14.4 30.4 0 59.2-1.6 88-3.2v-75.2h35.2v-4.8zM536 758.4c-28.8 3.2-57.6 3.2-88 3.2-68.8 0-132.8-6.4-193.6-19.2s-108.8-32-145.6-56v75.2c0 19.2 14.4 38.4 44.8 56s72 32 123.2 41.6c52.8 9.6 108.8 14.4 169.6 14.4 30.4 0 60.8-1.6 89.6-3.2v-112zM156.8 312c30.4 17.6 72 32 123.2 41.6 52.8 9.6 108.8 14.4 169.6 14.4s116.8-4.8 169.6-14.4c52.8-11.2 92.8-24 123.2-41.6s44.8-35.2 44.8-56v-56c0-20.8-14.4-38.4-44.8-56s-72-32-123.2-41.6c-52.8-9.6-108.8-14.4-169.6-14.4s-118.4 4.8-169.6 14.4c-51.2 9.6-92.8 24-123.2 41.6s-44.8 35.2-44.8 56v56c0 20.8 14.4 38.4 44.8 56zM155.2 480c30.4 17.6 72 32 123.2 41.6 52.8 9.6 108.8 14.4 169.6 14.4 54.4 0 104-3.2 150.4-11.2 8-12.8 16-24 27.2-35.2 36.8-36.8 81.6-54.4 131.2-54.4 8 0 16 0 24 1.6 1.6-4.8 1.6-8 1.6-12.8v-75.2c-35.2 25.6-81.6 43.2-142.4 56-59.2 12.8-124.8 19.2-193.6 19.2s-132.8-6.4-193.6-19.2-108.8-30.4-145.6-56v75.2c3.2 20.8 17.6 38.4 48 56zM892.8 676.8v-54.4c0-36.8-12.8-68.8-40-96-25.6-27.2-57.6-40-96-40-36.8 0-68.8 12.8-96 40s-40 59.2-40 96v54.4h-35.2v294.4h342.4v-294.4h-35.2zM676.8 620.8c0-22.4 4.8-43.2 22.4-59.2 16-16 35.2-25.6 59.2-25.6s43.2 8 59.2 25.6c16 16 25.6 36.8 25.6 59.2v54.4h-166.4v-54.4z"></path>
</svg>
