<!-- Generated by IcoMoon.io -->
<svg version="1.1" xmlns="http://www.w3.org/2000/svg" width="1024" height="1024" viewBox="0 0 1024 1024">
<title></title>
<g id="icomoon-ignore">
</g>
<path d="M968 497.6c-20.8-12.8-49.6-22.4-84.8-28.8-36.8-6.4-75.2-9.6-116.8-9.6-36.8 0-73.6 3.2-105.6 8 25.6 19.2 38.4 41.6 38.4 68.8v40c0 4.8 0 9.6-1.6 12.8v60.8c22.4 1.6 44.8 3.2 68.8 3.2 41.6 0 80-3.2 116.8-9.6 36.8-8 64-16 84.8-28.8s30.4-24 30.4-38.4v-38.4c0-16-9.6-27.2-30.4-40zM766.4 924.8c-24 0-46.4-1.6-68.8-3.2v3.2c0 27.2-12.8 49.6-38.4 68.8 33.6 4.8 67.2 8 105.6 8 41.6 0 81.6-3.2 116.8-9.6 36.8-8 64-16 84.8-28.8s30.4-24 30.4-38.4v-51.2c-24 17.6-56 30.4-97.6 38.4-40 8-86.4 12.8-132.8 12.8zM766.4 691.2c-24 0-46.4-1.6-68.8-3.2v76.8c20.8 1.6 43.2 3.2 67.2 3.2 41.6 0 81.6-3.2 116.8-9.6 36.8-8 64-16 84.8-28.8s30.4-24 30.4-38.4v-51.2c-24 17.6-56 30.4-97.6 38.4-40 8-86.4 12.8-132.8 12.8zM766.4 808c-24 0-46.4-1.6-68.8-3.2v76.8c22.4 1.6 44.8 3.2 68.8 3.2 41.6 0 80-3.2 115.2-9.6 36.8-8 64-16 84.8-28.8s30.4-24 30.4-38.4v-51.2c-24 17.6-56 30.4-97.6 38.4-40 8-86.4 12.8-132.8 12.8zM592 667.2c-12.8 4.8-25.6 8-40 11.2-6.4 1.6-12.8 3.2-19.2 3.2-35.2 6.4-73.6 9.6-113.6 9.6-38.4 0-75.2-3.2-110.4-9.6-30.4 19.2-59.2 35.2-86.4 44.8l-6.4 3.2c0 0 1.6 0 1.6 0 20.8 12.8 49.6 22.4 84.8 28.8 33.6 6.4 72 9.6 113.6 9.6s81.6-3.2 116.8-9.6c0 0 0 0 1.6 0s1.6 0 3.2 0c20.8-4.8 38.4-9.6 52.8-14.4 11.2-3.2 20.8-8 28.8-12.8 20.8-12.8 30.4-24 30.4-38.4v-52.8c-1.6 1.6-3.2 1.6-3.2 3.2-16 9.6-33.6 17.6-54.4 24zM592 784c-12.8 3.2-25.6 8-40 11.2-6.4 1.6-12.8 1.6-19.2 3.2-35.2 6.4-75.2 9.6-115.2 9.6-48 0-92.8-4.8-134.4-12.8s-75.2-20.8-99.2-38.4v51.2c0 12.8 9.6 27.2 30.4 38.4 20.8 12.8 49.6 22.4 84.8 28.8 36.8 6.4 75.2 9.6 116.8 9.6s80-3.2 113.6-9.6c0 0 1.6 0 1.6 0s1.6 0 1.6 0c22.4-4.8 40-9.6 56-16 9.6-3.2 19.2-8 27.2-12.8 20.8-12.8 30.4-24 30.4-38.4v-51.2c-1.6 1.6-3.2 1.6-4.8 3.2-11.2 8-28.8 16-49.6 24zM592 900.8c-12.8 4.8-25.6 8-41.6 11.2-6.4 1.6-12.8 3.2-19.2 3.2-35.2 6.4-73.6 9.6-113.6 9.6-48 0-91.2-4.8-134.4-12.8-41.6-9.6-75.2-22.4-100.8-38.4v51.2c0 12.8 9.6 27.2 30.4 38.4 20.8 12.8 49.6 22.4 84.8 28.8 36.8 6.4 75.2 9.6 116.8 9.6s81.6-3.2 116.8-9.6c22.4-4.8 40-9.6 56-16 11.2-3.2 20.8-8 28.8-12.8 20.8-12.8 30.4-24 30.4-38.4v-51.2c-1.6 0-1.6 1.6-3.2 1.6-11.2 9.6-28.8 17.6-51.2 25.6zM619.2 497.6c-8-4.8-17.6-9.6-28.8-12.8-6.4-3.2-14.4-4.8-20.8-6.4-33.6 25.6-68.8 54.4-104 83.2-38.4 32-75.2 62.4-112 89.6 20.8 1.6 41.6 3.2 64 3.2 41.6 0 78.4-3.2 113.6-9.6 1.6 0 1.6 0 3.2 0 0 0 1.6 0 1.6 0 20.8-4.8 40-9.6 54.4-16 11.2-3.2 20.8-8 28.8-12.8 20.8-12.8 30.4-24 30.4-38.4v-38.4c1.6-17.6-8-28.8-30.4-41.6zM209.6 500.8c3.2 19.2 6.4 36.8 9.6 52.8 4.8 27.2 6.4 44.8 6.4 44.8 6.4-12.8 20.8-57.6 28.8-116.8 1.6-16 3.2-33.6 4.8-51.2 3.2-60.8-3.2-128-28.8-192-17.6-43.2-43.2-84.8-81.6-120-32-30.4-72-54.4-123.2-73.6-43.2-16-94.4-27.2-153.6-32 70.4 33.6 121.6 73.6 147.2 96 0 0 54.4 40 96 115.2 36.8 65.6 65.6 160 65.6 160 8 22.4 12.8 46.4 19.2 68.8 3.2 16 6.4 33.6 9.6 48zM228.8 128l30.4-1.6-19.2 17.6c4.8 8 11.2 14.4 14.4 22.4l51.2-8-36.8 38.4c3.2 9.6 4.8 17.6 8 27.2 19.2 73.6 24 140.8 19.2 198.4-1.6 17.6-3.2 33.6-6.4 49.6-11.2 65.6-32 118.4-49.6 153.6-6.4 12.8-14.4 25.6-19.2 33.6-9.6 14.4-16 22.4-16 22.4 11.2-3.2 22.4-9.6 35.2-16 1.6-1.6 3.2-1.6 6.4-3.2 12.8-6.4 25.6-14.4 40-24 70.4-46.4 148.8-115.2 222.4-174.4 17.6-14.4 35.2-27.2 52.8-40 24-17.6 48-32 70.4-43.2 128-67.2 248-1.6 240-25.6-14.4-52.8-132.8-115.2-132.8-115.2-51.2-59.2-108.8-73.6-145.6-81.6-67.2-12.8-136 1.6-169.6 9.6-96-123.2-281.6-152-355.2-158.4-19.2-1.6-30.4-1.6-30.4-1.6 59.2 19.2 107.2 44.8 142.4 73.6 19.2 14.4 35.2 30.4 48 46.4zM624 225.6c14.4 0 43.2 11.2 65.6 30.4 1.6 1.6-12.8 4.8-28.8 3.2-11.2 0-27.2-4.8-40-17.6-11.2-11.2-8-16 3.2-16z"></path>
</svg>
