<!-- Generated by IcoMoon.io -->
<svg version="1.1" xmlns="http://www.w3.org/2000/svg" width="1024" height="1024" viewBox="0 0 1024 1024">
<title></title>
<g id="icomoon-ignore">
</g>
<path d="M175.787 452.181v142.95c0 20.736 13.841 37.325 44.254 55.313 35.584 19.544 76.974 34.043 120.838 41.173l2.23 0.299c17.715 3.26 35.84 5.683 54.357 7.748v-180.19c-25.498-3.123-50.586-6.963-75.093-11.947-55.241-9.502-104.561-28.868-148.274-56.337l1.688 0.99zM661.009 751.223h49.886c0.014 0 0.031 0 0.048 0 16.759 0 30.345 13.586 30.345 30.345 0 6.777-2.222 13.036-5.977 18.086l0.058-0.081-98.611 134.519c14.438-1.826 28.604-3.977 42.411-6.588 46.141-7.897 87.472-22.351 125.274-42.548l-2.206 1.076c30.43-16.606 44.254-34.577 44.254-55.313v-142.95c-40.17 26.94-87.712 46.355-138.91 55.015l-2.129 0.298c-14.251 3.055-29.167 5.769-44.442 8.141zM288.631 799.573c-3.667-4.956-5.869-11.19-5.869-17.937 0-16.758 13.585-30.343 30.342-30.345h54.101q-22.835-3.533-44.783-8.124c-55.262-9.512-104.6-28.895-148.323-56.388l1.686 0.989v142.95c0 19.354 13.841 37.325 44.254 55.313 35.584 19.544 76.974 34.043 120.838 41.173l2.23 0.299c14.473 2.662 29.201 4.83 44.151 6.69zM626.483 520.294v179.405c18.551-2.065 36.727-4.506 54.067-7.782 46.141-7.897 87.472-22.351 125.274-42.548l-2.206 1.076c30.43-16.606 44.254-34.577 44.254-55.313v-142.95c-40.171 26.935-87.711 46.349-138.907 55.015l-2.132 0.298c-25.344 5.359-52.446 9.591-80.35 12.8zM804.454 180.633c-35.582-19.57-76.971-34.091-120.835-41.24l-2.232-0.3c-48.007-8.823-103.25-13.868-159.673-13.868-3.17 0-6.335 0.016-9.498 0.048l0.483-0.004c-2.936-0.034-6.404-0.053-9.877-0.053-56.126 0-111.073 5.049-164.412 14.717l5.585-0.84c-46.683 8.192-88.451 22.624-126.864 42.615l2.413-1.143c-30.413 16.606-44.254 34.577-44.254 55.313v123.597c0 20.736 13.841 37.325 44.254 55.296 35.583 19.561 76.974 34.067 120.842 41.191l2.226 0.298c48.007 8.823 103.25 13.868 159.673 13.868 3.17 0 6.335-0.016 9.498-0.048l-0.483 0.004c2.436 0.022 5.316 0.035 8.198 0.035 57.197 0 113.216-5.042 167.638-14.705l-5.75 0.846c46.141-7.893 87.473-22.354 125.269-42.564l-2.201 1.075c30.413-16.589 44.254-34.56 44.254-55.296v-123.529c0-20.736-13.841-37.325-44.254-55.313zM575.283 802.423v-277.555h-126.566v277.555h-94.481l157.764 215.33 157.764-215.33h-94.481z"></path>
</svg>
