<!-- Generated by IcoMoon.io -->
<svg version="1.1" xmlns="http://www.w3.org/2000/svg" width="1024" height="1024" viewBox="0 0 1024 1024">
<title></title>
<g id="icomoon-ignore">
</g>
<path d="M204.356 139.503h-23.654c-4.403 0.019-7.968 3.584-7.987 7.985v523.403c0 0.007 0 0.016 0 0.025 0 4.515 3.66 8.175 8.175 8.175 0.126 0 0.251-0.003 0.376-0.008l-0.018 0.001c68.267-2.833 211.063 4.881 306.193 104.431v-497.835c0-0.056 0.001-0.122 0.001-0.188 0-5.858-1.658-11.328-4.53-15.968l0.075 0.13c-69.973-112.845-204.629-129.98-278.63-130.15zM851.285 670.942v-523.469c-0.010-4.404-3.582-7.97-7.987-7.97 0 0 0 0 0 0h-23.654c-74.001 0.171-208.657 17.306-278.63 130.15-2.745 4.465-4.372 9.874-4.372 15.662 0 0.14 0.001 0.279 0.003 0.419v-0.021 497.835c95.13-99.55 237.926-107.264 306.193-104.431 0.097 0.004 0.21 0.006 0.324 0.006 4.487 0 8.124-3.637 8.124-8.124 0-0.020 0-0.041 0-0.061v0.003zM943.343 249.173h-42.803v414.72c0 44.544-19.217 63.795-63.829 63.898-62.635 0.154-182.972 12.407-256.102 81.63 141.124-34.56 290.799-5.495 359.817 12.288 0.866 0.225 1.86 0.353 2.884 0.353 6.578 0 11.915-5.317 11.947-11.887v-549.055c0 0 0 0 0 0 0-6.586-5.329-11.927-11.911-11.947h-0.002zM123.46 663.979v-414.805h-41.079c-7.541 0-13.653 6.113-13.653 13.653v0 545.195c0.016 7.529 6.122 13.626 13.653 13.626 1.213 0 2.389-0.158 3.509-0.455l-0.095 0.021c69.973-17.835 217.958-45.909 357.564-11.725-73.131-69.222-193.468-81.459-256.102-81.613-44.578-0.102-63.795-19.354-63.795-63.898z"></path>
</svg>
