<!-- Generated by IcoMoon.io -->
<svg version="1.1" xmlns="http://www.w3.org/2000/svg" width="1024" height="1024" viewBox="0 0 1024 1024">
<title></title>
<g id="icomoon-ignore">
</g>
<path d="M944 686.4l41.6-65.6c-56-35.2-120-40-161.6-36.8-1.6-27.2-6.4-54.4-12.8-80 41.6-8 97.6-33.6 142.4-99.2l-64-43.2c-35.2 52.8-80 65.6-105.6 68.8-16-30.4-35.2-59.2-57.6-83.2 4.8-17.6 6.4-35.2 6.4-52.8 0-54.4-19.2-102.4-51.2-140.8l41.6-41.6-54.4-54.4-48 48c-32-17.6-68.8-28.8-107.2-28.8s-75.2 11.2-107.2 28.8l-46.4-46.4-56 52.8 41.6 41.6c-27.2 32-44.8 72-49.6 115.2-1.6 8-1.6 16-1.6 25.6 0 17.6 1.6 35.2 6.4 52.8-14.4 16-27.2 33.6-40 51.2-6.4 9.6-12.8 20.8-17.6 32-24-1.6-72-14.4-107.2-68.8l-64 43.2c44.8 67.2 102.4 91.2 144 99.2-6.4 25.6-11.2 52.8-12.8 80-41.6-3.2-107.2 0-164.8 36.8l41.6 65.6c43.2-27.2 96-27.2 124.8-24 4.8 33.6 12.8 65.6 24 96-40 17.6-99.2 51.2-129.6 120l70.4 32c22.4-48 67.2-72 94.4-83.2 57.6 86.4 147.2 142.4 248 142.4 84.8 0 160-38.4 217.6-100.8 11.2-12.8 20.8-25.6 30.4-40 27.2 11.2 72 35.2 92.8 81.6l57.6-25.6 12.8-6.4c-30.4-67.2-86.4-100.8-126.4-118.4 12.8-30.4 20.8-62.4 25.6-96 30.4-4.8 80-3.2 121.6 22.4zM654.4 289.6c-43.2-25.6-91.2-38.4-140.8-38.4s-97.6 14.4-140.8 38.4c1.6-76.8 64-137.6 140.8-137.6s139.2 60.8 140.8 137.6z"></path>
</svg>
