<!-- Generated by IcoMoon.io -->
<svg version="1.1" xmlns="http://www.w3.org/2000/svg" width="1024" height="1024" viewBox="0 0 1024 1024">
<title></title>
<g id="icomoon-ignore">
</g>
<path d="M987.2 225.6c-12.8-12.8-28.8-20.8-48-20.8h-852.8c-19.2 0-36.8 6.4-49.6 20.8s-20.8 30.4-20.8 48v492.8c0 19.2 6.4 35.2 20.8 48 12.8 14.4 30.4 20.8 49.6 20.8h614.4v-203.2c-20.8-22.4-32-52.8-32-86.4 0-73.6 59.2-132.8 132.8-132.8s132.8 59.2 132.8 132.8c0 33.6-12.8 64-32 86.4v203.2h38.4c19.2 0 36.8-6.4 49.6-20.8 12.8-12.8 20.8-28.8 20.8-48v-492.8c-3.2-19.2-9.6-35.2-24-48zM584 508.8h-480v-68.8h480v68.8zM584 369.6h-480v-70.4h480v70.4zM732.8 659.2v217.6l67.2-48 67.2 48v-217.6c-19.2 11.2-41.6 17.6-67.2 17.6s-46.4-4.8-67.2-17.6z"></path>
</svg>
