<!-- Generated by IcoMoon.io -->
<svg version="1.1" xmlns="http://www.w3.org/2000/svg" width="1024" height="1024" viewBox="0 0 1024 1024">
<title></title>
<g id="icomoon-ignore">
</g>
<path d="M566.4 876.8c14.4-14.4 22.4-33.6 22.4-54.4h-155.2c0 20.8 8 38.4 22.4 54.4 14.4 14.4 33.6 22.4 54.4 22.4 22.4 0 41.6-8 56-22.4zM553.6 140.8c-11.2-11.2-24-16-41.6-16-16 0-30.4 4.8-41.6 16s-17.6 25.6-17.6 41.6v25.6c-56 12.8-102.4 43.2-137.6 88-36.8 44.8-54.4 97.6-54.4 156.8v212.8l-78.4 78.4v38.4h659.2v-38.4l-78.4-78.4v-211.2c0-59.2-17.6-112-54.4-156.8s-83.2-75.2-139.2-88v-25.6c0-17.6-6.4-32-16-43.2z"></path>
</svg>
