<!-- Generated by IcoMoon.io -->
<svg version="1.1" xmlns="http://www.w3.org/2000/svg" width="1024" height="1024" viewBox="0 0 1024 1024">
<title></title>
<g id="icomoon-ignore">
</g>
<path d="M512.341 648.021c74.752 0 135.68-60.928 135.68-135.68 0-75.605-60.928-136.533-135.68-136.533-75.605 0-136.533 60.928-136.533 136.533 0.171 74.752 61.099 135.68 136.533 135.68v0zM327.339 464.555c21.675-82.432 95.573-143.36 185.003-143.36h390.827c-70.144-144.213-218.795-244.395-390.827-244.395-129.536 0-245.248 56.32-324.608 144.896l139.605 242.859zM345.088 604.16l-193.536-336.213c-46.933 70.144-74.752 153.429-74.752 244.395 0 209.749 148.821 384.683 346.112 425.472l140.288-242.005c-16.213 4.608-33.963 6.997-50.859 6.997-70.997 0-132.608-38.571-165.035-95.573-0.683-0.853-1.536-1.536-2.219-3.072v0zM675.84 608.768l-194.219 337.579c10.069 0.853 19.968 0.853 30.891 0.853 239.787 0 434.859-195.072 434.859-434.859 0-47.787-7.68-93.355-21.675-136.533h-279.893c34.645 34.645 57.003 82.432 57.003 136.533 0 34.816-10.069 68.608-26.965 96.427v0z"></path>
</svg>
