<?xml version="1.0" encoding="utf-8"?>
<!-- Generator: Adobe Illustrator 23.0.6, SVG Export Plug-In . SVG Version: 6.00 Build 0)  -->
<svg version="1.1" id="Layer_1" xmlns="http://www.w3.org/2000/svg" xmlns:xlink="http://www.w3.org/1999/xlink" x="0px" y="0px"
	 viewBox="0 0 1024 1024" style="enable-background:new 0 0 1024 1024;" xml:space="preserve">
<title></title>
<g id="icomoon-ignore">
</g>
<g>
	<path d="M722.6,397.8H620.7V167.7C620.7,107.7,572,59,512,59l0,0c-60,0-108.7,48.7-108.7,108.7v230H301.4
		c-38.9,0-70.3,31.4-70.3,70.3v59H793v-59C792.9,429.2,761.5,397.8,722.6,397.8z M512,229.9c-22.3,0-40.4-18.1-40.4-40.4
		S489.7,149,512,149c22.3,0,40.4,18.1,40.4,40.4S534.3,229.9,512,229.9z"/>
	<path d="M822.1,935.7l-39.7-359.2H241.6l-39.7,359.2c-1.2,10.7,7.1,20,17.9,20h351.8v-165c0-13.6,11-24.6,24.6-24.6l0,0
		c13.6,0,24.6,11,24.6,24.6v165h30.1v-59.5c0-13.6,11-24.6,24.6-24.6l0,0c13.6,0,24.6,11,24.6,24.6v59.5h104
		C815,955.7,823.3,946.4,822.1,935.7z"/>
</g>
</svg>
