<!-- Generated by IcoMoon.io -->
<svg version="1.1" xmlns="http://www.w3.org/2000/svg" width="1024" height="1024" viewBox="0 0 1024 1024">
<title></title>
<g id="icomoon-ignore">
</g>
<path d="M348.8 163.2c46.4-46.4 99.2-67.2 163.2-67.2s121.6 20.8 163.2 67.2c46.4 46.4 67.2 99.2 67.2 163.2s-20.8 121.6-67.2 163.2c-46.4 46.4-99.2 67.2-163.2 67.2s-121.6-20.8-163.2-67.2c-46.4-46.4-67.2-99.2-67.2-163.2s20.8-120 67.2-163.2zM974.4 960h-924.8v-78.4c0-49.6 28.8-92.8 84.8-131.2 57.6-38.4 121.6-67.2 188.8-81.6 72-17.6 131.2-25.6 188.8-25.6s116.8 6.4 188.8 25.6 136 46.4 188.8 81.6c57.6 38.4 84.8 81.6 84.8 131.2v78.4z"></path>
</svg>
