<!-- Generated by IcoMoon.io -->
<svg version="1.1" xmlns="http://www.w3.org/2000/svg" width="1024" height="1024" viewBox="0 0 1024 1024">
<title></title>
<g id="icomoon-ignore">
</g>
<path d="M63.829 874.666l-1.365-483.157 897.707-1.707v180.736c15.942 10.914 29.89 22.532 42.663 35.324l0.004 0.004v-435.541c-0.097-11.708-9.611-21.163-21.333-21.163 0 0 0 0-0.001 0v0l-940.544 1.877c-11.688 0-21.163 9.475-21.163 21.163v198.144l1.365 525.995c0.097 11.708 9.611 21.163 21.333 21.163 0 0 0 0 0.001 0v0l476.672-1.024c-4.608-11.64-8.787-25.639-11.811-40.064l-0.307-1.749zM541.696 240.298h336.725c0.648-0.054 1.402-0.085 2.164-0.085 15.175 0 27.477 12.302 27.477 27.477s-12.302 27.477-27.477 27.477c-0.762 0-1.516-0.031-2.262-0.092l0.098 0.006-336.725 1.024c-15.175 0-27.477-12.302-27.477-27.477s12.302-27.477 27.477-27.477v0zM377.685 255.146c2.127-4.905 5.003-9.094 8.534-12.63l-0.001 0.001v-0.853c3.41-3.25 7.427-5.899 11.859-7.755l0.258-0.096c4.328-1.835 9.361-2.902 14.644-2.902 0.072 0 0.144 0 0.215 0.001h-0.011c0.061 0 0.134-0.001 0.207-0.001 5.34 0 10.431 1.066 15.072 2.998l-0.26-0.096c4.662 2.045 8.667 4.682 12.149 7.879l-0.032-0.029c0.37 0.541 0.824 0.995 1.348 1.354l0.017 0.011c3.217 3.399 5.816 7.422 7.591 11.864l0.089 0.253c1.943 4.273 3.075 9.267 3.075 14.525 0 0.173-0.001 0.347-0.004 0.519v-0.026c0 0.021 0 0.046 0 0.071 0 5.328-1.066 10.407-2.997 15.036l0.096-0.258c-2.056 4.99-4.943 9.246-8.53 12.797l-0.003 0.003c-3.536 3.53-7.725 6.406-12.37 8.432l-0.26 0.101c-4.381 1.836-9.472 2.902-14.812 2.902-0.073 0-0.145 0-0.218-0.001h0.011c-0.229 0.005-0.498 0.008-0.769 0.008-5.148 0-10.047-1.070-14.485-3l0.235 0.091c-4.985-1.997-9.243-4.83-12.802-8.365l0.002 0.002c-3.49-3.559-6.36-7.741-8.426-12.361l-0.107-0.268c-1.814-4.436-2.93-9.578-3.071-14.961l-0.001-0.057c0.054-5.372 1.178-10.468 3.17-15.103l-0.098 0.255zM250.368 255.146c2.127-4.905 5.003-9.094 8.534-12.63l-0.001 0.001v-0.853c7.079-6.647 16.628-10.736 27.133-10.752h0.003c0.061 0 0.132-0.001 0.204-0.001 5.282 0 10.316 1.067 14.896 2.996l-0.253-0.094c4.69 1.952 8.708 4.601 12.133 7.866l-0.016-0.015 1.365 1.365c3.271 3.398 5.923 7.42 7.758 11.864l0.092 0.253c1.784 4.426 2.819 9.559 2.819 14.933s-1.035 10.507-2.917 15.209l0.098-0.276c-4.071 9.701-11.633 17.262-21.075 21.237l-0.258 0.096c-4.37 1.835-9.449 2.901-14.777 2.901-0.025 0-0.050 0-0.074 0h0.004c-0.268 0.007-0.584 0.011-0.901 0.011-5.103 0-9.956-1.072-14.346-3.002l0.229 0.090c-5.002-1.948-9.268-4.788-12.796-8.359l-0.004-0.004c-3.606-3.522-6.54-7.713-8.604-12.375l-0.1-0.254c-1.729-4.46-2.731-9.623-2.731-15.019v0c0.032-5.297 1.095-10.337 2.998-14.941l-0.097 0.264zM123.221 255.146c2.127-4.905 5.003-9.094 8.534-12.63l-0.001 0.001c3.43-3.266 7.439-5.963 11.851-7.916l0.266-0.105c4.395-1.766 9.487-2.824 14.816-2.901h0.032c0.022 0 0.048 0 0.075 0 5.385 0 10.522 1.066 15.21 2.998l-0.266-0.097c4.676 1.997 8.687 4.64 12.14 7.872l-0.023-0.021c0.532 0.391 1.161 0.687 1.843 0.847l0.035 0.007c3.271 3.398 5.923 7.42 7.758 11.864l0.092 0.253c1.833 4.419 2.897 9.552 2.897 14.933s-1.064 10.514-2.994 15.199l0.097-0.266c-1.987 5.015-4.885 9.283-8.522 12.789l-0.011 0.011c-3.523 3.551-7.716 6.432-12.374 8.436l-0.255 0.098c-4.422 1.835-9.559 2.901-14.944 2.901-0.026 0-0.052 0-0.079 0h0.004c-0.183 0.003-0.398 0.005-0.614 0.005-5.127 0-10.019-1.005-14.491-2.828l0.257 0.093c-4.982-2.079-9.234-4.963-12.8-8.533v0c-3.606-3.522-6.54-7.713-8.604-12.375l-0.1-0.254c-2.036-4.295-3.331-9.305-3.581-14.589l-0.003-0.088c0.048-5.431 1.173-10.586 3.171-15.28l-0.099 0.261zM1016.661 740.522l-46.421-80.384c-1.94-3.005-5.272-4.966-9.062-4.966-1.938 0-3.756 0.513-5.326 1.41l0.053-0.028-55.296 21.333c-4.247-3.751-8.931-7.24-13.893-10.325l-0.443-0.257c-7.173-5.913-15.473-10.811-24.475-14.298l-0.613-0.209-8.875-60.757c-1.178-5.158-5.727-8.949-11.161-8.949-0.457 0-0.908 0.027-1.351 0.079l0.054-0.005h-91.136c-7.168 0-10.752 1.707-12.459 8.875l-9.045 60.757c-9.591 4.519-17.76 9.296-25.46 14.697l0.543-0.361c-4.099 2.976-8.787 5.918-13.668 8.546l-0.668 0.329-21.504-8.875-34.133-12.629c-1.324-0.5-2.855-0.789-4.454-0.789-3.859 0-7.324 1.685-9.7 4.359l-0.012 0.013-44.544 80.043c-1.707 7.168-1.707 10.752 1.877 14.336l34.133 25.088 16.213 12.459c-1.262 5.654-1.985 12.147-1.985 18.809 0 1.548 0.039 3.087 0.116 4.616l-0.009-0.215v1.707c-0.048 1.061-0.076 2.305-0.076 3.555 0 6.361 0.712 12.555 2.059 18.508l-0.106-0.559-48.299 35.669c-1.903 2.286-3.059 5.253-3.059 8.49 0 2.128 0.499 4.139 1.387 5.923l-0.035-0.077 44.544 80.384c1.285 4.604 5.441 7.925 10.374 7.925 1.427 0 2.789-0.278 4.034-0.783l-0.072 0.026 55.296-23.211c10.737 8.72 23.163 15.929 36.626 21.027l0.92 0.306 9.045 62.635c1.102 5.156 5.62 8.966 11.027 8.966 0.505 0 1.002-0.033 1.489-0.098l-0.057 0.006h91.136c7.168 0 10.581-1.707 12.459-8.875l8.875-62.635c14.339-6.107 26.692-13.253 38.037-21.681l-0.49 0.348 55.467 23.211c6.997 1.707 12.459 0 14.165-7.168l44.715-80.384c1.707-7.168 1.707-10.752-1.877-14.336l-50.005-34.133c1.213-6.193 1.908-13.313 1.908-20.596 0-0.919-0.011-1.836-0.033-2.75l0.003 0.136c0.070-1.222 0.11-2.652 0.11-4.091 0-6.116-0.725-12.063-2.093-17.759l0.105 0.517 48.299-37.547c8.533-6.485 8.533-10.069 6.827-15.36zM794.795 885.248c-38.478-0.097-69.632-31.312-69.632-69.802 0 0 0 0 0 0v0c0-38.457 31.175-69.632 69.632-69.632s69.632 31.175 69.632 69.632v0c0 0.001 0 0.001 0 0.002 0 38.371-30.961 69.511-69.263 69.801h-0.027z"></path>
</svg>
