<!-- Generated by IcoMoon.io -->
<svg version="1.1" xmlns="http://www.w3.org/2000/svg" width="1024" height="1024" viewBox="0 0 1024 1024">
<title></title>
<g id="icomoon-ignore">
</g>
<path d="M204.8 801.6c80 80 177.6 120 291.2 120s209.6-40 291.2-120c80-80 120-176 120-289.6s-40-209.6-120-289.6c-80-80-177.6-120-291.2-120s-211.2 40-291.2 120c-80 80-120 176-120 289.6s40 209.6 120 289.6zM264 278.4c64-64 140.8-96 232-96s168 32 232 96c64 64 96 142.4 96 233.6s-32 168-96 233.6c-64 64-140.8 96-232 96s-168-32-232-96c-64-64-96-142.4-96-233.6s32-168 96-233.6zM536 243.2h-80v244.8h-140.8v80h220.8z"></path>
</svg>
