<!-- Generated by IcoMoon.io -->
<svg version="1.1" xmlns="http://www.w3.org/2000/svg" width="1024" height="1024" viewBox="0 0 1024 1024">
<title></title>
<g id="icomoon-ignore">
</g>
<path d="M772.762 442.249c46.185 3.088 86.994 23.852 116.148 55.516l0.111 0.122c29.803 30.422 48.195 72.122 48.195 118.117 0 0.804-0.006 1.608-0.017 2.409l0.001-0.121c-0.52 97.946-79.786 177.205-177.684 177.715h-460.115c-0.955 0.016-2.081 0.025-3.21 0.025-57.697 0-109.821-23.859-147.045-62.249l-0.051-0.053c-38.474-38.373-62.278-91.438-62.278-150.063 0-54.832 20.823-104.801 54.993-142.43l-0.157 0.175c33.513-38.145 80.626-63.638 133.691-68.865l0.845-0.067c23.487-43.299 56.696-78.634 96.851-103.961l1.146-0.675c38.563-24.995 85.711-39.855 136.331-39.855 0.521 0 1.042 0.002 1.563 0.005h-0.080c0.236-0.001 0.517-0.001 0.797-0.001 128.372 0 235.412 91.334 259.682 212.565l0.282 1.691z"></path>
</svg>
