<!-- Generated by IcoMoon.io -->
<svg version="1.1" xmlns="http://www.w3.org/2000/svg" width="1024" height="1024" viewBox="0 0 1024 1024">
<title></title>
<g id="icomoon-ignore">
</g>
<path d="M220.8 296c30.4 17.6 72 30.4 123.2 41.6 52.8 9.6 108.8 14.4 169.6 14.4s118.4-4.8 169.6-14.4c52.8-9.6 92.8-24 123.2-41.6s44.8-35.2 44.8-56v-56c0-20.8-14.4-38.4-44.8-56s-72-30.4-123.2-41.6c-51.2-11.2-107.2-16-168-16s-118.4 4.8-169.6 14.4c-52.8 9.6-92.8 24-123.2 41.6s-44.8 35.2-44.8 56v57.6c-3.2 19.2 12.8 38.4 43.2 56zM756.8 678.4c-8-8-17.6-12.8-28.8-14.4-3.2 0-4.8 0-8 0-11.2 0-20.8 3.2-30.4 9.6-1.6 1.6-4.8 3.2-6.4 6.4-9.6 9.6-16 22.4-16 36.8 0 6.4 1.6 12.8 3.2 17.6 3.2 8 6.4 14.4 12.8 19.2 9.6 9.6 22.4 16 36.8 16s27.2-4.8 36.8-16c9.6-9.6 16-22.4 16-36.8 0-1.6 0-3.2 0-4.8-3.2-14.4-8-24-16-33.6zM900.8 481.6h-129.6c14.4-4.8 27.2-11.2 38.4-17.6 30.4-17.6 44.8-35.2 44.8-56v-75.2c-35.2 24-83.2 43.2-144 56s-126.4 19.2-195.2 19.2c-70.4 0-134.4-6.4-195.2-19.2s-108.8-30.4-144-56v75.2c0 20.8 14.4 38.4 44.8 56s72 30.4 123.2 41.6c44.8 8 92.8 12.8 142.4 14.4-1.6 4.8-1.6 9.6-1.6 14.4v41.6c-59.2-1.6-113.6-8-166.4-17.6-60.8-12.8-108.8-30.4-144-56v73.6c0 20.8 14.4 38.4 44.8 56s72 30.4 123.2 41.6c43.2 8 91.2 12.8 140.8 14.4v56c-59.2-1.6-113.6-8-166.4-17.6-60.8-12.8-108.8-30.4-144-56v75.2c0 20.8 14.4 38.4 44.8 56s72 30.4 123.2 41.6c43.2 8 91.2 12.8 140.8 14.4v40c0 14.4 4.8 27.2 16 36.8 9.6 9.6 22.4 16 36.8 16h363.2c14.4 0 27.2-4.8 36.8-16 9.6-9.6 16-22.4 16-36.8v-363.2c0-14.4-4.8-27.2-16-36.8-6.4-11.2-19.2-16-33.6-16zM856 715.2c0 6.4 0 11.2-1.6 17.6l38.4 28.8c3.2 3.2 3.2 8 1.6 12.8l-36.8 62.4c-3.2 4.8-6.4 6.4-11.2 4.8l-44.8-17.6c-9.6 8-19.2 12.8-30.4 17.6l-8 48c-1.6 4.8-3.2 8-8 8h-73.6c-4.8 0-8-3.2-8-8l-6.4-44.8v-3.2c-11.2-4.8-20.8-11.2-30.4-17.6l-44.8 17.6c-4.8 1.6-8 0-11.2-3.2l-36.8-64c-3.2-4.8-1.6-8 1.6-12.8l27.2-19.2 12.8-9.6c-1.6-6.4-1.6-12.8-1.6-17.6 0-6.4 0-11.2 1.6-17.6l-14.4-9.6-25.6-19.2c-3.2-3.2-3.2-8-1.6-12.8l36.8-62.4c3.2-4.8 6.4-6.4 11.2-4.8l44.8 17.6c9.6-8 19.2-12.8 30.4-17.6l3.2-25.6 3.2-24c0-4.8 3.2-8 8-8h73.6c4.8 0 8 3.2 8 8v1.6l6.4 44.8c11.2 4.8 20.8 11.2 30.4 17.6l44.8-17.6c1.6 0 3.2 0 4.8 0s4.8 1.6 6.4 4.8l36.8 64c3.2 4.8 1.6 8-1.6 12.8l-38.4 28.8c1.6 8 3.2 14.4 3.2 19.2z"></path>
</svg>
