<!-- Generated by IcoMoon.io -->
<svg version="1.1" xmlns="http://www.w3.org/2000/svg" width="1024" height="1024" viewBox="0 0 1024 1024">
<title></title>
<g id="icomoon-ignore">
</g>
<path d="M0 976.896h845.227v-294.229h-845.227zM694.972 749.909h89.207v54.784h-89.207zM694.972 854.784h89.207v54.869h-89.207zM61.047 749.943h574.447v54.784h-574.447zM61.047 854.818h574.447v54.835h-574.447zM513.399 344.542h-513.399v294.263h513.399zM472.747 425.933l-81.391 79.838-70.502-20.343-104.875 87.637-78.234-31.3-56.32 56.32h-40.721v-39.1l82.944-82.961 84.565 34.441 101.734-86.084 65.741 18.773 57.924-56.32h39.134zM546.662 432.862v177.937l65.894 38.246h176.265l65.98-38.298v-177.835l-154.112-88.371-154.027 88.32zM870.963 47.104l-154.112 89.446v177.818l154.112 88.371 153.037-88.371v-177.818l-153.037-89.446zM546.662 393.421l137.865-79.053v-177.818l-154.129-89.446-153.037 89.446v174.899h169.301v81.971z"></path>
</svg>
