<!-- Generated by IcoMoon.io -->
<svg version="1.1" xmlns="http://www.w3.org/2000/svg" width="1024" height="1024" viewBox="0 0 1024 1024">
<title></title>
<g id="icomoon-ignore">
</g>
<path d="M992 440l-227.2 131.2-228.8-131.2v-264l228.8-132.8 227.2 132.8v264zM488 440l-228.8 131.2-227.2-131.2v-264l227.2-132.8 228.8 132.8v264zM898.1 629.4l-26.8 26.8-26.8-26.8-26.8 26.8-25.2-26.8-26.8 26.8-26.8-26.8-26.8 26.8-25.2-26.8-26.8 26.8-27.1-26.8v352.9l26.8-26.8 26.8 26.8 26.8-26.8 26.8 26.8 26.8-26.8 26.8 26.8 26.8-26.8 26.8 26.8 26.8-26.8 26.8 26.8 26.8-26.8 26.8 26.8v-352.9l-26.8 26.8-29.7-26.8zM898.1 894.4h-211.4v-35.8h211.4v35.8zM898.1 823.7h-211.4v-35h211.4v35zM898.1 752.9h-211.4v-35.8h211.4v35.8zM583 525.5l-71-40.7-228.8 131.2v264l228.8 132.8 71-41.2z"></path>
</svg>
