<!-- Generated by IcoMoon.io -->
<svg version="1.1" xmlns="http://www.w3.org/2000/svg" width="1024" height="1024" viewBox="0 0 1024 1024">
<title></title>
<g id="icomoon-ignore">
</g>
<path d="M206.4 611.2c0-17.6-3.2-32-11.2-43.2-6.4-11.2-19.2-16-38.4-16v-78.4c9.6 0 16-1.6 22.4-4.8s11.2-6.4 14.4-12.8c3.2-4.8 6.4-11.2 8-19.2s3.2-16 3.2-24c0-12.8-1.6-27.2-3.2-40s-3.2-27.2-6.4-41.6c-1.6-14.4-4.8-27.2-6.4-41.6s-3.2-27.2-3.2-41.6c0-24 3.2-46.4 11.2-67.2 6.4-20.8 17.6-36.8 33.6-51.2 14.4-14.4 33.6-25.6 57.6-33.6 22.4-8 51.2-11.2 83.2-11.2h24v60.8c0 4.8-1.6 9.6-3.2 12.8s-4.8 6.4-8 8c-3.2 1.6-6.4 3.2-9.6 4.8s-6.4 1.6-8 1.6c-19.2 0-33.6 6.4-41.6 17.6-9.6 11.2-12.8 28.8-12.8 49.6 0 16 0 32 1.6 48s3.2 28.8 4.8 43.2c1.6 14.4 3.2 27.2 4.8 40s1.6 27.2 1.6 40c0 11.2-1.6 22.4-4.8 33.6s-8 20.8-14.4 28.8-14.4 16-22.4 24c-9.6 6.4-19.2 12.8-32 16 11.2 3.2 22.4 9.6 32 16s16 14.4 22.4 24 11.2 19.2 14.4 28.8c3.2 11.2 4.8 22.4 4.8 33.6 0 12.8 0 27.2-1.6 40s-3.2 27.2-4.8 40c-1.6 14.4-3.2 28.8-4.8 43.2s-1.6 30.4-1.6 48c0 20.8 4.8 36.8 12.8 49.6 9.6 11.2 22.4 17.6 41.6 17.6 3.2 0 4.8 0 8 1.6s6.4 3.2 9.6 4.8c3.2 1.6 6.4 4.8 8 8s3.2 8 3.2 12.8v60.8h-24c-32 0-59.2-3.2-83.2-11.2-22.4-8-41.6-19.2-57.6-33.6-14.4-14.4-25.6-32-33.6-51.2-6.4-19.2-11.2-41.6-11.2-67.2 0-14.4 1.6-27.2 3.2-41.6s3.2-27.2 6.4-41.6c1.6-14.4 4.8-27.2 6.4-41.6 4.8-16 4.8-28.8 4.8-43.2zM817.6 611.2c0 12.8 1.6 27.2 3.2 40s3.2 27.2 6.4 41.6c1.6 12.8 3.2 27.2 6.4 41.6 1.6 14.4 3.2 27.2 3.2 41.6 0 24-3.2 46.4-11.2 67.2-6.4 19.2-17.6 36.8-33.6 51.2-14.4 14.4-33.6 25.6-57.6 33.6-22.4 8-51.2 11.2-83.2 11.2h-24v-60.8c0-4.8 1.6-9.6 3.2-12.8s4.8-6.4 8-8c3.2-1.6 6.4-3.2 9.6-4.8s6.4-1.6 8-1.6c19.2 0 33.6-6.4 41.6-17.6 9.6-11.2 12.8-28.8 12.8-49.6 0-16 0-32-1.6-48-1.6-14.4-3.2-28.8-4.8-43.2s-3.2-27.2-4.8-40c-1.6-12.8-1.6-27.2-1.6-40 0-11.2 1.6-22.4 4.8-33.6s8-20.8 14.4-28.8 14.4-16 22.4-24c9.6-6.4 19.2-11.2 30.4-16-11.2-3.2-22.4-9.6-30.4-16-9.6-6.4-16-14.4-22.4-24s-11.2-19.2-14.4-28.8c-3.2-11.2-4.8-22.4-4.8-33.6 0-14.4 0-27.2 1.6-40s3.2-27.2 4.8-40c1.6-14.4 3.2-28.8 4.8-43.2s1.6-30.4 1.6-48c0-20.8-4.8-36.8-12.8-49.6-9.6-11.2-22.4-17.6-41.6-17.6-3.2 0-4.8 0-8-1.6s-6.4-3.2-9.6-4.8-6.4-4.8-8-8c-1.6-3.2-3.2-8-3.2-12.8v-57.6h24c32 0 59.2 3.2 83.2 11.2 22.4 8 41.6 19.2 57.6 33.6 14.4 14.4 25.6 32 33.6 51.2 6.4 20.8 11.2 43.2 11.2 67.2 0 14.4-1.6 27.2-3.2 41.6s-3.2 27.2-6.4 41.6c-1.6 12.8-4.8 27.2-6.4 41.6-1.6 12.8-3.2 27.2-3.2 40 0 8 1.6 17.6 3.2 24 1.6 8 4.8 14.4 8 19.2s8 9.6 14.4 12.8c6.4 3.2 14.4 4.8 22.4 4.8v78.4c-17.6 0-30.4 4.8-38.4 16-6.4 11.2-9.6 25.6-9.6 43.2z"></path>
</svg>
