<!-- Generated by IcoMoon.io -->
<svg version="1.1" xmlns="http://www.w3.org/2000/svg" width="1024" height="1024" viewBox="0 0 1024 1024">
<title></title>
<g id="icomoon-ignore">
</g>
<path d="M257.6 662.4c22.4 22.4 49.6 33.6 81.6 33.6h254.4c32 0 59.2-11.2 81.6-33.6 17.6-17.6 30.4-65.6 33.6-88h35.2c49.6 0 92.8-17.6 128-52.8s52.8-78.4 52.8-128c0-49.6-17.6-92.8-52.8-128-30.4-30.4-67.2-48-108.8-52.8l1.6-14.4c0-9.6-3.2-16-9.6-24-6.4-6.4-14.4-9.6-24-9.6h-531.2c-9.6 0-16 3.2-24 9.6-6.4 6.4-9.6 14.4-9.6 24l52.8 363.2c1.6 1.6 14.4 76.8 38.4 100.8zM808 329.6c17.6 17.6 25.6 38.4 25.6 64s-8 46.4-25.6 64c-17.6 17.6-38.4 25.6-64 25.6h-20.8l25.6-179.2c22.4 0 43.2 9.6 59.2 25.6zM132.8 824c22.4 22.4 49.6 33.6 80 33.6h569.6c32 0 57.6-11.2 80-33.6s33.6-49.6 33.6-80h-796.8c0 30.4 11.2 57.6 33.6 80z"></path>
</svg>
