<!-- Generated by IcoMoon.io -->
<svg version="1.1" xmlns="http://www.w3.org/2000/svg" width="1024" height="1024" viewBox="0 0 1024 1024">
<title></title>
<g id="icomoon-ignore">
</g>
<path d="M329.6 187.2h-105.6v-49.6h-152v249.6h257.6v-200zM281.6 339.2h-161.6v-153.6h56v49.6h105.6v104zM382.4 137.6v249.6h257.6v-200h-105.6v-49.6h-152zM593.6 235.2v104h-163.2v-153.6h56v49.6h107.2zM694.4 137.6v249.6h257.6v-200h-105.6v-49.6h-152zM904 235.2v104h-161.6v-153.6h56v49.6h105.6zM748.8 467.2l-25.6-19.2h-443.2l-30.4 24-136 107.2-41.6 33.6v275.2h880v-280l-44.8-32-158.4-108.8zM665.6 792h-497.6v-110.4h497.6v110.4zM803.2 792c-30.4 0-56-25.6-56-56s25.6-56 56-56c30.4 0 56 25.6 56 56s-24 56-56 56z"></path>
</svg>
