<!-- Generated by IcoMoon.io -->
<svg version="1.1" xmlns="http://www.w3.org/2000/svg" width="1024" height="1024" viewBox="0 0 1024 1024">
<title></title>
<g id="icomoon-ignore">
</g>
<path d="M972.8 825.6l-14.4 3.2-126.4-124.8 107.2-108.8-12.8-46.4-48-12.8-177.6 177.6-88 89.6 12.8 46.4 46.4 12.8 108.8-107.2 124.8 126.4-3.2 14.4 40 40 56-14.4 14.4-56zM688 156.8l-430.4 430.4 102.4 102.4 430.4-430.4 68.8-171.2zM384 409.6l102.4-102.4-150.4-150.4-171.2-68.8 68.8 171.2zM537.684 563.935l102.954-102.954 125.581 125.581-102.954 102.954-125.581-125.581zM233.6 624l-88-88-48 12.8-12.8 46.4 107.2 108.8-126.4 124.8-14.4-3.2-40 40 14.4 56 56 14.4 40-40-3.2-14.4 124.8-126.4 108.8 107.2 46.4-12.8 12.8-46.4-88-89.6z"></path>
</svg>
