<!-- Generated by IcoMoon.io -->
<svg version="1.1" xmlns="http://www.w3.org/2000/svg" width="1024" height="1024" viewBox="0 0 1024 1024">
<title></title>
<g id="icomoon-ignore">
</g>
<path d="M512 219.2l-124.8 124.8 59.2 59.2 124.8-124.8c25.6-25.6 57.6-40 96-40s70.4 12.8 96 40c25.6 25.6 40 57.6 40 96s-12.8 70.4-40 96l-123.2 124.8 59.2 59.2 124.8-124.8c43.2-43.2 64-94.4 64-156.8 0-60.8-20.8-113.6-64-156.8s-94.4-64-156.8-64c-60.8 1.6-112 25.6-155.2 67.2zM356.762 624.537l250.031-250.031 61.093 61.093-250.031 250.031-61.093-61.093zM136 686.4c0 60.8 20.8 113.6 64 156.8s94.4 64 156.8 64 113.6-20.8 156.8-64l124.8-124.8-62.4-60.8-124.8 124.8c-27.2 27.2-59.2 40-97.6 40-36.8-1.6-70.4-12.8-96-40s-40-57.6-40-96c-1.6-36.8 12.8-70.4 40-97.6l124.8-124.8-59.2-59.2-124.8 124.8c-40 43.2-62.4 96-62.4 156.8z"></path>
</svg>
