<!-- Generated by IcoMoon.io -->
<svg version="1.1" xmlns="http://www.w3.org/2000/svg" width="6135" height="1024" viewBox="0 0 6135 1024">
<title></title>
<g id="icomoon-ignore">
</g>
<path d="M3254.539 169.183l-186.991 191.443-191.443-191.443-151.374 155.826 191.443 186.991-191.443 186.991 151.374 155.826 191.443-191.443 186.991 191.443 151.374-155.826-186.991-186.991 186.991-186.991zM1482.574 489.739h894.887v44.522h-894.887v-44.522zM3753.183 489.739h894.887v44.522h-894.887v-44.522zM66.783 618.852h1059.617v-213.704h-1059.617v213.704zM173.635 458.574h102.4v102.4h-102.4v-102.4zM66.783 934.957h1059.617v-213.704h-1059.617v213.704zM173.635 774.678h102.4v102.4h-102.4v-102.4zM66.783 298.296h1059.617v-209.252h-1059.617v209.252zM173.635 142.47h102.4v102.4h-102.4v-102.4zM6063.861 779.13v-716.8h-988.383v716.8h405.148v89.043h-89.043v89.043h360.626v-89.043h-89.043v-89.043h400.696zM5164.522 690.087v-538.713h805.843v538.713h-805.843z"></path>
</svg>
