<!-- Generated by IcoMoon.io -->
<svg version="1.1" xmlns="http://www.w3.org/2000/svg" width="1024" height="1024" viewBox="0 0 1024 1024">
<title></title>
<g id="icomoon-ignore">
</g>
<path d="M864 129.6c-16-16-35.2-24-57.6-24h-166.4c-8-24-24-43.2-44.8-57.6s-41.6-22.4-67.2-22.4c-25.6 0-48 8-68.8 22.4s-35.2 33.6-43.2 57.6h-168c-22.4 0-41.6 8-57.6 24s-24 33.6-24 56v112h80v-112h78.4v80h401.6v-80h78.4v641.6h-89.6v78.4h89.6c22.4 0 41.6-8 57.6-24s24-33.6 24-56v-641.6c1.6-20.8-6.4-38.4-22.4-54.4zM556.8 172.8c-8 8-17.6 11.2-28.8 11.2s-20.8-3.2-28.8-11.2c-8-8-11.2-17.6-11.2-28.8s3.2-20.8 11.2-28.8c8-8 17.6-11.2 28.8-11.2s20.8 3.2 28.8 11.2c8 8 11.2 17.6 11.2 28.8 0 12.8-4.8 22.4-11.2 28.8zM606.4 588.8l-206.4-206.4h-232v584h462.4v-353.6l-24-24zM494.4 588.8h-70.4v-70.4l70.4 70.4zM550.4 886.4h-300.8v-424h96v206.4h204.8v217.6z"></path>
</svg>
