<svg width="1024" height="1024" viewBox="0 0 1024 1024" fill="none" xmlns="http://www.w3.org/2000/svg">
<path fill-rule="evenodd" clip-rule="evenodd" d="M930.121 340.351C941.294 327.945 941.741 307.7 928.737 295.851C916.278 283.547 895.944 283.13 884.082 296.119L796.533 383.61C750.653 347.431 698.144 329.777 638.437 329.777C567.379 329.777 506.102 354.862 456.019 404.911C405.958 454.939 380.833 515.197 380.833 586.243C380.833 646.85 399.403 699.339 435.621 744.284L347.997 831.849C335.545 844.293 335.078 864.736 348.136 876.635C354.631 883.05 362.458 885.5 370.816 885.5C379.233 885.5 387.113 883.015 393.634 876.497L481.326 788.864C526.354 824.163 579.716 842.709 639.41 842.709C710.467 842.709 771.745 817.625 821.828 767.575C871.889 717.547 897.014 657.29 897.014 586.243C897.014 525.636 878.444 473.148 842.226 428.203L929.989 340.498L930.121 340.351ZM502.629 449.56C540.151 412.063 584.957 393.403 638.437 393.403C681.457 393.403 718.529 405.665 750.693 429.42L481.59 698.345C457.902 665.42 446.438 628.403 446.438 586.243C446.438 532.763 465.135 487.029 502.629 449.56ZM638.437 779.083C595.417 779.083 558.345 766.822 526.18 743.067L795.284 474.141C818.971 507.067 830.436 544.084 830.436 586.243C830.436 639.723 811.738 685.458 774.245 722.927C736.723 760.423 691.917 779.083 638.437 779.083Z" fill="black"/>
<path d="M271.182 345.008C271.182 333.962 280.136 325.008 291.182 325.008H367C378.046 325.008 387 316.053 387 305.008V282.55C387 271.504 378.046 262.55 367 262.55H291.182C280.136 262.55 271.182 253.596 271.182 242.55V166C271.182 154.954 262.227 146 251.182 146H228.818C217.772 146 208.818 154.954 208.818 166V242.55C208.818 253.596 199.864 262.55 188.818 262.55H113C101.954 262.55 93 271.504 93 282.55V305.008C93 316.053 101.954 325.008 113 325.008H188.818C199.864 325.008 208.818 333.962 208.818 345.008V421C208.818 432.046 217.772 441 228.818 441H251.182C262.227 441 271.182 432.046 271.182 421V345.008Z" fill="black"/>
</svg>
