<svg width="1024" height="1024" viewBox="0 0 1024 1024" fill="none" xmlns="http://www.w3.org/2000/svg">
<path d="M759.721 976V879.174C759.721 871.694 760.138 864.214 761.111 856.457C762.083 848.838 763.612 841.774 765.835 835.402C760.972 840.665 755.553 845.237 749.579 849.392C743.605 853.548 737.213 857.565 730.405 861.721L648.431 909.372L608 842.743L689.974 795.092C697.06 790.936 704.146 787.473 711.371 784.426C718.457 781.379 725.82 779.162 733.323 777.777C725.82 776.253 718.457 773.898 711.371 770.713C704.285 767.527 697.199 763.925 689.974 759.769L608 711.01L648.431 643.828L730.405 693.141C737.213 697.297 743.604 701.452 749.718 705.746C755.831 710.04 761.389 714.75 766.252 720.014C761.806 707.27 759.444 693.002 759.444 676.934V579H841.418V675.826C841.418 683.722 841.001 691.34 840.028 698.82C839.056 706.3 837.527 713.365 835.304 720.152C840.167 714.889 845.586 710.179 851.56 705.885C857.534 701.591 863.926 697.435 870.595 693.279L952.569 645.074L993 712.257L911.026 759.769C903.523 763.925 896.159 767.388 889.074 770.435C881.988 773.483 874.624 775.699 867.121 777.084C874.624 778.608 881.988 780.963 889.352 784.149C896.715 787.335 903.801 790.936 911.026 795.092L993 843.851L952.569 910.48L870.595 861.721C863.509 857.565 856.979 853.409 851.004 849.115C845.03 844.821 839.333 840.111 834.193 834.848C839.056 847.868 841.556 862.275 841.556 877.927V975.862H759.721V976Z" fill="black"/>
<path fill-rule="evenodd" clip-rule="evenodd" d="M609.6 99.1992L840 329.599V529H758.4V385.599H553.6V179.199H265.6V844.799H550.762L598.336 923.199H185.6V99.1992H609.6ZM704 305.599L633.6 235.199V305.599H704Z" fill="black"/>
</svg>
