<svg width="1024" height="1024" viewBox="0 0 1024 1024" fill="none" xmlns="http://www.w3.org/2000/svg">
<path d="M840.001 841.6C854.401 828.8 860.801 812.8 860.801 793.6V305.6H790.401V793.6H304.001V862.4H790.401C809.601 862.4 827.201 854.4 840.001 841.6Z" fill="black"/>
<path fill-rule="evenodd" clip-rule="evenodd" d="M184.001 187.2C169.601 200 163.201 216 163.201 235.2V652.8C163.201 672 171.201 689.6 184.001 702.4C196.801 716.8 214.401 723.2 233.601 723.2H651.201C670.401 723.2 688.001 715.2 700.801 702.4C715.201 689.6 721.601 672 721.601 652.8V235.2C721.601 217.6 713.601 201.6 700.801 187.2C688.001 172.8 670.401 166.4 651.201 166.4H233.601C214.401 166.4 196.801 174.4 184.001 187.2ZM586.398 298L642 353.014L407.773 587L250 429.617L305.603 373.906L407.773 476.971L586.398 298Z" fill="black"/>
</svg>
