<svg width="1024" height="1024" viewBox="0 0 1024 1024" fill="none" xmlns="http://www.w3.org/2000/svg">
<path d="M842.625 644.624L916 728.591H824.744L795.148 694.634C761.235 722.417 719.307 736 673.062 736C581.807 736 525.08 684.756 525.08 615.606C525.08 570.536 549.744 529.17 611.403 492.743C578.107 454.464 563.925 423.594 563.925 392.106C563.925 335.305 612.636 289 687.861 289C758.769 289 807.48 330.366 807.48 389.019C807.48 432.238 782.816 471.751 727.939 503.239L721.773 506.943L788.365 582.267C796.381 563.744 801.314 540.901 804.397 514.352H883.321C877.155 568.066 862.973 611.285 842.625 644.624ZM687.244 358.149C661.964 358.149 644.699 374.202 644.699 395.193C644.699 412.481 655.181 431.003 672.446 450.142L678.612 457.551L687.861 451.994C716.84 435.325 730.405 418.037 730.405 397.046C730.405 373.584 711.908 358.149 687.244 358.149ZM612.636 610.05C612.636 640.92 636.067 661.294 677.995 661.294C701.426 661.294 723.006 655.12 742.121 642.155L657.031 545.222C626.201 562.51 612.636 585.354 612.636 610.05Z" fill="black"/>
<path d="M426.546 644.624L499.92 728.591H408.664L379.068 694.634C345.155 722.417 303.227 736 256.982 736C165.727 736 109 684.756 109 615.606C109 570.536 133.664 529.17 195.323 492.743C162.027 454.464 147.845 423.594 147.845 392.106C147.845 335.305 196.556 289 271.781 289C342.689 289 391.4 330.366 391.4 389.019C391.4 432.238 366.736 471.751 311.859 503.239L305.693 506.943L372.285 582.267C380.301 563.744 385.234 540.901 388.317 514.352H467.241C461.075 568.066 446.893 611.285 426.546 644.624ZM271.164 358.149C245.884 358.149 228.619 374.202 228.619 395.193C228.619 412.481 239.101 431.003 256.366 450.142L262.532 457.551L271.781 451.994C300.76 435.325 314.326 418.037 314.326 397.046C314.326 373.584 295.828 358.149 271.164 358.149ZM196.556 610.05C196.556 640.92 219.987 661.294 261.915 661.294C285.346 661.294 306.926 655.12 326.041 642.155L240.951 545.222C210.121 562.51 196.556 585.354 196.556 610.05Z" fill="black"/>
</svg>
