<svg width="1024" height="1024" viewBox="0 0 1024 1024" fill="none" xmlns="http://www.w3.org/2000/svg">
<path d="M357.721 622.37L419.166 692.582H342.747L317.963 664.188C289.564 687.42 254.453 698.778 215.727 698.778C139.308 698.778 91.8047 655.927 91.8047 598.105C91.8047 560.418 112.458 525.828 164.093 495.368C136.21 463.359 124.334 437.546 124.334 411.216C124.334 363.719 165.125 324.999 228.119 324.999C287.499 324.999 328.29 359.589 328.29 408.635C328.29 444.773 307.636 477.815 261.682 504.144L256.518 507.242L312.283 570.227C318.996 554.739 323.126 535.637 325.708 513.437H391.8C386.637 558.353 374.761 594.491 357.721 622.37ZM227.603 382.821C206.433 382.821 191.975 396.244 191.975 413.797C191.975 428.253 200.753 443.741 215.211 459.745L220.374 465.94L228.119 461.294C252.387 447.355 263.747 432.899 263.747 415.346C263.747 395.728 248.257 382.821 227.603 382.821ZM165.125 593.459C165.125 619.272 184.746 636.309 219.858 636.309C239.479 636.309 257.551 631.146 273.557 620.305L202.302 539.251C176.485 553.706 165.125 572.808 165.125 593.459Z" fill="black"/>
<path d="M821.76 504.413L932.196 698.778H846.835L773.745 569.023L700.655 698.778H615.827L725.729 504.413L619.562 324.999H706.523L773.745 441.938L840.966 324.999H927.928L821.76 504.413Z" fill="black"/>
<path d="M576.914 599.321L576.914 699.998H550.838V663.595H444.642V635.534H550.838V599.321H576.914Z" fill="black"/>
<path d="M442.375 526C442.375 487.132 470.719 459.072 510.779 459.072C550.839 459.072 579.183 487.132 579.183 526C579.183 564.868 550.839 592.929 510.779 592.929C470.719 592.929 442.375 564.868 442.375 526ZM468.263 526C468.263 548.373 485.08 563.92 510.779 563.92C536.478 563.92 553.295 548.373 553.295 526C553.295 503.628 536.478 488.08 510.779 488.08C485.08 488.08 468.263 503.628 468.263 526Z" fill="black"/>
<path d="M493.016 408.801L576.914 408.801V436.861L444.642 436.861V408.422L528.54 353.628V353.059L444.642 353.059V324.998L576.914 324.998V353.438L493.016 408.042V408.801Z" fill="black"/>
</svg>
