<svg width="1024" height="1024" viewBox="0 0 1024 1024" fill="none" xmlns="http://www.w3.org/2000/svg">
<path d="M964.799 64.0004C956.799 118.4 950.399 171.2 939.199 222.4C919.999 310.4 886.399 393.6 831.999 465.6C780.799 536 715.199 590.4 641.599 633.6C585.599 665.6 527.999 692.8 470.399 723.2C457.599 729.6 447.999 728 438.399 716.8C395.199 672 350.399 627.2 305.599 584C297.599 576 295.999 569.6 299.199 558.4C337.599 465.6 385.599 379.2 446.399 300.8C523.199 200 623.999 136 743.999 99.2004C809.599 78.4004 878.399 65.6004 947.199 62.4004C950.399 62.4004 953.599 64.0004 964.799 64.0004ZM665.599 451.2C711.999 456 763.199 411.2 761.599 356.8C759.999 299.2 723.199 260.8 665.599 260.8C612.799 259.2 569.599 305.6 569.599 356.8C571.199 408 617.599 456 665.599 451.2ZM131.199 876.8C126.399 779.2 174.399 664 283.199 620.8C233.599 668.8 259.199 683.2 259.199 747.2C323.199 747.2 337.599 772.8 383.999 724.8C375.999 801.6 241.599 881.6 131.199 876.8ZM395.199 344C347.199 408 310.399 476.8 283.199 550.4C281.599 555.2 271.999 560 268.799 558.4C206.399 545.6 143.999 532.8 81.5992 520C73.5992 518.4 62.3992 510.4 59.1992 502.4C57.5992 496 65.5992 483.2 71.9992 480C161.599 428.8 252.799 379.2 342.399 329.6C369.599 315.2 369.599 315.2 395.199 344ZM679.999 627.2C708.799 652.8 708.799 652.8 691.199 684.8C643.199 772.8 593.599 860.8 543.999 948.8C540.799 955.2 527.999 963.2 521.599 961.6C515.199 960 505.599 950.4 503.999 942.4C491.199 881.6 478.399 819.2 467.199 756.8C465.599 752 463.999 748.8 462.399 742.4C540.799 715.2 612.799 678.4 679.999 627.2Z" fill="black"/>
</svg>
