<svg width="1024" height="1024" viewBox="0 0 1024 1024" fill="none" xmlns="http://www.w3.org/2000/svg">
<path d="M389.12 611.839C359.009 582.864 332.048 551.025 308.541 516.637L307.2 514.559H249.344C242.432 514.606 236.5 518.754 233.857 524.69L233.814 524.799L198.315 604.5L335.872 685.225L389.12 611.839ZM184.491 635.903L77.9953 876.031C77.0953 878.042 76.5703 880.389 76.5703 882.858C76.5703 892.245 84.1483 899.861 93.5203 899.924H179.883L316.416 712.191L184.491 635.903ZM551.595 685.055C540.854 693.552 527.112 698.685 512.171 698.685C497.23 698.685 483.488 693.552 472.613 684.952L472.747 685.054C451.584 667.987 432.128 651.945 414.038 635.561L310.273 778.409H671.916L831.831 618.494L790.188 524.798C787.502 518.753 781.57 514.605 774.663 514.558H716.801C670.064 580.366 615.475 636.636 553.494 683.673L551.596 685.054L551.595 685.055ZM902.827 778.41L846.678 651.946L720.214 778.41H902.827ZM946.005 876.031L917.845 812.543H286.378L221.866 899.924H930.474C939.852 899.861 947.43 892.244 947.43 882.858C947.43 880.389 946.906 878.042 945.962 875.922L946.005 876.031ZM286.208 373.247C294.769 427.541 316.941 475.546 349.102 515.104L348.672 514.559C368.029 540.071 387.995 562.688 409.494 583.746L409.6 583.849C417.792 592.041 426.667 600.062 434.517 607.572C454.826 626.345 475.136 643.412 494.08 658.772C499.053 662.714 505.419 665.097 512.341 665.097C519.263 665.097 525.629 662.715 530.664 658.725L530.603 658.772C585.486 616.613 633.232 569.355 674.534 516.795L675.84 515.071C707.433 476.052 729.578 428.138 738.074 375.65L738.304 373.93C738.516 370.563 738.637 366.629 738.637 362.666C738.637 358.703 738.516 354.769 738.277 350.866L738.303 351.402C738.303 351.25 738.304 351.07 738.304 350.889C738.304 225.802 637.046 124.365 512.027 124.074H511.999C490.827 124.101 470.306 126.839 450.749 131.959L452.436 131.584C355.145 158.218 284.825 245.838 284.825 349.882C284.825 357.509 285.203 365.047 285.941 372.48L285.866 371.541L286.208 373.247ZM406.528 318.975C415.017 275.974 448.144 242.56 490.307 233.764L491.008 233.642C496.075 232.833 501.917 232.371 507.866 232.371C509.32 232.371 510.767 232.399 512.207 232.453L511.999 232.447C512.3 232.444 512.656 232.442 513.012 232.442C572.394 232.442 620.532 280.58 620.532 339.962C620.532 392.278 583.168 435.867 533.669 445.5L532.991 445.61C526.69 446.89 519.439 447.635 512.018 447.658H511.999C452.589 447.571 404.461 399.39 404.461 339.967C404.461 332.539 405.213 325.286 406.645 318.281L406.527 318.975H406.528Z" fill="black"/>
</svg>
