<!-- Generated by IcoMoon.io -->
<svg version="1.1" xmlns="http://www.w3.org/2000/svg" width="1024" height="1024" viewBox="0 0 1024 1024">
<title></title>
<g id="icomoon-ignore">
</g>
<path d="M520 782.4v-57.6l-59.2 57.6h59.2zM859.2 689.6c0 1.6 0 3.2 1.6 4.8 0 1.6 1.6 3.2 3.2 6.4 3.2 4.8 6.4 11.2 8 17.6 6.4 17.6 1.6 32-6.4 41.6-4.8 4.8-9.6 8-16 8-6.4 1.6-11.2 1.6-17.6 0-12.8-3.2-25.6-14.4-30.4-33.6l27.2-4.8c1.6 6.4 4.8 11.2 9.6 11.2 1.6 0 3.2 0 4.8 0s3.2-1.6 3.2-1.6 3.2-6.4 0-12.8c-1.6-4.8-4.8-11.2-6.4-14.4s-3.2-6.4-4.8-9.6c-1.6-3.2-1.6-6.4-1.6-9.6l-12.8-38.4h-36.8v-150.4h19.2v-174.4h-248v470.4c20.8 6.4 35.2 25.6 35.2 48v41.6c0 1.6 0 4.8 0 6.4h48v81.6h-329.6v-81.6h43.2c0-1.6 0-4.8 0-6.4v-41.6c0-24 16-43.2 38.4-49.6v-468.8h-267.2v-73.6l316.8-208 1.6-1.6h65.6l1.6 1.6 374.4 208v249.6h17.6v150.4h-28.8l-12.8 33.6zM820.8 502.4h44.8v-172.8h-44.8v172.8zM846.4 257.6l-339.2-190.4v3.2l40 185.6c100.8 0 200 1.6 299.2 1.6v0zM433.6 73.6l-278.4 182.4h238.4l40-182.4zM510.4 256l-35.2-164.8h-9.6l-35.2 164.8h80zM489.6 704h-65.6v64l65.6-64zM520 667.2v-57.6l-59.2 57.6h59.2zM496 582.4h-72v70.4l72-70.4zM520 545.6v-57.6l-59.2 57.6h59.2zM494.4 462.4h-68.8v67.2l68.8-67.2zM520 425.6v-57.6l-59.2 57.6h59.2zM483.2 353.6h-57.6v56l57.6-56z"></path>
</svg>
