<!-- Generated by IcoMoon.io -->
<svg version="1.1" xmlns="http://www.w3.org/2000/svg" width="1024" height="1024" viewBox="0 0 1024 1024">
<title></title>
<g id="icomoon-ignore">
</g>
<path d="M577.6 73.6h-393.6v875.2h657.6v-612.8l-264-262.4zM318.4 827.2c8 8 19.2 14.4 33.6 14.4 25.6 0 40-16 44.8-36.8h51.2c-9.6 56-48 83.2-97.6 83.2-28.8 0-52.8-11.2-72-28.8-27.2-27.2-25.6-59.2-25.6-105.6s0-78.4 25.6-105.6c19.2-19.2 41.6-28.8 72-28.8 49.6 0 88 28.8 97.6 83.2h-52.8c-4.8-20.8-19.2-36.8-44.8-36.8-14.4 0-25.6 4.8-33.6 14.4-9.6 11.2-12.8 24-12.8 75.2s4.8 60.8 14.4 72zM683.2 728h-33.6l-6.4 40h25.6v44.8h-33.6l-11.2 70.4h-51.2l11.2-70.4h-43.2l-11.2 70.4h-49.6l11.2-70.4h-25.6v-44.8h33.6l6.4-40h-25.6v-44.8h32l11.2-65.6h51.2l-11.2 65.6h43.2l11.2-65.6h51.2l-9.6 65.6h25.6v44.8zM536 379.2v-240l240 240h-240zM548.8 768h43.2l6.4-40h-43.2z"></path>
</svg>
