<?xml version="1.0" encoding="UTF-8"?>
<svg xmlns="http://www.w3.org/2000/svg" version="1.1" viewBox="0 0 1024 1024">
  <defs>
    <style>
      .cls-1 {
        fill-rule: evenodd;
      }
    </style>
  </defs>
  <!-- Generator: Adobe Illustrator 28.6.0, SVG Export Plug-In . SVG Version: 1.2.0 Build 709)  -->
  <g>
    <g id="Layer_1">
      <g>
        <rect x="730" y="491.1" width="39.6" height="39.6"/>
        <path class="cls-1" d="M888,337.9c0-14.2-1.9-26.8-8-37.6-6-10.6-15.9-19.5-28-26.5-13.8-8-27.6-15.9-41.3-23.8-86.3-49.7-172.4-99.4-258.7-149.2-27-15.6-53.2-15-80,.8-39.8,23.5-236.5,137.8-296,172.2-24.5,14.2-40,35.9-40,64.1,0,58,0,116.1,0,174.1,0,58,0,116.1,0,174.1,0,13.9,6.1,26.3,12,36.9,6,10.9,15.6,20,28,27.2,59.5,34.4,256.2,148.7,296,172.2,26.8,15.8,53,16.4,80,.8,96.9-55.9,193.5-111.6,290.3-167.5l9.7-5.6c12.4-7.2,22-16.3,28-27.2,5.9-10.6,8-22.9,8-36.8,0,0,0-232.2,0-348.2ZM517.1,791.5h-3.1c-103.7,0-194.3-56.5-242.5-140.4-23.5-41-37-88.5-37-139.1,0-154.4,125.1-279.5,279.5-279.5,103.1,0,193.1,55.8,241.6,138.8l-121.7,70c-24-40.6-67.9-68-118.3-68.5h-1.6c-76.9,0-139.2,62.3-139.2,139.2s6.7,48.7,18.4,69c24,41.9,69.1,70.1,120.8,70.1s96.8-28.2,120.8-70.1v.2c0,0,121.4,70.4,121.4,70.4-47.8,82.8-136.9,138.8-239.1,139.9ZM829.1,491.1h-39.6v39.6h39.6v19.8h-39.6v39.6h-19.8v-39.6h-39.6v39.6h-19.8v-39.6h-39.6v-19.8h39.6v-39.6h-39.6v-19.8h39.6v-39.6h19.8v39.6h39.6v-39.6h19.8v39.6h39.6v19.8Z"/>
      </g>
    </g>
  </g>
</svg>