<!-- Generated by IcoMoon.io -->
<svg version="1.1" xmlns="http://www.w3.org/2000/svg" width="1024" height="1024" viewBox="0 0 1024 1024">
<title></title>
<g id="icomoon-ignore">
</g>
<path d="M840 452.8v-377.6h-657.6v875.2h320v-54.4c0-3.2 1.6-8 1.6-11.2h-254.4v-747.2h524.8v315.2h64c1.6 0 1.6 0 1.6 0v0zM675.2 678.4h-107.2l188.8 190.4 190.4-190.4h-108.8v-161.6h-163.2zM633.6 896h-65.6v54.4h379.2v-54.4zM294.4 337.6h35.2v32h-35.2v-32zM390.4 222.4c4.8-6.4 11.2-9.6 19.2-9.6 9.6 0 16 3.2 19.2 8s4.8 14.4 4.8 25.6h35.2c0-20.8-4.8-35.2-16-46.4-9.6-11.2-24-16-44.8-16-17.6 0-33.6 6.4-44.8 17.6s-16 28.8-16 49.6v54.4c0 20.8 6.4 38.4 17.6 49.6s27.2 17.6 44.8 17.6 33.6-4.8 43.2-16c9.6-9.6 14.4-25.6 14.4-46.4v0h-35.2c0 12.8-1.6 20.8-4.8 25.6s-9.6 8-17.6 8c-9.6 0-16-3.2-20.8-9.6s-6.4-16-6.4-28.8v-54.4c1.6-12.8 4.8-22.4 8-28.8zM481.6 235.2c0 16 4.8 27.2 14.4 35.2s24 16 43.2 22.4c9.6 4.8 16 8 19.2 12.8s4.8 9.6 4.8 17.6c0 6.4-1.6 12.8-4.8 16s-9.6 4.8-16 4.8c-9.6 0-17.6-3.2-22.4-8s-6.4-12.8-6.4-24h-35.2c0 19.2 6.4 33.6 19.2 43.2s27.2 16 44.8 16 32-4.8 41.6-12.8c11.2-9.6 16-20.8 16-36.8s-4.8-27.2-12.8-36.8-22.4-16-40-22.4c-11.2-4.8-19.2-9.6-22.4-12.8s-6.4-9.6-6.4-14.4c0-6.4 1.6-12.8 6.4-16 3.2-4.8 9.6-6.4 16-6.4 8 0 12.8 3.2 17.6 8s6.4 12.8 6.4 20.8h35.2c0-16-4.8-28.8-16-40s-25.6-16-43.2-16c-17.6 0-32 4.8-43.2 14.4s-16 19.2-16 35.2zM672 331.2v0l-1.6-8-30.4-136h-38.4l51.2 182.4h38.4l51.2-182.4h-38.4l-30.4 136z"></path>
</svg>
