<!-- Generated by IcoMoon.io -->
<svg version="1.1" xmlns="http://www.w3.org/2000/svg" width="1024" height="1024" viewBox="0 0 1024 1024">
<title></title>
<g id="icomoon-ignore">
</g>
<path d="M296 635.2l24-198.4h124.8v-62.4h-116.8l6.4-49.6c8-72 36.8-136 104-136 19.2 0 36.8 3.2 51.2 9.6l16-62.4c-14.4-8-36.8-14.4-67.2-14.4-131.2 0-174.4 112-187.2 208l-6.4 44.8h-96v62.4h89.6l-22.4 192c-11.2 99.2-33.6 153.6-94.4 153.6-20.8 0-38.4-3.2-54.4-11.2l-16 60.8c16 9.6 43.2 16 76.8 16 112 1.6 152-84.8 168-212.8zM446.4 601.6v8c0 72 14.4 134.4 41.6 184s59.2 81.6 97.6 96h1.6l17.6-44.8c-24-17.6-43.2-46.4-59.2-84.8s-22.4-89.6-22.4-150.4v-9.6c0-62.4 8-112 22.4-150.4 16-38.4 35.2-67.2 59.2-84.8l-17.6-44.8h-1.6c-36.8 14.4-68.8 46.4-97.6 96-27.2 52.8-41.6 113.6-41.6 185.6zM672 614.4l-97.6 152h76.8l57.6-105.6 59.2 105.6h76.8l-97.6-152 94.4-148.8h-78.4l-54.4 104-56-104h-76.8zM873.6 451.2c16 38.4 24 89.6 24 150.4v9.6c0 62.4-8 112-24 150.4s-35.2 67.2-59.2 84.8l17.6 44.8h1.6c38.4-14.4 72-46.4 100.8-99.2 28.8-51.2 43.2-112 43.2-182.4v-8c0-68.8-14.4-129.6-43.2-180.8s-62.4-84.8-100.8-99.2h-1.6l-17.6 44.8c24 17.6 43.2 44.8 59.2 84.8z"></path>
</svg>
