<!-- Generated by IcoMoon.io -->
<svg version="1.1" xmlns="http://www.w3.org/2000/svg" width="1024" height="1024" viewBox="0 0 1024 1024">
<title></title>
<g id="icomoon-ignore">
</g>
<path d="M596.702 872.636l216.747-216.747-84.702-84.617-216.747 216.678-216.747-215.586-84.634 84.702 301.38 301.363zM427.298 151.364l-216.747 216.747 84.702 84.617 216.747-216.678 216.747 215.586 84.634-84.702-301.38-301.363zM977.613 270.711l-71.287-46.080 3.601 84.975h-80.657l3.601-84.975-71.287 46.080-40.311-69.854 75.605-38.878-75.605-38.878 40.311-69.854 71.27 46.080-3.584-84.958h80.657l-3.601 84.958 71.287-46.080 40.311 69.854-75.605 38.878 75.605 38.878z"></path>
</svg>
