<!-- Generated by IcoMoon.io -->
<svg version="1.1" xmlns="http://www.w3.org/2000/svg" width="1024" height="1024" viewBox="0 0 1024 1024">
<title></title>
<g id="icomoon-ignore">
</g>
<path d="M416 336l500.8 500.8v40h-121.6l-284.8-283.2-94.4 94.4c9.6 20.8 14.4 43.2 14.4 65.6 0 44.8-16 81.6-48 113.6s-70.4 48-115.2 48-83.2-16-115.2-48c-32-32-48-68.8-48-113.6s16-81.6 48-113.6c32-32 68.8-48 113.6-48 24 0 46.4 4.8 65.6 12.8l96-94.4-96-94.4c-20.8 9.6-41.6 12.8-65.6 12.8-44.8 0-81.6-16-113.6-48s-48-68.8-48-113.6 16-81.6 48-113.6 70.4-48 115.2-48 83.2 16 115.2 48 48 68.8 48 113.6c1.6 25.6-4.8 46.4-14.4 68.8zM212.8 326.4c16 16 35.2 24 57.6 24s41.6-8 57.6-24c16-16 24-35.2 24-57.6s-8-41.6-24-57.6-35.2-24-57.6-24-41.6 8-57.6 24-24 35.2-24 57.6 8 43.2 24 57.6zM212.8 812.8c16 16 35.2 24 57.6 24s41.6-8 57.6-24c16-16 24-35.2 24-57.6s-8-41.6-24-57.6-35.2-24-57.6-24-41.6 8-57.6 24-24 35.2-24 57.6c0 22.4 8 41.6 24 57.6zM492.8 512c0 14.4 6.4 20.8 19.2 20.8s19.2-6.4 19.2-20.8c0-14.4-6.4-20.8-19.2-20.8s-19.2 6.4-19.2 20.8zM795.2 147.2h121.6v40l-284.8 284.8-80-81.6 243.2-243.2z"></path>
</svg>
