<!-- Generated by IcoMoon.io -->
<svg version="1.1" xmlns="http://www.w3.org/2000/svg" width="1024" height="1024" viewBox="0 0 1024 1024">
<title></title>
<g id="icomoon-ignore">
</g>
<path d="M675.2 120l228.8 228.8v326.4l-228.8 228.8h-326.4l-228.8-228.8v-326.4l228.8-228.8h326.4zM472 726.4c11.2 11.2 24 16 41.6 16 16 0 30.4-4.8 40-16 11.2-11.2 16-24 16-40s-4.8-28.8-16-40c-11.2-11.2-24-16-40-16s-30.4 4.8-41.6 16c-11.2 11.2-16 24-16 40-1.6 16 4.8 28.8 16 40zM555.2 555.2v-260.8h-86.4v260.8h86.4z"></path>
</svg>
