<!-- Generated by IcoMoon.io -->
<svg version="1.1" xmlns="http://www.w3.org/2000/svg" width="1024" height="1024" viewBox="0 0 1024 1024">
<title></title>
<g id="icomoon-ignore">
</g>
<path d="M80 518.4v300.8h864v-300.8h-864zM790.4 587.2h91.2v56h-91.2v-56zM790.4 694.4h91.2v56h-91.2v-56zM142.4 587.2h587.2v56h-587.2v-56zM142.4 694.4h587.2v56h-587.2v-56zM673.6 172.8h-24v300.8h294.4v-300.8h-270.4zM788.8 427.2c-54.4 0-97.6-44.8-97.6-97.6 0-54.4 44.8-97.6 97.6-97.6 54.4 0 97.6 44.8 97.6 97.6 1.6 52.8-43.2 97.6-97.6 97.6zM604.8 473.6v-300.8h-524.8v300.8h524.8zM206.4 307.2l86.4 35.2 104-88 67.2 19.2 59.2-57.6h40v40l-83.2 81.6-72-20.8-107.2 89.6-80-32-57.6 57.6h-41.6v-40l84.8-84.8zM788.8 260.8v67.2h67.2c1.6-36.8-28.8-67.2-67.2-67.2z"></path>
</svg>
