<!-- Generated by IcoMoon.io -->
<svg version="1.1" xmlns="http://www.w3.org/2000/svg" width="1024" height="1024" viewBox="0 0 1024 1024">
<title></title>
<g id="icomoon-ignore">
</g>
<path d="M867.462 367.978c36.966-20.163 53.787-42.005 53.787-67.209v-150.225c0-25.203-16.824-45.366-53.787-67.23-43.247-23.782-93.552-41.432-146.865-50.126l-2.716-0.366c-58.35-10.724-125.494-16.855-194.073-16.855-3.853 0-7.7 0.020-11.545 0.058l0.588-0.005c-3.568-0.041-7.783-0.064-12.004-0.064-68.218 0-135.003 6.137-199.833 17.887l6.789-1.022c-56.741 9.956-107.507 27.497-154.196 51.797l2.933-1.39c-36.966 20.183-53.787 42.026-53.787 67.23v150.225c0 25.203 16.824 45.366 53.787 67.209 27.329 15.653 58.946 28.624 92.302 37.283l2.701 0.595c7.889 28.637 19.376 53.705 34.212 76.384l-0.629-1.023c-1.183-0.228-2.387-0.395-3.547-0.622-67.156-11.5-127.127-34.998-180.286-68.352l2.058 1.205v173.748c0 25.203 16.824 45.366 53.787 67.23 43.249 23.755 93.557 41.378 146.871 50.044l2.71 0.363c17.653 3.255 35.638 5.891 53.932 8.153v67.147c-26.967-3.61-53.538-7.78-79.054-13.111-67.17-11.525-127.145-35.050-180.303-68.434l2.056 1.205v173.748c0 23.524 16.824 45.366 53.787 67.23 43.249 23.755 93.557 41.378 146.871 50.044l2.71 0.363c58.351 10.724 125.499 16.855 194.080 16.855 3.857 0 7.71-0.020 11.557-0.058l-0.587 0.005c3.533 0.041 7.708 0.064 11.886 0.064 67.643 0 133.853-6.137 198.104-17.885l-6.703 1.018c56.081-9.598 106.317-27.167 152.263-51.715l-2.682 1.308c36.985-20.183 53.787-42.026 53.787-67.23v-173.748c-48.825 32.744-106.609 56.341-168.837 66.867l-2.587 0.362c-19.126 4.148-39.225 7.593-59.802 10.683l-22.943-23.067-21.221-21.221 20.432-20.413c18.256-2.262 36.135-4.896 53.395-8.172 56.081-9.598 106.317-27.167 152.263-51.715l-2.682 1.308c36.985-20.183 53.787-42.026 53.787-67.23v-173.748c-48.825 32.738-106.608 56.334-168.833 66.867l-2.591 0.362c-3.464 0.746-7.219 1.266-10.724 1.97 14.683-22.188 26.494-47.895 34.053-75.361l0.443-1.887c35.991-9.043 67.582-21.843 96.811-38.341l-1.929 1.002zM659.279 481.486c-9.004 8.997-18.82 17.182-29.332 24.433l-0.706 0.46-3.858 2.635 3.754 58.248-45.221 45.221 46.050 46.031-74.927 74.821 65.218 65.218-93.221 93.221c-3.851 3.846-9.167 6.224-15.038 6.224s-11.189-2.379-15.039-6.224l-67.934-67.853c-3.831-3.861-6.204-9.17-6.224-15.035v-286.265l-4.523-2.281c-68.456-35.040-114.5-105.093-114.5-185.9 0-114.964 93.198-208.162 208.162-208.162s208.162 93.198 208.162 208.162c0 57.41-23.24 109.393-60.827 147.050l0.004-0.004zM512 183.629c-37.125 0.006-67.219 30.103-67.219 67.23 0 37.13 30.101 67.23 67.23 67.23s67.23-30.101 67.23-67.23c0-18.569-7.528-35.377-19.696-47.544v0c-12.1-12.161-28.848-19.685-47.352-19.685-0.067 0-0.135 0-0.202 0h0.011z"></path>
</svg>
