<!-- Generated by IcoMoon.io -->
<svg version="1.1" xmlns="http://www.w3.org/2000/svg" width="1024" height="1024" viewBox="0 0 1024 1024">
<title></title>
<g id="icomoon-ignore">
</g>
<path d="M501.18 813.909c0.072-36.615 6.852-71.625 19.174-103.897l-0.674 2.009h-199.134c-7.046-0.010-12.756-5.719-12.766-12.765v-25.601c0.010-7.046 5.719-12.756 12.765-12.766h223.882c26.227-42.4 61.556-76.806 103.435-101.2l1.406-0.756h-328.721c-7.043-0.019-12.747-5.723-12.766-12.764v-25.602c0.019-7.043 5.723-12.747 12.764-12.766h382.91c7.043 0.019 12.747 5.723 12.766 12.764v10.344c23.683-6.953 50.9-10.987 79.047-11.059h0.040c7.799 0 15.462 0.58 23.108 1.178v-370.62c0-0.034 0-0.075 0-0.115 0-14.082-11.416-25.498-25.498-25.498-5.789 0-11.127 1.929-15.406 5.179l0.063-0.046-61.269 71.475-86.869-71.407c-4.214-3.23-9.559-5.176-15.36-5.176s-11.146 1.946-15.421 5.221l0.061-0.045-86.716 71.475-86.801-71.475c-4.214-3.23-9.559-5.176-15.36-5.176s-11.146 1.946-15.421 5.221l0.061-0.045-86.784 71.475-61.269-71.475c-4.217-3.204-9.555-5.133-15.343-5.133-14.082 0-25.498 11.416-25.498 25.498 0 0.041 0 0.081 0 0.122v-0.006 765.764c0.051 14.1 11.493 25.511 25.6 25.511 5.74 0 11.038-1.889 15.308-5.079l-0.067 0.048 61.269-71.475 86.784 71.475c4.214 3.23 9.559 5.176 15.36 5.176s11.146-1.946 15.421-5.221l-0.061 0.045 81.408-67.038c-3.413-16.751-5.387-36.019-5.427-55.742v-0.032zM307.78 367.394c0.019-7.039 5.725-12.739 12.765-12.749h382.909c7.041 0.010 12.746 5.71 12.766 12.747v25.602c-0.010 7.046-5.719 12.756-12.765 12.766h-382.909c-7.046-0.010-12.756-5.719-12.766-12.765v-0.001zM1016.849 740.659l-46.438-80.384c-1.926-2.998-5.243-4.955-9.018-4.955-1.936 0-3.752 0.515-5.319 1.416l0.052-0.028-55.381 21.436c-4.241-3.837-8.915-7.372-13.886-10.476l-0.415-0.242c-7.152-5.832-15.424-10.662-24.388-14.095l-0.615-0.207-8.926-60.723c-1.151-5.194-5.717-9.021-11.177-9.021-0.47 0-0.933 0.028-1.388 0.083l0.055-0.005h-91.102c-7.151 0-10.718 1.792-12.51 8.943l-8.926 60.723c-9.66 4.571-17.862 9.336-25.621 14.694l0.601-0.393c-4.139 3.129-8.815 6.092-13.729 8.661l-0.556 0.265-21.436-8.926-33.946-12.51c-1.356-0.527-2.925-0.832-4.565-0.832-3.866 0-7.337 1.696-9.707 4.385l-0.012 0.014-44.663 80.401c-1.707 7.134-1.707 10.718 1.792 14.285l33.929 25.003 16.094 12.51c-1.162 5.549-1.828 11.925-1.828 18.457 0 1.678 0.044 3.346 0.131 5.003l-0.010-0.232v1.707c-0.056 1.163-0.088 2.525-0.088 3.895 0 6.21 0.653 12.267 1.895 18.107l-0.101-0.567-48.23 35.738c-1.881 2.293-3.022 5.258-3.022 8.488 0 2.107 0.485 4.101 1.35 5.876l-0.035-0.080 44.663 80.384c1.246 4.599 5.382 7.926 10.296 7.926 1.438 0 2.809-0.285 4.060-0.801l-0.071 0.026 55.296-23.142c10.737 8.753 23.162 15.994 36.627 21.128l0.92 0.308 8.926 62.532c1.157 5.186 5.719 9.004 11.173 9.004 0.471 0 0.935-0.028 1.391-0.084l-0.055 0.005h91.102c7.151 0 10.718-1.707 12.51-8.926l8.926-62.532c14.34-6.177 26.689-13.354 38.046-21.791l-0.5 0.355 55.381 23.228c7.134 1.792 12.493 0 14.285-7.151l44.663-80.384c1.707-7.134 1.707-10.718-1.707-14.285l-50.022-33.946c1.158-6.213 1.82-13.361 1.82-20.663 0-0.902-0.010-1.801-0.030-2.698l0.002 0.133c0.068-1.232 0.107-2.674 0.107-4.124 0-6.135-0.692-12.109-2.001-17.847l0.103 0.536 48.247-37.547c8.772-7.117 8.772-10.701 6.98-16.060zM795.307 885.367c-38.458-0.058-69.618-31.224-69.666-69.679v-0.005c0-38.476 31.191-69.666 69.666-69.666s69.666 31.191 69.666 69.666v0c-0.048 38.459-31.208 69.625-69.66 69.683h-0.006z"></path>
</svg>
