<!-- Generated by IcoMoon.io -->
<svg version="1.1" xmlns="http://www.w3.org/2000/svg" width="1024" height="1024" viewBox="0 0 1024 1024">
<title></title>
<g id="icomoon-ignore">
</g>
<path d="M190.4 137.6v283.2h291.2v-227.2h-120v-56h-171.2zM428.8 248v118.4h-184v-174.4h64v57.6h120zM190.4 768h291.2v-225.6h-120v-57.6h-171.2v283.2zM244.8 539.2h64v57.6h120v118.4h-184v-176zM544 137.6v283.2h291.2v-227.2h-120v-56h-171.2zM780.8 248v118.4h-184v-174.4h64v57.6h120zM713.6 900.8c3.2 1.6 4.8 1.6 8 1.6s4.8 0 8 0c3.2 0 6.4 0 8 0 4.8-1.6 9.6-3.2 14.4-6.4 1.6-1.6 4.8-3.2 6.4-4.8 8-8 12.8-17.6 12.8-28.8h-83.2c0 8 1.6 16 6.4 22.4 1.6 1.6 3.2 4.8 4.8 6.4 4.8 4.8 9.6 8 14.4 9.6zM910.4 820.8l-43.2-43.2v-116.8c0-16-3.2-32-8-46.4-3.2-6.4-4.8-14.4-9.6-20.8-3.2-6.4-8-12.8-12.8-19.2s-9.6-11.2-16-17.6c-11.2-9.6-24-17.6-38.4-24-6.4-3.2-14.4-4.8-22.4-6.4v-14.4c0-9.6-3.2-17.6-9.6-22.4-6.4-6.4-12.8-9.6-22.4-9.6-4.8 0-8 0-12.8 1.6-1.6 0-3.2 1.6-4.8 3.2s-3.2 3.2-4.8 3.2c-1.6 1.6-3.2 3.2-4.8 4.8s-1.6 3.2-3.2 4.8-1.6 8-1.6 12.8v14.4c-16 3.2-28.8 9.6-41.6 17.6s-24 17.6-33.6 30.4c-4.8 6.4-9.6 12.8-12.8 19.2-1.6 3.2-3.2 6.4-4.8 9.6-6.4 14.4-9.6 28.8-11.2 44.8 0 3.2 0 8 0 11.2v116.8l-43.2 43.2v20.8h360v-17.6z"></path>
</svg>
