<!-- Generated by IcoMoon.io -->
<svg version="1.1" xmlns="http://www.w3.org/2000/svg" width="1024" height="1024" viewBox="0 0 1024 1024">
<title></title>
<g id="icomoon-ignore">
</g>
<path d="M340.309 854.699v85.333h200.021c-24.914-42.169-39.634-92.925-39.634-147.118 0-39.742 7.916-77.634 22.257-112.188l-0.714 1.941h-397.653v-514.901h771.584v348.501c33.131 12.26 61.741 28.95 86.853 49.72l-0.495-0.398v-482.475h-942.592v684.885h386.731v86.357zM1016.661 719.189l-46.421-80.384c-1.94-3.005-5.272-4.966-9.062-4.966-1.938 0-3.756 0.513-5.326 1.41l0.053-0.028-55.296 21.333c-4.247-3.751-8.931-7.24-13.893-10.325l-0.443-0.257c-7.173-5.913-15.473-10.811-24.475-14.298l-0.613-0.209-8.875-60.757c-1.178-5.158-5.727-8.949-11.161-8.949-0.457 0-0.908 0.027-1.351 0.079l0.054-0.005h-91.136c-7.168 0-10.752 1.707-12.459 8.875l-9.045 60.757c-9.591 4.519-17.76 9.296-25.46 14.697l0.543-0.361c-4.099 2.976-8.787 5.918-13.668 8.546l-0.668 0.329-21.504-8.875-34.133-12.629c-1.324-0.5-2.855-0.789-4.454-0.789-3.859 0-7.324 1.685-9.7 4.359l-0.012 0.013-44.544 80.043c-1.707 7.168-1.707 10.752 1.877 14.336l34.133 25.088 16.213 12.459c-1.262 5.654-1.985 12.147-1.985 18.809 0 1.548 0.039 3.087 0.116 4.616l-0.009-0.215v1.707c-0.048 1.061-0.076 2.305-0.076 3.555 0 6.361 0.712 12.555 2.059 18.508l-0.106-0.559-48.299 35.669c-1.903 2.286-3.059 5.253-3.059 8.49 0 2.128 0.499 4.139 1.387 5.923l-0.035-0.077 44.544 80.384c1.285 4.604 5.441 7.925 10.374 7.925 1.427 0 2.789-0.278 4.034-0.783l-0.072 0.026 55.296-23.211c10.737 8.72 23.163 15.929 36.626 21.027l0.92 0.306 9.045 62.635c1.102 5.156 5.62 8.966 11.027 8.966 0.505 0 1.002-0.033 1.489-0.098l-0.057 0.006h91.136c6.997 0 10.581-1.707 12.459-8.875l8.875-62.635c14.339-6.107 26.692-13.253 38.037-21.681l-0.49 0.348 55.467 23.211c6.997 1.707 12.459 0 14.165-7.168l44.715-80.384c1.707-7.168 1.707-10.752-1.877-14.336l-50.005-34.133c1.213-6.193 1.908-13.313 1.908-20.596 0-0.919-0.011-1.836-0.033-2.75l0.003 0.136c0.070-1.222 0.11-2.652 0.11-4.091 0-6.116-0.725-12.063-2.093-17.759l0.105 0.517 48.299-37.547c8.533-6.485 8.533-10.069 6.827-15.36zM794.795 863.915c-38.478-0.097-69.632-31.312-69.632-69.802 0 0 0 0 0 0v0c0-38.457 31.175-69.632 69.632-69.632s69.632 31.175 69.632 69.632v0c0 0.001 0 0.001 0 0.002 0 38.371-30.961 69.511-69.263 69.801h-0.027z"></path>
</svg>
