<!-- Generated by IcoMoon.io -->
<svg version="1.1" xmlns="http://www.w3.org/2000/svg" width="1024" height="1024" viewBox="0 0 1024 1024">
<title></title>
<g id="icomoon-ignore">
</g>
<path d="M343.996 117.76c47.753-8.828 102.7-13.877 158.827-13.877 3.473 0 6.942 0.019 10.406 0.058l-0.528-0.005c2.679-0.028 5.845-0.044 9.014-0.044 56.422 0 111.666 5.045 165.305 14.709l-5.632-0.842c46.093 7.426 87.484 21.925 125.088 42.484l-2.021-1.012c30.413 17.988 44.254 34.577 44.254 55.313v123.597c0 20.736-13.841 38.707-44.254 55.296-35.595 19.135-76.927 33.596-120.628 41.14l-2.44 0.349c-48.672 8.817-104.691 13.859-161.888 13.859-2.883 0-5.762-0.013-8.639-0.038l0.44 0.003c-2.679 0.028-5.845 0.044-9.014 0.044-56.422 0-111.666-5.045-165.305-14.709l5.632 0.842c-46.094-7.422-87.485-21.928-125.084-42.499l2.016 1.010c-30.413-17.971-44.254-34.56-44.254-55.296v-123.529c0-20.736 13.841-38.707 44.254-55.313 35.998-18.871 77.764-33.325 121.821-41.153l2.629-0.387zM322.423 486.161c57.465 12.307 123.484 19.354 191.15 19.354 0.371 0 0.742 0 1.113-0.001h-0.058c0.918 0.003 2.004 0.005 3.092 0.005 66.955 0 132.263-7.050 195.223-20.447l-6.109 1.089c53.328-8.959 100.869-28.374 142.349-56.139l-1.31 0.826v142.95c0 20.736-13.824 38.707-44.254 55.313-35.595 19.121-76.927 33.575-120.624 41.123l-2.444 0.349c-47.747 8.828-102.689 13.877-158.81 13.877-3.472 0-6.94-0.019-10.404-0.058l0.527 0.005c-2.683 0.028-5.853 0.044-9.026 0.044-56.424 0-111.669-5.045-165.309-14.709l5.631 0.841c-46.093-7.429-87.484-21.928-125.089-42.484l2.022 1.012c-30.413-17.988-44.254-34.577-44.254-55.313v-142.95c42.026 26.468 91.347 45.822 144.167 54.967l2.418 0.346zM322.423 721.681c57.041 12.306 122.572 19.354 189.749 19.354 0.377 0 0.754 0 1.131-0.001h-0.058c0.715 0.002 1.562 0.003 2.409 0.003 67.19 0 132.739-7.024 195.954-20.377l-6.158 1.089c53.334-8.956 100.881-28.371 142.366-56.138l-1.31 0.825v142.95c0 20.736-13.824 38.707-44.254 55.313-35.573 19.136-76.878 33.612-120.55 41.189l-2.449 0.352c-47.343 8.828-101.814 13.877-157.464 13.877-3.442 0-6.879-0.019-10.312-0.058l0.522 0.005c-2.683 0.028-5.853 0.044-9.026 0.044-56.424 0-111.669-5.045-165.309-14.709l5.631 0.841c-46.093-7.429-87.484-21.928-125.089-42.484l2.022 1.012c-30.413-17.988-44.254-35.959-44.254-55.313v-143.019c42.026 26.468 91.347 45.822 144.167 54.967l2.418 0.346z"></path>
</svg>
