<!-- Generated by IcoMoon.io -->
<svg version="1.1" xmlns="http://www.w3.org/2000/svg" width="1024" height="1024" viewBox="0 0 1024 1024">
<title></title>
<g id="icomoon-ignore">
</g>
<path d="M179.2 320.683c40.956 22.518 88.596 39.224 139.086 47.442l2.567 0.345c55.176 10.131 118.672 15.924 183.52 15.924 3.701 0 7.398-0.019 11.091-0.057l-0.563 0.005c2.882 0.027 6.289 0.043 9.699 0.043 65.735 0 130.117-5.79 192.666-16.887l-6.61 0.972c53.112-9.104 100.684-25.759 144.189-49.025l-2.536 1.239c34.987-19.115 51.2-39.765 51.2-63.659v-63.659c0-23.893-15.872-43.008-51.2-63.659-40.956-22.518-88.596-39.224-139.086-47.442l-2.567-0.345c-55.176-10.131-118.672-15.924-183.52-15.924-3.701 0-7.398 0.019-11.091 0.057l0.563-0.005c-3.42-0.040-7.46-0.063-11.506-0.063-64.506 0-127.658 5.797-188.963 16.9l6.421-0.965c-53.716 9.452-101.771 26.080-145.963 49.102l2.774-1.315c-34.987 19.115-51.2 39.765-51.2 63.659v63.659c0 23.893 15.872 43.008 51.029 63.659zM175.957 513.195c40.956 22.518 88.596 39.224 139.086 47.442l2.567 0.345c55.182 10.133 118.684 15.927 183.539 15.927 3.815 0 7.625-0.020 11.431-0.060l-0.58 0.005c29.867 0 58.539-1.024 86.528-2.901 51.593-47.007 120.502-75.795 196.135-75.795 23.35 0 46.058 2.744 67.821 7.926l-1.983-0.399c26.112-17.067 38.059-35.328 38.059-55.979v-85.333c-46.336 30.556-101.138 52.455-160.086 61.975l-2.389 0.318c-65.533 14.22-140.814 22.364-217.998 22.364-1.36 0-2.719-0.003-4.078-0.008l0.21 0.001c-0.453 0.001-0.991 0.001-1.529 0.001-78 0-154.099-8.142-227.493-23.622l7.155 1.263c-63.543-10.925-120.277-33.199-170.56-64.797l1.941 1.138v85.333c1.365 25.088 17.237 44.203 52.224 64.853zM175.957 705.707c40.956 22.518 88.596 39.224 139.086 47.442l2.567 0.345c54.441 9.992 117.091 15.706 181.076 15.706 1.14 0 2.28-0.002 3.42-0.005h-0.175c3.781-47.535 18.394-90.973 41.35-128.785l-0.731 1.297h-29.184c-0.27 0-0.591 0-0.912 0-77.441 0-152.98-8.142-225.808-23.616l7.072 1.258c-63.543-10.925-120.277-33.199-170.56-64.797l1.941 1.138v85.333c0 23.381 15.872 44.032 50.859 64.683zM504.32 836.267c-74.875-0.58-147.541-8.568-217.741-23.266l7.138 1.25c-63.534-12.434-120.049-34.42-171.088-64.672l2.469 1.355v85.333c0 22.357 15.872 43.008 51.2 63.659 40.956 22.518 88.596 39.224 139.086 47.442l2.567 0.345c55.176 10.131 118.672 15.924 183.52 15.924 3.701 0 7.398-0.019 11.091-0.057l-0.563 0.005c14.848 0 29.355 0 43.691 0-25.892-35.85-44.064-78.955-51.168-125.697l-0.203-1.621z"></path>
</svg>
