<?xml version="1.0" encoding="utf-8"?>
<!-- Generator: Adobe Illustrator 26.2.1, SVG Export Plug-In . SVG Version: 6.00 Build 0)  -->
<svg version="1.1" id="Layer_1" xmlns="http://www.w3.org/2000/svg" xmlns:xlink="http://www.w3.org/1999/xlink" x="0px" y="0px"
	 viewBox="0 0 1024 1024" style="enable-background:new 0 0 1024 1024;" xml:space="preserve">
<g id="icomoon-ignore">
</g>
<path d="M172.8,560c30.4,17.6,70.4,30.4,123.2,41.6c44.8,8,92.8,12.8,142.4,14.4l46.4-81.6l4.8-8l12.8-24c-12.8,0-25.6,1.6-40,1.6
	c-68.8,0-134.4-6.4-193.6-19.2c-60.8-12.8-107.2-30.4-142.4-56V504C126.4,524.8,142.4,542.4,172.8,560L172.8,560z M172.8,728
	c30.4,17.6,70.4,30.4,123.2,41.6c33.6,6.4,70.4,11.2,108.8,12.8l43.2-33.6l25.6-19.2l-70.4-52.8l3.2-4.8c-48-3.2-92.8-8-136-17.6
	c-60.8-12.8-107.2-30.4-142.4-56V672C126.4,692.8,142.4,712,172.8,728L172.8,728z M172.8,897.6c30.4,17.6,70.4,30.4,123.2,41.6
	c51.2,9.6,108.8,14.4,169.6,14.4c12.8,0,25.6,0,38.4,0l-11.2-20.8l-4.8-8l-48-83.2c-59.2-1.6-115.2-8-166.4-17.6
	c-60.8-12.8-107.2-30.4-142.4-56v75.2C126.4,860.8,142.4,880,172.8,897.6L172.8,897.6z M172.8,392c30.4,17.6,70.4,30.4,123.2,41.6
	c51.2,9.6,107.2,14.4,168,14.4c51.2,0,99.2-3.2,145.6-11.2l1.6-11.2h56c36.8-9.6,65.6-20.8,89.6-33.6c30.4-17.6,44.8-35.2,44.8-56
	v-56c0-20.8-14.4-38.4-44.8-56s-70.4-30.4-123.2-41.6C582.4,172.8,524.8,168,464,168s-116.8,4.8-169.6,14.4
	c-51.2,9.6-92.8,24-123.2,41.6s-44.8,35.2-44.8,56v56C126.4,355.2,142.4,374.4,172.8,392L172.8,392z M790.4,532.8l-6.4-43.2H667.2
	L656,563.2c-12.8,6.4-27.2,14.4-40,24L547.2,560l-4.8,8l-27.2,48l-20.8,35.2l-4.8,9.6l16,12.8l43.2,33.6c0,9.6-1.6,17.6-1.6,24
	s0,14.4,1.6,24L505.6,784l-19.2,16l4.8,9.6l19.2,32l30.4,51.2l4.8,8l68.8-27.2c12.8,9.6,25.6,17.6,40,24l9.6,73.6c0,0,4.8,0,11.2,0
	h96c8,0,11.2,0,11.2,0l11.2-73.6c12.8-6.4,27.2-14.4,40-24l68.8,27.2l4.8-8l48-83.2l4.8-9.6l-56-48c1.6-9.6,1.6-17.6,1.6-24
	s0-14.4-1.6-24l59.2-46.4L904,556.8L835.2,584c-12.8-9.6-25.6-17.6-40-24L790.4,532.8L790.4,532.8z M800,768
	c-3.2,8-9.6,14.4-16,20.8c-16,16-36.8,24-59.2,24c-8,0-14.4-1.6-20.8-3.2c-14.4-3.2-27.2-11.2-38.4-22.4c-6.4-6.4-12.8-14.4-16-22.4
	c-4.8-11.2-8-24-8-36.8c0-24,8-43.2,24-59.2s36.8-24,59.2-24s43.2,8,59.2,24c6.4,6.4,9.6,12.8,14.4,19.2
	c6.4,12.8,11.2,25.6,11.2,41.6C808,742.4,804.8,755.2,800,768L800,768z"/>
</svg>
