<!-- Generated by IcoMoon.io -->
<svg version="1.1" xmlns="http://www.w3.org/2000/svg" width="1024" height="1024" viewBox="0 0 1024 1024">
<title></title>
<g id="icomoon-ignore">
</g>
<path d="M724.8 708.8c-4.8 0-9.6 1.6-14.4 6.4s-6.4 8-6.4 14.4c0 6.4 1.6 9.6 6.4 14.4 1.6 1.6 3.2 3.2 4.8 3.2 9.6-3.2 19.2-8 28.8-12.8 0-1.6 0-3.2 0-6.4 0-6.4-1.6-9.6-6.4-14.4-4.8-3.2-8-4.8-12.8-4.8zM172.8 560c30.4 17.6 70.4 30.4 123.2 41.6 44.8 8 92.8 12.8 142.4 14.4l46.4-81.6 4.8-8 12.8-24c-12.8 0-25.6 1.6-40 1.6-68.8 0-134.4-6.4-193.6-19.2-60.8-12.8-107.2-30.4-142.4-56v75.2c0 20.8 16 38.4 46.4 56zM172.8 728c30.4 17.6 70.4 30.4 123.2 41.6 33.6 6.4 70.4 11.2 108.8 12.8l43.2-33.6 25.6-19.2-70.4-52.8 3.2-4.8c-48-3.2-92.8-8-136-17.6-60.8-12.8-107.2-30.4-142.4-56v73.6c-1.6 20.8 14.4 40 44.8 56zM600 494.4c-11.2 1.6-20.8 3.2-32 3.2v0l28.8 11.2 3.2-14.4zM172.8 897.6c30.4 17.6 70.4 30.4 123.2 41.6 51.2 9.6 108.8 14.4 169.6 14.4 12.8 0 25.6 0 38.4 0l-11.2-20.8-4.8-8-48-83.2c-59.2-1.6-115.2-8-166.4-17.6-60.8-12.8-107.2-30.4-142.4-56v75.2c-4.8 17.6 11.2 36.8 41.6 54.4zM172.8 392c30.4 17.6 70.4 30.4 123.2 41.6 51.2 9.6 107.2 14.4 168 14.4 51.2 0 99.2-3.2 145.6-11.2l1.6-11.2h56c36.8-9.6 65.6-20.8 89.6-33.6 30.4-17.6 44.8-35.2 44.8-56v-56c0-20.8-14.4-38.4-44.8-56s-70.4-30.4-123.2-41.6c-51.2-9.6-108.8-14.4-169.6-14.4s-116.8 4.8-169.6 14.4c-51.2 9.6-92.8 24-123.2 41.6s-44.8 35.2-44.8 56v56c0 19.2 16 38.4 46.4 56zM790.4 532.8l-6.4-43.2h-116.8l-11.2 73.6c-12.8 6.4-27.2 14.4-40 24l-68.8-27.2-4.8 8-27.2 48-20.8 35.2-4.8 9.6 16 12.8 43.2 33.6c0 9.6-1.6 17.6-1.6 24s0 14.4 1.6 24l-43.2 28.8-19.2 16 4.8 9.6 19.2 32 30.4 51.2 4.8 8 68.8-27.2c12.8 9.6 25.6 17.6 40 24l9.6 73.6c0 0 4.8 0 11.2 0h96c8 0 11.2 0 11.2 0l11.2-73.6c12.8-6.4 27.2-14.4 40-24l68.8 27.2 4.8-8 48-83.2 4.8-9.6-56-48c1.6-9.6 1.6-17.6 1.6-24s0-14.4-1.6-24l59.2-46.4-59.2-100.8-68.8 27.2c-12.8-9.6-25.6-17.6-40-24l-4.8-27.2zM800 768c-3.2 8-9.6 14.4-16 20.8-16 16-36.8 24-59.2 24-8 0-14.4-1.6-20.8-3.2-14.4-3.2-27.2-11.2-38.4-22.4-6.4-6.4-12.8-14.4-16-22.4-4.8-11.2-8-24-8-36.8 0-24 8-43.2 24-59.2s36.8-24 59.2-24c22.4 0 43.2 8 59.2 24 6.4 6.4 9.6 12.8 14.4 19.2 6.4 12.8 11.2 25.6 11.2 41.6-1.6 12.8-4.8 25.6-9.6 38.4z"></path>
</svg>
