<!-- Generated by IcoMoon.io -->
<svg version="1.1" xmlns="http://www.w3.org/2000/svg" width="1024" height="1024" viewBox="0 0 1024 1024">
<title></title>
<g id="icomoon-ignore">
</g>
<path d="M0 336c0 20.8 14.4 38.4 44.8 56 20.8 12.8 48 24 80 32v-16c0 0 0 0 0-1.6v-56c0-14.4 3.2-25.6 8-36.8-54.4-12.8-99.2-28.8-132.8-52.8v75.2zM299.2 212.8v-44.8c0 0 0 0 0-1.6v-54.4c0-57.6 51.2-88 68.8-97.6 8-4.8 16-9.6 25.6-12.8-17.6-1.6-35.2-1.6-54.4-1.6-60.8 0-118.4 4.8-169.6 14.4s-94.4 24-124.8 41.6c-30.4 17.6-44.8 35.2-44.8 56v56c0 20.8 14.4 38.4 44.8 56s72 32 123.2 41.6c1.6 0 3.2 0 4.8 1.6 8-6.4 16-11.2 20.8-12.8 28.8-17.6 64-30.4 105.6-41.6zM124.8 667.2v-17.6c-51.2-12.8-92.8-30.4-124.8-51.2v75.2c0 19.2 14.4 38.4 44.8 56 20.8 12.8 48 24 80 32v-12.8c0-1.6 0-4.8 0-6.4v-75.2zM44.8 560c20.8 12.8 48 24 80 32v-16c0 0 0 0 0-1.6v-94.4c-51.2-11.2-92.8-28.8-124.8-51.2v75.2c0 19.2 14.4 38.4 44.8 56zM896 667.2v75.2c0 0 0 1.6 0 1.6l1.6-1.6v19.2c20.8-6.4 40-11.2 56-19.2 9.6-3.2 17.6-8 24-12.8 11.2-6.4 20.8-12.8 27.2-19.2 11.2-11.2 17.6-22.4 17.6-36.8v-75.2c-32 24-73.6 40-128 52.8v16zM979.2 56c-30.4-17.6-72-32-123.2-41.6-52.8-9.6-108.8-14.4-169.6-14.4-19.2 0-36.8 0-56 1.6-40 1.6-78.4 6.4-113.6 12.8-1.6 0-3.2 0-4.8 1.6-4.8 1.6-9.6 1.6-14.4 3.2-12.8 3.2-24 6.4-35.2 9.6-16 4.8-32 9.6-46.4 16-8 3.2-16 6.4-24 11.2-30.4 17.6-44.8 35.2-44.8 56v56c0 11.2 4.8 22.4 14.4 33.6 46.4-6.4 97.6-11.2 150.4-11.2s102.4 3.2 148.8 11.2c9.6 1.6 19.2 3.2 28.8 4.8 11.2 1.6 22.4 4.8 32 6.4 41.6 9.6 76.8 24 107.2 40 4.8 3.2 12.8 8 20.8 12.8 1.6 0 3.2 0 4.8-1.6 52.8-11.2 92.8-24 123.2-41.6s44.8-35.2 44.8-56v-54.4c1.6-20.8-12.8-38.4-43.2-56zM899.2 350.4v56c0 6.4 0 11.2-1.6 17.6 20.8-6.4 40-11.2 56-19.2 9.6-3.2 17.6-8 24-12.8 11.2-6.4 20.8-12.8 27.2-19.2 11.2-11.2 17.6-22.4 17.6-36.8v-75.2c-33.6 24-76.8 41.6-131.2 52.8 4.8 11.2 8 24 8 36.8zM976 560c30.4-17.6 44.8-35.2 44.8-56v-75.2c-8 6.4-17.6 12.8-28.8 17.6-9.6 4.8-20.8 11.2-33.6 14.4-11.2 4.8-24 9.6-38.4 12.8-8 1.6-16 4.8-24 6.4v94.4c0 6.4 0 11.2-1.6 17.6 3.2-1.6 8-1.6 11.2-3.2 22.4-6.4 40-12.8 57.6-22.4 4.8-1.6 9.6-4.8 12.8-6.4zM787.2 868.8c-11.2 4.8-24 9.6-38.4 12.8-12.8 3.2-27.2 8-43.2 11.2-57.6 12.8-124.8 19.2-193.6 19.2s-132.8-6.4-193.6-19.2-108.8-32-145.6-56v75.2c0 19.2 14.4 38.4 44.8 56s72 32 123.2 41.6c54.4 9.6 110.4 14.4 171.2 14.4 16 0 30.4 0 44.8-1.6 28.8-1.6 57.6-3.2 84.8-6.4 12.8-1.6 27.2-3.2 40-6.4 19.2-4.8 38.4-8 54.4-12.8 22.4-6.4 40-12.8 57.6-22.4 4.8-1.6 8-4.8 11.2-6.4 30.4-17.6 44.8-35.2 44.8-56v-75.2c-8 6.4-17.6 12.8-28.8 17.6s-22.4 11.2-33.6 14.4zM219.2 798.4c24 14.4 54.4 25.6 91.2 35.2 9.6 3.2 20.8 4.8 32 6.4 52.8 9.6 108.8 14.4 169.6 14.4s116.8-4.8 168-14.4c11.2-1.6 20.8-4.8 30.4-6.4 38.4-9.6 68.8-20.8 92.8-35.2 12.8-8 24-16 30.4-24 9.6-9.6 14.4-20.8 14.4-32v-75.2c-12.8 9.6-27.2 17.6-44.8 25.6-11.2 4.8-22.4 9.6-35.2 14.4-6.4 1.6-12.8 4.8-19.2 6.4-12.8 3.2-25.6 6.4-38.4 9.6-1.6 0-3.2 0-4.8 1.6-27.2 6.4-57.6 11.2-88 14.4-1.6 0-3.2 0-4.8 0-32 3.2-65.6 4.8-99.2 4.8-36.8 0-72-1.6-105.6-6.4-30.4-3.2-59.2-8-86.4-12.8-1.6 0-3.2 0-4.8-1.6-57.6-11.2-104-30.4-140.8-54.4v75.2c0 11.2 4.8 20.8 14.4 32 4.8 6.4 14.4 14.4 28.8 22.4zM787.2 532.8c-11.2 4.8-24 8-38.4 12.8-8 1.6-17.6 4.8-25.6 6.4-4.8 1.6-11.2 3.2-16 3.2-30.4 6.4-64 11.2-97.6 14.4-32 3.2-64 4.8-96 4.8-35.2 0-70.4-1.6-102.4-4.8-30.4-3.2-60.8-8-91.2-14.4-6.4-1.6-12.8-3.2-20.8-4.8-51.2-12.8-92.8-28.8-126.4-51.2v75.2c0 3.2 0 4.8 0 8 1.6 4.8 3.2 9.6 4.8 14.4 1.6 3.2 3.2 4.8 4.8 8 8 9.6 17.6 17.6 33.6 25.6 20.8 12.8 48 24 80 32 12.8 3.2 27.2 6.4 41.6 9.6 1.6 0 3.2 0 6.4 1.6 1.6 0 1.6 0 3.2 0 49.6 8 104 12.8 161.6 12.8 16 0 30.4 0 44.8-1.6 28.8-1.6 57.6-3.2 84.8-6.4 11.2-1.6 20.8-3.2 32-4.8 0 0 1.6 0 3.2 0s3.2 0 4.8-1.6c16-3.2 28.8-6.4 43.2-9.6 3.2-1.6 8-1.6 11.2-3.2 22.4-6.4 40-12.8 57.6-22.4 4.8-1.6 8-4.8 11.2-6.4 14.4-8 25.6-17.6 33.6-25.6 8-9.6 11.2-19.2 11.2-30.4v-75.2c-8 6.4-17.6 12.8-28.8 17.6-8 4.8-19.2 11.2-30.4 16zM833.6 313.6c-6.4-6.4-16-12.8-27.2-19.2s-24-12.8-36.8-17.6c0 0-1.6 0-1.6 0-12.8-4.8-27.2-9.6-43.2-14.4-6.4-1.6-14.4-3.2-22.4-4.8-6.4-1.6-12.8-3.2-19.2-3.2-28.8-4.8-57.6-9.6-88-11.2-12.8-3.2-25.6-3.2-38.4-3.2-14.4 0-28.8-1.6-44.8-1.6-28.8 0-56 1.6-83.2 3.2-30.4 1.6-59.2 6.4-86.4 11.2-16 3.2-30.4 6.4-44.8 9.6-16 4.8-30.4 9.6-43.2 14.4-14.4 4.8-27.2 11.2-36.8 17.6-16 9.6-28.8 19.2-35.2 28.8-6.4 8-9.6 17.6-9.6 27.2v56c0 11.2 3.2 20.8 11.2 30.4s17.6 17.6 33.6 25.6c20.8 12.8 48 24 80 32 12.8 3.2 27.2 6.4 41.6 9.6 0 0 0 0 0 0 1.6 0 3.2 0 6.4 1.6 51.2 9.6 105.6 12.8 163.2 12.8s110.4-4.8 161.6-12.8c0 0 0 0 0 0 3.2 0 6.4-1.6 9.6-1.6 0 0 0 0 0 0 14.4-3.2 27.2-6.4 38.4-9.6 22.4-6.4 41.6-12.8 59.2-19.2 9.6-3.2 17.6-8 24-12.8 11.2-6.4 20.8-12.8 27.2-19.2 1.6-1.6 4.8-4.8 6.4-6.4 8-9.6 11.2-19.2 11.2-30.4v-56c0-9.6-3.2-17.6-9.6-27.2 1.6-3.2 0-6.4-3.2-9.6z"></path>
</svg>
