<!-- Generated by IcoMoon.io -->
<svg version="1.1" xmlns="http://www.w3.org/2000/svg" width="1024" height="1024" viewBox="0 0 1024 1024">
<title></title>
<g id="icomoon-ignore">
</g>
<path d="M900.8 252.8v-64c0-24-16-44.8-51.2-64-35.2-20.8-83.2-36.8-142.4-48-60.8-11.2-124.8-16-195.2-16s-136 4.8-195.2 16c-59.2 11.2-108.8 27.2-144 48s-51.2 40-51.2 64v64c0 24 16 44.8 51.2 64 20.8 11.2 44.8 22.4 73.6 30.4v65.6c-49.6-12.8-89.6-28.8-123.2-52.8v86.4c0 24 16 44.8 51.2 64 20.8 11.2 44.8 22.4 73.6 30.4v67.2c-49.6-12.8-91.2-32-124.8-54.4v86.4c0 22.4 16 44.8 51.2 64 20.8 11.2 44.8 22.4 73.6 30.4v67.2c-49.6-14.4-91.2-32-124.8-54.4v86.4c0 22.4 16 44.8 51.2 64 35.2 20.8 83.2 36.8 142.4 48 60.8 11.2 124.8 16 195.2 16s136-4.8 195.2-16c60.8-12.8 107.2-27.2 142.4-48s51.2-40 51.2-64v-86.4c-40 28.8-94.4 49.6-163.2 64-62.4 12.8-131.2 20.8-203.2 22.4v-65.6c60.8-1.6 118.4-6.4 171.2-16 60.8-12.8 107.2-27.2 142.4-48s51.2-40 51.2-64v-86.4c-40 28.8-94.4 49.6-163.2 64-6.4 1.6-12.8 3.2-19.2 3.2 28.8-22.4 51.2-51.2 67.2-83.2 25.6-8 46.4-17.6 65.6-27.2 35.2-20.8 51.2-40 51.2-64v-86.4c-25.6 17.6-54.4 32-89.6 44.8 0-1.6 0-3.2 0-4.8 0-4.8-1.6-9.6-1.6-16v0 0c0-1.6 0-3.2 0-4.8-1.6-6.4-1.6-11.2-3.2-19.2v0-1.6c-1.6-4.8-3.2-11.2-4.8-16 19.2-6.4 38.4-14.4 52.8-24 30.4-20.8 46.4-41.6 46.4-65.6zM617.6 592c-1.6 0-3.2 1.6-6.4 1.6-3.2 1.6-6.4 1.6-9.6 3.2-3.2 0-6.4 1.6-9.6 1.6s-6.4 1.6-8 1.6c-3.2 0-8 1.6-12.8 1.6-3.2 0-4.8 0-8 1.6-6.4 0-14.4 1.6-20.8 1.6h-84.8v200h-139.2v-563.2h225.6c97.6 0 158.4 52.8 182.4 120v0c0 0 0 0 0 0 1.6 4.8 3.2 9.6 4.8 14.4 0 0 0 0 0 0 1.6 4.8 1.6 9.6 3.2 14.4 0 1.6 0 3.2 0 3.2 0 3.2 1.6 8 1.6 11.2 0 4.8 0 11.2 0 16v0c0 73.6-41.6 144-118.4 171.2zM596.8 411.2c0 0 0-1.6 0-1.6-1.6-3.2-1.6-6.4-3.2-9.6 0 0 0 0 0 0-3.2-6.4-8-12.8-14.4-19.2-9.6-9.6-24-14.4-41.6-14.4h-78.4v113.6h78.4c28.8 0 48-16 56-35.2 3.2-6.4 3.2-14.4 3.2-20.8 0 0 0 0 0 0 1.6-4.8 0-9.6 0-12.8z"></path>
</svg>
