<!-- Generated by IcoMoon.io -->
<svg version="1.1" xmlns="http://www.w3.org/2000/svg" width="1024" height="1024" viewBox="0 0 1024 1024">
<title></title>
<g id="icomoon-ignore">
</g>
<path d="M900.8 204.8v-16c0-8-1.6-14.4-4.8-20.8-6.4-14.4-22.4-28.8-46.4-43.2-35.2-20.8-83.2-36.8-142.4-48-60.8-11.2-124.8-16-195.2-16s-136 4.8-195.2 16c-59.2 11.2-108.8 27.2-144 48-22.4 14.4-38.4 27.2-44.8 43.2-3.2 6.4-4.8 14.4-4.8 20.8v259.2c0 16 8 30.4 22.4 44.8l24 89.6c-17.6-8-33.6-17.6-48-27.2v84.8c0 22.4 16 44.8 51.2 64 11.2 6.4 22.4 11.2 35.2 17.6l20.8 75.2c-41.6-12.8-78.4-30.4-107.2-48v86.4c0 22.4 16 44.8 51.2 64 35.2 20.8 83.2 36.8 142.4 48 60.8 11.2 124.8 16 195.2 16s136-4.8 195.2-16c60.8-12.8 107.2-27.2 142.4-48s51.2-40 51.2-64v-86.4c-28.8 20.8-62.4 36.8-105.6 49.6l20.8-78.4c11.2-4.8 20.8-9.6 30.4-14.4 35.2-20.8 51.2-40 51.2-64v-86.4c-12.8 9.6-27.2 17.6-43.2 25.6l24-89.6c14.4-12.8 22.4-27.2 22.4-41.6v-86.4l1.6-158.4zM788.8 536v0l-19.2 72-36.8 136-16 59.2h-113.6l-12.8-38.4-41.6-126.4-20.8-64-16-48-25.6 76.8-65.6 200h-112l-52.8-195.2-19.2-72-38.4-139.2-3.2-9.6-12.8-46.4-27.2-99.2h144l32 126.4 6.4 28.8 35.2 142.4 30.4-97.6v-1.6l8-24 52.8-174.4h97.6l52.8 171.2 8 28.8 30.4 97.6 25.6-104 16-67.2 32-126.4h144l-81.6 294.4z"></path>
</svg>
