<!-- Generated by IcoMoon.io -->
<svg version="1.1" xmlns="http://www.w3.org/2000/svg" width="1024" height="1024" viewBox="0 0 1024 1024">
<title></title>
<g id="icomoon-ignore">
</g>
<path d="M848 318.4c0 0 1.6 0 0 0 36.8-20.8 52.8-41.6 52.8-65.6v-64c0-24-16-44.8-51.2-64-35.2-20.8-83.2-36.8-142.4-48-60.8-11.2-124.8-16-195.2-16s-136 4.8-195.2 16c-59.2 11.2-108.8 27.2-144 48s-51.2 40-51.2 64v64c0 24 16 44.8 51.2 64 0 0 1.6 0 1.6 0v70.4c-19.2-8-36.8-17.6-52.8-28.8v86.4c0 24 16 44.8 51.2 64 0 0 1.6 0 1.6 0v70.4c-19.2-8-36.8-19.2-52.8-28.8v89.6c0 22.4 16 44.8 51.2 64 0 0 1.6 0 1.6 0v73.6c-19.2-8-36.8-17.6-52.8-28.8v86.4c0 22.4 16 44.8 51.2 64 35.2 20.8 83.2 36.8 142.4 48 60.8 11.2 124.8 16 195.2 16s136-4.8 195.2-16c60.8-12.8 107.2-27.2 142.4-48s51.2-40 51.2-64v-86.4c-14.4 11.2-32 20.8-51.2 28.8v-75.2c33.6-19.2 49.6-40 49.6-62.4v-86.4c-14.4 11.2-30.4 19.2-49.6 28.8v-70.4c35.2-20.8 51.2-40 51.2-64v-86.4c-14.4 11.2-32 20.8-51.2 28.8v-72zM595.2 608l-17.6 30.4-20.8 36.8h-88l-20.8-36.8-38.4-67.2-20.8-36.8v270.4h-140.8v-563.2h136l70.4 139.2 33.6 65.6 22.4 43.2 32-62.4 24-46.4 70.4-139.2h136v563.2h-137.6v-270.4l-40 73.6z"></path>
</svg>
