<!-- Generated by IcoMoon.io -->
<svg version="1.1" xmlns="http://www.w3.org/2000/svg" width="1024" height="1024" viewBox="0 0 1024 1024">
<title></title>
<g id="icomoon-ignore">
</g>
<path d="M902.4 252.8v-64c0-24-16-43.2-51.2-64s-83.2-36.8-142.4-48c-60.8-11.2-124.8-16-195.2-16s-136 4.8-195.2 16c-59.2 11.2-108.8 28.8-144 48s-51.2 40-51.2 64v64c0 24 16 43.2 51.2 64 20.8 12.8 46.4 22.4 76.8 32v65.6c-51.2-12.8-94.4-30.4-131.2-54.4v86.4c0 24 16 43.2 51.2 64 22.4 12.8 48 24 80 33.6v65.6c-51.2-12.8-94.4-32-131.2-56v86.4c0 22.4 16 43.2 51.2 64 22.4 12.8 48 24 80 33.6v65.6c-51.2-14.4-94.4-32-131.2-54.4v86.4c0 22.4 16 43.2 51.2 64s83.2 36.8 142.4 48c60.8 11.2 124.8 16 195.2 16s136-4.8 195.2-16c60.8-12.8 107.2-27.2 142.4-48 35.2-19.2 51.2-40 51.2-64v-86.4c-20.8 14.4-46.4 28.8-75.2 38.4l-6.4-11.2-25.6-48c19.2-6.4 36.8-14.4 52.8-24 35.2-19.2 51.2-40 51.2-64v-86.4c-40 28.8-91.2 49.6-161.6 64l-14.4-25.6c14.4-12.8 27.2-28.8 38.4-46.4 35.2-9.6 64-20.8 88-35.2 35.2-19.2 51.2-40 51.2-64v-86.4c-27.2 20.8-62.4 36.8-104 49.6-1.6-20.8-4.8-43.2-11.2-62.4 27.2-8 49.6-17.6 68.8-28.8 36.8-20.8 52.8-41.6 52.8-65.6zM638.4 571.2l121.6 235.2h-160l-99.2-209.6h-46.4v209.6h-139.2v-564.8h224c124.8 0 192 88 192 180.8-1.6 78.4-48 126.4-92.8 148.8zM531.2 366.4h-78.4v113.6h78.4c38.4 0 60.8-27.2 60.8-57.6 0-28.8-22.4-56-60.8-56z"></path>
</svg>
