<?xml version="1.0" encoding="utf-8"?>
<!-- Generator: Adobe Illustrator 25.4.1, SVG Export Plug-In . SVG Version: 6.00 Build 0)  -->
<svg version="1.1" id="Layer_1" xmlns="http://www.w3.org/2000/svg" xmlns:xlink="http://www.w3.org/1999/xlink" x="0px" y="0px"
	 viewBox="0 0 1024 1024" style="enable-background:new 0 0 1024 1024;" xml:space="preserve">
<style type="text/css">
	.st0{fill:#FF0000;}
</style>
<g id="icomoon-ignore">
</g>
<path class="st0" d="M1021.4,542.4L1021.4,542.4c0.4-0.2,0.8-0.5,1.3-0.8L1021.4,542.4z"/>
<path class="st0" d="M1022.7,315.7L1022.7,315.7c0.4-0.2,0.8-0.5,1.3-0.8L1022.7,315.7z"/>
<g>
	<path d="M828.6,779.8L828.6,779.8c0.4-0.2,0.8-0.5,1.3-0.8L828.6,779.8z"/>
	<path d="M509.2,625C509.2,625,509.2,625,509.2,625C509.2,625,509.2,625,509.2,625L509.2,625z"/>
	<path d="M698.5,832.1l-5.7,1C694.7,832.8,696.6,832.4,698.5,832.1z"/>
	<path d="M512.1,625c-1,0-2.1,0-3,0c-0.3,0-0.7,0-1,0c-65.1,0-128.7-6.8-184-18.6h0l-2.3-0.3c-50.8-8.8-98.3-27.4-138.8-52.9v137.6
		c0,20,13.3,35.9,42.6,53.2l-1.9-1c36.2,19.8,76,33.7,120.4,40.9l-5.4-0.8c51.6,9.3,104.8,14.2,159.1,14.2c3.1,0,6.1,0,8.7,0l-0.5,0
		c3.3,0,6.7,0.1,10,0.1c54,0,106.9-4.9,152.8-13.4l2.4-0.3c42.1-7.3,81.8-21.2,116.1-39.6c29.3-16,42.6-33.3,42.6-53.2V553.1
		c-38.2,25.3-81.7,43.3-130.2,52.2C639.2,618.2,576.4,625,512.1,625z"/>
	<path d="M507.8,851.6C507.8,851.6,507.8,851.6,507.8,851.6C507.9,851.6,507.9,851.6,507.8,851.6L507.8,851.6z"/>
	<path d="M698.7,832c-60.8,12.9-123.9,19.6-188.6,19.6c-0.8,0-1.6,0-2.3,0c-0.3,0-0.7,0-1,0c-64.7,0-127.7-6.8-182.6-18.6l0.1,0.1
		l-2.3-0.3c-50.8-8.8-98.3-27.4-138.8-52.9v137.7c0,18.6,13.3,35.9,42.6,53.2l-1.9-1c36.2,19.8,76,33.7,120.4,40.9l-5.4-0.8
		c51.6,9.3,104.8,14.2,159.1,14.2c3.1,0,6.1,0,8.7,0l-0.5,0c3.3,0,6.6,0.1,9.9,0.1c53.6,0,106-4.9,151.6-13.4l2.4-0.3
		c42-7.3,81.8-21.2,116-39.6c29.3-16,42.6-33.3,42.6-53.2V779.9c-38.1,25.3-81.6,43.3-130,52.2L698.7,832z"/>
	<path d="M225.1,517.1l-1.9-1c36.2,19.8,76,33.8,120.4,40.9l-5.4-0.8c51.6,9.3,104.8,14.2,159.1,14.2c3.1,0,6.1,0,8.7,0l-0.4,0
		c2.8,0,5.5,0,8.3,0c55.1,0,109-4.9,155.8-13.3l2.3-0.3c42.1-7.3,81.8-21.2,116.1-39.6c29.3-16,42.6-33.3,42.6-53.2v-119
		c0-20-13.3-35.9-42.6-53.2l1.9,1c-36.2-19.8-76-33.7-120.4-40.9l5.4,0.8c-51.6-9.3-104.8-14.2-159.1-14.2c-3.1,0-6.1,0-8.7,0l0.5,0
		c-3.3,0-6.7-0.1-10-0.1c-54,0-106.9,4.9-152.9,13.4l0,0l-2.5,0.4c-42.4,7.5-82.6,21.4-117.2,39.6c-29.3,16-42.6,33.3-42.6,53.2
		v118.9C182.6,483.8,195.9,499.8,225.1,517.1z"/>
	<path d="M694.1,606.3c1.9-0.3,3.7-0.6,5.5-1c0.1,0,0.2,0,0.4-0.1L694.1,606.3z"/>
	<path d="M829.9,553.1L829.9,553.1c0.4-0.2,0.8-0.5,1.3-0.8L829.9,553.1z"/>
	<path d="M0.5,315.7v137.6c0,20,13.3,35.9,42.6,53.2l-1.9-1c28.3,15.5,58.8,27.3,91.9,35.2l-0.5-173.4
		C84.3,358.1,39.2,340,0.5,315.7z"/>
	<path d="M201.6,247.6l0.4-0.2c37.5-19.7,80.1-34.5,123.5-43v-96.9c0-21.3,7.3-41.7,21.1-59.2c11.3-14.3,26.8-26.7,47.5-38l0.4-0.2
		l0.4-0.2c4-2.1,8-4.1,12.1-6.1c-24.2-2-48.7-3-73.4-3c-3.1,0-6.1,0-8.7,0l0.5,0c-3.3,0-6.7-0.1-10-0.1c-54,0-106.9,4.9-152.9,13.4
		l0,0l-2.5,0.4c-42.4,7.5-82.6,21.4-117.2,39.6C13.3,70.3,0,87.6,0,107.6v118.9c0,20,13.3,35.9,42.6,53.2l-1.9-1
		c29.7,16.2,61.8,28.5,96.9,36.4c3.6-10.4,9-20.2,16.1-29.3c11.3-14.3,26.8-26.7,47.5-38L201.6,247.6z"/>
	<path d="M133.1,594.2C84.6,585,39.4,566.8,0.7,542.4v137.7c0,18.6,13.3,35.9,42.6,53.2l-1.9-1c28.3,15.5,58.8,27.3,91.9,35.2
		L133.1,594.2z"/>
	<path d="M887,368.9c1.9-0.3,3.7-0.6,5.5-1c0.1,0,0.2,0,0.3-0.1L887,368.9z"/>
	<path d="M981,54.3l1.9,1c-36.2-19.8-76-33.7-120.4-40.9l5.4,0.8C816.3,5.9,763.1,1,708.8,1c-3.1,0-6.1,0-8.7,0l0.5,0
		c-3.3,0-6.7-0.1-10-0.1c-54,0-106.9,4.9-152.9,13.4l0,0l-2.5,0.4c-42.4,7.5-82.6,21.4-117.2,39.6c-29.3,16-42.6,33.3-42.6,53.2
		v88.8c39.3-5.2,80.9-7.9,122.4-7.9c3.2,0,6.4,0,9.5,0c2.6,0,5.6,0,8.6,0c56.4,0,112.9,5,168,14.9l0,0.1
		c46.2,8.1,89.9,23.4,130.1,45.3l-0.1,0.1c20.2,12,34.6,23.7,45.3,37c7.9,9.7,13.6,20.2,17.1,31.2c37.8-7.7,73.5-20.7,104.6-37.4
		c29.3-16,42.6-33.3,42.6-53.2v-119C1023.5,87.5,1010.2,71.6,981,54.3z"/>
	<path d="M880.7,370.4L879.9,543c36.2-7.8,70.3-20.4,100.3-36.5c29.3-16,42.6-33.3,42.6-53.2V315.7c-38.2,25.3-81.7,43.3-130.2,52.2
		C888.6,368.8,884.6,369.6,880.7,370.4z"/>
	<path d="M891.6,594.6c-3.9,0.8-7.8,1.6-11.7,2.4l-1.3,172.8c36.2-7.8,70.3-20.5,100.3-36.6c29.3-16,42.6-33.3,42.6-53.2V542.5
		c-38.1,25.3-81.6,43.3-130,52.2L891.6,594.6z"/>
</g>
</svg>
