<!-- Generated by IcoMoon.io -->
<svg version="1.1" xmlns="http://www.w3.org/2000/svg" width="1024" height="1024" viewBox="0 0 1024 1024">
<title></title>
<g id="icomoon-ignore">
</g>
<path d="M512 870.4c-196.8 0-358.4-160-358.4-358.4 0-86.4 30.4-164.8 81.6-227.2l120 120c-4.8 6.4-8 12.8-11.2 19.2-16-1.6-44.8-9.6-67.2-43.2l-40 27.2c27.2 41.6 64 56 89.6 62.4-4.8 16-6.4 32-8 49.6-25.6-1.6-67.2 0-102.4 22.4l25.6 40c27.2-16 59.2-17.6 78.4-14.4 3.2 20.8 8 40 14.4 59.2-25.6 11.2-60.8 32-80 73.6l43.2 19.2c12.8-30.4 41.6-44.8 59.2-51.2 33.6 49.6 84.8 83.2 142.4 86.4 1.6 0 1.6 0 1.6 0 4.8-120 89.6-219.2 203.2-246.4v-1.6c-1.6-12.8-3.2-25.6-6.4-36.8 25.6-4.8 60.8-20.8 88-60.8l-40-27.2c-20.8 32-49.6 40-65.6 43.2-9.6-19.2-20.8-36.8-35.2-51.2 3.2-11.2 4.8-22.4 4.8-33.6 0-33.6-12.8-64-32-86.4l25.6-25.6-35.2-35.2-28.8 28.8c-19.2-11.2-41.6-17.6-67.2-17.6-24 0-46.4 6.4-67.2 17.6l-28.8-28.8-33.6 33.6 25.6 25.6c-16 19.2-27.2 44.8-30.4 72l-91.2-91.2c62.4-49.6 140.8-80 225.6-80 196.8 0 358.4 160 358.4 358.4 0 3.2 0 8 0 11.2 24 11.2 48 25.6 67.2 43.2 3.2-17.6 3.2-36.8 3.2-54.4 1.6-236.8-192-430.4-428.8-430.4s-430.4 193.6-430.4 430.4c0 236.8 193.6 430.4 430.4 430.4 17.6 0 36.8-1.6 54.4-3.2-19.2-20.8-33.6-44.8-44.8-72-1.6 3.2-6.4 3.2-9.6 3.2zM512 252.8c48 0 86.4 38.4 88 84.8-27.2-16-57.6-24-88-24s-60.8 8-88 24c1.6-46.4 40-84.8 88-84.8zM961.6 696l-41.6-72c-1.6-3.2-8-6.4-12.8-3.2l-49.6 19.2c-3.2-3.2-8-6.4-12.8-9.6-8-6.4-14.4-9.6-22.4-12.8l-8-54.4c-1.6-6.4-6.4-8-11.2-8h-81.6c-6.4 0-9.6 1.6-11.2 8l-8 54.4c-8 3.2-14.4 8-22.4 12.8-3.2 1.6-8 6.4-12.8 8l-19.2-8-30.4-11.2c-6.4-1.6-9.6 0-12.8 3.2l-40 72c-1.6 6.4-1.6 9.6 1.6 12.8l30.4 22.4 14.4 11.2c-1.6 6.4-1.6 12.8-1.6 20.8 0 0 0 0 0 1.6 0 6.4 0 12.8 1.6 19.2l-43.2 32c-3.2 3.2-3.2 8-1.6 12.8l40 72c1.6 6.4 8 8 12.8 6.4l49.6-20.8c11.2 9.6 22.4 14.4 33.6 19.2l8 56c1.6 6.4 6.4 8 11.2 8h81.6c6.4 0 9.6-1.6 11.2-8l8-56c12.8-6.4 24-11.2 33.6-19.2l49.6 20.8c6.4 1.6 11.2 0 12.8-6.4l40-72c1.6-6.4 1.6-9.6-1.6-12.8l-44.8-30.4c1.6-9.6 1.6-14.4 1.6-20.8 0-8 0-12.8-1.6-19.2l43.2-33.6c8-6.4 8-9.6 6.4-14.4zM763.2 825.6c-35.2 0-62.4-28.8-62.4-62.4s28.8-62.4 62.4-62.4 62.4 28.8 62.4 62.4-27.2 62.4-62.4 62.4z"></path>
</svg>
