<!-- Generated by IcoMoon.io -->
<svg version="1.1" xmlns="http://www.w3.org/2000/svg" width="1024" height="1024" viewBox="0 0 1024 1024">
<title></title>
<g id="icomoon-ignore">
</g>
<path d="M512 1019.2c278.4 0 507.2-227.2 507.2-507.2s-228.8-507.2-507.2-507.2-507.2 228.8-507.2 507.2 228.8 507.2 507.2 507.2zM512 89.6c232 0 422.4 188.8 422.4 422.4 0 99.2-35.2 192-94.4 265.6l-38.4-38.4 9.6-3.2c-22.4-49.6-64-73.6-92.8-86.4 9.6-22.4 14.4-44.8 19.2-70.4 22.4-1.6 57.6-1.6 89.6 17.6l30.4-46.4c-41.6-25.6-86.4-28.8-118.4-25.6-1.6-20.8-3.2-40-9.6-57.6 30.4-6.4 72-24 104-72l-46.4-32c-24 38.4-57.6 46.4-76.8 51.2-11.2-22.4-24-43.2-41.6-60.8 3.2-12.8 6.4-25.6 6.4-40 0-40-14.4-75.2-38.4-102.4l30.4-30.4-41.6-43.2-33.6 33.6c-22.4-12.8-49.6-20.8-78.4-20.8s-54.4 8-78.4 20.8l-33.6-33.6-40 40 30.4 30.4c-19.2 22.4-32 52.8-35.2 84.8l-107.2-107.2c70.4-59.2 163.2-96 262.4-96zM512 206.4c56 0 102.4 44.8 104 99.2-32-19.2-67.2-28.8-104-28.8s-72 9.6-104 28.8c1.6-52.8 48-99.2 104-99.2zM185.6 244.8l140.8 140.8c-6.4 8-9.6 14.4-12.8 22.4-19.2-1.6-52.8-11.2-78.4-51.2l-46.4 32c32 49.6 75.2 65.6 105.6 73.6-6.4 19.2-8 38.4-9.6 57.6-30.4-1.6-78.4 0-120 25.6l30.4 46.4c32-19.2 70.4-20.8 92.8-17.6 3.2 24 9.6 46.4 17.6 70.4-30.4 12.8-72 38.4-94.4 86.4l51.2 22.4c14.4-35.2 49.6-52.8 70.4-60.8 41.6 62.4 107.2 104 180.8 104 62.4 0 116.8-28.8 158.4-73.6l108.8 108.8c-73.6 60.8-166.4 96-267.2 96-232 0-422.4-188.8-422.4-422.4-1.6-96 35.2-187.2 94.4-260.8z"></path>
</svg>
