<!-- Generated by IcoMoon.io -->
<svg version="1.1" xmlns="http://www.w3.org/2000/svg" width="1024" height="1024" viewBox="0 0 1024 1024">
<title></title>
<g id="icomoon-ignore">
</g>
<path d="M512 942.4c236.8 0 430.4-193.6 430.4-430.4s-193.6-430.4-430.4-430.4c-236.8 0-430.4 193.6-430.4 430.4s193.6 430.4 430.4 430.4zM512 153.6c196.8 0 358.4 160 358.4 358.4 0 84.8-30.4 163.2-80 225.6l-32-32 8-3.2c-19.2-41.6-54.4-62.4-78.4-73.6 8-19.2 12.8-38.4 16-59.2 19.2-1.6 49.6-1.6 76.8 14.4l25.6-40c-35.2-22.4-73.6-24-100.8-22.4-1.6-17.6-3.2-33.6-8-49.6 25.6-4.8 60.8-20.8 88-60.8l-40-27.2c-20.8 32-49.6 40-65.6 43.2-9.6-19.2-20.8-36.8-35.2-51.2 3.2-11.2 4.8-22.4 4.8-33.6 0-33.6-12.8-64-32-86.4l25.6-25.6-35.2-36.8-28.8 28.8c-19.2-11.2-41.6-17.6-67.2-17.6-24 0-46.4 6.4-67.2 17.6l-28.8-28.8-33.6 33.6 25.6 25.6c-16 19.2-27.2 44.8-30.4 72l-91.2-91.2c62.4-49.6 140.8-80 225.6-80zM512 252.8c48 0 86.4 38.4 88 84.8-27.2-16-57.6-24-88-24s-60.8 8-88 24c1.6-46.4 40-84.8 88-84.8zM235.2 284.8l120 120c-4.8 6.4-8 12.8-11.2 19.2-16-1.6-44.8-9.6-67.2-43.2l-40 27.2c27.2 41.6 64 56 89.6 62.4-4.8 16-6.4 32-8 49.6-25.6-1.6-67.2 0-102.4 22.4l25.6 40c27.2-16 59.2-17.6 78.4-14.4 3.2 20.8 8 40 14.4 59.2-25.6 11.2-60.8 32-80 73.6l43.2 19.2c12.8-30.4 41.6-44.8 59.2-51.2 35.2 52.8 91.2 88 153.6 88 52.8 0 99.2-24 134.4-62.4l92.8 92.8c-62.4 51.2-140.8 81.6-227.2 81.6-196.8 0-358.4-160-358.4-358.4 1.6-84.8 32-163.2 83.2-225.6z"></path>
</svg>
