<!-- Generated by IcoMoon.io -->
<svg version="1.1" xmlns="http://www.w3.org/2000/svg" width="1024" height="1024" viewBox="0 0 1024 1024">
<title></title>
<g id="icomoon-ignore">
</g>
<path d="M220.8 222.4c80-80 177.6-120 291.2-120s209.6 40 291.2 120 120 176 120 289.6-40 209.6-120 289.6c-80 80-177.6 120-291.2 120s-209.6-40-291.2-120c-80-80-120-176-120-289.6s40-209.6 120-289.6zM280 745.6c64 64 140.8 96 232 96s168-32 232-96 96-142.4 96-233.6-32-168-96-233.6-140.8-96-232-96-168 32-232 96-96 142.4-96 233.6 32 168 96 233.6zM470.4 388.8v-83.2h83.2v83.2h-83.2zM470.4 718.4v-246.4h83.2v246.4h-83.2z"></path>
</svg>
