<!-- Generated by IcoMoon.io -->
<svg version="1.1" xmlns="http://www.w3.org/2000/svg" width="1024" height="1024" viewBox="0 0 1024 1024">
<title></title>
<g id="icomoon-ignore">
</g>
<path d="M512 942.4c236.8 0 430.4-193.6 430.4-430.4s-193.6-430.4-430.4-430.4-430.4 193.6-430.4 430.4 193.6 430.4 430.4 430.4zM512 153.6c196.8 0 358.4 160 358.4 358.4 0 84.8-30.4 163.2-80 225.6l-504-504c62.4-49.6 140.8-80 225.6-80zM235.2 284.8l502.4 502.4c-62.4 51.2-140.8 81.6-227.2 81.6-196.8 0-358.4-160-358.4-358.4 1.6-84.8 32-163.2 83.2-225.6z"></path>
</svg>
