<!-- Generated by IcoMoon.io -->
<svg version="1.1" xmlns="http://www.w3.org/2000/svg" width="1024" height="1024" viewBox="0 0 1024 1024">
<title></title>
<g id="icomoon-ignore">
</g>
<path d="M640 206.4l-160 73.6 35.2 76.8 160-73.6c33.6-16 67.2-17.6 104-3.2s60.8 36.8 76.8 70.4 17.6 67.2 3.2 104c-12.8 36.8-36.8 60.8-70.4 76.8l-160 73.6 35.2 76.8 160-73.6c54.4-25.6 92.8-67.2 113.6-124.8s19.2-115.2-4.8-168c-25.6-54.4-67.2-92.8-124.8-113.6-57.6-22.4-115.2-19.2-168 4.8zM97.9 327.106l36.012-78.538 177.437 81.359-36.012 78.538-177.437-81.359zM261.756 129.821l81-30.067 67.93 183-81 30.067-67.93-183zM137.6 787.2c12.8 59.2 44.8 107.2 94.4 139.2 51.2 33.6 105.6 41.6 166.4 28.8s107.2-44.8 139.2-94.4l96-147.2-72-46.4-96 147.2c-20.8 32-49.6 52.8-86.4 60.8-36.8 6.4-72 1.6-102.4-19.2s-51.2-48-59.2-86.4c-9.6-36.8-1.6-72 19.2-104l96-147.2-72-46.4-96 147.2c-28.8 51.2-40 107.2-27.2 168z"></path>
</svg>
