<!-- Generated by IcoMoon.io -->
<svg version="1.1" xmlns="http://www.w3.org/2000/svg" width="1024" height="1024" viewBox="0 0 1024 1024">
<title></title>
<g id="icomoon-ignore">
</g>
<path d="M264 652.8h68.8v294.4h-68.8v-294.4zM353.6 972.8h48l100.8-320h-48zM646.4 649.6c-36.8 0-67.2 11.2-91.2 35.2-22.4 24-35.2 52.8-35.2 89.6v52.8c0 36.8 11.2 65.6 35.2 89.6s52.8 35.2 91.2 35.2c36.8 0 67.2-11.2 89.6-35.2s35.2-52.8 35.2-89.6v-52.8c0-36.8-11.2-65.6-35.2-89.6-22.4-24-52.8-35.2-89.6-35.2zM704 827.2c0 20.8-4.8 38.4-14.4 52.8-9.6 12.8-24 20.8-41.6 20.8-19.2 0-32-6.4-43.2-20.8-9.6-12.8-14.4-30.4-14.4-52.8v-52.8c0-20.8 4.8-38.4 14.4-51.2s24-20.8 43.2-20.8c17.6 0 32 6.4 41.6 20.8 9.6 12.8 14.4 28.8 14.4 51.2v52.8zM766.4 121.6l-28.8-20.8h-475.2l-32 25.6-145.6 115.2-44.8 35.2v294.4h944v-300.8l-48-33.6-169.6-115.2zM676.8 468.8h-532.8v-118.4h532.8v118.4zM824 468.8c-33.6 0-60.8-27.2-60.8-60.8s27.2-60.8 60.8-60.8c33.6 0 60.8 27.2 60.8 60.8 0 35.2-27.2 60.8-60.8 60.8z"></path>
</svg>
