<!-- Generated by IcoMoon.io -->
<svg version="1.1" xmlns="http://www.w3.org/2000/svg" width="1024" height="1024" viewBox="0 0 1024 1024">
<title></title>
<g id="icomoon-ignore">
</g>
<path d="M791.893 232.107v0c-27.307-27.307-59.733-52.907-95.573-71.68l10.24-23.893-34.133-13.653c-102.4-42.667-218.453-42.667-320.853 1.707l-34.133 13.653 10.24 25.6c-69.973 37.547-126.293 93.867-163.84 163.84l-27.307-10.24-13.653 34.133c-42.667 102.4-42.667 218.453 1.707 320.853l13.653 34.133 25.6-10.24c18.773 35.84 42.667 66.56 69.973 93.867v0c27.307 29.013 59.733 52.907 95.573 71.68l-11.947 25.6 34.133 13.653c102.4 42.667 218.453 42.667 320.853-1.707l34.133-13.653-10.24-25.6c69.973-37.547 126.293-93.867 163.84-163.84l25.6 10.24 13.653-34.133c42.667-102.4 42.667-218.453-1.707-320.853l-13.653-34.133-25.6 10.24c-15.36-35.84-39.253-66.56-66.56-95.573zM428.373 218.453l-17.067-40.96c64.853-18.773 133.12-18.773 197.973 0l-46.080 110.933c-34.133-6.827-69.973-6.827-104.107 0l-30.72-69.973zM177.493 414.72l110.933 44.373c-6.827 34.133-6.827 69.973 0 104.107l-110.933 46.080c-18.773-63.147-18.773-131.413 0-194.56zM595.627 805.547l17.067 40.96c-64.853 18.773-133.12 18.773-197.973 0l44.373-110.933c34.133 6.827 69.973 6.827 104.107 0l32.427 69.973zM655.36 570.027l-13.653 34.133 20.48 8.533c-11.947 20.48-29.013 35.84-47.787 47.787l-8.533-20.48-34.133 13.653c-39.253 17.067-80.213 17.067-119.467 0l-34.133-13.653-8.533 22.187c-20.48-10.24-40.96-30.72-49.493-46.080l20.48-8.533-13.653-34.133c-17.067-39.253-17.067-80.213 0-119.467l13.653-34.133-20.48-10.24c11.947-22.187 29.013-37.547 47.787-47.787l8.533 20.48 34.133-13.653c39.253-17.067 80.213-17.067 119.467 0l34.133 13.653 8.533-20.48c17.067 6.827 42.667 30.72 49.493 46.080l-20.48 8.533 13.653 34.133c17.067 39.253 17.067 81.92 0 119.467zM846.507 609.28l-110.933-44.373c6.827-34.133 6.827-69.973 0-104.107l110.933-46.080c18.773 63.147 18.773 131.413 0 194.56z"></path>
</svg>
