<!-- Generated by IcoMoon.io -->
<svg version="1.1" xmlns="http://www.w3.org/2000/svg" width="1024" height="1024" viewBox="0 0 1024 1024">
<title></title>
<g id="icomoon-ignore">
</g>
<path d="M316 260.133l0.4 546.6h392v-389.4l-158.8-157.2h-233.6zM640 738.133h-255.2l-0.2-409.6h118.4l0.4 0.6v135.2h136.6v273.8zM243.8 141.533h32.4v-46.2h-78.6v78.6h46.2v-32.4zM197.8 395.133h46.2v110.6h-46.2v-110.6zM198 726.933h46.2v110.6h-46.2c0 0 0-110.6 0-110.6zM197.8 229.133h46.2v110.6h-46.2c0 0 0-110.6 0-110.6zM197.8 561.133h46.2v110.6h-46.2v-110.6zM244.2 892.933h-46.2v78.6h78.6v-46.2h-32.4v-32.4zM323.8 925.133h94.2v46.2h-94.4v-46.2zM606.6 925.133h94.4v46.2h-94.4v-46.2zM465.2 925.133h94.4v46.2h-94.4v-46.2zM780.6 925.133h-32.4v46.2h78.6v-78.6h-46.2v32.4zM780.6 452.533h46.2v97.8h-46.2v-97.8zM780.6 599.333h46.2v97.8h-46.2v-97.8zM780.6 746.133h46.2v97.8h-46.2v-97.8zM780.6 292.533l-32.6 32.8 32.6 32.4v45.8h46.2v-65.2l-46.2-45.8zM627.4 205.533l32.6-32.8 80.4 79.8-32.6 32.8-80.4-79.8zM587.2 165.533l32.6-32.8-37.8-37.4h-79.2v46.2h60l24.4 24zM332.8 95.333h113.4v46.2h-113.4v-46.2z"></path>
</svg>
