<!-- Generated by IcoMoon.io -->
<svg version="1.1" xmlns="http://www.w3.org/2000/svg" width="1024" height="1024" viewBox="0 0 1024 1024">
<title></title>
<g id="icomoon-ignore">
</g>
<path d="M803.2 222.4c-80-80-177.6-120-291.2-120s-211.2 40-291.2 120c-80 80-120 176-120 289.6s40 209.6 120 289.6c80 80 177.6 120 291.2 120s209.6-40 291.2-120c80-80 120-176 120-289.6s-40-209.6-120-289.6zM382.4 744h-102.4v-102.4l273.6-273.6 102.4 102.4-273.6 273.6zM736 390.4l-54.4 54.4-102.4-102.4 54.4-54.4c4.8-4.8 11.2-8 19.2-8s14.4 3.2 19.2 8l64 64c4.8 4.8 8 11.2 8 19.2s-3.2 14.4-8 19.2z"></path>
</svg>
