<svg width="1024" height="1024" viewBox="0 0 1024 1024" fill="none" xmlns="http://www.w3.org/2000/svg">
<path fill-rule="evenodd" clip-rule="evenodd" d="M786.228 511.401C786.228 449.398 735.819 398.988 673.815 398.988H126.619C117.293 435.031 112 472.586 112 511.401C112 550.217 117.545 587.772 126.619 623.815H673.815C735.819 623.815 786.228 573.405 786.228 511.401Z" fill="black"/>
<path fill-rule="evenodd" clip-rule="evenodd" d="M158.125 314.804H772.365C807.904 314.804 842.183 301.193 868.144 277.249C883.771 262.882 898.389 247.255 911.748 230.62C829.58 127.785 703.304 62 561.401 62C383.96 62 230.967 165.34 158.125 314.804Z" fill="black"/>
<path fill-rule="evenodd" clip-rule="evenodd" d="M868.396 745.806C842.183 721.609 808.156 708.251 772.618 708.251H158.125C230.967 857.715 383.96 961.055 561.401 961.055C703.304 961.055 829.58 895.27 912 792.435C898.642 775.8 884.023 760.173 868.396 745.806Z" fill="black"/>
</svg>
