<!-- Generated by IcoMoon.io -->
<svg version="1.1" xmlns="http://www.w3.org/2000/svg" width="1024" height="1024" viewBox="0 0 1024 1024">
<title></title>
<g id="icomoon-ignore">
</g>
<path d="M980.8 43.2c-16-16-41.6-16-56 0l-152 152c-75.2-62.4-161.6-92.8-260.8-92.8-113.6 0-211.2 40-291.2 120s-120 176-120 289.6c0 100.8 32 187.2 94.4 260.8l-152 152c-16 16-16 41.6 0 56 8 8 17.6 11.2 28.8 11.2s20.8-3.2 28.8-11.2l152-152c73.6 60.8 161.6 92.8 260.8 92.8 113.6 0 211.2-40 291.2-120s120-176 120-289.6c0-100.8-32-187.2-94.4-260.8l152-152c14.4-16 14.4-41.6-1.6-56zM184 512c0-91.2 32-169.6 96-233.6s140.8-96 232-96c78.4 0 145.6 24 203.2 70.4l-462.4 462.4c-46.4-59.2-68.8-126.4-68.8-203.2zM840 512c0 91.2-32 169.6-96 233.6s-140.8 96-232 96c-78.4 0-145.6-24-203.2-70.4l462.4-462.4c46.4 59.2 68.8 126.4 68.8 203.2z"></path>
</svg>
