<?xml version="1.0" encoding="utf-8"?>
<!-- Generator: Adobe Illustrator 25.4.1, SVG Export Plug-In . SVG Version: 6.00 Build 0)  -->
<svg version="1.1" id="Layer_1" xmlns="http://www.w3.org/2000/svg" xmlns:xlink="http://www.w3.org/1999/xlink" x="0px" y="0px"
	 viewBox="0 0 1024 1024" style="enable-background:new 0 0 1024 1024;" xml:space="preserve">
<g id="icomoon-ignore">
</g>
<g>
	<g>
		<path d="M159.1,401.9V332c0-5.4,0.3-10.8,1-16.4c0.7-5.5,1.8-10.6,3.4-15.2c-3.5,3.8-7.4,7.1-11.7,10.1c-4.3,3-8.9,5.9-13.8,8.9
			l-59,34.4L50,305.7l59-34.4c5.1-3,10.2-5.5,15.4-7.7c5.1-2.2,10.4-3.8,15.8-4.8c-5.4-1.1-10.7-2.8-15.8-5.1
			c-5.1-2.3-10.2-4.9-15.4-7.9l-59-35.2l29.1-48.5l59,35.6c4.9,3,9.5,6,13.9,9.1c4.4,3.1,8.4,6.5,11.9,10.3
			c-3.2-9.2-4.9-19.5-4.9-31.1v-70.7h59v69.9c0,5.7-0.3,11.2-1,16.6c-0.7,5.4-1.8,10.5-3.4,15.4c3.5-3.8,7.4-7.2,11.7-10.3
			c4.3-3.1,8.9-6.1,13.7-9.1l59-34.8l29.1,48.5l-59,34.3c-5.4,3-10.7,5.5-15.8,7.7c-5.1,2.2-10.4,3.8-15.8,4.8
			c5.4,1.1,10.7,2.8,16,5.1c5.3,2.3,10.4,4.9,15.6,7.9l59,35.2l-29.1,48.1l-59-35.2c-5.1-3-9.8-6-14.1-9.1
			c-4.3-3.1-8.4-6.5-12.1-10.3c3.5,9.4,5.3,19.8,5.3,31.1v70.7H159.1z"/>
		<path d="M482.4,401.9V332c0-5.4,0.3-10.8,1-16.4c0.7-5.5,1.8-10.6,3.4-15.2c-3.5,3.8-7.4,7.1-11.7,10.1c-4.3,3-8.9,5.9-13.8,8.9
			l-59,34.4l-29.1-48.1l59-34.4c5.1-3,10.2-5.5,15.4-7.7c5.1-2.2,10.4-3.8,15.8-4.8c-5.4-1.1-10.7-2.8-15.8-5.1
			c-5.1-2.3-10.2-4.9-15.4-7.9l-59-35.2l29.1-48.5l59,35.6c4.9,3,9.5,6,13.9,9.1c4.4,3.1,8.4,6.5,11.9,10.3
			c-3.2-9.2-4.9-19.5-4.9-31.1v-70.7h59v69.9c0,5.7-0.3,11.2-1,16.6c-0.7,5.4-1.8,10.5-3.4,15.4c3.5-3.8,7.4-7.2,11.7-10.3
			c4.3-3.1,8.9-6.1,13.7-9.1l59-34.8l29.1,48.5l-59,34.3c-5.4,3-10.7,5.5-15.8,7.7c-5.1,2.2-10.4,3.8-15.8,4.8
			c5.4,1.1,10.7,2.8,16,5.1c5.3,2.3,10.4,4.9,15.6,7.9l59,35.2l-29.1,48.1l-59-35.2c-5.1-3-9.8-6-14.1-9.1
			c-4.3-3.1-8.4-6.5-12.1-10.3c3.5,9.4,5.3,19.8,5.3,31.1v70.7H482.4z"/>
		<path d="M805.7,401.9V332c0-5.4,0.3-10.8,1-16.4c0.7-5.5,1.8-10.6,3.4-15.2c-3.5,3.8-7.4,7.1-11.7,10.1c-4.3,3-8.9,5.9-13.8,8.9
			l-59,34.4l-29.1-48.1l59-34.4c5.1-3,10.2-5.5,15.4-7.7c5.1-2.2,10.4-3.8,15.8-4.8c-5.4-1.1-10.7-2.8-15.8-5.1
			c-5.1-2.3-10.2-4.9-15.4-7.9l-59-35.2l29.1-48.5l59,35.6c4.9,3,9.5,6,13.9,9.1c4.4,3.1,8.4,6.5,11.9,10.3
			c-3.2-9.2-4.9-19.5-4.9-31.1v-70.7h59v69.9c0,5.7-0.3,11.2-1,16.6c-0.7,5.4-1.8,10.5-3.4,15.4c3.5-3.8,7.4-7.2,11.7-10.3
			c4.3-3.1,8.9-6.1,13.7-9.1l59-34.8l29.1,48.5l-59,34.3c-5.4,3-10.7,5.5-15.8,7.7c-5.1,2.2-10.4,3.8-15.8,4.8
			c5.4,1.1,10.7,2.8,16,5.1c5.3,2.3,10.4,4.9,15.6,7.9l59,35.2l-29.1,48.1l-59-35.2c-5.1-3-9.8-6-14.1-9.1
			c-4.3-3.1-8.4-6.5-12.1-10.3c3.5,9.4,5.3,19.8,5.3,31.1v70.7H805.7z"/>
	</g>
	<path d="M743.7,448c-85.1,0-159.2,46.3-199.1,114.9H475v39H129.3l-76.7,76.3l76.7,77.1h38.3l38.5-77.5l38.5,77.5h37.7l38.5-38.5
		l38.5,38.5H475v37.4h68.9c39.7,69.2,114.2,116,199.7,116c127.2,0,230.3-103.1,230.3-230.3S870.9,448,743.7,448z M819.9,755.5
		c-42.2,0-76.4-34.2-76.4-76.4s34.2-76.4,76.4-76.4c42.2,0,76.4,34.2,76.4,76.4S862.1,755.5,819.9,755.5z"/>
</g>
</svg>
