<!-- Generated by IcoMoon.io -->
<svg version="1.1" xmlns="http://www.w3.org/2000/svg" width="1024" height="1024" viewBox="0 0 1024 1024">
<title></title>
<g id="icomoon-ignore">
</g>
<path d="M720.043 367.497v-83.217c0.025-1.173 0.039-2.555 0.039-3.94 0-56.036-23.193-106.656-60.504-142.782l-0.053-0.051c-37.228-38.283-89.227-62.036-146.773-62.036s-109.545 23.752-146.727 61.988l-0.046 0.048c-38.249 36.527-62.029 87.922-62.029 144.872 0 0.669 0.003 1.336 0.010 2.003l-0.001-0.102v83.217h-124.075v581.035h664.235v-581.035zM642.884 367.497h-257.178v-83.217c-0.005-0.43-0.008-0.938-0.008-1.447 0-34.763 13.858-66.29 36.352-89.357l-0.026 0.027c21.753-23.343 52.675-37.897 86.996-37.897 1.33 0 2.655 0.022 3.974 0.065l-0.192-0.005c0.279-0.002 0.609-0.003 0.94-0.003 71.149 0 128.866 57.514 129.193 128.586v0.031z"></path>
</svg>
