<!-- Generated by IcoMoon.io -->
<svg version="1.1" xmlns="http://www.w3.org/2000/svg" width="1024" height="1024" viewBox="0 0 1024 1024">
<title></title>
<g id="icomoon-ignore">
</g>
<path d="M932.8 492.8c17.6 17.6 27.2 40 27.2 64s-9.6 44.8-27.2 62.4l-312 315.2c-17.6 17.6-40 25.6-64 25.6s-44.8-8-62.4-25.6l-404.8-403.2c-17.6-17.6-27.2-40-27.2-62.4v-316.8c0-24 8-44.8 25.6-62.4 19.2-16 40-25.6 65.6-25.6h313.6c25.6 0 46.4 8 62.4 25.6l403.2 403.2zM172.8 268.8c12.8 12.8 28.8 19.2 48 19.2s35.2-6.4 48-19.2c12.8-12.8 19.2-28.8 19.2-48s-6.4-35.2-19.2-48c-12.8-12.8-28.8-19.2-48-19.2s-35.2 6.4-48 19.2c-12.8 12.8-19.2 28.8-19.2 48s6.4 35.2 19.2 48z"></path>
</svg>
