<!-- Generated by IcoMoon.io -->
<svg version="1.1" xmlns="http://www.w3.org/2000/svg" width="1024" height="1024" viewBox="0 0 1024 1024">
<title></title>
<g id="icomoon-ignore">
</g>
<path d="M401.6 867.2c0-14.4 3.2-28.8 8-41.6 6.4-12.8 12.8-24 24-33.6 9.6-9.6 20.8-17.6 35.2-22.4 12.8-6.4 28.8-8 44.8-8s30.4 3.2 43.2 8c12.8 6.4 25.6 12.8 35.2 22.4s17.6 20.8 24 33.6c6.4 12.8 8 27.2 8 41.6s-3.2 28.8-8 43.2c-6.4 12.8-12.8 24-24 33.6-9.6 9.6-22.4 17.6-35.2 22.4s-27.2 8-43.2 8c-16 0-30.4-3.2-44.8-8-12.8-4.8-25.6-12.8-35.2-22.4s-17.6-20.8-24-33.6c-4.8-14.4-8-27.2-8-43.2zM604.8 49.6v360c0 38.4-1.6 76.8-6.4 115.2s-11.2 76.8-17.6 116.8h-132.8c-8-40-14.4-78.4-17.6-116.8-4.8-38.4-6.4-76.8-6.4-115.2v-360h180.8z"></path>
</svg>
