<?xml version="1.0" encoding="utf-8"?>
<!-- Generator: Adobe Illustrator 27.5.0, SVG Export Plug-In . SVG Version: 6.00 Build 0)  -->
<svg version="1.1" id="Layer_1" xmlns="http://www.w3.org/2000/svg" xmlns:xlink="http://www.w3.org/1999/xlink" x="0px" y="0px"
	 viewBox="0 0 1024 1024" style="enable-background:new 0 0 1024 1024;" xml:space="preserve">
<g>
	<path d="M481.2,442.4l43,24.8l-10,17.4l-43-24.8l-10,17.4l43,24.8l-10,17.4l-43-24.8l-10,17.4l43,24.8l-10,17.4l-43-24.8
		L252.3,838.9c-18.9,32.7-7.7,74.6,25,93.5c32.7,18.9,74.6,7.7,93.5-25l279-483.3l-118.5-68.4L481.2,442.4z"/>
	<path d="M525.8,329.3l149.5,86.3c9.6,5.5,21.8,2.2,27.4-7.3l11.5-19.9c5.5-9.6,2.2-21.8-7.3-27.4l-149.5-86.3
		c-9.6-5.5-21.8-2.2-27.4,7.3l-11.5,19.9C513,311.5,516.2,323.8,525.8,329.3z"/>
	<path d="M857.1,339c-13.2-15.9-36.9-18.1-52.8-4.9c-15.9,13.2-18.1,36.9-4.9,52.8c13.2,15.9,36.9,18.1,52.8,4.9
		C868.1,378.6,870.3,355,857.1,339z"/>
	<path d="M715.5,161.8c-19.8-23.8-55.1-27.1-78.9-7.3c-23.8,19.8-27.1,55.1-7.3,78.9c19.8,23.8,55.1,27.1,78.9,7.3
		C731.9,220.9,735.2,185.6,715.5,161.8z"/>
	<path d="M616.2,79.5c9,10.8,24.9,12.3,35.7,3.3s12.3-24.9,3.3-35.7c-9-10.8-24.9-12.3-35.7-3.3S607.2,68.7,616.2,79.5z"/>
	<path d="M513.6,204.4c19.4-16.1,22.1-44.9,6-64.3c-16.1-19.4-44.9-22.1-64.3-6c-19.4,16.1-22.1,44.9-6,64.3
		C465.3,217.9,494.1,220.6,513.6,204.4z"/>
	<path d="M875.2,199.9c-10.7-12.8-29.7-14.6-42.5-3.9c-12.8,10.7-14.6,29.7-3.9,42.5c10.7,12.8,29.7,14.6,42.5,3.9
		C884.1,231.8,885.9,212.8,875.2,199.9z"/>
</g>
</svg>
