<?xml version="1.0" encoding="utf-8"?>
<!-- Generator: Adobe Illustrator 26.1.0, SVG Export Plug-In . SVG Version: 6.00 Build 0)  -->
<svg version="1.1" id="Layer_1" xmlns="http://www.w3.org/2000/svg" xmlns:xlink="http://www.w3.org/1999/xlink" x="0px" y="0px"
	 viewBox="0 0 60 60" style="enable-background:new 0 0 60 60;" xml:space="preserve">
<path d="M47.6,28.3c-0.2-0.5-0.7-0.7-1.2-0.6c-0.1,0-0.3,0.1-0.4,0.2l-1.5,1.5c-0.2,0.2-0.6,0.2-0.9,0c0,0,0,0-0.1-0.1
	c-1-1.3-1.8-2.6-2.6-4c-1.3-2.5-2.2-5.1-2.7-7.8c-0.8-4-1-8-0.5-12.1c0.1-0.5-0.3-1-0.8-1c-0.2,0-0.4,0-0.6,0.1
	c-2.8,1.5-5.3,3.6-7.4,6c-2.9,3.4-4.9,7.4-5.8,11.7c-0.1,0.3-0.3,0.6-0.6,0.6c-0.3,0-0.5-0.1-0.7-0.4c-1-1.2-1.6-2.8-2-5.5
	c-0.1-0.6-0.7-0.7-1.2-0.5c-0.1,0.1-0.3,0.1-0.4,0.2c-4.5,4.8-7.2,11.1-7.5,17.7C10.7,36.7,10.5,46.2,17,52c3.5,3,7.9,4.7,12.5,4.7
	c4.8,0.2,9.5-1.4,13.2-4.4C48.8,47,50.8,37.5,47.6,28.3z M38.2,46.9c-2.2,1.8-5,2.8-7.9,2.8c-0.2,0-0.3,0-0.5,0l-0.2,0
	c-2.9,0-5.8-1.1-8-3c-3.7-3.3-3.9-9.4-3.8-11.9c0.1-2,0.5-3.9,1.1-5.7c1.4,0.8,3,1.1,3.9,1.1l0.3,0c3.6,0,5.7-2.8,6.5-6.2
	c0.3-1.5,1.3-3,1.9-4.4c0.7,3.1,1.8,6.2,3.2,9.1c1,1.8,2.1,3.5,3.3,5.1l0.2,0.3l0.3,0.4c1,1,2.1,1.7,3.4,2
	C42.2,40.6,40.9,44.5,38.2,46.9z"/>
</svg>
