<!-- Generated by IcoMoon.io -->
<svg version="1.1" xmlns="http://www.w3.org/2000/svg" width="1024" height="1024" viewBox="0 0 1024 1024">
<title></title>
<g id="icomoon-ignore">
</g>
<path d="M500.702 813.721c0-162.546 131.769-294.315 294.315-294.315v0c0.023 0 0.051 0 0.078 0 10.575 0 21.022 0.552 31.312 1.628l-1.285-0.109v-209.34l-204.681-204.698h-421.547v852.89h340.838c-24.54-41.886-39.031-92.236-39.031-145.972 0-0.030 0-0.060 0-0.089v0.005zM561.954 193.792h58.47v116.958h116.975v58.487h-175.445zM824.030 1012.070l1.86-194.56 66.287 66.287c13.825-18.445 22.138-41.714 22.138-66.926 0-1.222-0.020-2.439-0.058-3.652l0.004 0.177c0.011-0.597 0.017-1.301 0.017-2.006 0-52.968-34.941-97.776-83.031-112.631l-0.835-0.222-13.193-4.147v-84.599l23.177 5.478c38.815 9.287 72.215 28.624 98.405 55.107l0.018 0.019c37.064 35.902 60.070 86.127 60.070 141.725 0 0.791-0.005 1.58-0.014 2.369l0.001-0.12c0.003 0.378 0.004 0.825 0.004 1.272 0 48.946-17.647 93.771-46.926 128.458l0.244-0.297 68.267 68.267zM744.943 1007.872c-38.817-9.279-72.219-28.617-98.404-55.106l-0.019-0.019c-37.093-36.733-60.059-87.672-60.059-143.975 0-49.663 17.869-95.152 47.528-130.389l-0.252 0.307-68.83-68.898 196.267 2.833v193.451l-66.799-66.748c-14.165 19.372-22.665 43.667-22.665 69.947 0 33.004 13.406 62.876 35.070 84.469l0.003 0.003c13.277 13.399 29.777 23.582 48.243 29.289l0.824 0.219 11.657 4.079v85.862z"></path>
</svg>
