<!-- Generated by IcoMoon.io -->
<svg version="1.1" xmlns="http://www.w3.org/2000/svg" width="1024" height="1024" viewBox="0 0 1024 1024">
<title></title>
<g id="icomoon-ignore">
</g>
<path d="M220.8 680c30.4 17.6 70.4 30.4 123.2 41.6 51.2 9.6 107.2 14.4 168 14.4 22.4 0 43.2-1.6 64-1.6l-56-56c-14.4-14.4-20.8-35.2-17.6-54.4-65.6 0-128-6.4-185.6-19.2-60.8-12.8-107.2-30.4-142.4-56v75.2c0 20.8 16 40 46.4 56zM220.8 512c30.4 17.6 70.4 30.4 123.2 41.6 51.2 9.6 108.8 14.4 169.6 14.4 33.6 0 67.2-1.6 99.2-4.8v-92.8c0-6.4 1.6-12.8 3.2-19.2-32 3.2-67.2 4.8-102.4 4.8-68.8 0-134.4-6.4-193.6-19.2-60.8-12.8-107.2-30.4-142.4-56v75.2c-3.2 20.8 12.8 38.4 43.2 56zM849.6 408v-25.6c-12.8 9.6-27.2 17.6-44.8 25.6h32c4.8-1.6 8-1.6 12.8 0zM220.8 849.6c30.4 17.6 70.4 30.4 123.2 41.6 48 9.6 100.8 14.4 158.4 14.4v-54.4c0-25.6 16-48 38.4-57.6-9.6 0-17.6 0-27.2 0-68.8 0-134.4-6.4-193.6-19.2-60.8-12.8-107.2-30.4-142.4-56v75.2c-3.2 19.2 12.8 38.4 43.2 56zM220.8 344c30.4 17.6 70.4 30.4 123.2 41.6 51.2 9.6 107.2 14.4 168 14.4s116.8-4.8 169.6-14.4c51.2-9.6 92.8-24 123.2-41.6s44.8-35.2 44.8-56v-56c0-20.8-14.4-38.4-44.8-56s-70.4-30.4-123.2-41.6c-52.8-11.2-108.8-16-169.6-16s-116.8 4.8-169.6 14.4c-51.2 9.6-92.8 24-123.2 41.6s-44.8 35.2-44.8 56v57.6c0 19.2 16 38.4 46.4 56zM627.2 785.6h1.6c-1.6 0-1.6 0-1.6 0zM848 633.6h-11.2v-163.2h-161.6v163.2h-108.8l190.4 190.4 92.8-94.4 96-96zM945.6 849.6h-380.8v56h380.8z"></path>
</svg>
