<!-- Generated by IcoMoon.io -->
<svg version="1.1" xmlns="http://www.w3.org/2000/svg" width="1024" height="1024" viewBox="0 0 1024 1024">
<title></title>
<g id="icomoon-ignore">
</g>
<path d="M371.2 828.8h652.8v-131.2h-652.8v131.2zM436.8 731.2h64v64h-64v-64zM371.2 1024h652.8v-131.2h-652.8v131.2zM436.8 926.4h64v64h-64v-64zM539.2 502.4c-12.8 11.2-27.2 22.4-40 32h1.6v64h-64c0 0 0-9.6 0-12.8-20.8 16-40 32-59.2 46.4h646.4v-131.2h-484.8zM225.6 598.4c16-30.4 65.6-208 4.8-361.6-17.6-43.2-43.2-84.8-81.6-120-32-30.4-72-54.4-123.2-73.6-43.2-16-94.4-27.2-153.6-32 70.4 33.6 121.6 73.6 147.2 96 0 0 54.4 40 96 115.2 36.8 65.6 65.6 160 65.6 160 19.2 60.8 32 128 38.4 169.6 4.8 28.8 6.4 46.4 6.4 46.4zM462.4 502.4c57.6-48 115.2-92.8 168-120 128-67.2 248-1.6 240-25.6-14.4-52.8-132.8-115.2-132.8-115.2-51.2-59.2-108.8-73.6-145.6-81.6-67.2-12.8-136 1.6-169.6 9.6-94.4-124.8-280-153.6-353.6-160 43.2 19.2 80 43.2 112 72 19.2 14.4 35.2 30.4 48 46.4l30.4-1.6-19.2 17.6c4.8 8 11.2 14.4 14.4 22.4l51.2-8-36.8 38.4c3.2 9.6 4.8 17.6 8 27.2 73.6 284.8-72 457.6-72 457.6 12.8-4.8 27.2-11.2 40-17.6 40-20.8 81.6-51.2 124.8-86.4 32-25.6 62.4-51.2 92.8-75.2zM624 225.6c14.4 0 43.2 11.2 65.6 30.4 1.6 1.6-12.8 4.8-28.8 3.2-11.2 0-27.2-4.8-40-17.6-11.2-11.2-8-16 3.2-16zM38.4 8c59.2 19.2 107.2 44.8 142.4 73.6-32-28.8-68.8-52.8-112-72-19.2-1.6-30.4-1.6-30.4-1.6z"></path>
</svg>
