<!-- Generated by IcoMoon.io -->
<svg version="1.1" xmlns="http://www.w3.org/2000/svg" width="1024" height="1024" viewBox="0 0 1024 1024">
<title></title>
<g id="icomoon-ignore">
</g>
<path d="M924.8 443.2c-67.2-67.2-147.2-99.2-241.6-99.2 0 0 0-1.6 0-1.6 0-94.4-33.6-174.4-99.2-240-67.2-68.8-148.8-102.4-243.2-102.4s-174.4 33.6-241.6 99.2-99.2 147.2-99.2 241.6c0 94.4 33.6 174.4 99.2 240 67.2 67.2 147.2 99.2 241.6 99.2 0 0 0 1.6 0 1.6 0 94.4 33.6 174.4 99.2 240 67.2 67.2 147.2 99.2 241.6 99.2s174.4-33.6 241.6-99.2 99.2-147.2 99.2-240c1.6-92.8-32-172.8-97.6-238.4zM240 496l-54.4-54.4 100.8-100.8-100.8-100.8 54.4-54.4 100.8 100.8 102.4-100.8 54.4 54.4-102.4 100.8 75.2 75.2c-11.2 8-20.8 17.6-30.4 27.2s-17.6 17.6-24 27.2l-75.2-73.6-100.8 99.2zM416 470.4c-6.4 8-12.8 16-17.6 24 4.8-9.6 11.2-17.6 17.6-24zM875.2 876.8c-52.8 52.8-116.8 80-192 80s-139.2-27.2-192-80c-52.8-52.8-80-118.4-80-193.6s27.2-140.8 80-193.6 116.8-80 192-80c75.2 0 139.2 27.2 192 80s80 118.4 80 193.6c0 75.2-27.2 140.8-80 193.6zM627.2 729.6l-70.4-70.4-48 48 118.4 120 225.6-225.6-48-48z"></path>
</svg>
