<!-- Generated by IcoMoon.io -->
<svg version="1.1" xmlns="http://www.w3.org/2000/svg" width="1024" height="1024" viewBox="0 0 1024 1024">
<title></title>
<g id="icomoon-ignore">
</g>
<path d="M579.2 73.6h-395.2v875.2h657.6v-611.2l-262.4-264zM388.8 494.4c35.2 0 62.4 28.8 62.4 62.4 0 35.2-28.8 62.4-62.4 62.4s-62.4-28.8-62.4-62.4c-1.6-35.2 27.2-62.4 62.4-62.4zM256 880c51.2-70.4 91.2-124.8 136-185.6 35.2 30.4 60.8 51.2 104 88 32-49.6 62.4-96 107.2-168 64 104 108.8 174.4 166.4 267.2-179.2-1.6-336-1.6-513.6-1.6zM536 380.8v-240l240 240h-240z"></path>
</svg>
