<!-- Generated by IcoMoon.io -->
<svg version="1.1" xmlns="http://www.w3.org/2000/svg" width="1024" height="1024" viewBox="0 0 1024 1024">
<title></title>
<g id="icomoon-ignore">
</g>
<path d="M908.971 688.299c47.616-76.8 67.755-162.816 52.907-255.829 0 0 0.171 1.536 0.341 4.608-0.341-2.56-0.683-3.925-0.683-3.925s-5.803 6.827-14.507 19.285c-2.56-30.549-9.045-62.464-21.163-95.061-42.496-122.027-133.803-219.307-133.803-253.099-8.875 10.411-15.872 25.771-19.797 44.373-79.189-74.752-102.059-110.080-102.059-131.584 0 0-21.163 23.723-41.131 61.099-8.704 15.872-17.579 35.499-23.893 58.197-11.605 39.765-15.189 86.016 2.389 132.779 1.877 4.779 3.755 9.387 5.632 13.824 8.192 19.627 18.773 37.547 30.72 52.224 10.24 13.141 21.163 24.405 32.597 34.987 7.68 7.168 15.701 14.165 23.893 20.651v0 0 0c0.171 0.171 0.341 0.341 0.512 0.683 23.893 34.645 37.205 77.312 37.205 123.221 0 115.712-93.867 209.408-209.579 209.408-15.701 0-31.573-1.707-46.933-5.291-18.944-3.584-35.328-9.387-48.981-16.043-33.451-21.845-53.419-41.301-65.024-58.709 6.997 2.389 13.995 4.437 21.163 5.973 42.496 9.728 85.845 4.779 113.835-10.752 24.064-13.312 41.301-24.235 55.125-27.136 4.437-0.853 8.533-0.853 12.288 0.171-0.341-0.171-0.853-0.341-1.195-0.512 1.024 0.171 2.219 0.512 3.243 0.853 16.043 5.291 28.843-10.24 17.408-26.283-11.264-16.043-40.448-39.083-83.797-32.768-33.109 4.779-63.659 28.331-107.008 5.632-2.731-1.536-5.461-3.072-8.192-4.779-2.901-1.707 9.387 2.56 6.485 0.683-8.533-4.096-23.381-13.141-27.307-16.213-0.683-0.512 6.485 2.048 5.973 1.536-13.483-9.899-21.845-18.773-27.136-26.624-5.461-8.533-7.509-16.555-8.021-23.893-0.171-4.779 0.512-8.875 0.853-12.459 0-0.512 0.171-1.024 0.171-1.707 0.512-2.56 1.195-4.779 1.877-6.656 1.877-4.608 4.779-9.387 8.533-13.141v0c0.341-0.341 0.512-0.512 0.853-0.853 1.195-1.024 2.389-2.048 3.584-2.901 1.707-1.195 3.755-2.389 5.803-3.243 5.973 2.901 9.728 5.12 9.728 5.12s-2.56-4.608-3.925-7.168c0.512-0.171 1.024-0.171 1.365-0.341 4.949 2.048 15.872 7.68 21.504 11.093 7.509 4.779 9.899 8.875 9.899 8.875s2.048-1.024 0.512-5.12c-0.512-1.707-2.731-6.997-10.24-12.459h0.512c4.437 2.219 8.533 4.779 12.459 7.851 2.048-6.827 5.803-13.824 4.949-26.624-0.512-8.875-0.341-11.264-2.048-14.677-1.536-2.901 0.853-4.096 3.584-1.024-0.512-2.389-1.195-4.779-2.389-6.997v-0.171c0 0 1.536-2.048 2.219-2.731 1.536-1.707 3.755-3.413 6.485-5.291 10.411-6.827 27.989-15.019 42.837-21.845 12.288-5.291 22.528-9.387 24.576-10.581 1.877-1.195 5.291-3.584 9.045-6.997 4.608-3.925 8.704-8.533 12.117-13.653 3.243-4.608 5.803-10.752 6.827-19.456 0.341-1.707 0.512-3.413 0.512-5.291 0.341-8.363-3.925-13.995-73.216-20.48-28.501-2.56-39.424-29.013-42.667-39.936 0 0 0 0.171-0.171 0.171 0-0.171-0.171-0.341-0.171-0.512 11.435-29.696 31.744-55.125 58.368-72.533 1.536-1.195-6.144 0.341-4.608-0.853 1.707-1.536 13.483-5.632 15.531-6.656 2.731-1.195-11.435-6.485-24.064-5.291-12.8 1.365-15.531 2.731-22.187 5.291 2.901-2.56 11.776-5.803 9.728-5.803-13.653 1.877-30.891 9.045-45.397 17.067 0-1.365 0.341-2.901 0.853-4.096-6.827 2.56-23.552 12.971-28.331 21.845 0.171-1.707 0.341-3.413 0.341-5.12-5.12 3.755-9.728 8.192-13.995 13.141l-0.171 0.171c-39.424-14.165-74.069-15.189-103.595-8.704-0.171 0-0.171-0.171-0.341-0.341 0.171 0 0.341 0 0.341 0-3.925-2.901-11.093-9.728-19.285-21.845-2.048-3.072-4.267-6.656-6.485-10.581-1.877-3.243-3.584-6.656-5.461-10.411v0c-0.171-0.171-0.341-0.341-0.341-0.341-0.683-0.853-1.195 2.219-1.877 2.389 0 0 0-0.171-0.171-0.171-5.632-13.141-9.216-34.475-8.363-49.664 0 0-0.171 0-0.512 0.171 0-0.171 0-0.341 0-0.341s-11.776 5.291-21.504 27.648c-1.536 3.413-2.731 5.632-3.584 7.509 0.341-2.048 1.195-6.144 1.024-5.803s-0.341 0.512-0.512 0.853c0.171-0.683 0.171-1.195 0.171-1.024-1.707 2.901-6.144 6.827-8.021 12.117-1.195 3.413-2.731 5.461-3.925 9.216 0.171-1.707 0.171-3.755 0-3.243 0.512 0.512 0.171 1.024 0 1.365 0-0.853 0-1.365-0.171-1.024-4.608 9.216-8.533 18.773-11.776 28.501-4.779 15.531-10.069 36.011-11.776 61.952-0.853 8.021-1.024 13.653-0.683 15.531 0 0.171 0 0.341 0 0.512-12.459 14.165-20.821 26.112-24.064 32.427-16.043 24.747-33.621 63.317-50.859 124.416 7.68-16.725 16.725-32.597 27.136-47.616-14.165 32.427-27.989 83.285-30.72 161.621 3.413-16.213 7.851-32.256 13.312-47.957-2.389 52.224 3.584 117.077 36.693 190.123 19.627 43.008 64.853 130.389 175.104 198.485v0c0 0 37.547 27.989 102.059 48.811 4.779 1.707 9.557 3.413 14.507 5.12-1.536-0.683-3.072-1.365-4.437-1.877 43.008 12.8 87.552 19.456 132.437 19.456 158.549 0.171 210.944-60.245 215.893-66.389 8.021-7.509 14.165-15.531 17.92-23.552 68.437-31.573 142.336-82.773 149.163-158.379 0 0.341-0.171 1.365-0.512 2.731 1.536-7.68 1.365-15.019-0.341-21.333zM275.115 176.811c15.872 0 32.085 1.877 48.469 5.632 56.149-31.915 121.003-50.176 190.123-50.176 20.992 0 41.472 1.707 61.611 4.949 0.683-2.901 1.536-5.973 2.389-8.875 2.56-8.875 5.461-17.749 8.875-26.453-23.723-4.096-47.957-6.315-72.875-6.315-93.184 0-179.2 30.208-249.173 81.579 3.413-0.171 6.997-0.341 10.581-0.341z"></path>
</svg>
