<!-- Generated by IcoMoon.io -->
<svg version="1.1" xmlns="http://www.w3.org/2000/svg" width="1024" height="1024" viewBox="0 0 1024 1024">
<title></title>
<g id="icomoon-ignore">
</g>
<path d="M947.2 577.6c-3.2-3.2-6.4-6.4-9.6-9.6-1.6 0-1.6-1.6-3.2-1.6 1.6 0 1.6 1.6 3.2 1.6 3.2-19.2 3.2-38.4 3.2-57.6 1.6-235.2-192-428.8-428.8-428.8s-430.4 193.6-430.4 430.4c0 236.8 193.6 430.4 430.4 430.4 19.2 0 38.4-1.6 57.6-3.2 3.2 3.2 4.8 6.4 8 9.6 0 0 0 0 0 0 3.2 3.2 8 6.4 11.2 11.2 40 35.2 84.8 57.6 137.6 64 11.2 1.6 24 3.2 36.8 3.2s25.6-1.6 36.8-3.2c51.2-6.4 96-27.2 136-62.4 4.8-3.2 8-6.4 12.8-11.2 0 0 0 0 0 0 51.2-51.2 76.8-112 76.8-184-1.6-75.2-27.2-137.6-78.4-188.8 0 0 0 0 0 0zM512 252.8c48 0 86.4 38.4 88 84.8-27.2-16-57.6-24-88-24s-60.8 8-88 24c1.6-46.4 40-84.8 88-84.8zM512 153.6c196.8 0 358.4 160 358.4 358.4 0 3.2 0 8 0 11.2-22.4-9.6-44.8-16-70.4-19.2-11.2-1.6-24-3.2-36.8-3.2s-24 1.6-36.8 3.2c-8 1.6-14.4 1.6-22.4 3.2-1.6-12.8-3.2-25.6-6.4-36.8 25.6-4.8 60.8-20.8 88-60.8l-40-27.2c-20.8 32-49.6 40-65.6 43.2-9.6-19.2-20.8-36.8-35.2-51.2 3.2-11.2 4.8-22.4 4.8-33.6 0-33.6-12.8-64-32-86.4l25.6-25.6-35.2-35.2-28.8 28.8c-19.2-11.2-41.6-17.6-67.2-17.6-24 0-46.4 6.4-67.2 17.6l-28.8-28.8-33.6 33.6 25.6 25.6c-16 19.2-27.2 44.8-30.4 72l-91.2-91.2c62.4-49.6 140.8-80 225.6-80zM512 870.4c-196.8 0-358.4-160-358.4-358.4 0-86.4 30.4-164.8 81.6-227.2l120 120c-4.8 6.4-8 12.8-11.2 19.2-16-1.6-44.8-9.6-67.2-43.2l-40 27.2c27.2 41.6 64 56 89.6 62.4-4.8 16-6.4 32-8 49.6-25.6-1.6-67.2 0-102.4 22.4l25.6 40c27.2-16 59.2-17.6 78.4-14.4 3.2 20.8 8 40 14.4 59.2-25.6 11.2-60.8 32-80 73.6l43.2 19.2c12.8-30.4 41.6-44.8 59.2-51.2 33.6 49.6 84.8 83.2 142.4 86.4 0 1.6 0 3.2 0 4.8 0 38.4 8 73.6 22.4 107.2-1.6 3.2-6.4 3.2-9.6 3.2zM910.4 910.4c-41.6 41.6-89.6 60.8-147.2 60.8-51.2 0-94.4-16-132.8-46.4-4.8-4.8-11.2-9.6-16-14.4-14.4-14.4-27.2-30.4-36.8-48-16-30.4-25.6-64-25.6-100.8 0-3.2 0-6.4 0-9.6 0-8 1.6-17.6 3.2-25.6 1.6-9.6 3.2-19.2 6.4-28.8 6.4-20.8 16-40 28.8-57.6 6.4-9.6 14.4-19.2 22.4-27.2 9.6-9.6 17.6-16 27.2-24 3.2-1.6 6.4-3.2 8-6.4 8-6.4 17.6-11.2 27.2-14.4 1.6-1.6 4.8-1.6 6.4-3.2 6.4-1.6 12.8-4.8 19.2-6.4 19.2-4.8 38.4-8 59.2-8 11.2 0 24 1.6 33.6 3.2 24 3.2 46.4 11.2 67.2 22.4 16 9.6 32 20.8 46.4 35.2 4.8 4.8 9.6 11.2 14.4 16 30.4 36.8 46.4 81.6 46.4 131.2 3.2 62.4-16 112-57.6 152zM736 660.8v24h52.8v-52.8h-52.8zM736 737.6v156.8h52.8v-156.8z"></path>
</svg>
