<?xml version="1.0" encoding="utf-8"?>
<!-- Generator: Adobe Illustrator 25.4.1, SVG Export Plug-In . SVG Version: 6.00 Build 0)  -->
<svg version="1.1" id="Layer_1" xmlns="http://www.w3.org/2000/svg" xmlns:xlink="http://www.w3.org/1999/xlink" x="0px" y="0px"
	 viewBox="0 0 1024 1024" style="enable-background:new 0 0 1024 1024;" xml:space="preserve">
<g id="icomoon-ignore">
</g>
<path d="M770.6,514.1L641.9,737.5h-0.4l-87.8,151.9h2.5L774.2,512L770.6,514.1L770.6,514.1z M252.2,512l129.9,225.5L252.3,511.8
	L252.2,512L252.2,512z M770.6,514.1L770.6,514.1z M641.5,737.5h0.4l128.7-223.4L641.5,737.5z M509.6,624.6
	c62.2,0,112.6-50.4,112.6-112.6s-50.4-112.6-112.6-112.6S396.9,449.8,396.9,512l0,0C396.9,574.2,447.3,624.6,509.6,624.6
	L509.6,624.6L509.6,624.6z M928.7,482.6l-88.5-153.9H666.3L771.8,512l-1.2,2.1l3.7-2.1L556.1,889.4h139.6c0.3,0,0.6,0,1,0
	c20.8,0,38.9-11.8,47.8-29.1l0.1-0.3l184-321.1c4.6-8.1,7.3-17.8,7.3-28.2c0-10.3-2.7-20.1-7.5-28.4L928.7,482.6L928.7,482.6z
	 M593.1,737.5H382.2L252.2,512v-0.2l-85.9-149.4l-71,122.4C90.7,493,88,502.7,88,513c0,10.3,2.7,20.1,7.5,28.4l-0.1-0.3l183.8,318.6
	c10,17.2,28.1,28.7,48.9,29.4l0.1,0h177.1L593.1,737.5z M185.5,395.6l66.9,116.2l0.1-0.2L185.5,395.6L185.5,395.6z M744.8,164
	c-9.6-17.6-27.9-29.3-49-29.4H328.2c-0.3,0-0.6,0-1,0c-20.8,0-38.9,11.8-47.8,29.1l-0.1,0.3L190.6,320l86.2,149.4l105.3-182.9h433.8
	L744.8,164z"/>
</svg>
