<?xml version="1.0" encoding="utf-8"?>
<!-- Generator: Adobe Illustrator 26.1.0, SVG Export Plug-In . SVG Version: 6.00 Build 0)  -->
<svg version="1.1" id="Layer_1" xmlns="http://www.w3.org/2000/svg" xmlns:xlink="http://www.w3.org/1999/xlink" x="0px" y="0px"
	 viewBox="0 0 60 60" style="enable-background:new 0 0 60 60;" xml:space="preserve">
<path d="M28.8,46.8l-11.9,7c-1.1,0.7-2.5,0.3-3.2-0.7c-0.3-0.5-0.4-1.1-0.3-1.7l3-13.5c0.2-0.8-0.1-1.7-0.7-2.2L5.4,26.5
	c-0.9-0.9-1-2.3-0.1-3.2c0.4-0.4,0.9-0.6,1.4-0.7l13.8-1.3c0.8-0.1,1.6-0.6,1.9-1.4l5.5-12.7c0.5-1.2,1.8-1.7,3-1.2
	c0.5,0.2,1,0.7,1.2,1.2l5.5,12.7c0.3,0.8,1.1,1.3,1.9,1.4l13.8,1.3c1.3,0.1,2.2,1.2,2.1,2.5c-0.1,0.6-0.3,1.1-0.8,1.5l-10.4,9.2
	c-0.6,0.6-0.9,1.4-0.7,2.2l3,13.5c0.3,1.2-0.5,2.5-1.7,2.8c-0.6,0.1-1.2,0-1.7-0.3l-11.9-7.1C30.4,46.4,29.6,46.4,28.8,46.8z"/>
</svg>
