<svg width="1024" height="1024" viewBox="0 0 1024 1024" fill="none" xmlns="http://www.w3.org/2000/svg">
<path d="M512.006 137C299.952 137 128 308.905 128 520.98C128 690.633 238.028 834.565 390.602 885.34C409.792 888.893 416.846 877.008 416.846 866.867C416.846 857.714 416.486 827.462 416.324 795.377C309.488 818.608 286.946 750.072 286.946 750.072C269.484 705.692 244.31 693.888 244.31 693.888C209.471 670.055 246.942 670.546 246.942 670.546C285.492 673.253 305.799 710.118 305.799 710.118C340.053 768.818 395.632 751.846 417.552 742.035C420.993 717.222 430.941 700.277 441.932 690.69C356.634 680.984 266.975 648.054 266.975 500.925C266.975 459.003 281.978 424.748 306.545 397.859C302.558 388.184 289.404 349.132 310.259 296.238C310.259 296.238 342.513 285.925 415.889 335.604C446.516 327.094 479.366 322.828 512.004 322.679C544.631 322.828 577.507 327.094 608.197 335.604C681.497 285.923 713.689 296.238 713.689 296.238C734.593 349.132 721.451 388.184 717.465 397.859C742.081 424.749 756.986 459.005 756.986 500.925C756.986 648.408 667.152 680.879 581.643 690.384C595.416 702.301 607.686 725.667 607.686 761.49C607.686 812.868 607.24 854.218 607.24 866.865C607.24 877.086 614.156 889.06 633.619 885.289C786.11 834.46 896 690.579 896 520.98C896 308.905 724.074 137 512.006 137Z" fill="black"/>
</svg>
