<!-- Generated by IcoMoon.io -->
<svg version="1.1" xmlns="http://www.w3.org/2000/svg" width="1024" height="1024" viewBox="0 0 1024 1024">
<title></title>
<g id="icomoon-ignore">
</g>
<path d="M503.979 833.877c-28.421-44.185-52.478-95.075-69.585-149.058l-1.242-4.542h90.112c13.8-32.871 32.019-61.107 54.311-85.567l-0.21 0.233h-165.547c-3.2-24.512-5.235-53.267-5.626-82.418l-0.006-0.526c0.467-29.693 2.562-58.375 6.203-86.572l-0.401 3.799h200.192c3.193 24.453 5.228 53.148 5.626 82.238l0.006 0.535c0 13.824-0.853 30.037-2.219 47.445 24.388-19.002 52.681-34.521 83.274-45.118l2.060-0.621v-1.707s0-1.365 0-1.877c-0.303-28.848-2.216-56.908-5.657-84.494l0.366 3.598h140.629c4.519 21.276 7.809 46.455 9.164 72.146l0.052 1.241c32.44 5.565 61.497 15.675 88.113 29.779l-1.585-0.766c0-6.485 0-13.141 0-19.627 0.047-2.263 0.073-4.93 0.073-7.603 0-112.888-47.283-214.732-123.125-286.808l-0.169-0.159c-73.369-76.051-176.177-123.278-290.015-123.278-2.382 0-4.758 0.021-7.13 0.062l0.356-0.005c-1.915-0.033-4.174-0.051-6.438-0.051-113.836 0-216.642 47.225-289.895 123.153l-0.115 0.12c-76.111 72.248-123.462 174.158-123.462 287.126 0 2.617 0.025 5.229 0.076 7.834l-0.006-0.39c-0.047 2.263-0.073 4.93-0.073 7.603 0 112.888 47.283 214.732 123.125 286.808l0.169 0.159c73.369 76.049 176.176 123.276 290.013 123.276 2.323 0 4.641-0.020 6.955-0.059l-0.349 0.005c7.68 0 15.189 0 22.528 0-14.834-27.784-25.571-60.127-30.372-94.373l-0.177-1.542zM797.867 344.405h-122.197c-13.619-55.33-32.999-103.937-58.043-148.96l1.552 3.040c77.433 24.449 140.14 76.505 177.888 144.354l0.8 1.566zM512 176.981c32.395 48.139 59.223 103.672 77.639 162.911l1.209 4.513h-157.696c19.625-63.752 46.453-119.285 80.296-169.716l-1.448 2.292zM187.733 594.773c-5.15-24.642-8.356-53.171-8.869-82.357l-0.006-0.416c0.519-29.602 3.725-58.132 9.387-85.766l-0.512 2.993h140.117c-3.074 23.988-4.988 52.048-5.287 80.494l-0.003 0.402s0 1.365 0 1.877 0 1.365 0 1.877c0.303 28.848 2.216 56.908 5.657 84.494l-0.366-3.598h-140.117zM225.451 680.107h122.197c13.619 55.33 32.999 103.937 58.043 148.96l-1.552-3.040c-77.233-24.724-139.701-76.931-177.204-144.85l-0.801-1.582zM347.648 345.088h-121.515c38.548-69.415 101.255-121.471 176.512-145.325l2.176-0.595c-23.435 41.782-42.807 90.15-55.616 141.125l-0.875 4.112z"></path>
</svg>
