<!-- Generated by IcoMoon.io -->
<svg version="1.1" xmlns="http://www.w3.org/2000/svg" width="1024" height="1024" viewBox="0 0 1024 1024">
<title></title>
<g id="icomoon-ignore">
</g>
<path d="M592 443.2c4.8 27.2 6.4 51.2 6.4 70.4 0 14.4-1.6 30.4-3.2 48 20.8-17.6 44.8-32 72-41.6 0-1.6 0-3.2 0-4.8 0-19.2-1.6-43.2-4.8-70.4h116.8c4.8 20.8 8 40 9.6 59.2 24 3.2 48 8 70.4 17.6 0-1.6 0-4.8 0-6.4 0-96-33.6-177.6-102.4-244.8-67.2-67.2-150.4-102.4-246.4-102.4s-177.6 33.6-246.4 102.4c-67.2 67.2-102.4 150.4-102.4 244.8 0 96 33.6 177.6 102.4 244.8 67.2 67.2 150.4 102.4 246.4 102.4 3.2 0 6.4 0 8 0-11.2-25.6-17.6-54.4-19.2-84.8-24-38.4-43.2-80-56-124.8h80c11.2-25.6 27.2-48 46.4-68.8h-142.4c-3.2-27.2-4.8-51.2-4.8-70.4s1.6-43.2 4.8-70.4h164.8zM752 376h-102.4c-11.2-44.8-27.2-86.4-48-123.2 65.6 20.8 116.8 62.4 150.4 123.2zM510.4 236.8c28.8 41.6 51.2 88 67.2 139.2h-132.8c16-51.2 36.8-96 65.6-139.2zM241.6 584c-4.8-25.6-8-48-8-70.4s3.2-44.8 8-70.4h116.8c-3.2 27.2-4.8 51.2-4.8 70.4s1.6 43.2 4.8 70.4h-116.8zM272 652.8h102.4c11.2 44.8 27.2 86.4 48 123.2-65.6-20.8-116.8-62.4-150.4-123.2zM374.4 376h-102.4c35.2-60.8 84.8-102.4 150.4-123.2-20.8 36.8-36.8 78.4-48 123.2zM931.2 705.6l-35.2-60.8c-1.6-3.2-6.4-4.8-11.2-3.2l-41.6 17.6c-3.2-3.2-6.4-4.8-11.2-8-6.4-4.8-12.8-8-19.2-11.2l-6.4-46.4c-1.6-4.8-4.8-6.4-9.6-6.4h-68.8c-4.8 0-8 1.6-9.6 6.4l-6.4 46.4c-6.4 3.2-12.8 6.4-19.2 11.2-3.2 1.6-6.4 4.8-11.2 6.4l-16-6.4-25.6-9.6c-4.8-1.6-8 0-11.2 3.2l-33.6 60.8c-1.6 4.8-1.6 8 1.6 11.2l38.4 28.8c-1.6 4.8-1.6 11.2-1.6 17.6 0 0 0 0 0 1.6 0 4.8 0 11.2 1.6 16l-36.8 27.2c-3.2 3.2-3.2 6.4-1.6 11.2l16 28.8 17.6 32c1.6 4.8 6.4 6.4 11.2 4.8l41.6-17.6c9.6 8 19.2 12.8 28.8 16l6.4 48c1.6 4.8 4.8 6.4 9.6 6.4h68.8c4.8 0 8-1.6 9.6-6.4l6.4-48c11.2-4.8 20.8-9.6 28.8-16l41.6 17.6c4.8 1.6 9.6 0 11.2-4.8l33.6-60.8c1.6-4.8 1.6-8-1.6-11.2l-36.8-27.2c1.6-8 1.6-12.8 1.6-17.6 0-6.4 0-11.2-1.6-16l36.8-28.8c6.4-4.8 6.4-8 4.8-12.8zM800 800c-9.6 9.6-22.4 14.4-36.8 14.4s-25.6-4.8-36.8-14.4c-3.2-1.6-4.8-4.8-6.4-8-6.4-8-9.6-17.6-9.6-28.8 0-14.4 4.8-27.2 16-36.8 9.6-9.6 22.4-16 36.8-16 11.2 0 20.8 3.2 28.8 9.6 3.2 1.6 4.8 3.2 6.4 6.4 9.6 9.6 16 22.4 16 36.8s-4.8 27.2-14.4 36.8z"></path>
</svg>
