<!-- Generated by IcoMoon.io -->
<svg version="1.1" xmlns="http://www.w3.org/2000/svg" width="1024" height="1024" viewBox="0 0 1024 1024">
<title></title>
<g id="icomoon-ignore">
</g>
<path d="M808.448 217.429c-73.368-76.048-176.174-123.273-290.010-123.273-2.264 0-4.523 0.019-6.778 0.056l0.34-0.004c-1.915-0.033-4.174-0.051-6.438-0.051-113.836 0-216.642 47.225-289.895 123.153l-0.115 0.12c-76.111 72.248-123.462 174.158-123.462 287.126 0 2.617 0.025 5.229 0.076 7.834l-0.006-0.39c-0.047 2.263-0.073 4.93-0.073 7.603 0 112.888 47.283 214.732 123.125 286.808l0.169 0.159c73.369 76.049 176.176 123.276 290.013 123.276 2.323 0 4.641-0.020 6.955-0.059l-0.349 0.005c1.915 0.033 4.174 0.051 6.438 0.051 113.836 0 216.642-47.225 289.895-123.153l0.115-0.12c76.111-72.248 123.462-174.158 123.462-287.126 0-2.617-0.025-5.229-0.076-7.834l0.006 0.39c0.045-2.215 0.070-4.827 0.070-7.444 0-112.969-47.351-214.878-123.289-286.963l-0.173-0.163zM797.696 344.576h-122.027c-13.619-55.33-32.999-103.937-58.043-148.96l1.552 3.040c77.408 24.408 140.109 76.403 177.889 144.187l0.799 1.562zM512 176.981c32.395 48.139 59.223 103.672 77.639 162.911l1.209 4.513h-157.696c19.625-63.752 46.453-119.285 80.296-169.716l-1.448 2.292zM187.733 594.773c-5.15-24.642-8.356-53.171-8.869-82.357l-0.006-0.416c0.519-29.602 3.725-58.132 9.387-85.766l-0.512 2.993h140.117c-3.074 23.987-4.987 52.047-5.287 80.494l-0.003 0.402s0 1.365 0 1.877 0 1.365 0 1.877c0.303 28.849 2.217 56.909 5.657 84.495l-0.366-3.599h-140.117zM225.451 680.107h122.197c13.619 55.33 32.999 103.937 58.043 148.96l-1.552-3.040c-77.233-24.724-139.701-76.931-177.204-144.85l-0.801-1.582zM347.648 345.088h-121.515c38.548-69.415 101.255-121.471 176.512-145.325l2.176-0.595c-23.435 41.782-42.807 90.15-55.616 141.125l-0.875 4.112zM512 847.019c-32.395-48.139-59.223-103.672-77.639-162.911l-1.209-4.513h157.867c-19.68 63.756-46.564 119.286-80.464 169.705l1.445-2.281zM612.181 594.773h-200.363c-3.193-24.453-5.228-53.148-5.626-82.238l-0.006-0.535c0.467-29.693 2.562-58.375 6.203-86.572l-0.401 3.799h200.192c3.193 24.453 5.228 53.148 5.626 82.238l0.006 0.535c-0.404 29.625-2.439 58.32-6.022 86.532l0.39-3.759zM619.179 825.344c23.492-41.984 42.872-90.591 55.626-141.818l0.864-4.102h122.197c-38.517 69.484-101.231 121.601-176.512 145.495l-2.176 0.596zM695.296 594.773c3.074-23.987 4.987-52.047 5.287-80.494l0.003-0.402s0-1.365 0-1.877 0-1.365 0-1.877c-0.303-28.849-2.217-56.909-5.657-84.495l0.366 3.599h140.971c5.15 24.642 8.356 53.171 8.869 82.357l0.006 0.416c-0.519 29.602-3.725 58.132-9.387 85.766l0.512-2.993h-140.971z"></path>
</svg>
