<!-- Generated by IcoMoon.io -->
<svg version="1.1" xmlns="http://www.w3.org/2000/svg" width="1024" height="1024" viewBox="0 0 1024 1024">
<title></title>
<g id="icomoon-ignore">
</g>
<path d="M518.8 463.3v117.2h193.9c-7.7 50.4-58.6 147.5-193.9 147.5-116.7 0-211.8-96.7-211.8-215.9s95.2-215.9 211.8-215.9c66.5 0 110.7 28.3 136.2 52.7l92.6-89.4c-59.4-55.6-136.7-89.5-228.8-89.5-189.1 0.5-341.7 153.2-341.7 342.3s152.7 341.7 341.7 341.7c197.1 0 328.1-138.7 328.1-334 0-22.4-2.5-39.6-5.4-56.6l-322.7-0.1z"></path>
</svg>
