<!-- Generated by IcoMoon.io -->
<svg version="1.1" xmlns="http://www.w3.org/2000/svg" width="1024" height="1024" viewBox="0 0 1024 1024">
<title></title>
<g id="icomoon-ignore">
</g>
<path d="M324.267 765.593c0.054 0 0.118 0 0.182 0 53.066 0 96.085-43.019 96.085-96.085 0-25.152-9.664-48.047-25.482-65.174l0.059 0.065 56.32-90.010c8.257 2.582 17.751 4.070 27.593 4.070 19.737 0 38.076-5.982 53.303-16.233l-0.341 0.217 72.329 63.147c-6.031 12.221-9.558 26.606-9.558 41.814 0 53.151 43.088 96.239 96.239 96.239s96.239-43.088 96.239-96.239c0-31.018-14.674-58.609-37.459-76.209l-0.223-0.165 81.647-200.994c3.443 0.435 7.427 0.684 11.47 0.684 53.321 0 96.546-43.225 96.546-96.546s-43.225-96.546-96.546-96.546c-53.321 0-96.546 43.225-96.546 96.546 0 31.064 14.671 58.701 37.462 76.361l0.221 0.165-81.613 200.96c-3.343-0.427-7.229-0.681-11.171-0.7h-0.025c-0.017 0-0.038 0-0.059 0-19.731 0-38.066 5.979-53.292 16.225l0.342-0.217-72.346-63.147c6.048-12.237 9.586-26.643 9.586-41.875 0-53.161-43.095-96.256-96.256-96.256s-96.256 43.095-96.256 96.256c0 25.171 9.662 48.085 25.479 65.237l-0.060-0.066-56.32 90.027c-8.246-2.556-17.726-4.028-27.55-4.028-53.151 0-96.239 43.088-96.239 96.239s43.088 96.239 96.239 96.239c0.002 0 0.003 0 0.005 0v0zM842.411 206.472c0.005 0 0.011 0 0.017 0 15.468 0 28.006 12.539 28.006 28.006s-12.539 28.006-28.006 28.006c-15.468 0-28.006-12.539-28.006-28.006v0c0.019-15.454 12.537-27.977 27.987-28.006h0.003zM690.995 579.225c15.458 0 27.989 12.531 27.989 27.989s-12.531 27.989-27.989 27.989c-15.458 0-27.989-12.531-27.989-27.989v0c0.019-15.45 12.539-27.97 27.987-27.989h0.002zM478.993 394.188c15.468 0 28.006 12.539 28.006 28.006s-12.539 28.006-28.006 28.006c-15.468 0-28.006-12.539-28.006-28.006 0-0.006 0-0.012 0-0.018v0.001c0.019-15.456 12.549-27.98 28.005-27.989h0.001zM324.267 641.348c15.458 0 27.989 12.531 27.989 27.989s-12.531 27.989-27.989 27.989c-15.458 0-27.989-12.531-27.989-27.989v0c0.019-15.45 12.539-27.97 27.987-27.989h0.002zM119.467 710.246h56.115v-68.267h-56.115v-217.31h56.115v-68.267h-56.115v-217.293h56.115v-68.267h-124.382v924.979h887.467v-68.267h-819.2v-217.31z"></path>
</svg>
