<!-- Generated by IcoMoon.io -->
<svg version="1.1" xmlns="http://www.w3.org/2000/svg" width="1024" height="1024" viewBox="0 0 1024 1024">
<title></title>
<g id="icomoon-ignore">
</g>
<path d="M364.885 620.032c118.272 0 352.085 57.685 352.085 176.128v118.272h-704.171v-118.272c0-118.443 233.813-176.128 352.085-176.128zM755.371 630.954c118.272 19.285 255.829 74.24 255.829 165.035v118.272h-175.957v-118.272c0-68.779-30.208-121.003-79.872-165.035zM364.885 504.49c-96.256 0-176.128-79.701-176.128-176.128s79.872-175.957 176.128-175.957 176.128 79.701 176.128 176.128-79.872 175.957-176.128 175.957zM659.115 504.49c-19.285 0-35.84-2.731-52.224-8.192 32.939-46.763 52.224-104.448 52.224-167.765s-19.285-121.003-52.224-167.765c16.555-5.461 32.939-8.192 52.224-8.192 96.256 0 176.128 79.701 176.128 176.128s-79.872 175.787-176.128 175.787z"></path>
</svg>
