<!-- Generated by IcoMoon.io -->
<svg version="1.1" xmlns="http://www.w3.org/2000/svg" width="1024" height="1024" viewBox="0 0 1024 1024">
<title></title>
<g id="icomoon-ignore">
</g>
<path d="M832 99.2l112 112-38.4 38.4-9.6-14.4-100.8-100.8 36.8-35.2zM60.8 211.2l72 113.6 76.8 6.4 166.4 166.4-67.2 67.2 27.2 27.2-225.6 227.2c14.4 54.4 60.8 99.2 113.6 113.6l236.8-236.8 260.8 260.8c94.4-25.6 147.2-89.6 177.6-177.6l-257.6-260.8 56-56 142.4 142.4 123.2-123.2-94.4-219.2-195.2-195.2-43.2-1.6-144 142.4 3.2 49.6 91.2 91.2-44.8 44.8-27.2-27.2-68.8 67.2-163.2-164.8-6.4-81.6-113.6-72-96 96zM590.4 616l30.4-30.4 206.4 206.4-24 38.4-212.8-214.4zM524.8 681.6l30.4-30.4 214.4 214.4-38.4 24-206.4-208z"></path>
</svg>
