<!-- Generated by IcoMoon.io -->
<svg version="1.1" xmlns="http://www.w3.org/2000/svg" width="1024" height="1024" viewBox="0 0 1024 1024">
<title></title>
<g id="icomoon-ignore">
</g>
<path d="M670.4 704l-40 228.8h-83.2c-8 0-14.4-1.6-20.8-4.8s-11.2-8-16-12.8c-4.8-4.8-8-11.2-11.2-19.2-3.2-6.4-4.8-14.4-4.8-22.4 0-1.6 0-4.8 0-6.4s0-4.8 1.6-6.4l27.2-156.8h-96l-27.2 166.4c-1.6 11.2-4.8 20.8-9.6 28.8s-11.2 14.4-19.2 19.2c-8 4.8-16 8-24 11.2-8 1.6-17.6 3.2-27.2 3.2h-80l41.6-228.8h-51.2c-14.4 0-25.6-3.2-33.6-11.2-8-6.4-12.8-19.2-12.8-36.8 0-3.2 0-6.4 0-11.2 0-3.2 1.6-8 1.6-12.8l9.6-56h102.4l24-136h-113.6l14.4-72c3.2-17.6 11.2-30.4 22.4-40 11.2-8 30.4-12.8 56-12.8h40l30.4-169.6c3.2-17.6 11.2-32 25.6-43.2 14.4-9.6 30.4-16 49.6-16h81.6l-40 227.2h96l40-227.2h80c17.6 0 30.4 4.8 41.6 14.4s16 20.8 16 35.2c0 1.6 0 3.2 0 4.8s0 3.2 0 4.8l-30.4 168h112l-14.4 72c-3.2 17.6-11.2 32-22.4 40s-30.4 12.8-56 12.8h-36.8l-24 136h62.4c14.4 0 25.6 3.2 33.6 11.2 8 6.4 12.8 19.2 12.8 36.8 0 3.2 0 6.4 0 11.2 0 3.2-1.6 8-1.6 12.8l-12.8 57.6h-113.6zM444.8 579.2h96l24-136h-96l-24 136z"></path>
</svg>
