<!-- Generated by IcoMoon.io -->
<svg version="1.1" xmlns="http://www.w3.org/2000/svg" width="1024" height="1024" viewBox="0 0 1024 1024">
<title></title>
<g id="icomoon-ignore">
</g>
<path d="M220.8 222.4c80-80 177.6-120 291.2-120s209.6 40 291.2 120c80 80 120 176 120 289.6s-40 209.6-120 289.6-177.6 120-291.2 120-209.6-40-291.2-120-120-176-120-289.6c0-113.6 40-209.6 120-289.6zM638.4 481.6c25.6-25.6 38.4-56 38.4-92.8 0-44.8-16-83.2-48-115.2s-70.4-48-116.8-48-84.8 16-116.8 48c-32 32-48 70.4-48 115.2h83.2c0-22.4 8-43.2 24-59.2s35.2-24 57.6-24 41.6 8 57.6 24c16 16 24 35.2 24 59.2s-8 41.6-25.6 57.6l-49.6 51.2c-32 32-48 70.4-48 115.2v20.8h83.2c0-28.8 3.2-49.6 11.2-65.6 6.4-16 19.2-32 36.8-49.6l36.8-36.8zM553.6 798.4v-81.6h-83.2v81.6h83.2z"></path>
</svg>
