<!-- Generated by IcoMoon.io -->
<svg version="1.1" xmlns="http://www.w3.org/2000/svg" width="1024" height="1024" viewBox="0 0 1024 1024">
<title></title>
<g id="icomoon-ignore">
</g>
<path d="M920 331.2l-14.4-36.8-27.2 11.2c-40-75.2-100.8-136-176-176l11.2-27.2-36.8-14.4c-110.4-46.4-233.6-44.8-344 1.6l-36.8 14.4 11.2 27.2c-75.2 40-136 100.8-176 176l-27.2-11.2-14.4 36.8c-46.4 110.4-44.8 233.6 1.6 344l14.4 36.8 27.2-11.2c40 75.2 100.8 136 176 176l-11.2 27.2 36.8 14.4c54.4 22.4 112 33.6 169.6 33.6 19.2 0 40-1.6 59.2-4.8 49.6 43.2 112 65.6 177.6 65.6 150.4 0 273.6-123.2 273.6-273.6 0-65.6-22.4-128-65.6-176 12.8-80 1.6-160-28.8-233.6zM476.8 668.8c-12.8-1.6-24-4.8-35.2-9.6l-36.8-14.4-9.6 22.4c-20.8-14.4-38.4-32-51.2-51.2l22.4-9.6-14.4-36.8c-17.6-41.6-17.6-86.4 0-128l14.4-36.8-22.4-9.6c14.4-20.8 32-38.4 51.2-51.2l9.6 22.4 36.8-14.4c41.6-17.6 86.4-17.6 128 0l36.8 14.4 9.6-22.4c20.8 14.4 38.4 32 51.2 51.2l-22.4 9.6 14.4 36.8c4.8 11.2 8 24 9.6 36.8-92.8 24-166.4 96-192 190.4zM148.8 609.6c-20.8-68.8-20.8-140.8 0-209.6l118.4 48c-8 36.8-8 75.2 0 112l-118.4 49.6zM747.2 467.2c-1.6-6.4-1.6-12.8-3.2-19.2l67.2-28.8 49.6-20.8c9.6 33.6 16 68.8 16 104-1.6 0-1.6-1.6-3.2-1.6s-3.2-1.6-4.8-1.6c-6.4-3.2-12.8-6.4-20.8-9.6 0 0-1.6 0-1.6 0-8-3.2-14.4-6.4-22.4-8-1.6 0-3.2-1.6-4.8-1.6-8-1.6-16-4.8-24-6.4-1.6 0-1.6 0-3.2 0-8-1.6-14.4-3.2-22.4-3.2-1.6 0-3.2 0-4.8 0-4.8-3.2-11.2-3.2-17.6-3.2zM609.6 147.2l-48 118.4c-36.8-8-75.2-8-112 0l-33.6-75.2-17.6-43.2c68.8-19.2 142.4-20.8 211.2 0zM400 860.8l38.4-94.4 9.6-24c6.4 1.6 11.2 3.2 17.6 3.2 0 46.4 12.8 89.6 35.2 129.6-33.6 0-67.2-4.8-100.8-14.4zM740.8 937.6c-51.2 0-100.8-20.8-137.6-56v0c-36.8-36.8-57.6-86.4-57.6-139.2 0-8 0-16 1.6-25.6v0c11.2-88 81.6-156.8 168-168v0c9.6-1.6 17.6-1.6 25.6-1.6 52.8 0 102.4 20.8 139.2 59.2v0c36.8 36.8 56 84.8 56 136 1.6 107.2-86.4 195.2-195.2 195.2zM782.4 580.8h-78.4v200h160v-78.4h-81.6z"></path>
</svg>
