<!-- Generated by IcoMoon.io -->
<svg version="1.1" xmlns="http://www.w3.org/2000/svg" width="1024" height="1024" viewBox="0 0 1024 1024">
<title></title>
<g id="icomoon-ignore">
</g>
<path d="M316.8 675.2c-11.2-11.2-17.6-27.2-17.6-43.2h-169.6v-115.2h278.4c16-44.8 41.6-84.8 76.8-120 64-64 144-97.6 235.2-97.6 12.8 0 25.6 0 36.8 1.6l-16-11.2-28.8-19.2h-465.6l-30.4 25.6-142.4 113.6-43.2 33.6v292.8h347.2l-60.8-60.8zM529.6 440c52.8-52.8 116.8-80 192-80s139.2 27.2 192 80c52.8 52.8 80 116.8 80 192s-27.2 139.2-80 192c-52.8 52.8-116.8 80-192 80s-139.2-25.6-192-80l43.2-43.2c40 41.6 89.6 62.4 148.8 62.4s108.8-20.8 148.8-60.8c41.6-41.6 60.8-91.2 60.8-148.8 0-59.2-20.8-108.8-60.8-148.8-41.6-41.6-91.2-60.8-148.8-60.8-59.2 0-108.8 20.8-148.8 60.8-41.6 41.6-60.8 91.2-60.8 148.8h91.2l-123.2 121.6-1.6-4.8-116.8-116.8h91.2c-1.6-76.8 24-140.8 76.8-193.6zM692.8 512h44.8v128l104 64-20.8 36.8-128-78.4v-150.4z"></path>
</svg>
