<!-- Generated by IcoMoon.io -->
<svg version="1.1" xmlns="http://www.w3.org/2000/svg" width="1024" height="1024" viewBox="0 0 1024 1024">
<title></title>
<g id="icomoon-ignore">
</g>
<path d="M512 112.64c220.56 0 399.36 178.8 399.36 399.36s-178.8 399.36-399.36 399.36c-220.56 0-399.36-178.8-399.36-399.36v0c0-220.56 178.8-399.36 399.36-399.36v0zM512 34.133c-263.918 0-477.867 213.948-477.867 477.867s213.948 477.867 477.867 477.867c263.918 0 477.867-213.948 477.867-477.867v0c0-263.918-213.948-477.867-477.867-477.867v0 0zM640 653.653l-30.72 177.493h-64.853l-15.36-3.413-11.947-10.24c-3.745-4.299-6.667-9.426-8.451-15.058l-0.083-0.302c-2.165-4.715-3.427-10.23-3.427-16.040 0-0.361 0.005-0.721 0.015-1.080l-0.001 0.053v-5.12c-0.016-0.173-0.024-0.374-0.024-0.577 0-1.748 0.657-3.342 1.737-4.55l-0.006 0.007 20.48-121.173h-75.093l-20.48 129.707c-0.873 8.25-3.299 15.767-6.983 22.498l0.156-0.311c-3.775 6.395-8.965 11.585-15.162 15.252l-0.198 0.108-18.773 8.533h-83.627l32.427-177.493h-40.96c-0.864 0.078-1.87 0.122-2.885 0.122-8.738 0-16.71-3.284-22.748-8.684l0.033 0.029c-6.449-6.479-10.435-15.414-10.435-25.28 0-1.315 0.071-2.613 0.209-3.892l-0.014 0.158v-5.12c0-1.707 1.707-6.827 1.707-10.24l6.827-42.667h78.507l18.773-105.813h-87.040l11.947-56.32c2.003-12.353 8.177-22.996 17.004-30.667l0.063-0.053c11.042-6.508 24.327-10.353 38.51-10.353 1.462 0 2.915 0.041 4.357 0.122l-0.2-0.009h30.72l23.893-131.413c2.245-14.030 9.731-25.991 20.348-34.037l0.132-0.096c10.793-7.48 24.167-11.95 38.585-11.95 0.235 0 0.47 0.001 0.705 0.004h61.404l-30.72 175.787h75.093l30.72-175.787h61.44c0.431-0.014 0.937-0.023 1.446-0.023 11.946 0 22.831 4.546 31.018 12.002l-0.037-0.033c7.347 6.299 11.973 15.59 11.973 25.962 0 0.473-0.010 0.944-0.029 1.412l0.002-0.067v6.827l-23.893 129.707h87.040l-11.947 56.32c-1.678 12.447-7.933 23.185-16.985 30.655l-0.081 0.065c-11.042 6.508-24.327 10.353-38.51 10.353-1.462 0-2.915-0.041-4.357-0.122l0.2 0.009h-27.307l-18.773 105.813h47.787c0.864-0.078 1.87-0.122 2.885-0.122 8.738 0 16.71 3.284 22.748 8.684l-0.033-0.029c6.449 6.479 10.435 15.414 10.435 25.28 0 1.315-0.071 2.613-0.209 3.892l0.014-0.158v8.533c0 1.707-1.707 6.827-1.707 10.24l-10.24 44.373h-87.040zM465.92 558.080h75.093l18.773-105.813h-76.8z"></path>
</svg>
