<!-- Generated by IcoMoon.io -->
<svg version="1.1" xmlns="http://www.w3.org/2000/svg" width="1024" height="1024" viewBox="0 0 1024 1024">
<title></title>
<g id="icomoon-ignore">
</g>
<path d="M172.8 728c30.4 17.6 70.4 30.4 123.2 41.6 51.2 9.6 107.2 14.4 168 14.4s116.8-4.8 169.6-14.4c51.2-9.6 92.8-24 123.2-41.6s44.8-36.8 44.8-56v-8c-4.8 1.6-9.6 1.6-14.4 1.6h-163.2c-6.4 0-12.8-1.6-19.2-3.2-44.8 6.4-91.2 9.6-140.8 9.6-68.8 0-134.4-6.4-193.6-19.2-60.8-12.8-107.2-30.4-142.4-56v75.2c-1.6 20.8 14.4 40 44.8 56zM172.8 560c30.4 17.6 70.4 30.4 123.2 41.6 51.2 9.6 108.8 14.4 169.6 14.4 33.6 0 65.6-1.6 97.6-4.8 0-3.2-1.6-6.4-1.6-9.6v-99.2h-43.2c-1.6 0-1.6 0-3.2 0-16 0-32 1.6-48 1.6-68.8 0-134.4-6.4-193.6-19.2-60.8-12.8-107.2-30.4-142.4-56v75.2c-4.8 20.8 11.2 38.4 41.6 56zM172.8 897.6c30.4 17.6 70.4 30.4 123.2 41.6 51.2 9.6 108.8 14.4 169.6 14.4s116.8-4.8 169.6-14.4c51.2-9.6 92.8-24 123.2-41.6s44.8-36.8 44.8-56v-75.2c-35.2 24-81.6 43.2-142.4 56s-124.8 19.2-193.6 19.2c-68.8 0-134.4-6.4-193.6-19.2-60.8-12.8-107.2-30.4-142.4-56v75.2c-4.8 19.2 11.2 38.4 41.6 56zM172.8 392c30.4 17.6 70.4 30.4 123.2 41.6 48 9.6 100.8 14.4 156.8 14.4-3.2-19.2 3.2-40 17.6-52.8l107.2-108.8h-62.4c-35.2 0-64-28.8-64-64v-54.4c-56 0-108.8 4.8-156.8 14.4-51.2 9.6-92.8 24-123.2 41.6s-44.8 35.2-44.8 56v56c0 19.2 16 38.4 46.4 56zM896 222.4v-56h-380.8v56h238.4zM624 601.6h163.2v-163.2h107.2l-190.4-190.4-188.8 190.4h108.8v52.8z"></path>
</svg>
