<!-- Generated by IcoMoon.io -->
<svg version="1.1" xmlns="http://www.w3.org/2000/svg" width="1024" height="1024" viewBox="0 0 1024 1024">
<title></title>
<g id="icomoon-ignore">
</g>
<path d="M348.404 391.533l41.936-68.128 54.502 33.548-41.936 68.128-54.502-33.548zM429.472 441.599l41.936-68.128 54.502 33.548-41.936 68.128-54.502-33.548zM756.016 488.949c-0.848-1.168-1.504-2.512-2.416-3.616l60.8-121.6h4.8c58.321 0 105.6-47.279 105.6-105.6s-47.279-105.6-105.6-105.6v0c-0.054 0-0.117 0-0.181 0-43.814 0-81.368 26.801-97.163 64.903l-0.256 0.697h-419.2c-16.051-38.799-53.605-65.6-97.419-65.6-0.064 0-0.127 0-0.191 0h0.010c-58.321 0-105.6 47.279-105.6 105.6s47.279 105.6 105.6 105.6v0h9.6l224 414.4c-13.964 17.274-22.418 39.505-22.418 63.711 0 0.664 0.006 1.327 0.019 1.987l-0.001-0.099c0.529 58.107 47.493 105.071 105.549 105.6h0.051c6.343-0.014 12.54-0.596 18.555-1.696l-0.635 0.096c-43.512-48.284-70.13-112.536-70.13-183.004 0-27.031 3.917-53.148 11.213-77.813l-0.492 1.937-171.312-321.92 12.8 8 41.6-68.8-16-9.6h374.4c5.098 12.412 12.126 23.034 20.827 32.028l-0.027-0.028-57.6 115.2c-4.727-0.318-10.246-0.5-15.808-0.5s-11.081 0.181-16.552 0.539l0.744-0.039c-15.634 2.079-29.798 6.581-42.738 13.147l0.754-0.347-54.4-33.6-44.8 70.4 54.4 33.6s-1.6 14.4-1.6 24c0 1.6 0.176 3.2 0.256 4.8 47.923-41.834 111.035-67.344 180.106-67.344 0.058 0 0.117 0 0.175 0h-0.009c3.6 0.016 7.12 0.416 10.688 0.56zM744.752 520.325c-0.005 0-0.010 0-0.016 0-134.793 0-244.064 109.271-244.064 244.064s109.271 244.064 244.064 244.064c134.793 0 244.064-109.271 244.064-244.064 0-0.006 0-0.011 0-0.017v0.001c-0.155-134.722-109.326-243.893-244.033-244.048h-0.015zM744.752 948.981c-101.956 0-184.608-82.652-184.608-184.608s82.652-184.608 184.608-184.608c101.956 0 184.608 82.652 184.608 184.608v0c-0.109 101.912-82.696 184.499-184.598 184.608h-0.010zM758.128 659.717h-33.968v127.728l107.952 67.12 17.936-28.864-91.92-57.136v-108.848z"></path>
</svg>
