<!-- Generated by IcoMoon.io -->
<svg version="1.1" xmlns="http://www.w3.org/2000/svg" width="1024" height="1024" viewBox="0 0 1024 1024">
<title></title>
<g id="icomoon-ignore">
</g>
<path d="M497.192 370.245l54.502-33.549 41.936 68.128-54.502 33.549-41.936-68.128zM579.188 320.679l54.502-33.549 41.936 68.128-54.502 33.549-41.936-68.128zM920 512h-211.2l100.8-187.2c3.2 0 6.4 0 9.6 0 57.6 0 105.6-48 105.6-105.6s-48-105.6-105.6-105.6c-44.8 0-81.6 27.2-97.6 65.6h-419.2c-16-38.4-52.8-65.6-97.6-65.6-57.6 0-105.6 48-105.6 105.6s48 105.6 105.6 105.6c1.6 0 3.2 0 4.8 0l60.8 121.6c-14.4 17.6-22.4 40-22.4 65.6 0 57.6 48 105.6 105.6 105.6s105.6-48 105.6-105.6c0-9.6-1.6-17.6-3.2-27.2l1.6 3.2 54.4-33.6-41.6-68.8-54.4 35.2 8 11.2c-19.2-16-43.2-25.6-68.8-25.6-4.8 0-8 0-12.8 1.6l-57.6-115.2c8-9.6 16-19.2 20.8-32h374.4l-16 9.6 41.6 68.8 12.8-8-100.8 180.8h-84.8c-16 0-28.8 4.8-40 16s-16 24-16 40v134.4c-46.4 11.2-81.6 52.8-81.6 102.4s35.2 91.2 81.6 102.4v48c0 16 4.8 28.8 16 40s24 16 40 16h387.2c16 0 28.8-4.8 40-16s16-24 16-40v-387.2c0-16-4.8-28.8-16-40s-24-16-40-16zM641.6 932.8h-86.4v-240h86.4v240zM771.2 932.8h-83.2v-342.4h83.2v342.4zM904 932.8h-86.4v-137.6h86.4v137.6z"></path>
</svg>
