<?xml version="1.0" encoding="utf-8"?>
<!-- Generator: Adobe Illustrator 26.2.1, SVG Export Plug-In . SVG Version: 6.00 Build 0)  -->
<svg version="1.1" id="Layer_1" xmlns="http://www.w3.org/2000/svg" xmlns:xlink="http://www.w3.org/1999/xlink" x="0px" y="0px"
	 viewBox="0 0 60 60" style="enable-background:new 0 0 60 60;" xml:space="preserve">
<rect x="21.3" y="18.6" transform="matrix(0.5241 -0.8516 0.8516 0.5241 -6.1453 29.4657)" width="4" height="3.2"/>
<rect x="25.4" y="21.1" transform="matrix(0.5241 -0.8516 0.8516 0.5241 -6.3436 34.1565)" width="4" height="3.2"/>
<path d="M27.7,36.4l-8.8-16.6l0.6,0.4l2.1-3.5l-0.8-0.5h18.9c0.2,0.6,0.6,1.1,1,1.6l-2.9,5.8c-0.2,0-0.4-0.1-0.6-0.1
	c-1.3,0-2.5,0.4-3.5,1.3l0.4-0.6l-2.7-1.7l-2.3,3.5l2.7,1.7l0.1-0.2c-0.1,0.5-0.2,0.9-0.2,1.4c0,0.3,0,0.7,0.1,1
	c2.8-2.4,6.5-3.5,10.2-3c-0.2-0.5-0.4-1-0.8-1.4l3.1-6.1h0.2c2.9-0.1,5.2-2.6,5.1-5.6c-0.1-2.8-2.3-5-5.1-5.1
	c-2.2,0-4.1,1.3-4.9,3.3H18.5c-0.8-2-2.8-3.3-4.9-3.3c-2.9-0.1-5.4,2.2-5.6,5.1c-0.1,2.9,2.2,5.4,5.1,5.6c0.2,0,0.3,0,0.5,0h0.5
	l11.3,20.9c-0.8,0.9-1.2,2.1-1.1,3.3c0,2.9,2.4,5.3,5.3,5.3c0.3,0,0.5,0,0.8-0.1C27.3,45.6,26.3,40.8,27.7,36.4L27.7,36.4z"/>
<g>
	<path d="M44.2,36.4l0-3.4c0-1.9-1.5-3.4-3.3-3.4h0c-1.9,0-3.4,1.5-3.4,3.3l0,3.4c0,0.6-0.5,1.1-1.1,1.1l-1,0c-1,0-1.8,0.8-1.8,1.8
		l0,1.3L48,40.6l0-1.3c0-1-0.8-1.8-1.8-1.8l-1,0C44.7,37.5,44.2,37,44.2,36.4z M40.6,31.9c0.7-0.2,1.3,0.5,1.2,1.2
		c-0.1,0.3-0.4,0.6-0.7,0.7c-0.7,0.2-1.3-0.5-1.2-1.2C40,32.2,40.3,31.9,40.6,31.9z"/>
	<g>
		<path d="M48,41.7l-14.4-0.1l-1.3,7.9c0,0.6,0.5,1.1,1.1,1.1c1.3,0,4.7,0,5.9,0c0.9,0,1.9,0,2.8,0v-3.7c0-0.4,0.3-0.8,0.8-0.8
			s0.8,0.3,0.8,0.8v3.7c0.4,0,0.8,0,1.3,0v-1.5c0-0.4,0.3-0.8,0.8-0.8s0.8,0.3,0.8,0.8v1.5c1.3,0,0.4,0,1.7,0c0.6,0,1.1-0.5,1.1-1.1
			L48,41.7z"/>
	</g>
</g>
</svg>
