<svg id="Layer_1" data-name="Layer 1" xmlns="http://www.w3.org/2000/svg" viewBox="0 0 60 60"><rect x="21.28" y="18.61" width="4.03" height="3.23" transform="translate(-6.14 29.47) rotate(-58.39)"/><rect x="25.37" y="21.14" width="4.03" height="3.23" transform="translate(-6.34 34.15) rotate(-58.39)"/><path d="M27.69,36.42,18.87,19.86l.65.4,2.09-3.47-.8-.48H39.69a4.91,4.91,0,0,0,1.05,1.61l-2.91,5.81c-.24,0-.4-.08-.64-.08a5.06,5.06,0,0,0-3.47,1.29l.4-.56-2.74-1.7-2.26,3.55,2.74,1.7.08-.16a7.06,7.06,0,0,0-.16,1.37,5.17,5.17,0,0,0,.11,1,13,13,0,0,1,10.18-3,4.77,4.77,0,0,0-.77-1.38l3.07-6.13h.24a5.33,5.33,0,0,0,0-10.65,5.29,5.29,0,0,0-4.92,3.31H18.55a5.3,5.3,0,0,0-4.92-3.31,5.33,5.33,0,1,0,0,10.65h.48l11.3,20.89a5.12,5.12,0,0,0-1.13,3.31,5.37,5.37,0,0,0,5.32,5.33,5,5,0,0,0,.77-.07,13.22,13.22,0,0,1-2.68-12.74Z"/><polygon points="45.59 41.32 41.43 41.32 45.59 33 35.21 33 35.21 44.43 38.32 44.43 38.32 51.73 38.32 51.73 38.32 53.84 38.32 53.84 38.32 53.84 45.59 41.32"/></svg>