<!-- Generated by IcoMoon.io -->
<svg version="1.1" xmlns="http://www.w3.org/2000/svg" width="1024" height="1024" viewBox="0 0 1024 1024">
<title></title>
<g id="icomoon-ignore">
</g>
<path d="M349.231 371.098l41.936-68.128 54.502 33.549-41.936 68.128-54.502-33.549zM204.8 342.4c3.2 0 6.4 0 9.6 0l190.4 352h89.6l-185.6-348.8 12.8 8 41.6-68.8-16-9.6h374.4c4.8 11.2 11.2 22.4 20.8 32l-57.6 115.2c-4.8 0-8-1.6-12.8-1.6-27.2 0-51.2 9.6-68.8 25.6l8-11.2-54.4-33.6-44.8 70.4 54.4 33.6 1.6-3.2c-1.6 8-3.2 17.6-3.2 27.2 0 57.6 48 105.6 105.6 105.6s105.6-48 105.6-105.6c0-24-8-48-22.4-65.6l60.8-121.6c1.6 0 3.2 0 4.8 0 57.6 0 105.6-48 105.6-105.6s-48-105.6-105.6-105.6c-44.8 0-81.6 27.2-97.6 65.6h-419.2c-16-38.4-52.8-65.6-97.6-65.6-57.6 0-105.6 48-105.6 105.6s48 105.6 105.6 105.6zM430.72 420.027l41.936-68.128 54.502 33.549-41.936 68.128-54.502-33.549zM129.6 894.4h764.8v-148.8h-764.8v148.8zM451.2 793.6h395.2v52.8h-395.2v-52.8z"></path>
</svg>
