<?xml version="1.0" encoding="UTF-8"?>
<svg id="Layer_1" data-name="Layer 1" xmlns="http://www.w3.org/2000/svg" version="1.1" viewBox="0 0 1024 1024">
  <defs>
    <style>
      .cls-1 {
        fill: #000;
        stroke-width: 0px;
      }
    </style>
  </defs>
  <path class="cls-1" d="M745.3,467.1c3.6,0,7.1.4,10.7.6h0c-.8-1.2-1.5-2.5-2.4-3.6l60.8-121.6h4.8c58.3,0,105.6-47.3,105.6-105.6s-47.3-105.6-105.6-105.6h-.2c-43.8,0-81.4,26.8-97.2,64.9l-.3.7h-419.2c-16.1-38.8-53.6-65.6-97.4-65.6h-.2c-58.3,0-105.6,47.3-105.6,105.6s47.3,105.6,105.6,105.6h9.6l224,414.4c-14,17.3-22.4,39.5-22.4,63.7s0,1.3,0,1.9c.5,58.1,47.5,105.1,105.5,105.6h0c6.3,0,12.5-.6,18.6-1.7h-.6c-43.5-48.2-70.1-112.4-70.1-182.9s3.7-51.8,10.7-76l-171.3-321.8,12.8,8,41.6-68.8-16-9.6h374.4c5.1,12.4,12.1,23,20.8,32h0s-57.6,115.2-57.6,115.2c-4.7-.3-10.2-.5-15.8-.5s-11.1.2-16.6.5h.7c-15.3,2-29.3,6.4-42,12.7l-54.4-33.6-44.8,70.4,54.4,33.6s-1.6,14.4-1.6,24,.2,3.2.3,4.8c47.9-41.8,111-67.3,180.1-67.3h.2Z"/>
  <rect class="cls-1" x="437.7" y="371" width="80" height="64" transform="translate(-115.9 598.5) rotate(-58.4)"/>
  <rect class="cls-1" x="356.6" y="320.9" width="80" height="64" transform="translate(-111.8 505.7) rotate(-58.4)"/>
  <polygon class="cls-1" points="682.1 562 682.1 709 583.1 709 755.2 881.1 925.9 709 829.1 709 829.1 562 682.1 562"/>
  <polygon class="cls-1" points="583.1 905.5 583.1 955 925.9 955 926.6 955 926.6 905.5 583.1 905.5"/>
</svg>