<!-- Generated by IcoMoon.io -->
<svg version="1.1" xmlns="http://www.w3.org/2000/svg" width="1024" height="1024" viewBox="0 0 1024 1024">
<title></title>
<g id="icomoon-ignore">
</g>
<path d="M348.4 370.181l41.936-68.128 54.502 33.549-41.936 68.128-54.502-33.549zM429.462 420.245l41.936-68.128 54.502 33.549-41.936 68.128-54.502-33.549zM774.4 508.8c-3.2-17.6-11.2-33.6-20.8-46.4l60.8-121.6c1.6 0 3.2 0 4.8 0 57.6 0 105.6-48 105.6-105.6s-48-105.6-105.6-105.6c-44.8 0-81.6 27.2-97.6 65.6h-419.2c-16-38.4-52.8-65.6-97.6-65.6-57.6 0-105.6 48-105.6 105.6s48 105.6 105.6 105.6c3.2 0 6.4 0 9.6 0l224 414.4c-14.4 17.6-22.4 40-22.4 65.6 0 57.6 48 105.6 105.6 105.6 17.6 0 33.6-4.8 48-11.2 44.8 48 107.2 78.4 179.2 78.4 134.4 0 241.6-108.8 241.6-241.6 0-126.4-94.4-230.4-216-243.2zM307.2 345.6l12.8 8 41.6-68.8-16-9.6h374.4c4.8 11.2 11.2 22.4 20.8 32l-57.6 115.2c-4.8 0-8-1.6-12.8-1.6-27.2 0-51.2 9.6-68.8 25.6l8-11.2-54.4-33.6-43.2 70.4 54.4 33.6 1.6-3.2c-1.6 8-3.2 17.6-3.2 27.2 0 17.6 4.8 35.2 12.8 51.2-36.8 36.8-60.8 83.2-68.8 136 0 0 0 0-1.6 0l-200-371.2zM748.8 942.4c-56 0-105.6-24-140.8-60.8-32-33.6-51.2-80-51.2-129.6 0-9.6 1.6-19.2 3.2-28.8 6.4-40 25.6-76.8 52.8-105.6 28.8-30.4 68.8-49.6 112-56v204.8l177.6 102.4c-36.8 43.2-92.8 73.6-153.6 73.6zM924.8 825.6l-153.6-89.6v-176c94.4 11.2 169.6 92.8 169.6 190.4 0 27.2-6.4 51.2-16 75.2z"></path>
</svg>
