<!-- Generated by IcoMoon.io -->
<svg version="1.1" xmlns="http://www.w3.org/2000/svg" width="1024" height="1024" viewBox="0 0 1024 1024">
<title></title>
<g id="icomoon-ignore">
</g>
<path d="M757.589 794.453c-28.843 0-55.125-3.925-79.019-11.776s-45.739-18.432-65.536-31.744c-19.968-13.312-38.059-29.013-54.613-46.763s-31.744-36.693-45.909-56.491c-14.165 19.968-29.525 38.741-46.421 56.491-16.725 17.749-35.157 33.451-54.955 46.763-19.968 13.312-41.813 23.893-65.536 31.744-23.893 7.851-50.176 11.776-79.019 11.776-34.645 0-67.584-6.997-98.987-20.821s-58.88-33.28-82.432-58.197c-23.552-24.917-42.325-54.613-56.149-89.259s-20.821-72.875-20.821-114.688c0-41.301 6.997-79.36 20.821-114.005s32.597-64.341 56.149-89.088c23.552-24.917 51.029-44.203 82.432-58.197 31.403-13.824 64.341-20.821 98.987-20.821 28.843 0 55.125 3.925 79.019 11.776s45.739 18.432 65.536 31.744c19.968 13.312 38.229 29.013 54.955 46.763s32.256 36.693 46.421 56.491c14.165-19.968 29.525-38.741 45.909-56.491 16.555-17.749 34.645-33.451 54.613-46.763s41.813-23.893 65.536-31.744c23.893-7.851 50.176-11.776 79.019-11.776 34.645 0 67.584 6.997 98.987 20.821s58.88 33.28 82.432 58.197c23.552 24.917 42.325 54.613 56.149 89.088 13.824 34.645 20.821 72.533 20.821 114.005 0 41.984-6.997 80.043-20.821 114.688s-32.597 64.341-56.149 89.259c-23.552 24.917-51.029 44.203-82.432 58.197-31.403 13.824-64.512 20.821-98.987 20.821zM274.261 638.123c15.701 0 30.549-3.243 44.373-9.899 13.824-6.485 26.965-15.36 39.253-26.795 12.288-11.264 24.064-24.576 35.328-40.107 11.264-15.36 22.357-31.744 33.451-49.152-10.923-17.749-22.187-34.304-33.451-49.493s-23.040-28.501-35.328-40.107c-12.288-11.435-25.429-20.48-39.253-27.136-13.824-6.485-28.672-9.899-44.373-9.899-15.189 0-29.525 2.389-43.179 7.168s-25.6 12.117-36.181 22.357c-10.411 10.24-18.773 23.381-25.088 39.253-6.315 16.043-9.387 34.987-9.387 57.003 0 22.528 3.072 41.813 9.387 57.685 6.315 16.043 14.677 29.013 25.088 39.253s22.528 17.749 36.181 22.357c13.653 5.12 27.989 7.509 43.179 7.509zM749.739 638.123c15.189 0 29.696-2.389 43.691-6.997 13.824-4.779 26.112-12.117 36.523-22.357s18.773-23.381 24.747-39.253c5.973-16.043 9.045-35.157 9.045-57.685 0-22.016-3.072-40.96-9.387-57.003s-14.677-29.013-25.088-39.253c-10.411-10.24-22.528-17.749-36.181-22.357-13.653-4.779-27.989-7.168-43.179-7.168-16.213 0-31.232 3.243-44.715 9.899-13.653 6.485-26.624 15.531-38.912 27.136s-23.893 24.917-34.987 40.107c-10.923 15.189-22.016 31.744-32.939 49.493 10.923 17.237 22.016 33.621 32.939 49.152s22.699 28.843 34.987 40.107c12.288 11.264 25.259 20.139 38.912 26.795 13.312 6.144 28.16 9.387 44.544 9.387z"></path>
</svg>
