<!-- Generated by IcoMoon.io -->
<svg version="1.1" xmlns="http://www.w3.org/2000/svg" width="1024" height="1024" viewBox="0 0 1024 1024">
<title></title>
<g id="icomoon-ignore">
</g>
<path d="M695.825 435.2h-107.025v-107.008c0-0.005 0-0.011 0-0.017 0-143.939-116.686-260.625-260.625-260.625s-260.625 116.686-260.625 260.625c0 143.939 116.686 260.625 260.625 260.625 0.006 0 0.012 0 0.018 0h107.007v107.008c0 0.005 0 0.011 0 0.017 0 143.939 116.686 260.625 260.625 260.625s260.625-116.686 260.625-260.625c0-143.939-116.686-260.625-260.625-260.625v0zM435.2 435.2h-218.078v-72.004h95.829l-119.023-119.040 50.244-50.227 119.023 119.023v-95.829h72.004zM779.793 830.14l-119.023-119.023v95.829h-71.97v-218.146h218.044v72.004h-95.846l119.023 119.142z"></path>
</svg>
