<?xml version="1.0" encoding="UTF-8"?>
<svg xmlns="http://www.w3.org/2000/svg" version="1.1" viewBox="0 0 1024 1024">
  <defs>
    <style>
      .cls-1 {
        fill-rule: evenodd;
      }
    </style>
  </defs>
  <!-- Generator: Adobe Illustrator 28.6.0, SVG Export Plug-In . SVG Version: 1.2.0 Build 709)  -->
  <g>
    <g id="Layer_1">
      <path class="cls-1" d="M112.8,112v800h800V112H112.8ZM548.2,735.9c0,77.9-52,113.3-112.2,113.3s-95.1-31.1-112.8-68.7l61.2-37v-.2c11.8,21,23.6,38.7,48.3,38.7s40.3-9.6,40.3-47.2v-255.6h75.2v256.7ZM725.9,849.2c-69.8,0-114.9-33.3-136.9-76.8l61.2-35.4h-.1c16.1,26.4,43,45.7,74.1,45.7s51-11.4,51-37.1-20.4-34.9-54.8-49.9l-18.8-8.1c-54.2-23.1-90.2-56.9-90.2-113.3s62.3-99.4,110.1-99.4,82.2,16.6,106.9,60.1l-58.5,37.6c-12.9-23.1-26.3-32.2-48.3-32.2s-36,9.6-36,32.2,14,31.7,46.2,45.7l18.8,8.1c63.9,27.4,99.9,50.4,99.9,118.1s-54.8,104.7-124.6,104.7Z"/>
    </g>
  </g>
</svg>