<!-- Generated by IcoMoon.io -->
<svg version="1.1" xmlns="http://www.w3.org/2000/svg" width="1024" height="1024" viewBox="0 0 1024 1024">
<title></title>
<g id="icomoon-ignore">
</g>
<path d="M577.6 73.6h-393.6v875.2h657.6v-612.8l-264-262.4zM536 139.2l240 240h-240v-240zM300.8 849.6c0 25.6-14.4 51.2-51.2 51.2h-25.6v-36.8h17.6c11.2 0 16-4.8 16-16h-1.6v-190.4h44.8v192zM300.8 627.2h-44.8v-35.2h44.8v35.2zM393.6 835.2c-27.2 0-52.8-3.2-75.2-25.6l28.8-28.8c14.4 14.4 33.6 16 46.4 16 14.4 0 30.4-4.8 30.4-17.6 0-8-4.8-14.4-19.2-16l-27.2-3.2c-32-3.2-51.2-17.6-51.2-49.6 0-36.8 33.6-56 68.8-56 27.2 0 49.6 4.8 67.2 20.8l-27.2 27.2c-11.2-8-25.6-11.2-41.6-11.2-17.6 0-25.6 8-25.6 17.6 0 6.4 1.6 14.4 17.6 16l27.2 3.2c35.2 3.2 52.8 22.4 56 49.6 0 38.4-33.6 57.6-75.2 57.6zM608 816c-9.6 12.8-28.8 22.4-54.4 22.4s-43.2-11.2-54.4-22.4c-14.4-16-19.2-36.8-19.2-68.8s3.2-52.8 19.2-68.8c11.2-12.8 28.8-22.4 54.4-22.4s43.2 11.2 54.4 22.4c14.4 17.6 19.2 36.8 19.2 68.8s-3.2 52.8-19.2 68.8zM800 833.6h-46.4v-107.2c0-24-14.4-32-28.8-32-12.8 0-28.8 8-28.8 32v107.2h-44.8v-176h43.2v16c12.8-11.2 28.8-17.6 44.8-17.6 19.2 0 32 6.4 43.2 14.4 14.4 14.4 17.6 30.4 17.6 49.6v113.6zM553.6 696c-9.6 0-16 3.2-20.8 8-8 9.6-9.6 25.6-9.6 43.2 0 19.2 0 33.6 9.6 43.2 4.8 4.8 11.2 8 20.8 8s16-3.2 20.8-8c8-9.6 9.6-25.6 9.6-43.2 0-19.2 0-33.6-9.6-43.2-4.8-4.8-11.2-8-20.8-8z"></path>
</svg>
