<svg width="1024" height="1024" viewBox="0 0 1024 1024" fill="none" xmlns="http://www.w3.org/2000/svg">
<path d="M672.853 560.891C637.496 560.891 605.797 576.556 584.091 601.218L528.469 561.841C534.373 545.585 537.763 528.129 537.763 509.858C537.763 491.904 534.491 474.741 528.781 458.725L584.279 419.766C605.983 444.304 637.598 459.883 672.853 459.883C738.113 459.883 791.214 406.79 791.214 341.522C791.214 276.253 738.113 223.16 672.853 223.16C607.593 223.16 554.492 276.253 554.492 341.522C554.492 353.204 556.257 364.469 559.424 375.138L503.889 414.117C480.691 385.337 447.289 365.242 409.232 359.109V292.178C462.846 280.917 503.243 233.281 503.243 176.361C503.243 111.093 450.141 58 384.882 58C319.622 58 266.521 111.093 266.521 176.361C266.521 232.519 305.871 279.567 358.413 291.631V359.432C286.707 372.019 232 434.598 232 509.858C232 585.486 287.249 648.294 359.472 660.453V732.046C306.393 743.713 266.521 791.049 266.521 847.589C266.521 912.857 319.622 965.95 384.882 965.95C450.141 965.95 503.243 912.857 503.243 847.589C503.243 791.049 463.37 743.713 410.291 732.046V660.451C446.847 654.293 479.919 635.059 503.348 606.329L559.341 645.961C556.233 656.534 554.492 667.688 554.492 679.252C554.492 744.521 607.593 797.613 672.853 797.613C738.113 797.613 791.214 744.521 791.214 679.252C791.214 613.984 738.113 560.891 672.853 560.891ZM672.853 284.134C704.499 284.134 730.238 309.885 730.238 341.522C730.238 373.159 704.499 398.907 672.853 398.907C641.207 398.907 615.468 373.159 615.468 341.522C615.468 309.885 641.207 284.134 672.853 284.134ZM327.495 176.361C327.495 144.724 353.236 118.976 384.882 118.976C416.527 118.976 442.267 144.724 442.267 176.361C442.267 207.998 416.527 233.746 384.882 233.746C353.236 233.746 327.495 207.998 327.495 176.361ZM442.267 847.589C442.267 879.226 416.527 904.974 384.882 904.974C353.236 904.974 327.495 879.226 327.495 847.589C327.495 815.952 353.236 790.204 384.882 790.204C416.527 790.204 442.267 815.952 442.267 847.589ZM384.877 589.891C340.741 589.891 304.835 553.993 304.835 509.858C304.835 465.722 340.741 429.816 384.877 429.816C429.012 429.816 464.917 465.722 464.917 509.858C464.917 553.993 429.012 589.891 384.877 589.891ZM672.853 736.639C641.207 736.639 615.468 710.889 615.468 679.252C615.468 647.615 641.207 621.867 672.853 621.867C704.499 621.867 730.238 647.615 730.238 679.252C730.238 710.889 704.499 736.639 672.853 736.639Z" fill="black"/>
</svg>
