<?xml version="1.0" encoding="UTF-8"?><svg id="a" xmlns="http://www.w3.org/2000/svg" viewBox="0 0 60 60"><path d="M51.07,40.64c-1.69,0-3.21,.75-4.24,1.93l-2.66-1.88c.28-.78,.44-1.61,.44-2.48s-.16-1.68-.43-2.44l2.65-1.86c1.04,1.17,2.55,1.92,4.23,1.92,3.12,0,5.66-2.54,5.66-5.66s-2.54-5.66-5.66-5.66-5.66,2.54-5.66,5.66c0,.56,.08,1.1,.24,1.61l-2.65,1.86c-1.11-1.38-2.71-2.34-4.52-2.63v-3.2c2.08-.44,3.72-2.03,4.28-4.06-1.55,.2-2.99,.64-4.36,1.36-1.15,.58-2.37,1.35-3.59,2.21,.39,.2,.8,.36,1.24,.46v3.24c-3.43,.6-6.04,3.59-6.04,7.19s2.64,6.62,6.09,7.2v3.42c-2.54,.56-4.44,2.82-4.44,5.52,0,3.12,2.54,5.66,5.66,5.66s5.66-2.54,5.66-5.66c0-2.7-1.91-4.96-4.44-5.52v-3.42c1.75-.29,3.33-1.21,4.45-2.59l2.68,1.89c-.15,.51-.23,1.04-.23,1.59,0,3.12,2.54,5.66,5.66,5.66s5.66-2.54,5.66-5.66-2.54-5.66-5.66-5.66Zm0-13.23c1.51,0,2.74,1.23,2.74,2.74s-1.23,2.74-2.74,2.74-2.74-1.23-2.74-2.74,1.23-2.74,2.74-2.74Zm-11.02,26.93c0,1.51-1.23,2.74-2.74,2.74s-2.74-1.23-2.74-2.74,1.23-2.74,2.74-2.74,2.74,1.23,2.74,2.74Zm-2.74-12.32c-2.11,0-3.83-1.72-3.83-3.83s1.72-3.83,3.83-3.83,3.83,1.72,3.83,3.83-1.72,3.83-3.83,3.83Zm13.76,7.01c-1.51,0-2.74-1.23-2.74-2.74s1.23-2.74,2.74-2.74,2.74,1.23,2.74,2.74-1.23,2.74-2.74,2.74Z"/><g><path d="M13.25,35.11c.94-1.78,3.85-12.2,.28-21.22-1.03-2.53-2.53-4.98-4.79-7.04-1.88-1.78-4.22-3.19-7.23-4.32C-1.02,1.6-4.03,.94-7.5,.66-3.37,2.63-.37,4.97,1.14,6.29c0,0,3.19,2.35,5.63,6.76,2.16,3.85,3.85,9.39,3.85,9.39,1.13,3.57,1.88,7.51,2.25,9.95,.28,1.69,.38,2.72,.38,2.72Z"/><path d="M29.77,27.32c2.53-1.97,4.98-3.76,7.23-4.88,7.51-3.94,14.55-.09,14.08-1.5-.84-3.1-7.79-6.76-7.79-6.76-3-3.47-6.38-4.32-8.54-4.79-3.94-.75-7.98,.09-9.95,.56C19.26,2.63,8.37,.94,4.05,.56c-1.13-.09-1.78-.09-1.78-.09,3.47,1.13,6.29,2.63,8.36,4.32,1.13,.84,2.07,1.78,2.82,2.72l1.78-.09-1.13,1.03c.28,.47,.66,.84,.84,1.31l3-.47-2.16,2.25c.19,.56,.28,1.03,.47,1.6,4.32,16.71-4.22,26.85-4.22,26.85,.75-.28,1.6-.66,2.35-1.03,3.66-1.97,7.89-5.45,12.02-8.82,1.13-1.03,2.25-1.88,3.38-2.82Zm6.85-14.08c.84,0,2.53,.66,3.85,1.78,.09,.09-.75,.28-1.69,.19-.66,0-1.6-.28-2.35-1.03-.66-.66-.47-.94,.19-.94Z"/></g></svg>