<?xml version="1.0" encoding="utf-8"?>
<!-- Generator: Adobe Illustrator 27.7.0, SVG Export Plug-In . SVG Version: 6.00 Build 0)  -->
<svg version="1.1" id="Layer_1" xmlns="http://www.w3.org/2000/svg" xmlns:xlink="http://www.w3.org/1999/xlink" x="0px" y="0px"
	 viewBox="0 0 1024 1024" style="enable-background:new 0 0 1024 1024;" xml:space="preserve">
<g id="icomoon-ignore">
</g>
<g>
	<g>
		<path d="M627.7,546.5c-23.2,0-44,10.3-58.2,26.5L533,547.1c3.9-10.7,6.1-22.1,6.1-34.1c0-11.8-2.1-23-5.9-33.5l36.4-25.6
			c14.2,16.1,35,26.3,58.1,26.3c42.8,0,77.6-34.8,77.6-77.6s-34.8-77.6-77.6-77.6s-77.6,34.8-77.6,77.6c0,7.7,1.2,15.1,3.2,22.1
			l-36.4,25.6c-15.2-18.9-37.1-32.1-62.1-36.1v-43.9c35.2-7.4,61.7-38.6,61.7-76c0-42.8-34.8-77.6-77.6-77.6s-77.6,34.8-77.6,77.6
			c0,36.8,25.8,67.7,60.3,75.6v44.5c-47,8.3-82.9,49.3-82.9,98.7c0,49.6,36.2,90.8,83.6,98.8v47c-34.8,7.7-61,38.7-61,75.8
			c0,42.8,34.8,77.6,77.6,77.6s77.6-34.8,77.6-77.6c0-37.1-26.2-68.1-61-75.8v-47c24-4,45.7-16.7,61-35.5l36.7,26
			c-2,6.9-3.2,14.3-3.2,21.8c0,42.8,34.8,77.6,77.6,77.6s77.6-34.8,77.6-77.6S670.5,546.5,627.7,546.5z M627.7,364.9
			c20.8,0,37.6,16.9,37.6,37.6c0,20.8-16.9,37.6-37.6,37.6s-37.6-16.9-37.6-37.6C590.1,381.8,606.9,364.9,627.7,364.9z M401.2,294.2
			c0-20.8,16.9-37.6,37.6-37.6s37.6,16.9,37.6,37.6c0,20.8-16.9,37.6-37.6,37.6S401.2,315,401.2,294.2z M476.5,734.5
			c0,20.8-16.9,37.6-37.6,37.6s-37.6-16.9-37.6-37.6c0-20.8,16.9-37.6,37.6-37.6S476.5,713.8,476.5,734.5z M438.8,565.5
			c-29,0-52.5-23.5-52.5-52.5c0-29,23.6-52.5,52.5-52.5c28.9,0,52.5,23.6,52.5,52.5C491.3,541.9,467.8,565.5,438.8,565.5z
			 M627.7,661.8c-20.8,0-37.6-16.9-37.6-37.6s16.9-37.6,37.6-37.6c20.8,0,37.6,16.9,37.6,37.6S648.5,661.8,627.7,661.8z"/>
	</g>
	<g>
		<path d="M512,1006.5c-272.7,0-494.5-221.8-494.5-494.5C17.5,239.3,239.3,17.5,512,17.5s494.5,221.8,494.5,494.5
			C1006.5,784.7,784.7,1006.5,512,1006.5z M512,72.7C269.7,72.7,72.7,269.7,72.7,512S269.7,951.3,512,951.3S951.3,754.3,951.3,512
			S754.3,72.7,512,72.7z"/>
	</g>
</g>
</svg>
