<!-- Generated by IcoMoon.io -->
<svg version="1.1" xmlns="http://www.w3.org/2000/svg" width="1024" height="1024" viewBox="0 0 1024 1024">
<title></title>
<g id="icomoon-ignore">
</g>
<path d="M635.75 116.053c-150.365 0.103-272.221 122.022-272.221 272.401 0 30.441 4.993 59.715 14.205 87.049l-0.562-1.921-250.283 250.283c-6.697 6.714-10.837 15.98-10.837 26.213 0 0.013 0 0.025 0 0.038v-0.002 120.747c0.010 20.478 16.608 37.076 37.085 37.086h176.248v-116.053h133.12v-81.92h74.803l47.667-54.238c15.323 3.061 32.939 4.813 50.964 4.813 150.358 0 272.247-121.889 272.247-272.247s-121.889-272.247-272.247-272.247c-0.067 0-0.134 0-0.201 0h0.011zM709.973 388.25c-41.011 0-74.257-33.246-74.257-74.257s33.246-74.257 74.257-74.257c41.011 0 74.257 33.246 74.257 74.257 0 0.006 0 0.012 0 0.018v-0.001c0 0.005 0 0.011 0 0.017 0 40.992-33.231 74.223-74.223 74.223-0.012 0-0.024 0-0.036 0h0.002z"></path>
</svg>
