<!-- Generated by IcoMoon.io -->
<svg version="1.1" xmlns="http://www.w3.org/2000/svg" width="1024" height="1024" viewBox="0 0 1024 1024">
<title></title>
<g id="icomoon-ignore">
</g>
<path d="M566.955 342.664h-105.762l105.762-211.541h-263.885v290.594h79.053v239.309l184.832-318.362zM634.88 600.149c36.367-45.241 58.369-103.374 58.369-166.647 0-0.273 0-0.547-0.001-0.82v0.042c-0.156-97.024-51.413-182.042-128.291-229.596l-1.16-0.668-41.865 83.729c11.95 8.129 22.349 17.124 31.613 27.181l0.114 0.125h63.795l-30.157 51.951c8.718 20.288 13.788 43.903 13.788 68.701 0 90.655-67.749 165.487-155.378 176.626l-0.882 0.092-53.231 91.682c9.352 1.198 20.223 1.91 31.249 1.962h0.068c52.997-0.071 102.372-15.517 143.921-42.115l-1.073 0.643 241.152 241.152 64.529-67.584zM244.736 434.346c0-0.039 0-0.084 0-0.13 0-36.299 10.922-70.047 29.658-98.138l-0.406 0.647v-128.887c-73.601 49.171-121.421 131.913-121.421 225.825 0 124.535 84.091 229.429 198.589 260.998l1.902 0.447v-97.161c-63.878-28.148-107.777-90.682-108.322-163.531v-0.070z"></path>
</svg>
