<!-- Generated by IcoMoon.io -->
<svg version="1.1" xmlns="http://www.w3.org/2000/svg" width="1024" height="1024" viewBox="0 0 1024 1024">
<title></title>
<g id="icomoon-ignore">
</g>
<path d="M209.6 209.6c83.2-83.2 184-124.8 302.4-124.8s219.2 41.6 302.4 124.8c83.2 83.2 124.8 184 124.8 302.4s-41.6 219.2-124.8 302.4c-83.2 83.2-184 124.8-302.4 124.8s-219.2-41.6-302.4-124.8c-84.8-83.2-126.4-184-126.4-302.4s41.6-217.6 126.4-302.4zM270.4 755.2c67.2 67.2 147.2 100.8 241.6 100.8s174.4-33.6 241.6-100.8c67.2-67.2 100.8-147.2 100.8-243.2 0-94.4-33.6-176-100.8-243.2s-147.2-100.8-241.6-100.8c-94.4 0-174.4 33.6-241.6 100.8s-100.8 147.2-100.8 243.2c0 94.4 33.6 176 100.8 243.2zM552 568h-220.8v-80h140.8v-244.8h80z"></path>
</svg>
