<!-- Generated by IcoMoon.io -->
<svg version="1.1" xmlns="http://www.w3.org/2000/svg" width="1024" height="1024" viewBox="0 0 1024 1024">
<title></title>
<g id="icomoon-ignore">
</g>
<path d="M758.4 548.8h-46.4v-59.2c0-110.4-89.6-201.6-200-201.6s-200 89.6-200 200v59.2h-46.4c-20.8 0-38.4 17.6-38.4 38.4v366.4c0 20.8 17.6 38.4 38.4 38.4h494.4c20.8 0 38.4-17.6 38.4-38.4v-364.8c-1.6-22.4-17.6-38.4-40-38.4zM537.6 788.8v49.6c0 14.4-11.2 25.6-25.6 25.6s-25.6-11.2-25.6-25.6v-49.6c-16-8-25.6-25.6-25.6-44.8 0-28.8 22.4-51.2 51.2-51.2s51.2 22.4 51.2 51.2c0 19.2-11.2 35.2-25.6 44.8zM425.6 548.8v-59.2c0-46.4 38.4-86.4 86.4-86.4s86.4 38.4 86.4 86.4v59.2h-172.8zM249.6 459.2c0-19.2-16-35.2-35.2-35.2h-118.4c-19.2 0-35.2 16-35.2 35.2s16 35.2 35.2 35.2h120c17.6 0 33.6-16 33.6-35.2zM276.8 297.6c6.4 4.8 14.4 8 22.4 8 9.6 0 20.8-4.8 27.2-12.8 12.8-14.4 9.6-36.8-4.8-49.6l-94.4-76.8c-14.4-12.8-36.8-9.6-49.6 4.8s-9.6 36.8 4.8 49.6l94.4 76.8zM512 224c19.2 0 35.2-16 35.2-35.2v-120c0-19.2-16-35.2-35.2-35.2s-35.2 16-35.2 35.2v120c0 19.2 16 35.2 35.2 35.2zM724.8 305.6c8 0 16-3.2 22.4-8l94.4-76.8c14.4-12.8 17.6-33.6 4.8-49.6-12.8-14.4-33.6-17.6-49.6-4.8l-94.4 76.8c-14.4 12.8-17.6 33.6-4.8 49.6 8 9.6 17.6 12.8 27.2 12.8zM928 424h-120c-19.2 0-35.2 16-35.2 35.2s16 35.2 35.2 35.2h120c19.2 0 35.2-16 35.2-35.2s-16-35.2-35.2-35.2z"></path>
</svg>
