<?xml version="1.0" encoding="utf-8"?>
<!-- Generator: Adobe Illustrator 27.9.0, SVG Export Plug-In . SVG Version: 6.00 Build 0)  -->
<svg version="1.1" id="Layer_1" xmlns="http://www.w3.org/2000/svg" xmlns:xlink="http://www.w3.org/1999/xlink" x="0px" y="0px"
	 viewBox="0 0 1024 1024" style="enable-background:new 0 0 1024 1024;" xml:space="preserve">
<g id="icomoon-ignore">
</g>
<path d="M392,362H558v85.1h2.4C583.6,405.7,640,362,724.3,362C899.4,362,932,471.2,932,612.9V902H758.9V645.8
	c0-61.1-1.2-139.7-90-139.7c-90.2,0-104,66.5-104,135.3v260.7H391.8V362H392z M92,362h180v540H92C92,902,92,362,92,362z M272,211.9
	c0,49.6-40.2,90-90,90s-90-40.2-90-90s40.2-90,90-90S272,162.3,272,211.9z"/>
</svg>
