<!-- Generated by IcoMoon.io -->
<svg version="1.1" xmlns="http://www.w3.org/2000/svg" width="1024" height="1024" viewBox="0 0 1024 1024">
<title></title>
<g id="icomoon-ignore">
</g>
<path d="M394.411 396.971h162.645v83.456h2.389c22.699-40.619 77.995-83.456 160.597-83.456 171.691 0 203.605 107.008 203.605 245.931v283.307h-169.643v-251.051c0-59.904-1.195-136.875-88.235-136.875-88.405 0-101.888 65.195-101.888 132.608v255.488h-169.643v-529.408zM100.352 396.971h176.469v529.237h-176.469v-529.237zM276.821 249.856c0 48.64-39.424 88.235-88.235 88.235s-88.235-39.424-88.235-88.235 39.424-88.235 88.235-88.235 88.235 39.595 88.235 88.235z"></path>
</svg>
