<!-- Generated by IcoMoon.io -->
<svg version="1.1" xmlns="http://www.w3.org/2000/svg" width="1024" height="1024" viewBox="0 0 1024 1024">
<title></title>
<g id="icomoon-ignore">
</g>
<path d="M864 473.6l-156.8 156.8c-86.4 86.4-225.6 86.4-312 0-12.8-12.8-24-28.8-33.6-44.8l72-72c3.2-3.2 8-4.8 11.2-8 4.8 17.6 14.4 33.6 27.2 46.4 43.2 43.2 113.6 43.2 156.8 0l156.8-156.8c43.2-43.2 43.2-113.6 0-156.8s-113.6-43.2-156.8 0l-56 56c-44.8-17.6-92.8-22.4-140.8-16l118.4-118.4c86.4-86.4 225.6-86.4 312 0 88 86.4 88 227.2 1.6 313.6zM451.2 729.6l-56 56c-43.2 43.2-113.6 43.2-156.8 0s-43.2-113.6 0-156.8l156.8-156.8c43.2-43.2 113.6-43.2 156.8 0 12.8 12.8 22.4 30.4 27.2 46.4 4.8-1.6 8-4.8 11.2-8l72-72c-9.6-16-19.2-30.4-33.6-44.8-86.4-86.4-225.6-86.4-312 0l-156.8 156.8c-86.4 86.4-86.4 227.2 0 313.6s225.6 86.4 312 0l118.4-118.4c-46.4 6.4-94.4 1.6-139.2-16z"></path>
</svg>
