<!-- Generated by IcoMoon.io -->
<svg version="1.1" xmlns="http://www.w3.org/2000/svg" width="1024" height="1024" viewBox="0 0 1024 1024">
<title></title>
<g id="icomoon-ignore">
</g>
<path d="M505.173 250.88c1.707 1.707 3.413 3.413 5.12 3.413s5.12 0 5.12-3.413c0-3.413-3.413-5.12-6.827-5.12-3.413-1.707-6.827-1.707-10.24 0 0 0-1.707 1.707-1.707 1.707 3.413 3.413 6.827 3.413 8.533 3.413v0 0zM413.013 300.373c3.413 3.413 8.533 8.533 15.36 13.653 15.36 13.653 34.133 20.48 52.907 20.48 22.187-1.707 44.373-8.533 63.147-20.48 10.24-5.12 20.48-11.947 29.013-20.48 6.827-6.827 11.947-11.947 6.827-13.653s-5.12 5.12-11.947 10.24c-8.533 6.827-17.067 13.653-27.307 18.773-17.067 11.947-37.547 18.773-58.027 20.48-18.773 0-35.84-6.827-49.493-18.773-6.827-5.12-11.947-10.24-15.36-13.653-1.707-3.413-5.12-6.827-8.533-10.24-3.413 1.707-3.413 8.533 3.413 13.653v0 0zM626.347 969.387v0c13.653 30.72 46.080 47.787 78.507 44.373 37.547-5.12 71.68-23.893 93.867-54.613l1.707 1.707c27.307-32.427 69.973-46.080 98.987-63.147 15.36-6.827 25.6-20.48 27.307-35.84 0-15.36-8.533-34.133-30.72-58.027v0c-6.827-11.947-11.947-25.6-13.653-39.253-1.707-17.067-8.533-32.427-20.48-44.373v0c-1.707-1.707-5.12-3.413-8.533-5.12-1.707-1.707-5.12-3.413-8.533-3.413 15.36-51.2 13.653-105.813-6.827-155.307-22.187-52.907-52.907-102.4-92.16-146.773-34.133-42.667-66.56-81.92-64.853-141.653 0-90.453 10.24-257.707-148.48-257.707-6.827 0-13.653 0-20.48 0-175.787 13.653-129.707 201.387-131.413 262.827-1.707 46.080-17.067 90.453-44.373 126.293-49.493 56.32-87.040 121.173-114.347 191.147-11.947 34.133-17.067 69.973-11.947 104.107-1.707 1.707-3.413 3.413-5.12 5.12-10.24 11.947-18.773 25.6-27.307 35.84-10.24 8.533-20.48 13.653-32.427 17.067-15.36 5.12-27.307 15.36-35.84 29.013v0c-5.12 6.827-6.827 15.36-6.827 23.893s1.707 15.36 1.707 23.893c3.413 13.653 3.413 27.307 1.707 40.96-10.24 29.013-11.947 47.787-5.12 63.147 8.533 13.653 22.187 22.187 39.253 23.893 34.133 6.827 80.213 5.12 116.053 23.893v0c32.427 18.773 71.68 27.307 109.227 20.48 22.187-5.12 40.96-18.773 51.2-39.253 23.893 0 51.2-10.24 95.573-13.653 29.013-1.707 66.56 10.24 107.52 8.533 3.413 3.413 5.12 6.827 6.827 11.947v0 0zM853.333 730.453v0c8.533 10.24 15.36 23.893 17.067 37.547 1.707 17.067 8.533 32.427 18.773 44.373v0c22.187 22.187 25.6 39.253 25.6 47.787-3.413 11.947-10.24 20.48-22.187 25.6-25.6 15.36-73.387 30.72-102.4 66.56-20.48 27.307-51.2 46.080-85.333 49.493-27.307 3.413-54.613-11.947-66.56-37.547v0c-8.533-17.067-6.827-42.667 1.707-71.68 8.533-25.6 13.653-52.907 17.067-80.213v0c0-25.6 3.413-51.2 10.24-75.093 3.413-17.067 13.653-32.427 29.013-40.96l1.707-1.707c1.707 25.6 13.653 52.907 37.547 58.027s59.733-15.36 75.093-32.427h8.533c11.947-1.707 23.893 1.707 34.133 10.24v0 0zM501.76 213.333c0-10.24 1.707-20.48 8.533-30.72 5.12-8.533 11.947-17.067 20.48-22.187 5.12-5.12 15.36-6.827 23.893-6.827v0c8.533 0 17.067 1.707 23.893 6.827 8.533 5.12 15.36 11.947 18.773 20.48 5.12 10.24 6.827 20.48 6.827 30.72 0 0 0 0 0 1.707 0 11.947-1.707 22.187-6.827 32.427-1.707 5.12-5.12 10.24-8.533 15.36l-3.413-1.707-11.947-5.12-10.24-5.12c3.413-3.413 5.12-5.12 8.533-8.533 1.707-5.12 3.413-11.947 3.413-17.067v0c0-5.12 0-11.947-3.413-17.067-1.707-5.12-3.413-10.24-8.533-13.653-3.413-3.413-6.827-5.12-11.947-5.12v0c-3.413 0-8.533 1.707-10.24 5.12-3.413 3.413-6.827 8.533-8.533 11.947-1.707 5.12-3.413 11.947-3.413 17.067v0c0 3.413 0 6.827 0 10.24-8.533-3.413-18.773-6.827-27.307-8.533 0-3.413 0-10.24 0-10.24v0 0zM401.067 187.733c1.707-8.533 5.12-15.36 10.24-20.48s10.24-8.533 17.067-8.533h1.707c6.827 0 11.947 1.707 17.067 6.827s10.24 11.947 13.653 18.773c3.413 8.533 6.827 15.36 6.827 25.6 0 0 0 10.24 0 13.653-1.707 0-13.653 5.12-18.773 8.533 0-3.413 0-6.827 0-10.24v0c0-5.12-1.707-10.24-3.413-13.653s-3.413-6.827-6.827-10.24c-1.707-1.707-5.12-3.413-8.533-3.413v0c-3.413 0-6.827 1.707-8.533 5.12-3.413 3.413-5.12 6.827-5.12 11.947-1.707 5.12-1.707 10.24-1.707 15.36v0c0 5.12 1.707 10.24 3.413 13.653s3.413 6.827 6.827 10.24l1.707 1.707-10.24 6.827c-5.12-5.12-8.533-10.24-10.24-17.067-3.413-8.533-5.12-18.773-5.12-27.307v0c-1.707-8.533-1.707-18.773 0-27.307zM424.96 332.8c-13.653-6.827-23.893-17.067-29.013-30.72-3.413-8.533 0-18.773 8.533-23.893l20.48-15.36c3.413-1.707 5.12-3.413 8.533-6.827v0c10.24-10.24 22.187-17.067 34.133-23.893 6.827-1.707 11.947-3.413 18.773-3.413 18.773 1.707 35.84 6.827 51.2 18.773 13.653 6.827 29.013 13.653 44.373 18.773 8.533 1.707 15.36 6.827 20.48 15.36 3.413 6.827 3.413 13.653 0 18.773-6.827 18.773-23.893 32.427-44.373 34.133v0c-10.24 8.533-20.48 15.36-32.427 18.773-11.947 8.533-27.307 11.947-42.667 11.947-11.947 0-23.893-5.12-32.427-11.947-10.24-6.827-18.773-13.653-25.6-20.48v0 0zM411.307 933.547v0c0 27.307-18.773 51.2-47.787 54.613-34.133 5.12-69.973-1.707-100.693-18.773v0c-40.96-22.187-88.747-18.773-119.467-25.6-11.947 0-23.893-6.827-30.72-17.067-5.12-8.533-5.12-25.6 5.12-51.2v0c3.413-15.36 3.413-32.427-1.707-47.787-3.413-13.653-3.413-27.307 1.707-40.96v0c6.827-11.947 17.067-18.773 29.013-22.187 13.653-3.413 27.307-10.24 39.253-18.773v0c10.24-11.947 18.773-25.6 27.307-35.84 6.827-8.533 17.067-13.653 27.307-13.653v0h6.827c18.773 5.12 34.133 15.36 44.373 30.72l39.253 69.973c13.653 23.893 30.72 47.787 49.493 68.267 17.067 18.773 27.307 42.667 30.72 68.267v0 0zM407.893 882.347c-5.12-8.533-10.24-15.36-17.067-23.893l-11.947-15.36c6.827 0 13.653-1.707 18.773-3.413 6.827-3.413 10.24-6.827 13.653-13.653 5.12-11.947 0-29.013-15.36-49.493-22.187-25.6-47.787-46.080-75.093-63.147v0c-22.187-13.653-37.547-34.133-47.787-58.027-6.827-22.187-6.827-46.080 0-68.267 11.947-40.96 29.013-80.213 52.907-116.053 5.12-3.413 1.707 6.827-17.067 40.96-17.067 32.427-47.787 105.813-5.12 162.133 1.707-40.96 10.24-81.92 27.307-119.467 23.893-52.907 73.387-145.067 76.8-220.16 3.413 3.413 8.533 6.827 11.947 10.24 8.533 5.12 17.067 11.947 23.893 17.067 10.24 6.827 23.893 11.947 35.84 10.24h5.12c15.36 0 29.013-5.12 40.96-13.653 10.24-6.827 20.48-11.947 30.72-17.067v0c17.067-5.12 32.427-15.36 44.373-29.013 18.773 64.853 42.667 128 73.387 187.733 22.187 39.253 37.547 81.92 46.080 126.293 6.827 0 13.653 0 22.187 3.413 27.307-69.973-22.187-145.067-46.080-167.253-8.533-8.533-10.24-13.653-5.12-13.653 34.133 30.72 58.027 71.68 68.267 116.053 5.12 23.893 5.12 47.787 0 69.973l8.533 3.413c42.667 20.48 59.733 39.253 51.2 64.853h-6.827c6.827-20.48-8.533-34.133-44.373-51.2s-68.267-15.36-75.093 18.773c0 1.707 0 3.413 0 5.12-3.413 1.707-6.827 1.707-8.533 3.413-18.773 10.24-30.72 29.013-34.133 49.493-6.827 25.6-10.24 52.907-8.533 78.507v0c-1.707 18.773-6.827 37.547-13.653 56.32-59.733 49.493-146.773 69.973-220.16 18.773v0 0zM462.507 254.293c1.707 0 3.413-1.707 5.12-3.413 3.413 0 5.12-1.707 6.827-3.413 0-1.707 0-1.707-1.707-1.707-3.413-1.707-6.827-1.707-10.24 0-3.413 0-5.12 3.413-6.827 5.12 3.413 3.413 5.12 3.413 6.827 3.413v0 0z"></path>
</svg>
