<!-- Generated by IcoMoon.io -->
<svg version="1.1" xmlns="http://www.w3.org/2000/svg" width="1024" height="1024" viewBox="0 0 1024 1024">
<title></title>
<g id="icomoon-ignore">
</g>
<path d="M579.2 497.333h54.88v14.832c16.002-7.3 34.732-13.456 54.227-17.53l1.773-0.31v-134.848h219.696v184.64c21.434 16.187 39.892 34.726 55.485 55.537l0.515 0.719v-296.896h-331.696v137.856h-54.88c-12.503-43.841-52.204-75.401-99.276-75.401-20.065 0-38.79 5.734-54.627 15.653l0.432-0.252-83.328-76.8v-233.872h-284.176v284.144h256.128l73.376 67.696c-7.144 13.608-11.337 29.73-11.337 46.832s4.192 33.225 11.606 47.396l-0.269-0.564-73.376 67.696h-256.128v284.144h284.176v-233.792l83.328-76.88c15.402 9.656 34.12 15.384 54.176 15.384 47.072 0 86.775-31.55 99.117-74.656l0.178-0.727zM479.76 516.709c-26.16-0.018-47.36-21.229-47.36-47.392 0-26.174 21.218-47.392 47.392-47.392s47.392 21.218 47.392 47.392c0 0.006 0 0.011 0 0.017v-0.001c-0.036 26.156-21.235 47.349-47.389 47.376h-0.003zM744.752 520.325c-0.005 0-0.010 0-0.016 0-134.793 0-244.064 109.271-244.064 244.064s109.271 244.064 244.064 244.064c134.793 0 244.064-109.271 244.064-244.064 0-0.006 0-0.011 0-0.017v0.001c-0.164-134.718-109.33-243.884-244.032-244.048h-0.016zM871.68 800.533l-95.856-95.856v238.4h-62.112v-238.4l-95.872 95.856-43.92-43.952 170.848-170.832 170.816 170.832z"></path>
</svg>
