<!-- Generated by IcoMoon.io -->
<svg version="1.1" xmlns="http://www.w3.org/2000/svg" width="1024" height="1024" viewBox="0 0 1024 1024">
<title></title>
<g id="icomoon-ignore">
</g>
<path d="M686.4 950.4l-88-91.2h-62.4v-169.6h134.4l-49.6-48-88-92.8-40-38.4-179.2 179.2h134.4v260.8zM404.8 732.8h-196.8l284.8-284.8 57.6 57.6h312v-80c1.6-22.4-8-43.2-25.6-60.8s-36.8-25.6-60.8-25.6h-44.8v-88c0-60.8-20.8-112-64-155.2s-94.4-65.6-155.2-65.6-112 22.4-155.2 65.6c-43.2 43.2-65.6 94.4-65.6 155.2v88h-43.2c-24 0-46.4 8-62.4 25.6-17.6 17.6-25.6 36.8-25.6 60.8v441.6c0 24 8 43.2 25.6 60.8s38.4 25.6 62.4 25.6h156.8v-220.8zM377.6 251.2c0-36.8 12.8-68.8 38.4-96s57.6-40 96-40 70.4 12.8 97.6 40c27.2 27.2 40 59.2 40 96v88h-272v-88zM864 809.6v-260.8h-240l89.6 92.8h62.4v168h-134.4l48 49.6 88 91.2 40 43.2 180.8-184z"></path>
</svg>
