<!-- Generated by IcoMoon.io -->
<svg version="1.1" xmlns="http://www.w3.org/2000/svg" width="1024" height="1024" viewBox="0 0 1024 1024">
<title></title>
<g id="icomoon-ignore">
</g>
<path d="M501.436 793.6c-0.003-0.519-0.005-1.132-0.005-1.747 0-161.584 130.99-292.574 292.574-292.574 17.707 0 35.046 1.573 51.886 4.587l-1.773-0.263v-136.107h-124.058v-83.217c0.025-1.168 0.039-2.544 0.039-3.924 0-56.044-23.2-106.67-60.52-142.797l-0.054-0.052c-37.228-38.283-89.227-62.036-146.773-62.036s-109.545 23.752-146.727 61.988l-0.046 0.048c-38.249 36.527-62.029 87.922-62.029 144.872 0 0.669 0.003 1.336 0.010 2.003l-0.001-0.102v83.217h-124.075v581.035h365.978c-27.873-43.974-44.42-97.52-44.425-154.93v-0.001zM385.707 284.279c-0.005-0.43-0.008-0.938-0.008-1.447 0-34.763 13.858-66.29 36.352-89.357l-0.026 0.027c21.753-23.343 52.675-37.897 86.996-37.897 1.33 0 2.655 0.022 3.974 0.065l-0.192-0.005c0.279-0.002 0.609-0.003 0.94-0.003 71.149 0 128.866 57.514 129.193 128.586v83.248h-257.229z"></path>
</svg>
