<!-- Generated by IcoMoon.io -->
<svg version="1.1" xmlns="http://www.w3.org/2000/svg" width="1024" height="1024" viewBox="0 0 1024 1024">
<title></title>
<g id="icomoon-ignore">
</g>
<path d="M720.060 367.497v-83.217c0.025-1.168 0.039-2.544 0.039-3.924 0-56.044-23.2-106.67-60.52-142.797l-0.054-0.052c-37.226-38.288-89.225-62.043-146.773-62.043s-109.547 23.756-146.727 61.996l-0.046 0.048c-38.259 36.52-62.046 87.915-62.046 144.866 0 0.67 0.003 1.34 0.010 2.009l-0.001-0.102v83.217h-124.058v581.035h664.235v-581.035zM554.667 844.083h-85.333v-83.78h85.333zM554.667 713.421h-85.333v-241.476h85.333zM642.867 367.497h-257.161v-83.217c-0.005-0.43-0.008-0.938-0.008-1.447 0-34.763 13.858-66.29 36.352-89.357l-0.026 0.027c21.753-23.343 52.675-37.897 86.996-37.897 1.33 0 2.655 0.022 3.974 0.065l-0.192-0.005c0.279-0.002 0.609-0.003 0.94-0.003 71.149 0 128.866 57.514 129.193 128.586v0.031z"></path>
</svg>
