<!-- Generated by IcoMoon.io -->
<svg version="1.1" xmlns="http://www.w3.org/2000/svg" width="2885" height="1024" viewBox="0 0 2885 1024">
<title></title>
<g id="icomoon-ignore">
</g>
<path d="M911.36 353.674h23.631v25.206h-23.631v-25.206zM915.298 397.785h22.843v24.418h-22.843v-24.418zM993.28 409.6h25.994v27.569h-25.994v-27.569zM733.342 365.489h17.329v18.905h-17.329v-18.905zM789.268 364.702h18.905v20.48h-18.905v-20.48zM984.615 381.243h24.418v-31.508h-28.357v13.391h-21.268v26.782h25.206zM707.348 322.166h14.178v15.754h-14.178v-15.754zM1027.151 453.711h23.631v25.206h-23.631v-25.206zM952.32 439.532h20.48v22.055h-20.48v-22.055zM872.763 341.071h19.692v20.48h-19.692v-20.48zM853.858 378.092h22.055v23.631h-22.055v-23.631zM1053.145 419.052h14.178v15.754h-14.178v-15.754zM808.96 402.511h13.391v14.966h-13.391v-14.966zM958.622 333.982v-14.966h-11.815v-14.178h-16.542v18.117h14.178v11.028zM830.228 337.92h13.391v14.966h-13.391v-14.966zM637.243 297.748h13.391v14.966h-13.391v-14.966zM882.215 430.080h13.391v14.966h-13.391v-14.966zM775.089 304.049h15.754v16.542h-15.754v-16.542zM861.735 295.385h13.391v14.966h-13.391v-14.966zM1011.397 326.892v8.665h18.905v28.357h22.843v14.178h-25.994v29.145h27.569v-19.692h7.089v10.24h15.754v30.72h11.815v28.357h-7.877v9.452h-6.302c16.542 51.2 22.843 109.489 22.843 109.489 13.391-25.994 77.982-277.268-179.594-297.748 35.446 17.329 61.44 37.809 74.831 48.837h18.117zM913.723 748.308h83.495l-121.305-257.575h-77.982l-84.283 166.991h-24.418v58.289l-7.877 22.055-83.495-100.825c9.452-2.363 17.329-5.514 25.206-9.452v0c0 0 0 0 0 0 2.363-1.575 5.514-2.363 7.877-3.938 0.788 0 0.788-0.788 1.575-0.788 1.575-0.788 3.938-2.363 5.514-3.151 0.788 0 1.575-0.788 1.575-1.575 1.575-0.788 3.151-2.363 4.726-3.938 0.788-0.788 0.788-0.788 1.575-1.575 2.363-1.575 3.938-3.151 5.514-4.726 12.603-12.603 18.905-26.782 18.905-44.111 0-7.877-2.363-16.542-7.089-25.994s-11.815-17.329-21.268-25.206c-9.452-7.877-21.268-14.178-34.658-18.905s-29.932-7.877-47.262-7.877v0h-190.622v98.462h-18.905v59.077h18.905v104.763h78.769v-104.763h65.378l84.283 104.763h155.175l19.692-32.295h129.182l11.815 32.295zM448.197 539.569h97.674c4.726 0 9.452 0.788 14.178 2.363s8.665 3.151 12.603 5.514c3.938 2.363 6.302 5.514 8.665 7.877 2.363 3.151 3.151 6.302 3.151 9.452s-0.788 7.089-3.151 10.24c-2.363 3.151-5.514 5.514-8.665 8.665-3.938 2.363-7.877 4.726-12.603 5.514-4.726 1.575-9.452 2.363-14.178 2.363h-97.674v-51.988zM797.932 657.723l14.178-29.145 25.206-52.775 39.385 82.708h-78.769zM1884.948 627.791v-137.058h-94.523v57.502h18.905v105.551l-26.782-25.994-142.572-137.058h-75.618v256.788h75.618v-163.052l169.354 163.052h75.618zM2530.068 704.197c7.089-13.391 9.452-36.234 4.726-52.775-2.363-7.089-4.726-14.178-8.665-18.905-0.788-1.575-2.363-2.363-3.151-3.938v0c-0.788-0.788-1.575-1.575-2.363-2.363s-0.788-1.575-1.575-1.575c-1.575-1.575-3.938-3.938-5.514-4.726-4.726-3.151-9.452-5.514-14.178-7.089 3.151-1.575 7.089-3.938 11.028-6.302s7.877-6.302 11.028-10.24c3.151-3.938 6.302-8.665 7.877-14.966 2.363-5.514 3.938-16.542 3.151-27.569-0.788-6.302-1.575-13.391-4.726-18.905-4.726-9.452-7.877-14.178-16.542-21.268s-19.692-12.603-33.083-16.542c-13.391-4.726-29.932-6.302-49.625-6.302v0h-185.108v96.886h-18.905v58.289h18.905v103.188h192.197c14.966 0 28.357-1.575 40.96-5.514s23.631-8.665 33.083-14.966c8.665-8.665 16.542-15.754 20.48-24.418zM2318.966 541.932h97.674c4.726 0 9.452 0.788 13.391 2.363 4.726 1.575 8.665 3.151 12.603 5.514s7.089 4.726 9.452 7.877c2.363 3.151 3.151 6.302 3.151 8.665 0 3.151-0.788 6.302-3.151 9.452s-5.514 5.514-9.452 7.877c-3.938 2.363-7.877 4.726-12.603 5.514-4.726 1.575-9.452 2.363-13.391 2.363h-97.674v-49.625zM2463.902 678.991c-2.363 3.151-5.514 5.514-9.452 7.877s-8.665 3.938-14.178 5.514c-5.514 1.575-11.028 2.363-17.329 2.363h-103.975v-51.2h103.975c12.603 0 22.843 2.363 31.508 7.877 8.665 4.726 12.603 11.028 12.603 18.117 0 3.151-1.575 6.302-3.151 9.452zM1536.788 748.308v-51.2h-212.677v-51.988h160.689v-58.289h-160.689v-44.111h212.677v-51.988h-234.732c-29.932 12.603-55.138 39.385-55.138 39.385v56.714h-18.905v57.502h18.905v103.975h289.871zM1167.36 627.791v0c0.788-0.788 1.575-2.363 1.575-3.151 2.363-3.938 3.938-7.877 6.302-11.028 1.575-2.363 2.363-4.726 3.938-7.089 0 0 0 0 0 0 8.665-16.542 16.542-30.72 22.055-40.172-3.938 3.938-7.877 7.877-11.028 11.028-0.788 0.788-2.363 1.575-3.151 3.151-2.363 2.363-5.514 4.726-7.877 7.089-1.575 0.788-2.363 2.363-3.938 3.151-2.363 1.575-4.726 3.938-7.089 5.514-1.575 0.788-2.363 2.363-3.938 3.151-2.363 1.575-4.726 3.151-7.089 4.726-1.575 0.788-2.363 1.575-3.938 2.363-2.363 1.575-4.726 3.151-7.089 4.726-1.575 0.788-2.363 1.575-3.151 2.363-2.363 1.575-4.726 3.151-7.089 3.938-0.788 0.788-2.363 0.788-3.151 1.575-2.363 1.575-4.726 2.363-7.089 3.938-0.788 0.788-1.575 0.788-2.363 1.575-2.363 1.575-4.726 2.363-7.089 3.151-23.631 11.815-39.385 15.754-39.385 15.754l-8.665-15.754-75.618-140.997h-78.769l136.271 261.514h52.775c0 0 34.658-65.378 64.591-120.517zM1920.394 548.234v199.286h128.394c22.055 0 43.323-3.151 62.228-10.24 19.692-6.302 36.234-15.754 50.412-27.569s25.206-25.206 33.871-40.96c7.089-12.603 11.028-26.782 11.815-40.96v0c0-3.151 0.788-6.302 0.788-8.665 0-17.329-3.938-33.871-11.028-49.625-7.877-15.754-18.117-29.145-31.508-40.96s-29.145-21.268-48.049-27.569c-18.905-7.089-39.385-10.24-61.44-10.24v0h-153.6v58.289h18.117zM2048.788 542.72c12.603 1.575 24.418 4.726 36.234 9.452s22.055 10.24 30.72 17.329c8.665 7.089 15.754 14.178 21.268 22.843s7.877 17.329 7.877 26.782c0 3.151 0 6.302-0.788 8.665v0c-0.788 7.877-3.151 15.754-7.089 22.055-5.514 9.452-12.603 18.117-21.268 24.418-8.665 7.089-18.905 12.603-30.72 16.542s-23.631 5.514-36.234 5.514h-59.077v-153.6h59.077zM1099.618 337.132l15.754-0.788-9.452 8.665c3.151 3.938 5.514 7.877 7.877 11.815l25.994-4.726-18.117 19.692c44.898 152.812-33.083 246.548-33.083 246.548 63.803-22.055 148.874-117.366 216.615-152.025 65.378-33.871 126.031-0.788 122.092-13.391-8.665-26.782-68.529-58.289-68.529-58.289-25.994-29.932-55.138-37.809-74.043-41.748-34.658-6.302-69.317 0.788-86.646 4.726-61.44-79.557-195.348-81.92-195.348-81.92 45.686 14.966 76.406 36.234 96.886 61.44zM1301.268 386.757c7.877 0 22.055 5.514 33.083 15.754 0 0-7.089 1.575-14.966 0.788-6.302 0-13.391-2.363-20.48-8.665-5.514-5.514-3.151-8.665 2.363-7.877z"></path>
</svg>
