<?xml version="1.0" encoding="utf-8"?>
<!-- Generator: Adobe Illustrator 27.6.1, SVG Export Plug-In . SVG Version: 6.00 Build 0)  -->
<svg version="1.1" id="Layer_1" xmlns="http://www.w3.org/2000/svg" xmlns:xlink="http://www.w3.org/1999/xlink" x="0px" y="0px"
	 viewBox="0 0 2885 1024" style="enable-background:new 0 0 2885 1024;" xml:space="preserve">
<g id="icomoon-ignore">
</g>
<g>
	<path d="M358.1,407.1l1.1,0.1c13.2,1.1,25.2-8,27.5-21.1l-53.9-7.7l0.9,6C335.7,396.6,345.7,406,358.1,407.1z"/>
	<path d="M575,552.8c57.7-16.6,98-70.1,98-130.3c0-74.7-60.7-135.5-135.4-135.5H290.5l0,52c50.1-16,110.1,6,136.4,38.3
		c0,0,126.3-10.9,144.3,71.2c0,0-1.6-0.7-4.3-1.7c-0.1,0-0.2-0.1-0.3-0.1c-0.6-0.2-1.3-0.5-2-0.7c-0.2-0.1-0.5-0.2-0.7-0.3
		c-0.7-0.2-1.4-0.5-2.2-0.7c-0.4-0.1-0.7-0.2-1.1-0.3c-0.7-0.2-1.5-0.5-2.3-0.7c-0.5-0.1-1-0.3-1.5-0.4c-0.8-0.2-1.6-0.5-2.4-0.7
		c-0.6-0.2-1.2-0.3-1.8-0.5c-0.9-0.2-1.7-0.5-2.6-0.7c-0.7-0.2-1.3-0.3-2-0.5c-0.9-0.2-1.8-0.4-2.8-0.7c-0.8-0.2-1.5-0.4-2.3-0.5
		c-1-0.2-1.9-0.4-2.9-0.6c-0.8-0.2-1.7-0.4-2.6-0.5c-1-0.2-2-0.4-3-0.6c-0.9-0.2-1.8-0.3-2.8-0.5c-1.1-0.2-2.1-0.4-3.2-0.5
		c-1-0.1-1.9-0.3-2.9-0.4c-1.1-0.2-2.2-0.3-3.3-0.4c-1-0.1-2.1-0.2-3.2-0.4c-1.1-0.1-2.2-0.2-3.4-0.3c-1.1-0.1-2.2-0.2-3.3-0.3
		c-1.2-0.1-2.3-0.2-3.5-0.2c-1.1-0.1-2.3-0.1-3.5-0.2c-1.2,0-2.3-0.1-3.5-0.1c-1.2,0-2.4,0-3.6,0c-1.2,0-2.4,0-3.6,0
		c-1.2,0-2.5,0.1-3.8,0.1c-1.2,0.1-2.4,0.1-3.6,0.2c-1.3,0.1-2.6,0.2-3.9,0.3c-1.2,0.1-2.4,0.2-3.6,0.4c-1.3,0.1-2.6,0.3-3.9,0.5
		c-1.2,0.2-2.4,0.3-3.6,0.5c-1.3,0.2-2.7,0.5-4,0.7c-1.2,0.2-2.4,0.5-3.6,0.7c-1.4,0.3-2.7,0.6-4.1,1c-1.2,0.3-2.4,0.6-3.6,0.9
		c-1.4,0.4-2.7,0.8-4.1,1.3c-1.2,0.4-2.4,0.7-3.6,1.1c-1.4,0.5-2.8,1-4.1,1.6c-1.2,0.4-2.3,0.9-3.5,1.4c-1.4,0.6-2.8,1.2-4.2,1.9
		c-1.1,0.5-2.3,1-3.4,1.6c-1.4,0.7-2.8,1.5-4.2,2.3c-1.1,0.6-2.2,1.2-3.3,1.8c-1.4,0.8-2.9,1.8-4.3,2.7c-1,0.7-2.1,1.3-3.1,2
		c-1.5,1-2.9,2.1-4.3,3.2c-1,0.7-1.9,1.4-2.9,2.1c-1.5,1.2-3,2.5-4.5,3.8c-0.9,0.7-1.7,1.4-2.6,2.2c-1.6,1.5-3.2,3.1-4.7,4.6
		c-0.7,0.7-1.4,1.4-2.1,2.1c-1.9,2-3.7,4.1-5.5,6.2c-0.4,0.4-0.7,0.8-1.1,1.2c-2.2,2.6-4.3,5.4-6.4,8.3c-1.8,2.6-3.4,5.2-4.9,7.9
		c-0.4,0.7-0.8,1.5-1.2,2.2c-1.1,2-2.1,4.1-3.1,6.2c-0.3,0.8-0.7,1.5-1,2.3c-1.2,2.7-2.3,5.5-3.3,8.4c0,0.1,0,0.1-0.1,0.2
		c-1.1,3.1-2.1,6.2-3.1,9.4c-0.2,0.7-0.4,1.4-0.6,2.2c-0.8,2.6-1.6,5.3-2.3,8.1c-0.2,0.6-0.4,1.3-0.5,1.9c-0.9,3.5-1.9,7-2.8,10.6
		c-1.9,7.3-3.9,15-6.3,23c-3.4,11.8-6.6,23-9.7,33.7c-1.2,4.4-2.4,8.6-3.7,12.8c-1,3.4-1.9,6.6-2.8,9.9c-0.8,2.8-1.6,5.6-2.4,8.3
		c-1.7,5.7-3.3,11.2-5,16.7c-0.5,1.8-1.1,3.5-1.7,5.2c-1.3,4-2.5,7.9-3.9,11.8c-0.7,2.1-1.4,4.2-2.2,6.2c-1.3,3.7-2.6,7.3-4,10.9
		c-0.7,2-1.5,4-2.2,6c-1.8,4.6-3.7,9.2-5.6,13.8c-0.4,0.9-0.7,1.8-1.1,2.7c-2.6,5.9-5.3,11.8-8.2,17.7h86.5l30.8-144.2h48.8
		l85.4,144.2h109.9l-102-170.8l11-5.9L575,552.8z"/>
	<path d="M939.3,468c-10.1-12.9-23.8-22.6-41.1-29c-16.9-6.9-38.7-10.3-65.2-10.3c-24.2,0-47.5,4-70.1,12.1
		c-22.5,7.7-42.3,19.3-59.2,35.1l48.3,49.6c9.7-10.9,20.5-19.3,32.6-25.4c12.5-6.4,26.2-9.7,41.1-9.7c15.7,0,29.2,4.8,40.5,14.5
		c11.7,9.3,17.5,22,17.5,38.1c-12.5,0-26.2,0.2-41.1,0.6c-14.5,0.4-29.2,1.6-44.1,3.6c-14.5,2-28.6,5.2-42.3,9.7
		c-13.7,4-26,9.9-36.8,17.5c-10.5,7.7-18.9,17.3-25.4,29c-6,11.7-9.1,26-9.1,42.9c0,14.9,2.8,28,8.5,39.3
		c5.6,11.3,13.3,20.8,23,28.4c9.7,7.7,20.7,13.3,33.2,16.9c12.9,4,26.2,6,39.9,6c18.5,0,36-3.4,52.5-10.3
		c16.9-6.9,30.4-18.1,40.5-33.8h1.2v36.9h83.3V580.4c0-24.6-2-46.1-6-64.7C957.1,496.8,949.8,480.9,939.3,468z M883.8,620.3
		c0,9.3-2,17.3-6,24.2c-3.6,6.8-8.7,12.5-15.1,16.9c-6.4,4.4-13.9,7.9-22.3,10.3c-8.1,2.4-16.5,3.6-25.4,3.6
		c-10.1,0-19.7-2.6-29-7.9c-9.3-5.2-13.9-13.3-13.9-24.2c0-10.1,3.2-17.9,9.7-23.6c6.8-5.6,14.9-9.9,24.2-12.7
		c9.7-2.8,19.5-4.4,29.6-4.8c10.5-0.8,19.1-1.2,26-1.2h22.3V620.3z"/>
	<polygon points="1146.7,635.4 1145.5,635.4 1071.2,436 973.4,436 1094.8,729.7 1190.8,729.7 1306.8,436 1215.6,436 	"/>
	<path d="M1574.3,471c-11.7-13.7-26.2-24.2-43.5-31.4c-16.9-7.3-35.8-10.9-56.8-10.9c-22.5,0-43.9,3.6-64,10.9
		c-19.7,7.3-37,17.7-51.9,31.4c-14.5,13.3-26,29.4-34.4,48.4c-8.5,18.9-12.7,40.1-12.7,63.5c0,23.4,4.2,44.5,12.7,63.5
		c8.5,18.9,19.9,35.3,34.4,49c14.9,13.3,32.2,23.6,51.9,30.8c20.1,7.3,41.5,10.9,64,10.9c23.8,0,46.7-5,68.8-15.1
		c22.2-10.1,40.5-24.4,55-42.9l-63.4-46.5c-7.7,10.5-16.7,19.1-27.2,26c-10.1,6.4-22.5,9.7-37.4,9.7c-17.7,0-32.6-5-44.7-15.1
		c-12.1-10.5-19.9-24.4-23.5-41.7h210.2v-28.4c0-23.4-3.2-44.5-9.7-63.5C1595.6,500.5,1586.4,484.3,1574.3,471z M1401.6,549.6
		c0.4-7.3,2-14.1,4.8-20.6c3.2-6.9,7.4-12.7,12.7-17.5c5.6-5.2,12.3-9.5,19.9-12.7c7.7-3.2,16.5-4.8,26.6-4.8
		c16.5,0,30,5.4,40.5,16.3c10.5,10.9,15.5,24,15.1,39.3H1401.6z"/>
	<path d="M2199.8,387.1c-27.1-13.7-58.5-20.2-93.6-20.2h-119.1v362.9h109.6c37.9,0,71.4-6.6,99.8-20.6c28.6-14.2,50.8-35.4,66-63.4
		c15.6-28.1,22.8-61.9,22.8-100.6c0-37.1-6.9-69.6-21.9-96.6C2248.4,421.6,2227.1,401,2199.8,387.1z M2176.2,629.5
		c-16.9,16.7-44,26.7-85,26.7h-24.8V440.4h33.9c23.9,0,42.8,4.2,57.7,11.6l0.2,0.1l0.2,0.1c14.6,6.9,25.4,17.5,32.9,32.2l0.1,0.1
		l0.1,0.1c7.8,14.9,12.3,35.2,12.3,61.9C2203.6,586,2193.4,612.5,2176.2,629.5z"/>
	<path d="M2582.2,567c-7.5-12.5-17.7-22.5-30.2-29.7c9.6-7.8,17.3-17.3,22.5-28.4c6.2-12.9,9.1-27.2,9.1-42.4
		c0-22.6-5.4-43-18.2-59.1c-12.2-15.9-30-26.2-51.2-32.1c-20.4-5.8-44.9-8.4-72.9-8.4h-111.8v362.9h133.2c25.1,0,47.8-3.7,67.4-11.9
		l0.1,0l0.1,0c19.9-8.5,36.1-21.2,47.5-38.4l0-0.1l0.1-0.1c11.5-17.6,16.7-38.2,16.7-60.9C2594.5,599.1,2590.9,581.5,2582.2,567z
		 M2408.8,440.4h34.3c26.6,0,42,4,49.6,8.8l0.2,0.1l0.2,0.1c5.6,3.3,9.7,8.9,9.7,21.6c0,13.6-3.8,20.9-8.8,25.4
		c-4.7,3.9-17.5,8.5-44.6,8.5h-40.7V440.4z M2501.3,645.5c-5.6,5.6-18.9,11.2-46.3,11.2h-46.1v-79.2h43c18.8,0,31.6,2.3,39.7,5.8
		l0.3,0.1l0.3,0.1c8.9,3.4,13.1,7.5,15.2,11.1l0.1,0.2l0.1,0.2c3,5,4.9,11.4,4.9,20C2512.4,629,2508.3,638.5,2501.3,645.5z"/>
	<path d="M1918.4,468.6c-7.6-12.5-18.5-22.2-32.6-29c-14.1-7.3-32.6-10.9-55.6-10.9c-10.9,0-20.9,1.4-30.2,4.2
		c-9.3,2.8-17.5,6.4-24.8,10.9c-7.3,4.4-13.5,9.5-18.7,15.1c-5.2,5.6-9.3,11.3-12.1,16.9h-1.2V436h-87v293.8h90.6V583.5
		c0-9.7,0.6-18.9,1.8-27.8c1.2-8.9,3.6-16.7,7.3-23.6c4-7.3,9.7-12.9,16.9-16.9c7.2-4.4,16.7-6.6,28.4-6.6c11.7,0,20.5,2.4,26.6,7.3
		c6.4,4.8,11.1,11.1,13.9,18.7c3.2,7.7,5,16.1,5.4,25.4c0.8,8.9,1.2,17.5,1.2,26v143.9h90.6v-162c0-19.7-1.4-38.1-4.2-55
		C1931.8,495.8,1926.4,481.1,1918.4,468.6z"/>
</g>
</svg>
