<!-- Generated by IcoMoon.io -->
<svg version="1.1" xmlns="http://www.w3.org/2000/svg" width="1024" height="1024" viewBox="0 0 1024 1024">
<title></title>
<g id="icomoon-ignore">
</g>
<path d="M304 860.8l52.8-52.8 52.8 52.8 52.8-52.8 52.8 52.8 52.8-52.8 52.8 52.8 52.8-52.8 52.8 52.8 52.8-52.8 52.8 52.8v-694.4l-52.8 52.8-59.2-52.8-52.8 52.8-52.8-52.8-52.8 52.8-49.6-52.8-52.8 52.8-52.8-52.8-52.8 52.8-49.6-52.8-52.8 52.8-52.8-52.8v694.4l52.8-52.8 52.8 52.8zM304 339.2h416v70.4h-416v-70.4zM304 480h416v68.8h-416v-68.8zM304 619.2h416v68.8h-416v-68.8z"></path>
</svg>
