<!-- Generated by IcoMoon.io -->
<svg version="1.1" xmlns="http://www.w3.org/2000/svg" width="1024" height="1024" viewBox="0 0 1024 1024">
<title></title>
<g id="icomoon-ignore">
</g>
<path d="M49.925 894.573l385.794-385.794 79.195 79.195-385.794 385.794-79.195-79.195zM476.981 468.12l145.945-145.945 79.195 79.195-145.945 145.945-79.195-79.195zM580.8 100.8h32v160h-32v-160zM820.8 51.2l40 44.8 59.2 6.4-30.4 51.2 14.4 57.6-59.2-12.8-51.2 30.4-4.8-59.2-44.8-40 54.4-22.4zM868.8 262.4l1.6 41.6 32 27.2-38.4 16-17.6 38.4-27.2-32-41.6-4.8 22.4-35.2-8-40 40 9.6zM748.8 441.6h177.6v32h-177.6v-32zM491.988 207.5l30.358-10.122 31.883 95.629-30.358 10.122-31.883-95.629zM677.277 283.262l31.75-55.565 27.782 15.875-31.75 55.565-27.782-15.875zM705.071 526.182l15.216-28.15 98.526 53.256-15.216 28.15-98.526-53.256z"></path>
</svg>
