<!-- Generated by IcoMoon.io -->
<svg version="1.1" xmlns="http://www.w3.org/2000/svg" width="1024" height="1024" viewBox="0 0 1024 1024">
<title></title>
<g id="icomoon-ignore">
</g>
<path d="M129.6 592h436.8c48-54.4 118.4-89.6 196.8-89.6 48 0 92.8 12.8 132.8 36.8v-100.8h-766.4v153.6zM206.4 476.8h75.2v75.2h-75.2v-75.2zM129.6 361.6h766.4v-153.6h-766.4v153.6zM206.4 246.4h75.2v75.2h-75.2v-75.2zM129.6 820.8h379.2c-4.8-19.2-6.4-38.4-6.4-57.6 0-33.6 6.4-65.6 19.2-96h-392v153.6zM206.4 705.6h75.2v75.2h-75.2v-75.2zM929.6 716.8c3.2-3.2 3.2-6.4 1.6-11.2l-35.2-60.8c-1.6-3.2-6.4-4.8-11.2-3.2l-41.6 17.6c-9.6-8-19.2-12.8-28.8-17.6l-6.4-46.4c0-1.6-1.6-3.2-3.2-4.8s-3.2-1.6-6.4-1.6h-68.8c-3.2 0-4.8 0-6.4 1.6-3.2 1.6-3.2 3.2-4.8 6.4l-6.4 46.4c-11.2 4.8-20.8 11.2-28.8 17.6l-43.2-19.2c-4.8-1.6-8 0-11.2 3.2l-12.8 22.4-22.4 38.4c-1.6 4.8-1.6 8 1.6 11.2l36.8 28.8c-1.6 4.8-1.6 11.2-1.6 17.6s0 11.2 1.6 17.6l-36.8 27.2c-3.2 3.2-3.2 6.4-1.6 11.2l1.6 1.6 33.6 59.2c1.6 4.8 6.4 6.4 11.2 4.8l41.6-17.6c9.6 8 19.2 12.8 28.8 16l6.4 48c1.6 4.8 4.8 6.4 9.6 6.4h68.8c4.8 0 8-1.6 9.6-6.4l6.4-48c11.2-4.8 20.8-9.6 28.8-16l41.6 17.6c4.8 1.6 9.6 0 11.2-4.8l33.6-60.8c1.6-4.8 1.6-8-1.6-11.2l-33.6-25.6-3.2-3.2c1.6-8 1.6-12.8 1.6-17.6 0-6.4 0-11.2-1.6-16l3.2-3.2 38.4-25.6zM814.4 763.2c0 14.4-4.8 27.2-16 36.8-9.6 9.6-22.4 14.4-36.8 14.4s-25.6-4.8-36.8-14.4c-9.6-9.6-16-22.4-16-36.8s4.8-27.2 16-36.8c9.6-9.6 22.4-16 36.8-16s25.6 4.8 36.8 16c11.2 9.6 16 22.4 16 36.8z"></path>
</svg>
