<!-- Generated by IcoMoon.io -->
<svg version="1.1" xmlns="http://www.w3.org/2000/svg" width="1024" height="1024" viewBox="0 0 1024 1024">
<title></title>
<g id="icomoon-ignore">
</g>
<path d="M876.8 148.8h-249.6c-9.6-24-24-43.2-44.8-59.2-22.4-14.4-43.2-22.4-70.4-22.4-25.6 0-48 8-68.8 22.4s-35.2 35.2-44.8 59.2h-249.6v808h728v-808zM484.8 160c8-8 17.6-11.2 28.8-11.2s20.8 3.2 28.8 11.2 11.2 17.6 11.2 28.8-3.2 20.8-11.2 28.8-17.6 11.2-28.8 11.2-20.8-3.2-28.8-11.2-11.2-17.6-11.2-28.8 3.2-20.8 11.2-28.8zM796.8 876.8h-568v-648h80v121.6h406.4v-121.6h80v648h1.6zM310.4 654.4h168l-59.2 60.8c25.6 24 57.6 35.2 92.8 35.2h3.2c40 0 72-14.4 100.8-41.6 16-16 27.2-36.8 35.2-59.2l1.6-4.8h65.6l-1.6 9.6c-9.6 38.4-27.2 72-56 100.8-41.6 40-91.2 60.8-148.8 60.8v0c-54.4 0-102.4-19.2-140.8-54.4l-60.8 60.8v-168zM307.2 571.2l1.6-9.6c9.6-38.4 27.2-72 56-100.8 40-41.6 89.6-62.4 147.2-62.4 54.4 0 102.4 17.6 142.4 54.4l60.8-60.8-1.6 169.6-166.4 1.6 60.8-60.8c-27.2-24-57.6-36.8-96-35.2-40 0-72 14.4-100.8 43.2-16 16-28.8 36.8-35.2 59.2l-1.6 6.4-67.2-4.8z"></path>
</svg>
