<!-- Generated by IcoMoon.io -->
<svg version="1.1" xmlns="http://www.w3.org/2000/svg" width="1024" height="1024" viewBox="0 0 1024 1024">
<title></title>
<g id="icomoon-ignore">
</g>
<path d="M64 120h224v112h-224v-112zM400 120h560v112h-560v-112zM64 344h448v112h-448v-112zM624 344h336v112h-336v-112zM64 792h448v112h-448v-112zM400 568v112h112c8-41.6 27.2-80 52.8-112h-164.8zM64 568h224v112h-224v-112zM937.6 673.6l-35.2-60.8c-1.6-3.2-6.4-4.8-11.2-3.2l-41.6 17.6c-3.2-3.2-6.4-4.8-11.2-8-6.4-4.8-12.8-8-19.2-11.2l-6.4-46.4c-1.6-4.8-4.8-6.4-9.6-6.4h-68.8c-4.8 0-8 1.6-9.6 6.4l-6.4 46.4c-6.4 3.2-12.8 6.4-19.2 11.2-3.2 1.6-6.4 4.8-11.2 6.4l-16-6.4-25.6-9.6c-4.8-1.6-8 0-11.2 3.2l-33.6 60.8c-1.6 4.8-1.6 8 1.6 11.2l38.4 28.8c-1.6 4.8-1.6 11.2-1.6 17.6 0 0 0 0 0 1.6 0 4.8 0 11.2 1.6 16l-36.8 27.2c-3.2 3.2-3.2 6.4-1.6 11.2l16 28.8 17.6 32c1.6 4.8 6.4 6.4 11.2 4.8l41.6-17.6c9.6 8 19.2 12.8 28.8 16l6.4 48c1.6 4.8 4.8 6.4 9.6 6.4h68.8c4.8 0 8-1.6 9.6-6.4l6.4-48c11.2-4.8 20.8-9.6 28.8-16l41.6 17.6c4.8 1.6 9.6 0 11.2-4.8l33.6-60.8c1.6-4.8 1.6-8-1.6-11.2l-36.8-27.2c1.6-8 1.6-12.8 1.6-17.6 0-6.4 0-11.2-1.6-16l36.8-28.8c6.4-4.8 6.4-8 4.8-12.8zM806.4 768c-9.6 9.6-22.4 14.4-36.8 14.4s-25.6-4.8-36.8-14.4c-3.2-1.6-4.8-4.8-6.4-8-6.4-8-9.6-17.6-9.6-28.8 0-14.4 4.8-27.2 16-36.8 9.6-9.6 22.4-16 36.8-16 11.2 0 20.8 3.2 28.8 9.6 3.2 1.6 4.8 3.2 6.4 6.4 9.6 9.6 16 22.4 16 36.8s-4.8 27.2-14.4 36.8z"></path>
</svg>
