<!-- Generated by IcoMoon.io -->
<svg version="1.1" xmlns="http://www.w3.org/2000/svg" width="1024" height="1024" viewBox="0 0 1024 1024">
<title></title>
<g id="icomoon-ignore">
</g>
<path d="M634.080 346.144v137.856h-54.88c-12.503-43.841-52.204-75.401-99.276-75.401-20.065 0-38.79 5.734-54.627 15.653l0.432-0.252-83.328-76.8v-233.872h-284.176v284.144h256.128l73.376 67.696c-7.144 13.608-11.337 29.73-11.337 46.832s4.192 33.225 11.606 47.396l-0.269-0.564-73.392 67.696h-256.112v284.144h284.176v-233.792l83.328-76.88c15.402 9.656 34.12 15.384 54.176 15.384 47.072 0 86.775-31.55 99.117-74.656l0.178-0.727h54.88v137.856h331.696v-331.712zM479.792 559.376c-26.174 0-47.392-21.218-47.392-47.392s21.218-47.392 47.392-47.392c26.174 0 47.392 21.218 47.392 47.392 0 0.006 0 0.011 0 0.017v-0.001c-0.036 26.156-21.235 47.349-47.389 47.376h-0.003zM909.776 621.856h-219.696v-219.712h219.696z"></path>
</svg>
