<!-- Generated by IcoMoon.io -->
<svg version="1.1" xmlns="http://www.w3.org/2000/svg" width="1024" height="1024" viewBox="0 0 1024 1024">
<title></title>
<g id="icomoon-ignore">
</g>
<path d="M224 81.6h-16l-116.8 115.2v16h132.8zM372.8 81.6h-113.6v168h-168v220.8h281.6zM651.2 449.6h132.8v-132.8h-16l-116.8 116.8zM819.2 486.4h-168v220.8h281.6v-390.4h-113.6zM224 553.6h-16l-116.8 115.2v16h132.8zM372.8 553.6h-113.6v168h-168v220.8h281.6zM577.6 428.8l-91.2-91.2c-12.8-12.8-32-12.8-44.8 0s-12.8 32 0 44.8l91.2 91.2c6.4 6.4 14.4 9.6 22.4 9.6s16-3.2 22.4-9.6c12.8-12.8 12.8-33.6 0-44.8zM577.6 550.4c-12.8-12.8-32-12.8-44.8 0l-91.2 91.2c-12.8 12.8-12.8 32 0 44.8 6.4 6.4 14.4 9.6 22.4 9.6s16-3.2 22.4-9.6l91.2-91.2c12.8-11.2 12.8-32 0-44.8z"></path>
</svg>
