<!-- Generated by IcoMoon.io -->
<svg version="1.1" xmlns="http://www.w3.org/2000/svg" width="1024" height="1024" viewBox="0 0 1024 1024">
<title></title>
<g id="icomoon-ignore">
</g>
<path d="M137.6 638.4l78.4 134.4 8 12.8 112-44.8c20.8 16 41.6 28.8 65.6 38.4l17.6 118.4c0 0 6.4 0 17.6 0h153.6c12.8 0 17.6 0 17.6 0l17.6-118.4c22.4-9.6 43.2-22.4 65.6-38.4l112 44.8 8-12.8 78.4-134.4 8-14.4-96-73.6c3.2-14.4 3.2-27.2 3.2-38.4s-1.6-24-3.2-38.4l96-73.6-97.6-161.6-112 44.8c-20.8-16-41.6-28.8-65.6-38.4l-16-118.4h-188.8l-17.6 116.8c-22.4 9.6-43.2 22.4-65.6 38.4l-112-44.8-8 14.4-78.4 134.4-6.4 14.4 96 73.6c-1.6 14.4-1.6 27.2-1.6 38.4s0 24 1.6 38.4l-96 73.6 8 14.4zM417.6 416c27.2-27.2 57.6-40 94.4-40s68.8 12.8 94.4 40c27.2 27.2 40 59.2 40 96s-12.8 68.8-40 96c-27.2 27.2-57.6 40-94.4 40s-68.8-12.8-94.4-40c-27.2-27.2-40-59.2-40-96s12.8-68.8 40-96z"></path>
</svg>
