<!-- Generated by IcoMoon.io -->
<svg version="1.1" xmlns="http://www.w3.org/2000/svg" width="1024" height="1024" viewBox="0 0 1024 1024">
<title></title>
<g id="icomoon-ignore">
</g>
<path d="M432 278.4c16-9.6 33.6-16 54.4-22.4-35.2-6.4-73.6-9.6-115.2-9.6-44.8 0-86.4 3.2-123.2 11.2-38.4 8-67.2 17.6-89.6 30.4s-33.6 25.6-33.6 41.6v41.6c0 14.4 11.2 28.8 33.6 41.6s51.2 22.4 89.6 30.4c38.4 8 78.4 11.2 123.2 11.2 1.6 0 3.2 0 4.8 0v-91.2c0-25.6 9.6-57.6 56-84.8zM248 563.2c38.4 8 78.4 11.2 123.2 11.2 1.6 0 3.2 0 4.8 0v-81.6c-1.6 0-3.2 0-4.8 0-51.2 0-97.6-4.8-142.4-14.4s-78.4-22.4-104-40v54.4c0 14.4 11.2 28.8 33.6 41.6 22.4 11.2 51.2 22.4 89.6 28.8zM124.8 739.2c0 14.4 11.2 28.8 33.6 41.6s51.2 22.4 89.6 30.4c38.4 8 78.4 11.2 123.2 11.2 8 0 14.4 0 22.4 0-14.4-17.6-17.6-35.2-17.6-49.6v-32c-1.6 0-3.2 0-4.8 0-51.2 0-97.6-4.8-142.4-14.4s-78.4-22.4-104-40v52.8zM124.8 616c0 14.4 11.2 28.8 33.6 41.6s51.2 22.4 89.6 30.4c38.4 8 78.4 11.2 123.2 11.2 1.6 0 3.2 0 4.8 0v-81.6c-1.6 0-3.2 0-4.8 0-51.2 0-97.6-4.8-142.4-14.4s-78.4-22.4-104-40v52.8zM915.2 470.4c-19.2 12.8-43.2 24-73.6 33.6-9.6 3.2-20.8 4.8-32 8-11.2 1.6-22.4 4.8-33.6 6.4s-22.4 3.2-35.2 4.8c-24 1.6-48 3.2-73.6 3.2v0c-12.8 0-25.6 0-36.8-1.6-9.6 0-19.2-1.6-28.8-1.6-25.6-1.6-51.2-6.4-75.2-11.2-22.4-4.8-41.6-9.6-59.2-17.6-4.8-1.6-8-3.2-12.8-6.4-11.2-4.8-22.4-11.2-32-17.6v54.4c0 3.2 0 8 1.6 11.2 1.6 4.8 6.4 11.2 11.2 16 3.2 3.2 8 6.4 12.8 9.6 3.2 1.6 4.8 3.2 8 4.8 1.6 1.6 4.8 1.6 6.4 3.2 16 8 33.6 14.4 56 20.8 8 1.6 16 3.2 24 4.8 1.6 0 1.6 0 3.2 0 19.2 3.2 38.4 6.4 59.2 8 4.8 0 9.6 0 12.8 1.6 16 1.6 33.6 1.6 51.2 1.6 11.2 0 22.4 0 32 0 16 0 32-1.6 46.4-3.2s30.4-3.2 44.8-6.4c24-4.8 43.2-9.6 60.8-17.6 11.2-3.2 20.8-8 28.8-12.8 3.2-1.6 4.8-3.2 8-4.8s4.8-3.2 6.4-4.8c4.8-3.2 8-6.4 9.6-9.6 3.2-3.2 4.8-6.4 6.4-11.2s1.6-6.4 1.6-11.2v-54.4zM915.2 360c0-3.2 0-8-1.6-11.2s-3.2-6.4-6.4-11.2c-3.2-3.2-6.4-6.4-9.6-9.6-1.6-1.6-4.8-3.2-6.4-4.8-3.2-1.6-4.8-3.2-8-4.8-8-4.8-17.6-9.6-28.8-12.8-17.6-6.4-38.4-12.8-60.8-17.6-14.4-3.2-28.8-4.8-44.8-6.4-14.4-1.6-30.4-3.2-46.4-3.2-11.2 0-22.4 0-32 0-22.4 0-43.2 1.6-64 3.2-9.6 1.6-17.6 1.6-25.6 3.2-11.2 1.6-22.4 3.2-33.6 4.8-9.6 1.6-19.2 3.2-27.2 6.4-25.6 6.4-46.4 14.4-62.4 24-3.2 1.6-4.8 3.2-8 4.8-4.8 3.2-9.6 6.4-12.8 9.6-4.8 4.8-8 9.6-11.2 16-1.6 3.2-1.6 6.4-1.6 11.2v41.6c0 3.2 0 8 1.6 11.2 1.6 4.8 6.4 11.2 11.2 16 3.2 3.2 8 6.4 12.8 9.6 3.2 1.6 4.8 3.2 8 4.8 1.6 1.6 4.8 1.6 6.4 3.2 16 8 33.6 14.4 56 20.8 8 1.6 16 3.2 24 4.8 1.6 0 1.6 0 3.2 0 19.2 3.2 38.4 6.4 59.2 8 4.8 0 9.6 0 12.8 1.6 16 1.6 33.6 1.6 51.2 1.6 11.2 0 22.4 0 32 0 16 0 32-1.6 46.4-3.2s30.4-3.2 44.8-6.4c24-4.8 43.2-9.6 60.8-17.6 11.2-3.2 20.8-8 28.8-12.8 3.2-1.6 4.8-3.2 8-4.8s4.8-3.2 6.4-4.8c4.8-3.2 8-6.4 9.6-9.6 3.2-3.2 4.8-6.4 6.4-11.2s1.6-6.4 1.6-11.2v-43.2zM915.2 593.6c-19.2 12.8-43.2 24-73.6 33.6-9.6 3.2-20.8 4.8-32 8s-22.4 4.8-33.6 6.4c-11.2 1.6-22.4 3.2-35.2 4.8-24 1.6-48 3.2-73.6 3.2v0c-12.8 0-25.6 0-36.8-1.6-9.6 0-19.2-1.6-28.8-1.6-25.6-1.6-51.2-6.4-75.2-11.2-22.4-4.8-41.6-9.6-59.2-17.6-4.8-1.6-8-3.2-12.8-6.4-11.2-4.8-22.4-11.2-32-17.6v54.4c0 3.2 0 8 1.6 11.2 1.6 4.8 6.4 11.2 11.2 16 3.2 3.2 8 6.4 12.8 9.6 3.2 1.6 4.8 3.2 8 4.8 1.6 1.6 4.8 1.6 6.4 3.2 16 8 33.6 14.4 56 20.8 8 1.6 16 3.2 24 4.8 1.6 0 1.6 0 3.2 0 19.2 3.2 38.4 6.4 59.2 8 4.8 0 9.6 0 12.8 1.6 16 1.6 33.6 1.6 51.2 1.6 11.2 0 22.4 0 32 0 16 0 32-1.6 46.4-3.2s30.4-3.2 44.8-6.4c24-4.8 43.2-9.6 60.8-17.6 11.2-3.2 20.8-8 28.8-12.8 3.2-1.6 4.8-3.2 8-4.8s4.8-3.2 6.4-4.8c4.8-3.2 8-6.4 9.6-9.6 3.2-3.2 4.8-6.4 6.4-11.2 1.6-3.2 1.6-6.4 1.6-11.2v-54.4zM435.2 796.8c3.2 3.2 8 6.4 12.8 9.6 3.2 1.6 4.8 3.2 8 4.8 1.6 1.6 4.8 1.6 6.4 3.2 16 8 33.6 14.4 56 20.8 8 1.6 17.6 4.8 27.2 6.4 19.2 3.2 38.4 6.4 59.2 8s41.6 3.2 64 3.2c11.2 0 22.4 0 32 0 16 0 32-1.6 46.4-3.2s30.4-3.2 44.8-6.4c24-4.8 43.2-9.6 60.8-17.6 11.2-3.2 20.8-8 28.8-12.8 3.2-1.6 4.8-3.2 8-4.8s4.8-3.2 6.4-4.8c4.8-3.2 8-6.4 9.6-9.6 3.2-3.2 4.8-6.4 6.4-11.2 1.6-3.2 1.6-6.4 1.6-11.2v-54.4c-19.2 12.8-43.2 24-73.6 33.6-9.6 3.2-20.8 4.8-32 8s-22.4 4.8-33.6 6.4c-11.2 1.6-22.4 3.2-35.2 4.8-24 1.6-48 3.2-73.6 3.2v0c-12.8 0-25.6 0-36.8-1.6-9.6 0-19.2-1.6-28.8-1.6-25.6-1.6-51.2-6.4-75.2-11.2-22.4-4.8-41.6-9.6-59.2-17.6-4.8-1.6-8-3.2-12.8-6.4-11.2-4.8-22.4-11.2-32-17.6v54.4c0 3.2 0 8 1.6 11.2 4.8 4.8 8 9.6 12.8 14.4z"></path>
</svg>
