<!-- Generated by IcoMoon.io -->
<svg version="1.1" xmlns="http://www.w3.org/2000/svg" width="1024" height="1024" viewBox="0 0 1024 1024">
<title></title>
<g id="icomoon-ignore">
</g>
<path d="M748.8 664v-65.6c0-19.2-11.2-35.2-27.2-43.2l-344-158.4v-33.6c60.8-20.8 104-76.8 104-144 0-83.2-68.8-152-152-152s-153.6 67.2-153.6 150.4c0 67.2 43.2 123.2 104 144v299.2c-60.8 20.8-104 76.8-104 144 0 83.2 68.8 152 152 152s152-68.8 152-152c0-67.2-43.2-123.2-104-144v-160l276.8 128v32c-62.4 19.2-108.8 76.8-108.8 145.6 0 83.2 68.8 152 152 152s152-68.8 152-152c0-65.6-41.6-121.6-99.2-142.4zM328 161.6c30.4 0 56 25.6 56 56s-25.6 56-56 56-56-24-56-56 25.6-56 56-56zM328 862.4c-30.4 0-56-25.6-56-56s25.6-56 56-56 56 25.6 56 56-25.6 56-56 56zM696 862.4c-30.4 0-56-25.6-56-56s25.6-56 56-56 56 25.6 56 56-25.6 56-56 56z"></path>
</svg>
