<?xml version="1.0" encoding="UTF-8"?><svg id="Layer_1" xmlns="http://www.w3.org/2000/svg" viewBox="0 0 60 60"><path d="m46.62,2.54h-22.65c-.6,0-1.08.48-1.08,1.08v16.62c0,.6.48,1.08,1.08,1.08h1.62c.6,0,1.08-.48,1.08-1.08V6.33h18.83l9.52,9.52v37.83h-28.35v-13.92c0-.6-.48-1.08-1.08-1.08h-1.62c-.6,0-1.08.48-1.08,1.08v16.63c0,.6.48,1.08,1.08,1.08h33.76c.6,0,1.08-.48,1.08-1.08V14.73c0-.29-.11-.56-.32-.77l-11.11-11.11c-.2-.2-.48-.32-.77-.32Z"/><path d="m40.29,19.63l-1.23,1.23c-.45.45-.45,1.19,0,1.64l5.46,5.46h-20.46c-.64,0-1.16.52-1.16,1.16v1.74c0,.64.52,1.16,1.16,1.16h20.46l-5.46,5.46c-.45.45-.45,1.19,0,1.64l1.23,1.23c.45.45,1.19.45,1.64,0l9.54-9.54c.45-.45.45-1.19,0-1.64l-9.54-9.54c-.45-.45-1.19-.45-1.64,0Z"/><rect x="3.07" y="22.75" width="14.49" height="14.49" rx="2.71" ry="2.71" transform="translate(-18.19 16.08) rotate(-45)"/></svg>