<!-- Generated by IcoMoon.io -->
<svg version="1.1" xmlns="http://www.w3.org/2000/svg" width="1024" height="1024" viewBox="0 0 1024 1024">
<title></title>
<g id="icomoon-ignore">
</g>
<path d="M459.2 750.4c4.8-139.2 120-249.6 260.8-249.6 43.2 0 84.8 11.2 121.6 30.4v-192l-262.4-265.6h-395.2v875.2h352c-20.8-19.2-36.8-43.2-49.6-68.8-75.2 0-150.4 0-230.4 0 51.2-70.4 91.2-124.8 136-185.6 24 20.8 43.2 36.8 67.2 56zM536 140.8l240 240h-240v-240zM326.4 556.8c-1.6-35.2 27.2-62.4 62.4-62.4s62.4 28.8 62.4 62.4c0 35.2-28.8 62.4-62.4 62.4s-62.4-28.8-62.4-62.4zM667.2 934.4h105.6v-120h120v-104h-120v-120h-105.6v120h-120v104h120v67.2z"></path>
</svg>
