<!-- Generated by IcoMoon.io -->
<svg version="1.1" xmlns="http://www.w3.org/2000/svg" width="1024" height="1024" viewBox="0 0 1024 1024">
<title></title>
<g id="icomoon-ignore">
</g>
<path d="M500.702 792.388c0-162.54 131.76-294.305 294.297-294.315h0.001c0.027 0 0.059 0 0.091 0 10.577 0 21.025 0.552 31.317 1.628l-1.286-0.109v-209.34l-204.698-204.698h-421.547v852.89h340.838c-24.53-41.892-39.014-92.246-39.014-145.983 0-0.026 0-0.052 0-0.078v0.004zM561.954 172.459h58.47v116.958h116.975v58.487h-175.445zM640.563 991.744v-142.848l58.214-58.897-58.214-58.795v-142.746h304.179v141.995l-58.214 58.897 58.214 58.897v143.548h-304.179zM874.001 920.883v-44.186l-81.681-82.381-81.681 82.381v44.186zM792.32 784.35l81.681-81.681v-44.134h-163.362v43.52zM792.32 744.431l48.759-45.807h-97.519z"></path>
</svg>
