<!-- Generated by IcoMoon.io -->
<svg version="1.1" xmlns="http://www.w3.org/2000/svg" width="1024" height="1024" viewBox="0 0 1024 1024">
<title></title>
<g id="icomoon-ignore">
</g>
<path d="M342.4 721.6c36.8 6.4 75.2 11.2 116.8 14.4 4.8-40 17.6-78.4 38.4-110.4-64-1.6-123.2-6.4-179.2-19.2-60.8-12.8-107.2-30.4-142.4-56v73.6c0 20.8 14.4 38.4 44.8 56 28.8 17.6 70.4 32 121.6 41.6zM545.6 568c46.4-41.6 107.2-67.2 174.4-67.2 28.8 0 56 4.8 81.6 12.8 0 0 1.6 0 1.6-1.6 30.4-17.6 44.8-35.2 44.8-56v-75.2c-35.2 24-81.6 43.2-142.4 56s-124.8 19.2-193.6 19.2c-68.8 0-134.4-6.4-193.6-19.2-60.8-12.8-107.2-30.4-142.4-56v75.2c0 20.8 14.4 38.4 44.8 56s70.4 30.4 123.2 41.6c51.2 9.6 108.8 14.4 169.6 14.4 9.6 0 20.8 0 32 0zM174.4 793.6c0 20.8 14.4 38.4 44.8 56s70.4 30.4 123.2 41.6c48 9.6 100.8 14.4 156.8 14.4-22.4-33.6-36.8-72-40-113.6-49.6-1.6-97.6-8-142.4-17.6-60.8-12.8-107.2-30.4-142.4-56v75.2zM803.2 174.4c-30.4-17.6-70.4-30.4-123.2-41.6-51.2-9.6-107.2-14.4-168-14.4s-116.8 4.8-169.6 14.4c-51.2 9.6-92.8 24-123.2 41.6s-44.8 35.2-44.8 56v57.6c0 20.8 14.4 38.4 44.8 56s70.4 30.4 123.2 41.6c52.8 9.6 108.8 14.4 169.6 14.4s116.8-4.8 169.6-14.4c51.2-9.6 92.8-24 123.2-41.6s44.8-35.2 44.8-56v-56c0-20.8-16-40-46.4-57.6zM667.2 934.4h105.6v-120h120v-104h-120v-120h-105.6v120h-120v104h120v78.4z"></path>
</svg>
