<?xml version="1.0" encoding="utf-8"?>
<!-- Generator: Adobe Illustrator 25.4.1, SVG Export Plug-In . SVG Version: 6.00 Build 0)  -->
<svg version="1.1" id="Layer_1" xmlns="http://www.w3.org/2000/svg" xmlns:xlink="http://www.w3.org/1999/xlink" x="0px" y="0px"
	 viewBox="0 0 1024 1024" style="enable-background:new 0 0 1024 1024;" xml:space="preserve">
<g id="icomoon-ignore">
</g>
<g>
	<path d="M558.2,931.7L512,958.4l-133.7-77.2c-10-5.7-22.7-2.3-28.4,7.6c-5.7,10-2.3,22.7,7.6,28.4l154.5,89.2l67-38.7
		c10-5.7,13.4-18.5,7.6-28.4C580.9,929.3,568.1,925.9,558.2,931.7z"/>
	<path d="M259.1,812.4l-133.7-77.2V580.8c0-11.5-9.3-20.8-20.8-20.8s-20.8,9.3-20.8,20.8v178.4l154.5,89.2c3.3,1.9,6.9,2.8,10.4,2.8
		c7.2,0,14.2-3.7,18-10.4C272.5,830.9,269.1,818.1,259.1,812.4z"/>
	<path d="M238.3,175.6L83.8,264.8v178.4c0,11.5,9.3,20.8,20.8,20.8s20.8-9.3,20.8-20.8V288.8l133.7-77.2c10-5.7,13.4-18.5,7.6-28.4
		C261,173.3,248.3,169.8,238.3,175.6z"/>
	<path d="M367.9,145.6c3.5,0,7.1-0.9,10.4-2.8L512,65.6l133.7,77.2c9.9,5.7,22.6,2.3,28.4-7.6c5.7-9.9,2.3-22.7-7.6-28.4L512,17.6
		l-154.5,89.2c-10,5.7-13.4,18.5-7.6,28.4C353.7,141.9,360.7,145.6,367.9,145.6z"/>
	<path d="M764.9,211.6l133.7,77.2v158.6c0,11.5,9.3,20.8,20.8,20.8c11.5,0,20.8-9.3,20.8-20.8V264.8l-154.5-89.2
		c-10-5.8-22.7-2.3-28.4,7.6C751.5,193.2,754.9,205.9,764.9,211.6z"/>
	<path d="M939.6,713.5H816.4V597.7c0-17.2-14-31.2-31.2-31.2c-17.2,0-31.2,14-31.2,31.2v115.9H630.8c-17.2,0-31.2,14-31.2,31.2
		c0,17.2,14,31.2,31.2,31.2H754v118.5c0,17.2,14,31.2,31.2,31.2c17.2,0,31.2-14,31.2-31.2V775.9h123.2c17.2,0,31.2-14,31.2-31.2
		C970.8,727.5,956.8,713.5,939.6,713.5z"/>
</g>
</svg>
