<!-- Generated by IcoMoon.io -->
<svg version="1.1" xmlns="http://www.w3.org/2000/svg" width="1024" height="1024" viewBox="0 0 1024 1024">
<title></title>
<g id="icomoon-ignore">
</g>
<path d="M770.372 399.36c-1.997 0-3.908-0.239-5.939-0.239-0.707-0.008-1.542-0.012-2.379-0.012-32.812 0-64.026 6.842-92.294 19.177l1.489-0.579 32.307 17.186zM820.241 404.48l-0.205 0.102 0.597 0.102zM805.427 489.097l14.814 7.885 87.040-46.302-86.665-46.080-0.597-0.102-86.835 46.182zM1023.983 512.717l-0.034 0.017-87.023-46.268-87.040 46.285 87.023 46.285v92.57l87.074-46.285v-92.553l0.017-0.017h-0.017v-0.034zM586.871 496.947l87.040-46.285-33.468-17.801c-29.304 17.252-54.291 34.386-78.038 53.026l1.511-1.143 22.938 12.203zM790.596 512.734l-87.057-46.302-87.040 46.285 87.057 46.302 87.040-46.285zM470.204 558.985l87.040-46.285-17.408-9.233q-15.821 12.527-31.744 25.463l-67.294 52.907q-20.122 16.777-40.226 32.751l69.632 37.035zM673.929 574.771l-87.057-46.285-87.040 46.302v92.553l87.057 46.302v-92.587l87.040-46.285zM790.596 636.809l-0.017 0.017-87.023-46.268-87.023 46.302v92.553l87.057 46.268 87.006-46.268v-92.553l0.034-0.017h-0.034v-0.034zM1023.983 761.003l-87.074 46.302v92.604l87.074-46.302v-92.604zM820.241 961.929l87.040-46.285v-92.587l-87.040 46.285v92.587zM790.596 977.698v-92.604l-87.040 46.285-87.023-46.285v92.604l87.057 46.268 87.006-46.268zM1023.983 636.86l-87.074 46.302v92.587l87.074-46.285v-92.604zM820.241 745.199v92.587l87.040-46.285v-92.587l-87.040 46.285zM703.556 807.236l-87.023-46.285v92.604l87.057 46.268 87.006-46.268v-92.604l-87.040 46.285zM733.201 574.788l87.040 46.285v92.57l87.040-46.285v-92.604l-0.034 0.017-87.006-46.268-87.040 46.285zM383.13 853.555l87.074 46.302v-92.604l-87.074-46.302v92.604zM499.831 823.023v92.604l87.057 46.302v-92.604h-0.017l-87.040-46.302zM383.13 636.809v92.604l87.074 46.302v-92.604l-87.074-46.302zM499.831 698.88v92.604l87.057 46.302v-92.604l-0.017-0.017-87.040-46.285zM226.099 597.811c16.009-30.447 65.69-208.213 4.796-362.103-18.837-47.277-46.616-87.403-81.524-119.99l-0.191-0.177c-34.466-31.678-75.549-56.775-120.873-72.938l-2.485-0.773c-45.202-16.634-97.546-28.049-151.973-31.928l-1.849-0.106c56.257 27.108 104.729 59.186 148.239 96.843l-0.834-0.706c38.944 31.665 71.105 69.956 95.132 113.374l1.005 1.98c23.995 45.093 46.275 98.136 63.792 153.3l1.897 6.922c14.976 46.981 28.372 104.282 37.567 162.977l0.884 6.854c4.813 28.843 6.417 46.473 6.417 46.473zM639.471 378.3c124.962-60.877 240.333 1.604 232.311-22.426-14.421-52.907-132.983-115.371-132.983-115.371-36.794-42.164-87.208-71.616-144.328-81.487l-1.473-0.211c-18.528-2.892-39.897-4.544-61.652-4.544-38.468 0-75.729 5.165-111.128 14.839l2.95-0.687c-94.532-124.979-280.388-153.822-354.099-160.222-19.217-1.604-30.43-1.604-30.43-1.604 54.618 16.78 102.073 41.929 143.564 74.357l-0.972-0.731c18.136 13.673 33.925 28.958 47.664 45.967l0.395 0.506 30.447-1.604-19.234 17.698c4.976 6.502 9.754 13.835 13.967 21.521l0.454 0.904 51.285-8.004-36.864 38.451c3.209 9.609 4.813 17.63 8.021 27.307 73.694 285.201-72.107 458.24-72.107 458.24 12.817-4.813 27.307-11.23 40.055-17.63 51.583-29.337 96.163-61.153 137.161-96.966l-0.969 0.829c86.528-68.898 173.039-147.405 249.941-185.856 3.209-1.673 4.813-1.673 8.021-3.277zM625.050 224.495c25.514 3.608 47.993 14.523 65.803 30.53l-0.114-0.1c1.604 1.604-12.817 4.813-28.843 3.209-15.733-0.551-29.815-7.191-40.046-17.621l-0.009-0.009c-11.213-11.213-8.004-16.009 3.209-16.009z"></path>
</svg>
