<svg width="1024" height="1024" viewBox="0 0 1024 1024" fill="none" xmlns="http://www.w3.org/2000/svg">
<path d="M633.084 263.865L651.619 273.87L760.274 215.967L652.045 158.489L651.619 158.276L651.406 158.489L542.964 215.967L633.084 263.865Z" fill="black"/>
<path d="M906 293.455L797.345 235.764L688.69 293.455L797.345 351.146V466.74L906 408.837V293.455Z" fill="black"/>
<path d="M505.894 235.764L397.238 293.455L505.894 351.146L614.762 293.455L505.894 235.764Z" fill="black"/>
<path d="M469.036 370.731L360.381 313.04L251.726 370.731V486.325L360.381 544.016V428.635L469.036 370.944V370.731Z" fill="black"/>
<path d="M614.549 448.22L505.894 390.529L397.451 448.22V563.814L505.894 621.505H506.107L614.549 563.814V448.22Z" fill="black"/>
<path d="M797.345 776.269L906 718.578V603.197L797.345 660.888V776.269Z" fill="black"/>
<path d="M651.619 853.758L760.274 796.067V680.473L651.619 738.163V853.758Z" fill="black"/>
<path d="M505.894 815.652L397.451 757.961V873.343L505.894 931.034V931.246H506.107V931.034L614.549 873.343V757.961L524.429 805.86L505.894 815.652Z" fill="black"/>
<path d="M797.345 621.505L906 563.814V448.22L797.345 506.123V621.505Z" fill="black"/>
<path d="M651.619 583.399V698.993L760.274 641.09V525.708L670.154 573.606L651.619 583.399Z" fill="black"/>
<path d="M505.894 660.888L397.451 602.984V718.578L505.894 776.269H506.107L614.549 718.578V602.984L524.429 650.882L505.894 660.888Z" fill="black"/>
<path d="M760.274 370.731L651.619 313.04L542.964 370.944L651.619 428.635V544.016L760.274 486.325V370.731Z" fill="black"/>
<path d="M106 718.578L214.655 776.269V660.888L106 602.984V718.578Z" fill="black"/>
<path d="M251.726 680.473V796.067L360.381 853.758V738.163L251.726 680.473Z" fill="black"/>
<path d="M106 448.22V563.601L214.655 621.505V505.91L196.12 496.118L106 448.22Z" fill="black"/>
<path d="M251.726 525.708V641.09L360.381 698.78V583.399L251.726 525.708Z" fill="black"/>
<path d="M323.31 293.455L301.579 281.96L214.655 235.764L106 293.455V408.837L214.655 466.74V351.146L323.31 293.455Z" fill="black"/>
<path d="M469.036 216.179L468.823 215.967H469.036L427.278 193.827H427.065L360.381 158.276L251.726 216.179L360.381 273.87L469.036 216.179Z" fill="black"/>
<path d="M505.894 196.381L614.762 138.691L506.533 81C506.533 81 506.107 81 505.68 81L397.238 138.691L487.358 186.589L505.894 196.381Z" fill="black"/>
</svg>
