<!-- Generated by IcoMoon.io -->
<svg version="1.1" xmlns="http://www.w3.org/2000/svg" width="1024" height="1024" viewBox="0 0 1024 1024">
<title></title>
<g id="icomoon-ignore">
</g>
<path d="M49.6 422.4c24-24 54.4-36.8 88-36.8s64 12.8 88 36.8c24 24 36.8 54.4 36.8 89.6s-12.8 65.6-36.8 89.6c-24 24-54.4 36.8-88 36.8s-64-12.8-88-36.8c-24-24-36.8-54.4-36.8-89.6s12.8-65.6 36.8-89.6zM424 422.4c24-24 54.4-36.8 88-36.8s64 12.8 88 36.8c24 24 36.8 54.4 36.8 89.6s-12.8 65.6-36.8 89.6c-24 24-54.4 36.8-88 36.8s-64-12.8-88-36.8c-24-24-36.8-54.4-36.8-89.6s12.8-65.6 36.8-89.6zM798.4 422.4c24-24 52.8-36.8 88-36.8 33.6 0 64 12.8 88 36.8s36.8 54.4 36.8 89.6c0 35.2-12.8 65.6-36.8 89.6s-54.4 36.8-88 36.8c-33.6 0-64-12.8-88-36.8s-36.8-54.4-36.8-89.6c0-35.2 12.8-65.6 36.8-89.6z"></path>
</svg>
