<svg width="1024" height="1024" viewBox="0 0 1024 1024" fill="none" xmlns="http://www.w3.org/2000/svg">
<path d="M907.309 108.972C916.872 115.807 921.437 126.72 919.601 138.119L803.032 837.559C801.655 846.203 796.197 853.496 788.47 858.061C784.365 860.33 779.366 861.707 774.342 861.707C770.696 861.707 767.049 860.789 763.402 859.438L557.118 775.186L446.924 909.52C441.467 916.354 433.255 920 424.61 920C421.423 920 417.776 919.541 414.588 918.19C403.214 914.084 395.462 903.17 395.462 890.879V731.963L788.929 249.732L302.125 670.941L122.235 597.17C111.754 593.065 104.919 583.502 104.027 572.129C103.568 561.189 109.025 550.735 118.588 545.252L876.35 108.105C880.914 105.377 885.913 104 890.911 104C896.828 104 902.744 105.81 907.309 108.998V108.972Z" fill="black"/>
</svg>
