<!-- Generated by IcoMoon.io -->
<svg version="1.1" xmlns="http://www.w3.org/2000/svg" width="1024" height="1024" viewBox="0 0 1024 1024">
<title></title>
<g id="icomoon-ignore">
</g>
<path d="M625.6 148.8c-9.6-24-24-43.2-44.8-59.2-20.8-14.4-43.2-22.4-68.8-22.4s-48 8-68.8 22.4-35.2 35.2-44.8 59.2h-251.2v808h728v-808h-249.6zM483.2 160c8-8 17.6-11.2 28.8-11.2s20.8 3.2 28.8 11.2c8 8 11.2 17.6 11.2 28.8s-3.2 20.8-11.2 28.8c-8 8-17.6 11.2-28.8 11.2s-20.8-3.2-28.8-11.2c-8-8-11.2-17.6-11.2-28.8s3.2-20.8 11.2-28.8zM228.8 876.8v-648h80v121.6h406.4v-121.6h80v648h-566.4z"></path>
</svg>
