<!-- Generated by IcoMoon.io -->
<svg version="1.1" xmlns="http://www.w3.org/2000/svg" width="1024" height="1024" viewBox="0 0 1024 1024">
<title></title>
<g id="icomoon-ignore">
</g>
<path d="M937.6 145.6l-60.8-60.8c-30.4-30.4-68.8-44.8-108.8-44.8s-78.4 14.4-108.8 44.8l-576 576c-59.2 59.2-59.2 156.8 0 216l60.8 60.8c30.4 30.4 68.8 44.8 108.8 44.8s78.4-14.4 108.8-44.8l576-576c60.8-59.2 60.8-155.2 0-216zM406.4 470.4c22.4 0 41.6 19.2 41.6 41.6s-19.2 41.6-41.6 41.6-41.6-19.2-41.6-41.6 19.2-41.6 41.6-41.6zM318.4 892.8c-17.6 17.6-40 25.6-62.4 25.6s-48-8-64-25.6l-60.8-60.8c-35.2-35.2-35.2-91.2 0-126.4l136-136 187.2 187.2-136 136zM512 364.8c22.4 0 41.6 19.2 41.6 41.6s-19.2 41.6-41.6 41.6c-22.4 0-41.6-19.2-41.6-41.6s19.2-41.6 41.6-41.6zM512 659.2c-22.4 0-41.6-19.2-41.6-41.6s19.2-41.6 41.6-41.6 41.6 19.2 41.6 41.6-19.2 41.6-41.6 41.6zM617.6 553.6c-22.4 0-41.6-19.2-41.6-41.6s19.2-41.6 41.6-41.6 41.6 19.2 41.6 41.6-19.2 41.6-41.6 41.6zM892.8 318.4l-136 136-187.2-187.2 136-136c17.6-17.6 40-25.6 62.4-25.6 24 0 46.4 9.6 62.4 25.6l60.8 60.8c36.8 33.6 36.8 91.2 1.6 126.4z"></path>
</svg>
