<!-- Generated by IcoMoon.io -->
<svg version="1.1" xmlns="http://www.w3.org/2000/svg" width="1024" height="1024" viewBox="0 0 1024 1024">
<title></title>
<g id="icomoon-ignore">
</g>
<path d="M803.2 222.4c-81.6-80-177.6-120-291.2-120s-211.2 40-291.2 120-120 176-120 289.6 40 209.6 120 289.6 177.6 120 291.2 120 211.2-40 291.2-120 120-176 120-289.6-40-209.6-120-289.6zM744 745.6c-64 64-140.8 96-232 96s-168-32-232-96c-64-65.6-96-142.4-96-233.6s32-169.6 96-233.6 140.8-96 232-96 168 32 232 96c64 65.6 96 142.4 96 233.6s-32 169.6-96 233.6zM339.2 308.8h115.2v404.8h-115.2v-404.8zM569.6 308.8h115.2v404.8h-115.2v-404.8z"></path>
</svg>
