<!-- Generated by IcoMoon.io -->
<svg version="1.1" xmlns="http://www.w3.org/2000/svg" width="1024" height="1024" viewBox="0 0 1024 1024">
<title></title>
<g id="icomoon-ignore">
</g>
<path d="M281.6 528c-108.8 0-209.6-60.8-209.6-192v-131.2c0-131.2 99.2-192 209.6-192 108.8 0 209.6 60.8 209.6 192v131.2c-1.6 129.6-100.8 192-209.6 192zM329.6 208c0-40-20.8-54.4-48-54.4s-48 14.4-48 54.4v120c0 40 20.8 54.4 48 54.4s48-14.4 48-54.4v-120zM364.8 1004.8h-174.4l468.8-985.6h174.4l-468.8 985.6zM742.4 1012.8c-108.8 0-209.6-60.8-209.6-192v-131.2c0-131.2 99.2-192 209.6-192 108.8 0 209.6 60.8 209.6 192v131.2c0 131.2-99.2 192-209.6 192zM792 694.4c0-40-20.8-54.4-48-54.4s-48 14.4-48 54.4v121.6c0 40 20.8 54.4 48 54.4s48-14.4 48-54.4v-121.6z"></path>
</svg>
