<!-- Generated by IcoMoon.io -->
<svg version="1.1" xmlns="http://www.w3.org/2000/svg" width="1024" height="1024" viewBox="0 0 1024 1024">
<title></title>
<g id="icomoon-ignore">
</g>
<path d="M854.4 182.4c0-20.8-14.4-38.4-44.8-56s-72-30.4-123.2-41.6c-54.4-9.6-110.4-14.4-171.2-14.4s-118.4 4.8-169.6 14.4c-52.8 9.6-92.8 24-123.2 41.6s-44.8 35.2-44.8 56v57.6c0 20.8 14.4 38.4 44.8 56 25.6 14.4 59.2 27.2 100.8 36.8 8-32 25.6-60.8 51.2-86.4 38.4-38.4 84.8-57.6 139.2-57.6s100.8 19.2 139.2 57.6c25.6 25.6 43.2 54.4 51.2 88 43.2-9.6 78.4-22.4 105.6-36.8 30.4-17.6 44.8-35.2 44.8-56v-59.2zM854.4 502.4c-35.2 24-83.2 43.2-144 56-17.6 3.2-35.2 6.4-52.8 9.6v67.2h43.2c19.2 0 38.4 9.6 49.6 24 22.4-6.4 41.6-14.4 57.6-24 30.4-17.6 44.8-36.8 44.8-56v-76.8zM854.4 745.6v-75.2c-24 17.6-54.4 30.4-89.6 41.6-3.2 11.2-8 20.8-16 30.4l-105.6 107.2c14.4-1.6 28.8-4.8 43.2-6.4 52.8-9.6 92.8-24 123.2-41.6 28.8-17.6 44.8-36.8 44.8-56zM344 505.6c4.8 1.6 9.6 1.6 12.8 1.6-28.8-33.6-43.2-73.6-43.2-120-59.2-12.8-105.6-30.4-139.2-54.4v75.2c0 20.8 14.4 38.4 44.8 56 32 17.6 73.6 30.4 124.8 41.6zM174.4 745.6c0 20.8 14.4 38.4 44.8 56s72 30.4 123.2 41.6c12.8 3.2 25.6 4.8 40 6.4l-105.6-105.6c-9.6-9.6-14.4-19.2-17.6-32-33.6-11.2-62.4-24-84.8-40v73.6zM854.4 332.8c-35.2 24-83.2 43.2-144 56 0 0-1.6 0-1.6 0-1.6 44.8-16 84.8-43.2 118.4 6.4-1.6 12.8-1.6 19.2-3.2 52.8-9.6 92.8-24 123.2-41.6s44.8-35.2 44.8-56v-73.6zM174.4 576c0 20.8 14.4 38.4 44.8 56 14.4 8 33.6 16 52.8 22.4 11.2-14.4 30.4-22.4 48-22.4h48v-67.2c-16-3.2-32-4.8-48-8-60.8-12.8-108.8-30.4-144-56v75.2zM321.6 913.6h380.8v54.4h-380.8v-54.4zM358.4 732.8l153.6 153.6 30.4-30.4 121.6-123.2 36.8-36.8h-107.2v-132.8c-11.2 4.8-22.4 9.6-33.6 11.2-16 3.2-32 6.4-48 6.4-17.6 0-33.6-1.6-49.6-6.4-11.2-3.2-20.8-6.4-32-11.2v131.2h-108.8l36.8 38.4zM531.2 408v-153.6h-38.4v118.4h-67.2v38.4h105.6z"></path>
</svg>
