<!-- Generated by IcoMoon.io -->
<svg version="1.1" xmlns="http://www.w3.org/2000/svg" width="1024" height="1024" viewBox="0 0 1024 1024">
<title></title>
<g id="icomoon-ignore">
</g>
<path d="M766.4 545.6c9.6-8 14.4-19.2 14.4-32s-4.8-22.4-14.4-32c-9.6-8-19.2-12.8-32-12.8-11.2 0-22.4 4.8-32 12.8s-14.4 19.2-14.4 32 4.8 22.4 14.4 32c9.6 8 19.2 12.8 32 12.8s24-3.2 32-12.8zM512 112h-44.8v177.6h88v-86.4c76.8 11.2 140.8 46.4 192 105.6s76.8 128 76.8 204.8c0 86.4-30.4 160-91.2 220.8s-134.4 91.2-220.8 91.2c-86.4 0-160-30.4-220.8-91.2s-91.2-134.4-91.2-220.8c0-73.6 22.4-139.2 68.8-196.8l243.2 241.6 62.4-62.4-304-304v1.6c-49.6 36.8-89.6 83.2-118.4 139.2s-43.2 116.8-43.2 180.8c0 112 38.4 206.4 116.8 284.8s172.8 116.8 284.8 116.8c112 0 206.4-38.4 284.8-116.8s116.8-172.8 116.8-284.8c0-112-38.4-206.4-116.8-284.8-76.8-76.8-171.2-116.8-283.2-116.8zM257.6 483.2c-9.6 8-14.4 19.2-14.4 32s4.8 22.4 14.4 32c9.6 8 19.2 12.8 32 12.8 11.2 0 22.4-4.8 32-12.8s14.4-19.2 14.4-32-4.8-22.4-14.4-32c-9.6-8-19.2-12.8-32-12.8s-24 4.8-32 12.8zM480 707.2c-8 9.6-12.8 19.2-12.8 32 0 11.2 4.8 22.4 12.8 32s19.2 14.4 32 14.4 22.4-4.8 32-14.4c8-9.6 12.8-19.2 12.8-32 0-11.2-4.8-22.4-12.8-32s-19.2-14.4-32-14.4-22.4 4.8-32 14.4z"></path>
</svg>
