<!-- Generated by IcoMoon.io -->
<svg version="1.1" xmlns="http://www.w3.org/2000/svg" width="1024" height="1024" viewBox="0 0 1024 1024">
<title></title>
<g id="icomoon-ignore">
</g>
<path d="M496 921.6c12.8 0 25.6 0 36.8-1.6v-54.4c0-9.6 3.2-19.2 6.4-28.8-14.4 1.6-28.8 3.2-43.2 3.2-91.2 0-168-32-232-96s-96-142.4-96-233.6c0-91.2 32-168 96-233.6 64-64 140.8-96 232-96s168 32 232 96c41.6 41.6 70.4 89.6 84.8 142.4h56c11.2 0 20.8 3.2 30.4 8-14.4-78.4-52.8-147.2-112-208-80-80-177.6-120-291.2-120s-211.2 40-291.2 120c-80 80-120 176-120 289.6s40 209.6 120 289.6c80 83.2 177.6 123.2 291.2 123.2zM651.2 801.6h8l-3.2-3.2c0 1.6-1.6 3.2-4.8 3.2zM456 488h-140.8v80h220.8v-324.8h-80zM868.8 649.6v-163.2h-161.6v163.2h-108.8l190.4 190.4 188.8-190.4h-92.8zM596.8 865.6v0 56h380.8v-56h-273.6z"></path>
</svg>
