<!-- Generated by IcoMoon.io -->
<svg version="1.1" xmlns="http://www.w3.org/2000/svg" width="1024" height="1024" viewBox="0 0 1024 1024">
<title></title>
<g id="icomoon-ignore">
</g>
<path d="M612.48 136.021l-139.2 139.2 41.92 41.872-105.808 105.84c-15.017-2.938-32.284-4.619-49.944-4.619-74.901 0-142.74 30.24-191.973 79.176l0.013-0.013-19.792 19.76 170.352 170.352c-6.064 6.128-12.192 12.176-18.224 18.32l-137.792 137.824c-3.323 13.348-6.057 29.478-7.636 45.945l-0.108 1.399c17.879-1.697 34.008-4.43 49.721-8.229l-2.377 0.485 137.792-137.792c6.144-6.032 12.192-12.16 18.32-18.224l170.368 170.336 19.792-19.792c48.91-49.184 79.143-116.985 79.143-191.847 0-17.706-1.691-35.017-4.921-51.781l0.274 1.708 105.856-105.808 41.888 41.904 139.2-139.2zM680.256 402.933l-39.6 39.6 48 48-127.888 127.872 3.904 15.424c4.083 15.701 6.427 33.725 6.427 52.297 0 49.501-16.652 95.114-44.659 131.541l0.376-0.51-298.624-298.608c35.92-27.637 81.536-44.292 131.043-44.292 18.562 0 36.577 2.341 53.766 6.745l-1.497-0.325 15.424 3.888 167.472-167.472-41.92-41.904 60-59.984 217.6 217.6-59.984 59.984z"></path>
</svg>
