<!-- Generated by IcoMoon.io -->
<svg version="1.1" xmlns="http://www.w3.org/2000/svg" width="1024" height="1024" viewBox="0 0 1024 1024">
<title></title>
<g id="icomoon-ignore">
</g>
<path d="M261.632 847.838l-83.9-86.221c-1.495-1.532-2.418-3.627-2.423-5.938v-105.558c0-4.713-3.821-8.533-8.533-8.533v0h-25.6c-4.713 0-8.533 3.821-8.533 8.533v0 123.238c0.005 2.354 0.963 4.484 2.509 6.024v0l109.909 109.824c1.541 1.546 3.67 2.503 6.023 2.509h28.434c4.713 0 8.533-3.821 8.533-8.533v0-25.6c0-4.713-3.821-8.533-8.533-8.533v0h-14.797c-0.028 0.001-0.062 0.001-0.096 0.001-1.164 0-2.22-0.463-2.995-1.214l0.001 0.001zM476.331 849.067h71.458c4.713 0 8.533 3.821 8.533 8.533v25.6c0 4.713-3.821 8.533-8.533 8.533h-71.458c-4.713 0-8.533-3.821-8.533-8.533v-25.6c0-4.713 3.821-8.533 8.533-8.533zM883.2 641.587h-25.6c-4.713 0-8.533 3.821-8.533 8.533v0 105.506c0 0.005 0 0.010 0 0.015 0 2.353-0.952 4.483-2.492 6.027v0l-84.907 84.838c-1.545 1.549-3.681 2.508-6.042 2.509h-105.387c-4.713 0-8.533 3.821-8.533 8.533v0 25.6c0 4.713 3.821 8.533 8.533 8.533v0h123.051c2.36-0.001 4.497-0.959 6.041-2.509v0l109.909-109.892c1.54-1.543 2.492-3.674 2.492-6.026 0-0.005 0-0.011 0-0.016v0.001-123.119c0-4.713-3.821-8.533-8.533-8.533v0zM650.24 174.933h105.438c0.005 0 0.010 0 0.015 0 2.353 0 4.483 0.952 6.027 2.492v0l84.787 84.907c1.539 1.543 2.491 3.673 2.492 6.024v0 105.506c0 4.713 3.821 8.533 8.533 8.533v0h25.6c4.713 0 8.533-3.821 8.533-8.533v0-123.17c-0.001-2.352-0.952-4.481-2.492-6.025v0l-109.841-109.841c-1.543-1.54-3.674-2.492-6.026-2.492-0.005 0-0.011 0-0.016 0h-123.050c-4.713 0-8.533 3.821-8.533 8.533v0 25.6c0.039 4.683 3.844 8.465 8.533 8.465 0 0 0 0 0 0v0zM236.425 203.401l25.975-25.907c1.543-1.54 3.674-2.492 6.026-2.492 0.005 0 0.011 0 0.016 0h105.488c4.713 0 8.533-3.821 8.533-8.533v0-25.668c0-4.713-3.821-8.533-8.533-8.533v0h-123.187c-2.352 0.001-4.481 0.952-6.025 2.492v0l-63.812 63.863c-0.774 0.772-1.254 1.841-1.254 3.021 0 2.356 1.91 4.267 4.267 4.267 0.003 0 0.005 0 0.008 0v0h46.473c2.354-0.005 4.484-0.963 6.024-2.509v0zM476.331 132.267h71.458c4.713 0 8.533 3.821 8.533 8.533v25.6c0 4.713-3.821 8.533-8.533 8.533h-71.458c-4.713 0-8.533-3.821-8.533-8.533v-25.6c0-4.713 3.821-8.533 8.533-8.533zM141.022 467.729h25.6c4.713 0 8.533 3.821 8.533 8.533v71.458c0 4.713-3.821 8.533-8.533 8.533h-25.6c-4.713 0-8.533-3.821-8.533-8.533v-71.458c0-4.713 3.821-8.533 8.533-8.533zM175.070 364.049c23.761 24.298 44.441 51.764 61.311 81.666l1.017 1.96c23.012 43.283 44.373 94.197 61.159 147.148l1.817 6.64c14.374 45.086 27.236 100.077 36.066 156.406l0.85 6.581c1.417 8.533 2.526 15.957 3.413 22.187 20.518-48.183 33.38-104.095 35.525-162.743l0.024-0.841c0.035-2.065 0.055-4.502 0.055-6.944 0-55.535-10.326-108.659-29.162-157.556l1.015 2.998c-18.109-45.368-44.795-83.869-78.321-115.131l-0.186-0.172c-26.825-24.926-58.157-45.468-92.563-60.211l-2.106-0.802c-7.663-3.413-15.479-6.622-23.723-9.728-6.042-2.219-12.595-4.147-18.944-6.178-37.647-12.248-81.431-20.972-126.687-24.439l-1.944-0.12c49.045 23.685 91.308 50.847 129.838 82.397l-1.138-0.904c4.727 3.874 9.097 7.543 12.766 10.752 10.957 8.594 20.722 17.445 29.825 26.936l0.093 0.098zM963.106 576.853c-7.1-26.044-40.516-54.46-71.373-76.015-16.247-11.332-31.607-20.685-42.223-26.829-8.533-4.915-14.012-7.851-14.012-7.851-35.305-40.506-83.696-68.806-138.531-78.304l-1.416-0.203c-16.075-3.118-34.561-4.902-53.464-4.902-0.506 0-1.012 0.001-1.517 0.004h0.078c-38.628 0.571-75.795 5.685-111.345 14.83l3.279-0.716c-89.344-118.101-263.475-146.773-336.213-153.395-1.109-0.102-2.423-0.256-3.499-0.341-17.818-1.485-28.365-1.536-29.013-1.536h-0.256l1.314 0.444c8.329 2.731 16.367 5.615 24.235 8.533 42.586 15.584 79.421 36.444 112.108 62.315l-0.833-0.636c17.398 13.104 32.538 27.767 45.7 44.091l0.38 0.487 29.218-1.536-18.449 16.913c4.758 6.234 9.342 13.271 13.397 20.64l0.444 0.881 49.203-7.68-35.379 36.898c3.089 9.233 4.625 16.913 7.697 26.146 12.595 45.842 19.833 98.48 19.833 152.808 0 5.962-0.087 11.903-0.26 17.823l0.020-0.869c-2.095 82.629-23.851 159.73-60.737 227.396l1.311-2.628c-0.99 1.809-1.963 3.567-2.935 5.274-8.425 15.217-17.172 28.271-26.882 40.525l0.463-0.606c15.827-6.038 28.491-11.728 40.802-18.010l-2.368 1.097c6.724-3.618 13.653-7.646 20.48-11.844 66.532-43.749 124.067-87.338 178.568-134.347l-2.184 1.841c18.449-16.913 36.898-30.72 55.347-46.080 34.682-28.682 73.424-55.165 114.491-77.97l3.901-1.988c35.716-18.965 78.090-30.101 123.064-30.101 0.913 0 1.825 0.005 2.737 0.014l-0.139-0.001c36.619 1.899 70.595 5.767 103.905 11.572l-5.089-0.734c5.205-0.051 7.441-1.485 6.144-5.41zM770.253 483.482c-0.047 0-0.102 0-0.157 0-2.95 0-5.864-0.155-8.734-0.457l0.358 0.031c-15.091-0.535-28.599-6.896-38.427-16.888l-0.008-0.008c-10.769-10.769-7.68-15.36 3.072-15.36 24.488 3.458 46.062 13.933 63.153 29.297l-0.109-0.096c1.212 1.28-7.612 3.499-19.166 3.499z"></path>
</svg>
