<!-- Generated by IcoMoon.io -->
<svg version="1.1" xmlns="http://www.w3.org/2000/svg" width="1024" height="1024" viewBox="0 0 1024 1024">
<title></title>
<g id="icomoon-ignore">
</g>
<path d="M220.8 222.4c80-80 177.6-120 291.2-120s209.6 40 291.2 120c80 80 120 176 120 289.6s-40 209.6-120 289.6-177.6 120-291.2 120-211.2-40-291.2-120-120-176-120-289.6c0-113.6 40-209.6 120-289.6zM280 745.6c64 64 140.8 96 232 96s168-32 232-96 96-142.4 96-233.6-32-168-96-233.6c-64-64-140.8-96-232-96s-168 32-232 96-96 142.4-96 233.6 32 168 96 233.6zM400 308.8l320 203.2-320 203.2v-406.4z"></path>
</svg>
