<?xml version="1.0" encoding="utf-8"?>
<!-- Generator: Adobe Illustrator 27.9.0, SVG Export Plug-In . SVG Version: 6.00 Build 0)  -->
<svg version="1.1" id="Layer_2" xmlns="http://www.w3.org/2000/svg" xmlns:xlink="http://www.w3.org/1999/xlink" x="0px" y="0px"
	 viewBox="0 0 34 34" style="enable-background:new 0 0 34 34;" xml:space="preserve">
<path d="M23.5,1.6c-1.2,0-2.4,0.2-3.5,0.5l-0.1,0c-0.7-0.1-1.5-0.2-2.2-0.2c-1.5,0-2.8,0.3-3.9,1c-1-0.4-3.2-1-5.4-0.9
	C6.8,2.1,5.1,2.6,3.8,3.9C2.6,5.2,1.9,7.3,2,10.2c0,0.8,0.3,2.1,0.6,3.7s0.9,3.6,1.5,5.3c0.6,1.8,1.4,3.3,2.5,4.4
	c0.6,0.5,1.3,1,2.2,1c0.6,0,1.2-0.3,1.7-0.7c0.2,0.3,0.5,0.5,0.7,0.6c0.3,0.2,0.6,0.3,0.9,0.3c0.5,0.1,1.4,0.3,2.5,0.1
	c0.4-0.1,0.7-0.2,1.1-0.3c0,0.4,0,0.8,0,1.3c0.1,1.3,0.1,2.6,0.5,3.6c0.1,0.2,0.2,1.1,0.9,1.9c0.7,0.8,2.1,1.3,3.6,1
	c1.1-0.2,2.5-0.7,3.4-2c0.9-1.3,1.3-3.2,1.4-6.2c0-0.2,0-0.3,0.1-0.4l0.2,0h0c1.2,0.1,2.4-0.1,3.5-0.6c0.9-0.4,1.6-0.9,2.2-1.7
	c0.1-0.2,0.3-0.4,0.3-0.8c0-0.4-0.2-1-0.6-1.3c-0.8-0.6-1.2-0.4-1.8-0.3c-0.5,0.1-1,0.2-1.5,0.2c1.5-2.5,2.6-5.2,3.2-7.5
	c0.4-1.4,0.6-2.7,0.6-3.8c0-1.1-0.1-2.1-0.7-3C29,2.3,26,1.6,23.8,1.6C23.7,1.6,23.6,1.6,23.5,1.6L23.5,1.6z M23.5,2.4
	c2.2,0,4.9,0.6,6.9,3.1c0.4,0.6,0.6,1.4,0.6,2.4c0,1-0.2,2.2-0.6,3.6c-0.7,2.6-1.9,5.6-3.7,8.4c0.1,0,0.1,0.1,0.2,0.1
	c0.4,0.2,1.2,0.3,2.9-0.1c0.4-0.1,0.7-0.2,1.1,0.1c0.2,0.1,0.2,0.3,0.2,0.5c0,0.2-0.1,0.3-0.2,0.4c-0.3,0.5-1,1-1.8,1.3
	c-0.7,0.3-1.8,0.5-2.7,0.5c-0.5,0-0.9,0-1.3-0.1l0,0c-0.1,1.4-0.5,4.1-0.7,5.3c-0.2,1-0.5,1.8-1,2.4c-0.6,0.6-1.4,0.9-2.4,1.2
	c-1.3,0.3-2.3,0-2.9-0.6c-0.6-0.5-0.9-1.2-1.1-1.7c-0.1-0.3-0.2-0.7-0.2-1.2c-0.1-0.5-0.1-1.1-0.1-1.8c0-1.1-0.1-2.2,0-3.2
	c-0.6,0.5-1.3,0.9-2,1c-0.9,0.2-1.7,0-2.2-0.1c-0.2-0.1-0.5-0.1-0.7-0.3c-0.2-0.1-0.4-0.2-0.6-0.5C11,23,11,22.8,11,22.7
	c0-0.2,0.1-0.3,0.3-0.4c0.3-0.2,0.6-0.3,1.1-0.4c0.9-0.2,1.2-0.3,1.4-0.5c0.2-0.1,0.4-0.4,0.7-0.8c0,0,0,0,0-0.1
	c-0.6,0-1.2-0.2-1.7-0.5c-0.2,0.2-1.2,1.2-2.4,2.7c-0.5,0.6-1.1,1-1.7,1c-0.6,0-1.1-0.3-1.6-0.7c-0.9-0.9-1.6-2.4-2.3-4.1
	c-0.6-1.7-1.1-3.6-1.5-5.2c-0.4-1.6-0.6-2.9-0.6-3.6C2.7,7.4,3.4,5.6,4.4,4.4c1.1-1.1,2.6-1.6,4-1.7c2.6-0.1,5,0.8,5.5,0.9
	c1-0.6,2.2-1.1,3.7-1c0.7,0,1.5,0.1,2.2,0.3l0,0c0.3-0.1,0.6-0.2,1-0.3C21.7,2.5,22.6,2.4,23.5,2.4L23.5,2.4z M23.7,3.2h-0.2
	c-0.7,0-1.5,0.1-2.2,0.2c1.6,0.7,2.8,1.8,3.7,2.9c0.6,0.8,1.1,1.6,1.5,2.5c0.1,0.3,0.2,0.6,0.3,0.8c0,0.1,0,0.2,0.1,0.3
	c0,0,0,0.1,0,0.2c0,0,0,0,0,0c0,1.1-0.2,1.9-0.3,3c0,0.8,0.2,1.7,0.2,2.7c0,0.9-0.1,2-0.7,3c0.1,0.1,0.1,0.1,0.1,0.2
	c1.6-2.5,2.8-5.4,3.4-7.8c0.3-1.3,0.5-2.5,0.5-3.4c0-0.9-0.2-1.6-0.4-1.9C28,3.8,25.6,3.3,23.7,3.2L23.7,3.2z M17.5,3.6
	c-1.5,0-2.6,0.5-3.4,1.2c-0.9,0.7-1.4,1.7-1.8,2.7c-0.4,1.2-0.6,2.3-0.7,3.1l0,0c0.5-0.3,1.1-0.5,1.7-0.7c0.6-0.1,1.3-0.2,2,0.1
	c0.6,0.2,1.2,0.8,1.3,1.7c0.9,4.2-0.3,5.8-0.7,6.9c-0.2,0.4-0.3,0.9-0.4,1.3c0.1,0,0.1,0,0.2,0c0.3,0,0.6,0.1,0.7,0.1
	c0.4,0.2,0.7,0.6,0.9,1c0,0.1,0.1,0.2,0.1,0.4c0,0.1,0,0.1,0,0.2c0,1.6,0,3.2,0,4.8c0,0.7,0.1,1.3,0.1,1.8c0.1,0.5,0.1,0.8,0.2,1
	c0.2,0.4,0.4,1,0.8,1.3c0.4,0.4,1.1,0.6,2.2,0.4c1-0.2,1.6-0.5,2-0.9c0.4-0.4,0.7-1,0.8-1.9c0.2-1.4,0.7-5.3,0.8-6
	c0-0.6,0.1-1,0.2-1.3c0.2-0.3,0.5-0.5,0.7-0.7c0.1-0.1,0.2-0.1,0.3-0.1c-0.1-0.1-0.2-0.3-0.3-0.4c-0.4-0.4-0.6-0.9-0.9-1.4
	c-0.1-0.2-0.2-0.4-0.3-0.6c-0.2-0.3-0.4-0.7-0.6-1.1c-0.5-0.9-0.9-1.9-1.2-2.9c-0.3-1-0.3-2.1,0.4-2.8c0.6-0.7,1.6-0.9,3.1-0.8
	c0-0.1-0.1-0.2-0.1-0.4c-0.3-0.8-0.8-1.6-1.3-2.3c-1.3-1.7-3.4-3.3-6.6-3.3L17.5,3.6L17.5,3.6z M9,3.6c-0.2,0-0.3,0-0.5,0
	C7.2,3.7,5.9,4.1,5.1,5C4.2,6,3.6,7.5,3.7,10c0,0.5,0.2,1.8,0.6,3.4c0.4,1.6,0.9,3.5,1.5,5.1c0.6,1.7,1.3,3.1,2,3.8
	c0.4,0.3,0.7,0.5,0.9,0.5c0.3,0,0.6-0.2,1-0.7c0.7-0.9,1.5-1.8,2.3-2.6c-1.2-1-1.7-2.5-1.5-4.1c0.1-1,0.2-1.8,0.1-2.5
	c0-0.7-0.1-1.1-0.1-1.4c0,0,0,0,0,0v0l0,0v0c0-1.5,0.3-3,0.8-4.3c0.4-1,0.9-1.9,1.7-2.7C12.4,4.1,11,3.7,9.5,3.6
	C9.3,3.6,9.1,3.6,9,3.6L9,3.6z M24.9,10.4c-0.9,0-1.4,0.2-1.6,0.5c-0.4,0.4-0.4,1.2-0.2,2.1c0.2,0.9,0.7,1.9,1.1,2.8
	c0.2,0.4,0.4,0.8,0.6,1.1c0.2,0.3,0.3,0.5,0.4,0.7c0.1,0.2,0.1,0.3,0.2,0.5c0.3-0.7,0.4-1.4,0.4-2.1c0-0.9-0.3-1.8-0.2-2.8
	c0-1.1,0.3-1.8,0.3-2.7C25.6,10.5,25.2,10.4,24.9,10.4z M14.3,10.6c-0.3,0-0.5,0-0.8,0.1c-0.5,0.1-1,0.3-1.5,0.6
	c-0.2,0.1-0.3,0.2-0.4,0.3l0,0c0,0.2,0,0.6,0.1,1.3c0,0.7,0,1.7-0.1,2.7c-0.3,2.2,1.3,4,3.2,4c0.1-0.5,0.3-0.9,0.5-1.4
	c0.5-1.4,1.6-2.4,0.7-6.4c-0.1-0.7-0.4-0.9-0.8-1.1C14.8,10.6,14.6,10.6,14.3,10.6L14.3,10.6z M24.5,10.8L24.5,10.8
	c0.1,0,0.2,0,0.3,0c0.1,0,0.1,0,0.2,0.1c0.1,0,0.1,0.1,0.1,0.1l0,0h0h0c0,0.1,0,0.1,0,0.2c0,0.1-0.1,0.1-0.1,0.2
	c-0.1,0.1-0.3,0.2-0.5,0.3c-0.2,0-0.4,0-0.5-0.1c-0.1,0-0.1-0.1-0.2-0.2c0,0-0.1-0.1-0.1-0.2c0-0.1,0-0.1,0.1-0.2
	c0,0,0.1-0.1,0.2-0.1c0.1-0.1,0.3-0.1,0.5-0.1C24.4,10.8,24.5,10.8,24.5,10.8L24.5,10.8z M14.5,11.1c0.1,0,0.1,0,0.2,0
	c0.2,0,0.4,0.1,0.5,0.2c0.1,0,0.1,0.1,0.2,0.1c0.1,0.1,0.1,0.1,0.1,0.2c0,0.1,0,0.1-0.1,0.2c-0.1,0.1-0.1,0.1-0.2,0.2
	c-0.2,0.1-0.4,0.2-0.6,0.1c-0.2,0-0.4-0.1-0.5-0.3c-0.1-0.1-0.1-0.1-0.2-0.2c0-0.1-0.1-0.1-0.1-0.2c0-0.1,0.1-0.2,0.2-0.3
	C14.2,11.1,14.3,11.1,14.5,11.1L14.5,11.1z M26.1,20.5L26.1,20.5c-0.2,0.1-0.3,0.1-0.5,0.2c-0.1,0.1-0.2,0.1-0.3,0.3
	c-0.1,0.1-0.2,0.4-0.1,0.9c0.1,0,0.1,0.1,0.2,0.1c0.2,0.1,0.6,0.1,1,0.1c0.8,0,1.8-0.2,2.4-0.5c0.4-0.2,0.8-0.5,1.2-0.8h0
	c-1.8,0.4-2.8,0.3-3.4,0C26.4,20.7,26.2,20.6,26.1,20.5L26.1,20.5z M15.8,20.6L15.8,20.6c-0.1,0-0.2,0-0.4,0.2
	c-0.4,0.5-0.6,0.8-1,1.1c-0.4,0.3-0.8,0.5-1.8,0.6c-0.3,0.1-0.5,0.1-0.6,0.2c0,0,0,0,0.1,0.1c0.1,0.1,0.3,0.1,0.5,0.2
	c0.4,0.1,1.1,0.2,1.8,0.1c0.7-0.1,1.4-0.5,2.1-1.3c0.1-0.2,0.1-0.4,0-0.6c-0.1-0.2-0.3-0.4-0.4-0.5C16,20.7,15.9,20.6,15.8,20.6
	L15.8,20.6z"/>
</svg>
