<?xml version="1.0" encoding="utf-8"?>
<!-- Generator: Adobe Illustrator 27.9.0, SVG Export Plug-In . SVG Version: 6.00 Build 0)  -->
<svg version="1.1" id="Layer_2" xmlns="http://www.w3.org/2000/svg" xmlns:xlink="http://www.w3.org/1999/xlink" x="0px" y="0px"
	 viewBox="0 0 34 34" style="enable-background:new 0 0 34 34;" xml:space="preserve">
<g>
	<g>
		<path d="M11.7,26.3c0,1-0.8,1.9-1.9,1.9s-1.9-0.8-1.9-1.9v-8.2c0-1,0.8-1.9,1.9-1.9s1.9,0.8,1.9,1.9V26.3z"/>
	</g>
	<g>
		<path d="M17.1,28.5c0,1-0.8,1.9-1.9,1.9s-1.8-0.8-1.8-1.9V16c0-1,0.8-1.9,1.9-1.9s1.9,0.8,1.9,1.9L17.1,28.5L17.1,28.5z"/>
	</g>
	<g>
		<path d="M6.1,24.5c0,1-0.8,1.9-1.9,1.9s-1.9-0.8-1.9-1.9V20c0-1,0.8-1.9,1.9-1.9S6.1,19,6.1,20V24.5z"/>
	</g>
	<g>
		<path d="M22.6,30.5c0,1-0.8,1.9-1.9,1.9c-1,0-1.8-0.9-1.8-1.9V13.9c0-1,0.8-1.9,1.9-1.9c1,0,1.9,0.8,1.9,1.9L22.6,30.5L22.6,30.5z
			"/>
	</g>
	<g>
		<path d="M28.6,29.7c-0.4,0-0.6-0.1-1-0.2l-2.3-0.7c-0.4-0.1-0.6-0.5-0.5-0.9c0.1-0.4,0.5-0.6,0.9-0.5l2.4,0.7
			c0.5,0.2,1,0.1,1.5-0.3c0.5-0.3,0.6-0.8,0.6-1.3V11.4c0-0.7-0.5-1.4-1.1-1.5L6.9,3.1C6.4,2.9,5.9,3,5.4,3.3
			C5.1,3.7,4.8,4.1,4.8,4.7v10.4c0,0.5-0.4,0.7-0.7,0.7c-0.5,0-0.7-0.4-0.7-0.7V4.7c0-1,0.5-1.9,1.3-2.5c0.8-0.6,1.8-0.7,2.7-0.5
			l22.2,6.7c1.3,0.4,2.2,1.6,2.2,3v15.2c0,1-0.5,1.9-1.3,2.5C29.9,29.4,29.2,29.7,28.6,29.7"/>
	</g>
</g>
</svg>
