<!-- Generated by IcoMoon.io -->
<svg version="1.1" xmlns="http://www.w3.org/2000/svg" width="1024" height="1024" viewBox="0 0 1024 1024">
<title></title>
<g id="icomoon-ignore">
</g>
<path d="M851.2 131.2c-44.8 0-81.6 27.2-97.6 65.6h-25.6v80h25.6c4.8 11.2 11.2 22.4 20.8 32v0l-28.8 57.6 72 36.8 28.8-57.6-4.8-3.2c3.2 0 8 0 11.2 0 57.6 0 105.6-48 105.6-105.6s-49.6-105.6-107.2-105.6zM659.2 819.2c0 58.321-47.279 105.6-105.6 105.6s-105.6-47.279-105.6-105.6c0-58.321 47.279-105.6 105.6-105.6s105.6 47.279 105.6 105.6zM438.4 196.8h64v80h-64v-80zM534.4 196.8h64v80h-64v-80zM630.4 196.8h64v80h-64v-80zM340.23 515.945l70.368-38.064 30.451 56.294-70.368 38.064-30.451-56.294zM386.718 600.359l70.368-38.064 30.451 56.294-70.368 38.064-30.451-56.294zM295.15 430.772l70.368-38.064 30.451 56.294-70.368 38.064-30.451-56.294zM431.038 684.133l70.368-38.064 30.451 56.294-70.368 38.064-30.451-56.294zM729.6 393.6l-14.4 30.4c-4.8 0-8-1.6-12.8-1.6-27.2 0-51.2 9.6-70.4 25.6l8-11.2-54.4-33.6-41.6 68.8 54.4 33.6 1.6-3.2c-1.6 8-3.2 17.6-3.2 27.2 0 57.6 48 105.6 105.6 105.6s105.6-48 105.6-105.6c0-24-8-48-22.4-65.6l16-33.6-72-36.8zM461.494 420.269l41.928-68.136 54.509 33.542-41.928 68.136-54.509-33.542zM380.404 370.205l41.92-68.136 54.509 33.536-41.92 68.136-54.509-33.536zM236.8 406.4c14.4 0 27.2-1.6 41.6-4.8l1.6 3.2 11.2-6.4c19.2-6.4 36.8-16 51.2-28.8l8-4.8-1.6-1.6c25.6-22.4 44.8-52.8 52.8-86.4h4.8v-36.8c0-1.6 0-1.6 0-3.2s0-1.6 0-3.2v-36.8h-4.8c-17.6-75.2-84.8-129.6-164.8-129.6-92.8 0-169.6 75.2-169.6 169.6 0 92.8 76.8 169.6 169.6 169.6zM236.8 131.2c57.6 0 104 46.4 105.6 102.4 0 1.6 0 1.6 0 3.2s0 1.6 0 3.2c0 4.8 0 9.6-1.6 14.4-4.8 24-16 46.4-35.2 62.4-1.6 1.6-4.8 4.8-8 6.4-9.6 8-20.8 12.8-33.6 16-9.6 3.2-19.2 3.2-28.8 3.2-57.6 0-105.6-48-105.6-105.6s49.6-105.6 107.2-105.6z"></path>
</svg>
