<!-- Generated by IcoMoon.io -->
<svg version="1.1" xmlns="http://www.w3.org/2000/svg" width="1024" height="1024" viewBox="0 0 1024 1024">
<title></title>
<g id="icomoon-ignore">
</g>
<path d="M512 268.8c-275.2 0-499.2 211.2-499.2 211.2s224 276.8 499.2 276.8 499.2-276.8 499.2-276.8-224-211.2-499.2-211.2zM512 692.8c-176 0-332.8-134.4-406.4-206.4 75.2-56 230.4-153.6 406.4-153.6 14.4 0 28.8 1.6 41.6 1.6 8 16 14.4 35.2 14.4 54.4 0 65.6-52.8 116.8-116.8 116.8-56 0-102.4-38.4-113.6-89.6-1.6 11.2-3.2 22.4-3.2 33.6 0 99.2 80 179.2 179.2 179.2s179.2-80 179.2-179.2c0-35.2-9.6-68.8-27.2-96 110.4 32 201.6 91.2 254.4 131.2-75.2 75.2-232 208-408 208z"></path>
</svg>
