<?xml version="1.0" encoding="UTF-8"?><svg id="Layer_1" xmlns="http://www.w3.org/2000/svg" viewBox="0 0 60 60"><path d="M54.73,28.44c-2.35-3.93-5.58-7.18-9.35-9.56-.15-.09-.29-.18-.44-.27-.15-.09-.29-.18-.44-.27l4.3-4.3c.75-.75,.89-1.99,.19-2.8-.4-.47-.96-.7-1.52-.7-.51,0-1.02,.2-1.41,.59l-5.36,5.36-3.75,3.75-3.99,3.99-8.74,8.74-3.99,3.99c-.1-.14-.2-.28-.29-.42-.09-.14-.18-.29-.27-.44-1.45-2.46-2.07-5.46-1.4-8.64,.96-4.56,4.61-8.21,9.17-9.17,3.09-.65,6.02-.08,8.43,1.28,.13,.07,.29,.05,.39-.05l3.03-3.03c.17-.17,.11-.48-.13-.55-2.91-.98-6-1.51-9.16-1.51-10.16,0-19.55,5.38-24.72,14.03-.58,.96-.58,2.17,0,3.13,2.35,3.93,5.58,7.18,9.35,9.56,.14,.09,.29,.18,.44,.27,.15,.09,.29,.18,.44,.27l-4.3,4.3c-.75,.75-.89,1.99-.19,2.8,.4,.47,.96,.7,1.52,.7,.51,0,1.02-.2,1.41-.59l5.36-5.36,3.75-3.75,3.99-3.99c.16,.08,.32,.16,.48,.23,.17,.07,.34,.13,.52,.19,.79,.25,1.65,.35,2.55,.27,3.07-.28,5.61-2.81,5.88-5.88,.08-.89-.02-1.75-.27-2.55-.06-.18-.12-.35-.19-.52-.07-.16-.14-.32-.23-.48l3.99-3.99c.1,.14,.2,.28,.29,.42,.09,.14,.18,.29,.27,.44,1.45,2.46,2.07,5.46,1.4,8.64-.96,4.56-4.61,8.21-9.17,9.17-3.09,.65-6.02,.08-8.43-1.28-.13-.07-.29-.05-.39,.05l-3.03,3.03c-.17,.17-.11,.48,.13,.55,2.91,.98,6,1.51,9.16,1.51,10.16,0,19.55-5.38,24.72-14.03,.58-.96,.58-2.17,0-3.13Z"/><path d="M23.53,29.41c-.06,.69-.01,1.36,.13,1.99,.05,.25,.37,.33,.55,.15l7.34-7.34c.18-.18,.1-.5-.15-.55-.63-.14-1.3-.19-1.99-.13-3.07,.27-5.61,2.81-5.88,5.88Z"/></svg>