<!-- Generated by IcoMoon.io -->
<svg version="1.1" xmlns="http://www.w3.org/2000/svg" width="1024" height="1024" viewBox="0 0 1024 1024">
<title></title>
<g id="icomoon-ignore">
</g>
<path d="M836.8 328c38.4 0 70.4 12.8 97.6 40s41.6 59.2 41.6 99.2v278.4h-187.2v184h-556.8v-185.6h-184v-278.4c0-38.4 12.8-72 40-99.2s59.2-40 99.2-40h649.6zM788.8 94.4v184h-556.8v-184h556.8zM697.6 835.2v-230.4h-371.2v230.4h371.2zM803.2 497.6c9.6 9.6 20.8 14.4 32 14.4 12.8 0 22.4-4.8 32-14.4s14.4-20.8 14.4-32c0-12.8-4.8-22.4-14.4-32s-20.8-14.4-32-14.4c-12.8 0-22.4 4.8-32 14.4s-14.4 20.8-14.4 32c0 11.2 4.8 22.4 14.4 32z"></path>
</svg>
