<!-- Generated by IcoMoon.io -->
<svg version="1.1" xmlns="http://www.w3.org/2000/svg" width="1024" height="1024" viewBox="0 0 1024 1024">
<title></title>
<g id="icomoon-ignore">
</g>
<path d="M662.4 361.6h-300.8v300.8h300.8v-300.8zM561.6 561.6h-100.8v-100.8h100.8v100.8zM964.8 462.4v-100.8h-100.8v-100.8c0-56-44.8-100.8-100.8-100.8h-100.8v-99.2h-100.8v99.2h-100.8v-99.2h-100.8v99.2h-100.8c-56 0-100.8 44.8-100.8 100.8v100.8h-97.6v100.8h99.2v100.8h-99.2v100.8h99.2v100.8c0 56 44.8 100.8 100.8 100.8h100.8v100.8h100.8v-102.4h100.8v100.8h100.8v-100.8h100.8c56 0 100.8-44.8 100.8-100.8v-100.8h100.8v-100.8h-102.4v-100.8h100.8zM763.2 763.2h-502.4v-502.4h502.4v502.4z"></path>
</svg>
