<?xml version="1.0" encoding="utf-8"?>
<!-- Generator: Adobe Illustrator 27.7.0, SVG Export Plug-In . SVG Version: 6.00 Build 0)  -->
<svg version="1.1" id="Layer_1" xmlns="http://www.w3.org/2000/svg" xmlns:xlink="http://www.w3.org/1999/xlink" x="0px" y="0px"
	 viewBox="0 0 1024 1024" style="enable-background:new 0 0 1024 1024;" xml:space="preserve">
<style type="text/css">
	.st0{fill-rule:evenodd;clip-rule:evenodd;}
</style>
<g id="icomoon-ignore">
</g>
<g>
	<g>
		<path d="M645.8,232.7l-57.4-57c-10.2-10.1-27.6-2.9-27.6,11.5v9.4c0,4.5-3.6,8.1-8.1,8.1h-81.5c-4.5,0-8.1-3.6-8.1-8.1v-9.2
			c0-14.4-17.4-21.6-27.6-11.4l-57.4,57.4c-6.3,6.3-6.3,16.6,0,22.9l57.4,57c10.2,10.1,27.6,2.9,27.6-11.5v-9.4
			c0-4.5,3.6-8.1,8.1-8.1h81.5c4.5,0,8.1,3.6,8.1,8.1v9.2c0,14.4,17.4,21.6,27.6,11.4l57.4-57.4
			C652.2,249.3,652.1,239.1,645.8,232.7z"/>
		<path d="M842,29.3H630.8c-11.6,0-22.2,6.2-28,16.2l-15.7,27.2c-7.3,12.7-5.2,28.8,5.2,39.1l18.4,18.2l96.5,95.8l7,7
			c6.4,6.3,6.4,16.6,0,22.9l-7,7l-96.5,96.5l-18.5,18.5c-10.4,10.4-12.5,26.4-5.1,39l15.6,27.1c5.8,10,16.5,16.2,28,16.2H842
			c11.6,0,22.2-6.2,28-16.2l105.6-182.9c5.8-10,5.8-22.3,0-32.3L870.1,45.4C864.3,35.4,853.6,29.3,842,29.3z"/>
		<path d="M413.3,359.1l-96.5-95.8l-7-7c-6.4-6.3-6.4-16.6,0-22.9l7-7l96.5-96.5l18.5-18.5c10.4-10.4,12.5-26.4,5.1-39l-15.6-27.1
			c-5.8-10-16.5-16.2-28-16.2H182c-11.6,0-22.2,6.2-28,16.2L48.3,228.4c-5.8,10-5.8,22.3,0,32.3l105.6,182.9
			c5.8,10,16.5,16.2,28,16.2h211.2c11.6,0,22.2-6.2,28-16.2l15.7-27.2c7.3-12.7,5.2-28.8-5.2-39.1L413.3,359.1z"/>
	</g>
	<g>
		<g>
			<path d="M512,856.7c-71.9,0-130.4-58.5-130.4-130.4S440.1,595.9,512,595.9s130.4,58.5,130.4,130.4S583.9,856.7,512,856.7z
				 M512,623.1c-56.9,0-103.1,46.3-103.1,103.1c0,56.9,46.3,103.1,103.1,103.1S615.1,783,615.1,726.2
				C615.1,669.4,568.9,623.1,512,623.1z"/>
		</g>
		<g>
			<path class="st0" d="M511.6,458.2c-36.4-1.2-49.4,51.2-17.5,67.4V540c-27.5-1.3-140.1,38.2-114,75.3c6.7,7,17.8,7.3,24.8,0.6
				c2.1-2,4.3-4,6.6-5.9c8.5-7.2,17.8-13.5,27.6-18.6c9.4-4.9,19.4-8.9,29.7-11.7c5.6-1.5,11.4-2.8,17.1-3.6
				c6.9-1.1,13.9-1.6,21-1.7c11.7,1.4,22.6-6.6,22.3-17.7c0.3-2-1.2-33,1.4-31.9C560.9,507.6,547.1,456.9,511.6,458.2z"/>
		</g>
		<g>
			<path class="st0" d="M511.6,994.7c36.4,1.2,49.4-51.2,17.5-67.4v-14.4c27.5,1.3,140.1-38.2,114-75.3c-6.7-7-17.8-7.3-24.8-0.6
				c-2.1,2-4.3,4-6.6,5.9c-8.5,7.2-17.8,13.5-27.6,18.6c-9.4,4.9-19.4,8.9-29.7,11.7c-5.6,1.6-11.4,2.8-17.1,3.6
				c-6.9,1.1-13.9,1.6-21,1.7c-11.7-1.4-22.6,6.6-22.3,17.7c-0.3,2,1.2,33-1.4,31.9C462.2,945.3,476,996,511.6,994.7z"/>
		</g>
		<g>
			<path class="st0" d="M244.2,727.4c-1.2,36.4,51.2,49.4,67.4,17.5H326c-1.3,27.5,38.2,140.1,75.3,114c7-6.7,7.3-17.8,0.6-24.8
				c-2-2.1-4-4.3-5.9-6.6c-7.2-8.5-13.5-17.8-18.6-27.6c-4.9-9.4-8.9-19.4-11.7-29.7c-1.5-5.6-2.8-11.4-3.6-17.1
				c-1.1-6.9-1.6-13.9-1.7-21c1.4-11.7-6.6-22.6-17.7-22.3c-2-0.3-33,1.2-31.9-1.4C293.6,678,242.9,691.9,244.2,727.4z"/>
		</g>
		<g>
			<path class="st0" d="M780.7,727.4c1.2-36.4-51.2-49.4-67.4-17.5h-14.4c1.3-27.5-38.2-140.1-75.3-114c-7,6.7-7.3,17.8-0.6,24.8
				c2,2.1,4,4.3,5.9,6.6c7.2,8.5,13.5,17.8,18.6,27.6c4.9,9.4,8.9,19.4,11.7,29.7c1.5,5.6,2.8,11.4,3.6,17.1
				c1.1,6.9,1.6,13.9,1.7,21c-1.4,11.7,6.6,22.6,17.7,22.3c2,0.3,33-1.2,31.9,1.4C731.3,776.7,782,762.9,780.7,727.4z"/>
		</g>
		<circle cx="576.2" cy="570.9" r="21.1"/>
		<circle cx="667.4" cy="790.4" r="21.1"/>
		<circle cx="447.9" cy="881.7" r="21.1"/>
		<circle cx="356.6" cy="662.2" r="21.1"/>
	</g>
</g>
</svg>
