<!-- Generated by IcoMoon.io -->
<svg version="1.1" xmlns="http://www.w3.org/2000/svg" width="1024" height="1024" viewBox="0 0 1024 1024">
<title></title>
<g id="icomoon-ignore">
</g>
<path d="M380.245 727.057c32.705-33.802 78.478-54.786 129.153-54.786 0.915 0 1.828 0.007 2.74 0.020l-0.138-0.002c102.908 0.261 186.26 83.614 186.522 186.496v0.025c-0.261 102.908-83.614 186.26-186.496 186.522h-0.025c-102.908-0.261-186.26-83.614-186.522-186.496v-0.025c-0.012-0.78-0.019-1.701-0.019-2.623 0-50.668 20.984-96.435 54.736-129.084l0.050-0.048zM404.053 966.826c26.711 27.402 63.983 44.399 105.226 44.399 0.957 0 1.912-0.009 2.864-0.027l-0.143 0.002c84.194-0.156 152.387-68.445 152.387-152.661 0-42.020-16.977-80.075-44.446-107.68l0.006 0.006c-26.735-27.442-64.050-44.465-105.34-44.465-0.916 0-1.831 0.008-2.743 0.025l0.137-0.002c-84.224 0.118-152.455 68.421-152.455 152.661 0 42.054 17.004 80.137 44.513 107.747l-0.005-0.005zM436.992 832.29c4.365 4.483 7.056 10.614 7.056 17.374 0 13.761-11.156 24.917-24.917 24.917s-24.917-11.156-24.917-24.917c0-13.759 11.152-24.913 24.909-24.917v0c0.077-0.001 0.169-0.001 0.26-0.001 6.91 0 13.152 2.864 17.602 7.47l0.007 0.007zM434.603 916.821c4.64-4.417 10.933-7.134 17.86-7.134s13.22 2.717 17.871 7.144l-0.011-0.010c4.661 4.676 7.543 11.128 7.543 18.253s-2.882 13.577-7.544 18.253l0.001-0.001c-4.64 4.417-10.933 7.134-17.86 7.134s-13.22-2.717-17.871-7.144l0.011 0.010c-4.653-4.68-7.529-11.13-7.529-18.253s2.876-13.573 7.53-18.254l-0.001 0.001zM555.657 748.151c4.417 4.64 7.134 10.933 7.134 17.86s-2.717 13.22-7.144 17.871l0.010-0.011c-4.387 4.657-10.595 7.556-17.48 7.556-0.275 0-0.549-0.005-0.821-0.014l0.040 0.001h-50.807c-0.241 0.009-0.524 0.014-0.808 0.014-6.871 0-13.065-2.901-17.424-7.544l-0.012-0.013c-4.428-4.635-7.153-10.929-7.153-17.86s2.725-13.225 7.163-17.87l-0.009 0.010c4.394-4.646 10.602-7.538 17.485-7.538 0.267 0 0.533 0.004 0.798 0.013l-0.039-0.001h50.807c0.244-0.009 0.53-0.014 0.817-0.014 6.858 0 13.047 2.865 17.435 7.463l0.009 0.009zM553.66 916.821c4.64-4.417 10.933-7.134 17.86-7.134s13.22 2.717 17.871 7.144l-0.011-0.010c4.661 4.676 7.543 11.128 7.543 18.253s-2.882 13.577-7.544 18.253l0.001-0.001c-4.64 4.417-10.933 7.134-17.86 7.134s-13.22-2.717-17.871-7.144l0.011 0.010c-4.653-4.68-7.529-11.13-7.529-18.253s2.876-13.573 7.53-18.254l-0.001 0.001zM587.093 832.222c4.48-4.359 10.604-7.046 17.357-7.046 13.752 0 24.9 11.148 24.9 24.9s-11.148 24.9-24.9 24.9c-13.747 0-24.892-11.14-24.9-24.885v-0.001c-0.001-0.064-0.001-0.141-0.001-0.217 0-6.936 2.892-13.198 7.536-17.643l0.009-0.008zM665.327 379.358l-101.82-101.052v59.392h-103.014v-59.392l-101.82 101.803 101.82 101.052v-59.392h103.014v59.392l101.82-101.803zM879.957 152.576h-262.298l-39.543 68.489 159.403 158.208-159.3 159.317 39.441 68.301h262.298l131.157-227.157-131.157-227.157zM407.859 500.65l-121.378-120.457 159.3-159.317-39.441-68.301h-262.298l-131.157 227.157 131.157 227.157h262.298l39.543-68.489-38.025-37.751z"></path>
</svg>
