<svg width="1024" height="1024" viewBox="0 0 1024 1024" fill="none" xmlns="http://www.w3.org/2000/svg">
<path d="M703.172 476.023C741.89 437.305 761.249 391.327 761.249 335.669C761.249 267.912 737.05 209.835 688.652 161.437C640.254 113.039 582.177 88.8398 512 88.8398C441.823 88.8398 383.746 113.039 335.348 161.437C286.95 209.835 262.751 267.912 262.751 335.669H388.585C388.585 301.791 400.685 270.332 424.884 246.133C449.083 221.934 478.122 209.835 512 209.835C545.879 209.835 574.917 221.934 599.116 246.133C623.315 270.332 635.415 299.371 635.415 335.669C635.415 371.967 623.315 398.586 596.696 422.785L521.68 500.222C473.282 548.62 449.083 606.697 449.083 674.454V705.913H574.917C574.917 662.355 579.757 630.896 591.857 606.697C601.536 582.498 620.895 558.299 647.514 531.681L703.172 476.023ZM574.917 935.162V811.747H449.083V935.162H574.917Z" fill="black"/>
</svg>
