<!-- Generated by IcoMoon.io -->
<svg version="1.1" xmlns="http://www.w3.org/2000/svg" width="1024" height="1024" viewBox="0 0 1024 1024">
<title></title>
<g id="icomoon-ignore">
</g>
<path d="M336 432l-81.6-142.4c-116.8 76.8-195.2 206.4-204.8 353.6h163.2c9.6-88 56-163.2 123.2-211.2zM472 619.2c-32 24-36.8 70.4-12.8 102.4s70.4 36.8 102.4 12.8c19.2-14.4 123.2-129.6 204.8-219.2-9.6-14.4-19.2-28.8-30.4-41.6-107.2 57.6-244.8 131.2-264 145.6zM512 374.4c43.2 0 84.8 9.6 121.6 25.6l81.6-142.4c-62.4-30.4-131.2-48-204.8-48s-142.4 17.6-204.8 48l81.6 142.4c40-17.6 81.6-25.6 124.8-25.6zM769.6 289.6l-81.6 142.4c17.6 12.8 33.6 27.2 48 43.2 70.4-36.8 126.4-67.2 126.4-67.2s-43.2 48-96 107.2c24 38.4 40 81.6 44.8 128h163.2c-9.6-147.2-88-276.8-204.8-353.6z"></path>
</svg>
