<?xml version="1.0" encoding="UTF-8"?><svg id="a" xmlns="http://www.w3.org/2000/svg" viewBox="0 0 60 60"><path d="M58.7,37.98s-.03,0-.04,0h-10.68c-.73,0-1.33-.59-1.34-1.32,0,0,0-.01,0-.02v-10.68c0-.73-.6-1.33-1.33-1.33h-4c-.73,0-1.33,.59-1.34,1.32h0v10.68c0,.73-.59,1.33-1.32,1.34,0,0-.01,0-.02,0h-4c-.73,0-1.33-.59-1.34-1.32v-8.27c-.56,.42-1.11,.84-1.66,1.27-.38,.31-.75,.61-1.12,.92-.74,.59-1.43,1.15-2.11,1.78-.04,.04-.33,.27-.33,.27-.48,.4-.97,.79-1.45,1.19v22.85c0,.73,.59,1.33,1.32,1.34,0,0,.01,0,.02,0h30.69c.73,0,1.33-.59,1.34-1.32v-17.34c.02-.73-.56-1.34-1.3-1.36Zm-5.41,8.67v2.67c0,1.1-.89,2-1.99,2.01h-2.68c-1.1,0-2-.89-2-2h0v-2.68c0-1.1,.89-2,1.99-2.01h2.68c1.1,0,2,.89,2,2h0Z"/><g><path d="M13.25,35.11c.94-1.78,3.85-12.2,.28-21.22-1.03-2.53-2.53-4.98-4.79-7.04-1.88-1.78-4.22-3.19-7.23-4.32C-1.02,1.6-4.03,.94-7.5,.66-3.37,2.63-.37,4.97,1.14,6.29c0,0,3.19,2.35,5.63,6.76,2.16,3.85,3.85,9.39,3.85,9.39,1.13,3.57,1.88,7.51,2.25,9.95,.28,1.69,.38,2.72,.38,2.72Z"/><path d="M29.77,27.32c2.53-1.97,4.98-3.76,7.23-4.88,7.51-3.94,14.55-.09,14.08-1.5-.84-3.1-7.79-6.76-7.79-6.76-3-3.47-6.38-4.32-8.54-4.79-3.94-.75-7.98,.09-9.95,.56C19.26,2.63,8.37,.94,4.05,.56c-1.13-.09-1.78-.09-1.78-.09,3.47,1.13,6.29,2.63,8.36,4.32,1.13,.84,2.07,1.78,2.82,2.72l1.78-.09-1.13,1.03c.28,.47,.66,.84,.84,1.31l3-.47-2.16,2.25c.19,.56,.28,1.03,.47,1.6,4.32,16.71-4.22,26.85-4.22,26.85,.75-.28,1.6-.66,2.35-1.03,3.66-1.97,7.89-5.45,12.02-8.82,1.13-1.03,2.25-1.88,3.38-2.82Zm6.85-14.08c.84,0,2.53,.66,3.85,1.78,.09,.09-.75,.28-1.69,.19-.66,0-1.6-.28-2.35-1.03-.66-.66-.47-.94,.19-.94Z"/></g></svg>