<?xml version="1.0" encoding="utf-8"?>
<!-- Generator: Adobe Illustrator 27.7.0, SVG Export Plug-In . SVG Version: 6.00 Build 0)  -->
<svg version="1.1" id="Layer_1" xmlns="http://www.w3.org/2000/svg" xmlns:xlink="http://www.w3.org/1999/xlink" x="0px" y="0px"
	 viewBox="0 0 1024 1024" style="enable-background:new 0 0 1024 1024;" xml:space="preserve">
<g id="icomoon-ignore">
</g>
<g>
	<g>
		<path d="M512,1005.9c-272.3,0-493.9-221.5-493.9-493.9C18.1,239.7,239.7,18.1,512,18.1s493.9,221.5,493.9,493.9
			C1005.9,784.3,784.3,1005.9,512,1005.9z M512,73.2C270,73.2,73.2,270.1,73.2,512S270,950.8,512,950.8S950.8,753.9,950.8,512
			S754,73.2,512,73.2z"/>
	</g>
	<g>
		<g>
			<path d="M724.5,464.9c13.2,0,23.9,10.7,23.9,23.8v249.4c0,13.1-10.6,23.8-23.8,23.8H299.4c-13.2,0-23.8-10.7-23.8-23.8
				c0,0,0,0,0,0V285.9c0-13.1,10.6-23.8,23.9-23.8h51.7c13.1,0,23.8,10.6,23.8,23.8v156.6c0.7,11.5,9.5,20.9,20.9,22.4h38.7
				c11.7-1.1,21.5-10.6,22.1-22.4V285.8c0-13.1,10.6-23.8,23.8-23.8h51.7c13.1,0,23.8,10.6,23.8,23.8v155c0,12.2,9,22.7,20.8,24.1
				L724.5,464.9L724.5,464.9z M656.4,636v-48.8c0-13.1-10.6-23.8-23.8-23.8h-51.7c-13.1,0-23.8,10.6-23.8,23.8v48.8
				c0,13.1,10.6,23.8,23.8,23.8h51.7C645.7,659.8,656.4,649.2,656.4,636L656.4,636z"/>
		</g>
	</g>
</g>
</svg>
