<svg width="1024" height="1024" viewBox="0 0 1024 1024" fill="none" xmlns="http://www.w3.org/2000/svg">
<path d="M858.687 431.728H607.499C601.444 431.726 595.638 429.32 591.356 425.039C587.075 420.758 584.668 414.952 584.665 408.897V147.111C584.665 127.725 568.945 112 549.568 112H459.9C440.511 112 424.8 127.725 424.8 147.111V407.312C424.8 420.812 413.887 431.784 400.387 431.844L318.07 432.236C304.455 432.31 293.394 421.263 293.42 407.661L293.931 147.17C293.975 127.755 278.25 112 258.834 112H169.24C149.848 112 134.141 127.725 134.141 147.111V880.148C134.141 897.37 148.092 911.321 165.299 911.321H858.687C875.909 911.321 889.86 897.37 889.86 880.148V462.902C889.86 445.68 875.909 431.728 858.687 431.728ZM740.895 706.955C740.895 729.523 722.598 747.823 700.03 747.823H629.166C606.595 747.823 588.299 729.523 588.299 706.955V636.091C588.299 613.52 606.595 595.224 629.166 595.224H700.03C722.598 595.224 740.895 613.52 740.895 636.091V706.955Z" fill="black"/>
</svg>
