<?xml version="1.0" encoding="utf-8"?>
<!-- Generator: Adobe Illustrator 28.0.0, SVG Export Plug-In . SVG Version: 6.00 Build 0)  -->
<svg version="1.1" id="Layer_1" xmlns="http://www.w3.org/2000/svg" xmlns:xlink="http://www.w3.org/1999/xlink" x="0px" y="0px"
	 viewBox="0 0 1024 1024" style="enable-background:new 0 0 1024 1024;" xml:space="preserve">
<style type="text/css">
	.st0{fill-rule:evenodd;clip-rule:evenodd;}
</style>
<path class="st0" d="M531.2,435H167.8c-29.7,0-53.8,24.1-53.8,53.8v363.3c0,29.7,24.1,53.8,53.8,53.8h363.3
	c29.7,0,53.8-24.1,53.8-53.8V488.8C585,459.1,560.9,435,531.2,435z M268.8,539.4c22.3,0,40.4,18.1,40.4,40.4
	c0,22.3-18.1,40.4-40.4,40.4c-22.3,0-40.4-18.1-40.4-40.4C228.4,557.4,246.5,539.4,268.8,539.4z M268.8,801.6
	c-22.3,0-40.4-18.1-40.4-40.4c0-22.3,18.1-40.4,40.4-40.4c22.3,0,40.4,18.1,40.4,40.4C309.1,783.5,291.1,801.6,268.8,801.6z
	 M349.5,710.9c-22.3,0-40.4-18.1-40.4-40.4c0-22.3,18.1-40.4,40.4-40.4s40.4,18.1,40.4,40.4C389.9,692.8,371.8,710.9,349.5,710.9z
	 M430.2,801.6c-22.3,0-40.4-18.1-40.4-40.4c0-22.3,18.1-40.4,40.4-40.4c22.3,0,40.4,18.1,40.4,40.4
	C470.6,783.5,452.5,801.6,430.2,801.6z M430.2,620.1c-22.3,0-40.4-18.1-40.4-40.4c0-22.3,18.1-40.4,40.4-40.4
	c22.3,0,40.4,18.1,40.4,40.4C470.6,602,452.5,620.1,430.2,620.1z"/>
<path class="st0" d="M861.6,209l-331.3-88.8c-34.1-9.1-69.2,11.1-78.4,45.3l-66,246.2h151.8c39.1,0,70.8,31.7,70.8,70.8v146.3
	l131.1,35.1c34.1,9.1,69.2-11.1,78.4-45.3l88.8-331.3C916,253.2,895.7,218.1,861.6,209z M562.5,327.1c-21.5-5.8-34.3-27.9-28.5-49.4
	c5.8-21.5,27.9-34.3,49.4-28.5c21.5,5.8,34.3,27.9,28.5,49.4C606.2,320.1,584,332.9,562.5,327.1z M624.6,431
	c-21.5-5.8-34.3-27.9-28.5-49.4c5.8-21.5,27.9-34.3,49.4-28.5c21.5,5.8,34.3,27.9,28.5,49.4C668.2,424,646.1,436.8,624.6,431z
	 M736.1,506.4c-5.8,21.5-27.9,34.3-49.4,28.5c-21.5-5.8-34.3-27.9-28.5-49.4c5.8-21.5,27.9-34.3,49.4-28.5
	C729.1,462.7,741.9,484.8,736.1,506.4z"/>
</svg>
