<?xml version="1.0" encoding="UTF-8"?><svg id="Layer_1" xmlns="http://www.w3.org/2000/svg" viewBox="0 0 60 60"><path d="m45.5,30.21c2.02-2.39,3.22-5.45,3.22-8.71,0-7.53-6.11-13.64-13.64-13.64H10.23v5.19c5.02-1.59,11.05.59,13.72,3.85,0,0,12.72-1.09,14.48,7.2,0,0-12.05-5.1-18.66,4.35-1.59,2.26-2.01,4.94-2.93,8.28-1.84,6.19-2.85,10.79-5.27,15.65h8.7l3.1-14.48h4.63v-3.1c0-.1,0-.2.02-.3,0-.02,0-.05.01-.07,0,0,0-.01,0-.02.45-2.7,5.53-4.51,12.69-4.51,1.73,0,3.33.11,4.78.31Z"/><path d="m16.92,19.83h.08c1.42.17,2.68-.75,2.85-2.09l-5.44-.75.08.59c.17,1.26,1.17,2.18,2.43,2.26Z"/><path d="m40.72,50.66c-2,0-3.71-.14-5.2-.37-2.51-.39-4.32-1.04-5.52-1.78v4.2s1.89,2.71,10.72,2.71,10.72-2.71,10.72-2.71v-4.2c-1.11.68-2.72,1.29-4.93,1.69-1.61.29-3.52.46-5.79.46Z"/><path d="m40.72,43.82c-4.83,0-8.07-.79-10.07-1.8-.23-.12-.45-.24-.65-.36v4.28s.17.23.61.56c.59.43,1.68,1.03,3.56,1.49,1.57.38,3.7.67,6.55.67,1.86,0,3.4-.12,4.69-.31,3.1-.45,4.7-1.3,5.44-1.86.42-.32.58-.54.58-.54v-4.28c-1.67,1.02-4.48,1.89-8.74,2.1-.63.03-1.28.05-1.98.05Z"/><path d="m51.44,34.75s0,0,0,0c-.11-.74-2.5-2.29-7.77-2.72-.9-.07-1.87-.12-2.94-.12-7.35,0-10.59,1.98-10.71,2.84,0,0,0,0,0,0,0,.02,0,.03,0,.04,0,0,0,0,0,0h0v4.31s.25.35.98.81c1.29.8,4.09,1.91,9.74,1.91.29,0,.55-.01.82-.02,5.18-.1,7.78-1.15,8.97-1.91.69-.44.93-.78.93-.78v-4.31h0s0-.03,0-.05Z"/></svg>