<?xml version="1.0" encoding="utf-8"?>
<!-- Generator: Adobe Illustrator 27.6.1, SVG Export Plug-In . SVG Version: 6.00 Build 0)  -->
<svg version="1.1" id="Layer_2" xmlns="http://www.w3.org/2000/svg" xmlns:xlink="http://www.w3.org/1999/xlink" x="0px" y="0px"
	 viewBox="0 0 1024 1024" style="enable-background:new 0 0 1024 1024;" xml:space="preserve">
<g>
	<path d="M252.6,299.3l2.3,0.2c27.8,2.3,52.8-16.9,57.7-44.3l-113-16.2l1.9,12.5C205.5,277.4,226.6,297.1,252.6,299.3z"/>
	<path d="M707.6,605.1C828.6,570.4,913.2,458,913.2,331.9c0-156.8-127.4-284.4-284-284.4H110.8l0.1,109.1
		c105-33.6,231,12.6,286.2,80.4c0,0,264.9-22.9,302.8,149.4c0,0-3.3-1.4-9.1-3.5c-0.2-0.1-0.4-0.1-0.6-0.2c-1.3-0.5-2.7-1-4.2-1.5
		c-0.5-0.2-1-0.3-1.5-0.5c-1.4-0.5-3-1-4.6-1.5c-0.8-0.2-1.5-0.5-2.3-0.7c-1.5-0.5-3.2-1-4.9-1.5c-1-0.3-2-0.6-3.1-0.9
		c-1.6-0.5-3.4-1-5.1-1.5c-1.2-0.3-2.5-0.7-3.7-1c-1.8-0.5-3.7-1-5.5-1.5c-1.4-0.4-2.8-0.7-4.3-1.1c-1.9-0.5-3.8-0.9-5.8-1.4
		c-1.6-0.4-3.2-0.8-4.9-1.1c-2-0.5-4-0.9-6.1-1.3c-1.8-0.4-3.5-0.7-5.4-1.1c-2.1-0.4-4.2-0.8-6.4-1.2c-1.9-0.4-3.9-0.7-5.8-1
		c-2.2-0.4-4.4-0.7-6.7-1.1c-2-0.3-4.1-0.6-6.2-0.9c-2.3-0.3-4.6-0.6-6.9-0.9c-2.2-0.3-4.4-0.5-6.6-0.8c-2.3-0.3-4.7-0.5-7.1-0.7
		c-2.3-0.2-4.6-0.4-7-0.6c-2.4-0.2-4.8-0.3-7.3-0.5c-2.4-0.1-4.8-0.2-7.3-0.3c-2.5-0.1-4.9-0.2-7.4-0.2c-2.5,0-5.1,0-7.6,0
		c-2.5,0-4.9,0-7.4,0.1c-2.6,0.1-5.3,0.2-7.9,0.3c-2.5,0.1-5,0.2-7.5,0.4c-2.7,0.2-5.4,0.4-8.1,0.7c-2.5,0.2-5,0.5-7.6,0.7
		c-2.7,0.3-5.5,0.7-8.3,1.1c-2.5,0.4-5.1,0.7-7.6,1.1c-2.8,0.5-5.6,1-8.4,1.6c-2.5,0.5-5.1,1-7.6,1.5c-2.8,0.6-5.7,1.4-8.5,2.1
		c-2.5,0.6-5,1.2-7.6,1.9c-2.9,0.8-5.7,1.7-8.6,2.6c-2.5,0.8-5,1.5-7.5,2.4c-2.9,1-5.8,2.1-8.7,3.3c-2.4,0.9-4.9,1.8-7.3,2.8
		c-2.9,1.2-5.9,2.6-8.8,4c-2.4,1.1-4.7,2.1-7.1,3.3c-3,1.5-5.9,3.1-8.9,4.7c-2.3,1.2-4.6,2.4-6.8,3.8c-3,1.8-6,3.7-9,5.6
		c-2.2,1.4-4.3,2.7-6.5,4.2c-3.1,2.1-6.1,4.4-9.1,6.7c-2,1.5-4,2.9-6,4.5c-3.2,2.5-6.3,5.3-9.4,8c-1.8,1.6-3.6,3-5.4,4.7
		c-3.3,3.1-6.6,6.4-9.9,9.7c-1.5,1.5-3,2.9-4.4,4.4c-3.9,4.1-7.7,8.6-11.5,13.1c-0.8,0.9-1.5,1.7-2.3,2.6c-4.5,5.6-9,11.4-13.3,17.5
		c-3.8,5.4-7.2,10.9-10.3,16.5c-0.9,1.5-1.7,3.1-2.5,4.7c-2.3,4.3-4.5,8.7-6.5,13.1c-0.7,1.6-1.5,3.2-2.2,4.8
		c-2.5,5.7-4.8,11.6-7,17.6c0,0.1-0.1,0.2-0.1,0.4c-2.3,6.4-4.4,13-6.5,19.7c-0.5,1.5-0.9,3-1.4,4.5c-1.6,5.5-3.3,11.2-4.8,16.9
		c-0.4,1.3-0.7,2.7-1.1,4.1c-2,7.2-3.9,14.6-5.9,22.2c-4,15.4-8.2,31.4-13.1,48.3c-7.2,24.7-13.9,48.2-20.3,70.7
		c-2.6,9.2-5.1,18.1-7.7,26.9c-2,7-4,13.9-6,20.7c-1.7,5.8-3.4,11.8-5.1,17.5c-3.5,11.9-7,23.5-10.6,35c-1.1,3.7-2.3,7.3-3.5,11
		c-2.7,8.3-5.3,16.6-8.1,24.8c-1.5,4.4-3,8.7-4.5,13.1c-2.7,7.7-5.5,15.3-8.3,22.9c-1.6,4.2-3.1,8.3-4.7,12.5
		c-3.7,9.6-7.7,19.3-11.8,28.9c-0.8,1.9-1.5,3.7-2.3,5.6c-5.4,12.3-11.1,24.7-17.2,37.1h181.4L383.9,674h102.4l179.1,302.5H896
		L682,618.2l23-12.3L707.6,605.1z"/>
</g>
</svg>
