<!-- Generated by IcoMoon.io -->
<svg version="1.1" xmlns="http://www.w3.org/2000/svg" width="1024" height="1024" viewBox="0 0 1024 1024">
<title></title>
<g id="icomoon-ignore">
</g>
<path d="M320 550.4c32 100.8 44.8 214.4 44.8 214.4 27.2-51.2 153.6-545.6-353.6-585.6 70.4 33.6 121.6 73.6 147.2 96 0 0 54.4 40 96 115.2 36.8 65.6 65.6 160 65.6 160zM876.8 408c-51.2-59.2-108.8-73.6-145.6-81.6-67.2-12.8-136 1.6-169.6 9.6-120-156.8-384-161.6-384-161.6 89.6 28.8 150.4 72 190.4 120l30.4-1.6-19.2 17.6c4.8 8 11.2 14.4 14.4 22.4l51.2-8-36.8 38.4c89.6 300.8-64 484.8-64 484.8 124.8-43.2 292.8-230.4 425.6-299.2 128-67.2 248-1.6 240-25.6-14.4-52.8-132.8-115.2-132.8-115.2zM800 425.6c-11.2 0-27.2-4.8-40-17.6-11.2-11.2-8-16 3.2-16 14.4 0 43.2 11.2 65.6 30.4 1.6 1.6-12.8 4.8-28.8 3.2z"></path>
</svg>
