<!-- Generated by IcoMoon.io -->
<svg version="1.1" xmlns="http://www.w3.org/2000/svg" width="1024" height="1024" viewBox="0 0 1024 1024">
<title></title>
<g id="icomoon-ignore">
</g>
<path d="M1024 710.4l-305.6-307.2c-3.2 0-6.4 1.6-9.6 1.6v169.6l134.4 136-136 134.4h1.6v179.2l315.2-313.6zM612.8 574.4h-140.8l134.4 136-136 134.4h140.8l136-134.4zM404.8 611.2c-36.8 28.8-72 56-107.2 76.8v156.8h72l134.4-134.4-99.2-99.2zM225.6 598.4c16-30.4 65.6-208 4.8-361.6-17.6-43.2-43.2-84.8-81.6-120-32-30.4-72-54.4-123.2-73.6-43.2-16-94.4-27.2-153.6-32 70.4 33.6 121.6 73.6 147.2 96 0 0 54.4 40 96 115.2 36.8 65.6 65.6 160 65.6 160 19.2 60.8 32 128 38.4 169.6 4.8 28.8 6.4 46.4 6.4 46.4zM371.2 576c88-70.4 179.2-153.6 259.2-193.6 128-67.2 248-1.6 240-25.6-14.4-52.8-132.8-115.2-132.8-115.2-51.2-59.2-108.8-73.6-145.6-81.6-67.2-12.8-136 1.6-169.6 9.6-94.4-124.8-280-153.6-353.6-160-19.2-1.6-30.4-1.6-30.4-1.6 59.2 19.2 107.2 44.8 142.4 73.6 19.2 14.4 35.2 30.4 48 46.4l30.4-1.6-19.2 17.6c4.8 8 11.2 14.4 14.4 22.4l51.2-8-36.8 38.4c3.2 9.6 4.8 17.6 8 27.2 73.6 284.8-72 457.6-72 457.6 12.8-4.8 27.2-11.2 40-17.6 17.6-9.6 33.6-19.2 52.8-32 24-17.6 48-35.2 73.6-56zM624 225.6c14.4 0 43.2 11.2 65.6 30.4 1.6 1.6-12.8 4.8-28.8 3.2-11.2 0-27.2-4.8-40-17.6-11.2-11.2-8-16 3.2-16z"></path>
</svg>
