<!-- Generated by IcoMoon.io -->
<svg version="1.1" xmlns="http://www.w3.org/2000/svg" width="1024" height="1024" viewBox="0 0 1024 1024">
<title></title>
<g id="icomoon-ignore">
</g>
<path d="M592.3 592.3v-243.2h-243.2v243.2zM267.6 673.8v-406.2h406.1v349c35.4-24.3 78.2-38.5 124.3-38.5 13.7 0 27 1.3 40 3.6v-71h-82.8v-81.5h81.5v1.3-81.5h-81.5v-163h-163v-80h-81.5v80.2h-81.5v-80.2h-81.5v80.2h-163v163h-78.7v81.5h80.2v81.5h-80.2v81.5h80.2v163h163v81.3h81.5v-82.8h81.5v81.5h69.4c-2.2-12.6-3.4-25.5-3.4-38.7 0-46.1 14.2-88.9 38.5-124.3h-349.1zM798.1 626c-95.1 0-172.1 77-172.1 172.1s77 172.1 172.1 172.1 172.1-77 172.1-172.1-77.1-172.1-172.1-172.1zM902.1 835h-67.1v67.1h-73.9v-67.1h-67.1v-73.9h67.1v-67.1h73.9v67.1h67.1v73.9z"></path>
</svg>
