<?xml version="1.0" encoding="utf-8"?>
<!-- Generator: Adobe Illustrator 28.3.0, SVG Export Plug-In . SVG Version: 6.00 Build 0)  -->
<svg version="1.1" id="Layer_1" xmlns="http://www.w3.org/2000/svg" xmlns:xlink="http://www.w3.org/1999/xlink" x="0px" y="0px"
	 viewBox="0 0 1024 1024" style="enable-background:new 0 0 1024 1024;" xml:space="preserve">
<g>
	<path d="M675.2,191.1L490.1,6H108.6v771.7h566.6V191.1z M387.6,573.1c-21.2,21.2-46.2,31.4-76.8,31.4c-30.6,0-55.7-10.2-76.8-31.4
		c-21.2-21.2-31.4-47-31.4-76.8s11-55.7,30.6-76.8l61.1-61.1l29,29l-61.1,61.1c-13.3,13.3-20.4,29.8-19.6,47.8
		c0,18.8,7.1,33.7,19.6,47c12.5,13.3,29,18.8,47,19.6c18.8,0,34.5-6.3,47.8-19.6l61.1-61.1l30.6,29.8L387.6,573.1z M433.3,343.5
		l29.9,29.9L340.7,495.9L310.8,466L433.3,343.5z M539.7,419.5l-61.1,61.1l-29-29l60.4-61.1c13.3-12.5,19.6-28.2,19.6-47
		c0-18.8-7.1-34.5-19.6-47c-12.5-13.3-28.2-19.6-47-19.6c-18.8,0-34.5,7.1-47,19.6l-61.1,61.1l-29-29l61.1-61.1
		c21.2-20.4,46.3-32.1,76-32.9c30.6,0,55.7,10.2,76.8,31.4c21.2,21.2,31.4,47,31.4,76.8C571.1,373.2,560.9,398.3,539.7,419.5z"/>
	<polygon points="795.3,311.3 735.6,251.6 735.6,838.1 228.7,838.1 228.7,897.9 795.3,897.9 	"/>
	<polygon points="855.7,371.8 855.7,371.8 855.7,958.3 348.7,958.3 348.7,1018 915.4,1018 915.4,431.5 	"/>
</g>
</svg>
