<!-- Generated by IcoMoon.io -->
<svg version="1.1" xmlns="http://www.w3.org/2000/svg" width="1024" height="1024" viewBox="0 0 1024 1024">
<title></title>
<g id="icomoon-ignore">
</g>
<path d="M358.98 859.477h-59.733v59.733h221.286c-6.803-17.131-12.336-37.23-15.669-58.064l-0.22-1.669zM865.911 332.68l-59.733-59.733v247.023c21.59 0.81 42.073 3.825 61.76 8.834l-2.027-0.437zM985.958 452.847l-59.733-59.733v157.44c22.747 11.445 42.358 24.578 60.134 39.793l-0.401-0.335zM551.987 979.643h-132.693v59.733h186.914c-20.642-17.357-38.529-36.995-53.576-58.749l-0.644-0.985zM745.813 212.48l-185.173-185.19h-381.44v296.329h59.733v-236.595h296.96l150.187 150.187v303.241c17.108-7.025 37.176-12.801 57.997-16.376l1.736-0.247zM238.933 739.294v-236.681h-59.733v296.414h322.236c1.088-21.721 4.354-42.159 9.598-61.789l-0.467 2.056zM297.472 535.21l42.24 42.24 164.284-164.284-164.284-164.301-42.24 42.223 92.194 92.211h-351.625v59.733h351.625l-92.194 92.177zM702.72 989.474c-33.655 0-52.173-19.115-52.173-53.794v-82.039l-35.345-34.611v-14.473l35.345-34.441v-70.707c0-34.697 18.517-53.811 52.173-53.811h45.005v55.757h-9.301c-1.553 0-4.318-0.137-8.311-0.393-3.413-0.205-6.127-0.324-8.021-0.324-11.503 0-11.503 3.413-11.503 5.769v63.505c0.036 0.703 0.057 1.527 0.057 2.355 0 5.793-1.015 11.349-2.878 16.5l0.107-0.338c-2.943 5.761-6.969 10.573-11.849 14.332l-0.098 0.072-11.076 9.131 11.042 9.335c5.043 3.913 9.11 8.836 11.939 14.486l0.11 0.242c1.659 4.577 2.618 9.859 2.618 15.366 0 0.814-0.021 1.624-0.062 2.428l0.005-0.113v74.257c0 2.509 0 6.315 11.947 6.315 1.809 0 4.403-0.102 7.782-0.256 3.823-0.205 6.485-0.29 8.021-0.29h9.301v55.74zM830.669 989.474v-55.74h9.284c1.399 0 4.011 0.085 7.834 0.29 3.413 0.154 5.973 0.256 7.782 0.256 12.578 0 12.578-3.942 12.578-6.315v-74.257c-0.037-0.718-0.058-1.559-0.058-2.404 0-5.59 0.914-10.967 2.601-15.989l-0.103 0.354c2.794-5.851 6.85-10.7 11.841-14.347l0.106-0.074 10.974-9.284-10.957-9.045c-5.241-3.912-9.38-9.020-12.054-14.932l-0.097-0.24c-1.462-4.537-2.305-9.757-2.305-15.174 0-0.936 0.025-1.866 0.075-2.789l-0.006 0.129v-63.505c0-2.099 0-5.598-12.032-5.598-1.929 0-4.642 0-8.158 0.256-3.942 0.188-6.605 0.29-8.004 0.29h-9.284v-55.757h44.834c1.456-0.157 3.144-0.247 4.853-0.247 26.448 0 47.889 21.441 47.889 47.889 0 2.175-0.145 4.316-0.426 6.414l0.027-0.245v70.707l35.345 34.441v14.473l-35.345 34.611v82.039c0.253 1.847 0.397 3.983 0.397 6.151 0 26.448-21.441 47.889-47.889 47.889-1.709 0-3.396-0.089-5.059-0.264l0.207 0.018z"></path>
</svg>
