<!-- Generated by IcoMoon.io -->
<svg version="1.1" xmlns="http://www.w3.org/2000/svg" width="1024" height="1024" viewBox="0 0 1024 1024">
<title></title>
<g id="icomoon-ignore">
</g>
<path d="M513.6 761.6v-123.2l-166.4 163.2 166.4 166.4v-123.2c89.6 0 166.4-32 232-96 64-64 96-142.4 96-233.6 0-62.4-16-121.6-49.6-176l-59.2 59.2c19.2 36.8 28.8 75.2 28.8 115.2-1.6 68.8-25.6 126.4-73.6 174.4-48 49.6-107.2 73.6-174.4 73.6zM513.6 184c-91.2 0-169.6 32-233.6 96s-96 142.4-96 233.6c0 62.4 16 121.6 49.6 176l62.4-59.2c-19.2-35.2-28.8-75.2-28.8-115.2 0-68.8 24-126.4 72-174.4s105.6-72 174.4-72v123.2l163.2-163.2-163.2-168v123.2z"></path>
</svg>
