<!-- Generated by IcoMoon.io -->
<svg version="1.1" xmlns="http://www.w3.org/2000/svg" width="1024" height="1024" viewBox="0 0 1024 1024">
<title></title>
<g id="icomoon-ignore">
</g>
<path d="M856 297.6l-64 60.8c25.6 46.4 40 97.6 40 153.6 0 176-144 320-320 320-59.2 0-115.2-16-163.2-44.8l142.4 217.6 19.2-83.2c112 0 209.6-40 288-118.4s118.4-176 118.4-288c0-78.4-19.2-150.4-60.8-217.6zM512 192c59.2 0 115.2 16 163.2 44.8l-142.4-216-19.2 83.2c-112 0-209.6 40-288 118.4s-118.4 176-118.4 288c0 76.8 19.2 150.4 60.8 217.6l64-60.8c-25.6-46.4-40-99.2-40-155.2 0-176 144-320 320-320zM352 420.8h92.8v284.8h-92.8v-284.8zM481.6 318.4h91.2v387.2h-91.2v-387.2zM609.6 518.4h92.8v187.2h-92.8v-187.2z"></path>
</svg>
