<!-- Generated by IcoMoon.io -->
<svg version="1.1" xmlns="http://www.w3.org/2000/svg" width="1024" height="1024" viewBox="0 0 1024 1024">
<title></title>
<g id="icomoon-ignore">
</g>
<path d="M872.107 674.133v-191.147c0-169.662-137.538-307.2-307.2-307.2v0h-160.427l105.813 124.587h56.32c99.912 0 180.907 80.995 180.907 180.907v0 192.853h-151.893l213.333 250.88 213.333-250.88h-150.187zM151.893 349.867v191.147c0 169.662 137.538 307.2 307.2 307.2v0h160.427l-105.813-124.587h-54.613c-0.507 0.005-1.107 0.008-1.707 0.008-99.912 0-180.907-80.995-180.907-180.907 0-0.003 0-0.006 0-0.009v0.001-192.853h151.893l-213.333-250.88-213.333 250.88h150.187z"></path>
</svg>
