<!-- Generated by IcoMoon.io -->
<svg version="1.1" xmlns="http://www.w3.org/2000/svg" width="1024" height="1024" viewBox="0 0 1024 1024">
<title></title>
<g id="icomoon-ignore">
</g>
<path d="M163.2 793.6c0 19.2 6.4 35.2 20.8 48 12.8 12.8 30.4 20.8 49.6 20.8h486.4v-68.8h-486.4v-488h-70.4v488zM860.8 235.2c0-19.2-6.4-35.2-20.8-48-12.8-12.8-30.4-20.8-49.6-20.8h-417.6c-19.2 0-36.8 6.4-49.6 20.8s-20.8 30.4-20.8 48v417.6c0 19.2 6.4 36.8 20.8 49.6 12.8 12.8 30.4 20.8 49.6 20.8h417.6c19.2 0 36.8-6.4 49.6-20.8 12.8-12.8 20.8-30.4 20.8-49.6v-417.6zM616 619.2h-208v-70.4h208v70.4zM755.2 480h-348.8v-70.4h348.8v70.4zM755.2 339.2h-348.8v-68.8h348.8v68.8z"></path>
</svg>
