<!-- Generated by IcoMoon.io -->
<svg version="1.1" xmlns="http://www.w3.org/2000/svg" width="1024" height="1024" viewBox="0 0 1024 1024">
<title></title>
<g id="icomoon-ignore">
</g>
<path d="M513.6 184c99.2 0 184 35.2 256 107.2 70.4 70.4 107.2 156.8 107.2 257.6s-35.2 185.6-107.2 257.6c-70.4 70.4-156.8 107.2-257.6 107.2s-185.6-35.2-257.6-107.2c-70.4-70.4-107.2-156.8-107.2-257.6h92.8c0 75.2 27.2 139.2 80 193.6 52.8 52.8 118.4 80 193.6 80s139.2-27.2 193.6-80c52.8-52.8 80-118.4 80-193.6s-27.2-139.2-80-193.6c-52.8-52.8-118.4-80-193.6-80v184l-228.8-230.4 228.8-228.8v184z"></path>
</svg>
