<!-- Generated by IcoMoon.io -->
<svg version="1.1" xmlns="http://www.w3.org/2000/svg" width="1024" height="1024" viewBox="0 0 1024 1024">
<title></title>
<g id="icomoon-ignore">
</g>
<path d="M465.306 17.442h93.389v505.173h-93.389v-505.173zM807.526 222.874l98.714-99.652-262.11-1.092 0.119 267.947 98.679-99.652c59.68 57.223 96.767 137.607 96.767 226.652 0 1.108-0.006 2.214-0.017 3.319l0.001-0.169c0.039 1.837 0.061 4.003 0.061 6.173 0 87.974-36.2 167.494-94.516 224.475l-0.060 0.058c-57.217 59.659-137.585 96.733-226.612 96.733-1.104 0-2.206-0.006-3.307-0.017l0.168 0.001c-1.842 0.039-4.013 0.061-6.189 0.061-87.959 0-167.462-36.201-224.425-94.516l-0.059-0.061c-59.67-57.227-96.749-137.608-96.749-226.65 0-1.090 0.006-2.18 0.017-3.268l-0.001 0.166c-0.038-1.829-0.060-3.986-0.060-6.147 0-87.972 36.2-167.489 94.515-224.468l0.060-0.058c27.449-28.109 59.903-51.186 95.943-67.814l2.002-0.828v-101.7c-65.625 22.034-121.574 57.934-166.638 104.443l-0.104 0.108c-75.635 73.364-122.575 175.94-122.575 289.481 0 2.654 0.026 5.302 0.077 7.943l-0.006-0.396c-0.010 1.040-0.015 2.269-0.015 3.499 0 114.93 48.087 218.629 125.238 292.075l0.166 0.157c73.044 76.34 175.739 123.791 289.518 123.791 3.013 0 6.018-0.033 9.015-0.099l-0.447 0.008c0.222 0 0.484 0.001 0.746 0.001 115.787 0 220.353-48.044 294.85-125.284l0.118-0.123c75.644-73.36 122.591-175.938 122.591-289.481 0-2.63-0.025-5.253-0.075-7.871l0.006 0.392c0.011-1.095 0.017-2.389 0.017-3.684 0-115.629-48.058-220.033-125.29-294.327l-0.132-0.126z"></path>
</svg>
