<!-- Generated by IcoMoon.io -->
<svg version="1.1" xmlns="http://www.w3.org/2000/svg" width="1024" height="1024" viewBox="0 0 1024 1024">
<title></title>
<g id="icomoon-ignore">
</g>
<path d="M74.189 294.502c33.684 18.502 72.865 32.225 114.387 38.97l2.11 0.283c32.808 6.195 71.481 10.509 110.879 11.988l1.47 0.044v-9.984c0-39.765 23.074-72.482 68.574-97.28 38.412-20.298 82.983-35.827 130.025-44.217l2.788-0.412c47.561-8.867 102.282-13.938 158.187-13.938 2.515 0 5.028 0.010 7.539 0.031l-0.384-0.002v-54.835c0-19.627-13.090-35.345-41.882-52.361-33.684-18.502-72.865-32.225-114.387-38.97l-2.11-0.283c-45.427-8.333-97.703-13.098-151.091-13.098-3.024 0-6.045 0.015-9.062 0.046l0.46-0.004c-2.776-0.032-6.056-0.050-9.34-0.050-53.131 0-105.148 4.775-155.643 13.918l5.29-0.795c-44.174 7.762-83.696 21.421-120.046 40.336l2.286-1.082c-28.809 15.718-41.899 32.734-41.899 52.361v116.992c-0.051 19.627 13.039 35.328 41.847 52.343zM303.548 622.199c-48.415-2.575-93.675-8.635-137.712-18.003l5.736 1.022c-52.287-8.97-98.975-27.293-140.347-53.296l1.595 0.936v135.322c0 18.33 13.090 35.345 41.882 52.361 33.684 18.502 72.865 32.225 114.387 38.97l2.11 0.283c32.823 6.169 71.502 10.453 110.905 11.904l1.445 0.042zM171.571 382.293c-52.287-8.98-98.973-27.302-140.35-53.297l1.598 0.937v135.322c0 19.627 13.090 35.328 41.882 52.361 33.684 18.502 72.865 32.225 114.387 38.97l2.11 0.283c32.803 6.15 71.48 10.434 110.878 11.903l1.472 0.044v-105.916c-0.326-2.983-0.512-6.443-0.512-9.946 0-0.049 0-0.099 0-0.148v0.008-53.726c-48.319-2.634-93.405-8.624-137.314-17.818l5.85 1.025zM513.929 244.19c45.197-8.36 97.205-13.141 150.328-13.141 3.292 0 6.58 0.018 9.864 0.055l-0.499-0.004c2.546-0.027 5.554-0.042 8.566-0.042 53.403 0 105.689 4.778 156.456 13.929l-5.329-0.797c43.632 7.028 82.813 20.752 118.409 40.211l-1.912-0.957c28.809 17.067 41.899 32.717 41.899 52.361v116.992c0 19.627-13.090 36.642-41.899 52.361-33.695 18.096-72.82 31.778-114.183 38.923l-2.314 0.331c-46.069 8.349-99.092 13.124-153.231 13.124-2.734 0-5.465-0.012-8.193-0.036l0.417 0.003c-2.54 0.027-5.541 0.042-8.545 0.042-53.41 0-105.704-4.778-156.479-13.929l5.331 0.797c-43.632-7.028-82.813-20.752-118.409-40.211l1.912 0.957c-28.791-17.067-41.882-32.734-41.882-52.361v-116.975c0-19.644 13.090-36.659 41.882-52.361 34.064-17.833 73.586-31.492 115.272-38.888l2.488-0.366zM493.449 592.862c54.378 11.655 116.851 18.33 180.884 18.33 0.374 0 0.748 0 1.122-0.001h-0.058c0.89 0.003 1.943 0.005 2.997 0.005 63.357 0 125.155-6.677 184.728-19.365l-5.778 1.031c50.481-8.474 95.486-26.847 134.753-53.125l-1.241 0.782v135.322c0 19.644-13.090 36.659-41.882 52.361-33.695 18.093-72.82 31.774-114.182 38.922l-2.315 0.331c-45.201 8.36-97.211 13.141-150.338 13.141-3.289 0-6.574-0.018-9.854-0.055l0.499 0.004c-2.546 0.027-5.554 0.042-8.566 0.042-53.403 0-105.689-4.778-156.456-13.929l5.329 0.797c-43.639-7.032-82.825-20.755-118.429-40.212l1.915 0.958c-28.791-17.067-41.882-32.717-41.882-52.361v-135.322c39.779 25.053 86.466 43.369 136.465 52.016l2.287 0.327zM493.449 815.889c54.014 11.655 116.065 18.33 179.676 18.33 0.355 0 0.71 0 1.065-0.001h-0.055c0.572 0.001 1.251 0.002 1.929 0.002 63.73 0 125.901-6.676 185.852-19.365l-5.834 1.034c50.488-8.475 95.499-26.854 134.769-53.142l-1.24 0.781v135.322c0 19.627-13.090 36.642-41.899 52.361-33.695 18.096-72.82 31.778-114.183 38.923l-2.314 0.331c-44.827 8.349-96.404 13.124-149.096 13.124-3.264 0-6.523-0.018-9.778-0.055l0.495 0.004c-2.535 0.026-5.531 0.041-8.53 0.041-53.414 0-105.714-4.771-156.497-13.911l5.334 0.796c-43.639-7.032-82.825-20.755-118.429-40.212l1.915 0.958c-28.791-17.067-41.882-34.048-41.882-52.361v-135.322c39.779 25.057 86.465 43.378 136.464 52.033l2.288 0.328z"></path>
</svg>
