<!-- Generated by IcoMoon.io -->
<svg version="1.1" xmlns="http://www.w3.org/2000/svg" width="1024" height="1024" viewBox="0 0 1024 1024">
<title></title>
<g id="icomoon-ignore">
</g>
<path d="M396.698 755.2c-25.719-3.14-50.961-7.014-75.093-12.066-55.239-9.491-104.56-28.845-148.276-56.303l1.69 0.99v142.95c0 19.354 13.841 37.325 44.254 55.313 35.584 19.544 76.974 34.043 120.838 41.173l2.23 0.299c17.715 3.26 35.84 5.683 54.374 7.748zM175.002 452.181v142.95c0 20.736 13.841 37.325 44.254 55.296 18.173 10.542 39.198 19.69 61.302 26.349l2.118 0.548c0.809-4.691 2.609-8.856 5.181-12.428l-0.061 0.088 106.803-145.783c-24.764-3.089-49.186-6.827-73.011-11.708-55.239-9.491-104.56-28.845-148.276-56.303l1.69 0.99zM628.275 519.953l106.257 145.067c2.425 3.379 4.183 7.404 4.989 11.764l0.028 0.183c24.089-6.978 45.038-15.981 64.563-27.185l-1.416 0.749c30.43-16.589 44.254-34.56 44.254-55.296v-143.053c-40.17 26.94-87.712 46.355-138.91 55.015l-2.129 0.298c-24.439 5.257-50.671 9.284-77.636 12.459zM625.647 755.643v179.524c17.988-2.048 35.669-4.437 52.685-7.663 46.141-7.897 87.472-22.351 125.274-42.548l-2.206 1.076c30.43-16.606 44.254-34.577 44.254-55.313v-142.95c-40.17 26.94-87.712 46.355-138.91 55.015l-2.129 0.298c-24.781 5.291-51.524 9.37-78.967 12.561zM803.618 180.633c-35.582-19.57-76.971-34.091-120.835-41.24l-2.232-0.3c-48.003-8.823-103.243-13.868-159.661-13.868-3.173 0-6.343 0.016-9.508 0.048l0.483-0.004c-2.936-0.034-6.404-0.053-9.877-0.053-56.126 0-111.073 5.049-164.412 14.717l5.585-0.84c-46.683 8.195-88.45 22.626-126.864 42.615l2.414-1.143c-30.413 16.606-44.254 34.577-44.254 55.313v123.597c0 20.736 13.841 37.325 44.254 55.296 35.583 19.558 76.974 34.064 120.84 41.191l2.227 0.299c25.503 4.87 56.631 8.813 88.252 10.957l2.508 0.136 54.153-73.899c5.581-7.564 14.461-12.417 24.474-12.417s18.892 4.852 24.415 12.334l0.059 0.083 54.101 73.83c34.295-2.345 65.442-6.263 96.021-11.809l-5.21 0.784c46.141-7.893 87.473-22.354 125.269-42.564l-2.201 1.075c30.43-16.589 44.254-34.56 44.254-55.296v-123.529c0-20.736-13.824-37.325-44.254-55.313zM447.881 662.067v277.555h126.566v-277.555h94.481l-157.764-215.33-157.764 215.33h94.481z"></path>
</svg>
