<?xml version="1.0" encoding="utf-8"?>
<!-- Generator: Adobe Illustrator 26.1.0, SVG Export Plug-In . SVG Version: 6.00 Build 0)  -->
<svg version="1.1" id="Layer_1" xmlns="http://www.w3.org/2000/svg" xmlns:xlink="http://www.w3.org/1999/xlink" x="0px" y="0px"
	 viewBox="0 0 1024 1024" style="enable-background:new 0 0 1024 1024;" xml:space="preserve">
<g id="icomoon-ignore">
</g>
<path d="M252.8,244.8C326.4,171.2,416,134.4,520,134.4c105.6,0,193.6,36.8,267.2,110.4S897.6,408,897.6,512
	c0,105.6-36.8,195.2-110.4,267.2C713.6,852.8,624,889.6,520,889.6s-193.6-36.8-267.2-110.4l60.8-60.8c56,57.6,124.8,86.4,206.4,86.4
	s150.4-28.8,208-86.4s86.4-126.4,86.4-208S785.6,360,728,302.4S601.6,216,520,216s-150.4,28.8-208,86.4s-86.4,126.4-86.4,208H352
	L180.8,681.6l-1.6-6.4L16,512h126.4C142.4,406.4,179.2,318.4,252.8,244.8L252.8,244.8z"/>
</svg>
