<!-- Generated by IcoMoon.io -->
<svg version="1.1" xmlns="http://www.w3.org/2000/svg" width="1024" height="1024" viewBox="0 0 1024 1024">
<title></title>
<g id="icomoon-ignore">
</g>
<path d="M480.154 42.871h-38.724l-288.7 286.942v38.724h327.424v-325.666zM568.166 42.871v415.369h-415.437v545.758h697.088v-961.126zM660.48 885.76c-39.12 40.497-93.907 65.642-154.567 65.642-1.040 0-2.079-0.007-3.115-0.022l0.157 0.002c-1.557 0.042-3.39 0.065-5.228 0.065-59.953 0-114.020-25.201-152.187-65.587l-0.093-0.1 34.918-34.987c29.602 31.464 71.511 51.058 117.997 51.058 1.075 0 2.147-0.010 3.216-0.031l-0.16 0.002c0.392 0.003 0.855 0.005 1.319 0.005 93.531 0 169.353-75.822 169.353-169.353 0-0.464-0.002-0.927-0.006-1.39v0.071c0.003-0.392 0.005-0.855 0.005-1.319 0-93.531-75.822-169.353-169.353-169.353-0.464 0-0.927 0.002-1.39 0.006h0.071c-0.392-0.003-0.855-0.005-1.319-0.005-93.531 0-169.353 75.822-169.353 169.353 0 0.464 0.002 0.927 0.006 1.39v-0.071h74.377l-99.174 96.256-97.741-97.69h74.377c-0.153-2.979-0.24-6.468-0.24-9.978 0-58.416 24.106-111.201 62.912-148.952l0.048-0.046c39.121-40.507 93.915-65.658 154.583-65.658 1.029 0 2.055 0.007 3.080 0.022l-0.155-0.002c0.873-0.013 1.903-0.020 2.935-0.020 60.671 0 115.467 25.151 154.531 65.596l0.060 0.062c40.529 40.212 65.619 95.934 65.619 157.517s-25.090 117.305-65.605 157.503l-0.014 0.014zM600.747 796.108l-16.043 29.167-105.131-64.171v-122.522h36.454v105.028z"></path>
</svg>
