<!-- Generated by IcoMoon.io -->
<svg version="1.1" xmlns="http://www.w3.org/2000/svg" width="1024" height="1024" viewBox="0 0 1024 1024">
<title></title>
<g id="icomoon-ignore">
</g>
<path d="M832 228.8c-78.4-76.8-172.8-116.8-284.8-116.8s-206.4 38.4-284.8 116.8c-78.4 78.4-118.4 174.4-118.4 286.4h-134.4l174.4 172.8 1.6 6.4 182.4-180.8h-134.4c0-86.4 30.4-160 91.2-220.8s134.4-91.2 220.8-91.2c86.4 0 160 30.4 220.8 91.2s91.2 134.4 91.2 220.8c0 86.4-30.4 160-91.2 220.8s-134.4 91.2-220.8 91.2c-86.4 0-160-30.4-220.8-92.8l-62.4 67.2c80 78.4 174.4 116.8 284.8 116.8 112 0 206.4-38.4 284.8-116.8s116.8-172.8 116.8-284.8c1.6-112-38.4-208-116.8-286.4zM502.4 336v222.4l192 115.2 30.4-54.4-155.2-94.4v-188.8z"></path>
</svg>
