<!-- Generated by IcoMoon.io -->
<svg version="1.1" xmlns="http://www.w3.org/2000/svg" width="1024" height="1024" viewBox="0 0 1024 1024">
<title></title>
<g id="icomoon-ignore">
</g>
<path d="M686.4 107.2l-48-49.6h-254.4l-49.6 49.6h-176v102.4h707.2v-102.4zM486.4 396.8v134.4l115.2 70.4 17.6-32-92.8-57.6v-115.2zM296 611.2l108.8-105.6h-81.6c0-51.2 17.6-96 54.4-132.8 35.2-35.2 80-54.4 132.8-54.4 51.2 0 96 17.6 132.8 54.4 35.2 35.2 54.4 80 54.4 132.8 0 51.2-17.6 96-54.4 132.8-35.2 35.2-80 54.4-132.8 54.4s-97.6-19.2-132.8-56l-38.4 38.4c48 49.6 105.6 72 172.8 72s124.8-24 172.8-72 72-105.6 72-172.8c0-67.2-24-124.8-72-172.8s-105.6-72-172.8-72-124.8 24-172.8 72c-48 48-70.4 105.6-68.8 174.4h-81.6l107.2 107.2zM372.8 257.6h-163.2v216h20.8c9.6-92.8 64-171.2 142.4-216zM795.2 504c0 156.8-126.4 283.2-283.2 283.2-120 0-222.4-73.6-264-179.2l-40-38.4v294.4c0 28.8 9.6 52.8 27.2 73.6 20.8 20.8 43.2 28.8 73.6 28.8h406.4c25.6 0 49.6-9.6 68.8-28.8 20.8-20.8 28.8-43.2 28.8-73.6v-606.4h-161.6c86.4 49.6 144 140.8 144 246.4z"></path>
</svg>
