<!-- Generated by IcoMoon.io -->
<svg version="1.1" xmlns="http://www.w3.org/2000/svg" width="1024" height="1024" viewBox="0 0 1024 1024">
<title></title>
<g id="icomoon-ignore">
</g>
<path d="M891.2 864h-84.8c0-1.6 0-3.2 0-4.8l-147.2-710.4c-3.2-24-22.4-41.6-46.4-41.6h-217.6c-22.4 0-43.2 16-46.4 40l-124.8 713.6c0 1.6 0 3.2 0 4.8h-91.2c-25.6 0-46.4 20.8-46.4 46.4s20.8 46.4 46.4 46.4h758.4c25.6 0 46.4-20.8 46.4-46.4 0-27.2-20.8-48-46.4-48zM412.8 323.2h185.6l30.4 144h-240l24-144zM340.8 737.6l24-140.8h289.6l28.8 140.8h-342.4z"></path>
</svg>
