<!-- Generated by IcoMoon.io -->
<svg version="1.1" xmlns="http://www.w3.org/2000/svg" width="1024" height="1024" viewBox="0 0 1024 1024">
<title></title>
<g id="icomoon-ignore">
</g>
<path d="M964.8 64c-8 54.4-14.4 107.2-25.6 158.4-19.2 88-52.8 171.2-107.2 243.2-51.2 70.4-116.8 124.8-190.4 168-56 32-113.6 59.2-171.2 89.6-12.8 6.4-22.4 4.8-32-6.4-43.2-44.8-88-89.6-132.8-132.8-8-8-9.6-14.4-6.4-25.6 38.4-92.8 86.4-179.2 147.2-257.6 76.8-100.8 177.6-164.8 297.6-201.6 65.6-20.8 134.4-33.6 203.2-36.8 3.2 0 6.4 1.6 17.6 1.6zM665.6 451.2c46.4 4.8 97.6-40 96-94.4-1.6-57.6-38.4-96-96-96-52.8-1.6-96 44.8-96 96 1.6 51.2 48 99.2 96 94.4zM131.2 876.8c-4.8-97.6 43.2-212.8 152-256-49.6 48-24 62.4-24 126.4 64 0 78.4 25.6 124.8-22.4-8 76.8-142.4 156.8-252.8 152zM395.2 344c-48 64-84.8 132.8-112 206.4-1.6 4.8-11.2 9.6-14.4 8-62.4-12.8-124.8-25.6-187.2-38.4-8-1.6-19.2-9.6-22.4-17.6-1.6-6.4 6.4-19.2 12.8-22.4 89.6-51.2 180.8-100.8 270.4-150.4 27.2-14.4 27.2-14.4 52.8 14.4zM680 627.2c28.8 25.6 28.8 25.6 11.2 57.6-48 88-97.6 176-147.2 264-3.2 6.4-16 14.4-22.4 12.8s-16-11.2-17.6-19.2c-12.8-60.8-25.6-123.2-36.8-185.6-1.6-4.8-3.2-8-4.8-14.4 78.4-27.2 150.4-64 217.6-115.2z"></path>
</svg>
