<!-- Generated by IcoMoon.io -->
<svg version="1.1" xmlns="http://www.w3.org/2000/svg" width="1024" height="1024" viewBox="0 0 1024 1024">
<title></title>
<g id="icomoon-ignore">
</g>
<path d="M452.062 702.822c5.513-0.614 10.991-1.382 16.401-2.321 36.752-5.997 69.58-19.086 98.354-37.869l-0.972 0.595 241.067 241.050 64.529-67.584-236.254-236.237c12.766-15.964 23.955-34.092 32.808-53.51l0.66-1.615c0.393-0.87 0.819-1.707 1.212-2.594 1.417-3.294 2.731-6.622 4.011-9.967 12.256-29.659 19.372-64.098 19.372-100.198 0-81.073-35.89-153.764-92.649-203.051l-0.331-0.281-66.082 66.065c40.917 32.901 66.883 82.957 66.883 139.076 0 98.304-79.671 178-177.966 178.039h-0.004v-76.954l-136.124 133.513 136.124 136.141v-100.523c8.789 0 17.459-0.597 26.061-1.451zM244.736 434.346c0.078-98.373 79.804-178.098 178.169-178.176h0.212v77.79l133.53-133.513-133.53-137.54v99.482h-0.205c-36.411 0.033-71.098 7.375-102.685 20.638l1.753-0.653c-1.092 0.444-2.219 0.785-3.294 1.229-2.219 0.939-4.318 2.065-6.502 3.072-23.328 10.523-43.431 23.289-61.438 38.464l0.39-0.32c-0.649 0.529-1.229 1.143-1.86 1.707-5.871 5.001-11.674 10.155-17.271 15.753-33.971 33.309-58.79 75.835-70.41 123.53l-0.365 1.774c-5.502 20.125-8.664 43.232-8.664 67.078 0 45.616 11.569 88.53 31.933 125.968l-0.69-1.387c0.58 1.109 1.178 2.202 1.707 3.294 2.714 4.966 5.393 9.933 8.414 14.711v0.102c14.937 23.555 32.388 43.78 52.383 61.155l0.335 0.285 65.673-65.519c-41.092-32.795-67.277-82.77-67.584-138.872v-0.051z"></path>
</svg>
