<!-- Generated by IcoMoon.io -->
<svg version="1.1" xmlns="http://www.w3.org/2000/svg" width="1024" height="1024" viewBox="0 0 1024 1024">
<title></title>
<g id="icomoon-ignore">
</g>
<path d="M586.803 344.081c12.331-20.016 28.056-36.711 46.543-49.755l0.527-0.353c20.427-14.584 44.85-24.979 71.3-29.386l1.012-0.139h-693.47v153.6h390.059v-43.264c0-16.966 13.754-30.72 30.72-30.72v0zM164.71 378.026h-75.196v-75.093h75.196zM12.715 493.26v153.6h390.059v-153.6zM164.71 606.856h-75.196v-75.23h75.196zM779.11 34.048h-766.396v153.6h766.396zM164.71 147.626h-75.196v-75.093h75.196zM696.73 801.57l-77.841-75.383-48.64 48.657 80.213 77.841 46.217 46.217 46.217-47.428 152.047-153.259-49.818-47.462zM1011.285 395.281h-164.267c-9.549-24.068-24.939-44.091-44.466-58.96l-0.334-0.244c-19.6-13.956-44.016-22.333-70.386-22.391h-0.014c-25.856 0.065-49.74 8.452-69.129 22.624l0.333-0.232c-20.212 14.782-35.705 34.916-44.51 58.325l-0.29 0.879h-164.25v637.338h557.312v-637.338zM704.614 406.476c7.828-8.529 19.027-13.857 31.471-13.857 23.564 0 42.667 19.103 42.667 42.667s-19.103 42.667-42.667 42.667c-23.564 0-42.667-19.103-42.667-42.667 0-0.001 0-0.001 0-0.002v0c-0.022-0.482-0.034-1.048-0.034-1.617 0-10.613 4.29-20.224 11.231-27.193l-0.001 0.001zM931.277 952.61h-397.329v-477.303h80.009v87.467h235.725v-87.467h80.009v477.303z"></path>
</svg>
