<!-- Generated by IcoMoon.io -->
<svg version="1.1" xmlns="http://www.w3.org/2000/svg" width="1024" height="1024" viewBox="0 0 1024 1024">
<title></title>
<g id="icomoon-ignore">
</g>
<path d="M977.613 270.711l-71.287-46.080 3.601 84.975h-80.657l3.601-84.975-71.287 46.080-40.311-69.854 75.605-38.878-75.605-38.878 40.311-69.854 71.27 46.080-3.584-84.958h80.657l-3.601 84.958 71.287-46.080 40.311 69.854-75.605 38.878 75.605 38.878zM0 0v153.6h595.729v-153.6zM151.996 113.596h-75.196v-75.196h75.196zM309.265 516.949l125.474-126.020h-434.739v153.6h281.805zM76.8 504.542v-75.213h75.196v75.213zM559.445 265.66l36.215-36.352v-33.041h-595.661v153.6h475.614zM76.8 309.862v-75.196h75.196v75.196zM845.909 772.727l-84.685-84.702-165.495 165.495-165.478-164.386-84.702 84.685 250.18 250.18 250.18-251.273zM345.549 553.062l84.702 84.702 165.547-165.547 165.376 164.369 84.685-84.685-250.129-250.112z"></path>
</svg>
