<!-- Generated by IcoMoon.io -->
<svg version="1.1" xmlns="http://www.w3.org/2000/svg" width="1024" height="1024" viewBox="0 0 1024 1024">
<title></title>
<g id="icomoon-ignore">
</g>
<path d="M251.733 365.602c-3.578-4.842-5.726-10.93-5.726-17.519 0-9.793 4.745-18.477 12.062-23.879l0.081-0.057 85.146-62.276h-314.027v153.6h258.935zM181.265 375.466h-75.196v-75.196h75.196zM566.443 415.471h12.578c4.206-0.949 7.904-2.678 11.106-5.040l-0.081 0.057 34.953-25.6v-123.017h-180.412l104.004 142.182c4.268 5.769 10.484 9.885 17.661 11.384l0.191 0.033zM624.998 65.604h-595.729v153.6h595.729zM181.265 179.2h-75.196v-75.196h75.196zM676.13 721.561c-0.018 16.369-13.291 29.631-29.662 29.631-3.2 0-6.282-0.507-9.17-1.445l0.21 0.059-86.511-27.409v43.998h-75.196v-67.84l-76.8-24.337v132.181h595.729v-153.6h-318.549zM399.002 1001.062h595.729v-153.6h-595.729zM475.802 885.862h75.196v75.213h-75.196zM676.267 456.533h318.447v153.6h-318.447v-153.6zM318.242 456.533h-288.973v153.6h291.43c1.954-3.119 4.368-5.751 7.181-7.883l0.073-0.053 39.151-28.638c7.398-5.459 12.143-14.143 12.143-23.936 0-6.589-2.149-12.677-5.784-17.6l0.057 0.081zM181.265 570.129h-75.196v-75.196h75.196zM627.644 695.825l0.205-252.877-72.26 52.838-156.826-214.409-96.768 70.793 156.826 214.391-72.243 52.855 241.067 76.407z"></path>
</svg>
