<?xml version="1.0" encoding="utf-8"?>
<!-- Generator: Adobe Illustrator 26.2.1, SVG Export Plug-In . SVG Version: 6.00 Build 0)  -->
<svg version="1.1" id="Layer_1" xmlns="http://www.w3.org/2000/svg" xmlns:xlink="http://www.w3.org/1999/xlink" x="0px" y="0px"
	 viewBox="0 0 1024 1024" style="enable-background:new 0 0 1024 1024;" xml:space="preserve">
<style type="text/css">
	.st0{fill:none;}
</style>
<g id="icomoon-ignore">
</g>
<g>
	<rect x="196.3" y="794.7" class="st0" width="77.5" height="77.5"/>
	<rect x="196.3" y="558.9" class="st0" width="77.5" height="77.5"/>
	<rect x="196.3" y="321.6" class="st0" width="77.5" height="77.5"/>
	<g>
		<path d="M414.2,677.4l21.7-43.4l4.8-9.6l0.9-1.9l1.1-1.8l20.5-34.7l26.9-47.5l0.4-0.6l0.4-0.6l4.8-8l5.8-9.7H117.2v158.2h297.4
			L414.2,677.4z M273.8,636.4h-77.5v-77.5h77.5V636.4z"/>
		<path d="M439.8,840.5l-1.2-2l-1-2.1l-4.8-9.6l-21.3-42.5l35.1-29.2H117.2v158.2v0h366l-24.3-41L439.8,840.5z M273.8,872.1h-77.5
			v-77.5h77.5V872.1z"/>
		<path d="M905.6,728c0-6.4,0-14.4-1.6-24l59.2-46.4l-56.4-96.1l-2.8-4.7L835.2,584c-12.8-9.6-25.6-17.6-40-24l-4.8-27.2l-2-13.4
			l-4.4-29.8H667.2l-4.5,29.8l-6.7,43.8c-12.8,6.4-27.2,14.4-40,24L547.2,560l-4.8,8l-27.2,48l-20.8,35.2l-4.8,9.6l16,12.8l5.2,4
			l38,29.6c0,9.6-1.6,17.6-1.6,24c0,6.4,0,14.3,1.6,23.9c0,0,0,0.1,0,0.1L505.6,784l-19.2,16l4.8,9.6l19.2,32l30.4,51.2l4.8,8
			l68.8-27.2c12.8,9.6,25.6,17.6,40,24l2.1,15.7l7.5,57.9c0,0,4.8,0,11.2,0h96c8,0,11.2,0,11.2,0l8.8-57.9l2.4-15.7
			c12.8-6.4,27.2-14.4,40-24l68.8,27.2l4.4-7.3l0.4-0.7l48-83.2l4.8-9.6l-56-48C905.6,742.4,905.6,734.4,905.6,728z M800,768
			c-3.2,8-9.6,14.4-16,20.8c-16,16-36.8,24-59.2,24c-8,0-14.4-1.6-20.8-3.2c-14.4-3.2-27.2-11.2-38.4-22.4
			c-6.4-6.4-12.8-14.4-16-22.4c-1.3-3.1-2.5-6.4-3.6-9.7c-2.7-8.6-4.4-17.9-4.4-27.1c0-19.7,5.4-36.2,16.3-50.4c2.3-3,4.9-6,7.7-8.8
			c16-16,36.8-24,59.2-24s43.2,8,59.2,24c2.9,2.9,5.2,5.9,7.3,8.8c2.4,3.5,4.5,6.9,7.1,10.4c6.4,12.8,11.2,25.6,11.2,41.6
			c-1.1,8.5-2.8,17-5.3,25.5C803,759.4,801.6,763.7,800,768z"/>
		<path d="M837.3,440.3h69.4V282H117.2v158.2H614H837.3z M273.8,399.1h-77.5v-77.5h77.5V399.1z"/>
	</g>
</g>
</svg>
