<!-- Generated by IcoMoon.io -->
<svg version="1.1" xmlns="http://www.w3.org/2000/svg" width="1024" height="1024" viewBox="0 0 1024 1024">
<title></title>
<g id="icomoon-ignore">
</g>
<path d="M127.795 528.657h269.653v-30.345c0-11.509 9.33-20.838 20.838-20.838v0h187.341c0.005 0 0.011 0 0.017 0 11.509 0 20.838 9.33 20.838 20.838v0 30.345h267.81v-153.6h-766.498zM204.595 413.457h75.298v75.213h-75.298zM397.517 737.024v-133.12h-269.722v153.6h250.88c10.565-0.965 18.784-9.754 18.842-20.474v-0.006zM279.757 717.465h-75.162v-75.196h75.298zM626.483 737.024c0.046 10.708 8.234 19.489 18.691 20.474l0.082 0.006h249.037v-153.6h-267.81zM127.795 144.657v153.6h766.498v-153.6zM279.893 258.27h-75.298v-75.213h75.298zM575.283 528.657h-126.566v280.422h-94.481l157.764 215.33 157.764-215.33h-94.481v-280.422z"></path>
</svg>
