<!-- Generated by IcoMoon.io -->
<svg version="1.1" xmlns="http://www.w3.org/2000/svg" width="1024" height="1024" viewBox="0 0 1024 1024">
<title></title>
<g id="icomoon-ignore">
</g>
<path d="M0 349.867h595.729v-153.6h-595.729zM76.8 234.667h75.196v75.196h-75.196zM0 0v153.6h595.729v-153.6zM151.996 113.596h-75.196v-75.196h75.196zM243.78 390.929h-243.78v153.6h243.78zM76.8 504.542v-75.213h75.196v75.213zM31.488 748.766h264.755v169.779h-264.755v-169.779zM379.631 748.766h264.755v169.779h-264.755v-169.779zM727.757 748.766h264.755v169.779h-264.755v-169.779zM294.997 402.586h434.022v169.779h-434.022v-169.779zM268.919 594.807l-123.87 131.874h65.57l123.87-131.874h-65.57zM688.981 594.807l123.87 131.874h65.553l-123.87-131.874h-65.553zM488.107 594.807h47.787v131.874h-47.787v-131.874zM977.613 270.711l-71.287-46.080 3.601 84.975h-80.657l3.601-84.975-71.287 46.080-40.311-69.854 75.605-38.878-75.605-38.878 40.311-69.854 71.27 46.080-3.584-84.958h80.657l-3.601 84.958 71.287-46.080 40.311 69.854-75.605 38.878 75.605 38.878z"></path>
</svg>
