<!-- Generated by IcoMoon.io -->
<svg version="1.1" xmlns="http://www.w3.org/2000/svg" width="883" height="1024" viewBox="0 0 883 1024">
<title></title>
<g id="icomoon-ignore">
</g>
<path d="M724.426 80.965c0.012-11.334 1.107-22.404 3.185-33.123l-0.177 1.095c-82.197-17.591-176.632-27.665-273.42-27.665-4.53 0-9.055 0.022-13.574 0.066l0.691-0.005c-3.996-0.043-8.718-0.067-13.446-0.067-96.158 0-189.963 10.076-280.417 29.231l8.799-1.56c1.861 9.539 3.013 20.59 3.183 31.88l0.002 0.148c-0.085 92.129-69.185 168.093-158.383 178.985l-0.87 0.087c0 128.641 15.041 236.403 89.536 398.311 132.534 286.479 351.596 387.694 351.596 387.694s220.301-101.922 352.658-387.694c74.495-161.2 88.474-268.961 89.536-397.603-89.943-11.066-158.901-86.997-158.901-179.035 0-0.262 0.001-0.523 0.002-0.785v0.040zM697.353 613.048c-57.956 126.44-145.312 230.77-253.671 307.36l-2.374 1.592v-794.498c0.885-0.002 1.932-0.003 2.979-0.003 63.454 0 125.932 4.181 187.173 12.282l-7.188-0.777c18.493 86.654 74.009 157.563 148.815 196.543l1.592 0.755c-8.488 102.248-36.116 196.264-79.304 281.024l1.978-4.277z"></path>
</svg>
