<?xml version="1.0" encoding="utf-8"?>
<!-- Generator: Adobe Illustrator 23.0.6, SVG Export Plug-In . SVG Version: 6.00 Build 0)  -->
<svg version="1.1" id="Layer_1" xmlns="http://www.w3.org/2000/svg" xmlns:xlink="http://www.w3.org/1999/xlink" x="0px" y="0px"
	 viewBox="0 0 1024 1024" style="enable-background:new 0 0 1024 1024;" xml:space="preserve">
<title></title>
<g id="icomoon-ignore">
</g>
<title></title>
<g id="icomoon-ignore_1_">
</g>
<g>
	<path d="M698.3,610.2l66.2,66.2h-94.8c-85.3,0-131.5-47.5-171.2-112.2c-12.4,23.1-25.2,46.3-39.5,68.9c10.7,14.9,22.3,29.1,35,42
		c48,48.7,105.5,72.3,175.6,72.3h94.8l-66.9,66.9l50.5,50.5L901,711.9L748.8,559.7L698.3,610.2z"/>
	<path d="M359.6,461.5c12.4-23.1,25.1-46.3,39.2-68.9c-10.6-14.6-22.1-28.5-34.7-41.3c-48.9-49.3-107.5-73.2-179.2-73.2h-77.4v71
		h77.4C272.3,349.2,319.4,396.7,359.6,461.5z"/>
	<path d="M669.8,349.2h94.4l-66.6,66.6l50.5,50.5L901,313.4L748.8,161.2l-50.5,50.5l66.5,66.5v0.1h-95.1
		c-70.2,0-127.6,23.6-175.6,72.3c-40.2,40.7-68.4,93.4-95.6,144.3c-52.2,97.5-97.2,181.6-213.6,181.6h-77.4v71h77.4
		c71.7,0,130.3-23.9,179.2-73.2c41-41.3,69.5-94.5,97-145.9C512.5,432.2,556.9,349.2,669.8,349.2z"/>
</g>
</svg>
