<!-- Generated by IcoMoon.io -->
<svg version="1.1" xmlns="http://www.w3.org/2000/svg" width="1024" height="1024" viewBox="0 0 1024 1024">
<title></title>
<g id="icomoon-ignore">
</g>
<path d="M356.8 163.2c48-9.6 100.8-12.8 156.8-12.8s107.2 3.2 156.8 12.8c48 9.6 86.4 22.4 113.6 38.4 28.8 16 41.6 32 41.6 51.2v51.2c0 19.2-12.8 35.2-41.6 51.2s-65.6 28.8-113.6 38.4c-49.6 9.6-100.8 12.8-158.4 12.8s-107.2-3.2-156.8-12.8c-48-9.6-86.4-22.4-113.6-38.4-28.8-16-41.6-32-41.6-51.2v-51.2c0-19.2 12.8-35.2 41.6-51.2s67.2-30.4 115.2-38.4zM332.8 441.6c56 11.2 115.2 17.6 179.2 17.6s124.8-6.4 179.2-17.6c56-11.2 99.2-28.8 131.2-51.2v68.8c0 19.2-12.8 35.2-41.6 51.2s-65.6 28.8-113.6 38.4c-48 9.6-100.8 12.8-156.8 12.8s-107.2-3.2-156.8-12.8c-48-9.6-86.4-22.4-113.6-38.4-28.8-16-41.6-32-41.6-51.2v-68.8c35.2 24 80 40 134.4 51.2zM332.8 596.8c54.4 11.2 115.2 17.6 177.6 17.6s124.8-6.4 179.2-17.6c56-11.2 99.2-28.8 131.2-51.2v68.8c0 19.2-12.8 35.2-41.6 51.2s-65.6 28.8-113.6 38.4c-48 9.6-99.2 12.8-155.2 12.8s-108.8-3.2-158.4-12.8c-48-9.6-86.4-22.4-113.6-38.4-28.8-16-41.6-33.6-41.6-51.2v-68.8c36.8 22.4 81.6 41.6 136 51.2zM332.8 753.6c56 11.2 115.2 17.6 179.2 17.6s124.8-6.4 179.2-17.6c56-11.2 99.2-28.8 131.2-51.2v68.8c0 19.2-12.8 35.2-41.6 51.2s-65.6 28.8-113.6 38.4c-48 9.6-100.8 12.8-156.8 12.8s-107.2-3.2-156.8-12.8c-48-9.6-86.4-22.4-113.6-38.4s-41.6-33.6-41.6-51.2v-68.8c35.2 20.8 80 40 134.4 51.2zM996.8 996.8h-208v-64h144v-144h64zM420.8 932.8h184v64h-184v-64zM236.8 996.8h-208v-208h64v144h144zM28.8 420.8h64v184h-64v-184zM92.8 236.8h-64v-208h208v64h-144zM420.8 28.8h184v64h-184v-64zM996.8 236.8h-64v-144h-144v-64h208zM932.8 420.8h64v184h-64v-184z"></path>
</svg>
