<svg width="720" height="720" viewBox="0 0 720 720" fill="none" xmlns="http://www.w3.org/2000/svg">
<path d="M618.103 548.738L466.121 460.939C444.77 448.646 417.467 455.957 405.109 477.309C400.321 485.72 398.445 494.972 399.35 503.965V675.551C399.35 700.072 419.278 720 443.864 720C468.386 720 488.314 700.072 488.314 675.551V576.883L573.459 626.055C594.811 638.413 622.179 631.037 634.472 609.686C646.83 588.335 639.519 561.031 618.103 548.738Z" fill="#0F1425"/>
<path d="M240.13 360.576C240.388 344.724 232.042 329.972 218.326 322.014L66.3442 234.28C59.7447 230.463 52.1748 228.457 44.6048 228.457C29.012 228.457 14.5191 236.804 6.75505 250.261C-5.27923 271.095 1.90253 297.816 22.7361 309.851L110.341 360.382L22.7361 410.977C12.6428 416.801 5.39635 426.182 2.42013 437.44C-0.620792 448.698 0.93202 460.473 6.75505 470.567C14.5191 484.024 29.012 492.371 44.5401 492.371C52.1748 492.371 59.7447 490.365 66.3442 486.548L218.326 398.814C231.913 390.92 240.259 376.298 240.13 360.576Z" fill="#0F1425"/>
<path d="M100.838 172.103L252.819 259.837C270.547 270.125 292.416 266.76 306.391 253.108C315.255 244.956 320.755 233.31 320.755 220.37V44.5139C320.755 19.9277 300.827 0 276.305 0C251.719 0 231.792 19.9277 231.792 44.5139V144.606L145.481 94.7862C124.13 82.4284 96.8263 89.7396 84.4685 111.091C72.1107 132.442 79.4866 159.745 100.838 172.103Z" fill="#0F1425"/>
<path d="M442.576 367.693C442.576 371.057 440.635 375.716 438.241 378.174L378.005 438.41C375.611 440.804 370.888 442.745 367.524 442.745H352.19C348.825 442.745 344.102 440.804 341.708 438.41L281.407 378.174C279.013 375.716 277.072 371.057 277.072 367.693V352.359C277.072 348.93 279.013 344.271 281.407 341.877L341.708 281.577C344.102 279.183 348.825 277.242 352.19 277.242H367.524C370.888 277.242 375.611 279.183 378.005 281.577L438.241 341.877C440.635 344.271 442.576 348.93 442.576 352.359V367.693ZM388.81 360.317V359.67C388.81 357.211 387.387 353.782 385.64 351.971L367.847 334.243C366.1 332.431 362.671 331.008 360.148 331.008H359.501C357.042 331.008 353.613 332.431 351.801 334.243L334.074 351.971C332.327 353.718 330.903 357.147 330.903 359.67V360.317C330.903 362.84 332.327 366.269 334.074 368.016L351.801 385.809C353.613 387.556 357.042 388.979 359.501 388.979H360.148C362.671 388.979 366.1 387.556 367.847 385.809L385.64 368.016C387.387 366.269 388.81 362.84 388.81 360.317Z" fill="#0F1425"/>
<path d="M466.136 259.837L618.117 172.103C639.468 159.81 646.844 132.442 634.487 111.091C622.129 89.7396 594.825 82.4284 573.474 94.7862L488.328 143.959V44.5139C488.328 19.9277 468.4 0 443.879 0C419.293 0 399.365 19.9277 399.365 44.5139V216.876C398.524 225.805 400.271 235.122 405.123 243.533C417.481 264.884 444.785 272.195 466.136 259.837Z" fill="#0F1425"/>
<path d="M283.293 455.761C273.2 453.82 262.395 455.438 252.819 460.937L100.838 548.736C79.4866 561.029 72.1107 588.333 84.4685 609.684C96.8263 631.1 124.13 638.411 145.481 626.053L231.792 576.234V675.549C231.792 700.07 251.719 719.998 276.305 719.998C300.827 719.998 320.755 700.07 320.755 675.549V499.693C320.755 477.501 304.515 459.126 283.293 455.761Z" fill="#0F1425"/>
<path d="M713.095 249.735C700.802 228.319 673.433 221.008 652.082 233.366L500.101 321.1C485.543 329.511 477.521 344.91 477.779 360.567C477.65 376.16 485.673 391.364 500.101 399.646L652.082 487.445C673.433 499.738 700.737 492.427 713.095 471.075C725.453 449.724 718.077 422.421 696.726 410.063L610.674 360.373L696.726 310.683C718.141 298.39 725.453 271.086 713.095 249.735Z" fill="#0F1425"/>
</svg>
