<svg width="1024" height="1024" viewBox="0 0 1024 1024" fill="none" xmlns="http://www.w3.org/2000/svg">
<path d="M866.987 864.671L772.729 810.219C759.487 802.595 742.554 807.129 734.89 820.371C731.92 825.588 730.757 831.326 731.318 836.903V943.32C731.318 958.528 743.677 970.887 758.926 970.887C774.134 970.887 786.493 958.528 786.493 943.32V882.126L839.3 912.623C852.541 920.287 869.515 915.712 877.139 902.471C884.803 889.229 880.269 872.295 866.987 864.671Z" fill="#0F1425"/>
<path d="M632.571 747.974C632.731 738.143 627.555 728.994 619.048 724.059L524.79 669.647C520.697 667.279 516.002 666.035 511.308 666.035C501.637 666.035 492.649 671.212 487.833 679.558C480.37 692.479 484.824 709.051 497.745 716.515L552.076 747.854L497.745 779.233C491.485 782.844 486.991 788.663 485.145 795.645C483.259 802.627 484.222 809.93 487.833 816.19C492.649 824.536 501.637 829.713 511.267 829.713C516.002 829.713 520.697 828.469 524.79 826.101L619.048 771.689C627.475 766.794 632.651 757.725 632.571 747.974Z" fill="#0F1425"/>
<path d="M546.183 631.085L640.441 685.497C651.435 691.877 664.998 689.79 673.666 681.324C679.163 676.268 682.574 669.045 682.574 661.02V551.955C682.574 536.707 670.215 524.348 655.007 524.348C639.759 524.348 627.399 536.707 627.399 551.955V614.031L573.87 583.133C560.628 575.469 543.695 580.004 536.031 593.245C528.367 606.487 532.941 623.421 546.183 631.085Z" fill="#0F1425"/>
<path d="M758.127 752.388C758.127 754.475 756.923 757.364 755.438 758.889L718.08 796.247C716.595 797.732 713.666 798.935 711.58 798.935H702.07C699.983 798.935 697.054 797.732 695.569 796.247L658.171 758.889C656.686 757.364 655.482 754.475 655.482 752.388V742.878C655.482 740.751 656.686 737.862 658.171 736.378L695.569 698.979C697.054 697.495 699.983 696.291 702.07 696.291H711.58C713.666 696.291 716.595 697.495 718.08 698.979L755.438 736.378C756.923 737.862 758.127 740.751 758.127 742.878V752.388ZM724.781 747.814V747.413C724.781 745.888 723.899 743.761 722.815 742.637L711.78 731.643C710.697 730.519 708.57 729.636 707.005 729.636H706.604C705.079 729.636 702.952 730.519 701.829 731.643L690.834 742.637C689.751 743.721 688.868 745.848 688.868 747.413V747.814C688.868 749.379 689.751 751.505 690.834 752.589L701.829 763.624C702.952 764.707 705.079 765.59 706.604 765.59H707.005C708.57 765.59 710.697 764.707 711.78 763.624L722.815 752.589C723.899 751.505 724.781 749.379 724.781 747.814Z" fill="#0F1425"/>
<path d="M772.738 685.497L866.996 631.085C880.238 623.461 884.812 606.487 877.148 593.245C869.484 580.004 852.55 575.469 839.309 583.133L786.502 613.63V551.955C786.502 536.707 774.143 524.348 758.935 524.348C743.686 524.348 731.327 536.707 731.327 551.955V658.853C730.806 664.39 731.889 670.168 734.899 675.385C742.563 688.627 759.496 693.161 772.738 685.497Z" fill="#0F1425"/>
<path d="M659.34 807.008C653.081 805.804 646.379 806.807 640.441 810.218L546.183 864.67C532.941 872.294 528.367 889.228 536.031 902.469C543.695 915.751 560.628 920.286 573.87 912.621L627.399 881.724V943.318C627.399 958.527 639.759 970.886 655.007 970.886C670.215 970.886 682.574 958.527 682.574 943.318V834.254C682.574 820.49 672.502 809.094 659.34 807.008Z" fill="#0F1425"/>
<path d="M925.901 679.232C918.276 665.95 901.303 661.415 888.061 669.08L793.803 723.492C784.775 728.708 779.799 738.258 779.959 747.969C779.879 757.639 784.855 767.069 793.803 772.205L888.061 826.657C901.303 834.282 918.236 829.747 925.901 816.505C933.565 803.264 928.99 786.33 915.748 778.666L862.38 747.848L915.748 717.031C929.03 709.407 933.565 692.473 925.901 679.232Z" fill="#0F1425"/>
<path fill-rule="evenodd" clip-rule="evenodd" d="M232.695 263.729C215.825 233.827 195.145 206.361 171.384 182.063L171.291 181.965C162.188 172.474 152.423 163.623 141.466 155.029C137.797 151.82 133.427 148.151 128.7 144.277L129.838 145.181C91.308 113.631 49.045 86.4694 0 62.7844L1.944 62.9044C47.2 66.3714 90.984 75.0954 128.631 87.3434C130.346 87.8919 132.075 88.433 133.806 88.9743C138.483 90.4371 143.165 91.9017 147.575 93.5214C155.819 96.6274 163.635 99.8364 171.298 103.249L173.404 104.051C207.81 118.794 239.142 139.336 265.967 164.262L266.153 164.434C299.679 195.696 326.365 234.197 344.474 279.565L343.459 276.567C362.295 325.464 372.621 378.588 372.621 434.123C372.621 436.565 372.601 439.002 372.566 441.067L372.542 441.908C370.397 500.556 357.535 556.468 337.017 604.651C336.13 598.421 335.021 590.997 333.604 582.464L332.754 575.883C323.924 519.554 311.062 464.563 296.688 419.477L294.871 412.837C278.085 359.886 256.724 308.972 233.712 265.689L232.695 263.729ZM888.047 318.852C918.904 340.407 952.32 368.823 959.42 394.867H959.422C960.658 398.608 958.686 400.086 953.993 400.261C922.08 394.872 889.48 391.255 854.462 389.439L854.601 389.44C853.689 389.431 852.777 389.426 851.864 389.426C806.89 389.426 764.516 400.562 728.8 419.527L724.899 421.515C683.832 444.32 645.09 470.803 610.408 499.485C604.258 504.605 598.109 509.553 591.959 514.5C579.66 524.395 567.36 534.29 555.061 545.565L557.245 543.724C502.744 590.733 445.209 634.322 378.677 678.071C371.85 682.269 364.921 686.297 358.197 689.915L360.565 688.818C348.26 695.097 335.602 700.785 319.786 706.82C329.302 694.744 337.898 681.872 346.182 666.909C347.154 665.202 348.127 663.444 349.117 661.635L347.806 664.263C384.692 596.597 406.448 519.496 408.543 436.867L408.523 437.736C408.696 431.816 408.783 425.875 408.783 419.913C408.783 365.585 401.545 312.947 388.95 267.105C387.426 262.524 386.279 258.325 385.134 254.129C383.971 249.868 382.809 245.611 381.253 240.959L416.632 204.061L367.429 211.741L366.985 210.86C362.93 203.491 358.346 196.454 353.588 190.22L372.037 173.307L342.819 174.843L342.439 174.356C329.44 158.235 314.512 143.733 297.385 130.753C264.744 104.951 227.969 84.1407 185.464 68.5864C177.596 65.6684 169.558 62.7844 161.229 60.0534L159.915 59.6094H160.171C160.819 59.6094 171.366 59.6604 189.184 61.1454C189.819 61.1955 190.537 61.2698 191.247 61.3432C191.74 61.3941 192.229 61.4446 192.683 61.4864C265.401 68.1066 439.457 96.7647 528.823 214.785C563.4 206.149 599.494 201.321 636.962 200.767H636.884C637.389 200.764 637.895 200.763 638.401 200.763C657.304 200.763 675.79 202.547 691.865 205.665L693.281 205.868C748.116 215.366 796.507 243.666 831.812 284.172C831.812 284.172 837.291 287.108 845.824 292.023C856.44 298.167 871.8 307.52 888.047 318.852ZM297.385 130.753C297.17 130.591 296.955 130.428 296.739 130.265L297.572 130.901C297.51 130.852 297.447 130.803 297.385 130.753ZM319.786 706.82C319.778 706.823 319.771 706.826 319.763 706.828L319.3 707.434C319.462 707.23 319.624 707.025 319.786 706.82ZM953.993 400.261C953.761 400.27 953.523 400.275 953.278 400.277L958.367 401.011C956.91 400.758 955.452 400.507 953.993 400.261ZM766.41 301.496H766.567L766.549 301.514C778.103 301.514 786.927 299.295 785.715 298.015L785.824 298.111C768.733 282.747 747.159 272.272 722.671 268.814C711.919 268.814 708.83 273.405 719.599 284.174L719.607 284.182C729.415 294.154 742.889 300.51 757.944 301.067C760.727 301.351 763.552 301.496 766.41 301.496ZM757.944 301.067C757.974 301.068 758.004 301.069 758.034 301.07L757.676 301.039C757.765 301.049 757.854 301.058 757.944 301.067Z" fill="#0F1425"/>
</svg>
