<!-- Generated by IcoMoon.io -->
<svg version="1.1" xmlns="http://www.w3.org/2000/svg" width="1024" height="1024" viewBox="0 0 1024 1024">
<g id="icomoon-ignore">
</g>
<path fill="#000" d="M424.080 887.010c-16.18 0.080-30.71-9.88-36.47-25l-62.25-161.88c-2.55-6.6-7.76-11.81-14.36-14.36l-161.92-62.301c-20.14-7.73-30.2-30.32-22.47-50.47 3.97-10.34 12.14-18.5 22.47-22.47l161.88-62.25c6.6-2.55 11.81-7.76 14.36-14.36l62.3-161.92c7.73-20.14 30.32-30.2 50.47-22.47 10.34 3.97 18.5 12.14 22.47 22.47l62.25 161.88c2.55 6.6 7.76 11.81 14.36 14.36l160.94 61.92c15.73 5.83 26.12 20.89 25.98 37.66-0.24 15.88-10.15 30.010-25 35.66l-161.88 62.25c-6.6 2.55-11.81 7.761-14.36 14.361l-62.3 161.92c-5.76 15.12-20.29 25.080-36.47 25z"></path>
<path fill="#000" d="M724.080 487.009c-10.34 0-19.62-6.38-23.33-16.030l-35.69-92.77c-1.27-3.31-3.88-5.92-7.19-7.19l-92.77-35.69c-12.88-4.96-19.3-19.43-14.34-32.32 2.54-6.59 7.75-11.8 14.34-14.34l92.77-35.69c3.31-1.27 5.92-3.88 7.19-7.19l35.42-92.11c3.29-8.87 11.2-15.22 20.58-16.52 11.38-1.38 22.24 5.16 26.34 15.86l35.69 92.77c1.27 3.31 3.88 5.92 7.19 7.19l92.77 35.69c12.88 4.96 19.3 19.43 14.34 32.32-2.54 6.59-7.75 11.8-14.34 14.34l-92.77 35.69c-3.31 1.27-5.92 3.88-7.19 7.19l-35.69 92.77c-3.71 9.66-12.98 16.030-23.33 16.030h0.010z"></path>
</svg>
