<!-- Generated by IcoMoon.io -->
<svg version="1.1" xmlns="http://www.w3.org/2000/svg" width="1024" height="1024" viewBox="0 0 1024 1024">
<title></title>
<g id="icomoon-ignore">
</g>
<path d="M389.12 611.84c-30.111-28.975-57.072-60.814-80.579-95.202l-1.341-2.078h-57.856c-6.912 0.047-12.844 4.195-15.487 10.131l-0.043 0.109-35.499 79.701 137.557 80.725zM184.491 635.904l-106.496 240.128c-0.9 2.011-1.425 4.358-1.425 6.827 0 9.387 7.578 17.003 16.95 17.066h86.363l136.533-187.733zM551.595 685.056c-10.741 8.497-24.483 13.63-39.424 13.63s-28.683-5.133-39.558-13.733l0.134 0.102c-21.163-17.067-40.619-33.109-58.709-49.493l-103.765 142.848h361.643l159.915-159.915-41.643-93.696c-2.686-6.045-8.618-10.193-15.525-10.24h-57.862c-46.737 65.808-101.326 122.078-163.307 169.115l-1.898 1.381zM902.827 778.411l-56.149-126.464-126.464 126.464h182.613zM946.005 876.032l-28.16-63.488h-631.467l-64.512 87.381h708.608c9.378-0.063 16.956-7.68 16.956-17.066 0-2.469-0.524-4.816-1.468-6.936l0.043 0.109zM286.208 373.248c8.561 54.294 30.733 102.299 62.894 141.857l-0.43-0.545c19.357 25.512 39.323 48.129 60.822 69.187l0.106 0.103c8.192 8.192 17.067 16.213 24.917 23.723 20.309 18.773 40.619 35.84 59.563 51.2 4.973 3.942 11.339 6.325 18.261 6.325s13.288-2.382 18.323-6.372l-0.061 0.047c54.883-42.159 102.629-89.417 143.931-141.977l1.306-1.724c31.593-39.019 53.738-86.933 62.234-139.421l0.23-1.72c0.212-3.367 0.333-7.301 0.333-11.264s-0.121-7.897-0.36-11.8l0.026 0.536c0-0.152 0.001-0.332 0.001-0.513 0-125.087-101.258-226.524-226.277-226.815h-0.028c-21.172 0.027-41.693 2.765-61.25 7.885l1.687-0.375c-97.291 26.634-167.611 114.254-167.611 218.298 0 7.627 0.378 15.165 1.116 22.598l-0.075-0.939zM406.528 318.976c8.489-43.001 41.616-76.415 83.779-85.211l0.701-0.122c5.067-0.809 10.909-1.271 16.858-1.271 1.454 0 2.901 0.028 4.341 0.082l-0.208-0.006c0.301-0.003 0.657-0.005 1.013-0.005 59.382 0 107.52 48.138 107.52 107.52 0 52.316-37.364 95.905-86.863 105.538l-0.678 0.11c-6.301 1.28-13.552 2.025-20.973 2.048h-0.019c-59.41-0.087-107.538-48.268-107.538-107.691 0-7.428 0.752-14.681 2.184-21.686l-0.118 0.694z"></path>
</svg>
