<!-- Generated by IcoMoon.io -->
<svg version="1.1" xmlns="http://www.w3.org/2000/svg" width="1024" height="1024" viewBox="0 0 1024 1024">
<title></title>
<g id="icomoon-ignore">
</g>
<path d="M457.045 720.725h51.541l13.141-73.387h-51.712l-12.971 73.387zM584.875 19.627h-443.733v984.747h740.864v-689.493zM662.528 619.349c-1.162 8.735-5.69 16.235-12.214 21.278l-0.074 0.055c-7.472 4.285-16.426 6.813-25.97 6.813-1.431 0-2.85-0.057-4.252-0.168l0.185 0.012h-19.456l-13.141 73.387h34.133c0.512-0.035 1.109-0.055 1.711-0.055 6.349 0 12.182 2.208 16.773 5.898l-0.052-0.041c4.1 4.428 6.616 10.375 6.616 16.909 0 0.897-0.047 1.783-0.14 2.655l0.009-0.109c0 1.877 0 3.755 0 5.973s0 4.267-0.853 6.485l-4.949 29.867h-62.123l-21.845 122.88h-44.885c-0.016 0-0.034 0-0.053 0-4.020 0-7.818-0.945-11.186-2.626l0.145 0.066c-3.476-1.682-6.422-3.919-8.851-6.629l-0.023-0.027c-2.5-2.795-4.523-6.080-5.901-9.683l-0.072-0.215c-1.405-3.594-2.219-7.755-2.219-12.107 0-0.064 0-0.128 0.001-0.191v0.010c0-1.024 0-2.219 0-3.413-0.031-0.51-0.049-1.106-0.049-1.707s0.018-1.197 0.053-1.788l-0.004 0.082 15.019-85.333h-51.2l-15.189 89.259c-0.92 5.778-2.897 10.953-5.735 15.539l0.103-0.179c-2.607 4.157-5.912 7.625-9.785 10.335l-0.114 0.076c-3.713 2.589-8.034 4.637-12.677 5.905l-0.293 0.068c-4.299 1.192-9.235 1.878-14.332 1.878-0.061 0-0.123 0-0.184 0h-42.316l21.845-122.88h-27.648c-0.512 0.035-1.109 0.055-1.711 0.055-6.349 0-12.182-2.208-16.773-5.898l0.052 0.041c-4.104-4.405-6.623-10.333-6.623-16.85 0-0.918 0.050-1.824 0.147-2.716l-0.010 0.11c-0.048-0.892-0.076-1.936-0.076-2.987s0.028-2.095 0.082-3.132l-0.006 0.145c0-2.048 0-4.267 0.853-6.485l4.949-29.867h55.125l13.141-73.387h-61.269l7.509-39.253c1.245-8.658 5.753-16.079 12.215-21.108l0.073-0.055c7.141-3.923 15.649-6.231 24.695-6.231 1.821 0 3.621 0.094 5.394 0.276l-0.222-0.019h21.163l16.213-91.136c1.427-9.485 6.58-17.551 13.892-22.8l0.102-0.070c7.124-5.127 16.026-8.199 25.645-8.199 0.284 0 0.568 0.003 0.851 0.008l-0.042-0.001h44.203l-21.845 122.197h51.2l21.845-122.197h43.008c0.4-0.018 0.869-0.028 1.341-0.028 7.952 0 15.24 2.848 20.898 7.579l-0.051-0.042c5.244 4.503 8.544 11.14 8.544 18.549 0 0.259-0.004 0.517-0.012 0.774l0.001-0.038v2.389c0.041 0.409 0.065 0.885 0.065 1.365s-0.024 0.956-0.070 1.425l0.005-0.059-16.043 90.283h60.416zM537.941 363.349v-269.995l270.165 270.165h-269.995z"></path>
</svg>
