<!-- Generated by IcoMoon.io -->
<svg version="1.1" xmlns="http://www.w3.org/2000/svg" width="1024" height="1024" viewBox="0 0 1024 1024">
<title></title>
<g id="icomoon-ignore">
</g>
<path d="M747.179 593.579c-4.199-8.124-10.433-14.687-18.042-19.166l-0.22-0.12c-5.979-3.249-13.077-5.197-20.622-5.29h-0.029c-7.574 0.057-14.679 2.010-20.881 5.406l0.23-0.115c-7.395 4.698-13.234 11.248-16.948 19.010l-0.119 0.275c-5.823 11.216-10.228 24.234-12.522 37.966l-0.107 0.776c-3.071 17.316-4.826 37.251-4.826 57.596 0 2.012 0.017 4.019 0.051 6.023l-0.004-0.302c-0.032 1.756-0.050 3.827-0.050 5.902 0 20.342 1.757 40.274 5.126 59.651l-0.297-2.065c2.435 14.513 6.837 27.526 12.982 39.498l-0.353-0.757c3.799 8.11 9.644 14.723 16.883 19.346l0.183 0.11c5.972 3.281 13.077 5.234 20.633 5.291h0.017c7.574-0.094 14.672-2.041 20.889-5.409l-0.238 0.118c7.854-4.634 14.095-11.259 18.139-19.191l0.123-0.265c5.952-11.207 10.47-24.216 12.858-37.956l0.113-0.785c3.179-17.385 4.997-37.392 4.997-57.824 0-1.991-0.017-3.979-0.052-5.962l0.004 0.298c0.028-1.631 0.045-3.554 0.045-5.481 0-20.436-1.817-40.447-5.298-59.882l0.304 2.046c-2.469-14.521-6.99-27.534-13.311-39.445l0.341 0.704zM844.8 76.8h-665.6c-56.554 0-102.4 45.846-102.4 102.4v0 665.6c0 56.554 45.846 102.4 102.4 102.4v0h665.6c56.554 0 102.4-45.846 102.4-102.4v0-665.6c0-56.554-45.846-102.4-102.4-102.4v0zM228.352 301.568c-2.325 1.992-5.041 3.61-8.007 4.718l-0.185 0.061c-2.336 0.84-5.031 1.338-7.838 1.365h-0.012c-0.169 0.004-0.367 0.007-0.566 0.007-4.173 0-8.095-1.078-11.502-2.97l0.121 0.062c-3.093-1.612-5.702-3.731-7.818-6.274l-0.033-0.041-25.088-34.133 116.224-97.451h65.536v316.757h61.44v57.344h-212.48v-57.344h71.68v-187.733q0-13.824 0-29.013zM329.557 830.635l318.976-659.968 46.080 22.187-319.147 660.48zM836.267 779.435c-6.233 22.713-16.199 42.534-29.327 59.823l0.314-0.431c-11.557 14.965-26.323 26.888-43.314 34.855l-0.718 0.303c-15.837 7.228-34.35 11.441-53.847 11.441-0.449 0-0.898-0.002-1.347-0.007l0.068 0.001c-0.436 0.005-0.951 0.008-1.467 0.008-19.375 0-37.765-4.215-54.304-11.777l0.816 0.334c-17.584-8.294-32.236-20.213-43.486-34.879l-0.205-0.278c-12.782-16.564-22.787-36.025-28.882-57.145l-0.302-1.223c-6.646-23.846-10.466-51.228-10.466-79.503 0-2.050 0.020-4.095 0.060-6.135l-0.005 0.305c-0.035-1.735-0.055-3.78-0.055-5.83 0-28.275 3.82-55.658 10.972-81.66l-0.506 2.157c6.161-22.708 16.074-42.533 29.158-59.827l-0.315 0.435c11.51-14.578 26.158-26.164 42.968-33.838l0.722-0.295c15.802-7.227 34.277-11.44 53.737-11.44 0.428 0 0.856 0.002 1.283 0.006h-0.065c0.296-0.002 0.645-0.004 0.995-0.004 19.594 0 38.204 4.212 54.974 11.779l-0.843-0.34c17.657 7.944 32.421 19.535 43.85 33.897l0.182 0.236c13.067 17.179 23.166 37.416 29.076 59.37l0.279 1.217c6.651 23.725 10.474 50.969 10.474 79.107 0 2.189-0.023 4.373-0.069 6.552l0.005-0.325c0.027 1.52 0.043 3.313 0.043 5.109 0 28.109-3.816 55.327-10.957 81.165l0.503-2.135z"></path>
</svg>
