<!-- Generated by IcoMoon.io -->
<svg version="1.1" xmlns="http://www.w3.org/2000/svg" width="1024" height="1024" viewBox="0 0 1024 1024">
<title></title>
<g id="icomoon-ignore">
</g>
<path d="M844.8 76.8h-665.6c-56.554 0-102.4 45.846-102.4 102.4v0 665.6c0 56.554 45.846 102.4 102.4 102.4v0h665.6c56.554 0 102.4-45.846 102.4-102.4v0-665.6c0-56.554-45.846-102.4-102.4-102.4v0zM705.536 704.171c0.013 0.834 0.021 1.817 0.021 2.803 0 52.847-21.836 100.593-56.977 134.71l-0.046 0.045c-34.682 35.503-83.037 57.519-136.533 57.519s-101.851-22.016-136.497-57.482l-0.036-0.037c-35.284-33.935-57.202-81.545-57.202-134.275 0-1.154 0.011-2.306 0.031-3.455l-0.002 0.172v-437.419c-0.010-0.622-0.016-1.356-0.016-2.092 0-38.553 15.59-73.466 40.809-98.777l-0.004 0.004c24.496-25.191 58.712-40.821 96.578-40.821 1.027 0 2.052 0.011 3.073 0.034l-0.152-0.003c0.87-0.020 1.894-0.032 2.921-0.032 37.866 0 72.082 15.63 96.547 40.79l0.030 0.031c25.212 24.971 40.822 59.597 40.822 97.868 0 1.053-0.012 2.104-0.035 3.152l0.003-0.156v367.787c0.026 0.758 0.041 1.649 0.041 2.543 0 23.245-9.994 44.156-25.919 58.67l-0.063 0.057c-16.096 15.924-38.198 25.804-62.608 25.941h-0.026c-0.758 0.026-1.649 0.041-2.543 0.041-23.245 0-44.156-9.994-58.67-25.919l-0.057-0.063c-15.882-15.609-25.775-37.268-25.941-61.238v-332.319h53.077v332.288c0.518 9.207 4.611 17.368 10.9 23.19l0.022 0.020c6.078 6.664 14.798 10.829 24.491 10.829s18.412-4.165 24.467-10.802l0.023-0.026c6.312-5.843 10.404-14.003 10.919-23.121l0.004-0.090v-367.787c0-0.051 0-0.111 0-0.171 0-48.825-39.58-88.405-88.405-88.405-0.060 0-0.12 0-0.18 0h0.009c-0.479-0.010-1.044-0.016-1.61-0.016-23.556 0-44.715 10.263-59.249 26.562l-0.069 0.078c-15.924 16.096-25.804 38.198-25.941 62.608v436.762c-0.010 0.622-0.016 1.356-0.016 2.092 0 38.553 15.59 73.466 40.809 98.777l-0.004-0.004c24.496 25.194 58.713 40.825 96.581 40.825 1.086 0 2.169-0.013 3.248-0.038l-0.16 0.003c0.87 0.020 1.894 0.032 2.921 0.032 37.866 0 72.082-15.63 96.547-40.79l0.030-0.031c25.212-24.971 40.822-59.597 40.822-97.868 0-1.053-0.012-2.104-0.035-3.152l0.003 0.156v-401.92h53.077v401.92z"></path>
</svg>
