<!-- Generated by IcoMoon.io -->
<svg version="1.1" xmlns="http://www.w3.org/2000/svg" width="1024" height="1024" viewBox="0 0 1024 1024">
<title></title>
<g id="icomoon-ignore">
</g>
<path d="M925.013 472.576c-4.858-2.936-10.487-5.64-16.378-7.801l-0.688-0.221c-6.253-2.444-13.747-4.626-21.472-6.167l-0.886-0.147c-8.419-1.637-18.1-2.574-27.999-2.574-0.717 0-1.432 0.005-2.146 0.015l0.108-0.001c-0.51-0.007-1.112-0.011-1.715-0.011-19.033 0-37.157 3.895-53.618 10.931l0.891-0.338c-16.681 7.172-30.797 17.404-42.23 30.1l-0.095 0.108c-11.792 13.324-21.149 29.116-27.181 46.465l-0.297 0.98c-6.285 17.877-9.916 38.491-9.916 59.952 0 0.883 0.006 1.765 0.018 2.646l-0.001-0.133c-0.017 0.95-0.026 2.070-0.026 3.193 0 21.934 3.633 43.020 10.33 62.688l-0.405-1.369c6.222 18.295 15.406 34.083 27.117 47.625l-0.152-0.179c10.803 12.362 24.062 22.286 39.048 29.064l0.717 0.29c14.134 6.364 30.638 10.071 48.009 10.071 0.222 0 0.444-0.001 0.665-0.002h-0.034c0.544 0.005 1.187 0.007 1.83 0.007 8.915 0 17.714-0.499 26.369-1.469l-1.063 0.097c8.677-1.109 16.52-3.024 23.995-5.707l-0.785 0.246c7.726-2.621 14.38-5.737 20.614-9.481l-0.476 0.265c7.276-4.431 13.58-9.105 19.424-14.286l-0.139 0.121c2.423-2.025 5.172-3.791 8.129-5.191l0.233-0.099h2.219v-236.203c-3.072-1.536-6.144-3.243-9.387-5.461zM451.072 582.144h77.141c0.699 0.018 1.521 0.028 2.346 0.028 11.705 0 22.925-2.075 33.314-5.876l-0.673 0.215c8.474-3.21 15.668-8.1 21.475-14.304l0.029-0.032c4.946-5.449 8.667-12.102 10.674-19.462l0.078-0.335c1.843-6.685 2.901-14.362 2.901-22.286 0-0.025 0-0.050 0-0.076v0.004c0.005-0.321 0.008-0.699 0.008-1.078 0-7.964-1.251-15.636-3.568-22.83l0.147 0.527c-2.359-6.842-6.363-12.606-11.551-17.021l-0.055-0.045c-6.115-5.048-13.435-8.88-21.449-11.004l-0.396-0.089c-9.442-2.511-20.282-3.953-31.46-3.953-0.94 0-1.878 0.010-2.813 0.031l0.14-0.002h-76.288v117.589zM183.467 370.347h112.128l46.080 119.467v-297.301h173.568c1.867-0.038 4.068-0.060 6.274-0.060 27.328 0 53.881 3.32 79.278 9.577l-2.267-0.472c21.341 5.181 40.068 14.023 56.436 25.917l-0.457-0.317c13.76 10.279 24.55 23.808 31.331 39.478l0.242 0.629c6.269 15.112 9.909 32.663 9.909 51.065 0 0.588-0.004 1.174-0.011 1.76l0.001-0.089c0 0.007 0 0.014 0 0.022 0 10.896-1.685 21.398-4.808 31.26l0.2-0.733c-3.378 10.578-8.261 19.764-14.492 27.859l0.156-0.211c-7.034 9.163-15.264 16.958-24.553 23.317l-0.364 0.235c-10.564 7.163-22.688 13.334-35.567 17.912l-1.126 0.349c20.389 4.711 38.33 12.92 54.066 24.042l-0.477-0.32c3.243-3.584 6.315-7.168 9.728-10.581 21.697-21.154 47.65-38.059 76.438-49.3l1.556-0.535c28.191-10.84 60.805-17.118 94.886-17.118 1.862 0 3.72 0.019 5.573 0.056l-0.277-0.004c0.228-0.001 0.497-0.001 0.767-0.001 17.421 0 34.435 1.74 50.878 5.056l-1.64-0.276c15.566 3.151 29.111 7.215 42.112 12.356l-1.664-0.58v-203.605c0-56.554-45.846-102.4-102.4-102.4v0h-665.6c-56.554 0-102.4 45.846-102.4 102.4v0 466.603zM565.589 379.563c6.673-4.154 11.972-9.946 15.422-16.827l0.109-0.24c3.37-7.721 5.331-16.717 5.331-26.171 0-0.82-0.015-1.636-0.044-2.448l0.003 0.118c0.017-0.617 0.027-1.342 0.027-2.070 0-9.279-1.572-18.19-4.465-26.483l0.171 0.564c-2.674-7.259-7.146-13.325-12.886-17.855l-0.085-0.065c-6.245-4.677-13.72-8.080-21.843-9.672l-0.343-0.056c-8.956-1.854-19.248-2.916-29.788-2.916-0.748 0-1.494 0.005-2.24 0.016l0.113-0.001h-64v116.736h57.003c0.54 0.006 1.179 0.009 1.818 0.009 10.932 0 21.645-0.934 32.065-2.728l-1.115 0.159c9.37-1.835 17.681-5.343 24.995-10.226l-0.249 0.156zM941.568 828.757c-28.284 12.037-61.184 19.033-95.718 19.033-2.35 0-4.692-0.032-7.026-0.097l0.344 0.007c-1.225 0.022-2.67 0.035-4.118 0.035-33.299 0-65.027-6.725-93.9-18.891l1.591 0.595c-28.368-12.295-52.416-29.615-72.051-51.044l-0.141-0.156c-19.536-21.395-35.044-46.848-45.082-74.904l-0.486-1.555c-5.36-14.659-9.712-31.929-12.289-49.772l-0.169-1.428-7.509 2.901c-21.51 6.945-46.257 10.948-71.94 10.948-1.229 0-2.456-0.009-3.68-0.027l0.185 0.002h-119.979l68.267 177.835h-85.333c-0.542 0.027-1.178 0.042-1.817 0.042-7.742 0-14.96-2.241-21.041-6.11l0.159 0.095c-5.902-4.157-10.367-10.001-12.728-16.827l-0.072-0.24-27.819-82.261h-179.541l-27.819 82.261c-5.657 14.018-19.15 23.73-34.912 23.73-0.266 0-0.532-0.003-0.797-0.008l0.040 0.001h-9.387v1.877c0 56.554 45.846 102.4 102.4 102.4v0h665.6c56.554 0 102.4-45.846 102.4-102.4v0-18.944zM250.709 503.637q-5.632-17.067-11.093-36.181-5.12 19.797-10.752 36.693t-10.411 29.184l-43.349 128.683h129.024l-43.349-129.365z"></path>
</svg>
