<!-- Generated by IcoMoon.io -->
<svg version="1.1" xmlns="http://www.w3.org/2000/svg" width="1024" height="1024" viewBox="0 0 1024 1024">
<title></title>
<g id="icomoon-ignore">
</g>
<path d="M915.2 379.2c-1.6 3.2-3.2 6.4-4.8 9.6-6.4 8-19.2 22.4-44.8 22.4-9.6 0-19.2-1.6-32-3.2-17.6-3.2-43.2-8-70.4-8-40 0-75.2 8-108.8 25.6-44.8 22.4-96 62.4-147.2 104h68.8v105.6h-136v-52.8c-19.2 16-38.4 32-57.6 46.4v395.2h640l1.6-616v-28.8h-108.8zM576 966.4h-136v-108.8h136v108.8zM576 800h-136v-107.2h136v107.2zM771.2 966.4h-136v-108.8h136v108.8zM771.2 800h-136v-107.2h136v107.2zM771.2 635.2h-136v-105.6h136v105.6zM966.4 966.4h-136v-108.8h136v108.8zM966.4 800h-136v-107.2h136v107.2zM966.4 635.2h-136v-105.6h136v105.6zM225.6 598.4c16-30.4 65.6-208 4.8-361.6-17.6-43.2-43.2-84.8-81.6-120-32-30.4-72-54.4-123.2-73.6-43.2-16-94.4-27.2-153.6-32 70.4 33.6 121.6 73.6 147.2 96 0 0 54.4 40 96 115.2 36.8 65.6 65.6 160 65.6 160 19.2 60.8 32 128 38.4 169.6 4.8 28.8 6.4 46.4 6.4 46.4zM630.4 382.4c3.2-1.6 4.8-1.6 8-3.2 124.8-60.8 240 1.6 232-22.4-14.4-52.8-132.8-115.2-132.8-115.2-51.2-59.2-108.8-73.6-145.6-81.6-67.2-12.8-136 1.6-169.6 9.6-94.4-124.8-280-153.6-353.6-160-19.2-1.6-30.4-1.6-30.4-1.6 59.2 19.2 107.2 44.8 142.4 73.6 19.2 14.4 35.2 30.4 48 46.4l30.4-1.6-19.2 17.6c4.8 8 11.2 14.4 14.4 22.4l51.2-8-36.8 38.4c3.2 9.6 4.8 17.6 8 27.2 73.6 284.8-72 457.6-72 457.6 12.8-4.8 27.2-11.2 40-17.6 43.2-22.4 89.6-57.6 136-96 86.4-68.8 172.8-147.2 249.6-185.6zM624 225.6c14.4 0 43.2 11.2 65.6 30.4 1.6 1.6-12.8 4.8-28.8 3.2-11.2 0-27.2-4.8-40-17.6-11.2-11.2-8-16 3.2-16z"></path>
</svg>
