<!-- Generated by IcoMoon.io -->
<svg version="1.1" xmlns="http://www.w3.org/2000/svg" width="1024" height="1024" viewBox="0 0 1024 1024">
<title></title>
<g id="icomoon-ignore">
</g>
<path d="M158.4 780.8c22.4 12.8 51.2 22.4 89.6 30.4s78.4 11.2 123.2 11.2c8 0 14.4 0 22.4 0-14.4-17.6-17.6-35.2-17.6-49.6v-32c-1.6 0-3.2 0-4.8 0-51.2 0-97.6-4.8-142.4-14.4s-78.4-22.4-104-40v54.4c0 12.8 11.2 27.2 33.6 40zM158.4 657.6c22.4 12.8 51.2 22.4 89.6 30.4s78.4 11.2 123.2 11.2c1.6 0 3.2 0 4.8 0v-81.6c-1.6 0-3.2 0-4.8 0-51.2 0-97.6-4.8-142.4-14.4s-78.4-22.4-104-40v54.4c0 12.8 11.2 27.2 33.6 40zM158.4 411.2c22.4 12.8 51.2 22.4 89.6 30.4s78.4 11.2 123.2 11.2c1.6 0 3.2 0 4.8 0v-91.2c0-22.4 9.6-54.4 56-81.6 16-9.6 33.6-16 54.4-22.4-35.2-6.4-73.6-9.6-115.2-9.6-44.8 0-86.4 3.2-123.2 11.2-38.4 8-67.2 17.6-89.6 30.4s-33.6 25.6-33.6 41.6v41.6c0 11.2 11.2 25.6 33.6 38.4zM158.4 534.4c22.4 12.8 51.2 22.4 89.6 30.4s78.4 11.2 123.2 11.2c1.6 0 3.2 0 4.8 0v-81.6c-1.6 0-3.2 0-4.8 0-51.2 0-97.6-4.8-142.4-14.4s-78.4-22.4-104-40v54.4c0 12.8 11.2 27.2 33.6 40zM422.4 716.8v54.4c0 3.2 0 8 1.6 11.2 1.6 4.8 6.4 11.2 11.2 16 3.2 3.2 8 6.4 12.8 9.6 3.2 1.6 4.8 3.2 8 4.8 1.6 1.6 4.8 1.6 6.4 3.2 6.4 3.2 12.8 6.4 19.2 9.6v-80c-4.8-1.6-9.6-3.2-14.4-4.8s-8-3.2-12.8-6.4c-11.2-4.8-22.4-11.2-32-17.6zM896 680c4.8-3.2 8-6.4 9.6-9.6 3.2-3.2 4.8-6.4 6.4-11.2 1.6-3.2 1.6-6.4 1.6-11.2v-54.4c-19.2 12.8-43.2 24-73.6 33.6-9.6 3.2-20.8 4.8-32 8s-22.4 4.8-33.6 6.4c-11.2 1.6-22.4 3.2-35.2 4.8-24 1.6-48 3.2-73.6 3.2v0c-12.8 0-25.6 0-36.8-1.6-9.6 0-19.2-1.6-28.8-1.6-25.6-1.6-51.2-6.4-75.2-11.2-22.4-4.8-41.6-9.6-59.2-17.6-4.8-1.6-8-3.2-12.8-6.4-11.2-4.8-22.4-11.2-32-17.6v54.4c0 3.2 0 8 1.6 11.2 1.6 4.8 6.4 11.2 11.2 16 3.2 3.2 8 6.4 12.8 9.6 3.2 1.6 4.8 3.2 8 4.8 1.6 1.6 4.8 1.6 6.4 3.2 8 4.8 17.6 8 28.8 12.8 9.6-14.4 25.6-24 44.8-24l361.6-1.6c0 0 0 0 0 0zM448 324.8c-4.8 3.2-9.6 6.4-12.8 9.6-4.8 4.8-8 9.6-11.2 16-1.6 3.2-1.6 6.4-1.6 11.2v41.6c0 3.2 0 8 1.6 11.2 1.6 4.8 6.4 11.2 11.2 16 3.2 3.2 8 6.4 12.8 9.6 3.2 1.6 4.8 3.2 8 4.8 1.6 1.6 4.8 1.6 6.4 3.2 16 8 33.6 14.4 56 20.8 8 1.6 16 3.2 24 4.8 1.6 0 1.6 0 3.2 0 19.2 3.2 38.4 6.4 59.2 8 4.8 0 9.6 0 12.8 1.6 16 1.6 33.6 1.6 51.2 1.6 11.2 0 22.4 0 32 0 16 0 32-1.6 46.4-3.2s30.4-3.2 44.8-6.4c24-4.8 43.2-9.6 60.8-17.6 11.2-3.2 20.8-8 28.8-12.8 3.2-1.6 4.8-3.2 8-4.8s4.8-3.2 6.4-4.8c4.8-3.2 8-6.4 9.6-9.6 3.2-3.2 4.8-6.4 6.4-11.2s1.6-6.4 1.6-11.2v-41.6c0-3.2 0-8-1.6-11.2s-3.2-6.4-6.4-11.2c-3.2-3.2-6.4-6.4-9.6-9.6-1.6-1.6-4.8-3.2-6.4-4.8-3.2-1.6-4.8-3.2-8-4.8-8-4.8-17.6-9.6-28.8-12.8-17.6-6.4-38.4-12.8-60.8-17.6-14.4-3.2-28.8-4.8-44.8-6.4-14.4-1.6-30.4-3.2-46.4-3.2-11.2 0-22.4 0-32 0-22.4 0-43.2 1.6-64 3.2-9.6 1.6-17.6 1.6-25.6 3.2-11.2 1.6-22.4 3.2-33.6 4.8-9.6 1.6-19.2 3.2-27.2 6.4-25.6 6.4-46.4 14.4-62.4 24-3.2 0-6.4 1.6-8 3.2zM448 561.6c3.2 1.6 4.8 3.2 8 4.8 1.6 1.6 4.8 1.6 6.4 3.2 16 8 33.6 14.4 56 20.8 8 1.6 16 3.2 24 4.8 1.6 0 1.6 0 3.2 0 19.2 3.2 38.4 6.4 59.2 8 4.8 0 9.6 0 12.8 1.6 16 1.6 33.6 1.6 51.2 1.6 11.2 0 22.4 0 32 0 16 0 32-1.6 46.4-3.2s30.4-3.2 44.8-6.4c24-4.8 43.2-9.6 60.8-17.6 11.2-3.2 20.8-8 28.8-12.8 3.2-1.6 4.8-3.2 8-4.8s4.8-3.2 6.4-4.8c4.8-3.2 8-6.4 9.6-9.6 3.2-3.2 4.8-6.4 6.4-11.2s1.6-6.4 1.6-11.2v-54.4c-19.2 12.8-43.2 24-73.6 33.6-9.6 3.2-20.8 4.8-32 8-11.2 1.6-22.4 4.8-33.6 6.4s-22.4 3.2-35.2 4.8c-24 1.6-48 3.2-73.6 3.2v0c-12.8 0-25.6 0-36.8-1.6-9.6 0-19.2-1.6-28.8-1.6-25.6-1.6-51.2-6.4-75.2-11.2-22.4-4.8-41.6-9.6-59.2-17.6-4.8-1.6-8-3.2-12.8-6.4-11.2-4.8-22.4-11.2-32-17.6v54.4c0 3.2 0 8 1.6 11.2 1.6 4.8 6.4 11.2 11.2 16 4.8 3.2 9.6 6.4 14.4 9.6zM612.8 897.6c-3.2 1.6-6.4 3.2-12.8 3.2-8 0-14.4-1.6-19.2-6.4 0 0-1.6-1.6-1.6-1.6-4.8-4.8-6.4-12.8-6.4-24h-35.2c0 6.4 1.6 12.8 3.2 19.2 3.2 9.6 8 19.2 16 25.6 12.8 9.6 27.2 16 44.8 16s32-4.8 41.6-12.8c4.8-4.8 9.6-9.6 11.2-16 3.2-6.4 4.8-12.8 4.8-20.8 0-9.6-1.6-17.6-4.8-25.6-1.6-4.8-4.8-8-8-11.2-8-9.6-22.4-16-40-22.4-11.2-4.8-19.2-9.6-22.4-12.8-4.8-3.2-6.4-9.6-6.4-14.4 0-3.2 0-4.8 1.6-8s3.2-6.4 4.8-8c4.8-4.8 9.6-6.4 16-6.4 0 0 1.6 0 1.6 0 6.4 0 11.2 3.2 16 8s6.4 12.8 6.4 20.8h35.2c0-9.6-1.6-17.6-4.8-25.6-3.2-4.8-6.4-9.6-11.2-14.4-6.4-6.4-16-11.2-25.6-12.8-4.8-1.6-11.2-1.6-17.6-1.6-17.6 0-32 4.8-43.2 14.4-3.2 1.6-4.8 4.8-6.4 8-6.4 8-9.6 17.6-9.6 28.8 0 3.2 0 4.8 0 8 1.6 11.2 6.4 20.8 14.4 28.8 9.6 8 24 16 43.2 22.4 0 0 1.6 0 1.6 0 8 3.2 14.4 8 17.6 11.2 3.2 4.8 4.8 9.6 4.8 17.6 0 6.4-1.6 12.8-4.8 16-1.6-4.8-3.2-3.2-4.8-3.2zM795.2 886.4c3.2-8 3.2-16 3.2-25.6v-51.2c0-19.2-4.8-35.2-14.4-46.4-1.6-1.6-1.6-3.2-3.2-3.2-11.2-12.8-27.2-17.6-46.4-17.6s-35.2 6.4-46.4 17.6c-3.2 3.2-6.4 8-8 12.8-6.4 11.2-8 22.4-8 38.4v52.8c0 16 3.2 28.8 9.6 40 1.6 4.8 4.8 8 8 11.2 11.2 12.8 27.2 17.6 46.4 17.6 4.8 0 9.6 0 14.4-1.6s9.6-1.6 12.8-3.2l28.8 32 22.4-19.2-30.4-33.6c3.2-4.8 6.4-11.2 9.6-17.6 0-1.6 0-1.6 1.6-3.2zM734.4 900.8c-4.8 0-8-1.6-11.2-1.6-3.2-1.6-6.4-4.8-9.6-8-4.8-6.4-6.4-16-6.4-30.4v-51.2c0-12.8 1.6-22.4 6.4-30.4 4.8-6.4 11.2-9.6 20.8-9.6s16 3.2 20.8 9.6c4.8 6.4 8 16 8 30.4v51.2c0 12.8-3.2 24-8 30.4-1.6 1.6-3.2 3.2-4.8 4.8-4.8 3.2-9.6 4.8-16 4.8zM924.8 897.6h-67.2v-155.2h-35.2v184h102.4z"></path>
</svg>
