<!-- Generated by IcoMoon.io -->
<svg version="1.1" xmlns="http://www.w3.org/2000/svg" width="1024" height="1024" viewBox="0 0 1024 1024">
<title></title>
<g id="icomoon-ignore">
</g>
<path d="M790.4 723.2c19.2 0 36.8-6.4 49.6-20.8 12.8-12.8 20.8-30.4 20.8-49.6v-417.6c0-19.2-6.4-35.2-20.8-48-12.8-12.8-30.4-20.8-49.6-20.8h-417.6c-19.2 0-36.8 6.4-49.6 20.8s-20.8 30.4-20.8 48v417.6c0 19.2 6.4 36.8 20.8 49.6 12.8 12.8 30.4 20.8 49.6 20.8h417.6zM406.4 409.6h140.8v-139.2h68.8v139.2h140.8v70.4h-140.8v139.2h-68.8v-139.2h-140.8v-70.4zM163.2 305.6v488c0 19.2 6.4 35.2 20.8 48 12.8 12.8 30.4 20.8 49.6 20.8h486.4v-68.8h-486.4v-488h-70.4z"></path>
</svg>
