<!-- Generated by IcoMoon.io -->
<svg version="1.1" xmlns="http://www.w3.org/2000/svg" width="1024" height="1024" viewBox="0 0 1024 1024">
<title></title>
<g id="icomoon-ignore">
</g>
<path d="M844.8 76.8h-665.6c-56.554 0-102.4 45.846-102.4 102.4v0 665.6c0 56.554 45.846 102.4 102.4 102.4v0h665.6c56.554 0 102.4-45.846 102.4-102.4v0-665.6c0-56.554-45.846-102.4-102.4-102.4v0zM126.464 392.533l78.336-78.677 76.8 76.971c4.675 4.458 11.020 7.201 18.005 7.201s13.33-2.743 18.016-7.21l261.11-261.11 77.995 77.995-356.864 357.376zM805.205 870.4l-131.584-131.072-131.584 131.072-79.019-78.507 131.072-131.584-131.584-132.096 79.36-78.507 131.755 130.56 131.584-131.584 79.019 80.384-131.072 131.584 131.584 132.096z"></path>
</svg>
