<!-- Generated by IcoMoon.io -->
<svg version="1.1" xmlns="http://www.w3.org/2000/svg" width="1024" height="1024" viewBox="0 0 1024 1024">
<title></title>
<g id="icomoon-ignore">
</g>
<path d="M823.296 733.867c-1.845-3.535-4.584-6.384-7.923-8.31l-0.098-0.052c-2.625-1.395-5.739-2.215-9.044-2.219h-0.001c-3.249 0.011-6.303 0.831-8.977 2.269l0.102-0.050c-3.381 1.986-6.066 4.835-7.798 8.249l-0.052 0.114c-2.214 4.982-3.784 10.761-4.416 16.818l-0.021 0.249c-1.318 8.284-2.071 17.835-2.071 27.563s0.753 19.279 2.203 28.599l-0.133-1.037c1.022 6.385 2.929 12.123 5.614 17.398l-0.153-0.331c1.751 3.602 4.443 6.513 7.759 8.483l0.091 0.050c2.571 1.388 5.626 2.207 8.871 2.219h0.003c3.306-0.003 6.42-0.824 9.152-2.27l-0.107 0.051c3.457-2.022 6.201-4.93 7.968-8.418l0.053-0.116c2.611-4.94 4.576-10.675 5.586-16.734l0.046-0.333c1.36-8.285 2.137-17.833 2.137-27.563s-0.777-19.278-2.272-28.586l0.136 1.023c-1.389-6.445-3.691-12.153-6.798-17.321l0.142 0.254zM516.437 199.851c-1.801-3.517-4.482-6.362-7.757-8.311l-0.093-0.051c-2.625-1.395-5.739-2.215-9.044-2.219h-0.001c-0.019 0-0.042 0-0.064 0-3.285 0-6.377 0.821-9.084 2.269l0.103-0.051c-3.394 1.97-6.083 4.823-7.799 8.249l-0.051 0.113c-2.544 4.944-4.452 10.684-5.418 16.738l-0.043 0.329c-1.317 7.491-2.070 16.117-2.070 24.918 0 0.9 0.008 1.798 0.024 2.694l-0.002-0.135c0.074 9.764 1.064 19.251 2.89 28.437l-0.159-0.959c1.022 6.385 2.929 12.123 5.614 17.398l-0.153-0.331c1.742 3.607 4.436 6.521 7.759 8.483l0.091 0.050c2.603 1.398 5.696 2.219 8.981 2.219 0.023 0 0.045 0 0.068 0h-0.003c3.306-0.003 6.42-0.824 9.152-2.27l-0.107 0.051c3.389-2.044 6.074-4.948 7.798-8.415l0.053-0.118c2.594-4.939 4.558-10.673 5.584-16.725l0.048-0.342c1.322-7.416 2.078-15.954 2.078-24.669 0-1.048-0.011-2.093-0.033-3.135l0.003 0.156c0.017-0.834 0.027-1.816 0.027-2.801 0-8.717-0.755-17.258-2.202-25.56l0.128 0.884c-1.314-6.37-3.5-12.024-6.462-17.174l0.148 0.278zM363.008 199.851c-1.801-3.517-4.482-6.362-7.757-8.311l-0.093-0.051c-2.625-1.395-5.739-2.215-9.044-2.219h-0.001c-0.019 0-0.042 0-0.064 0-3.285 0-6.377 0.821-9.084 2.269l0.103-0.051c-3.394 1.97-6.083 4.823-7.799 8.249l-0.051 0.113c-2.544 4.944-4.452 10.684-5.418 16.738l-0.043 0.329c-1.317 7.491-2.070 16.117-2.070 24.918 0 0.9 0.008 1.798 0.024 2.694l-0.002-0.135c0.012 9.723 0.943 19.222 2.711 28.422l-0.151-0.945c1.022 6.385 2.929 12.123 5.614 17.398l-0.153-0.331c1.742 3.607 4.436 6.521 7.759 8.483l0.091 0.050c2.603 1.398 5.696 2.219 8.981 2.219 0.023 0 0.045 0 0.068 0h-0.003c3.306-0.003 6.42-0.824 9.152-2.27l-0.107 0.051c3.389-2.044 6.074-4.948 7.798-8.415l0.053-0.118c2.594-4.939 4.558-10.673 5.584-16.725l0.048-0.342c1.322-7.416 2.078-15.954 2.078-24.669 0-1.048-0.011-2.093-0.033-3.135l0.003 0.156c0.017-0.834 0.027-1.816 0.027-2.801 0-8.717-0.755-17.258-2.202-25.56l0.128 0.884c-1.256-6.361-3.386-12.020-6.293-17.184l0.149 0.288zM516.437 733.867c-1.801-3.517-4.482-6.362-7.757-8.311l-0.093-0.051c-2.625-1.395-5.739-2.215-9.044-2.219h-0.001c-0.019 0-0.042 0-0.064 0-3.285 0-6.377 0.821-9.084 2.269l0.103-0.051c-3.394 1.97-6.083 4.823-7.799 8.249l-0.051 0.113c-2.323 4.968-4.006 10.733-4.751 16.787l-0.028 0.279c-1.318 8.284-2.071 17.835-2.071 27.563s0.753 19.279 2.203 28.599l-0.133-1.037c1.022 6.385 2.929 12.123 5.614 17.398l-0.153-0.331c1.742 3.607 4.436 6.521 7.759 8.483l0.091 0.050c2.603 1.398 5.696 2.219 8.981 2.219 0.023 0 0.045 0 0.068 0h-0.003c3.306-0.003 6.42-0.824 9.152-2.27l-0.107 0.051c3.389-2.044 6.074-4.948 7.798-8.415l0.053-0.118c2.594-4.939 4.558-10.673 5.584-16.725l0.048-0.342c1.339-8.284 2.104-17.834 2.104-27.563s-0.765-19.278-2.238-28.593l0.134 1.030c-1.294-6.43-3.483-12.144-6.463-17.347l0.148 0.28zM209.749 733.867c-1.845-3.535-4.584-6.384-7.923-8.31l-0.098-0.052c-2.625-1.395-5.739-2.215-9.044-2.219h-0.001c-3.249 0.011-6.303 0.831-8.977 2.269l0.102-0.050c-3.381 1.986-6.066 4.835-7.798 8.249l-0.052 0.114c-2.488 4.95-4.34 10.695-5.251 16.749l-0.039 0.318c-1.318 8.284-2.071 17.835-2.071 27.563s0.753 19.279 2.203 28.599l-0.133-1.037c1.022 6.385 2.929 12.123 5.614 17.398l-0.153-0.331c1.751 3.602 4.443 6.513 7.759 8.483l0.091 0.050c2.571 1.388 5.626 2.207 8.871 2.219h0.003c3.306-0.003 6.42-0.824 9.152-2.27l-0.107 0.051c3.457-2.022 6.201-4.93 7.968-8.418l0.053-0.116c2.611-4.94 4.576-10.675 5.586-16.734l0.046-0.333c1.36-8.285 2.137-17.833 2.137-27.563s-0.777-19.278-2.272-28.586l0.136 1.023c-1.101-6.4-3.123-12.132-5.95-17.365l0.147 0.299zM669.867 466.773c-1.845-3.535-4.584-6.384-7.923-8.31l-0.098-0.052c-2.625-1.395-5.739-2.215-9.044-2.219h-0.001c-3.249 0.011-6.303 0.831-8.977 2.269l0.102-0.050c-3.381 1.986-6.066 4.835-7.798 8.249l-0.052 0.114c-2.544 4.944-4.452 10.684-5.418 16.738l-0.043 0.329c-1.318 8.284-2.071 17.835-2.071 27.563s0.753 19.279 2.203 28.599l-0.133-1.037c1.022 6.385 2.929 12.123 5.614 17.398l-0.153-0.331c1.751 3.602 4.443 6.513 7.759 8.483l0.091 0.050c2.571 1.388 5.626 2.207 8.871 2.219h0.003c3.498-0.419 6.634-1.7 9.272-3.623l-0.056 0.039c3.457-2.022 6.201-4.93 7.968-8.418l0.053-0.116c2.611-4.94 4.576-10.675 5.586-16.734l0.046-0.333c1.36-8.285 2.137-17.833 2.137-27.563s-0.777-19.278-2.272-28.586l0.136 1.023c-1.253-5.922-3.258-11.172-5.949-15.987l0.146 0.285zM823.296 199.851c-1.845-3.535-4.584-6.384-7.923-8.31l-0.098-0.052c-2.625-1.395-5.739-2.215-9.044-2.219h-0.001c-3.249 0.011-6.303 0.831-8.977 2.269l0.102-0.050c-3.381 1.986-6.066 4.835-7.798 8.249l-0.052 0.114c-2.544 4.944-4.452 10.684-5.418 16.738l-0.043 0.329c-1.317 7.491-2.070 16.117-2.070 24.918 0 0.9 0.008 1.798 0.024 2.694l-0.002-0.135c0.197 9.842 1.306 19.306 3.247 28.462l-0.175-0.985c1.022 6.385 2.929 12.123 5.614 17.398l-0.153-0.331c1.751 3.602 4.443 6.513 7.759 8.483l0.091 0.050c2.571 1.388 5.626 2.207 8.871 2.219h0.003c3.306-0.003 6.42-0.824 9.152-2.27l-0.107 0.051c3.457-2.022 6.201-4.93 7.968-8.418l0.053-0.116c2.611-4.94 4.576-10.675 5.586-16.734l0.046-0.333c1.421-7.679 2.234-16.514 2.234-25.539 0-0.741-0.005-1.482-0.016-2.22l0.001 0.112c0.017-0.845 0.027-1.841 0.027-2.839 0-8.704-0.755-17.231-2.203-25.52l0.128 0.882c-1.466-6.392-3.82-12.036-6.966-17.139l0.14 0.243zM844.8 76.8h-665.6c-56.554 0-102.4 45.846-102.4 102.4v0 665.6c0 56.554 45.846 102.4 102.4 102.4v0h665.6c56.554 0 102.4-45.846 102.4-102.4v0-665.6c0-56.554-45.846-102.4-102.4-102.4v0zM653.824 163.157h28.843v136.533h26.624v24.917h-92.501v-24.235h31.744v-81.749c0-3.925 0-8.192 0-12.629l-18.773 15.872c-1.016 0.861-2.206 1.556-3.504 2.023l-0.080 0.025c-1.279 0.591-2.775 0.936-4.352 0.936s-3.073-0.345-4.418-0.964l0.066 0.027c-1.336-0.713-2.467-1.627-3.4-2.715l-0.013-0.016-10.581-16.384zM193.024 163.157h28.843v136.533h26.624v24.917h-91.989v-24.235h31.232v-81.749c0-3.925 0-8.192 0-12.629l-18.091 15.872c-1.016 0.861-2.206 1.556-3.504 2.023l-0.080 0.025c-1.279 0.591-2.775 0.936-4.352 0.936s-3.073-0.345-4.418-0.964l0.066 0.027c-1.549-1.006-2.811-2.323-3.725-3.871l-0.030-0.054-10.411-15.189zM193.024 429.909h28.843v136.533h26.624v24.917h-91.989v-24.064h31.232v-81.749c0-3.925 0-8.192 0-12.629l-18.432 15.189c-1.016 0.861-2.206 1.556-3.504 2.023l-0.080 0.025c-1.279 0.591-2.775 0.936-4.352 0.936s-3.073-0.345-4.418-0.964l0.066 0.027c-1.362-0.855-2.499-1.937-3.389-3.205l-0.025-0.037-10.923-14.507zM247.808 814.592c-2.717 9.857-7.054 18.457-12.764 25.955l0.135-0.185c-5.031 6.459-11.438 11.609-18.801 15.057l-0.314 0.132c-6.868 3.128-14.894 4.952-23.347 4.952-0.192 0-0.384-0.001-0.575-0.003h0.029c-0.215 0.003-0.469 0.005-0.723 0.005-8.393 0-16.359-1.825-23.524-5.099l0.354 0.145c-7.609-3.602-13.957-8.748-18.857-15.072l-0.087-0.117c-5.514-7.319-9.796-15.921-12.336-25.242l-0.123-0.529c-2.855-11.042-4.494-23.719-4.494-36.779s1.639-25.736 4.722-37.836l-0.228 1.057c2.667-9.849 6.949-18.45 12.598-25.965l-0.14 0.194c5.061-6.659 11.599-11.939 19.144-15.402l0.312-0.129c6.845-3.129 14.848-4.953 23.276-4.953 0.217 0 0.434 0.001 0.65 0.004h-0.033c0.131-0.001 0.285-0.002 0.44-0.002 8.489 0 16.552 1.823 23.82 5.099l-0.366-0.148c7.677 3.581 14.084 8.73 19.029 15.075l0.086 0.114c5.571 7.315 9.908 15.914 12.503 25.239l0.126 0.532c2.939 11.116 4.627 23.878 4.627 37.035s-1.688 25.918-4.859 38.082l0.232-1.047zM401.408 858.795h-91.477v-24.747h31.403v-81.749c0-3.925 0-8.192 0-12.629l-18.261 15.189c-1.017 0.858-2.206 1.552-3.503 2.022l-0.081 0.026c-1.256 0.568-2.723 0.898-4.267 0.898s-3.011-0.331-4.334-0.925l0.067 0.027c-1.346-0.693-2.481-1.61-3.399-2.713l-0.014-0.017-10.923-14.507 51.2-42.325h27.648v136.533h26.624v24.917zM401.408 592.043h-91.477v-24.747h31.403v-81.749c0-3.925 0-8.192 0-12.629l-18.261 15.189c-1.017 0.858-2.206 1.552-3.503 2.022l-0.081 0.026c-1.256 0.568-2.723 0.898-4.267 0.898s-3.011-0.331-4.334-0.925l0.067 0.027c-1.346-0.693-2.481-1.61-3.399-2.713l-0.014-0.017-10.923-14.507 51.2-42.325h27.648v136.533h26.624v24.917zM401.408 280.917c-2.561 10.028-6.795 18.81-12.437 26.495l0.149-0.212c-5.031 6.459-11.438 11.609-18.801 15.057l-0.314 0.132c-7.035 3.161-15.249 5.002-23.893 5.002s-16.858-1.841-24.271-5.153l0.378 0.151c-7.609-3.602-13.957-8.748-18.857-15.072l-0.087-0.117c-5.796-7.391-10.307-16.105-13.011-25.58l-0.13-0.532c-2.835-10.267-4.463-22.057-4.463-34.227 0-0.927 0.009-1.852 0.028-2.775l-0.002 0.138c-0.017-0.785-0.026-1.71-0.026-2.637 0-12.17 1.629-23.959 4.681-35.162l-0.217 0.936c2.667-9.849 6.949-18.45 12.598-25.965l-0.14 0.194c4.987-6.442 11.335-11.587 18.634-15.057l0.31-0.133c7.042-3.123 15.255-4.941 23.893-4.941s16.852 1.818 24.279 5.092l-0.386-0.152c7.696 3.543 14.111 8.7 19.028 15.073l0.087 0.117c5.556 7.32 9.891 15.916 12.501 25.234l0.128 0.537c2.938 10.391 4.626 22.325 4.626 34.654 0 0.777-0.007 1.553-0.020 2.327l0.002-0.116c0.051 1.367 0.080 2.972 0.080 4.584 0 11.466-1.461 22.59-4.206 33.198l0.202-0.918zM555.008 814.592c-2.734 9.855-7.070 18.452-12.767 25.96l0.137-0.189c-5.031 6.459-11.438 11.609-18.801 15.057l-0.314 0.132c-7.035 3.161-15.249 5.002-23.893 5.002s-16.858-1.841-24.271-5.153l0.378 0.151c-7.609-3.602-13.957-8.748-18.857-15.072l-0.087-0.117c-5.618-7.261-10.008-15.799-12.669-25.068l-0.131-0.532c-2.855-11.042-4.494-23.719-4.494-36.779s1.639-25.736 4.722-37.836l-0.228 1.057c2.667-9.849 6.949-18.45 12.598-25.965l-0.14 0.194c5.075-6.696 11.607-12.024 19.143-15.569l0.313-0.132c7.042-3.123 15.255-4.941 23.893-4.941s16.852 1.818 24.279 5.092l-0.386-0.152c7.696 3.543 14.111 8.7 19.028 15.073l0.087 0.117c5.556 7.32 9.891 15.916 12.501 25.234l0.128 0.537c2.973 11.218 4.68 24.096 4.68 37.373 0 13.032-1.645 25.679-4.738 37.746l0.228-1.050zM555.008 567.125v24.917h-91.648v-24.747h31.573v-81.749c0-3.925 0-8.192 0-12.629l-18.261 15.189c-1.017 0.858-2.206 1.552-3.503 2.022l-0.081 0.026c-1.256 0.568-2.723 0.898-4.267 0.898s-3.011-0.331-4.334-0.925l0.067 0.027c-1.346-0.693-2.481-1.61-3.399-2.713l-0.014-0.017-10.923-14.507 51.2-42.325h27.648v136.533h26.624zM555.008 280.917c-2.615 10.036-6.905 18.816-12.603 26.487l0.145-0.204c-5.031 6.459-11.438 11.609-18.801 15.057l-0.314 0.132c-7.035 3.161-15.249 5.002-23.893 5.002s-16.858-1.841-24.271-5.153l0.378 0.151c-7.609-3.602-13.957-8.748-18.857-15.072l-0.087-0.117c-5.735-7.397-10.19-16.112-12.844-25.581l-0.127-0.531c-2.835-10.267-4.463-22.057-4.463-34.227 0-0.927 0.009-1.852 0.028-2.775l-0.002 0.138c-0.017-0.785-0.026-1.71-0.026-2.637 0-12.17 1.629-23.959 4.681-35.162l-0.217 0.936c2.667-9.849 6.949-18.45 12.598-25.965l-0.14 0.194c4.987-6.442 11.335-11.587 18.634-15.057l0.31-0.133c7.042-3.123 15.255-4.941 23.893-4.941s16.852 1.818 24.279 5.092l-0.386-0.152c7.696 3.543 14.111 8.7 19.028 15.073l0.087 0.117c5.556 7.32 9.891 15.916 12.501 25.234l0.128 0.537c2.938 10.391 4.626 22.325 4.626 34.654 0 0.777-0.007 1.553-0.020 2.327l0.002-0.116c0.051 1.367 0.080 2.972 0.080 4.584 0 11.466-1.461 22.59-4.206 33.198l0.202-0.918zM708.608 858.795h-91.819v-24.747h31.744v-81.749c0-3.925 0-8.192 0-12.629l-18.432 15.189c-1.016 0.861-2.206 1.556-3.504 2.023l-0.080 0.025c-1.279 0.591-2.775 0.936-4.352 0.936s-3.073-0.345-4.418-0.964l0.066 0.027c-1.336-0.713-2.467-1.627-3.4-2.715l-0.013-0.016-10.923-14.507 51.2-42.325h27.989v136.533h26.624v24.917zM708.608 547.669c-2.717 9.857-7.054 18.457-12.764 25.955l0.135-0.185c-5.031 6.459-11.438 11.609-18.801 15.057l-0.314 0.132c-6.868 3.128-14.894 4.952-23.347 4.952-0.192 0-0.384-0.001-0.575-0.003h0.029c-0.215 0.003-0.469 0.005-0.723 0.005-8.393 0-16.359-1.825-23.524-5.099l0.354 0.145c-7.609-3.602-13.957-8.748-18.857-15.072l-0.087-0.117c-5.618-7.261-10.008-15.799-12.669-25.068l-0.131-0.532c-2.855-11.042-4.494-23.719-4.494-36.779s1.639-25.736 4.722-37.836l-0.228 1.057c2.667-9.849 6.949-18.45 12.598-25.965l-0.14 0.194c4.959-6.471 11.315-11.624 18.637-15.060l0.307-0.129c6.845-3.129 14.848-4.953 23.276-4.953 0.217 0 0.434 0.001 0.65 0.004h-0.033c0.131-0.001 0.285-0.002 0.44-0.002 8.489 0 16.552 1.823 23.82 5.099l-0.366-0.148c7.677 3.581 14.084 8.73 19.029 15.075l0.086 0.114c5.571 7.315 9.908 15.914 12.503 25.239l0.126 0.532c3.007 11.241 4.735 24.147 4.735 37.456 0 12.818-1.602 25.262-4.617 37.142l0.224-1.041zM862.208 814.421c-2.717 9.857-7.054 18.457-12.764 25.955l0.135-0.185c-5.031 6.459-11.438 11.609-18.801 15.057l-0.314 0.132c-6.868 3.128-14.894 4.952-23.347 4.952-0.192 0-0.384-0.001-0.575-0.003h0.029c-0.215 0.003-0.469 0.005-0.723 0.005-8.393 0-16.359-1.825-23.524-5.099l0.354 0.145c-7.609-3.602-13.957-8.748-18.857-15.072l-0.087-0.117c-5.6-7.214-9.987-15.691-12.667-24.896l-0.133-0.533c-2.855-11.042-4.494-23.719-4.494-36.779s1.639-25.736 4.722-37.836l-0.228 1.057c2.667-9.849 6.949-18.45 12.598-25.965l-0.14 0.194c4.957-6.69 11.379-12.018 18.812-15.571l0.302-0.13c6.845-3.129 14.848-4.953 23.276-4.953 0.217 0 0.434 0.001 0.65 0.004h-0.033c0.131-0.001 0.285-0.002 0.44-0.002 8.489 0 16.552 1.823 23.82 5.099l-0.366-0.148c7.677 3.581 14.084 8.73 19.029 15.075l0.086 0.114c5.571 7.315 9.908 15.914 12.503 25.239l0.126 0.532c2.939 11.116 4.627 23.878 4.627 37.035s-1.688 25.918-4.859 38.082l0.232-1.047zM862.208 566.955v24.917h-91.989v-24.576h31.915v-81.749c0-3.925 0-8.192 0-12.629l-18.432 15.189c-1.016 0.861-2.206 1.556-3.504 2.023l-0.080 0.025c-1.279 0.591-2.775 0.936-4.352 0.936s-3.073-0.345-4.418-0.964l0.066 0.027c-1.336-0.713-2.467-1.627-3.4-2.715l-0.013-0.016-10.923-14.507 51.2-42.325h27.989v136.533h26.624zM862.208 280.747c-2.629 10.11-6.979 18.95-12.769 26.647l0.139-0.193c-5.031 6.459-11.438 11.609-18.801 15.057l-0.314 0.132c-6.868 3.128-14.894 4.952-23.347 4.952-0.192 0-0.384-0.001-0.575-0.003h0.029c-0.215 0.003-0.469 0.005-0.723 0.005-8.393 0-16.359-1.825-23.524-5.099l0.354 0.145c-7.677-3.581-14.084-8.73-19.029-15.075l-0.086-0.114c-5.612-7.408-9.956-16.128-12.508-25.584l-0.121-0.528c-2.835-10.267-4.463-22.057-4.463-34.227 0-0.927 0.009-1.852 0.028-2.775l-0.002 0.138c-0.017-0.785-0.026-1.71-0.026-2.637 0-12.17 1.629-23.959 4.681-35.162l-0.217 0.936c2.667-9.849 6.949-18.45 12.598-25.965l-0.14 0.194c4.959-6.471 11.315-11.624 18.637-15.060l0.307-0.129c6.845-3.129 14.848-4.953 23.276-4.953 0.217 0 0.434 0.001 0.65 0.004h-0.033c0.131-0.001 0.285-0.002 0.44-0.002 8.489 0 16.552 1.823 23.82 5.099l-0.366-0.148c7.677 3.581 14.084 8.73 19.029 15.075l0.086 0.114c5.571 7.315 9.908 15.914 12.503 25.239l0.126 0.532c2.938 10.385 4.627 22.311 4.627 34.632 0 0.785-0.007 1.568-0.020 2.349l0.002-0.118c0.019 0.84 0.030 1.83 0.030 2.823 0 12.106-1.631 23.831-4.684 34.967l0.216-0.926z"></path>
</svg>
