<!-- Generated by IcoMoon.io -->
<svg version="1.1" xmlns="http://www.w3.org/2000/svg" width="1024" height="1024" viewBox="0 0 1024 1024">
<title></title>
<g id="icomoon-ignore">
</g>
<path d="M189.611 49.835h161.451c24.789 0 44.885 20.096 44.885 44.885v161.451c0 24.789-20.096 44.885-44.885 44.885h-161.451c-24.789 0-44.885-20.096-44.885-44.885v-161.451c0-24.789 20.096-44.885 44.885-44.885zM117.931 386.389h161.451c24.789 0 44.885 20.096 44.885 44.885v161.451c0 24.789-20.096 44.885-44.885 44.885h-161.451c-24.789 0-44.885-20.096-44.885-44.885v-161.451c0-24.789 20.096-44.885 44.885-44.885zM189.611 722.944h161.451c24.789 0 44.885 20.096 44.885 44.885v161.621c0 24.789-20.096 44.885-44.885 44.885h-161.451c-24.789 0-44.885-20.096-44.885-44.885v-161.621c0-24.789 20.096-44.885 44.885-44.885zM609.963 512l-117.931-68.096v33.963h-100.523v68.267h100.523v33.963l117.931-68.096zM603.307 269.995l-96.427-96.427-48.299 48.299 96.427 96.427-24.064 24.064 131.584 35.157-35.328-131.584-23.893 24.064zM555.008 705.707l-96.427 96.427 48.299 48.299 96.427-96.427 23.893 24.064 35.328-131.584-131.584 35.157 24.064 24.064zM825.344 340.309c-88.224 0-159.744 71.52-159.744 159.744s71.52 159.744 159.744 159.744c88.224 0 159.744-71.52 159.744-159.744v0c-0.097-88.185-71.559-159.647-159.735-159.744h-0.009zM825.344 591.531c-50.522 0-91.477-40.956-91.477-91.477s40.956-91.477 91.477-91.477c50.522 0 91.477 40.956 91.477 91.477v0c-0.097 50.483-40.995 91.38-91.468 91.477h-0.009z"></path>
</svg>
