<!-- Generated by IcoMoon.io -->
<svg version="1.1" xmlns="http://www.w3.org/2000/svg" width="1024" height="1024" viewBox="0 0 1024 1024">
<title></title>
<g id="icomoon-ignore">
</g>
<path d="M844.8 76.8h-665.6c-56.554 0-102.4 45.846-102.4 102.4v0 665.6c0 56.554 45.846 102.4 102.4 102.4v0h665.6c56.554 0 102.4-45.846 102.4-102.4v0-665.6c0-56.554-45.846-102.4-102.4-102.4v0zM426.667 137.899h174.421v241.664c-0.009 38.687-2.427 76.8-7.113 114.208l0.457-4.469q-6.656 54.443-17.067 110.933h-126.293q-10.752-56.491-17.067-110.933c-4.432-32.739-7.092-70.802-7.337-109.438l-0.002-0.301v-241.664zM609.792 823.979c-5.487 12.796-13.098 23.689-22.497 32.738l-0.031 0.030c-9.57 9.085-20.904 16.419-33.422 21.424l-0.711 0.251c-12.039 4.969-26.017 7.854-40.669 7.854-0.282 0-0.564-0.001-0.846-0.003h0.043c-0.351 0.004-0.766 0.006-1.182 0.006-14.757 0-28.839-2.886-41.714-8.124l0.741 0.267c-37.454-15.512-63.322-51.774-63.322-94.078 0-0.346 0.002-0.691 0.005-1.036v0.053c-0.001-0.187-0.002-0.409-0.002-0.631 0-14.333 3.015-27.962 8.446-40.287l-0.252 0.641c5.517-12.613 12.997-23.373 22.174-32.414l0.013-0.012c9.562-9.203 20.895-16.646 33.425-21.76l0.708-0.256c12.163-5.181 26.312-8.192 41.165-8.192 0.048 0 0.096 0 0.144 0h-0.007c0.181-0.001 0.396-0.002 0.61-0.002 14.749 0 28.794 3.013 41.554 8.456l-0.692-0.263c13.208 5.468 24.525 12.898 34.182 22.062l-0.048-0.046c18.947 18.146 30.723 43.649 30.723 71.902 0 0.282-0.001 0.564-0.004 0.845v-0.043c-0.045 14.701-3.182 28.658-8.792 41.27l0.259-0.652z"></path>
</svg>
