<!-- Generated by IcoMoon.io -->
<svg version="1.1" xmlns="http://www.w3.org/2000/svg" width="1024" height="1024" viewBox="0 0 1024 1024">
<title></title>
<g id="icomoon-ignore">
</g>
<path d="M844.8 76.8h-665.6c-56.554 0-102.4 45.846-102.4 102.4v0 665.6c0 56.554 45.846 102.4 102.4 102.4v0h665.6c56.554 0 102.4-45.846 102.4-102.4v0-665.6c0-56.554-45.846-102.4-102.4-102.4v0zM416.085 842.581h-268.971v-72.704h90.795v-238.933q0-17.067 1.024-36.693l-53.419 44.373c-2.957 2.493-6.41 4.517-10.174 5.897l-0.237 0.076c-3 1.075-6.46 1.7-10.066 1.707h-0.003c-0.14 0.002-0.305 0.004-0.47 0.004-5.34 0-10.354-1.393-14.699-3.836l0.151 0.078c-3.893-2.005-7.181-4.638-9.86-7.804l-0.038-0.047-31.915-41.131 147.797-123.563h82.944v229.205c1.825-2.388 3.726-4.506 5.781-6.465l0.022-0.021 136.533-136.533c10.402-10.555 20.337-21.68 29.709-33.277l0.67-0.856c7.624-9.161 14.685-19.378 20.798-30.201l0.535-1.031c4.997-8.805 9.301-19 12.382-29.714l0.248-1.006c2.71-9.627 4.268-20.683 4.268-32.103 0-0.174 0-0.347-0.001-0.521v0.027c0.091-1.265 0.142-2.741 0.142-4.229 0-14.841-5.134-28.483-13.723-39.248l0.098 0.127c-9.439-9.383-22.45-15.183-36.815-15.183-1.459 0-2.904 0.060-4.332 0.177l0.187-0.012c-0.247-0.003-0.538-0.005-0.83-0.005-7.152 0-14.026 1.189-20.436 3.38l0.444-0.132c-6.514 2.159-12.171 5.114-17.24 8.825l0.173-0.121c-4.954 3.671-9.183 7.955-12.683 12.8l-0.117 0.17c-3.366 4.67-6.245 10.025-8.379 15.742l-0.154 0.472c-2.549 8.337-7.102 15.426-13.109 20.962l-0.032 0.030c-5.442 4.079-12.307 6.532-19.745 6.532-0.619 0-1.233-0.017-1.844-0.050l0.085 0.004h-6.997l-7.68-1.024-53.077-9.387c3.066-22.997 10.103-43.796 20.43-62.525l-0.462 0.914c18.567-33.542 49.083-58.559 85.67-69.538l1.028-0.265c17.602-5.42 37.837-8.541 58.801-8.541 0.628 0 1.255 0.003 1.882 0.008l-0.096-0.001c0.766-0.012 1.669-0.018 2.575-0.018 21.643 0 42.408 3.758 61.678 10.657l-1.277-0.399c18.487 6.581 34.388 16.218 47.909 28.44l-0.122-0.109c12.885 11.793 23.178 26.19 30.076 42.38l0.302 0.799c6.183 15.322 9.77 33.089 9.77 51.695 0 1.206-0.015 2.409-0.045 3.608l0.004-0.178c0.004 0.386 0.006 0.841 0.006 1.298 0 16.675-2.687 32.722-7.652 47.733l0.307-1.073c-5.377 16.025-12.137 29.909-20.414 42.721l0.446-0.737c-9.314 14.494-18.981 27.091-29.583 38.827l0.228-0.257q-17.067 18.603-35.499 37.717l-92.16 94.891c9.215-2.849 21.054-5.692 33.12-7.885l2.037-0.307c9.76-1.878 21.022-2.993 32.53-3.072h88.131c0.595-0.035 1.291-0.056 1.992-0.056 9.071 0 17.351 3.386 23.645 8.963l-0.037-0.032c5.81 5.624 9.416 13.493 9.416 22.205 0 0.474-0.011 0.945-0.032 1.413l0.002-0.067v58.368h-320.171v105.131h77.824v72.533zM897.024 764.416c-8.932 18.442-21.253 33.93-36.283 46.231l-0.239 0.19c-14.969 12.038-32.599 21.498-51.801 27.358l-1.106 0.29c-18.574 5.848-39.934 9.217-62.081 9.217-0.255 0-0.509 0-0.764-0.001h0.039c-0.847 0.011-1.846 0.018-2.847 0.018-20.283 0-39.938-2.684-58.631-7.717l1.574 0.361c-17.809-4.921-33.351-12.713-46.945-22.953l0.353 0.255c-14.174-10.951-26.086-24.003-35.477-38.811l-0.363-0.613c-10.418-16.38-19.486-35.227-26.246-55.14l-0.549-1.862 44.715-18.091c3.194-1.465 6.913-2.648 10.796-3.368l0.298-0.046c3.377-0.634 7.271-1.006 11.248-1.024h0.016c0.162-0.002 0.354-0.004 0.546-0.004 6.564 0 12.776 1.513 18.304 4.209l-0.248-0.109c5.346 2.556 9.627 6.618 12.387 11.634l0.072 0.142c7.692 15.467 18.089 28.482 30.694 38.925l0.196 0.158c10.235 7.579 23.11 12.132 37.048 12.132 0.475 0 0.949-0.005 1.422-0.016l-0.070 0.001c0.516 0.014 1.122 0.021 1.731 0.021 9.981 0 19.477-2.080 28.077-5.829l-0.453 0.176c8.064-3.584 14.924-8.476 20.625-14.479l0.026-0.028c5.293-5.683 9.523-12.438 12.322-19.893l0.137-0.417c2.668-6.837 4.23-14.751 4.267-23.025v-0.015c0.005-0.478 0.008-1.043 0.008-1.609 0-9.074-0.748-17.973-2.185-26.639l0.129 0.941c-1.473-8.432-5.714-15.686-11.735-20.956l-0.041-0.036c-8.165-6.564-18.080-11.297-28.931-13.414l-0.424-0.069c-14.627-3.085-31.435-4.851-48.655-4.851-2.095 0-4.184 0.026-6.267 0.078l0.308-0.006v-69.291c1.324 0.031 2.884 0.049 4.448 0.049 15.295 0 30.194-1.697 44.519-4.912l-1.351 0.255c10.673-2.294 20.072-6.628 28.192-12.601l-0.202 0.142c6.193-4.82 10.8-11.416 13.073-19.018l0.069-0.267c2.061-7.221 3.246-15.515 3.246-24.085 0-0.293-0.001-0.585-0.004-0.877v0.045c0.085-1.219 0.133-2.643 0.133-4.077 0-14.778-5.132-28.358-13.711-39.054l0.095 0.123c-9.439-9.383-22.45-15.183-36.815-15.183-1.459 0-2.904 0.060-4.332 0.177l0.187-0.012c-0.206-0.002-0.449-0.004-0.692-0.004-7.141 0-14.004 1.188-20.402 3.378l0.443-0.132c-6.514 2.159-12.171 5.114-17.24 8.825l0.173-0.121c-4.956 3.669-9.185 7.953-12.683 12.8l-0.117 0.171c-3.366 4.67-6.245 10.025-8.379 15.742l-0.154 0.472c-2.549 8.337-7.102 15.426-13.109 20.962l-0.032 0.030c-5.442 4.079-12.307 6.532-19.745 6.532-0.619 0-1.233-0.017-1.844-0.050l0.085 0.004h-6.997l-7.68-1.024-53.077-9.387c3.124-23.010 10.217-43.802 20.6-62.517l-0.461 0.906c18.567-33.542 49.083-58.559 85.67-69.538l1.028-0.265c17.602-5.42 37.837-8.541 58.801-8.541 0.628 0 1.255 0.003 1.882 0.008l-0.096-0.001c0.909-0.016 1.981-0.026 3.055-0.026 21.216 0 41.582 3.635 60.511 10.316l-1.272-0.391c17.781 6.28 33.103 15.389 46.237 26.929l-0.157-0.135c11.991 10.657 21.625 23.681 28.215 38.368l0.287 0.715c6.147 13.662 9.729 29.615 9.729 46.405 0 0.126 0 0.251-0.001 0.377v-0.019c0.009 0.604 0.013 1.316 0.013 2.030 0 13.281-1.686 26.169-4.855 38.46l0.233-1.066c-2.902 11.239-7.539 21.092-13.675 29.813l0.192-0.288c-6.057 8.364-13.357 15.393-21.709 20.97l-0.307 0.193c-8.643 5.712-18.576 10.621-29.112 14.231l-0.926 0.276q78.507 27.307 78.336 106.667c0.026 1.033 0.041 2.25 0.041 3.47 0 22.39-4.985 43.616-13.904 62.629l0.381-0.904z"></path>
</svg>
