<!-- Generated by IcoMoon.io -->
<svg version="1.1" xmlns="http://www.w3.org/2000/svg" width="1024" height="1024" viewBox="0 0 1024 1024">
<title></title>
<g id="icomoon-ignore">
</g>
<path d="M782.4 163.2h-540.8c-22.4 0-40 8-56 22.4-14.4 14.4-22.4 33.6-22.4 56v542.4c0 22.4 8 40 22.4 56 14.4 14.4 33.6 22.4 56 22.4h542.4c22.4 0 40-8 56-22.4 14.4-14.4 22.4-33.6 22.4-56v-542.4c0-22.4-8-40-22.4-56-17.6-14.4-35.2-22.4-57.6-22.4zM368 752h-96v-336h96v336zM558.4 752h-94.4v-480h94.4v480zM752 752h-96v-192h96v192z"></path>
</svg>
