<?xml version="1.0" encoding="UTF-8"?><svg id="Layer_1" xmlns="http://www.w3.org/2000/svg" viewBox="0 0 60 60"><path d="m53.57,29.98c0-.52-.02-1.02-.05-1.48-.75-11.81-10.22-21.28-22.02-22.02-.5-.02-1-.04-1.5-.05h0l-1.5.05c-12.3.78-22.07,11.03-22.07,23.52s10.57,23.57,23.57,23.57,22.74-9.77,23.52-22.07c.03-.47.05-.98.05-1.52ZM31.5,9.48c10.15.73,18.28,8.87,19.02,19.02h-19.02V9.48Zm-6.86.66l-14.48,14.48c1.91-7.03,7.45-12.57,14.48-14.48Zm-15.21,19.86c0-.15.02-.29.02-.43L28.5,10.52v3.66s-18.83,18.83-18.83,18.83c-.14-.98-.24-1.98-.24-3Zm1.05,6.44l18.02-18.02v3.66s-16.96,16.96-16.96,16.96c-.41-.83-.77-1.7-1.07-2.59Zm2.63,5.27l15.39-15.39v3.66s-13.77,13.77-13.77,13.77c-.58-.64-1.13-1.32-1.63-2.03Zm3.78,4.12l14.33-14.33h3.66l-15.86,15.86c-.74-.47-1.46-.97-2.13-1.53Zm4.89,3.01l17.34-17.34h3.66l-18.3,18.3c-.93-.26-1.83-.57-2.7-.95Zm15.36.44l12.17-12.17c-2.08,5.62-6.55,10.08-12.17,12.17Zm13.37-17.61l-18.82,18.82c-.55.04-1.11.08-1.68.08-.66,0-1.32-.04-1.96-.1l18.97-18.97h3.51c0,.06-.02.11-.02.17Z"/></svg>