<?xml version="1.0" encoding="UTF-8"?><svg id="Layer_1" xmlns="http://www.w3.org/2000/svg" viewBox="0 0 60 60"><path d="m28.89,9h-1.5c-13,0-23.57,10.58-23.57,23.57s10.57,23.57,23.57,23.57,23.57-10.57,23.57-23.57v-1.5h-22.07V9Zm-1.5,44.15c-11.34,0-20.57-9.23-20.57-20.57S15.25,12.83,25.89,12.06v22.02h22.02c-.77,10.65-9.68,19.07-20.52,19.07Z"/><path d="m32.6,3.85h-1.5v25.07h25.07v-1.5c0-13-10.58-23.57-23.57-23.57Zm1.5,8.94l4.9-4.9c.9.29,1.77.64,2.6,1.05l-7.5,7.5v-3.66Zm0,7.9l10.18-10.18c.72.5,1.39,1.04,2.03,1.62l-12.22,12.22v-3.66Zm14.31-6.41c.56.67,1.06,1.39,1.53,2.12l-9.52,9.52h-3.66l11.65-11.65Zm3.02,4.88c.38.87.71,1.76.97,2.69l-4.07,4.07h-3.66l6.76-6.76Zm-15.86-12.08l-1.47,1.47v-1.64c.5.04.98.1,1.47.17Zm16.99,18.84l.5-.5c.02.17.05.33.06.5h-.56Z"/></svg>