<!-- Generated by IcoMoon.io -->
<svg version="1.1" xmlns="http://www.w3.org/2000/svg" width="1024" height="1024" viewBox="0 0 1024 1024">
<title></title>
<g id="icomoon-ignore">
</g>
<path d="M188.8 518.4c33.6 33.6 72 54.4 116.8 64s88 6.4 129.6-11.2l323.2 323.2c6.4 8 14.4 11.2 24 11.2s17.6-3.2 25.6-11.2l81.6-81.6c9.6-6.4 12.8-16 12.8-25.6 0-11.2-3.2-19.2-9.6-24l-321.6-323.2c16-40 20.8-81.6 11.2-128-9.6-44.8-30.4-84.8-64-116.8-35.2-33.6-78.4-56-126.4-64-49.6-8-94.4-3.2-136 17.6l153.6 153.6-107.2 107.2-158.4-155.2c-22.4 43.2-28.8 89.6-19.2 137.6 8 48 30.4 91.2 64 126.4z"></path>
</svg>
