<!-- Generated by IcoMoon.io -->
<svg version="1.1" xmlns="http://www.w3.org/2000/svg" width="1024" height="1024" viewBox="0 0 1024 1024">
<title></title>
<g id="icomoon-ignore">
</g>
<path d="M176 500.8v75.2c0 19.2 14.4 38.4 44.8 56 25.6 16 60.8 28.8 102.4 36.8l30.4-30.4c0 0 0 0 0 0l65.6-65.6c-35.2-3.2-68.8-8-100.8-14.4-59.2-12.8-107.2-32-142.4-57.6zM760 774.4l-64 64c44.8-11.2 80-22.4 108.8-38.4 30.4-17.6 44.8-35.2 44.8-56v-75.2c-11.2 8-25.6 16-40 24-9.6 32-25.6 59.2-49.6 81.6zM264 729.6l12.8-12.8c-41.6-11.2-75.2-27.2-102.4-44.8v75.2c0 19.2 14.4 38.4 44.8 56 8-28.8 24-52.8 44.8-73.6zM804.8 128c-30.4-17.6-72-32-123.2-41.6-52.8-9.6-108.8-14.4-169.6-14.4s-118.4 4.8-169.6 14.4c-49.6 9.6-91.2 24-121.6 41.6s-44.8 35.2-44.8 56v56c0 20.8 14.4 38.4 44.8 56s72 32 123.2 41.6c52.8 9.6 108.8 14.4 168 14.4s116.8-4.8 169.6-14.4c52.8-11.2 92.8-24 123.2-41.6s44.8-35.2 44.8-56v-56c1.6-20.8-12.8-38.4-44.8-56zM816 624c22.4-14.4 33.6-30.4 33.6-48v-75.2c-17.6 12.8-40 24-64 33.6 17.6 27.2 27.2 57.6 30.4 89.6zM512 408c-68.8 0-132.8-6.4-193.6-19.2s-108.8-30.4-145.6-56v75.2c0 20.8 14.4 38.4 44.8 56s72 32 123.2 41.6c41.6 8 84.8 12.8 131.2 14.4l16-16c36.8-36.8 84.8-56 136-56 44.8 0 86.4 14.4 120 41.6 24-8 43.2-16 60.8-25.6 30.4-17.6 44.8-35.2 44.8-56v-75.2c-35.2 25.6-81.6 43.2-142.4 56-59.2 12.8-126.4 19.2-195.2 19.2zM715.2 729.6l-91.2 91.2c-49.6 49.6-129.6 49.6-180.8 0-8-8-14.4-16-19.2-25.6l41.6-41.6c1.6-1.6 4.8-3.2 6.4-4.8 3.2 9.6 8 19.2 16 27.2 25.6 25.6 65.6 25.6 91.2 0l91.2-91.2c25.6-25.6 25.6-65.6 0-91.2s-65.6-25.6-91.2 0l-32 32c-25.6-9.6-54.4-12.8-81.6-9.6l68.8-68.8c49.6-49.6 129.6-49.6 180.8 0 49.6 51.2 49.6 132.8 0 182.4zM476.8 878.4l-32 32c-25.6 25.6-65.6 25.6-91.2 0s-25.6-65.6 0-91.2l91.2-91.2c25.6-25.6 65.6-25.6 91.2 0 8 8 12.8 17.6 16 27.2 3.2-1.6 4.8-3.2 6.4-4.8l41.6-41.6c-4.8-9.6-11.2-17.6-19.2-25.6-49.6-49.6-129.6-49.6-180.8 0l-91.2 91.2c-49.6 49.6-49.6 131.2 0 180.8s129.6 49.6 180.8 0l68.8-68.8c-27.2 4.8-56 1.6-81.6-8z"></path>
</svg>
