<!-- Generated by IcoMoon.io -->
<svg version="1.1" xmlns="http://www.w3.org/2000/svg" width="1024" height="1024" viewBox="0 0 1024 1024">
<title></title>
<g id="icomoon-ignore">
</g>
<path d="M822.4 553.6l104 80-9.6 16-84.8 145.6-8 14.4-121.6-48c-24 17.6-46.4 30.4-70.4 41.6l-17.6 128c0 0-6.4 0-19.2 0h-166.4c-11.2 0-19.2 0-19.2 0l-17.6-128c-25.6-11.2-48-24-70.4-41.6l-121.6 48-8-14.4-84.8-145.6-9.6-16 104-80c-1.6-16-1.6-28.8-1.6-41.6s0-25.6 1.6-41.6l-104-80 9.6-16 84.8-145.6 8-14.4 121.6 48c24-17.6 46.4-30.4 70.4-41.6l19.2-128h204.8l17.6 128c25.6 11.2 48 24 70.4 41.6l121.6-48 102.4 176-104 80c3.2 16 3.2 28.8 3.2 41.6s-1.6 25.6-4.8 41.6zM409.6 616c28.8 28.8 62.4 43.2 102.4 43.2s73.6-14.4 102.4-43.2c28.8-28.8 43.2-64 43.2-104s-14.4-75.2-43.2-104c-28.8-28.8-62.4-43.2-102.4-43.2s-73.6 14.4-102.4 43.2c-28.8 28.8-43.2 64-43.2 104s14.4 75.2 43.2 104z"></path>
</svg>
