<!-- Generated by IcoMoon.io -->
<svg version="1.1" xmlns="http://www.w3.org/2000/svg" width="1024" height="1024" viewBox="0 0 1024 1024">
<title></title>
<g id="icomoon-ignore">
</g>
<path d="M627.2 170.137c-9.543-24.071-24.935-44.095-44.466-58.96l-0.334-0.244c-19.599-13.959-44.015-22.337-70.386-22.391h-0.014c-25.856 0.065-49.74 8.452-69.129 22.624l0.333-0.232c-20.212 14.782-35.705 34.916-44.51 58.325l-0.29 0.879h-249.6v808.004h727.996v-808.004zM332.1 245.452h125.406c0-0.41-0.102-0.768-0.102-1.178-0.016-0.505-0.026-1.1-0.026-1.696 0-31.048 25.169-56.218 56.218-56.218s56.218 25.169 56.218 56.218c0 0.597-0.009 1.191-0.028 1.783l0.002-0.086c0 0.41-0.085 0.768-0.085 1.178h122.18v80.009h-359.782zM530.671 722.142l-60.809 62.396-60.791-60.809-105.609-102.4 64-64 102.4 99.209 195.209-198.4 65.604 62.396z"></path>
</svg>
