<!-- Generated by IcoMoon.io -->
<svg version="1.1" xmlns="http://www.w3.org/2000/svg" width="1024" height="1024" viewBox="0 0 1024 1024">
<title></title>
<g id="icomoon-ignore">
</g>
<path d="M452.8 635.2l-102.4-99.2-64 64 105.6 102.4 60.8 60.8 60.8-62.4 200-201.6-65.6-62.4zM876.8 148.8h-249.6c-9.6-24-24-43.2-44.8-59.2-22.4-14.4-43.2-22.4-70.4-22.4-25.6 0-48 8-68.8 22.4s-35.2 35.2-44.8 59.2h-249.6v808h728v-808zM484.8 160c8-8 17.6-11.2 28.8-11.2s20.8 3.2 28.8 11.2 11.2 17.6 11.2 28.8-3.2 20.8-11.2 28.8-17.6 11.2-28.8 11.2-20.8-3.2-28.8-11.2-11.2-17.6-11.2-28.8 3.2-20.8 11.2-28.8zM796.8 876.8h-568v-648h80v121.6h406.4v-121.6h80v648z"></path>
</svg>
