<!-- Generated by IcoMoon.io -->
<svg version="1.1" xmlns="http://www.w3.org/2000/svg" width="1024" height="1024" viewBox="0 0 1024 1024">
<title></title>
<g id="icomoon-ignore">
</g>
<path d="M211.2 361.6l46.4-48 155.2-155.2-51.2-49.6-152 153.6-78.4-76.8-49.6 49.6 81.6 80zM516.8 198.4h411.2v73.6h-411.2v-73.6zM211.2 633.6l46.4-48 155.2-156.8-51.2-49.6-152 155.2-78.4-78.4-49.6 51.2 81.6 80zM516.8 470.4h411.2v73.6h-411.2v-73.6zM211.2 904l46.4-48 155.2-155.2-51.2-49.6-152 153.6-78.4-76.8-49.6 51.2 81.6 78.4zM516.8 740.8h411.2v73.6h-411.2v-73.6z"></path>
</svg>
