<!-- Generated by IcoMoon.io -->
<svg version="1.1" xmlns="http://www.w3.org/2000/svg" width="1024" height="1024" viewBox="0 0 1024 1024">
<title></title>
<g id="icomoon-ignore">
</g>
<path d="M850.057 758.22c0.939-1.399 1.809-2.816 2.714-4.233 6.332-9.762 12.305-19.78 17.801-30.106 0.802-1.502 1.536-3.038 2.321-4.557 5.342-10.325 10.24-20.873 14.711-31.693 0.529-1.28 1.007-2.577 1.536-3.874 4.386-11.025 8.363-22.187 11.793-33.724 0.29-0.973 0.546-1.929 0.819-2.901 3.413-11.622 6.315-23.433 8.67-35.465 0.137-0.768 0.256-1.536 0.41-2.287 2.27-11.947 4.062-24.183 5.257-36.523 0-0.683 0.102-1.365 0.154-2.048 1.143-12.356 1.707-24.832 1.707-37.547v0c0-12.646-0.649-25.122-1.707-37.547 0-0.683-0.085-1.365-0.154-2.048-1.195-12.339-2.987-24.525-5.274-36.523-0.137-0.768-0.256-1.519-0.393-2.287-2.355-12.032-5.274-23.893-8.67-35.482-0.273-0.956-0.529-1.911-0.819-2.867-3.413-11.486-7.407-22.733-11.81-33.758-0.512-1.28-0.99-2.56-1.502-3.84-4.454-10.837-9.404-21.402-14.729-31.727-0.785-1.519-1.519-3.021-2.321-4.523-5.495-10.24-11.469-20.361-17.801-30.123-0.905-1.417-1.707-2.833-2.714-4.233-6.827-10.24-14.080-20.053-21.743-29.594-0.7-0.853-1.331-1.707-2.031-2.56-17.364-21.12-36.112-39.874-56.523-56.681l-0.701-0.561c-0.853-0.7-1.707-1.348-2.611-2.048q-14.285-11.503-29.559-21.726c-1.399-0.939-2.833-1.809-4.233-2.714-9.762-6.332-19.78-12.305-30.106-17.783-1.502-0.819-3.038-1.57-4.557-2.355-10.325-5.325-20.89-10.24-31.693-14.694-1.28-0.529-2.577-1.007-3.857-1.519-11.025-4.403-22.187-8.38-33.758-11.81l-2.867-0.819c-11.622-3.413-23.433-6.315-35.465-8.653l-2.338-0.427c-11.947-2.27-24.149-4.062-36.489-5.257-0.683 0-1.365-0.102-2.048-0.154-12.356-1.143-24.832-1.792-37.547-1.792-224.246 0-406.033 181.787-406.033 406.033s181.787 406.033 406.033 406.033v0 0c12.612 0 25.071-0.649 37.393-1.707l2.082-0.171c12.339-1.195 24.508-2.987 36.489-5.257l2.338-0.427c11.947-2.338 23.893-5.257 35.43-8.653l2.918-0.819c11.469-3.413 22.699-7.39 33.707-11.793 1.297-0.512 2.611-1.007 3.891-1.536 10.82-4.437 21.367-9.37 31.676-14.694 1.536-0.785 3.072-1.536 4.574-2.355 10.325-5.495 20.343-11.452 30.106-17.783 1.399-0.905 2.833-1.707 4.233-2.714q15.36-10.24 29.559-21.726c0.87-0.7 1.707-1.348 2.611-2.065 21.11-17.363 39.858-36.105 56.664-56.507l0.56-0.701c0.7-0.853 1.348-1.707 2.031-2.594q11.639-14.217 21.862-29.508zM299.52 745.813c-54.374-54.38-88.005-129.503-88.005-212.48 0-165.958 134.528-300.496 300.483-300.51h0.001v601.020c-0.24 0.001-0.525 0.001-0.81 0.001-82.727 0-157.594-33.654-211.657-88.017l-0.013-0.014z"></path>
</svg>
