<!-- Generated by IcoMoon.io -->
<svg version="1.1" xmlns="http://www.w3.org/2000/svg" width="1024" height="1024" viewBox="0 0 1024 1024">
<title></title>
<g id="icomoon-ignore">
</g>
<path d="M755.2 182.4c-179.2 0-256 0-438.4 0 65.6 244.8 129.6 481.6 193.6 720 62.4 0 22.4 0 84.8 0 89.6 0 81.6-62.4 73.6-92.8-12.8-52.8-25.6-104-40-160 116.8 0 128 0 248 0 94.4 0 81.6-68.8 73.6-100.8-22.4-88-46.4-174.4-70.4-260.8-11.2-35.2-12.8-105.6-124.8-105.6zM252.8 182.4c-59.2 0-116.8 0-184 0 41.6 156.8 81.6 308.8 123.2 464 59.2 0 113.6 0 179.2 0-30.4-158.4-80-307.2-118.4-464z"></path>
</svg>
