<!-- Generated by IcoMoon.io -->
<svg version="1.1" xmlns="http://www.w3.org/2000/svg" width="1024" height="1024" viewBox="0 0 1024 1024">
<title></title>
<g id="icomoon-ignore">
</g>
<path d="M643.618 532.958c-135.402 0.010-245.163 109.777-245.163 245.18 0 135.409 109.771 245.18 245.18 245.18s245.18-109.771 245.18-245.18v0c-0.155-135.353-109.843-245.034-245.183-245.18h-0.014zM643.618 963.584c-102.412-0.010-185.429-83.033-185.429-185.446 0-102.419 83.027-185.446 185.446-185.446s185.446 83.027 185.446 185.446v0c-0.117 102.378-83.084 185.34-185.453 185.446h-0.010zM657.067 672.99h-34.133v128.324l108.459 67.43 18.005-28.996-92.331-57.412v-109.346zM906.871 60.074c-0.031 0-0.068 0-0.104 0-60.852 0-110.182 49.33-110.182 110.182 0 15.959 3.393 31.126 9.497 44.818l-0.279-0.7-98.987 80.896c-17.593-12.531-39.524-20.034-63.206-20.034s-45.613 7.503-63.544 20.262l0.337-0.228-98.987-80.896c5.874-13.048 9.297-28.286 9.297-44.322 0-60.918-49.384-110.302-110.302-110.302s-110.302 49.384-110.302 110.302c0 29.017 11.205 55.417 29.524 75.11l-0.062-0.068-152.576 249.498c-9.064-2.673-19.477-4.21-30.249-4.21-61.173 0-110.763 49.59-110.763 110.763s49.59 110.763 110.763 110.763c61.173 0 110.763-49.59 110.763-110.763 0-29.113-11.232-55.603-29.599-75.372l0.064 0.069 152.593-249.412c8.999 2.676 19.339 4.216 30.038 4.216 23.632 0 45.51-7.512 63.375-20.278l-0.331 0.225 98.987 80.896c-5.829 13.003-9.225 28.182-9.225 44.154 0 60.909 49.376 110.285 110.285 110.285s110.285-49.376 110.285-110.285c0-15.972-3.395-31.151-9.504-44.855l0.279 0.701 98.987-80.896c17.624 12.481 39.564 19.951 63.249 19.951 60.88 0 110.234-49.353 110.234-110.234s-49.353-110.234-110.234-110.234c-0.036 0-0.072 0-0.108 0h0.006zM167.68 600.661c0 0.076 0.001 0.166 0.001 0.256 0 27.919-22.633 50.551-50.551 50.551s-50.551-22.633-50.551-50.551c0-26.387 20.217-48.051 46.005-50.35l0.194-0.014c1.451-0.137 2.85-0.444 4.352-0.444 27.88 0.097 50.455 22.672 50.551 50.542v0.009zM392.96 219.153c-2.348 0.614-5.126 1.080-7.971 1.303l-0.17 0.011c-1.451 0.137-2.867 0.444-4.352 0.444-0.025 0-0.055 0-0.085 0-27.919 0-50.551-22.633-50.551-50.551s22.633-50.551 50.551-50.551c27.919 0 50.551 22.633 50.551 50.551v0c0 0.87-0.222 1.707-0.256 2.526-1.17 22.319-16.689 40.71-37.451 46.189l-0.351 0.079zM694.255 385.502c0.005 0.276 0.009 0.602 0.009 0.929 0 27.919-22.633 50.551-50.551 50.551s-50.551-22.633-50.551-50.551c0-0.327 0.003-0.652 0.009-0.978l-0.001 0.049c0-0.853 0.205-1.707 0.256-2.526 1.344-26.73 23.344-47.895 50.287-47.895s48.943 21.164 50.282 47.775l0.005 0.12c-0.034 0.853 0.171 1.673 0.171 2.526zM906.957 220.911c-4.464-0.037-8.767-0.658-12.859-1.789l0.349 0.082c-21.165-5.528-36.726-23.958-37.866-46.197l-0.005-0.122c0-0.853-0.256-1.707-0.256-2.526 0-27.919 22.633-50.551 50.551-50.551s50.551 22.633 50.551 50.551c0 27.919-22.633 50.551-50.551 50.551v0z"></path>
</svg>
