<!-- Generated by IcoMoon.io -->
<svg version="1.1" xmlns="http://www.w3.org/2000/svg" width="1024" height="1024" viewBox="0 0 1024 1024">
<title></title>
<g id="icomoon-ignore">
</g>
<path d="M231.339 546.065v128.307l108.459 67.43 18.005-28.996-92.331-57.395v-109.346h-34.133zM753.903 385.502c0-0.012 0-0.027 0-0.041 0-15.91-3.393-31.027-9.494-44.668l0.278 0.695 98.987-80.896c17.606 12.444 39.514 19.89 63.162 19.89 60.88 0 110.234-49.353 110.234-110.234s-49.353-110.234-110.234-110.234c-60.88 0-110.234 49.353-110.234 110.234 0 15.962 3.393 31.132 9.497 44.828l-0.279-0.701-98.987 80.896c-17.593-12.531-39.524-20.034-63.206-20.034s-45.613 7.503-63.544 20.262l0.337-0.228-98.987-80.896c5.874-13.048 9.297-28.286 9.297-44.322 0-60.918-49.384-110.302-110.302-110.302s-110.302 49.384-110.302 110.302c0 29.017 11.205 55.417 29.524 75.11l-0.062-0.068-102.298 167.253c-110.057 25.753-190.767 123.052-190.767 239.202 0 135.503 109.847 245.35 245.35 245.35s245.35-109.847 245.35-245.35c0-128.886-99.38-234.56-225.691-244.574l-0.856-0.055 79.855-130.543c8.999 2.676 19.339 4.216 30.038 4.216 23.632 0 45.51-7.512 63.375-20.278l-0.331 0.225 98.987 80.896c-5.792 12.963-9.165 28.093-9.165 44.010 0 60.89 49.361 110.251 110.251 110.251 60.888 0 110.248-49.358 110.251-110.245v0zM906.871 119.808c27.919 0 50.551 22.633 50.551 50.551s-22.633 50.551-50.551 50.551v0c-4.464-0.037-8.767-0.658-12.859-1.789l0.349 0.082c-21.129-5.56-36.652-23.979-37.781-46.198l-0.005-0.121c0-0.853-0.256-1.707-0.256-2.526 0.039-27.903 22.648-50.513 50.548-50.551h0.004zM437.538 651.212c0 0.005 0 0.011 0 0.017 0 102.429-83.035 185.463-185.463 185.463s-185.463-83.035-185.463-185.463c0-102.411 83.006-185.434 185.41-185.463h0.003c102.376 0.117 185.337 83.072 185.463 185.434v0.012zM430.711 172.885c-1.17 22.319-16.689 40.71-37.451 46.189l-0.351 0.079c-2.348 0.614-5.126 1.080-7.971 1.303l-0.17 0.011c-1.451 0.137-2.867 0.444-4.352 0.444-0.010 0-0.022 0-0.034 0-27.919 0-50.551-22.633-50.551-50.551s22.633-50.551 50.551-50.551c27.919 0 50.551 22.633 50.551 50.551v0c0 0.87-0.222 1.673-0.256 2.526zM593.118 385.502c0-0.853 0.205-1.707 0.256-2.526 1.344-26.73 23.344-47.895 50.287-47.895s48.943 21.164 50.282 47.775l0.005 0.12c0 0.853 0.256 1.707 0.256 2.526 0.005 0.276 0.009 0.602 0.009 0.929 0 27.919-22.633 50.551-50.551 50.551s-50.551-22.633-50.551-50.551c0-0.327 0.003-0.652 0.009-0.978l-0.001 0.049zM1016.644 740.471l-46.455-80.384c-1.922-3.001-5.238-4.961-9.012-4.961-1.939 0-3.757 0.517-5.324 1.422l0.052-0.027-55.381 21.436c-4.237-3.837-8.905-7.371-13.87-10.476l-0.414-0.242c-7.153-5.828-15.425-10.657-24.386-14.094l-0.616-0.208-8.943-60.723c-1.151-5.194-5.717-9.021-11.177-9.021-0.47 0-0.933 0.028-1.388 0.083l0.055-0.005h-91.102c-7.151 0-10.718 1.707-12.51 8.943l-8.926 60.723c-9.653 4.571-17.849 9.336-25.603 14.694l0.6-0.392c-4.144 3.131-8.826 6.094-13.746 8.662l-0.556 0.264-21.436-8.926-33.929-12.51c-1.357-0.526-2.927-0.831-4.568-0.831-3.871 0-7.345 1.695-9.722 4.384l-0.012 0.014-44.663 80.401c-1.707 7.134-1.707 10.718 1.792 14.285l33.877 25.003 16.077 12.51c-1.206 5.651-1.896 12.143-1.896 18.797 0 1.558 0.038 3.108 0.113 4.648l-0.008-0.217v1.707c-0.046 1.060-0.073 2.304-0.073 3.554 0 6.339 0.679 12.519 1.969 18.471l-0.104-0.572-48.162 35.789c-1.881 2.293-3.022 5.258-3.022 8.488 0 2.107 0.485 4.101 1.35 5.876l-0.035-0.080 44.663 80.384c1.246 4.599 5.382 7.926 10.296 7.926 1.438 0 2.809-0.285 4.060-0.801l-0.071 0.026 55.381-23.228c10.74 8.745 23.163 15.985 36.624 21.126l0.923 0.31 8.926 62.532c1.157 5.186 5.719 9.004 11.173 9.004 0.471 0 0.935-0.028 1.391-0.084l-0.055 0.005h91.102c7.151 0 10.718-1.707 12.51-8.926l8.943-62.532c14.34-6.182 26.689-13.358 38.049-21.792l-0.502 0.356 55.364 23.228c7.151 1.792 12.51 0 14.302-7.151l44.646-80.384c1.707-7.134 1.707-10.718-1.707-14.285l-50.022-33.946c1.158-6.213 1.82-13.361 1.82-20.663 0-0.902-0.010-1.801-0.030-2.698l0.002 0.133c0.068-1.232 0.107-2.674 0.107-4.124 0-6.135-0.692-12.109-2.001-17.847l0.103 0.536 48.23-37.547c8.704-7.1 8.704-10.684 6.929-16.043zM795.119 885.179c-38.458-0.058-69.618-31.224-69.666-69.679v-0.005c0.614-38.013 31.573-68.593 69.675-68.593s69.061 30.58 69.674 68.535l0.001 0.058c-0.049 38.465-31.218 69.635-69.678 69.683h-0.005z"></path>
</svg>
