<!-- Generated by IcoMoon.io -->
<svg version="1.1" xmlns="http://www.w3.org/2000/svg" width="1024" height="1024" viewBox="0 0 1024 1024">
<title></title>
<g id="icomoon-ignore">
</g>
<path d="M694.4 240c150.4 0 272 121.6 272 272s-121.6 272-272 272h-364.8c-150.4 0-272-121.6-272-272s121.6-272 272-272h364.8zM694.4 192h-364.8c-176 0-320 144-320 320v0c0 176 144 320 320 320h364.8c176 0 320-144 320-320v0c0-176-144-320-320-320v0zM521.6 348.8c44.8-44.8 99.2-67.2 163.2-67.2s118.4 22.4 163.2 67.2c44.8 44.8 67.2 99.2 67.2 163.2s-22.4 118.4-67.2 163.2c-44.8 44.8-99.2 67.2-163.2 67.2s-118.4-22.4-163.2-67.2c-44.8-44.8-67.2-99.2-67.2-163.2-1.6-64 20.8-118.4 67.2-163.2z"></path>
</svg>
