<!-- Generated by IcoMoon.io -->
<svg version="1.1" xmlns="http://www.w3.org/2000/svg" width="1024" height="1024" viewBox="0 0 1024 1024">
<title></title>
<g id="icomoon-ignore">
</g>
<path d="M826.522 764.62c-9.093-3.722-19.642-5.91-30.695-5.973h-0.025c-47.012 0.058-85.115 38.124-85.231 85.117v0.011h-61.833l-68.045-68.267h-137.404l-68.045 68.267h-61.747c0.001-0.117 0.001-0.256 0.001-0.394 0-46.808-37.945-84.753-84.753-84.753-11.272 0-22.031 2.201-31.869 6.196l0.567-0.204-9.353-24.013c-42.78-10.195-80.288-28.239-112.707-52.675l0.767 0.554 72.107 184.73 0.273-0.102c12.218 32.877 43.284 55.897 79.74 55.996h182.403l68.045-68.267h66.56l68.045 68.267h182.409c35.831-0.079 66.461-22.26 78.987-53.629l0.203-0.575h0.154l72.738-186.47c-31.647 23.883-69.15 41.927-109.869 51.705l-2.054 0.416zM164.693 680.567c27.509 11.164 59.418 17.643 92.841 17.643 139.783 0 253.099-113.316 253.099-253.099s-113.316-253.099-253.099-253.099c-139.783 0-253.099 113.316-253.099 253.099 0 33.754 6.608 65.965 18.6 95.41l-0.61-1.693c26.255 65.124 77.020 115.716 140.572 141.14l1.696 0.599zM197.53 445.559c0.063-22.674 12.832-42.35 31.559-52.29l0.321-0.156v-82.893h55.433v82.893c19.049 10.096 31.818 29.772 31.881 52.437v0.009c0 1.178-0.29 2.253-0.341 3.413l72.841 42.052-27.716 48.026-73.762-42.667c-8.702 5.464-19.282 8.705-30.618 8.705s-21.915-3.241-30.861-8.847l0.243 0.142-73.779 42.667-27.716-48.026 72.858-42.052c-0.068-1.161-0.341-2.236-0.341-3.413zM766.874 192.87c-139.036 0.301-251.63 113.081-251.63 252.159 0 139.264 112.896 252.16 252.16 252.16 139.078 0 251.858-112.594 252.159-251.601v-0.029c0-0.076 0-0.166 0-0.256 0-139.415-113.018-252.433-252.433-252.433-0.090 0-0.18 0-0.27 0h0.014zM707.277 445.559c0-0.529 0.154-1.007 0.154-1.536l-72.67-41.967 27.716-47.923 72.038 41.574c9.121-6.043 20.319-9.642 32.358-9.642s23.237 3.599 32.578 9.779l-0.22-0.137 72.021-41.574 27.733 48.009-72.67 41.967c0 0.512 0.154 1.007 0.154 1.536-0.060 22.679-12.829 42.362-31.559 52.307l-0.321 0.156v84.719h-55.433v-84.804c-19.051-10.101-31.82-29.784-31.881-52.455v-0.008z"></path>
</svg>
