<!-- Generated by IcoMoon.io -->
<svg version="1.1" xmlns="http://www.w3.org/2000/svg" width="1024" height="1024" viewBox="0 0 1024 1024">
<title></title>
<g id="icomoon-ignore">
</g>
<path d="M657.647 605.371h-29.935v-113.237l-156.023 156.058 156.023 156.058v-113.237h29.935c0.368-0.005 0.802-0.009 1.237-0.009 49.513 0 89.651 40.138 89.651 89.651s-40.138 89.651-89.651 89.651c-0.435 0-0.869-0.003-1.303-0.009l0.066 0.001h-291.311c-48.978-0.697-88.414-40.565-88.414-89.643s39.436-88.945 88.349-89.642l0.066-0.001h55.211v-85.641h-55.125c-96.064 0.978-173.562 79.080-173.562 175.283s77.498 174.305 173.47 175.282l0.092 0.001h291.226c0.514 0.005 1.121 0.009 1.73 0.009 96.811 0 175.292-78.481 175.292-175.292s-78.481-175.292-175.292-175.292c-0.608 0-1.215 0.003-1.822 0.009l0.092-0.001zM766.874 110.728c-0.188-0.001-0.411-0.001-0.633-0.001-139.208 0-252.058 112.85-252.058 252.058 0 39.601 9.132 77.068 25.406 110.412l-0.657-1.491 34.133-34.133c13.974-13.983 33.284-22.632 54.613-22.632 42.642 0 77.21 34.568 77.21 77.21 0 0.013 0 0.025 0 0.038v-0.002 40.465c53.126 10.433 99.013 36.301 134.070 72.677l0.074 0.078c6.827-2.065 13.653-4.335 20.241-6.929 94.708-37.865 160.397-128.842 160.397-235.162 0-139.5-113.087-252.587-252.587-252.587-0.073 0-0.147 0-0.22 0h0.012zM826.317 361.864c0 0.529 0.154 1.024 0.154 1.553-0.059 22.675-12.829 42.353-31.559 52.29l-0.321 0.156v84.855h-55.433v-84.838c-19.051-10.101-31.82-29.784-31.881-52.455v-0.008c0-0.529 0.154-1.024 0.154-1.553l-72.67-41.865 27.716-48.026 72.038 41.591c9.118-6.053 20.317-9.659 32.358-9.659s23.24 3.605 32.577 9.795l-0.219-0.136 72.021-41.591 27.733 48.026zM421.547 528.213c8.44 0.009 16.556 1.382 24.144 3.911l-0.54-0.156c15.242-16.968 28.382-36.288 38.725-57.236l0.665-1.49c15.839-32.077 25.105-69.836 25.105-109.759 0-139.443-113.041-252.484-252.484-252.484s-252.484 113.041-252.484 252.484c0 106.158 65.516 197.013 158.319 234.34l1.698 0.603c6.622 2.594 13.414 4.881 20.292 6.946 45.843-47.596 110.123-77.158 181.307-77.158 0.015 0 0.031 0 0.046 0h-0.002zM287.744 414.293c-8.701 5.469-19.28 8.714-30.618 8.714s-21.917-3.245-30.86-8.856l0.243 0.142-73.779 42.667-27.716-48.077 72.858-42.069c0-1.143-0.341-2.236-0.341-3.413 0.060-22.679 12.829-42.362 31.559-52.307l0.321-0.156v-82.859h55.433v82.876c19.051 10.101 31.82 29.784 31.881 52.455v0.008c0 1.161-0.29 2.253-0.341 3.413l72.841 42.069-27.716 48.009z"></path>
</svg>
