<!-- Generated by IcoMoon.io -->
<svg version="1.1" xmlns="http://www.w3.org/2000/svg" width="1024" height="1024" viewBox="0 0 1024 1024">
<title></title>
<g id="icomoon-ignore">
</g>
<path d="M842.189 280.115v-105.728h-206.848v-98.884h-246.682v98.884h-206.848v105.813zM439.825 126.652h144.35v47.787h-144.35zM503.467 827.443h-17.067v-387.123h51.2v212.002c20.655-36.986 47.66-67.956 79.848-92.468l0.723-0.528v-119.006h51.2v87.774c36.973-18.178 80.469-28.829 126.448-28.877h0.016c3.413 0 6.69 0.393 10.052 0.512v-168.465h-587.691v617.233h327.68c-21.934-34.578-37.012-75.616-42.276-119.668l-0.135-1.386zM405.794 827.443h-51.2v-387.123h51.2z"></path>
</svg>
