<!-- Generated by IcoMoon.io -->
<svg version="1.1" xmlns="http://www.w3.org/2000/svg" width="1024" height="1024" viewBox="0 0 1024 1024">
<title></title>
<g id="icomoon-ignore">
</g>
<path d="M921.6 289.963c-30.037 13.483-62.635 22.357-96.427 26.453 34.645-20.821 61.269-53.76 73.899-93.013-32.427 19.285-68.437 33.28-106.667 40.789-30.72-32.597-74.411-52.907-122.709-52.907-92.843 0-167.936 75.264-167.936 167.936 0 13.141 1.365 25.941 4.267 38.229-139.605-6.997-263.509-73.899-346.453-175.616-14.336 24.747-22.699 53.76-22.699 84.48 0 58.197 29.525 109.739 74.752 139.776-27.477-0.853-53.419-8.533-76.117-20.992 0 0.683 0 1.365 0 2.048 0 81.408 57.856 149.504 134.827 164.864-14.165 3.755-29.013 5.973-44.373 5.973-10.923 0-21.333-1.195-31.744-3.072 21.504 66.731 83.456 115.371 157.013 116.736-57.685 45.056-129.877 72.021-208.725 72.021-13.653 0-26.795-0.853-40.107-2.389 74.581 47.787 162.816 75.605 257.707 75.605 309.077 0 478.208-256.171 478.208-478.208 0-7.339-0.171-14.507-0.512-21.675 32.768-23.723 61.269-53.248 83.797-87.040v0z"></path>
</svg>
