<!-- Generated by IcoMoon.io -->
<svg version="1.1" xmlns="http://www.w3.org/2000/svg" width="1024" height="1024" viewBox="0 0 1024 1024">
<title></title>
<g id="icomoon-ignore">
</g>
<path d="M993.6 539.2c-33.6-33.6-88-40-148.8-40-75.2 0-139.2 16-166.4 62.4-20.8-33.6-60.8-44.8-112-56v262.4c0 88-72 160-160 160s-160-72-160-160c0-25.6 20.8-44.8 44.8-44.8 25.6 0 44.8 20.8 44.8 44.8 0 38.4 32 70.4 70.4 70.4s70.4-32 70.4-70.4v-265.6c-59.2 8-107.2 20.8-131.2 59.2-27.2-46.4-91.2-62.4-166.4-62.4-62.4 0-116.8 6.4-148.8 40 38.4-216 220.8-382.4 446.4-396.8v-1.6c0-25.6 20.8-44.8 44.8-44.8 25.6 0 44.8 20.8 44.8 44.8v3.2c217.6 24 390.4 185.6 427.2 395.2v0z"></path>
</svg>
