<!-- Generated by IcoMoon.io -->
<svg version="1.1" xmlns="http://www.w3.org/2000/svg" width="1024" height="1024" viewBox="0 0 1024 1024">
<title></title>
<g id="icomoon-ignore">
</g>
<path d="M659.166 659.319h0.273l-492.902-492.629c-7.622-7.202-17.933-11.63-29.277-11.63-23.564 0-42.667 19.103-42.667 42.667 0 11.336 4.421 21.639 11.632 29.28l-0.019-0.021 258.765 258.799-238.080 238.080c-6.697 6.714-10.837 15.98-10.837 26.213 0 0.013 0 0.025 0 0.038v-0.002 120.747c0.010 20.478 16.608 37.076 37.085 37.086h176.248v-116.053h133.12v-81.92h74.803l24.183-27.597 235.52 235.418c7.769 8.036 18.647 13.026 30.69 13.026 23.564 0 42.667-19.103 42.667-42.667 0-12.043-4.989-22.92-13.014-30.678l-0.012-0.012zM907.947 388.25c0-0.023 0-0.050 0-0.077 0-150.254-121.805-272.060-272.060-272.060-107.278 0-200.055 62.092-244.35 152.298l-0.71 1.601 363.162 363.162c91.804-44.955 153.913-137.681 153.958-244.918v-0.006zM635.75 314.027c0-0.005 0-0.011 0-0.017 0-41.011 33.246-74.257 74.257-74.257s74.257 33.246 74.257 74.257c0 41.011-33.246 74.257-74.257 74.257-0.006 0-0.012 0-0.018 0h0.001c-41.002 0-74.24-33.238-74.24-74.24v0z"></path>
</svg>
