<?xml version="1.0" encoding="utf-8"?>
<!-- Generator: Adobe Illustrator 27.4.1, SVG Export Plug-In . SVG Version: 6.00 Build 0)  -->
<svg version="1.1" id="Layer_1" xmlns="http://www.w3.org/2000/svg" xmlns:xlink="http://www.w3.org/1999/xlink" x="0px" y="0px"
	 viewBox="0 0 1024 1024" style="enable-background:new 0 0 1024 1024;" xml:space="preserve">
<style type="text/css">
	.st0{fill-rule:evenodd;clip-rule:evenodd;}
</style>
<g id="icomoon-ignore">
</g>
<g>
	<path class="st0" d="M670,821.1L524.1,967c-6.7,6.7-17.5,6.7-24.1,0L354,821.1c-10.8-10.8-3.1-29.1,12.1-29.1l291.8,0
		C673.1,792,680.7,810.4,670,821.1z"/>
	<path class="st0" d="M354,202.9L499.9,57c6.7-6.7,17.5-6.7,24.1,0L670,202.9c10.8,10.8,3.1,29.1-12.1,29.1l-291.8,0
		C350.9,232,343.3,213.6,354,202.9z"/>
	<path d="M928.3,672H95.7c-10.5,0-18.9-8.5-18.9-18.9V370.9c0-10.5,8.5-18.9,18.9-18.9h832.5c10.5,0,18.9,8.5,18.9,18.9v282.1
		C947.2,663.5,938.7,672,928.3,672z"/>
</g>
</svg>
