<!-- Generated by IcoMoon.io -->
<svg version="1.1" xmlns="http://www.w3.org/2000/svg" width="1024" height="1024" viewBox="0 0 1024 1024">
<title></title>
<g id="icomoon-ignore">
</g>
<path d="M785.254 75.708c0.051-10.935 1.098-21.593 3.056-31.928l-0.171 1.088c-79.321-17.009-170.45-26.75-263.854-26.75-4.319 0-8.634 0.021-12.943 0.062l0.659-0.005c-3.767-0.039-8.217-0.062-12.673-0.062-92.863 0-183.451 9.743-270.797 28.262l8.492-1.507c1.786 9.247 2.833 19.904 2.884 30.797v0.043c-0.020 88.79-66.565 162.032-152.502 172.596l-0.842 0.084c0.41 124.177 14.592 228.011 86.426 383.488 127.71 276.343 339.012 373.948 339.012 373.948s212.463-97.604 340.173-373.948c71.851-155.477 86.033-259.311 86.426-383.488-86.776-10.656-153.316-83.893-153.344-172.678v-0.003zM727.979 621.943l-54.835 54.835-161.143-161.143-161.143 161.143-54.835-54.835 161.143-161.143-161.143-161.143 54.835-54.835 161.143 161.143 161.143-161.143 54.835 54.835-161.143 161.143z"></path>
</svg>
