<!-- Generated by IcoMoon.io -->
<svg version="1.1" xmlns="http://www.w3.org/2000/svg" width="1083" height="1024" viewBox="0 0 1083 1024">
<title></title>
<g id="icomoon-ignore">
</g>
<path d="M1057.664 206.334v-162.022c0-9.504-7.901-17.29-17.29-17.29h-997.664c-9.504 0-17.29 7.672-17.29 17.29v935.489c0 9.504 7.672 17.29 17.29 17.29h997.779c9.389 0 17.29-7.672 17.29-17.29v-773.468h-0.115zM451.485 100.992h504.271c12.366 0 22.443 10.191 22.443 22.443s-10.076 22.328-22.443 22.328h-504.271c-12.366 0-22.328-9.962-22.328-22.328s9.962-22.443 22.328-22.443zM317.173 112.785c1.603-4.008 4.008-7.443 6.985-10.42h0.115c0.229-0.229 0.458-0.344 0.573-0.573 2.748-2.634 6.183-4.809 9.847-6.412 3.779-1.374 7.901-2.29 12.252-2.29 4.466 0 8.473 0.802 12.252 2.29 3.664 1.603 6.985 3.779 9.618 6.527 0.344 0.458 0.687 0.802 1.145 1.145 2.748 2.863 4.924 6.183 6.412 9.847s2.405 7.786 2.405 12.252c0 4.351-0.802 8.359-2.405 12.137-1.603 3.893-4.008 7.443-6.985 10.42-2.863 2.977-6.412 5.382-10.305 6.985-3.664 1.489-7.786 2.405-12.252 2.405s-8.473-0.802-12.252-2.405c-3.893-1.718-7.443-4.008-10.42-6.985h0.115l-0.115-0.115c-2.977-2.977-5.382-6.641-6.985-10.42-1.489-3.664-2.405-7.786-2.405-12.137 0-4.466 0.802-8.473 2.405-12.252zM213.090 112.785c1.718-4.008 4.122-7.443 6.985-10.42h0.115c0.229-0.229 0.458-0.344 0.573-0.573 2.863-2.634 6.183-4.809 9.962-6.412 3.664-1.374 7.901-2.29 12.252-2.29 4.466 0 8.473 0.802 12.252 2.29 3.664 1.603 6.985 3.779 9.733 6.527 0.344 0.458 0.802 0.802 1.145 1.145 2.634 2.863 4.809 6.183 6.412 9.847s2.405 7.786 2.405 12.252c0 4.351-0.802 8.359-2.405 12.137-1.718 3.893-4.008 7.443-6.985 10.42s-6.527 5.382-10.42 6.985c-3.779 1.489-7.901 2.405-12.252 2.405-4.466 0-8.588-0.802-12.252-2.405-4.008-1.718-7.443-4.008-10.42-6.985v-0.115c-3.092-2.977-5.496-6.641-7.099-10.42-1.489-3.664-2.405-7.786-2.405-12.137 0-4.466 0.916-8.473 2.405-12.252zM109.35 112.785c1.603-3.893 4.008-7.328 6.985-10.42h0.115c0.229-0.229 0.344-0.344 0.458-0.573 2.863-2.634 6.298-4.809 9.962-6.412 3.664-1.374 7.786-2.29 12.137-2.29s8.473 0.802 12.252 2.29c3.664 1.603 6.985 3.779 9.733 6.527 0.344 0.458 0.687 0.802 1.145 1.145 2.748 2.863 4.924 6.183 6.412 9.847s2.405 7.786 2.405 12.252c0 4.351-0.802 8.359-2.405 12.137-1.603 3.893-4.008 7.443-6.985 10.42s-6.527 5.382-10.42 6.985c-3.664 1.489-7.901 2.405-12.252 2.405s-8.359-0.802-12.137-2.405c-3.893-1.718-7.443-4.008-10.42-6.985h0.115l-0.115-0.115c-2.977-2.977-5.382-6.641-6.985-10.42-1.489-3.664-2.405-7.786-2.405-12.137 0-4.466 0.802-8.473 2.405-12.252zM1022.969 962.397h-962.855v-738.773h962.855v738.773zM542.057 355.532l-274.235 473.241h547.553l-273.319-473.241zM566.217 753.429h-50.267v-50.267h50.267v50.267zM515.95 654.957v-100.419h50.267v100.419h-50.267z"></path>
</svg>
