<?xml version="1.0" encoding="utf-8"?>
<!-- Generator: Adobe Illustrator 27.8.1, SVG Export Plug-In . SVG Version: 6.00 Build 0)  -->
<svg version="1.1" id="Layer_1" xmlns="http://www.w3.org/2000/svg" xmlns:xlink="http://www.w3.org/1999/xlink" x="0px" y="0px"
	 viewBox="0 0 837 837" style="enable-background:new 0 0 837 837;" xml:space="preserve">
<path d="M748.1,399.7L444.8,89.3c-14.3-14.6-37.8-14.6-52.2,0L89.1,399.7c-14.3,14.6-14.3,38.7,0,53.4l39.1,40
	c14.3,14.6,37.8,14.6,52.2,0l84-85.9v313.6c0,20.8,16.5,37.7,36.9,37.7h234.3c20.3,0,36.9-16.9,36.9-37.7V407.2l84,85.9
	c14.3,14.6,37.8,14.6,52.2,0l39.1-40c14.3-14.6,14.3-38.7,0-53.4L748.1,399.7L748.1,399.7z"/>
</svg>
