<!-- Generated by IcoMoon.io -->
<svg version="1.1" xmlns="http://www.w3.org/2000/svg" width="1024" height="1024" viewBox="0 0 1024 1024">
<title></title>
<g id="icomoon-ignore">
</g>
<path d="M755.2 201.6h-486.4c-19.2 0-36.8 6.4-49.6 20.8-12.8 12.8-20.8 30.4-20.8 49.6v486.4c0 19.2 6.4 36.8 20.8 49.6 12.8 12.8 30.4 20.8 49.6 20.8h486.4c19.2 0 36.8-6.4 49.6-20.8 12.8-12.8 20.8-30.4 20.8-49.6v-488c0-19.2-6.4-36.8-20.8-49.6s-30.4-19.2-49.6-19.2zM438.4 336c20.8-20.8 44.8-30.4 73.6-30.4s54.4 9.6 73.6 30.4c20.8 20.8 30.4 44.8 30.4 73.6s-9.6 54.4-30.4 73.6c-20.8 20.8-44.8 30.4-73.6 30.4s-54.4-9.6-73.6-30.4c-20.8-20.8-30.4-44.8-30.4-73.6s9.6-54.4 30.4-73.6zM720 723.2h-416v-35.2c0-22.4 12.8-41.6 38.4-59.2s54.4-30.4 84.8-36.8c32-8 59.2-11.2 84.8-11.2s52.8 3.2 84.8 11.2c32 8 60.8 20.8 84.8 36.8 25.6 17.6 38.4 36.8 38.4 59.2v35.2z"></path>
</svg>
