<!-- Generated by IcoMoon.io -->
<svg version="1.1" xmlns="http://www.w3.org/2000/svg" width="1024" height="1024" viewBox="0 0 1024 1024">
<title></title>
<g id="icomoon-ignore">
</g>
<path d="M641.6 17.6v112h107.2v764.8h-107.2v112h222.4v-988.8zM160 1006.4h222.4v-112h-107.2v-764.8h107.2v-112h-222.4zM588.8 283.2c0 42.415-34.385 76.8-76.8 76.8s-76.8-34.385-76.8-76.8c0-42.415 34.385-76.8 76.8-76.8s76.8 34.385 76.8 76.8zM588.8 512c0 42.415-34.385 76.8-76.8 76.8s-76.8-34.385-76.8-76.8c0-42.415 34.385-76.8 76.8-76.8s76.8 34.385 76.8 76.8zM588.8 740.8c0 42.415-34.385 76.8-76.8 76.8s-76.8-34.385-76.8-76.8c0-42.415 34.385-76.8 76.8-76.8s76.8 34.385 76.8 76.8z"></path>
</svg>
