<!-- Generated by IcoMoon.io -->
<svg version="1.1" xmlns="http://www.w3.org/2000/svg" width="1024" height="1024" viewBox="0 0 1024 1024">
<title></title>
<g id="icomoon-ignore">
</g>
<path d="M193.57 109.090h493.892v-48.742h-542.635v709.973h48.742zM240.64 867.789h48.742v-662.835h493.978v-48.742h-542.72zM386.901 444.911v-142.49h443.529v146.432c25.548 34.331 42.964 76.147 48.614 121.614l0.128 1.266v-318.054h-542.635v304.401h2.662c6.821-43.186 23.696-81.526 48.158-113.798l-0.457 0.629zM830.43 766.908v148.002h-443.529v-158.857l-50.278-50.278v258.048h542.72v-319.932c-5.808 46.796-23.284 88.66-49.403 123.703l0.489-0.687zM583.936 518.212v122.505l105.011 64.171 16.043-29.167-84.582-52.497v-105.011zM410.385 707.038l99.174-96.273h-74.359c-0.003-0.402-0.005-0.878-0.005-1.354 0-93.512 75.806-169.318 169.318-169.318 0.476 0 0.951 0.002 1.427 0.006h-0.073c0.402-0.003 0.878-0.005 1.354-0.005 93.512 0 169.318 75.806 169.318 169.318 0 0.476-0.002 0.951-0.006 1.427v-0.073c0.003 0.392 0.005 0.855 0.005 1.319 0 93.531-75.822 169.353-169.353 169.353-0.464 0-0.927-0.002-1.39-0.006h0.071c-0.959 0.020-2.089 0.032-3.221 0.032-46.463 0-88.354-19.575-117.876-50.928l-0.077-0.082-35.004 35.004c38.264 40.496 92.34 65.704 152.303 65.704 1.836 0 3.667-0.024 5.492-0.071l-0.27 0.005c123.088-0.502 222.732-100.159 223.215-223.203v-0.046c-0.54-123.022-100.124-222.606-223.095-223.146h-0.052c-0.873-0.013-1.903-0.020-2.935-0.020-60.671 0-115.467 25.151-154.531 65.596l-0.060 0.062c-38.853 37.802-62.957 90.591-62.957 149.010 0 3.493 0.086 6.966 0.257 10.417l-0.019-0.486h-74.377z"></path>
</svg>
