<!-- Generated by IcoMoon.io -->
<svg version="1.1" xmlns="http://www.w3.org/2000/svg" width="1024" height="1024" viewBox="0 0 1024 1024">
<title></title>
<g id="icomoon-ignore">
</g>
<path d="M732.8 310.4h-176v84.8h176c36.8 0 68.8 12.8 96 40s40 59.2 40 96-12.8 68.8-40 96c-27.2 27.2-59.2 40-96 40h-176v84.8h176c60.8 0 112-22.4 155.2-65.6s65.6-96 65.6-155.2c0-60.8-22.4-112-65.6-155.2-43.2-44.8-96-65.6-155.2-65.6zM336 488h353.6v86.4h-353.6v-86.4zM136 374.4c-43.2 43.2-65.6 96-65.6 155.2 0 60.8 22.4 112 65.6 155.2s96 65.6 155.2 65.6h176v-84.8h-176c-38.4 0-70.4-12.8-97.6-40-25.6-27.2-40-59.2-40-96s12.8-68.8 40-96c25.6-27.2 59.2-40 97.6-40h176v-84.8h-176c-59.2 1.6-112 22.4-155.2 65.6z"></path>
</svg>
