<!-- Generated by IcoMoon.io -->
<svg version="1.1" xmlns="http://www.w3.org/2000/svg" width="1024" height="1024" viewBox="0 0 1024 1024">
<title></title>
<g id="icomoon-ignore">
</g>
<path d="M94.4 576c78.4 0 142.4 64 142.4 142.4 0 0 0 0 0 0v0 120c30.4 25.6 62.4 46.4 97.6 62.4v-78.4c0-12.8 11.2-24 24-24s24 11.2 24 24v96c33.6 9.6 68.8 16 105.6 17.6v-99.2c0-12.8 11.2-24 24-24s24 11.2 24 24v99.2c36.8-1.6 72-8 105.6-17.6v-96c0-12.8 11.2-24 24-24s24 11.2 24 24v78.4c35.2-16 67.2-36.8 97.6-62.4v-120c0 0 0 0 0 0 0-78.4 64-142.4 142.4-142.4 1.6 0 3.2 0 4.8 0 3.2-20.8 4.8-41.6 4.8-64 0-118.4-41.6-219.2-124.8-302.4s-184-124.8-302.4-124.8-219.2 41.6-302.4 124.8c-84.8 84.8-126.4 184-126.4 302.4 0 22.4 1.6 43.2 4.8 64 1.6 0 4.8 0 6.4 0zM689.6 324.8c57.6 0 104 46.4 104 104s-46.4 104-104 104-104-46.4-104-104 48-104 104-104zM345.6 324.8c57.6 0 104 46.4 104 104s-46.4 104-104 104-104-46.4-104-104 48-104 104-104z"></path>
</svg>
