<?xml version="1.0" encoding="utf-8"?>
<!-- Generator: Adobe Illustrator 25.4.1, SVG Export Plug-In . SVG Version: 6.00 Build 0)  -->
<svg version="1.1" id="a" xmlns="http://www.w3.org/2000/svg" xmlns:xlink="http://www.w3.org/1999/xlink" x="0px" y="0px"
	 viewBox="0 0 135 113" style="enable-background:new 0 0 135 113;" xml:space="preserve">
<style type="text/css">
	.st0{fill:#F0BF54;}
	.st1{fill:#F0AE5E;}
	.st2{fill:#EE9D5F;}
	.st3{fill:#EDCD51;stroke:#F0AE5E;stroke-width:1.345;stroke-linecap:round;stroke-linejoin:round;stroke-miterlimit:10;}
	.st4{fill:none;stroke:#E88F50;stroke-width:3.228;stroke-linecap:round;stroke-linejoin:round;stroke-miterlimit:10;}
</style>
<g>
	<g>
		<polygon class="st0" points="67.5,60.9 100.2,41.9 83.9,32.5 67.5,23 34.8,41.9 51.1,51.4 		"/>
		<polygon class="st1" points="67.5,23 67.5,60.9 83.9,51.4 		"/>
	</g>
</g>
<polygon class="st0" points="67.5,60.9 34.8,41.9 34.8,79.5 67.5,98.5 "/>
<polygon class="st1" points="67.5,60.9 34.8,41.9 67.5,98.5 "/>
<polygon class="st2" points="100.2,79.5 67.5,98.4 67.5,60.9 100.2,41.9 "/>
<path class="st3" d="M68.2,43.5"/>
<polygon class="st0" points="83.9,13.5 116.6,32.5 100.2,42 67.5,23 "/>
<g>
	<g>
		<polygon class="st2" points="67.5,60.9 67.5,23 34.8,41.9 		"/>
	</g>
</g>
<g>
	<polygon class="st4" points="67.5,60.9 34.8,41.9 34.8,79.5 67.5,98.5 	"/>
	<polygon class="st4" points="100.2,79.5 67.5,98.4 67.5,60.9 100.2,41.9 	"/>
	<g>
		<polygon class="st4" points="67.5,60.9 100.2,41.9 83.9,32.5 67.5,23 34.8,41.9 51.1,51.4 		"/>
	</g>
</g>
<polygon class="st4" points="83.9,13.5 116.6,32.5 100.2,42 67.5,23 "/>
<polygon class="st0" points="34.8,42 67.5,60.9 51.1,70.4 18.4,51.5 "/>
<polygon class="st4" points="34.8,42 67.5,60.9 51.1,70.4 18.4,51.5 "/>
</svg>
