<?xml version="1.0" encoding="utf-8"?>
<!-- Generator: Adobe Illustrator 25.4.1, SVG Export Plug-In . SVG Version: 6.00 Build 0)  -->
<svg version="1.1" id="Layer_1" xmlns="http://www.w3.org/2000/svg" xmlns:xlink="http://www.w3.org/1999/xlink" x="0px" y="0px"
	 viewBox="0 0 100 60" style="enable-background:new 0 0 100 60;" xml:space="preserve">
<style type="text/css">
	.st0{fill:#C4D451;}
	.st1{fill:#44BEAA;}
	.st2{fill:#51D27A;}
	.st3{fill:#EDCD51;}
</style>
<g>
	<path class="st0" d="M47.9,24.6l-12.5,7.2L23,24.6V10.1l12.4-7.3l12.5,7.3V24.6z"/>
	<g>
		<path class="st0" d="M62.4,50L50,57.1L37.4,50V35.5L50,28.2l12.4,7.3V50z"/>
		<path class="st1" d="M50,58.3c-0.2,0-0.4-0.1-0.6-0.2L36.8,51c-0.4-0.2-0.6-0.6-0.6-1V35.5c0-0.4,0.2-0.8,0.6-1l12.5-7.3
			c0.4-0.2,0.8-0.2,1.2,0L63,34.5c0.4,0.2,0.6,0.6,0.6,1V50c0,0.4-0.2,0.8-0.6,1l-12.5,7.2C50.4,58.3,50.2,58.3,50,58.3z M38.6,49.3
			L50,55.8l11.2-6.5V36.2L50,29.6l-11.3,6.6v13.1H38.6z"/>
		<path class="st2" d="M62.3,49.9l-12.5,7.2l12.6-21.7L62.3,49.9L62.3,49.9z"/>
	</g>
	<path class="st2" d="M47.9,24.6l-12.5,7.2L48,10.1L47.9,24.6L47.9,24.6z"/>
	<path class="st1" d="M50,58.3c-0.2,0-0.4-0.1-0.6-0.2L36.8,51c-0.4-0.2-0.6-0.6-0.6-1V35.5c0-0.4,0.2-0.8,0.6-1l12.5-7.3
		c0.4-0.2,0.8-0.2,1.2,0L63,34.5c0.4,0.2,0.6,0.6,0.6,1V50c0,0.4-0.2,0.8-0.6,1l-12.5,7.2C50.4,58.3,50.2,58.3,50,58.3z M38.6,49.3
		L50,55.8l11.2-6.5V36.2L50,29.6l-11.3,6.6v13.1H38.6z"/>
	<path class="st1" d="M35.4,33c-0.2,0-0.4-0.1-0.6-0.2l-12.4-7.2c-0.4-0.2-0.6-0.6-0.6-1V10.1c0-0.4,0.2-0.8,0.6-1l12.4-7.3
		c0.4-0.2,0.8-0.2,1.2,0l12.5,7.3c0.4,0.2,0.6,0.6,0.6,1v14.5c0,0.4-0.2,0.8-0.6,1L36,32.8C35.8,32.9,35.6,33,35.4,33z M24.1,23.9
		l11.3,6.5l11.3-6.5V10.8L35.4,4.2l-11.2,6.6L24.1,23.9z"/>
	<g>
		<path class="st1" d="M72.7,28.2c-0.7,0-1.2-0.5-1.2-1.2c0-0.4,0.2-0.8,0.6-1l3.7-2.2v-4.3c0-0.7,0.5-1.2,1.2-1.2s1.2,0.5,1.2,1.2
			v5c0,0.4-0.2,0.8-0.6,1L73.3,28C73.2,28.2,72.9,28.2,72.7,28.2z"/>
		<path class="st1" d="M64.5,33c-0.2,0-0.4-0.1-0.6-0.2l-4.3-2.5c-0.6-0.3-0.8-1-0.5-1.6s1-0.8,1.6-0.5c0,0,0.1,0,0.1,0.1l3.7,2.2
			l3.7-2.2c0.6-0.4,1.3-0.2,1.7,0.4c0.4,0.6,0.2,1.3-0.4,1.7c0,0-0.1,0-0.1,0.1L65.1,33C64.9,32.9,64.7,33,64.5,33z"/>
		<path class="st1" d="M56.3,28.2c-0.2,0-0.4-0.1-0.6-0.2l-4.3-2.5c-0.4-0.2-0.6-0.6-0.6-1v-5c0-0.7,0.5-1.2,1.2-1.2
			s1.2,0.5,1.2,1.2l0,0v4.3l3.7,2.2c0.6,0.3,0.8,1.1,0.4,1.6C57.1,28,56.7,28.2,56.3,28.2L56.3,28.2z"/>
		<path class="st1" d="M52,16.2c-0.7,0-1.2-0.5-1.2-1.2l0,0v-5c0-0.4,0.2-0.8,0.6-1l4.3-2.5C56.3,6.2,57,6.4,57.4,7
			c0.3,0.6,0.1,1.3-0.4,1.6l0,0l-3.7,2.1V15C53.2,15.7,52.6,16.2,52,16.2z"/>
		<path class="st1" d="M68.9,6.5c-0.2,0-0.4-0.1-0.6-0.2l-3.7-2.1l-3.7,2.1c-0.6,0.3-1.3,0.2-1.7-0.4S59,4.7,59.5,4.3c0,0,0,0,0.1,0
			l4.3-2.5c0.4-0.2,0.8-0.2,1.2,0l4.3,2.5c0.6,0.3,0.8,1.1,0.4,1.6C69.7,6.3,69.3,6.5,68.9,6.5L68.9,6.5z"/>
		<path class="st1" d="M77.1,16.2c-0.7,0-1.2-0.5-1.2-1.2v-4.3l-3.7-2.1c-0.6-0.3-0.8-1.1-0.4-1.6c0.3-0.6,1-0.7,1.6-0.4L77.7,9
			c0.4,0.2,0.6,0.6,0.6,1v5C78.3,15.7,77.7,16.2,77.1,16.2z"/>
	</g>
	<path class="st3" d="M69.3,16.1h-3.6v-3.6c0-0.7-0.5-1.2-1.2-1.2c-0.7,0-1.2,0.5-1.2,1.2l0,0v3.6h-3.6c-0.7,0-1.2,0.5-1.2,1.2
		s0.5,1.2,1.2,1.2h3.6v3.6c0,0.7,0.5,1.2,1.2,1.2c0.7,0,1.2-0.5,1.2-1.2v-3.6h3.6c0.7,0,1.2-0.5,1.2-1.2
		C70.5,16.7,69.9,16.1,69.3,16.1L69.3,16.1z"/>
	<path class="st3" d="M71.7,32.8c-0.5,0-1,0.2-1.2,0.7v-0.1c0-0.7-0.5-1.2-1.2-1.3c-0.7,0-1.2,0.5-1.2,1.2l0,0V33
		c0-0.7-0.5-1.2-1.2-1.3c-0.7,0-1.2,0.5-1.2,1.2l0,0v-4.5c0-0.7-0.5-1.2-1.2-1.3c-0.7,0-1.2,0.5-1.2,1.2l0,0v6.8
		c-0.6-0.7-1.3-1.3-2.1-1.8c-0.5-0.3-1.2-0.1-1.5,0.4c0,0.1-0.1,0.2-0.1,0.3c-0.1,0.5,0.1,1.1,0.6,1.3c1.9,1.1,2.7,3.3,3.4,5.2
		c0.6,1.6,2.1,2.6,3.8,2.5h1.5c3.3,0,4-3.6,4-4.3V34C72.9,33.4,72.4,32.8,71.7,32.8z"/>
</g>
</svg>
