<?xml version="1.0" encoding="utf-8"?>
<!-- Generator: Adobe Illustrator 25.4.1, SVG Export Plug-In . SVG Version: 6.00 Build 0)  -->
<svg version="1.1" id="a" xmlns="http://www.w3.org/2000/svg" xmlns:xlink="http://www.w3.org/1999/xlink" x="0px" y="0px"
	 viewBox="0 0 135 113" style="enable-background:new 0 0 135 113;" xml:space="preserve">
<style type="text/css">
	.st0{fill:#37C4AC;stroke:#5578B5;stroke-width:3.2057;stroke-miterlimit:10;}
	.st1{fill:#2FB4D2;stroke:#5578B5;stroke-width:3.2057;stroke-miterlimit:10;}
	.st2{fill:#37C4AC;}
	.st3{fill:#2FB4D2;}
	.st4{fill:#5578B5;}
</style>
<g>
	<g>
		<path class="st0" d="M38,72.2c0.6,1,0.8,2,0.6,2.9c-0.2,0.9-0.8,1.6-1.8,2.1l-4,1.9L18.4,56.7v-1.6l14.4-22.4l4,1.9
			c1,0.5,1.6,1.2,1.8,2c0.2,0.9,0,1.8-0.6,2.9l-8.4,14c-0.3,0.5-0.6,0.9-0.9,1.3c-0.3,0.4-0.6,0.7-0.9,1c0.6,0.5,1.2,1.2,1.8,2.2
			L38,72.2z"/>
		<path class="st1" d="M116.6,55.1v1.6l-14.4,22.4l-4-1.9c-1-0.5-1.6-1.2-1.8-2.1c-0.2-0.9,0-1.8,0.6-2.9l8.4-14
			c0.6-1,1.2-1.7,1.8-2.2c-0.3-0.3-0.6-0.6-0.9-1c-0.3-0.4-0.6-0.8-0.9-1.3l-8.4-14c-0.6-1.1-0.8-2-0.6-2.9c0.2-0.9,0.8-1.6,1.8-2
			l4-1.9L116.6,55.1z"/>
	</g>
	<g>
		<g>
			<path class="st2" d="M68.7,95.6c-0.6,0.6-1.7,0.6-2.3,0l-7.1-7.1c-0.3-0.3-0.5-0.7-0.5-1.2l0-30.1L58,56.9c-2-1-3.8-2.3-5.4-3.9
				c-8.2-8.2-8.2-21.6,0-29.9c4-4,9.3-6.2,14.9-6.2c5.6,0,10.9,2.2,14.9,6.2c8.2,8.2,8.2,21.6,0,29.9c-0.9,0.9-2,1.8-3,2.5l-0.7,0.5
				l0.4,6.1L74.2,67l4.8,4.8l-7.8,7.8l6.8,6.8L68.7,95.6z M62.2,24c-2.9,2.9-2.9,7.7,0,10.7c2.9,2.9,7.7,2.9,10.7,0s2.9-7.7,0-10.7
				S65.1,21,62.2,24z"/>
		</g>
		<g>
			<path class="st3" d="M69.3,95.2l-0.2-58.5c1.4-0.3,2.7-1,3.7-2c2.9-2.9,2.9-7.7,0-10.7c-1-1-2.3-1.7-3.7-2v-5
				c5,0.4,9.7,2.5,13.3,6.1c8.2,8.2,8.2,21.6,0,29.9c-0.9,0.9-2,1.8-3,2.5l-0.7,0.5l0.4,6.1L74.2,67l4.8,4.8l-7.8,7.8l6.8,6.8
				L69.3,95.2z"/>
		</g>
		<g>
			<g>
				<path class="st4" d="M67.5,18.7c5.1,0,10,2,13.7,5.7c3.6,3.6,5.7,8.5,5.7,13.7c0,5.2-2,10-5.7,13.7c-0.9,0.9-1.8,1.6-2.8,2.3
					l-1.5,1l0.1,1.8l0.3,4.5l-3.3,3.3L71.7,67l2.3,2.3l2.5,2.5l-5.5,5.5l-2.3,2.3l2.3,2.3l4.5,4.5l-7.9,7.9l-6.9-6.9l0-29.2l0-2
					l-1.8-0.9c-1.8-0.9-3.5-2.1-5-3.6c-7.5-7.5-7.5-19.8,0-27.3C57.5,20.7,62.4,18.7,67.5,18.7 M67.5,38.7c2.5,0,4.8-1,6.6-2.7
					c1.8-1.8,2.7-4.1,2.7-6.6c0-2.5-1-4.8-2.7-6.6C72.3,20.9,70,20,67.5,20s-4.8,1-6.6,2.7c-1.8,1.8-2.7,4.1-2.7,6.6
					c0,2.5,1,4.8,2.7,6.6C62.7,37.7,65,38.7,67.5,38.7 M67.5,15.5c-5.8,0-11.5,2.2-15.9,6.6c-8.8,8.8-8.8,23.1,0,31.9
					c1.7,1.7,3.7,3.1,5.8,4.2l0,29.3c0,0.8,0.3,1.6,0.9,2.2l7.1,7.1c0.6,0.6,1.4,0.9,2.2,0.9c0.8,0,1.6-0.3,2.2-0.9L80,86.3
					l-6.8-6.8l7.8-7.8L76.2,67l4.4-4.4l-0.4-6c1.1-0.8,2.2-1.7,3.2-2.7c8.8-8.8,8.8-23.1,0-31.9C79,17.7,73.3,15.5,67.5,15.5
					L67.5,15.5z M67.5,35.5c-1.6,0-3.1-0.6-4.3-1.8c-2.4-2.4-2.4-6.3,0-8.7c1.2-1.2,2.8-1.8,4.3-1.8s3.1,0.6,4.3,1.8
					c2.4,2.4,2.4,6.3,0,8.7C70.6,34.9,69.1,35.5,67.5,35.5L67.5,35.5z"/>
			</g>
		</g>
	</g>
</g>
</svg>
