<?xml version="1.0" encoding="utf-8"?>
<!-- Generator: Adobe Illustrator 25.4.1, SVG Export Plug-In . SVG Version: 6.00 Build 0)  -->
<svg version="1.1" id="Layer_1" xmlns="http://www.w3.org/2000/svg" xmlns:xlink="http://www.w3.org/1999/xlink" x="0px" y="0px"
	 viewBox="0 0 100 60" style="enable-background:new 0 0 100 60;" xml:space="preserve">
<style type="text/css">
	.st0{fill:#6972EE;}
	.st1{fill:#4F56B3;}
	.st2{fill:#7BD85D;}
	.st3{fill:#51D27A;}
	.st4{fill:#369888;}
</style>
<g>
	<path class="st0" d="M58.6,35.8c-0.9,0.2-2,0.4-3,0.5l5,6.8c0.9-0.3,1.6-0.6,2.3-1c1.3-0.7,2-1.5,2-2.4v-6.3
		C63.3,34.5,61.2,35.3,58.6,35.8z"/>
	<path class="st0" d="M58.6,25.4c-1.1,0.2-2.2,0.4-3.4,0.6c-0.7,2.3-1.4,4.6-2.1,6.9l0.8,1.1c1.2-0.1,2.4-0.2,3.6-0.5
		c2.3-0.5,4.1-1,5.4-1.8c1.3-0.7,2-1.5,2-2.4V23C63.3,24.1,61.3,24.9,58.6,25.4z"/>
	<g>
		<g>
			<path class="st0" d="M59.1,14.9C58,17.7,57,20.5,56,23.4c0.5-0.1,1-0.1,1.4-0.2c2.3-0.5,4.1-1,5.4-1.8c1.3-0.7,2-1.5,2-2.4v-6.3
				C63.4,13.6,61.5,14.3,59.1,14.9z"/>
			<path class="st1" d="M62.8,43.2c-0.4,0-0.7-0.2-0.9-0.6c-0.3-0.5-0.1-1.2,0.4-1.4c1.4-0.8,1.4-1.3,1.4-1.5v-4.5
				c-1.4,0.7-3,1.2-5,1.6c-0.6,0.1-1.1-0.3-1.3-0.8c-0.1-0.6,0.3-1.1,0.8-1.3c2.5-0.5,4.4-1.3,5.8-2.3c0.3-0.2,0.7-0.3,1.1-0.1
				c0.4,0.2,0.6,0.5,0.6,0.9v6.3c0,1.4-0.8,2.5-2.5,3.4C63.2,43.1,63,43.2,62.8,43.2z M37.1,43.2c-0.2,0-0.4,0-0.5-0.1
				c-1.7-1-2.5-2.1-2.5-3.4v-6.3c0-0.4,0.2-0.7,0.6-0.9c0.3-0.2,0.8-0.2,1.1,0c1.7,1.1,3.7,1.9,6.1,2.3c0.6,0.1,1,0.7,0.8,1.2
				c-0.1,0.6-0.7,1-1.2,0.8c-1.9-0.4-3.7-0.9-5.2-1.7v4.5c0,0.6,0.8,1.1,1.4,1.5c0.5,0.3,0.7,0.9,0.4,1.5
				C37.8,43,37.5,43.2,37.1,43.2z M57.4,34.6c-0.5,0-0.9-0.3-1-0.8c-0.1-0.6,0.2-1.1,0.8-1.3c2.4-0.5,4-1,5.1-1.7c0,0,0,0,0,0
				c1.4-0.8,1.4-1.3,1.4-1.5v-4.5c-1.4,0.7-3,1.2-5,1.6c-1.8,0.4-3.7,0.6-5.6,0.8c-0.6,0-1.1-0.4-1.1-1c0-0.6,0.4-1.1,1-1.1
				c1.9-0.1,3.7-0.4,5.3-0.7c2.5-0.5,4.4-1.3,5.8-2.3c0.3-0.2,0.7-0.3,1.1-0.1c0.4,0.2,0.6,0.5,0.6,0.9v6.3c0,1.3-0.8,2.4-2.5,3.4
				c-1.4,0.8-3.1,1.4-5.7,1.9C57.6,34.6,57.5,34.6,57.4,34.6z M42.5,34.6c-0.1,0-0.1,0-0.2,0c-2.4-0.5-4.3-1.1-5.8-2
				c-1.2-0.7-2.5-1.7-2.5-3.4V23c0-0.4,0.2-0.8,0.6-0.9c0.3-0.2,0.8-0.2,1.1,0.1c1.5,1,3.4,1.7,6.1,2.3c1.8,0.4,3.6,0.6,5.4,0.7
				c0.6,0,1,0.5,1,1.1c0,0.6-0.5,1-1.1,1c-1.9-0.1-3.8-0.4-5.6-0.8c-2.1-0.4-3.8-1-5.2-1.7v4.5c0,0.2,0,0.7,1.4,1.5
				c1.2,0.7,2.9,1.3,5.1,1.7c0.6,0.1,1,0.7,0.8,1.2C43.5,34.3,43,34.6,42.5,34.6z M50,24.8c-2.9,0-5.4-0.2-7.6-0.6
				c-2.4-0.5-4.4-1.1-5.8-2c-1.2-0.7-2.5-1.7-2.5-3.4v-5.5c0-1.4,0.8-2.5,2.5-3.4c1.5-0.8,3.6-1.5,5.8-1.9l0,0
				c2.2-0.4,4.7-0.6,7.7-0.6c2.8,0,5.4,0.2,7.6,0.6c2.4,0.5,4.4,1.1,5.8,2c1.2,0.7,2.5,1.7,2.5,3.4v5.5c0,1.3-0.8,2.4-2.5,3.4
				c-1.4,0.8-3.1,1.4-5.7,1.9C55.3,24.6,52.8,24.8,50,24.8z M42.8,10.2L42.8,10.2c-2,0.4-3.8,1-5.2,1.7c-1.4,0.8-1.4,1.3-1.4,1.5
				v5.5c0,0.2,0,0.7,1.4,1.5c1.2,0.7,2.9,1.3,5.1,1.7c2.2,0.4,4.5,0.6,7.3,0.6c2.7,0,5.1-0.2,7.3-0.6c2.4-0.5,3.9-1,5.1-1.7
				c0,0,0,0,0,0c1.4-0.8,1.4-1.3,1.4-1.5v-5.5c0-0.2,0-0.7-1.4-1.5c-1.2-0.7-2.9-1.3-5.1-1.7c-2.2-0.4-4.5-0.6-7.3-0.6
				C47.3,9.6,44.9,9.8,42.8,10.2z"/>
		</g>
	</g>
	<g>
		<path class="st2" d="M45,42.8h2.2v5.4c1.9-1.1,3.8-2,5.7-3v-2.4H55c0.3,0,0.6-0.2,0.7-0.4c0.1-0.3,0.1-0.6-0.1-0.9l-5-6.9
			c-0.2-0.2-0.4-0.3-0.7-0.3s-0.5,0.1-0.7,0.3l-5,6.9c-0.2,0.2-0.2,0.6-0.1,0.9C44.4,42.6,44.7,42.8,45,42.8z"/>
		<path class="st3" d="M47.2,50.9c0,0.5,0.4,0.8,0.8,0.8h4c0.5,0,0.8-0.4,0.8-0.8v-5.7c-1.9,1-3.8,1.9-5.7,3V50.9z"/>
		<path class="st4" d="M45,43.6L45,43.6h1.4v5.1v2.2c0,0.9,0.7,1.6,1.6,1.6h4c0.9,0,1.6-0.7,1.6-1.6v-6.1v-1.2H55
			c0.6,0,1.2-0.3,1.5-0.9c0.3-0.5,0.2-1.2-0.1-1.7l-5-6.9c-0.3-0.4-0.8-0.7-1.3-0.7s-1,0.2-1.3,0.7l-5,6.8c-0.2,0.3-0.3,0.6-0.3,1
			C43.3,42.9,44.1,43.6,45,43.6z M50,35.1l5,6.9h-3v3.6v5.3h-4v-3.2V42h-3L50,35.1z"/>
	</g>
</g>
</svg>
