<?xml version="1.0" encoding="utf-8"?>
<!-- Generator: Adobe Illustrator 25.4.1, SVG Export Plug-In . SVG Version: 6.00 Build 0)  -->
<svg version="1.1" id="Layer_1" xmlns="http://www.w3.org/2000/svg" xmlns:xlink="http://www.w3.org/1999/xlink" x="0px" y="0px"
	 viewBox="0 0 100 60" style="enable-background:new 0 0 100 60;" xml:space="preserve">
<style type="text/css">
	.st0{fill:none;stroke:#333D48;stroke-width:3.4422;stroke-miterlimit:10;}
	.st1{fill:#F75E71;}
	.st2{fill:#BA50A1;}
	.st3{fill:#ED5580;}
	.st4{fill:#9457B5;}
	.st5{fill:#F0F4F6;}
</style>
<g>
	<g>
		<path class="st0" d="M79,26.2l5.7-4.8L79,16.6c-0.3-0.3-0.5-0.7-0.5-1.1l0.6-7.4l-7.4,0.6c-0.4,0-0.8-0.1-1.1-0.5l-4.8-5.7L61,8.2
			c-0.3,0.3-0.7,0.5-1.1,0.5l-7.4-0.6l0.6,7.4c0,0.4-0.1,0.8-0.5,1.1l-5.7,4.8l5.7,4.8c0.3,0.3,0.5,0.7,0.5,1.1l-0.6,7.4l7.4-0.6H60
			c0.4,0,0.7,0.2,1,0.5l4.8,5.7l4.8-5.7c0.3-0.3,0.7-0.5,1.1-0.5l7.4,0.6l-0.6-7.4C78.6,26.8,78.7,26.4,79,26.2z"/>
	</g>
	<path class="st1" d="M42.5,20.6c2.3-0.4,4.8-0.6,7.5-0.6s5.2,0.2,7.5,0.6s4.1,1,5.5,1.8s2,1.5,2,2.5v5.5c0,0.9-0.6,1.7-2,2.5
		c-1.4,0.8-3.1,1.4-5.5,1.8c-2.4,0.4-4.9,0.6-7.6,0.6c-2.7,0-5.2-0.2-7.5-0.6c-2.3-0.4-4.1-1-5.5-1.8c-1.4-0.8-2-1.5-2-2.5v-5.5
		c0-0.9,0.6-1.7,2-2.5C38.3,21.7,40.2,21,42.5,20.6L42.5,20.6z"/>
	<g>
		<path class="st2" d="M49.9,56.3c2.7,0,5.2-0.2,7.4-0.6c2.3-0.5,4.1-1,5.5-1.8c1.4-0.7,2-1.5,2-2.5V45c-1.5,1.1-3.6,1.9-6.3,2.5
			c-2,0.4-4.4,0.7-6.7,0.8c-0.8,2.7-1.6,5.3-2.5,8C49.5,56.3,49.7,56.3,49.9,56.3z"/>
		<path class="st3" d="M41.5,47.5C38.9,47,36.7,46.1,35,45v6.4c0,0.9,0.6,1.7,2,2.5c1.4,0.8,3.2,1.4,5.5,1.8
			c2.2,0.4,4.4,0.6,6.9,0.6c0.9-2.6,1.7-5.3,2.5-8c-0.6,0-1.2,0-1.9,0C47,48.3,44.1,48,41.5,47.5z"/>
		<path class="st2" d="M62.9,43.3c1.4-0.7,2-1.5,2-2.5v-6.4c-1.6,1.2-3.6,2-6.3,2.6c-1.1,0.2-2.3,0.4-3.5,0.6
			c-0.9,2.7-1.7,5.5-2.5,8.2c1.7-0.1,3.3-0.3,4.8-0.5C59.8,44.7,61.5,44.1,62.9,43.3z"/>
		<path class="st3" d="M50,37.8c-3,0-5.8-0.3-8.5-0.9c-2.6-0.6-4.8-1.3-6.5-2.5v6.4c0,0.9,0.6,1.7,2,2.5c1.4,0.8,3.2,1.4,5.5,1.8
			c2.3,0.4,4.8,0.6,7.5,0.6c0.9,0,1.8,0,2.7-0.1c0.8-2.7,1.6-5.5,2.5-8.2C53.5,37.7,51.8,37.8,50,37.8z"/>
		<path class="st3" d="M58.6,26.5c-2.6,0.6-5.5,0.9-8.5,0.9s-5.8-0.3-8.5-0.9c-2.6-0.6-4.8-1.3-6.5-2.5v6.4c0,0.9,0.6,1.7,2,2.5
			c1.4,0.8,3.2,1.4,5.5,1.8c2.3,0.4,4.8,0.6,7.5,0.6c2.1,0,4.2-0.1,6.1-0.4c1-2.9,2-5.7,3.1-8.5C58.9,26.4,58.8,26.5,58.6,26.5z"/>
		<path class="st2" d="M59.1,26.4C58,29.2,57,32.1,56,34.9c0.5-0.1,1-0.1,1.4-0.2c2.3-0.5,4.1-1,5.5-1.8c1.4-0.7,2-1.5,2-2.5V24
			C63.4,25.1,61.5,25.8,59.1,26.4z"/>
	</g>
	<path class="st4" d="M49.9,57.4c-2.9,0-5.4-0.2-7.7-0.6c-2.4-0.5-4.4-1.1-5.8-2c-1.7-1-2.5-2.1-2.5-3.4V45c0-0.4,0.2-0.8,0.6-0.9
		c0.3-0.2,0.8-0.2,1.1,0c1.7,1.1,3.8,1.9,6.1,2.3l0,0c2.6,0.5,5.5,0.8,8.3,0.8s5.8-0.3,8.3-0.8s4.5-1.3,5.9-2.3
		c0.3-0.2,0.8-0.3,1.1-0.1c0.3,0.2,0.6,0.6,0.6,1v6.4c0,1.4-0.8,2.5-2.5,3.4c-1.3,0.8-3.1,1.4-5.8,2C55.3,57.1,52.8,57.4,49.9,57.4z
		 M36.1,46.8v4.5c0,0.6,0.8,1.1,1.4,1.5c1.2,0.7,3,1.3,5.1,1.7c2.2,0.4,4.6,0.6,7.3,0.6c2.8,0,5.1-0.2,7.2-0.6c2.4-0.5,4-1,5.1-1.7
		c1.4-0.8,1.4-1.3,1.4-1.5v-4.5c-1.4,0.7-3,1.2-5,1.6c-2.7,0.6-5.8,0.9-8.8,0.9s-5.9-0.3-8.7-0.9C39.4,48.2,37.6,47.6,36.1,46.8z
		 M49.9,46.9c-2.9,0-5.4-0.2-7.7-0.6c-2.4-0.5-4.4-1.1-5.8-2c-1.2-0.7-2.5-1.7-2.5-3.4v-6.4c0-0.4,0.2-0.8,0.6-1
		c0.4-0.2,0.8-0.2,1.1,0.1c1.5,1,3.4,1.7,6.1,2.3c2.8,0.6,5.5,0.8,8.3,0.8c2.9,0,5.8-0.3,8.3-0.8s4.5-1.3,5.9-2.3
		c0.3-0.2,0.8-0.3,1.1-0.1c0.4,0.2,0.6,0.6,0.6,1v6.4c0,1.4-0.8,2.5-2.5,3.4c-1.3,0.8-3.1,1.4-5.8,2C55.4,46.7,52.9,46.9,49.9,46.9z
		 M36.1,36.4v4.5c0,0.2,0,0.7,1.4,1.5c1.2,0.7,3,1.3,5.1,1.7c2.2,0.4,4.6,0.6,7.3,0.6c2.8,0,5.2-0.2,7.3-0.6c2.4-0.5,4-1,5.1-1.7
		c1.4-0.8,1.4-1.3,1.4-1.5v-4.5c-1.4,0.7-3,1.2-5,1.6c-2.7,0.6-5.7,0.9-8.8,0.9c-3,0-5.9-0.3-8.8-0.9l0,0
		C39.2,37.6,37.5,37.1,36.1,36.4z M49.9,36.4c-2.9,0-5.4-0.2-7.7-0.6c-2.4-0.5-4.4-1.1-5.8-2c-1.2-0.7-2.5-1.7-2.5-3.4v-5.5
		c0-1.4,0.8-2.5,2.5-3.4c1.5-0.8,3.6-1.5,5.9-2l0,0c2.3-0.4,4.8-0.6,7.7-0.6s5.4,0.2,7.7,0.6c2.4,0.5,4.4,1.1,5.8,2
		c1.2,0.7,2.5,1.7,2.5,3.4v5.5c0,1.4-0.8,2.5-2.5,3.4c-1.3,0.8-3.1,1.4-5.8,2C55.3,36.2,52.7,36.4,49.9,36.4z M50,21.1
		c-2.8,0-5.2,0.2-7.3,0.6l0,0c-2,0.4-3.9,1-5.2,1.7c-1.4,0.8-1.4,1.3-1.4,1.5v5.5c0,0.2,0,0.7,1.4,1.5c1.2,0.7,3,1.3,5.1,1.7
		c2.2,0.4,4.6,0.6,7.3,0.6s5.1-0.2,7.4-0.6c2.4-0.5,4-1,5.1-1.7c1.4-0.8,1.4-1.3,1.4-1.5v-5.5c0-0.2,0-0.7-1.4-1.5
		c-1.2-0.7-3-1.3-5.1-1.7C55.1,21.3,52.7,21.1,50,21.1z"/>
	<path class="st5" d="M66,19.8l1.4,1.6c0.1,0.1,0.2,0.1,0.3,0.1l0,0l2.1-0.2l-0.2,2.1c0,0.1,0,0.2,0.1,0.3l1.6,1.4l-1.6,1.4
		c-0.1,0.1-0.1,0.2-0.1,0.3l0.2,2.1l-2.1-0.2l0,0c-0.1,0-0.2,0-0.3,0.1L66,30.4L64.6,29c-0.1-0.1-0.2-0.1-0.3-0.1l0,0L62.2,29
		l0.2-2.1c0-0.1,0-0.2-0.1-0.3l-1.6-1.4l1.6-1.4c0.1-0.1,0.1-0.2,0.1-0.3l-0.2-2.1l2.1,0.2l0,0c0.1,0,0.2,0,0.3-0.1L66,19.8
		 M69.8,21.4L69.8,21.4"/>
</g>
</svg>
