<?xml version="1.0" encoding="utf-8"?>
<!-- Generator: Adobe Illustrator 25.4.1, SVG Export Plug-In . SVG Version: 6.00 Build 0)  -->
<svg version="1.1" id="Layer_1" xmlns="http://www.w3.org/2000/svg" xmlns:xlink="http://www.w3.org/1999/xlink" x="0px" y="0px"
	 viewBox="0 0 100 60" style="enable-background:new 0 0 100 60;" xml:space="preserve">
<style type="text/css">
	.st0{fill:none;stroke:#333D48;stroke-width:3.4422;stroke-miterlimit:10;}
	.st1{fill:#F75E71;}
	.st2{fill:#BA50A1;}
	.st3{fill:#ED5580;}
	.st4{fill:#9457B5;}
	.st5{fill:#F0F4F6;}
</style>
<g>
	<g>
		<path class="st0" d="M69.7,26.2l5.7-4.8l-5.7-4.8c-0.3-0.3-0.5-0.7-0.5-1.1l0.6-7.4l-7.4,0.6c-0.4,0-0.8-0.1-1.1-0.5l-4.8-5.7
			l-4.8,5.7c-0.3,0.3-0.7,0.5-1.1,0.5l-7.4-0.6l0.6,7.4c0,0.4-0.1,0.8-0.5,1.1l-5.7,4.8l5.7,4.8c0.3,0.3,0.5,0.7,0.5,1.1l-0.6,7.4
			l7.4-0.6c0,0,0.1,0,0.1,0c0.4,0,0.7,0.2,1,0.5l4.8,5.7l4.8-5.7c0.3-0.3,0.7-0.5,1.1-0.5l7.4,0.6l-0.6-7.4
			C69.3,26.8,69.4,26.4,69.7,26.2z"/>
	</g>
	<path class="st1" d="M33.2,20.6c2.3-0.4,4.8-0.6,7.5-0.6c2.7,0,5.2,0.2,7.5,0.6c2.3,0.4,4.1,1,5.5,1.8s2,1.5,2,2.5v5.5
		c0,0.9-0.6,1.7-2,2.5c-1.4,0.8-3.1,1.4-5.5,1.8c-2.4,0.4-4.9,0.6-7.6,0.6c-2.7,0-5.2-0.2-7.5-0.6c-2.3-0.4-4.1-1-5.5-1.8
		s-2-1.5-2-2.5v-5.5c0-0.9,0.6-1.7,2-2.5C29,21.7,30.9,21,33.2,20.6L33.2,20.6z"/>
	<g>
		<path class="st2" d="M40.6,56.3c2.7,0,5.2-0.2,7.4-0.6c2.3-0.5,4.1-1,5.5-1.8c1.4-0.7,2-1.5,2-2.5V45c-1.5,1.1-3.6,1.9-6.3,2.5
			c-2,0.4-4.4,0.7-6.7,0.8c-0.8,2.7-1.6,5.3-2.5,8C40.2,56.3,40.4,56.3,40.6,56.3z"/>
		<path class="st3" d="M32.2,47.5c-2.6-0.5-4.8-1.4-6.5-2.5v6.4c0,0.9,0.6,1.7,2,2.5c1.4,0.8,3.2,1.4,5.5,1.8
			c2.2,0.4,4.4,0.6,6.9,0.6c0.9-2.6,1.7-5.3,2.5-8c-0.6,0-1.2,0-1.9,0C37.7,48.3,34.8,48,32.2,47.5z"/>
		<path class="st2" d="M53.6,43.3c1.4-0.7,2-1.5,2-2.5v-6.4C54,35.6,52,36.4,49.3,37c-1.1,0.2-2.3,0.4-3.5,0.6
			c-0.9,2.7-1.7,5.5-2.5,8.2c1.7-0.1,3.3-0.3,4.8-0.5C50.5,44.7,52.2,44.1,53.6,43.3z"/>
		<path class="st3" d="M40.7,37.8c-3,0-5.8-0.3-8.5-0.9c-2.6-0.6-4.8-1.3-6.5-2.5v6.4c0,0.9,0.6,1.7,2,2.5c1.4,0.8,3.2,1.4,5.5,1.8
			c2.3,0.4,4.8,0.6,7.5,0.6c0.9,0,1.8,0,2.7-0.1c0.8-2.7,1.6-5.5,2.5-8.2C44.2,37.7,42.5,37.8,40.7,37.8z"/>
		<path class="st3" d="M49.3,26.5c-2.6,0.6-5.5,0.9-8.5,0.9c-3,0-5.8-0.3-8.5-0.9c-2.6-0.6-4.8-1.3-6.5-2.5v6.4c0,0.9,0.6,1.7,2,2.5
			c1.4,0.8,3.2,1.4,5.5,1.8c2.3,0.4,4.8,0.6,7.5,0.6c2.1,0,4.2-0.1,6.1-0.4c1-2.9,2-5.7,3.1-8.5C49.6,26.4,49.5,26.5,49.3,26.5z"/>
		<path class="st2" d="M49.8,26.4c-1.1,2.8-2.1,5.7-3.1,8.5c0.5-0.1,1-0.1,1.4-0.2c2.3-0.5,4.1-1,5.5-1.8c1.4-0.7,2-1.5,2-2.5V24
			C54.1,25.1,52.2,25.8,49.8,26.4z"/>
	</g>
	<path class="st4" d="M40.6,57.4c-2.9,0-5.4-0.2-7.7-0.6c-2.4-0.5-4.4-1.1-5.8-2c-1.7-1-2.5-2.1-2.5-3.4V45c0-0.4,0.2-0.8,0.6-0.9
		c0.3-0.2,0.8-0.2,1.1,0c1.7,1.1,3.8,1.9,6.1,2.3c0,0,0,0,0,0c2.6,0.5,5.5,0.8,8.3,0.8c2.8,0,5.8-0.3,8.3-0.8
		c2.5-0.5,4.5-1.3,5.9-2.3c0.3-0.2,0.8-0.3,1.1-0.1s0.6,0.6,0.6,1v6.4c0,1.4-0.8,2.5-2.5,3.4c-1.3,0.8-3.1,1.4-5.8,2
		C46,57.1,43.5,57.4,40.6,57.4z M26.8,46.8v4.5c0,0.6,0.8,1.1,1.4,1.5c1.2,0.7,3,1.3,5.1,1.7c2.2,0.4,4.6,0.6,7.3,0.6
		c2.8,0,5.1-0.2,7.2-0.6c2.4-0.5,4-1,5.1-1.7c1.4-0.8,1.4-1.3,1.4-1.5v-4.5c-1.4,0.7-3,1.2-5,1.6c-2.7,0.6-5.8,0.9-8.8,0.9
		c-3,0-5.9-0.3-8.7-0.9C30.1,48.2,28.3,47.6,26.8,46.8z M40.6,46.9c-2.9,0-5.4-0.2-7.7-0.6c-2.4-0.5-4.4-1.1-5.8-2
		c-1.2-0.7-2.5-1.7-2.5-3.4v-6.4c0-0.4,0.2-0.8,0.6-1c0.4-0.2,0.8-0.2,1.1,0.1c1.5,1,3.4,1.7,6.1,2.3c2.8,0.6,5.5,0.8,8.3,0.8
		c2.9,0,5.8-0.3,8.3-0.8c2.5-0.5,4.5-1.3,5.9-2.3c0.3-0.2,0.8-0.3,1.1-0.1c0.4,0.2,0.6,0.6,0.6,1v6.4c0,1.4-0.8,2.5-2.5,3.4
		c-1.3,0.8-3.1,1.4-5.8,2C46.1,46.7,43.6,46.9,40.6,46.9z M26.8,36.4v4.5c0,0.2,0,0.7,1.4,1.5c1.2,0.7,3,1.3,5.1,1.7
		c2.2,0.4,4.6,0.6,7.3,0.6c2.8,0,5.2-0.2,7.3-0.6c2.4-0.5,4-1,5.1-1.7c1.4-0.8,1.4-1.3,1.4-1.5v-4.5c-1.4,0.7-3,1.2-5,1.6
		c-2.7,0.6-5.7,0.9-8.8,0.9c-3,0-5.9-0.3-8.8-0.9c0,0,0,0,0,0C29.9,37.6,28.2,37.1,26.8,36.4z M40.6,36.4c-2.9,0-5.4-0.2-7.7-0.6
		c-2.4-0.5-4.4-1.1-5.8-2c-1.2-0.7-2.5-1.7-2.5-3.4v-5.5c0-1.4,0.8-2.5,2.5-3.4c1.5-0.8,3.6-1.5,5.9-2l0,0c2.3-0.4,4.8-0.6,7.7-0.6
		c2.9,0,5.4,0.2,7.7,0.6c2.4,0.5,4.4,1.1,5.8,2c1.2,0.7,2.5,1.7,2.5,3.4v5.5c0,1.4-0.8,2.5-2.5,3.4c-1.3,0.8-3.1,1.4-5.8,2
		C46,36.2,43.4,36.4,40.6,36.4z M40.7,21.1c-2.8,0-5.2,0.2-7.3,0.6l0,0c-2,0.4-3.9,1-5.2,1.7c-1.4,0.8-1.4,1.3-1.4,1.5v5.5
		c0,0.2,0,0.7,1.4,1.5c1.2,0.7,3,1.3,5.1,1.7c2.2,0.4,4.6,0.6,7.3,0.6c2.7,0,5.1-0.2,7.4-0.6c2.4-0.5,4-1,5.1-1.7
		c1.4-0.8,1.4-1.3,1.4-1.5v-5.5c0-0.2,0-0.7-1.4-1.5c-1.2-0.7-3-1.3-5.1-1.7C45.8,21.3,43.4,21.1,40.7,21.1z"/>
	<path class="st5" d="M56.7,19.8l1.4,1.6c0.1,0.1,0.2,0.1,0.3,0.1c0,0,0,0,0,0l2.1-0.2l-0.2,2.1c0,0.1,0,0.2,0.1,0.3l1.6,1.4
		l-1.6,1.4c-0.1,0.1-0.1,0.2-0.1,0.3l0.2,2.1l-2.1-0.2c0,0,0,0,0,0c-0.1,0-0.2,0-0.3,0.1l-1.4,1.6L55.3,29c-0.1-0.1-0.2-0.1-0.3-0.1
		c0,0,0,0,0,0L52.9,29l0.2-2.1c0-0.1,0-0.2-0.1-0.3l-1.6-1.4l1.6-1.4c0.1-0.1,0.1-0.2,0.1-0.3l-0.2-2.1l2.1,0.2c0,0,0,0,0,0
		c0.1,0,0.2,0,0.3-0.1L56.7,19.8 M60.5,21.4L60.5,21.4"/>
</g>
</svg>
