<?xml version="1.0" encoding="utf-8"?>
<!-- Generator: Adobe Illustrator 25.4.1, SVG Export Plug-In . SVG Version: 6.00 Build 0)  -->
<svg version="1.1" id="a" xmlns="http://www.w3.org/2000/svg" xmlns:xlink="http://www.w3.org/1999/xlink" x="0px" y="0px"
	 viewBox="0 0 135 113" style="enable-background:new 0 0 135 113;" xml:space="preserve">
<style type="text/css">
	.st0{fill:#6972EE;}
	.st1{fill:#518BEE;}
	.st2{fill:#7A61D4;}
</style>
<g>
	<g>
		<path class="st0" d="M14.4,45.7l17.2,30.1c0.6,1,2,1,2.6,0l17.1-30.1c0.2-0.5,0.2-1,0-1.4L34.1,14.2c-0.6-1-2-1-2.6,0L14.4,44.3
			C14.1,44.7,14.1,45.2,14.4,45.7z"/>
		<polygon class="st1" points="32.8,73.1 16.7,45 32.8,16.7 37.8,45 		"/>
	</g>
	<polygon class="st2" points="32.8,73.1 37.9,45 48.8,45 	"/>
</g>
<g>
	<g>
		<path class="st0" d="M49.1,68.8l17.2,30.1c0.6,1,2,1,2.6,0L86,68.8c0.2-0.5,0.2-1,0-1.4L68.7,37.2c-0.6-1-2-1-2.6,0l-17,30.1
			C48.8,67.8,48.8,68.3,49.1,68.8z"/>
		<polygon class="st1" points="67.4,96.3 51.3,68 67.4,39.8 72.6,68 		"/>
	</g>
	<polygon class="st2" points="67.4,96.3 72.6,68 83.4,68 	"/>
</g>
<g>
	<g>
		<path class="st0" d="M83.8,45.7L101,75.8c0.6,1,2,1,2.6,0l17.1-30.1c0.2-0.5,0.2-1,0-1.4l-17.2-30.2c-0.6-1-2-1-2.6,0L83.8,44.2
			C83.6,44.7,83.6,45.2,83.8,45.7z"/>
		<polygon class="st1" points="102.2,73.1 86.2,44.9 102.2,16.7 107.3,44.9 		"/>
	</g>
	<polygon class="st2" points="102.2,73.1 107.4,44.9 118.2,44.9 	"/>
</g>
</svg>
