<?xml version="1.0" encoding="utf-8"?>
<!-- Generator: Adobe Illustrator 27.4.1, SVG Export Plug-In . SVG Version: 6.00 Build 0)  -->
<svg version="1.1" id="Layer_1" xmlns="http://www.w3.org/2000/svg" xmlns:xlink="http://www.w3.org/1999/xlink" x="0px" y="0px"
	 viewBox="0 0 123 123" style="enable-background:new 0 0 123 123;" xml:space="preserve">
<style type="text/css">
	.st0{fill:#181826;}
	.st1{fill:none;stroke:#333D48;stroke-width:2;stroke-miterlimit:10;}
	.st2{fill:url(#SVGID_1_);}
	.st3{fill:none;stroke:#2F9EF3;stroke-width:3;stroke-linecap:round;stroke-miterlimit:10;}
	.st4{fill:url(#SVGID_00000029748592551192187920000000668601270273263018_);}
	.st5{fill:none;stroke:#BA50A1;stroke-width:3;stroke-linecap:round;stroke-miterlimit:10;}
</style>
<rect x="-0.5" class="st0" width="124" height="123"/>
<line class="st1" x1="32.5" y1="14.5" x2="32.5" y2="110.1"/>
<line class="st1" x1="52" y1="14.5" x2="52" y2="110.1"/>
<line class="st1" x1="71.5" y1="14.5" x2="71.5" y2="110.1"/>
<line class="st1" x1="91.1" y1="14.5" x2="91.1" y2="110.1"/>
<g>
	<g>
		
			<linearGradient id="SVGID_1_" gradientUnits="userSpaceOnUse" x1="61.2865" y1="124.212" x2="61.2865" y2="2.155" gradientTransform="matrix(1 0 0 -1 0 124)">
			<stop  offset="0" style="stop-color:#2F9EF3;stop-opacity:0.5"/>
			<stop  offset="1" style="stop-color:#2F9EF3;stop-opacity:0"/>
		</linearGradient>
		<polygon class="st2" points="11.9,48.4 21.8,44.9 31.7,16.8 41.5,46.3 51.4,37.8 61.3,41 71.1,35.6 81,57.4 90.9,55.3 100.8,60.1 
			110.6,37.2 110.6,110.1 110.6,110.1 11.9,110.1 		"/>
		<polyline class="st3" points="11.7,47.8 21.3,44.4 31.7,14.8 41.8,45.2 51.3,37 61.2,40.3 71.4,34.7 81.4,56.6 91,54.6 
			100.4,59.2 110,36.9 		"/>
	</g>
	
		<linearGradient id="SVGID_00000165225798878203568400000000427144435385056649_" gradientUnits="userSpaceOnUse" x1="61.478" y1="73.795" x2="61.478" y2="-3.215" gradientTransform="matrix(1 0 0 -1 0 124)">
		<stop  offset="0" style="stop-color:#BA50A1;stop-opacity:0.5"/>
		<stop  offset="1" style="stop-color:#BA50A1;stop-opacity:0"/>
	</linearGradient>
	<polygon style="fill:url(#SVGID_00000165225798878203568400000000427144435385056649_);" points="12.1,86.8 22,83.3 31.9,55.2 
		41.7,84.7 51.6,76.1 61.5,79.3 71.3,74 81.2,95.7 91.1,93.7 100.9,98.5 110.8,75.5 110.8,110.1 110.8,110.1 12.1,110.1 	"/>
	<polyline class="st5" points="12.1,86.8 22,83.3 31.9,55.2 41.7,84.7 51.6,76.1 61.5,79.3 71.3,74 81.2,95.7 91.1,93.7 100.9,98.5 
		110.8,75.5 	"/>
</g>
</svg>
