<?xml version="1.0" encoding="utf-8"?>
<!-- Generator: Adobe Illustrator 27.4.1, SVG Export Plug-In . SVG Version: 6.00 Build 0)  -->
<svg version="1.1" id="Layer_1" xmlns="http://www.w3.org/2000/svg" xmlns:xlink="http://www.w3.org/1999/xlink" x="0px" y="0px"
	 viewBox="0 0 124 123" style="enable-background:new 0 0 124 123;" xml:space="preserve">
<style type="text/css">
	.st0{fill:#181826;}
	.st1{fill:none;stroke:#333D48;stroke-width:2;stroke-miterlimit:10;}
	.st2{fill:#99B3D1;}
	.st3{fill:#BA50A1;}
	.st4{fill:#2F9EF3;}
</style>
<rect class="st0" width="124" height="123"/>
<g>
	<line class="st1" x1="13.5" y1="105.3" x2="109.1" y2="105.3"/>
	<line class="st1" x1="13.5" y1="76.1" x2="109.1" y2="76.1"/>
	<line class="st1" x1="13.5" y1="46.9" x2="109.1" y2="46.9"/>
	<line class="st1" x1="13.5" y1="17.7" x2="109.1" y2="17.7"/>
	<rect x="13.5" y="27.8" class="st2" width="40.2" height="8.9"/>
	<rect x="13.5" y="57" class="st2" width="52.5" height="8.9"/>
	<rect x="13.5" y="86.3" class="st2" width="64.8" height="8.9"/>
	<path class="st3" d="M101.1,26L101.1,26c3.5,0,6.3,2.8,6.3,6.3l0,0c0,3.5-2.8,6.3-6.3,6.3h0c-3.5,0-6.3-2.8-6.3-6.3l0,0
		C94.8,28.8,97.6,26,101.1,26z"/>
	<path class="st4" d="M80.3,26L80.3,26c3.5,0,6.3,2.8,6.3,6.3l0,0c0,3.5-2.8,6.3-6.3,6.3h0c-3.5,0-6.3-2.8-6.3-6.3l0,0
		C74,28.8,76.8,26,80.3,26z"/>
	<path class="st4" d="M101.1,55.2L101.1,55.2c3.5,0,6.3,2.8,6.3,6.3v0c0,3.5-2.8,6.3-6.3,6.3h0c-3.5,0-6.3-2.8-6.3-6.3v0
		C94.8,58,97.6,55.2,101.1,55.2z"/>
	<path class="st3" d="M101.1,84.4L101.1,84.4c3.5,0,6.3,2.8,6.3,6.3v0c0,3.5-2.8,6.3-6.3,6.3h0c-3.5,0-6.3-2.8-6.3-6.3v0
		C94.8,87.2,97.6,84.4,101.1,84.4z"/>
</g>
</svg>
