<?xml version="1.0" encoding="utf-8"?>
<!-- Generator: Adobe Illustrator 27.4.1, SVG Export Plug-In . SVG Version: 6.00 Build 0)  -->
<svg version="1.1" id="Layer_1" xmlns="http://www.w3.org/2000/svg" xmlns:xlink="http://www.w3.org/1999/xlink" x="0px" y="0px"
	 viewBox="0 0 123 123" style="enable-background:new 0 0 123 123;" xml:space="preserve">
<style type="text/css">
	.st0{fill:#181826;}
	.st1{fill:#40556B;}
	.st2{fill:#99B3D1;}
	.st3{fill:none;stroke:#2F9EF3;stroke-width:3;stroke-linecap:round;stroke-miterlimit:10;}
	.st4{fill:none;stroke:#BA50A1;stroke-width:3;stroke-linecap:round;stroke-miterlimit:10;}
</style>
<rect x="-0.5" class="st0" width="124" height="123"/>
<g>
	<rect x="41.4" y="25.3" class="st1" width="43.6" height="5.5"/>
	<rect x="41.4" y="39.7" class="st2" width="69.6" height="12"/>
	<path class="st3" d="M21.1,35.8L21.1,35.8c5,0,9,4,9,9l0,0c0,5-4,9-9,9l0,0c-5,0-9-4-9-9l0,0C12.1,39.8,16.1,35.8,21.1,35.8z"/>
	<path class="st4" d="M21.1,88.1L21.1,88.1c5,0,9,4,9,9l0,0c0,5-4,9-9,9l0,0c-5,0-9-4-9-9l0,0C12.1,92.2,16.1,88.1,21.1,88.1z"/>
	<rect x="41.4" y="77.7" class="st1" width="43.6" height="5.5"/>
	<rect x="41.4" y="92.1" class="st2" width="69.6" height="12"/>
</g>
</svg>
