<?xml version="1.0" encoding="utf-8"?>
<!-- Generator: Adobe Illustrator 27.4.1, SVG Export Plug-In . SVG Version: 6.00 Build 0)  -->
<svg version="1.1" id="Layer_1" xmlns="http://www.w3.org/2000/svg" xmlns:xlink="http://www.w3.org/1999/xlink" x="0px" y="0px"
	 viewBox="0 0 123 123" style="enable-background:new 0 0 123 123;" xml:space="preserve">
<style type="text/css">
	.st0{fill:#181826;}
	.st1{fill:#ED5580;}
	.st2{fill:#BA508E;}
	.st3{fill:none;stroke:#A64275;stroke-width:3;stroke-linecap:round;stroke-linejoin:round;}
	.st4{fill:#F0BF54;}
	.st5{fill:#F0AE5E;}
	.st6{fill:none;stroke:#EE9D5F;stroke-width:3;stroke-linecap:round;stroke-linejoin:round;}
</style>
<rect x="-0.5" class="st0" width="124" height="123"/>
<g>
	<polygon class="st1" points="61.5,61.7 27.7,42.1 27.7,80.9 61.5,100.5 	"/>
	<polygon class="st2" points="61.5,61.7 27.7,80.9 61.5,100.5 	"/>
	<polygon class="st2" points="95.3,80.9 61.5,100.4 61.5,61.7 95.3,42.1 	"/>
	<polygon class="st1" points="61.5,61.7 95.3,42.1 78.4,32.3 61.5,22.5 27.7,42.1 44.6,51.9 	"/>
	<g>
		<polygon class="st3" points="61.5,61.7 27.7,42.1 27.7,80.9 61.5,100.5 		"/>
		<line class="st3" x1="78.4" y1="32.3" x2="44.6" y2="51.9"/>
		<line class="st3" x1="44.6" y1="51.9" x2="44.6" y2="61"/>
		<polygon class="st3" points="95.3,80.9 61.5,100.4 61.5,61.7 95.3,42.1 		"/>
		<polygon class="st3" points="61.5,61.7 95.3,42.1 78.4,32.3 61.5,22.5 27.7,42.1 44.6,51.9 		"/>
	</g>
</g>
<g>
	<polygon class="st4" points="95.3,25.9 99.7,36.5 111.2,37.4 102.5,44.9 105.1,56.1 95.3,50.1 85.5,56.1 88.1,44.9 79.4,37.4 
		90.9,36.5 	"/>
	<polygon class="st5" points="99.7,36.5 111.2,37.4 102.5,44.9 105.1,56.1 95.3,50.1 85.5,56.1 	"/>
	<polygon class="st6" points="95.3,25.9 99.7,36.5 111.2,37.4 102.5,44.9 105.1,56.1 95.3,50.1 85.5,56.1 88.1,44.9 79.4,37.4 
		90.9,36.5 	"/>
</g>
</svg>
