<svg xmlns="http://www.w3.org/2000/svg" viewBox="0 0 123 123">
  <defs>
    <style>
      .a {
        fill: #262a30;
      }

      .b {
        fill: #ed5580;
      }

      .c {
        fill: #ba508e;
      }

      .d, .g {
        fill: none;
        stroke-linecap: round;
        stroke-linejoin: round;
        stroke-width: 3px;
      }

      .d {
        stroke: #a64275;
      }

      .e {
        fill: #f0bf54;
      }

      .f {
        fill: #f0ae5e;
      }

      .g {
        stroke: #ee9d5f;
      }
    </style>
  </defs>
  <title>Artboard 2</title>
  <rect class="a" x="-0.5" width="124" height="123"/>
  <g>
    <polygon class="b" points="61.5 61.683 27.687 42.084 27.687 80.855 61.5 100.453 61.5 61.683"/>
    <polygon class="c" points="61.5 61.683 27.687 80.855 61.5 100.453 61.5 61.683"/>
    <polygon class="c" points="95.313 80.852 61.5 100.45 61.5 61.68 95.313 42.082 95.313 80.852"/>
    <polygon class="b" points="61.5 61.68 95.313 42.083 78.406 32.314 61.5 22.547 27.687 42.084 44.593 51.882 61.5 61.68"/>
    <g>
      <polygon class="d" points="61.5 61.683 27.687 42.084 27.687 80.855 61.5 100.453 61.5 61.683"/>
      <line class="d" x1="78.406" y1="32.314" x2="44.593" y2="51.882"/>
      <line class="d" x1="44.593" y1="51.893" x2="44.593" y2="60.997"/>
      <polygon class="d" points="95.313 80.852 61.5 100.45 61.5 61.68 95.313 42.082 95.313 80.852"/>
      <polygon class="d" points="61.5 61.68 95.313 42.083 78.406 32.314 61.5 22.547 27.687 42.084 44.593 51.882 61.5 61.68"/>
    </g>
  </g>
  <g>
    <polygon class="e" points="95.313 25.879 99.742 36.493 111.205 37.425 102.479 44.916 105.135 56.106 95.313 50.122 85.492 56.106 88.148 44.916 79.422 37.425 90.885 36.493 95.313 25.879"/>
    <polygon class="f" points="99.742 36.493 111.205 37.425 102.479 44.916 105.135 56.106 95.313 50.122 85.492 56.106 99.742 36.493"/>
    <polygon class="g" points="95.313 25.879 99.742 36.493 111.205 37.425 102.479 44.916 105.135 56.106 95.313 50.122 85.492 56.106 88.148 44.916 79.422 37.425 90.885 36.493 95.313 25.879"/>
  </g>
</svg>
