<?xml version="1.0" encoding="utf-8"?>
<!-- Generator: Adobe Illustrator 19.2.0, SVG Export Plug-In . SVG Version: 6.00 Build 0)  -->
<svg version="1.1" id="Layer_1" xmlns="http://www.w3.org/2000/svg" xmlns:xlink="http://www.w3.org/1999/xlink" x="0px" y="0px"
	 viewBox="0 0 366.3 130" style="enable-background:new 0 0 366.3 130;" xml:space="preserve">
<style type="text/css">
	.st0{fill:#EE3442;}
</style>
<g id="New_Symbol_1">
</g>
<g>
	<rect x="115.7" y="44.9" class="st0" width="3" height="3.2"/>
	<rect x="116.2" y="50.5" class="st0" width="2.9" height="3.1"/>
	<rect x="126.1" y="52" class="st0" width="3.3" height="3.5"/>
	<rect x="93.1" y="46.4" class="st0" width="2.2" height="2.4"/>
	<rect x="100.2" y="46.3" class="st0" width="2.4" height="2.6"/>
	<polygon class="st0" points="125,48.4 128.1,48.4 128.1,44.4 124.5,44.4 124.5,46.1 121.8,46.1 121.8,49.5 125,49.5 	"/>
	<rect x="89.8" y="40.9" class="st0" width="1.8" height="2"/>
	<rect x="130.4" y="57.6" class="st0" width="3" height="3.2"/>
	<rect x="120.9" y="55.8" class="st0" width="2.6" height="2.8"/>
	<rect x="110.8" y="43.3" class="st0" width="2.5" height="2.6"/>
	<rect x="108.4" y="48" class="st0" width="2.8" height="3"/>
	<rect x="133.7" y="53.2" class="st0" width="1.8" height="2"/>
	<rect x="102.7" y="51.1" class="st0" width="1.7" height="1.9"/>
	<polygon class="st0" points="121.7,42.4 121.7,40.5 120.2,40.5 120.2,38.7 118.1,38.7 118.1,41 119.9,41 119.9,42.4 	"/>
	<rect x="105.4" y="42.9" class="st0" width="1.7" height="1.9"/>
	<rect x="80.9" y="37.8" class="st0" width="1.7" height="1.9"/>
	<rect x="112" y="54.6" class="st0" width="1.7" height="1.9"/>
	<rect x="98.4" y="38.6" class="st0" width="2" height="2.1"/>
	<rect x="109.4" y="37.5" class="st0" width="1.7" height="1.9"/>
	<path class="st0" d="M128.4,41.5v1.1h2.4v3.6h2.9V48h-3.3v3.7h3.5v-2.5h0.9v1.3h2v3.9h1.5V58h-1v1.2h-0.8
		c2.1,6.5,2.9,13.9,2.9,13.9c1.7-3.3,9.9-35.2-22.8-37.8c4.5,2.2,7.8,4.8,9.5,6.2H128.4z"/>
	<path class="st0" d="M116,95h10.6l-15.4-32.7h-9.9h0L90.6,83.5h-3.1v7.4l-1,2.8L75.9,80.9c1.2-0.3,2.2-0.7,3.2-1.2h0c0,0,0,0,0,0
		c0.3-0.2,0.7-0.3,1-0.5c0.1,0,0.1-0.1,0.2-0.1c0.2-0.1,0.5-0.3,0.7-0.4c0.1,0,0.2-0.1,0.2-0.2c0.2-0.1,0.4-0.3,0.6-0.5
		c0.1-0.1,0.1-0.1,0.2-0.2c0.3-0.2,0.5-0.4,0.7-0.6c1.6-1.6,2.4-3.4,2.4-5.6c0-1-0.3-2.1-0.9-3.3c-0.6-1.2-1.5-2.2-2.7-3.2
		c-1.2-1-2.7-1.8-4.4-2.4c-1.7-0.6-3.8-1-6-1h0H46.9v12.5h-2.4v5.5v2h2.4V95h10V81.7h8.3L75.9,95h19.7l2.5-4.1h16.4L116,95z
		 M56.9,68.5h12.4c0.6,0,1.2,0.1,1.8,0.3c0.6,0.2,1.1,0.4,1.6,0.7c0.5,0.3,0.8,0.7,1.1,1c0.3,0.4,0.4,0.8,0.4,1.2
		c0,0.4-0.1,0.9-0.4,1.3c-0.3,0.4-0.7,0.7-1.1,1.1c-0.5,0.3-1,0.6-1.6,0.7c-0.6,0.2-1.2,0.3-1.8,0.3H56.9V68.5z M101.3,83.5l1.8-3.7
		h0l3.2-6.7l5,10.5H101.3z"/>
	<polygon class="st0" points="239.3,79.7 239.3,62.3 227.3,62.3 227.3,69.6 227.3,69.6 229.7,69.6 229.7,79.7 229.7,83 226.3,79.7 
		226.3,79.7 208.2,62.3 208.2,62.3 198.6,62.3 198.6,79.7 198.6,94.9 208.2,94.9 208.2,79.7 208.2,79.7 208.2,74.2 229.7,94.9 
		239.3,94.9 	"/>
	<path class="st0" d="M321.2,89.4c0.9-1.7,1.2-4.6,0.6-6.7c-0.3-0.9-0.6-1.8-1.1-2.4c-0.1-0.2-0.3-0.3-0.4-0.5h0
		c-0.1-0.1-0.2-0.2-0.3-0.3c-0.1-0.1-0.1-0.2-0.2-0.2c-0.2-0.2-0.5-0.5-0.7-0.6c-0.6-0.4-1.2-0.7-1.8-0.9c0.4-0.2,0.9-0.5,1.4-0.8
		c0.5-0.3,1-0.8,1.4-1.3c0.4-0.5,0.8-1.1,1-1.9c0.3-0.7,0.5-2.1,0.4-3.5c-0.1-0.8-0.2-1.7-0.6-2.4c-0.6-1.2-1-1.8-2.1-2.7
		c-1.1-0.9-2.5-1.6-4.2-2.1c-1.7-0.6-3.8-0.8-6.3-0.8h0h-23.5h0v12.3h-2.4v5.3v2.1h2.4v13.1h24.4c1.9,0,3.6-0.2,5.2-0.7
		c1.6-0.5,3-1.1,4.2-1.9C319.7,91.4,320.7,90.5,321.2,89.4z M294.4,68.8h12.4c0.6,0,1.2,0.1,1.7,0.3c0.6,0.2,1.1,0.4,1.6,0.7
		c0.5,0.3,0.9,0.6,1.2,1c0.3,0.4,0.4,0.8,0.4,1.1c0,0.4-0.1,0.8-0.4,1.2c-0.3,0.4-0.7,0.7-1.2,1c-0.5,0.3-1,0.6-1.6,0.7
		c-0.6,0.2-1.2,0.3-1.7,0.3h-12.4V68.8z M312.8,86.2c-0.3,0.4-0.7,0.7-1.2,1c-0.5,0.3-1.1,0.5-1.8,0.7c-0.7,0.2-1.4,0.3-2.2,0.3
		h-13.2v-6.5h13.2c1.6,0,2.9,0.3,4,1c1.1,0.6,1.6,1.4,1.6,2.3C313.2,85.4,313,85.8,312.8,86.2z"/>
	<path class="st0" d="M195.1,95v-6.5h-27v-6.6h20.4v-2.1v-5.3h-20.4v-5.6h27h0v-6.6h0h-29.8c-3.8,1.6-7,5-7,5v7.2h-2.4h0v7.3h2.4V95
		H195.1z"/>
	<path class="st0" d="M148.2,79.7L148.2,79.7c0.1-0.1,0.2-0.3,0.2-0.4c0.3-0.5,0.5-1,0.8-1.4c0.2-0.3,0.3-0.6,0.5-0.9c0,0,0,0,0,0
		c1.1-2.1,2.1-3.9,2.8-5.1c-0.5,0.5-1,1-1.4,1.4c-0.1,0.1-0.3,0.2-0.4,0.4c-0.3,0.3-0.7,0.6-1,0.9c-0.2,0.1-0.3,0.3-0.5,0.4
		c-0.3,0.2-0.6,0.5-0.9,0.7c-0.2,0.1-0.3,0.3-0.5,0.4c-0.3,0.2-0.6,0.4-0.9,0.6c-0.2,0.1-0.3,0.2-0.5,0.3c-0.3,0.2-0.6,0.4-0.9,0.6
		c-0.2,0.1-0.3,0.2-0.4,0.3c-0.3,0.2-0.6,0.4-0.9,0.5c-0.1,0.1-0.3,0.1-0.4,0.2c-0.3,0.2-0.6,0.3-0.9,0.5c-0.1,0.1-0.2,0.1-0.3,0.2
		c-0.3,0.2-0.6,0.3-0.9,0.4c-3,1.5-5,2-5,2l-1.1-2h0l-9.6-17.9h-10L133.3,95h6.7C140,95,144.4,86.7,148.2,79.7z"/>
	<path class="st0" d="M243.8,69.6v25.3h16.3c2.8,0,5.5-0.4,7.9-1.3c2.5-0.8,4.6-2,6.4-3.5c1.8-1.5,3.2-3.2,4.3-5.2
		c0.9-1.6,1.4-3.4,1.5-5.2h0c0-0.4,0.1-0.8,0.1-1.1c0-2.2-0.5-4.3-1.4-6.3c-1-2-2.3-3.7-4-5.2c-1.7-1.5-3.7-2.7-6.1-3.5
		c-2.4-0.9-5-1.3-7.8-1.3h0h-19.5h0v7.4h0H243.8z M260.1,68.9c1.6,0.2,3.1,0.6,4.6,1.2c1.5,0.6,2.8,1.3,3.9,2.2
		c1.1,0.9,2,1.8,2.7,2.9c0.7,1.1,1,2.2,1,3.4c0,0.4,0,0.8-0.1,1.1h0c-0.1,1-0.4,2-0.9,2.8c-0.7,1.2-1.6,2.3-2.7,3.1
		c-1.1,0.9-2.4,1.6-3.9,2.1c-1.5,0.5-3,0.7-4.6,0.7h-7.5v-8.8h0V68.9H260.1z"/>
	<path class="st0" d="M139.6,42.8l2-0.1l-1.2,1.1c0.4,0.5,0.7,1,1,1.5l3.3-0.6l-2.3,2.5c5.7,19.4-4.2,31.3-4.2,31.3
		c8.1-2.8,18.9-14.9,27.5-19.3c8.3-4.3,16-0.1,15.5-1.7c-1.1-3.4-8.7-7.4-8.7-7.4c-3.3-3.8-7-4.8-9.4-5.3c-4.4-0.8-8.8,0.1-11,0.6
		C144.3,35.3,127.3,35,127.3,35C133.1,36.9,137,39.6,139.6,42.8z M165.2,49.1c1,0,2.8,0.7,4.2,2c0,0-0.9,0.2-1.9,0.1
		c-0.8,0-1.7-0.3-2.6-1.1C164.2,49.4,164.5,49,165.2,49.1z"/>
</g>
</svg>
