<svg id="Layer_1" data-name="Layer 1" xmlns="http://www.w3.org/2000/svg" viewBox="0 0 35 26.6"><defs><style>.cls-1{fill:#2b333b;}</style></defs><path class="cls-1" d="M26.734,16.2l-1.689-.675a.325.325,0,0,0-.245,0l-6.557,2.623a2,2,0,0,1-1.486,0L10.2,15.528a.325.325,0,0,0-.245,0L8.266,16.2a.33.33,0,0,0,0,.613l8.863,3.545a1,1,0,0,0,.742,0l8.863-3.545A.33.33,0,0,0,26.734,16.2Z"/><path class="cls-1" d="M26.734,13.065l-1.866-.747a.334.334,0,0,0-.245,0l-3.8,1.52L18.243,14.87a2,2,0,0,1-1.486,0l-2.579-1.032-3.8-1.52a.334.334,0,0,0-.245,0l-1.866.747a.329.329,0,0,0,0,.612l3.158,1.263,5.705,2.282a.992.992,0,0,0,.742,0l5.706-2.282,3.157-1.263A.329.329,0,0,0,26.734,13.065Z"/><path class="cls-1" d="M8.266,10.4l1.988.8.674.27.673.269L15.524,13.3l1.605.642a1,1,0,0,0,.742,0l1.605-.642L23.4,11.731l.673-.269.674-.27,1.988-.795a.33.33,0,0,0,0-.613L17.871,6.239a.992.992,0,0,0-.742,0L8.266,9.784A.33.33,0,0,0,8.266,10.4Z"/></svg>