<svg id="Layer_1" data-name="Layer 1" xmlns="http://www.w3.org/2000/svg" viewBox="0 0 46.55 35.378"><defs><style>.cls-1{fill:#fff;}.cls-2{fill:#2b333b;}</style></defs><circle class="cls-1" cx="23.284" cy="14.51" r="7.918"/><path class="cls-2" d="M38.365,22.431l-2.758-1.1a.532.532,0,0,0-.4,0L24.5,25.612a3.277,3.277,0,0,1-2.427,0L11.361,21.328a.535.535,0,0,0-.4,0L8.2,22.431a.539.539,0,0,0,0,1l14.475,5.79a1.64,1.64,0,0,0,1.213,0l14.475-5.79A.539.539,0,0,0,38.365,22.431Z"/><path class="cls-2" d="M38.365,17.3l-3.047-1.219a.545.545,0,0,0-.4,0l-6.208,2.483L24.5,20.254a3.277,3.277,0,0,1-2.427,0l-4.212-1.686L11.65,16.085a.542.542,0,0,0-.4,0L8.2,17.3a.539.539,0,0,0,0,1l5.157,2.063L22.677,24.1a1.63,1.63,0,0,0,1.213,0l9.318-3.727,5.157-2.063A.539.539,0,0,0,38.365,17.3Z"/><path class="cls-2" d="M8.2,12.947l3.248,1.3,1.1.44,1.1.44,6.408,2.563,2.62,1.048a1.63,1.63,0,0,0,1.213,0l2.621-1.048,6.408-2.563,1.1-.44,1.1-.44,3.248-1.3a.539.539,0,0,0,0-1L23.89,6.156a1.644,1.644,0,0,0-1.213,0L8.2,11.946A.539.539,0,0,0,8.2,12.947Z"/></svg>