<svg id="Layer_1" data-name="Layer 1" xmlns="http://www.w3.org/2000/svg" viewBox="0 0 35 26.6"><defs><style>.cls-1{fill:#fff;}.cls-2{fill:#cf1f5d;}</style></defs><circle class="cls-1" cx="17.507" cy="10.91" r="5.953"/><path class="cls-2" d="M14.884,1.725A9.951,9.951,0,0,0,7.546,12.3l.007.075c.535,4.97,5.505,9.684,9.147,12.556a1.305,1.305,0,0,0,1.613,0c3.639-2.868,8.609-7.579,9.146-12.553a8.318,8.318,0,0,0,.041-.992A10.013,10.013,0,0,0,14.884,1.725Zm3.55,13.837a4.744,4.744,0,1,1,3.725-3.724A4.748,4.748,0,0,1,18.434,15.562Z"/></svg>