<svg id="Layer_1" data-name="Layer 1" xmlns="http://www.w3.org/2000/svg" viewBox="0 0 46.55 35.378"><defs><style>.cls-1{fill:#fff;}.cls-2{fill:#cf1f5d;}</style></defs><circle class="cls-1" cx="23.284" cy="14.51" r="7.918"/><path class="cls-2" d="M19.8,2.294a13.235,13.235,0,0,0-9.759,14.064l.01.1c.712,6.611,7.322,12.88,12.165,16.7a1.738,1.738,0,0,0,2.146,0C29.2,29.342,35.806,23.076,36.521,16.462a11.093,11.093,0,0,0,.054-1.32A13.318,13.318,0,0,0,19.8,2.294Zm4.723,18.4a6.309,6.309,0,1,1,4.953-4.954A6.316,6.316,0,0,1,24.518,20.7Z"/></svg>