<?xml version="1.0" encoding="utf-8"?>
<!-- Generator: Adobe Illustrator 23.0.6, SVG Export Plug-In . SVG Version: 6.00 Build 0)  -->
<svg version="1.1" id="Layer_1" xmlns="http://www.w3.org/2000/svg" xmlns:xlink="http://www.w3.org/1999/xlink" x="0px" y="0px"
	 viewBox="0 0 100 100" style="enable-background:new 0 0 100 100;" xml:space="preserve">
<style type="text/css">
	.st0{fill:none;stroke:#3B4654;stroke-width:2;stroke-linecap:round;stroke-miterlimit:10;}
	.st1{opacity:0.5;}
	.st2{fill:none;stroke:#2F9EF3;stroke-width:2;stroke-linecap:round;stroke-miterlimit:10;}
	.st3{fill:none;stroke:#9457B5;stroke-width:2;stroke-linecap:round;stroke-miterlimit:10;}
	.st4{fill:none;stroke:#6972EE;stroke-width:2;stroke-linecap:round;stroke-miterlimit:10;}
</style>
<g>
	<line class="st0" x1="94.5" y1="95.9" x2="94.5" y2="4.1"/>
	<g>
		<line class="st0" x1="72.3" y1="95.9" x2="72.3" y2="4.1"/>
	</g>
	<g>
		<line class="st0" x1="50" y1="95.9" x2="50" y2="4.1"/>
	</g>
	<g>
		<line class="st0" x1="5.5" y1="95.9" x2="5.5" y2="4.1"/>
	</g>
	<g>
		<line class="st0" x1="27.7" y1="95.9" x2="27.7" y2="4.1"/>
	</g>
	<g class="st1">
	</g>
</g>
<title>Artboard 6</title>
<g>
	<polyline class="st2" points="3,45.2 5.1,45.2 10,39.6 18.3,39.6 18.3,29.5 26.8,29.5 33.6,21.7 47.8,21.7 51.7,17.3 63.6,30.8 
		67.6,26.2 74.8,26.2 80.4,32.6 80.4,45.7 89.9,45.7 97,38.2 	"/>
	<polyline class="st3" points="3,81.7 5.5,79.3 10.7,79.3 17.1,76.8 25.2,76.8 31,79.1 44.1,73.7 53.4,77.5 65.6,77.5 69.1,76.1 
		73.5,77.9 84.6,73.2 93,76.8 97,74.8 	"/>
	<polyline class="st4" points="3,61.3 15.1,61.3 20.3,59.2 28.7,62.7 39.8,58.1 44.1,59.9 47.4,58.6 60.2,58.6 69.1,62.3 82.3,56.8 
		88.3,59.4 97,59.4 	"/>
</g>
</svg>
