<?xml version="1.0" encoding="utf-8"?>
<!-- Generator: Adobe Illustrator 23.0.6, SVG Export Plug-In . SVG Version: 6.00 Build 0)  -->
<svg version="1.1" id="Layer_1" xmlns="http://www.w3.org/2000/svg" xmlns:xlink="http://www.w3.org/1999/xlink" x="0px" y="0px"
	 viewBox="0 0 610.2 90.1" style="enable-background:new 0 0 610.2 90.1;" xml:space="preserve">
<style type="text/css">
	.st0{fill:none;stroke:#2F9EF3;stroke-miterlimit:10;}
	.st1{fill:none;stroke:#9457B5;stroke-miterlimit:10;}
	.st2{fill:none;stroke:#6972EE;stroke-miterlimit:10;}
	.st3{opacity:0.5;}
	.st4{fill:#3B4654;}
</style>
<title>Artboard 6</title>
<g>
	<polyline class="st0" points="0.1,25.7 12.7,25.7 20.2,31.2 43.6,31.2 43.6,28.5 56,28.5 70.9,39.5 120.6,39.5 120.6,29.4 
		135.4,40.3 148.2,40.3 156.3,34.4 174.1,34.4 182.4,28.2 196.2,28.2 207.1,36.3 211.6,32.9 221,32.9 229.1,26.9 242.6,26.9 
		242.6,16.2 256.5,16.2 267.6,7.9 290.7,7.9 297.1,3.2 316.5,17.6 323,12.7 334.7,12.7 343.8,19.5 343.8,33.4 359.4,33.4 
		370.2,25.4 378.4,31.5 388.6,24 450.7,24 475,42 486.2,33.8 497.8,42.3 512,42.3 520.8,35.8 554.3,60.7 569.8,60.7 578.9,53.8 
		589,61.3 589,22.5 602,12.8 610.2,12.8 	"/>
	<polyline class="st1" points="0,51.5 12.1,51.5 19.1,53.3 27.8,51.1 41.3,54.7 51.3,54.7 57,53.2 69.2,53.2 87.5,58.1 107.4,58.1 
		107.4,63.5 152.5,75.5 191.3,75.5 205.1,71.8 212.5,71.8 221.7,69.3 230.2,69.3 240.7,66.6 253.9,66.6 263.3,69.1 284.7,63.3 
		299.8,67.3 319.7,67.3 325.5,65.8 332.6,67.8 350.7,62.8 364.4,66.6 372.3,64.5 394.1,64.5 420.1,57.6 439.1,62.6 460.6,56.8 
		472.4,56.8 477.1,58.1 488.5,55.1 510,60.8 510,69.5 523.5,73.1 546.1,73.1 546.1,59.7 563.2,55.1 563.2,48.7 584.7,43 591.5,43 
		604.1,39.6 610.2,39.6 	"/>
	<polyline class="st2" points="0,75 5.6,75 18.2,71.7 25,71.7 44.5,66.5 44.5,60.1 61.6,55.5 61.6,41.5 87.2,41.5 102.7,45.6 
		102.7,54.3 121.7,59.3 133.1,56.3 138.2,57.7 149.1,57.7 171.1,51.8 190.1,56.8 215.6,50.1 237.4,50.1 245.8,47.8 259.5,51.6 
		277.6,46.7 284.7,48.6 290,47.2 310.9,47.2 325.5,51.1 346.9,45.3 356.8,48 369,48 379.5,45.3 388,45.3 397.3,42.8 404.6,42.8 
		418.4,39.1 458.2,39.1 505.3,51.7 505.3,56.6 523.2,56.6 541.5,61.3 552.7,61.3 558.4,59.8 569.4,59.8 582.4,63.3 591.1,61.1 
		598.5,63.1 610.2,63.1 	"/>
</g>
<g>
	<g class="st3">
		<rect x="542.9" y="-63.3" class="st4" width="1.7" height="155.1"/>
	</g>
	<g class="st3">
		<rect x="576.6" y="-63.3" class="st4" width="1.7" height="155.1"/>
	</g>
	<g class="st3">
		<rect x="475.4" y="-63.3" class="st4" width="1.7" height="155.1"/>
	</g>
	<g class="st3">
		<rect x="509.1" y="-63.3" class="st4" width="1.7" height="155.1"/>
	</g>
	<g class="st3">
		<rect x="408" y="-63.3" class="st4" width="1.7" height="155.1"/>
	</g>
	<g class="st3">
		<rect x="441.7" y="-63.3" class="st4" width="1.7" height="155.1"/>
	</g>
	<g class="st3">
		<rect x="340.6" y="-63.3" class="st4" width="1.7" height="155.1"/>
	</g>
	<g class="st3">
		<rect x="306.8" y="-63.3" class="st4" width="1.7" height="155.1"/>
	</g>
	<g class="st3">
		<rect x="374.3" y="-63.3" class="st4" width="1.7" height="155.1"/>
	</g>
	<g class="st3">
		<rect x="205.7" y="-63.3" class="st4" width="1.7" height="155.1"/>
	</g>
	<g class="st3">
		<rect x="239.4" y="-63.3" class="st4" width="1.7" height="155.1"/>
	</g>
	<g class="st3">
		<rect x="273.1" y="-63.3" class="st4" width="1.7" height="155.1"/>
	</g>
	<g class="st3">
		<rect x="138.2" y="-63.3" class="st4" width="1.7" height="155.1"/>
	</g>
	<g class="st3">
		<rect x="172" y="-63.3" class="st4" width="1.7" height="155.1"/>
	</g>
	<g class="st3">
		<rect x="70.8" y="-63.3" class="st4" width="1.7" height="155.1"/>
	</g>
	<g class="st3">
		<rect x="37.1" y="-63.3" class="st4" width="1.7" height="155.1"/>
	</g>
	<g class="st3">
		<rect x="104.5" y="-63.3" class="st4" width="1.7" height="155.1"/>
	</g>
</g>
</svg>
