<?xml version="1.0" encoding="utf-8"?>
<!-- Generator: Adobe Illustrator 23.0.6, SVG Export Plug-In . SVG Version: 6.00 Build 0)  -->
<svg version="1.1" id="Layer_1" xmlns="http://www.w3.org/2000/svg" xmlns:xlink="http://www.w3.org/1999/xlink" x="0px" y="0px"
	 viewBox="0 0 100 100" style="enable-background:new 0 0 100 100;" xml:space="preserve">
<style type="text/css">
	.st0{fill:none;stroke:#3B4654;stroke-width:2;stroke-miterlimit:10;}
	.st1{fill:#7BD85D;}
	.st2{fill:#3B4654;}
	.st3{fill:#637085;}
	.st4{fill:#2F9EF3;}
	.st5{fill:#37C4AC;}
</style>
<title>Artboard 5</title>
<g>
	<line class="st0" x1="49.4" y1="10.4" x2="49.4" y2="33.5"/>
	<line class="st0" x1="50.9" y1="89.6" x2="69.1" y2="67.3"/>
	<g>
		<line class="st0" x1="44.2" y1="43.8" x2="36" y2="58"/>
		<line class="st0" x1="63.3" y1="58.3" x2="54.8" y2="43.5"/>
		<line class="st0" x1="58.1" y1="67.2" x2="41" y2="66.9"/>
		<circle class="st1" cx="49.4" cy="34.5" r="11.4"/>
		<circle class="st1" cx="30.9" cy="66.7" r="11.4"/>
		<circle class="st1" cx="69.1" cy="67.3" r="11.4"/>
	</g>
	<g>
		<rect x="23.8" y="4.9" class="st2" width="52.4" height="10.8"/>
		<g>
			<rect x="35.5" y="7.2" class="st3" width="37.8" height="2.1"/>
			<rect x="35.5" y="11.4" class="st4" width="18" height="2.1"/>
			<rect x="26.8" y="7.2" class="st4" width="6.4" height="6.4"/>
		</g>
	</g>
	<g>
		<rect x="23.8" y="84.2" class="st2" width="52.4" height="10.8"/>
		<g>
			<rect x="35.5" y="86.5" class="st3" width="37.8" height="2.1"/>
			<rect x="35.5" y="90.7" class="st5" width="18" height="2.1"/>
			<rect x="26.8" y="86.5" class="st5" width="6.4" height="6.4"/>
		</g>
	</g>
</g>
</svg>
