<?xml version="1.0" encoding="utf-8"?>
<!-- Generator: Adobe Illustrator 23.0.6, SVG Export Plug-In . SVG Version: 6.00 Build 0)  -->
<svg version="1.1" id="Layer_1" xmlns="http://www.w3.org/2000/svg" xmlns:xlink="http://www.w3.org/1999/xlink" x="0px" y="0px"
	 viewBox="0 0 1191.4 906.5" style="enable-background:new 0 0 1191.4 906.5;" xml:space="preserve">
<style type="text/css">
	.st0{fill:none;stroke:#333D48;stroke-width:4;stroke-miterlimit:10;}
	.st1{fill:none;stroke:#51D27A;stroke-width:4;stroke-miterlimit:10;}
	.st2{fill:none;stroke:#FFAA4F;stroke-width:4;stroke-miterlimit:10;}
	.st3{fill:none;stroke:#637085;stroke-width:4;stroke-linecap:round;stroke-miterlimit:10;stroke-dasharray:11.883,17.8247;}
	.st4{fill:#7BD85D;}
	.st5{fill:#FF510F;}
	.st6{fill:#FFFFFF;}
	.st7{enable-background:new    ;}
	.st8{fill:none;stroke:#FFFFFF;stroke-width:4;stroke-miterlimit:10;}
</style>
<title>Artboard 5</title>
<g>
	<path class="st0" d="M847.9,474.9c0,0-160.6-134.6-504.6-155.1"/>
	<path class="st0" d="M355.1,688.7c0,0-86.1-150.3-11.8-368.8"/>
	<path class="st0" d="M343.3,319.8c80.1,197.4,319,465.3,319,465.3"/>
	<path class="st0" d="M847.9,474.9c0,0,18.6,191.3-185.6,310.2"/>
	<path class="st0" d="M662.3,785.1c-239.8,0-312.2-103.9-312.2-103.9"/>
	<path class="st0" d="M847.9,474.9C684.1,607.5,350.2,681.2,350.2,681.2"/>
	<path class="st1" d="M657,151.1c39.1,342.6,8.8,634,8.8,634"/>
	<path class="st2" d="M651.2,153.9c32.4,338.1,7.4,624.6,7.4,624.6"/>
	<path class="st1" d="M658.1,159.3c-58.4,39.9-273.8,381.4-308,521.9"/>
	<path class="st2" d="M658.1,159.3c-50.6,50.6-260.3,389.2-308,521.9"/>
	<path class="st1" d="M817.7,400.8c0,0-18.2-117.6-111.1-204.1"/>
	<path class="st2" d="M807.6,388.3c0,0-31.1-118.9-96.6-170.8"/>
	<path class="st3" d="M581.4,172.6c0,0-112.8,24.1-189.8,114.1"/>
	<path class="st3" d="M573.9,181.9c0,0-117.8,35.2-167.4,102.3"/>
	<circle class="st4" cx="660.9" cy="151.1" r="107.9"/>
	<circle class="st5" cx="343.3" cy="306.5" r="107.9"/>
	<circle class="st4" cx="848.1" cy="462.3" r="107.9"/>
	<path class="st6" d="M690.4,96.6L690.4,96.6c3.2-1.8,4.6-3.7,4.6-5.7v-5.6c0-2.1-1.4-4-4.5-5.6c-3.9-2.1-8.1-3.5-12.5-4.2
		c-5.6-1-11.4-1.4-17.1-1.4c-5.7-0.1-11.5,0.4-17.1,1.4c-4.4,0.7-8.7,2.1-12.6,4.2c-3.1,1.8-4.5,3.5-4.5,5.6v5.6
		c0,2.1,1.4,4,4.5,5.6h0.1v6.2c-1.6-0.7-3.2-1.5-4.6-2.5v7.5c0,2.1,1.4,4,4.5,5.6h0.1v6.2c-1.6-0.8-3.1-1.6-4.6-2.5v7.8
		c0,2,1.4,4,4.5,5.6h0.1v6.5c-1.6-0.7-3.2-1.5-4.6-2.5v7.5c0,2,1.4,4,4.5,5.6c3.9,2.1,8.1,3.5,12.5,4.2c5.6,1,11.4,1.4,17.1,1.4
		c5.7,0.1,11.5-0.4,17.1-1.4c4.3-0.8,8.6-2.2,12.5-4.2c3.1-1.8,4.5-3.5,4.5-5.6v-7.5c-1.4,1-2.9,1.9-4.5,2.5v-6.6
		c2.9-1.7,4.3-3.5,4.3-5.5v-7.5c-1.3,0.9-2.8,1.8-4.3,2.5v-6.2c3.1-1.8,4.5-3.5,4.5-5.6v-7.5c-1.4,1-2.9,1.9-4.5,2.5V96.6
		L690.4,96.6z M668.2,122l-1.5,2.6l-1.8,3.2h-7.7l-1.8-3.2l-3.4-5.9l-1.8-3.2v23.7h-12.3V89.9h12l6.2,12.2l2.9,5.7l2,3.8l2.8-5.5
		l2.1-4l6.2-12.2h12v49.3H672v-23.7L668.2,122L668.2,122z"/>
	<path class="st6" d="M372.9,255.4L372.9,255.4c3.2-1.8,4.6-3.7,4.6-5.7V244c0-2.1-1.4-4-4.5-5.6c-3.9-2.1-8.1-3.5-12.5-4.2
		c-5.6-1-11.4-1.4-17.1-1.4c-5.7-0.1-11.5,0.4-17.1,1.4c-4.4,0.7-8.7,2.1-12.6,4.2c-3.1,1.8-4.5,3.5-4.5,5.6v5.6
		c0,2.1,1.4,4,4.5,5.6h0.1v6.2c-1.6-0.7-3.2-1.5-4.6-2.5v7.5c0,2.1,1.4,4,4.5,5.6h0.1v6.2c-1.6-0.8-3.1-1.6-4.6-2.5v7.8
		c0,2,1.4,4,4.5,5.6h0.1v6.5c-1.6-0.7-3.2-1.5-4.6-2.5v7.5c0,2,1.4,4,4.5,5.6c3.9,2.1,8.1,3.5,12.5,4.2c5.6,1,11.4,1.4,17.1,1.4
		c5.7,0.1,11.5-0.4,17.1-1.4c4.3-0.8,8.6-2.2,12.5-4.2c3.1-1.8,4.5-3.5,4.5-5.6v-7.5c-1.4,1-2.9,1.9-4.5,2.5v-6.6
		c2.9-1.7,4.3-3.5,4.3-5.5v-7.5c-1.3,0.9-2.8,1.8-4.3,2.5v-6.4c3.1-1.8,4.5-3.5,4.5-5.6v-7.5c-1.4,1-2.9,1.9-4.5,2.5V255.4
		L372.9,255.4z M350.7,280.7l-1.5,2.6l-1.8,3.2h-7.7l-1.8-3.2l-3.4-5.9l-1.8-3.2v23.7h-12.3v-49.3h12l6.2,12.2l2.9,5.7l2,3.8
		l2.8-5.5l2.1-4l6.2-12.2h12v49.3h-12.1v-23.7L350.7,280.7L350.7,280.7z"/>
	<path class="st6" d="M877.5,410.8L877.5,410.8c3.2-1.8,4.6-3.7,4.6-5.7v-5.6c0-2.1-1.4-4-4.5-5.6c-3.9-2.1-8.1-3.5-12.5-4.2
		c-5.6-1-11.4-1.4-17.1-1.4c-5.7-0.1-11.5,0.4-17.1,1.4c-4.4,0.7-8.7,2.1-12.6,4.2c-3.1,1.8-4.5,3.5-4.5,5.6v5.6
		c0,2.1,1.4,4,4.5,5.6h0.1v6.2c-1.6-0.7-3.2-1.5-4.6-2.5v7.5c0,2.1,1.4,4,4.5,5.6h0.1v6.2c-1.6-0.8-3.1-1.6-4.6-2.5v7.8
		c0,2,1.4,4,4.5,5.6h0.1v6.5c-1.6-0.7-3.2-1.5-4.6-2.5v7.5c0,2,1.4,4,4.5,5.6c3.9,2.1,8.1,3.5,12.5,4.2c5.6,1,11.4,1.4,17.1,1.4
		c5.7,0.1,11.5-0.4,17.1-1.4c4.3-0.8,8.6-2.2,12.5-4.2c3.1-1.8,4.5-3.5,4.5-5.6v-7.5c-1.4,1-2.9,1.9-4.5,2.5v-6.6
		c2.9-1.7,4.3-3.5,4.3-5.5v-7.5c-1.3,0.9-2.8,1.8-4.3,2.5V428c3.1-1.8,4.5-3.5,4.5-5.6v-7.5c-1.4,1-2.9,1.9-4.5,2.5V410.8
		L877.5,410.8z M855.4,436.1l-1.5,2.6l-1.8,3.2h-7.7l-1.8-3.2l-3.4-5.9l-1.8-3.2v23.7h-12.3V404h12l6.2,12.2l2.9,5.7l2,3.8l2.8-5.5
		l2.1-4l6.2-12.2h12v49.3h-12.1v-23.7L855.4,436.1L855.4,436.1z"/>
	<g class="st7">
		<path d="M366.1,375.6h-7.3c-0.8,0-1.5-0.2-2-0.6c-0.5-0.4-0.9-0.8-1.1-1.5l-3.1-8.8h-18.3l-3.1,8.8c-0.2,0.6-0.6,1-1.1,1.4
			c-0.6,0.5-1.2,0.7-2,0.7h-7.4l17.9-45.9h9.7L366.1,375.6z M350.2,358.2l-5-14c-0.3-0.8-0.6-1.6-0.9-2.6c-0.3-1-0.7-2.1-0.9-3.2
			c-0.3,1.2-0.6,2.3-0.9,3.3c-0.3,1-0.7,1.9-0.9,2.6l-4.9,13.9L350.2,358.2L350.2,358.2z"/>
	</g>
	<circle class="st4" cx="350.2" cy="665.4" r="107.9"/>
	<path class="st6" d="M379.8,614.3L379.8,614.3c3.2-1.8,4.6-3.7,4.6-5.7v-5.6c0-2.1-1.4-4-4.5-5.6c-3.9-2.1-8.1-3.5-12.5-4.2
		c-5.6-1-11.4-1.4-17.1-1.4c-5.7-0.1-11.5,0.4-17.1,1.4c-4.4,0.7-8.7,2.1-12.6,4.2c-3.1,1.8-4.5,3.5-4.5,5.6v5.6
		c0,2.1,1.4,4,4.5,5.6h0.1v6.2c-1.6-0.7-3.2-1.5-4.6-2.5v7.5c0,2.1,1.4,4,4.5,5.6h0.1v6.2c-1.6-0.8-3.1-1.6-4.6-2.5v7.8
		c0,2,1.4,4,4.5,5.6h0.1v6.5c-1.6-0.7-3.2-1.5-4.6-2.5v7.5c0,2,1.4,4,4.5,5.6c3.9,2.1,8.1,3.5,12.5,4.2c5.6,1,11.4,1.4,17.1,1.4
		c5.7,0.1,11.5-0.4,17.1-1.4c4.3-0.8,8.6-2.2,12.5-4.2c3.1-1.8,4.5-3.5,4.5-5.6v-7.5c-1.4,1-2.9,1.9-4.5,2.5v-6.6
		c2.9-1.7,4.3-3.5,4.3-5.5v-7.5c-1.3,0.9-2.8,1.8-4.3,2.5v-6.4c3.1-1.8,4.5-3.5,4.5-5.6v-7.5c-1.4,1-2.9,1.9-4.5,2.5V614.3
		L379.8,614.3z M357.5,639.6l-1.5,2.6l-1.8,3.2h-7.7l-1.8-3.2l-3.4-5.9l-1.8-3.2v23.7h-12.3v-49.3h12l6.2,12.2l2.9,5.7l2,3.8
		l2.8-5.5l2.1-4l6.2-12.2h12v49.3h-12.1v-23.7L357.5,639.6L357.5,639.6z"/>
	<circle class="st4" cx="660.8" cy="773.3" r="107.9"/>
	<path class="st6" d="M690.3,722.2L690.3,722.2c3.2-1.8,4.6-3.7,4.6-5.7v-5.6c0-2.1-1.4-4-4.5-5.6c-3.9-2.1-8.1-3.5-12.5-4.2
		c-5.6-1-11.4-1.4-17.1-1.4c-5.7-0.1-11.5,0.4-17.1,1.4c-4.4,0.7-8.7,2.1-12.6,4.2c-3.1,1.8-4.5,3.5-4.5,5.6v5.6
		c0,2.1,1.4,4,4.5,5.6h0.1v6.2c-1.6-0.7-3.2-1.5-4.6-2.5v7.5c0,2.1,1.4,4,4.5,5.6h0.1v6.2c-1.6-0.8-3.1-1.6-4.6-2.5v7.8
		c0,2,1.4,4,4.5,5.6h0.1v6.5c-1.6-0.7-3.2-1.5-4.6-2.5v7.5c0,2,1.4,4,4.5,5.6c3.9,2.1,8.1,3.5,12.5,4.2c5.6,1,11.4,1.4,17.1,1.4
		c5.7,0.1,11.5-0.4,17.1-1.4c4.3-0.8,8.6-2.2,12.5-4.2c3.1-1.8,4.5-3.5,4.5-5.6V760c-1.4,1-2.9,1.9-4.5,2.5V756
		c2.9-1.7,4.3-3.5,4.3-5.5V743c-1.3,0.9-2.8,1.8-4.3,2.5v-6.4c3.1-1.8,4.5-3.5,4.5-5.6V726c-1.4,1-2.9,1.9-4.5,2.5V722.2
		L690.3,722.2z M668.1,747.5l-1.5,2.6l-1.8,3.2h-7.7l-1.8-3.2l-3.4-5.9l-1.8-3.2v23.7h-12.3v-49.3h12l6.2,12.2l2.9,5.7l2,3.8
		l2.8-5.5l2.1-4l6.2-12.2h12v49.3h-12.1V741L668.1,747.5L668.1,747.5z"/>
	<g class="st7">
		<path d="M863.2,518.8c0.6,0,0.9,0.2,1.3,0.6l3.8,4c-1.9,2.4-4.1,4.1-6.9,5.4c-2.7,1.2-6,1.8-9.8,1.8c-3.5,0-6.5-0.6-9.2-1.8
			c-2.7-1.1-5.1-2.8-7-4.9c-1.9-2.1-3.4-4.5-4.4-7.4c-1-2.8-1.5-6-1.5-9.4c0-2.3,0.3-4.4,0.8-6.5s1.2-4,2.2-5.6
			c0.9-1.7,2.1-3.3,3.4-4.7c1.3-1.4,2.8-2.5,4.5-3.6c1.7-0.9,3.5-1.7,5.6-2.3c2-0.5,4.1-0.8,6.4-0.8c1.7,0,3.3,0.2,4.8,0.5
			c1.5,0.3,2.9,0.8,4.2,1.2c1.3,0.5,2.5,1.1,3.6,1.9c1,0.8,2.1,1.6,3,2.4l-3.2,4.3c-0.2,0.3-0.5,0.5-0.8,0.8
			c-0.3,0.2-0.7,0.3-1.2,0.3s-1-0.2-1.5-0.6c-0.5-0.4-1.1-0.8-1.9-1.2c-0.8-0.5-1.7-0.8-2.8-1.2c-1.1-0.4-2.5-0.6-4.3-0.6
			c-1.9,0-3.7,0.4-5.3,1c-1.6,0.7-3,1.7-4.1,3c-1.1,1.3-2.1,2.9-2.6,4.9s-0.9,4.1-0.9,6.6c0,2.4,0.4,4.7,1,6.6
			c0.7,1.9,1.6,3.6,2.8,4.9s2.5,2.4,4.1,3c1.6,0.7,3.3,1,5.1,1c1,0,2.1-0.1,2.9-0.2c0.8-0.1,1.7-0.3,2.4-0.6
			c0.8-0.3,1.4-0.6,2.2-0.9c0.7-0.4,1.3-0.9,2-1.5c0.2-0.2,0.5-0.4,0.8-0.5C862.7,518.9,862.9,518.8,863.2,518.8z"/>
	</g>
	<g class="st7">
		<path d="M661,171.3c3.1,0,5.7,0.3,7.9,0.8c2.2,0.6,4,1.4,5.4,2.4c1.4,1,2.4,2.4,3,3.9c0.7,1.5,0.9,3.2,0.9,5.1c0,1-0.2,2.1-0.5,3
			c-0.3,0.9-0.8,1.9-1.4,2.7s-1.5,1.6-2.4,2.4c-1,0.7-2.3,1.3-3.6,1.8c3.1,0.8,5.5,2,7,3.6c1.5,1.7,2.3,3.9,2.3,6.5
			c0,2-0.4,3.8-1.1,5.4c-0.8,1.7-1.9,3.1-3.3,4.3c-1.4,1.2-3.2,2.2-5.3,2.8c-2.1,0.7-4.5,1-7.2,1h-17.8v-45.9L661,171.3L661,171.3z
			 M654.2,178.5V191h6.2c1.3,0,2.5-0.1,3.6-0.4c1-0.2,1.9-0.6,2.6-1c0.7-0.5,1.2-1.1,1.6-1.9s0.6-1.8,0.6-2.8c0-1.1-0.2-2.1-0.5-2.9
			c-0.3-0.8-0.8-1.4-1.4-1.9c-0.7-0.5-1.4-0.8-2.4-1c-0.9-0.2-2.2-0.4-3.5-0.4L654.2,178.5L654.2,178.5L654.2,178.5z M662.3,209.9
			c1.5,0,2.7-0.2,3.8-0.6c0.9-0.4,1.8-0.8,2.4-1.5c0.6-0.6,1-1.3,1.2-2.1c0.2-0.8,0.4-1.6,0.4-2.4c0-0.9-0.1-1.8-0.4-2.5
			c-0.3-0.8-0.8-1.3-1.3-1.9c-0.6-0.5-1.4-0.9-2.4-1.2s-2.2-0.4-3.6-0.4h-8.1v12.5L662.3,209.9L662.3,209.9z"/>
	</g>
	<g>
		<path class="st6" d="M817.4,238c0.9,0,1.8,0.1,2.4,0.3c0.7,0.2,1.3,0.5,1.7,0.9c0.4,0.4,0.8,0.8,1.1,1.5c0.2,0.5,0.3,1.2,0.3,1.9
			c0,0.7-0.1,1.4-0.3,1.9c-0.2,0.5-0.6,1.1-1.1,1.5s-1.1,0.7-1.7,0.9c-0.7,0.2-1.5,0.3-2.3,0.3H815v5.6h-2v-14.7L817.4,238
			L817.4,238z M817.4,245.7c0.5,0,1.1-0.1,1.5-0.2c0.4-0.1,0.8-0.3,1.1-0.6c0.3-0.3,0.5-0.6,0.6-0.9c0.1-0.4,0.2-0.8,0.2-1.3
			c0-0.9-0.3-1.7-0.8-2.2c-0.6-0.5-1.5-0.8-2.6-0.8h-2.4v6.1L817.4,245.7L817.4,245.7z"/>
		<path class="st6" d="M829.5,252.9h-2v-14.7h2V252.9z"/>
		<path class="st6" d="M847.2,238v14.7h-1.1c-0.2,0-0.3,0-0.4-0.1c-0.1-0.1-0.2-0.1-0.3-0.3l-8.5-11.1c0,0.2,0,0.3,0,0.5
			s0,0.3,0,0.4v10.5h-1.8v-14.7h1.1c0.1,0,0.2,0,0.2,0c0.1,0,0.1,0,0.2,0l0.1,0.1c0,0,0.1,0.1,0.1,0.2l8.5,11.1c0-0.2,0-0.3,0-0.5
			s0-0.3,0-0.5v-10.4L847.2,238L847.2,238z"/>
		<path class="st6" d="M865.1,245.7v5.7c-0.7,0.5-1.6,0.9-2.4,1.2c-0.8,0.3-1.8,0.4-2.7,0.4c-1.2,0-2.2-0.2-3.3-0.5
			c-0.9-0.3-1.8-0.8-2.4-1.6c-0.6-0.6-1.2-1.5-1.6-2.4c-0.3-0.9-0.5-2-0.5-3c0-1.2,0.2-2.1,0.5-3c0.3-0.9,0.8-1.7,1.5-2.4
			c0.6-0.6,1.5-1.2,2.4-1.6c0.9-0.3,2-0.5,3.2-0.5c0.6,0,1.2,0,1.6,0.1c0.5,0.1,0.9,0.2,1.4,0.4c0.4,0.2,0.8,0.3,1.2,0.6
			c0.3,0.2,0.7,0.5,1.1,0.7l-0.5,0.9c-0.1,0.1-0.2,0.2-0.3,0.3c-0.1,0-0.3,0-0.4-0.1c-0.2-0.1-0.3-0.2-0.5-0.3
			c-0.2-0.1-0.4-0.3-0.7-0.4c-0.3-0.1-0.6-0.2-1.1-0.3c-0.4-0.1-0.9-0.1-1.5-0.1c-0.8,0-1.6,0.1-2.2,0.4c-0.6,0.3-1.3,0.6-1.7,1.2
			c-0.5,0.5-0.8,1.2-1.1,1.8c-0.2,0.7-0.4,1.5-0.4,2.4c0,0.9,0.1,1.8,0.4,2.5c0.3,0.7,0.6,1.4,1.2,1.9c0.5,0.5,1.1,0.9,1.8,1.2
			c0.7,0.2,1.5,0.4,2.3,0.4c0.7,0,1.3-0.1,1.8-0.2c0.5-0.1,1.1-0.4,1.6-0.6v-3.3H861c-0.1,0-0.2,0-0.3-0.1c-0.1-0.1-0.1-0.2-0.1-0.3
			v-1.3H865.1z"/>
		<path class="st6" d="M816.8,282.2v2.4h-10.6v-2.4h3.9v-11.1c0-0.4,0-0.9,0-1.4l-2.7,2.3c-0.2,0.1-0.3,0.2-0.4,0.2s-0.3,0-0.4,0
			s-0.2-0.1-0.3-0.1c-0.1-0.1-0.2-0.1-0.2-0.2l-1.1-1.5l5.9-4.9h2.7v16.7L816.8,282.2L816.8,282.2z"/>
		<path class="st6" d="M823.9,272.4c0.4-0.1,0.8-0.1,1.3-0.2c0.4,0,0.7-0.1,1.2-0.1c1.1,0,1.9,0.1,2.6,0.4c0.7,0.3,1.4,0.7,1.9,1.3
			c0.5,0.5,0.9,1.2,1.2,1.9c0.3,0.7,0.4,1.5,0.4,2.3c0,1.1-0.2,2-0.5,2.8c-0.3,0.8-0.8,1.6-1.5,2.2c-0.6,0.6-1.4,1.1-2.3,1.4
			c-0.8,0.3-1.8,0.5-2.8,0.5c-0.6,0-1.2-0.1-1.7-0.2s-1.1-0.3-1.5-0.5c-0.4-0.2-0.9-0.4-1.4-0.7c-0.4-0.3-0.7-0.5-1.1-0.8l1.1-1.4
			c0.2-0.3,0.5-0.4,0.8-0.4c0.2,0,0.4,0.1,0.6,0.2c0.2,0.1,0.5,0.3,0.8,0.4c0.3,0.2,0.6,0.3,1.1,0.4c0.4,0.1,0.8,0.2,1.5,0.2
			s1.2-0.1,1.6-0.3s0.8-0.4,1.2-0.8c0.3-0.4,0.5-0.7,0.7-1.3c0.1-0.5,0.2-1.1,0.2-1.6c0-1.1-0.3-1.9-0.9-2.4
			c-0.6-0.6-1.5-0.8-2.7-0.8c-0.9,0-1.9,0.2-2.8,0.5l-2-0.6l1.6-9.4h9.5v1.4c0,0.4-0.1,0.8-0.4,1.2c-0.3,0.3-0.7,0.4-1.5,0.4h-5.3
			L823.9,272.4z"/>
		<path class="st6" d="M842,284.7v-13.7h2c0.4,0,0.7,0.2,0.8,0.6l0.2,1.1c0.2-0.3,0.5-0.5,0.7-0.7c0.2-0.2,0.5-0.4,0.8-0.5
			c0.3-0.2,0.6-0.3,0.9-0.4s0.7-0.1,1.2-0.1c0.8,0,1.6,0.2,2.1,0.7c0.5,0.4,0.9,1.1,1.3,1.9c0.2-0.4,0.5-0.8,0.8-1.2
			c0.3-0.3,0.6-0.6,1.1-0.8s0.7-0.3,1.3-0.4c0.4-0.1,0.8-0.1,1.3-0.1c0.7,0,1.5,0.1,2,0.3c0.6,0.2,1.1,0.5,1.5,1.1
			c0.4,0.4,0.7,0.9,0.9,1.6c0.2,0.6,0.3,1.4,0.3,2.2v8.6h-3.4v-8.6c0-0.8-0.2-1.5-0.5-2c-0.3-0.5-0.9-0.6-1.7-0.6
			c-0.3,0-0.6,0.1-0.9,0.2c-0.3,0.1-0.5,0.3-0.7,0.5c-0.2,0.2-0.4,0.5-0.5,0.8s-0.2,0.7-0.2,1.2v8.6H850v-8.6c0-0.9-0.2-1.6-0.5-2
			s-0.9-0.6-1.6-0.6c-0.5,0-0.9,0.1-1.4,0.3c-0.4,0.2-0.8,0.5-1.2,0.9v10H842L842,284.7L842,284.7z"/>
		<path class="st6" d="M872.6,273.7c-0.1,0.1-0.2,0.2-0.3,0.3c-0.1,0.1-0.2,0.1-0.4,0.1s-0.3,0-0.5-0.1s-0.4-0.2-0.6-0.3
			c-0.2-0.1-0.5-0.2-0.8-0.3c-0.3-0.1-0.6-0.1-1.1-0.1c-0.6,0-1.2,0.1-1.5,0.4c-0.3,0.3-0.5,0.6-0.5,1.1c0,0.3,0.1,0.5,0.3,0.7
			c0.2,0.2,0.4,0.4,0.7,0.5s0.6,0.3,1.1,0.4s0.8,0.2,1.3,0.4c0.4,0.1,0.8,0.3,1.3,0.5c0.4,0.2,0.7,0.4,1.1,0.7s0.5,0.6,0.7,1.1
			s0.3,0.8,0.3,1.4c0,0.6-0.1,1.3-0.3,1.8c-0.2,0.5-0.6,1.1-1.1,1.5s-1.1,0.7-1.7,0.9c-0.6,0.2-1.5,0.3-2.3,0.3
			c-0.4,0-0.9,0-1.4-0.1c-0.4-0.1-0.8-0.2-1.3-0.3c-0.4-0.1-0.8-0.3-1.2-0.5c-0.3-0.2-0.6-0.4-0.9-0.6l0.7-1.3
			c0.1-0.1,0.2-0.3,0.3-0.3c0.1-0.1,0.3-0.1,0.5-0.1s0.4,0.1,0.5,0.2c0.2,0.1,0.4,0.2,0.6,0.4c0.2,0.1,0.5,0.2,0.8,0.4
			c0.3,0.1,0.7,0.2,1.3,0.2c0.4,0,0.7,0,1.1-0.1s0.5-0.2,0.7-0.3c0.2-0.1,0.3-0.3,0.4-0.5c0.1-0.2,0.1-0.4,0.1-0.6
			c0-0.3-0.1-0.6-0.3-0.7c-0.2-0.2-0.4-0.4-0.7-0.5c-0.3-0.1-0.6-0.3-1.1-0.4c-0.4-0.1-0.8-0.2-1.3-0.4c-0.4-0.1-0.8-0.3-1.3-0.5
			c-0.4-0.2-0.7-0.4-1.1-0.7c-0.3-0.3-0.5-0.6-0.7-1.1c-0.2-0.4-0.3-0.9-0.3-1.6c0-0.5,0.1-1.1,0.3-1.6c0.2-0.5,0.5-0.9,0.9-1.4
			c0.4-0.4,0.9-0.6,1.6-0.9c0.6-0.2,1.4-0.3,2.2-0.3c0.9,0,1.8,0.1,2.5,0.4c0.7,0.3,1.4,0.7,1.9,1.3L872.6,273.7z"/>
	</g>
	<g>
		<path class="st6" d="M604.6,437.9c0.9,0,1.8,0.1,2.4,0.3c0.7,0.2,1.3,0.5,1.7,0.9s0.8,0.8,1.1,1.5c0.2,0.5,0.3,1.2,0.3,1.9
			c0,0.7-0.1,1.4-0.3,1.9s-0.6,1.1-1.1,1.5s-1.1,0.7-1.7,0.9c-0.7,0.2-1.5,0.3-2.3,0.3h-2.4v5.6h-2V438L604.6,437.9L604.6,437.9z
			 M604.6,445.6c0.5,0,1.1-0.1,1.5-0.2c0.4-0.1,0.8-0.3,1.1-0.6c0.3-0.3,0.5-0.6,0.6-0.9c0.1-0.4,0.2-0.8,0.2-1.3
			c0-0.9-0.3-1.7-0.8-2.2c-0.6-0.5-1.5-0.8-2.6-0.8h-2.4v6.1L604.6,445.6L604.6,445.6z"/>
		<path class="st6" d="M616.7,452.7h-2V438h2V452.7z"/>
		<path class="st6" d="M634.5,437.9v14.7h-1.1c-0.2,0-0.3,0-0.4-0.1c-0.1-0.1-0.2-0.1-0.3-0.3l-8.5-11.1c0,0.2,0,0.3,0,0.5
			c0,0.2,0,0.3,0,0.4v10.5h-1.8v-14.7h1.1c0.1,0,0.2,0,0.2,0c0.1,0,0.1,0,0.2,0l0.1,0.1c0,0,0.1,0.1,0.1,0.2l8.5,11.1
			c0-0.2,0-0.3,0-0.5c0-0.2,0-0.3,0-0.5v-10.4L634.5,437.9L634.5,437.9z"/>
		<path class="st6" d="M652.4,445.6v5.7c-0.7,0.5-1.6,0.9-2.4,1.2c-0.8,0.3-1.8,0.4-2.7,0.4c-1.2,0-2.2-0.2-3.3-0.5
			c-0.9-0.3-1.8-0.8-2.4-1.6c-0.6-0.6-1.2-1.5-1.6-2.4c-0.3-0.9-0.5-2-0.5-3c0-1.2,0.2-2.1,0.5-3s0.8-1.7,1.5-2.4
			c0.6-0.6,1.5-1.2,2.4-1.6c0.9-0.3,2-0.5,3.2-0.5c0.6,0,1.2,0,1.6,0.1c0.5,0.1,0.9,0.2,1.4,0.4s0.8,0.3,1.2,0.6
			c0.3,0.2,0.7,0.5,1.1,0.7l-0.5,0.9c-0.1,0.1-0.2,0.2-0.3,0.3c-0.1,0-0.3,0-0.4-0.1c-0.2-0.1-0.3-0.2-0.5-0.3
			c-0.2-0.1-0.4-0.3-0.7-0.4s-0.6-0.2-1.1-0.3c-0.4-0.1-0.9-0.1-1.5-0.1c-0.8,0-1.6,0.1-2.2,0.4c-0.6,0.3-1.3,0.6-1.7,1.2
			c-0.5,0.5-0.8,1.2-1.1,1.8c-0.2,0.7-0.4,1.5-0.4,2.4c0,0.9,0.1,1.8,0.4,2.5c0.3,0.7,0.6,1.4,1.2,1.9s1.1,0.9,1.8,1.2
			c0.7,0.2,1.5,0.4,2.3,0.4c0.7,0,1.3-0.1,1.8-0.2s1.1-0.4,1.6-0.6v-3.3h-2.5c-0.1,0-0.2,0-0.3-0.1c-0.1-0.1-0.1-0.2-0.1-0.3v-1.3
			H652.4z"/>
		<path class="st6" d="M604.1,482.1v2.4h-10.6v-2.4h3.9v-11.1c0-0.4,0-0.9,0-1.4l-2.7,2.3c-0.2,0.1-0.3,0.2-0.4,0.2
			c-0.1,0-0.3,0-0.4,0c-0.1,0-0.2-0.1-0.3-0.1c-0.1-0.1-0.2-0.1-0.2-0.2l-1.1-1.5l5.9-4.9h2.7v16.7L604.1,482.1L604.1,482.1z"/>
		<path class="st6" d="M611.1,472.3c0.4-0.1,0.8-0.1,1.3-0.2c0.4,0,0.7-0.1,1.2-0.1c1.1,0,1.9,0.1,2.6,0.4s1.4,0.7,1.9,1.3
			s0.9,1.2,1.2,1.9c0.3,0.7,0.4,1.5,0.4,2.3c0,1.1-0.2,2-0.5,2.8c-0.3,0.8-0.8,1.6-1.5,2.2c-0.6,0.6-1.4,1.1-2.3,1.4
			c-0.8,0.3-1.8,0.5-2.8,0.5c-0.6,0-1.2-0.1-1.7-0.2c-0.5-0.1-1.1-0.3-1.5-0.5c-0.4-0.2-0.9-0.4-1.4-0.7c-0.4-0.3-0.7-0.5-1.1-0.8
			l1.1-1.4c0.2-0.3,0.5-0.4,0.8-0.4c0.2,0,0.4,0.1,0.6,0.2s0.5,0.3,0.8,0.4c0.3,0.2,0.6,0.3,1.1,0.4s0.8,0.2,1.5,0.2
			c0.6,0,1.2-0.1,1.6-0.3c0.4-0.2,0.8-0.4,1.2-0.8s0.5-0.7,0.7-1.3c0.1-0.5,0.2-1.1,0.2-1.6c0-1.1-0.3-1.9-0.9-2.4
			c-0.6-0.6-1.5-0.8-2.7-0.8c-0.9,0-1.9,0.2-2.8,0.5l-2-0.6l1.6-9.4h9.5v1.4c0,0.4-0.1,0.8-0.4,1.2c-0.3,0.3-0.7,0.4-1.5,0.4h-5.3
			L611.1,472.3z"/>
		<path class="st6" d="M629.2,484.6v-13.7h2c0.4,0,0.7,0.2,0.8,0.6l0.2,1.1c0.2-0.3,0.5-0.5,0.7-0.7c0.2-0.2,0.5-0.4,0.8-0.5
			c0.3-0.2,0.6-0.3,0.9-0.4c0.3-0.1,0.7-0.1,1.2-0.1c0.8,0,1.6,0.2,2.1,0.7c0.5,0.4,0.9,1.1,1.3,1.9c0.2-0.4,0.5-0.8,0.8-1.2
			c0.3-0.3,0.6-0.6,1.1-0.8c0.4-0.2,0.7-0.3,1.3-0.4c0.4-0.1,0.8-0.1,1.3-0.1c0.7,0,1.5,0.1,2,0.3c0.6,0.2,1.1,0.5,1.5,1.1
			c0.4,0.4,0.7,0.9,0.9,1.6c0.2,0.6,0.3,1.4,0.3,2.2v8.6h-3.4v-8.6c0-0.8-0.2-1.5-0.5-2c-0.3-0.5-0.9-0.6-1.7-0.6
			c-0.3,0-0.6,0.1-0.9,0.2s-0.5,0.3-0.7,0.5c-0.2,0.2-0.4,0.5-0.5,0.8c-0.1,0.3-0.2,0.7-0.2,1.2v8.6h-3.3v-8.6c0-0.9-0.2-1.6-0.5-2
			s-0.9-0.6-1.6-0.6c-0.5,0-0.9,0.1-1.4,0.3c-0.4,0.2-0.8,0.5-1.2,0.9v10h-3.4V484.6L629.2,484.6z"/>
		<path class="st6" d="M659.8,473.6c-0.1,0.1-0.2,0.2-0.3,0.3c-0.1,0.1-0.2,0.1-0.4,0.1s-0.3,0-0.5-0.1c-0.2-0.1-0.4-0.2-0.6-0.3
			c-0.2-0.1-0.5-0.2-0.8-0.3c-0.3-0.1-0.6-0.1-1.1-0.1c-0.6,0-1.2,0.1-1.5,0.4c-0.3,0.3-0.5,0.6-0.5,1.1c0,0.3,0.1,0.5,0.3,0.7
			c0.2,0.2,0.4,0.4,0.7,0.5s0.6,0.3,1.1,0.4s0.8,0.2,1.3,0.4c0.4,0.1,0.8,0.3,1.3,0.5c0.4,0.2,0.7,0.4,1.1,0.7s0.5,0.6,0.7,1.1
			c0.2,0.4,0.3,0.8,0.3,1.4c0,0.6-0.1,1.3-0.3,1.8s-0.6,1.1-1.1,1.5s-1.1,0.7-1.7,0.9c-0.6,0.2-1.5,0.3-2.3,0.3
			c-0.4,0-0.9,0-1.4-0.1s-0.8-0.2-1.3-0.3c-0.4-0.1-0.8-0.3-1.2-0.5c-0.3-0.2-0.6-0.4-0.9-0.6l0.7-1.3c0.1-0.1,0.2-0.3,0.3-0.3
			c0.1-0.1,0.3-0.1,0.5-0.1s0.4,0.1,0.5,0.2c0.2,0.1,0.4,0.2,0.6,0.4c0.2,0.1,0.5,0.2,0.8,0.4c0.3,0.1,0.7,0.2,1.3,0.2
			c0.4,0,0.7,0,1.1-0.1s0.5-0.2,0.7-0.3c0.2-0.1,0.3-0.3,0.4-0.5c0.1-0.2,0.1-0.4,0.1-0.6c0-0.3-0.1-0.6-0.3-0.7
			c-0.2-0.2-0.4-0.4-0.7-0.5c-0.3-0.1-0.6-0.3-1.1-0.4s-0.8-0.2-1.3-0.4c-0.4-0.1-0.8-0.3-1.3-0.5c-0.4-0.2-0.7-0.4-1.1-0.7
			s-0.5-0.6-0.7-1.1c-0.2-0.4-0.3-0.9-0.3-1.6c0-0.5,0.1-1.1,0.3-1.6s0.5-0.9,0.9-1.4s0.9-0.6,1.6-0.9c0.6-0.2,1.4-0.3,2.2-0.3
			c0.9,0,1.8,0.1,2.5,0.4c0.7,0.3,1.4,0.7,1.9,1.3L659.8,473.6z"/>
	</g>
	<g>
		<path class="st6" d="M496.4,430.2c0.9,0,1.8,0.1,2.4,0.3c0.7,0.2,1.3,0.5,1.7,0.9c0.4,0.4,0.8,0.8,1.1,1.5
			c0.2,0.5,0.3,1.2,0.3,1.9c0,0.7-0.1,1.4-0.3,1.9c-0.2,0.5-0.6,1.1-1.1,1.5s-1.1,0.7-1.7,0.9c-0.7,0.2-1.5,0.3-2.3,0.3h-2.4v5.6h-2
			v-14.7L496.4,430.2L496.4,430.2z M496.4,437.9c0.5,0,1.1-0.1,1.5-0.2s0.8-0.3,1.1-0.6c0.3-0.3,0.5-0.6,0.6-0.9
			c0.1-0.4,0.2-0.8,0.2-1.3c0-0.9-0.3-1.7-0.8-2.2c-0.6-0.5-1.5-0.8-2.6-0.8h-2.4v6.1L496.4,437.9L496.4,437.9z"/>
		<path class="st6" d="M508.5,445h-2v-14.7h2V445z"/>
		<path class="st6" d="M526.3,430.2v14.7h-1.1c-0.2,0-0.3,0-0.4-0.1c-0.1-0.1-0.2-0.1-0.3-0.3l-8.5-11.1c0,0.2,0,0.3,0,0.5
			c0,0.2,0,0.3,0,0.4v10.5h-1.7v-14.7h1.1c0.1,0,0.2,0,0.2,0c0.1,0,0.1,0,0.2,0l0.1,0.1c0,0,0.1,0.1,0.1,0.2l8.5,11.1
			c0-0.2,0-0.3,0-0.5c0-0.2,0-0.3,0-0.5v-10.4L526.3,430.2L526.3,430.2z"/>
		<path class="st6" d="M544.1,437.9v5.7c-0.7,0.5-1.6,0.9-2.4,1.2c-0.8,0.3-1.8,0.4-2.7,0.4c-1.2,0-2.2-0.2-3.3-0.5
			c-0.9-0.3-1.8-0.8-2.4-1.6c-0.6-0.6-1.2-1.5-1.6-2.4c-0.3-0.9-0.5-2-0.5-3c0-1.2,0.2-2.1,0.5-3c0.3-0.9,0.8-1.7,1.5-2.4
			c0.6-0.6,1.5-1.2,2.4-1.6c0.9-0.3,2-0.5,3.2-0.5c0.6,0,1.2,0,1.6,0.1c0.5,0.1,0.9,0.2,1.4,0.4c0.4,0.2,0.8,0.3,1.2,0.6
			c0.3,0.2,0.7,0.5,1.1,0.7l-0.5,0.9c-0.1,0.1-0.2,0.2-0.3,0.3c-0.1,0-0.3,0-0.4-0.1c-0.2-0.1-0.3-0.2-0.5-0.3s-0.4-0.3-0.7-0.4
			c-0.3-0.1-0.6-0.2-1.1-0.3c-0.4-0.1-0.9-0.1-1.5-0.1c-0.8,0-1.6,0.1-2.2,0.4c-0.6,0.3-1.3,0.6-1.7,1.2c-0.5,0.5-0.8,1.2-1.1,1.8
			c-0.2,0.7-0.4,1.5-0.4,2.4s0.1,1.8,0.4,2.5s0.6,1.4,1.2,1.9c0.5,0.5,1.1,0.9,1.8,1.2c0.7,0.2,1.5,0.4,2.3,0.4
			c0.7,0,1.3-0.1,1.8-0.2c0.5-0.1,1.1-0.4,1.6-0.6v-3.3h-2.3c-0.1,0-0.2,0-0.3-0.1c-0.1-0.1-0.1-0.2-0.1-0.3v-1.3H544.1z"/>
		<path class="st6" d="M495.1,473.8c0.3,0,0.6,0.1,0.8,0.3c0.2,0.2,0.3,0.4,0.3,0.8v2h-13.1v-1.1c0-0.2,0-0.4,0.1-0.7
			c0.1-0.3,0.2-0.4,0.4-0.6l5.8-5.9c0.5-0.5,0.9-0.9,1.3-1.5c0.3-0.5,0.7-0.9,0.9-1.4c0.2-0.4,0.4-0.8,0.6-1.4
			c0.1-0.4,0.2-0.9,0.2-1.5c0-0.4-0.1-0.8-0.2-1.3c-0.1-0.3-0.3-0.6-0.5-0.8s-0.5-0.4-0.8-0.5c-0.3-0.1-0.7-0.2-1.2-0.2
			s-0.7,0.1-1.1,0.2s-0.6,0.3-0.8,0.4s-0.5,0.4-0.6,0.7s-0.3,0.5-0.4,0.8c-0.1,0.4-0.3,0.6-0.6,0.8c-0.2,0.1-0.6,0.2-1.1,0.1
			l-1.7-0.3c0.1-0.9,0.4-1.7,0.7-2.4c0.4-0.7,0.8-1.3,1.5-1.8c0.6-0.5,1.3-0.8,2-1.1c0.7-0.2,1.6-0.3,2.4-0.3c0.8,0,1.7,0.1,2.4,0.4
			c0.7,0.2,1.4,0.6,1.9,1.2s0.9,1.1,1.3,1.7c0.3,0.6,0.4,1.5,0.4,2.2s-0.1,1.4-0.3,2c-0.2,0.6-0.5,1.2-0.8,1.7
			c-0.3,0.5-0.7,1.1-1.3,1.6c-0.4,0.5-0.9,1.1-1.5,1.6l-4.3,4.4c0.4-0.1,0.8-0.2,1.3-0.3c0.4-0.1,0.8-0.1,1.2-0.1L495.1,473.8
			L495.1,473.8z"/>
		<path class="st6" d="M512.1,457.6v1.5c0,0.4,0,0.7-0.1,1.1c-0.1,0.2-0.2,0.5-0.3,0.6l-7.3,14.9c-0.1,0.3-0.3,0.5-0.6,0.8
			c-0.3,0.2-0.6,0.3-1.1,0.3h-2.4l7.5-14.6c0.2-0.3,0.3-0.5,0.5-0.8c0.2-0.2,0.3-0.5,0.5-0.7h-9.3c-0.2,0-0.4-0.1-0.5-0.2
			c-0.1-0.1-0.2-0.3-0.2-0.5v-2.2L512.1,457.6L512.1,457.6z"/>
		<path class="st6" d="M521,476.9v-13.7h2c0.4,0,0.7,0.2,0.8,0.6l0.2,1.1c0.2-0.3,0.5-0.5,0.7-0.7c0.2-0.2,0.5-0.4,0.8-0.5
			c0.3-0.2,0.6-0.3,0.9-0.4s0.7-0.1,1.2-0.1c0.8,0,1.6,0.2,2.1,0.7c0.5,0.4,0.9,1.1,1.3,1.9c0.2-0.4,0.5-0.8,0.8-1.2
			c0.3-0.3,0.6-0.6,1.1-0.8s0.7-0.3,1.3-0.4c0.4-0.1,0.8-0.1,1.3-0.1c0.7,0,1.5,0.1,2,0.3c0.6,0.2,1.1,0.5,1.5,1.1
			c0.4,0.4,0.7,0.9,0.9,1.6c0.2,0.6,0.3,1.4,0.3,2.2v8.6H537v-8.6c0-0.8-0.2-1.5-0.5-2c-0.3-0.5-0.9-0.6-1.7-0.6
			c-0.3,0-0.6,0.1-0.9,0.2c-0.3,0.1-0.5,0.3-0.7,0.5c-0.2,0.2-0.4,0.5-0.5,0.8c-0.1,0.3-0.2,0.7-0.2,1.2v8.6H529v-8.6
			c0-0.9-0.2-1.6-0.5-2c-0.3-0.4-0.9-0.6-1.6-0.6c-0.5,0-0.9,0.1-1.4,0.3s-0.8,0.5-1.2,0.9v10H521V476.9z"/>
		<path class="st6" d="M551.6,465.8c-0.1,0.1-0.2,0.2-0.3,0.3c-0.1,0.1-0.2,0.1-0.4,0.1s-0.3,0-0.5-0.1c-0.2-0.1-0.4-0.2-0.6-0.3
			c-0.2-0.1-0.5-0.2-0.8-0.3s-0.6-0.1-1.1-0.1c-0.6,0-1.2,0.1-1.5,0.4s-0.5,0.6-0.5,1.1c0,0.3,0.1,0.5,0.3,0.7
			c0.2,0.2,0.4,0.4,0.7,0.5c0.3,0.1,0.6,0.3,1.1,0.4c0.4,0.1,0.8,0.2,1.3,0.4c0.4,0.1,0.8,0.3,1.3,0.5c0.4,0.2,0.7,0.4,1.1,0.7
			c0.3,0.3,0.5,0.6,0.7,1.1s0.3,0.8,0.3,1.4c0,0.6-0.1,1.3-0.3,1.8c-0.2,0.5-0.6,1.1-1.1,1.5s-1.1,0.7-1.7,0.9s-1.5,0.3-2.3,0.3
			c-0.4,0-0.9,0-1.4-0.1c-0.4-0.1-0.8-0.2-1.3-0.3c-0.4-0.1-0.8-0.3-1.2-0.5c-0.3-0.2-0.6-0.4-0.9-0.6l0.7-1.3
			c0.1-0.1,0.2-0.3,0.3-0.3c0.1-0.1,0.3-0.1,0.5-0.1s0.4,0.1,0.5,0.2c0.2,0.1,0.4,0.2,0.6,0.4c0.2,0.1,0.5,0.2,0.8,0.4
			c0.3,0.1,0.7,0.2,1.3,0.2c0.4,0,0.7,0,1.1-0.1c0.3-0.1,0.5-0.2,0.7-0.3c0.2-0.1,0.3-0.3,0.4-0.5c0.1-0.2,0.1-0.4,0.1-0.6
			c0-0.3-0.1-0.6-0.3-0.7c-0.2-0.2-0.4-0.4-0.7-0.5c-0.3-0.1-0.6-0.3-1.1-0.4c-0.4-0.1-0.8-0.2-1.3-0.4c-0.4-0.1-0.8-0.3-1.3-0.5
			c-0.4-0.2-0.7-0.4-1.1-0.7c-0.3-0.3-0.5-0.6-0.7-1.1s-0.3-0.9-0.3-1.6c0-0.5,0.1-1.1,0.3-1.6c0.2-0.5,0.5-0.9,0.9-1.4
			s0.9-0.6,1.6-0.9c0.6-0.2,1.4-0.3,2.2-0.3c0.9,0,1.8,0.1,2.5,0.4c0.7,0.3,1.4,0.7,1.9,1.3L551.6,465.8z"/>
	</g>
	<circle class="st8" cx="660.9" cy="151.1" r="118.5"/>
	<g>
		<path d="M682.5,820.2c0,3.4-0.6,6.4-1.7,9.3c-1.1,2.8-2.7,5.2-4.8,7.3c-2.1,2-4.5,3.6-7.4,4.7c-2.9,1.1-6.1,1.7-9.6,1.7h-17.7
			v-45.9H659c3.5,0,6.7,0.6,9.6,1.7c2.9,1.1,5.4,2.7,7.4,4.8c2.1,2,3.6,4.5,4.8,7.3C682,813.8,682.5,816.9,682.5,820.2z
			 M672.8,820.2c0-2.4-0.3-4.6-1-6.5c-0.6-1.9-1.5-3.5-2.7-4.9c-1.2-1.3-2.6-2.4-4.3-3.1c-1.7-0.7-3.6-1.1-5.8-1.1h-8.1v31h8.1
			c2.2,0,4.1-0.4,5.8-1.1c1.7-0.7,3.1-1.7,4.3-3.1c1.2-1.3,2.1-3,2.7-4.9C672.5,824.8,672.8,822.6,672.8,820.2z"/>
	</g>
	<g>
		<path d="M346.5,696v11.8h15.3v7.2h-15.3v12.1h19.7v7.4h-29.2v-45.9h29.2v7.4H346.5z"/>
	</g>
</g>
</svg>
