<?xml version="1.0" encoding="utf-8"?>
<!-- Generator: Adobe Illustrator 23.0.6, SVG Export Plug-In . SVG Version: 6.00 Build 0)  -->
<svg version="1.1" id="Layer_1" xmlns="http://www.w3.org/2000/svg" xmlns:xlink="http://www.w3.org/1999/xlink" x="0px" y="0px"
	 viewBox="0 0 1191.4 906.5" style="enable-background:new 0 0 1191.4 906.5;" xml:space="preserve">
<style type="text/css">
	.st0{fill:#333D48;}
	.st1{fill:none;stroke:#51D27A;stroke-width:4;stroke-miterlimit:10;}
	.st2{fill:none;stroke:#3B4654;stroke-width:4;stroke-miterlimit:10;}
	.st3{fill:#7BD85D;}
	.st4{fill:#2F9EF3;}
	.st5{fill:#945AB5;}
	.st6{fill:#37C4AC;}
	.st7{fill:#FFFFFF;}
	.st8{enable-background:new    ;}
	.st9{fill:none;stroke:#37C4AC;stroke-width:3;stroke-linecap:round;stroke-miterlimit:10;stroke-dasharray:11.8831,17.8247;}
	.st10{fill:none;stroke:#945AB5;stroke-width:3;stroke-linecap:round;stroke-miterlimit:10;stroke-dasharray:11.8831,17.8247;}
	.st11{fill:#7E8C9E;}
	.st12{fill:#C4CED7;}
	.st13{fill:none;stroke:#F0F4F6;stroke-width:8;stroke-miterlimit:10;}
</style>
<title>Artboard 5</title>
<g>
	<rect x="677.4" y="502.4" class="st0" width="484.7" height="108.8"/>
	<rect x="677.4" y="616.7" class="st0" width="484.7" height="108.8"/>
	<line class="st1" x1="270.8" y1="363" x2="188.6" y2="505.9"/>
	<line class="st1" x1="463.6" y1="508.4" x2="377.7" y2="359.6"/>
	<line class="st2" x1="410.8" y1="597.9" x2="239" y2="595.2"/>
	<line class="st2" x1="679.4" y1="556.8" x2="522.2" y2="599"/>
	<line class="st2" x1="519.1" y1="170.7" x2="323.4" y2="268.9"/>
	<circle class="st3" cx="323.4" cy="268.9" r="114.6"/>
	<circle class="st3" cx="137.1" cy="593.3" r="114.6"/>
	<circle class="st3" cx="522.2" cy="599.5" r="114.6"/>
	<rect x="515.3" y="115.6" class="st0" width="484.7" height="146.8"/>
	<rect x="515.3" y="271.7" class="st0" width="484.7" height="108.8"/>
	<g>
		<path class="st4" d="M602.5,317.5c-2.5,2.1-3.5,2-5.1,2c-0.7,0-1.3-0.1-2-0.2c-1.5-0.3-2.9-0.5-4.4-0.5c-2.4,0-4.7,0.5-6.8,1.6
			c-3.3,1.9-6.4,4.1-9.3,6.5h4.3v6.6h-8.6v-3.3c-1.2,1-2.4,2-3.6,2.9V358h40.3v-40.6L602.5,317.5z M579.2,354.5h-8.6v-6.8h8.6V354.5
			z M579.2,344h-8.6v-6.7h8.6V344z M591.5,354.5H583v-6.8h8.6L591.5,354.5z M591.5,344H583v-6.7h8.6L591.5,344z M591.5,333.7H583
			V327h8.6L591.5,333.7z M603.8,354.5h-8.6v-6.8h8.6V354.5z M603.8,344h-8.6v-6.7h8.6V344z M603.8,333.7h-8.6V327h8.6V333.7z"/>
		<path class="st4" d="M557.2,331.3c1-1.9,4.1-13.1,0.3-22.7c-1.1-2.9-2.9-5.4-5.1-7.5c-2.2-2.1-4.9-3.6-7.8-4.6
			c-3.1-1.1-6.4-1.8-9.7-2c3.3,1.6,6.5,3.6,9.3,6c2.5,2,4.5,4.5,6,7.2c1.7,3.2,3.1,6.6,4.1,10.1c1.1,3.5,1.9,7.1,2.4,10.7
			C557.1,330.2,557.2,331.3,557.2,331.3z"/>
		<path class="st4" d="M583.2,317.5c7.9-3.8,15.1,0.1,14.6-1.4c-0.9-3.3-8.4-7.2-8.4-7.2c-2.4-2.7-5.6-4.5-9.2-5.1
			c-3.6-0.5-7.2-0.3-10.7,0.6c-5.9-7.9-17.6-9.7-22.2-10.1c-1.2-0.1-1.9-0.1-1.9-0.1c3.2,1,6.3,2.6,9,4.6c1.1,0.8,2.1,1.8,3,2.9
			l1.9-0.1l-1.2,1.1c0.3,0.4,0.6,0.9,0.9,1.4l3.2-0.5l-2.3,2.4c0.2,0.6,0.3,1.1,0.5,1.7c4.6,17.9-4.5,28.8-4.5,28.8
			c0.9-0.3,1.7-0.7,2.5-1.1c3-1.7,5.9-3.7,8.6-6c5.4-4.3,10.9-9.3,15.7-11.7C582.9,317.6,583,317.6,583.2,317.5z M582.3,307.9
			c1.5,0.2,3,0.9,4.1,1.9c0.1,0.1-0.8,0.3-1.8,0.2c-0.9,0-1.9-0.4-2.5-1.1C581.4,308.2,581.6,307.9,582.3,307.9z"/>
	</g>
	<g>
		<path class="st3" d="M739.8,577.5c-1.2,0-2.4,0.4-3.2,1.3c-0.9,0.9-1.3,2-1.3,3.2s0.4,2.4,1.3,3.2c0.9,0.9,2,1.3,3.2,1.3
			s2.4-0.4,3.2-1.3c0.9-0.9,1.3-2,1.3-3.2s-0.4-2.4-1.3-3.2C742.2,578,741,577.5,739.8,577.5z"/>
		<path class="st3" d="M766,573.1c-1.7-3.8-4.1-7.2-7-10.1c-2.9-2.9-6.3-5.3-10.1-7c-1.5-0.7-3.1-1.2-4.7-1.6
			c-2.1,1.6-4.4,3.3-6.5,5.2l-0.2,0.2c3.1,0.3,6.2,1,9,2.3c3,1.3,5.7,3.2,8,5.6c2.3,2.3,4.2,5,5.6,8c1.4,3.1,2.2,6.4,2.4,9.8h6.3
			C768.7,581.2,767.7,577,766,573.1z"/>
		<path class="st3" d="M750.3,571.5c-1.8-1.8-3.9-3.3-6.2-4.4c-2.3-1.1-4.8-1.7-7.3-1.9h-0.3v6.3c3.6,0.3,6.9,1.9,9.3,4.5
			c2.5,2.5,4.1,5.8,4.5,9.3h6.3C756.3,580.1,754,575.2,750.3,571.5L750.3,571.5z"/>
		<path class="st3" d="M722.4,561.8c1-1.9,4.2-13.2,0.3-22.9c-1.1-2.9-2.9-5.5-5.2-7.6s-4.9-3.7-7.8-4.7c-3.1-1.1-6.4-1.8-9.7-2
			c3.4,1.6,6.5,3.6,9.3,6.1c2.5,2,4.5,4.5,6.1,7.3c1.7,3.2,3.1,6.6,4.2,10.1c1.1,3.5,1.9,7.1,2.4,10.7
			C722.3,560.7,722.4,561.8,722.4,561.8z"/>
		<path class="st3" d="M740.2,553.4c2.4-2,5-3.8,7.8-5.3c8.1-4.3,15.7-0.1,15.2-1.6c-0.9-3.3-8.4-7.3-8.4-7.3
			c-2.4-2.7-5.6-4.6-9.2-5.2c-3.6-0.5-7.2-0.3-10.7,0.6c-6-7.9-17.7-9.7-22.4-10.1c-1.2-0.1-1.9-0.1-1.9-0.1c3.3,1,6.3,2.6,9,4.7
			c1.1,0.8,2.2,1.8,3,2.9l1.9-0.1l-1.2,1.1c0.3,0.4,0.6,0.9,0.9,1.4l3.2-0.5l-2.3,2.4c0.2,0.6,0.3,1.1,0.5,1.7c4.7,18-4.6,29-4.6,29
			c0.9-0.3,1.7-0.7,2.5-1.1c3.9-2.1,8.5-5.9,13-9.5C737.8,555.3,739,554.4,740.2,553.4z M747.6,538.2c1.5,0.2,3,0.9,4.2,1.9
			c0.1,0.1-0.8,0.3-1.8,0.2c-1,0-1.9-0.4-2.5-1.1C746.7,538.5,746.9,538.2,747.6,538.2z"/>
	</g>
	<g>
		<path class="st5" d="M730,678.1c-0.8-0.8-1.2-1.9-1.2-3h-11.6v-7.9h19.1c3.3-9,11.8-14.9,21.4-14.9c0.8,0,1.7,0,2.5,0.1l-1.1-0.8
			l-2-1.3h-31.9l-2.1,1.8l-9.8,7.8l-3,2.3v20.1h23.8L730,678.1L730,678.1z"/>
		<path class="st5" d="M744.6,661.9c7.3-7.3,19.1-7.2,26.3,0.1c7.3,7.3,7.2,19.1-0.1,26.3c-3.5,3.5-8.2,5.4-13.1,5.4
			c-5,0.1-9.8-1.9-13.2-5.5l3-3c2.6,2.8,6.4,4.4,10.2,4.3c8,0,14.5-6.4,14.5-14.4s-6.4-14.5-14.4-14.5s-14.5,6.4-14.5,14.4v0.1h6.3
			l-8.5,8.3l-0.1-0.3l-8-8h6.3C739.1,670.2,741,665.4,744.6,661.9L744.6,661.9z M755.8,666.9h3.1v8.8l7.1,4.4l-1.4,2.5l-8.8-5.4
			L755.8,666.9L755.8,666.9z"/>
	</g>
	<g>
		<path class="st6" d="M564.8,179.2c5.2-5.2,13.6-5.2,18.8,0s5.2,13.6,0,18.8s-13.6,5.2-18.8,0c-2.5-2.5-3.9-5.9-3.9-9.4
			C560.8,185.1,562.3,181.7,564.8,179.2z M566.5,196.4c4.3,4.3,11.2,4.3,15.5,0.1s4.3-11.2,0.1-15.5c-4.3-4.3-11.2-4.3-15.5-0.1
			c-2.1,2.1-3.2,4.9-3.2,7.8C563.3,191.6,564.4,194.4,566.5,196.4L566.5,196.4z M568.9,186.8c0.7,0.7,0.7,1.8,0,2.5s-1.8,0.7-2.5,0
			s-0.7-1.8,0-2.5c0.3-0.3,0.8-0.5,1.2-0.5C568.1,186.2,568.5,186.4,568.9,186.8z M568.7,192.8c0.7-0.7,1.8-0.7,2.6,0
			c0.7,0.7,0.7,1.9,0,2.6c-0.7,0.7-1.8,0.7-2.6,0C568,194.7,568,193.5,568.7,192.8z M577.4,180.7c0.7,0.7,0.7,1.8,0,2.6
			c-0.3,0.4-0.8,0.6-1.3,0.5h-3.6c-0.5,0-1-0.2-1.3-0.5c-0.7-0.7-0.7-1.8,0-2.6c0.3-0.4,0.8-0.6,1.3-0.5h3.6
			C576.5,180.2,577,180.4,577.4,180.7L577.4,180.7z M577.2,192.8c0.7-0.7,1.8-0.7,2.6,0c0.7,0.7,0.7,1.9,0,2.6
			c-0.7,0.7-1.8,0.7-2.6,0C576.5,194.7,576.5,193.5,577.2,192.8z M579.6,186.8c0.7-0.7,1.8-0.7,2.5,0s0.7,1.8,0,2.5s-1.8,0.7-2.5,0
			c-0.3-0.3-0.5-0.8-0.5-1.2C579.1,187.5,579.3,187.1,579.6,186.8z"/>
		<g>
			<polygon class="st6" points="585.2,154.3 577.9,147.1 577.9,151.3 570.5,151.3 570.5,147.1 563.3,154.4 570.5,161.6 570.5,157.4 
				577.9,157.4 577.9,161.6 			"/>
			<polygon class="st6" points="600.6,138.1 581.8,138.1 579,143 581.7,145.7 589,152.9 590.4,154.3 589,155.7 581.7,163 579,165.7 
				581.8,170.6 600.6,170.6 610,154.4 			"/>
			<polygon class="st6" points="566.8,163 559.5,155.8 558.1,154.4 559.5,153 566.8,145.7 569.5,143 566.7,138.1 547.9,138.1 
				538.5,154.4 547.9,170.6 566.7,170.6 569.5,165.7 			"/>
		</g>
	</g>
	<path class="st7" d="M354.7,211.1L354.7,211.1c3.4-1.9,4.9-3.9,4.9-6.1v-6c0-2.2-1.5-4.2-4.8-6c-4.1-2.2-8.6-3.7-13.3-4.5
		c-6-1.1-12.1-1.5-18.2-1.5c-6.1-0.1-12.2,0.4-18.2,1.5c-4.7,0.7-9.2,2.2-13.4,4.5c-3.3,1.9-4.8,3.7-4.8,6v6c0,2.2,1.5,4.2,4.8,6
		h0.1v6.6c-1.7-0.7-3.4-1.6-4.9-2.7v8c0,2.2,1.5,4.2,4.8,6h0.1v6.6c-1.7-0.8-3.3-1.7-4.9-2.7v8.3c0,2.1,1.5,4.2,4.8,6h0.1v6.9
		c-1.7-0.7-3.4-1.6-4.9-2.7v8c0,2.1,1.5,4.2,4.8,6c4.1,2.2,8.6,3.7,13.3,4.5c6,1.1,12.1,1.5,18.2,1.5c6.1,0.1,12.2-0.4,18.2-1.5
		c4.6-0.8,9.1-2.3,13.3-4.5c3.3-1.9,4.8-3.7,4.8-6v-8c-1.5,1.1-3.1,2-4.8,2.7v-7c3.1-1.8,4.6-3.7,4.6-5.8v-8c-1.4,1-3,1.9-4.6,2.7
		v-6.6c3.3-1.9,4.8-3.7,4.8-6v-8c-1.5,1.1-3.1,2-4.8,2.7V211.1L354.7,211.1z M331.2,238l-1.6,2.8l-1.9,3.4h-8.2l-1.9-3.4l-3.6-6.3
		l-1.9-3.4v25.2H299v-52.4h12.7l6.6,13l3.1,6.1l2.1,4l3-5.8l2.2-4.3l6.6-13H348v52.4h-12.8v-25.2L331.2,238L331.2,238z"/>
	<path class="st7" d="M168.5,539L168.5,539c3.4-1.9,4.9-3.9,4.9-6.1v-6c0-2.2-1.5-4.2-4.8-6c-4.1-2.2-8.6-3.7-13.3-4.5
		c-6-1.1-12.1-1.5-18.2-1.5c-6.1-0.1-12.2,0.4-18.2,1.5c-4.7,0.7-9.2,2.2-13.4,4.5c-3.3,1.9-4.8,3.7-4.8,6v6c0,2.2,1.5,4.2,4.8,6
		h0.1v6.6c-1.7-0.7-3.4-1.6-4.9-2.7v8c0,2.2,1.5,4.2,4.8,6h0.1v6.6c-1.7-0.8-3.3-1.7-4.9-2.7v8.3c0,2.1,1.5,4.2,4.8,6h0.1v6.9
		c-1.7-0.7-3.4-1.6-4.9-2.7v8c0,2.1,1.5,4.2,4.8,6c4.1,2.2,8.6,3.7,13.3,4.5c6,1.1,12.1,1.5,18.2,1.5c6.1,0.1,12.2-0.4,18.2-1.5
		c4.6-0.8,9.1-2.3,13.3-4.5c3.3-1.9,4.8-3.7,4.8-6v-8c-1.5,1.1-3.1,2-4.8,2.7v-7c3.1-1.8,4.6-3.7,4.6-5.8v-8c-1.4,1-3,1.9-4.6,2.7
		V557c3.3-1.9,4.8-3.7,4.8-6v-8c-1.5,1.1-3.1,2-4.8,2.7V539L168.5,539z M144.9,565.9l-1.6,2.8l-1.9,3.4h-8.2l-1.9-3.4l-3.6-6.3
		l-1.9-3.4v25.2h-13.1v-52.4h12.7l6.6,13l3.1,6.1l2.1,4l3-5.8l2.2-4.3l6.6-13h12.7v52.4h-12.8V559L144.9,565.9L144.9,565.9z"/>
	<path class="st7" d="M553.5,544.8L553.5,544.8c3.4-1.9,4.9-3.9,4.9-6.1v-6c0-2.2-1.5-4.2-4.8-6c-4.1-2.2-8.6-3.7-13.3-4.5
		c-6-1.1-12.1-1.5-18.2-1.5c-6.1-0.1-12.2,0.4-18.2,1.5c-4.7,0.7-9.2,2.2-13.4,4.5c-3.3,1.9-4.8,3.7-4.8,6v6c0,2.2,1.5,4.2,4.8,6
		h0.1v6.6c-1.7-0.7-3.4-1.6-4.9-2.7v8c0,2.2,1.5,4.2,4.8,6h0.1v6.6c-1.7-0.8-3.3-1.7-4.9-2.7v8.3c0,2.1,1.5,4.2,4.8,6h0.1v6.9
		c-1.7-0.7-3.4-1.6-4.9-2.7v8c0,2.1,1.5,4.2,4.8,6c4.1,2.2,8.6,3.7,13.3,4.5c6,1.1,12.1,1.5,18.2,1.5c6.1,0.1,12.2-0.4,18.2-1.5
		c4.6-0.8,9.1-2.3,13.3-4.5c3.3-1.9,4.8-3.7,4.8-6v-8c-1.5,1.1-3.1,2-4.8,2.7v-7c3.1-1.8,4.6-3.7,4.6-5.8v-8c-1.4,1-3,1.9-4.6,2.7
		V563c3.3-1.9,4.8-3.7,4.8-6v-8c-1.5,1.1-3.1,2-4.8,2.7V544.8L553.5,544.8z M530,571.7l-1.6,2.8l-1.9,3.4h-8.2l-1.9-3.4l-3.6-6.3
		l-1.9-3.4V590h-13.1v-52.4h12.7l6.6,13l3.1,6.1l2.1,4l3-5.8l2.2-4.3l6.6-13h12.7V590H534v-25.2L530,571.7L530,571.7z"/>
	<g class="st8">
		<path d="M161.3,666.7h-7.8c-0.9,0-1.6-0.2-2.1-0.6s-1-0.9-1.2-1.6l-3.3-9.3h-19.4l-3.3,9.3c-0.2,0.6-0.6,1.1-1.2,1.5
			c-0.6,0.5-1.3,0.7-2.1,0.7H113l19-48.7h10.3L161.3,666.7z M144.4,648.2l-5.3-14.9c-0.3-0.8-0.6-1.7-1-2.8c-0.3-1.1-0.7-2.2-1-3.4
			c-0.3,1.3-0.6,2.4-1,3.5c-0.3,1.1-0.7,2-1,2.8l-5.2,14.8L144.4,648.2L144.4,648.2z"/>
	</g>
	<g class="st8">
		<path d="M538.3,659.5c0.6,0,1,0.2,1.4,0.6l4,4.3c-2,2.5-4.4,4.4-7.3,5.7c-2.9,1.3-6.4,1.9-10.4,1.9c-3.7,0-6.9-0.6-9.8-1.9
			c-2.9-1.2-5.4-3-7.4-5.2s-3.6-4.8-4.7-7.9c-1.1-3-1.6-6.4-1.6-10c0-2.4,0.3-4.7,0.8-6.9s1.3-4.2,2.3-6s2.2-3.5,3.6-5
			s3-2.7,4.8-3.8c1.8-1,3.7-1.8,5.9-2.4c2.1-0.5,4.4-0.8,6.8-0.8c1.8,0,3.5,0.2,5.1,0.5s3.1,0.8,4.5,1.3s2.7,1.2,3.8,2
			s2.2,1.7,3.2,2.6l-3.4,4.6c-0.2,0.3-0.5,0.5-0.8,0.8c-0.3,0.2-0.7,0.3-1.3,0.3s-1.1-0.2-1.6-0.6c-0.5-0.4-1.2-0.8-2-1.3
			s-1.8-0.9-3-1.3c-1.2-0.4-2.7-0.6-4.6-0.6c-2,0-3.9,0.4-5.6,1.1c-1.7,0.7-3.2,1.8-4.4,3.2s-2.2,3.1-2.8,5.2s-1,4.4-1,7
			s0.4,5,1.1,7c0.7,2,1.7,3.8,3,5.2s2.7,2.5,4.4,3.2s3.5,1.1,5.4,1.1c1.1,0,2.2-0.1,3.1-0.2c0.9-0.1,1.8-0.3,2.6-0.6s1.5-0.6,2.3-1
			c0.7-0.4,1.4-1,2.1-1.6c0.2-0.2,0.5-0.4,0.8-0.5C537.7,659.6,538,659.5,538.3,659.5z"/>
	</g>
	<g class="st8">
		<path d="M323.5,290.4c3.3,0,6.1,0.3,8.4,0.9s4.2,1.5,5.7,2.6s2.5,2.5,3.2,4.1s1,3.4,1,5.4c0,1.1-0.2,2.2-0.5,3.2s-0.8,2-1.5,2.9
			s-1.6,1.7-2.6,2.5c-1.1,0.7-2.4,1.4-3.8,1.9c3.3,0.8,5.8,2.1,7.4,3.8c1.6,1.8,2.4,4.1,2.4,6.9c0,2.1-0.4,4-1.2,5.7
			c-0.8,1.8-2,3.3-3.5,4.6c-1.5,1.3-3.4,2.3-5.6,3s-4.8,1.1-7.7,1.1h-18.9v-48.7h17.2V290.4z M316.3,298.1v13.2h6.6
			c1.4,0,2.7-0.1,3.8-0.4c1.1-0.2,2-0.6,2.8-1.1c0.7-0.5,1.3-1.2,1.7-2c0.4-0.8,0.6-1.9,0.6-3c0-1.2-0.2-2.2-0.5-3.1s-0.8-1.5-1.5-2
			s-1.5-0.9-2.6-1.1c-1-0.2-2.3-0.4-3.7-0.4h-7.2V298.1z M324.9,331.4c1.6,0,2.9-0.2,4-0.6c1-0.4,1.9-0.9,2.5-1.6
			c0.6-0.6,1.1-1.4,1.3-2.2c0.2-0.8,0.4-1.7,0.4-2.6c0-1-0.1-1.9-0.4-2.7c-0.3-0.8-0.8-1.4-1.4-2c-0.6-0.5-1.5-1-2.5-1.3
			s-2.3-0.4-3.8-0.4h-8.6v13.3h8.5V331.4z"/>
	</g>
	<g>
		<circle class="st9" cx="323.4" cy="268.9" r="122.9"/>
	</g>
	<g>
		<circle class="st10" cx="522.2" cy="599.5" r="122.9"/>
	</g>
	<g>
		<path class="st11" d="M451.5,381.7c0.9,0,1.7,0.1,2.3,0.3c0.7,0.2,1.2,0.5,1.6,0.9s0.8,0.8,1,1.4c0.2,0.5,0.3,1.1,0.3,1.8
			c0,0.7-0.1,1.3-0.3,1.8c-0.2,0.5-0.6,1-1,1.4s-1,0.7-1.6,0.9c-0.7,0.2-1.4,0.3-2.2,0.3h-2.3v5.3h-1.9v-14L451.5,381.7L451.5,381.7
			z M451.5,389c0.5,0,1-0.1,1.4-0.2s0.8-0.3,1-0.6c0.3-0.3,0.5-0.6,0.6-0.9c0.1-0.4,0.2-0.8,0.2-1.2c0-0.9-0.3-1.6-0.8-2.1
			c-0.6-0.5-1.4-0.8-2.5-0.8h-2.3v5.8L451.5,389L451.5,389z"/>
		<path class="st11" d="M463,395.8h-1.9v-14h1.9V395.8z"/>
		<path class="st11" d="M479.9,381.7v14h-1c-0.2,0-0.3,0-0.4-0.1s-0.2-0.1-0.3-0.3l-8.1-10.6c0,0.2,0,0.3,0,0.5s0,0.3,0,0.4v10h-1.7
			v-14h1c0.1,0,0.2,0,0.2,0c0.1,0,0.1,0,0.2,0l0.1,0.1c0,0,0.1,0.1,0.1,0.2l8.1,10.6c0-0.2,0-0.3,0-0.5s0-0.3,0-0.5v-9.9
			L479.9,381.7L479.9,381.7z"/>
		<path class="st11" d="M496.9,389v5.4c-0.7,0.5-1.5,0.9-2.3,1.1c-0.8,0.3-1.7,0.4-2.6,0.4c-1.1,0-2.1-0.2-3.1-0.5
			c-0.9-0.3-1.7-0.8-2.3-1.5c-0.6-0.6-1.1-1.4-1.5-2.3c-0.3-0.9-0.5-1.9-0.5-2.9c0-1.1,0.2-2,0.5-2.9s0.8-1.6,1.4-2.3
			c0.6-0.6,1.4-1.1,2.3-1.5c0.9-0.3,1.9-0.5,3-0.5c0.6,0,1.1,0,1.5,0.1c0.5,0.1,0.9,0.2,1.3,0.4c0.4,0.2,0.8,0.3,1.1,0.6
			c0.3,0.2,0.7,0.5,1,0.7l-0.5,0.9c-0.1,0.1-0.2,0.2-0.3,0.3c-0.1,0-0.3,0-0.4-0.1c-0.2-0.1-0.3-0.2-0.5-0.3
			c-0.2-0.1-0.4-0.3-0.7-0.4c-0.3-0.1-0.6-0.2-1-0.3c-0.4-0.1-0.9-0.1-1.4-0.1c-0.8,0-1.5,0.1-2.1,0.4s-1.2,0.6-1.6,1.1
			c-0.5,0.5-0.8,1.1-1,1.7c-0.2,0.7-0.4,1.4-0.4,2.3s0.1,1.7,0.4,2.4s0.6,1.3,1.1,1.8s1,0.9,1.7,1.1s1.4,0.4,2.2,0.4
			c0.7,0,1.2-0.1,1.7-0.2s1-0.4,1.5-0.6v-3.1H493c-0.1,0-0.2,0-0.3-0.1c-0.1-0.1-0.1-0.2-0.1-0.3V389H496.9z"/>
		<path class="st11" d="M451,423.7v2.3h-10.1v-2.3h3.7v-10.6c0-0.4,0-0.9,0-1.3L442,414c-0.2,0.1-0.3,0.2-0.4,0.2s-0.3,0-0.4,0
			s-0.2-0.1-0.3-0.1c-0.1-0.1-0.2-0.1-0.2-0.2l-1-1.4l5.6-4.7h2.6v15.9L451,423.7L451,423.7z"/>
		<path class="st11" d="M457.7,414.4c0.4-0.1,0.8-0.1,1.2-0.2c0.4,0,0.7-0.1,1.1-0.1c1,0,1.8,0.1,2.5,0.4s1.3,0.7,1.8,1.2
			s0.9,1.1,1.1,1.8c0.3,0.7,0.4,1.4,0.4,2.2c0,1-0.2,1.9-0.5,2.7c-0.3,0.8-0.8,1.5-1.4,2.1s-1.3,1-2.2,1.3c-0.8,0.3-1.7,0.5-2.7,0.5
			c-0.6,0-1.1-0.1-1.6-0.2s-1-0.3-1.4-0.5s-0.9-0.4-1.3-0.7c-0.4-0.3-0.7-0.5-1-0.8l1-1.3c0.2-0.3,0.5-0.4,0.8-0.4
			c0.2,0,0.4,0.1,0.6,0.2s0.5,0.3,0.8,0.4c0.3,0.2,0.6,0.3,1,0.4s0.8,0.2,1.4,0.2s1.1-0.1,1.5-0.3c0.4-0.2,0.8-0.4,1.1-0.8
			s0.5-0.7,0.7-1.2c0.1-0.5,0.2-1,0.2-1.5c0-1-0.3-1.8-0.9-2.3c-0.6-0.6-1.4-0.8-2.6-0.8c-0.9,0-1.8,0.2-2.7,0.5l-1.9-0.6l1.5-8.9h9
			v1.3c0,0.4-0.1,0.8-0.4,1.1c-0.3,0.3-0.7,0.4-1.4,0.4h-5L457.7,414.4z"/>
		<path class="st11" d="M474.9,426.1v-13h1.9c0.4,0,0.7,0.2,0.8,0.6l0.2,1c0.2-0.3,0.5-0.5,0.7-0.7s0.5-0.4,0.8-0.5
			c0.3-0.2,0.6-0.3,0.9-0.4s0.7-0.1,1.1-0.1c0.8,0,1.5,0.2,2,0.7c0.5,0.4,0.9,1,1.2,1.8c0.2-0.4,0.5-0.8,0.8-1.1
			c0.3-0.3,0.6-0.6,1-0.8c0.4-0.2,0.7-0.3,1.2-0.4c0.4-0.1,0.8-0.1,1.2-0.1c0.7,0,1.4,0.1,1.9,0.3c0.6,0.2,1,0.5,1.4,1
			c0.4,0.4,0.7,0.9,0.9,1.5c0.2,0.6,0.3,1.3,0.3,2.1v8.2H490V418c0-0.8-0.2-1.4-0.5-1.9s-0.9-0.6-1.6-0.6c-0.3,0-0.6,0.1-0.9,0.2
			s-0.5,0.3-0.7,0.5s-0.4,0.5-0.5,0.8s-0.2,0.7-0.2,1.1v8.2h-3.1v-8.2c0-0.9-0.2-1.5-0.5-1.9s-0.9-0.6-1.5-0.6
			c-0.5,0-0.9,0.1-1.3,0.3c-0.4,0.2-0.8,0.5-1.1,0.9v9.5h-3.2V426.1z"/>
		<path class="st11" d="M504,415.6c-0.1,0.1-0.2,0.2-0.3,0.3c-0.1,0.1-0.2,0.1-0.4,0.1c-0.2,0-0.3,0-0.5-0.1s-0.4-0.2-0.6-0.3
			c-0.2-0.1-0.5-0.2-0.8-0.3c-0.3-0.1-0.6-0.1-1-0.1c-0.6,0-1.1,0.1-1.4,0.4s-0.5,0.6-0.5,1c0,0.3,0.1,0.5,0.3,0.7
			c0.2,0.2,0.4,0.4,0.7,0.5c0.3,0.1,0.6,0.3,1,0.4s0.8,0.2,1.2,0.4c0.4,0.1,0.8,0.3,1.2,0.5c0.4,0.2,0.7,0.4,1,0.7s0.5,0.6,0.7,1
			s0.3,0.8,0.3,1.3c0,0.6-0.1,1.2-0.3,1.7c-0.2,0.5-0.6,1-1,1.4s-1,0.7-1.6,0.9c-0.6,0.2-1.4,0.3-2.2,0.3c-0.4,0-0.9,0-1.3-0.1
			s-0.8-0.2-1.2-0.3c-0.4-0.1-0.8-0.3-1.1-0.5c-0.3-0.2-0.6-0.4-0.9-0.6l0.7-1.2c0.1-0.1,0.2-0.3,0.3-0.3c0.1-0.1,0.3-0.1,0.5-0.1
			s0.4,0.1,0.5,0.2c0.2,0.1,0.4,0.2,0.6,0.4c0.2,0.1,0.5,0.2,0.8,0.4c0.3,0.1,0.7,0.2,1.2,0.2c0.4,0,0.7,0,1-0.1s0.5-0.2,0.7-0.3
			c0.2-0.1,0.3-0.3,0.4-0.5s0.1-0.4,0.1-0.6c0-0.3-0.1-0.6-0.3-0.7c-0.2-0.2-0.4-0.4-0.7-0.5s-0.6-0.3-1-0.4s-0.8-0.2-1.2-0.4
			c-0.4-0.1-0.8-0.3-1.2-0.5s-0.7-0.4-1-0.7s-0.5-0.6-0.7-1s-0.3-0.9-0.3-1.5c0-0.5,0.1-1,0.3-1.5c0.2-0.5,0.5-0.9,0.9-1.3
			s0.9-0.6,1.5-0.9c0.6-0.2,1.3-0.3,2.1-0.3c0.9,0,1.7,0.1,2.4,0.4c0.7,0.3,1.3,0.7,1.8,1.2L504,415.6z"/>
	</g>
	<g>
		<path class="st11" d="M149,381.7c0.9,0,1.7,0.1,2.3,0.3c0.7,0.2,1.2,0.5,1.6,0.9c0.4,0.4,0.8,0.8,1,1.4c0.2,0.5,0.3,1.1,0.3,1.8
			c0,0.7-0.1,1.3-0.3,1.8s-0.6,1-1,1.4s-1,0.7-1.6,0.9c-0.7,0.2-1.4,0.3-2.2,0.3h-2.3v5.3h-1.9v-14L149,381.7L149,381.7z M149,389
			c0.5,0,1-0.1,1.4-0.2s0.8-0.3,1-0.6c0.3-0.3,0.5-0.6,0.6-0.9c0.1-0.4,0.2-0.8,0.2-1.2c0-0.9-0.3-1.6-0.8-2.1
			c-0.6-0.5-1.4-0.8-2.5-0.8h-2.3v5.8L149,389L149,389z"/>
		<path class="st11" d="M160.5,395.8h-1.9v-14h1.9V395.8z"/>
		<path class="st11" d="M177.4,381.7v14h-1c-0.2,0-0.3,0-0.4-0.1c-0.1-0.1-0.2-0.1-0.3-0.3l-8.1-10.6c0,0.2,0,0.3,0,0.5s0,0.3,0,0.4
			v10H166v-14h1c0.1,0,0.2,0,0.2,0c0.1,0,0.1,0,0.2,0l0.1,0.1c0,0,0.1,0.1,0.1,0.2l8.1,10.6c0-0.2,0-0.3,0-0.5s0-0.3,0-0.5v-9.9
			L177.4,381.7L177.4,381.7z"/>
		<path class="st11" d="M194.4,389v5.4c-0.7,0.5-1.5,0.9-2.3,1.1c-0.8,0.3-1.7,0.4-2.6,0.4c-1.1,0-2.1-0.2-3.1-0.5
			c-0.9-0.3-1.7-0.8-2.3-1.5c-0.6-0.6-1.1-1.4-1.5-2.3c-0.3-0.9-0.5-1.9-0.5-2.9c0-1.1,0.2-2,0.5-2.9s0.8-1.6,1.4-2.3
			c0.6-0.6,1.4-1.1,2.3-1.5c0.9-0.3,1.9-0.5,3-0.5c0.6,0,1.1,0,1.5,0.1c0.5,0.1,0.9,0.2,1.3,0.4c0.4,0.2,0.8,0.3,1.1,0.6
			c0.3,0.2,0.7,0.5,1,0.7l-0.5,0.9c-0.1,0.1-0.2,0.2-0.3,0.3c-0.1,0-0.3,0-0.4-0.1c-0.2-0.1-0.3-0.2-0.5-0.3
			c-0.2-0.1-0.4-0.3-0.7-0.4s-0.6-0.2-1-0.3c-0.4-0.1-0.9-0.1-1.4-0.1c-0.8,0-1.5,0.1-2.1,0.4s-1.2,0.6-1.6,1.1
			c-0.5,0.5-0.8,1.1-1,1.7c-0.2,0.7-0.4,1.4-0.4,2.3s0.1,1.7,0.4,2.4s0.6,1.3,1.1,1.8s1,0.9,1.7,1.1s1.4,0.4,2.2,0.4
			c0.7,0,1.2-0.1,1.7-0.2s1-0.4,1.5-0.6v-3.1h-2.2c-0.1,0-0.2,0-0.3-0.1s-0.1-0.2-0.1-0.3V389H194.4z"/>
		<path class="st11" d="M147.8,423.2c0.3,0,0.6,0.1,0.8,0.3c0.2,0.2,0.3,0.4,0.3,0.8v1.9h-12.5v-1c0-0.2,0-0.4,0.1-0.7
			s0.2-0.4,0.4-0.6l5.5-5.6c0.5-0.5,0.9-0.9,1.2-1.4s0.7-0.9,0.9-1.3s0.4-0.8,0.6-1.3c0.1-0.4,0.2-0.9,0.2-1.4
			c0-0.4-0.1-0.8-0.2-1.2c-0.1-0.3-0.3-0.6-0.5-0.8c-0.2-0.2-0.5-0.4-0.8-0.5s-0.7-0.2-1.1-0.2c-0.4,0-0.7,0.1-1,0.2
			s-0.6,0.3-0.8,0.4s-0.5,0.4-0.6,0.7s-0.3,0.5-0.4,0.8c-0.1,0.4-0.3,0.6-0.6,0.8c-0.2,0.1-0.6,0.2-1,0.1l-1.6-0.3
			c0.1-0.9,0.4-1.6,0.7-2.3c0.4-0.7,0.8-1.2,1.4-1.7s1.2-0.8,1.9-1s1.5-0.3,2.3-0.3s1.6,0.1,2.3,0.4c0.7,0.2,1.3,0.6,1.8,1.1
			s0.9,1,1.2,1.6s0.4,1.4,0.4,2.1s-0.1,1.3-0.3,1.9s-0.5,1.1-0.8,1.6s-0.7,1-1.2,1.5c-0.4,0.5-0.9,1-1.4,1.5l-4.1,4.2
			c0.4-0.1,0.8-0.2,1.2-0.3c0.4-0.1,0.8-0.1,1.1-0.1L147.8,423.2L147.8,423.2z"/>
		<path class="st11" d="M163.9,407.8v1.4c0,0.4,0,0.7-0.1,1c-0.1,0.2-0.2,0.5-0.3,0.6l-6.9,14.2c-0.1,0.3-0.3,0.5-0.6,0.8
			c-0.3,0.2-0.6,0.3-1,0.3h-2.3l7.1-13.9c0.2-0.3,0.3-0.5,0.5-0.8c0.2-0.2,0.3-0.5,0.5-0.7H152c-0.2,0-0.4-0.1-0.5-0.2
			s-0.2-0.3-0.2-0.5v-2.1L163.9,407.8L163.9,407.8z"/>
		<path class="st11" d="M172.4,426.1v-13h1.9c0.4,0,0.7,0.2,0.8,0.6l0.2,1c0.2-0.3,0.5-0.5,0.7-0.7s0.5-0.4,0.8-0.5
			c0.3-0.2,0.6-0.3,0.9-0.4c0.3-0.1,0.7-0.1,1.1-0.1c0.8,0,1.5,0.2,2,0.7c0.5,0.4,0.9,1,1.2,1.8c0.2-0.4,0.5-0.8,0.8-1.1
			c0.3-0.3,0.6-0.6,1-0.8c0.4-0.2,0.7-0.3,1.2-0.4c0.4-0.1,0.8-0.1,1.2-0.1c0.7,0,1.4,0.1,1.9,0.3c0.6,0.2,1,0.5,1.4,1
			c0.4,0.4,0.7,0.9,0.9,1.5s0.3,1.3,0.3,2.1v8.2h-3.1V418c0-0.8-0.2-1.4-0.5-1.9s-0.9-0.6-1.6-0.6c-0.3,0-0.6,0.1-0.9,0.2
			c-0.3,0.1-0.5,0.3-0.7,0.5s-0.4,0.5-0.5,0.8s-0.2,0.7-0.2,1.1v8.2H180v-8.2c0-0.9-0.2-1.5-0.5-1.9s-0.9-0.6-1.5-0.6
			c-0.5,0-0.9,0.1-1.3,0.3c-0.4,0.2-0.8,0.5-1.1,0.9v9.5h-3.2V426.1z"/>
		<path class="st11" d="M201.5,415.6c-0.1,0.1-0.2,0.2-0.3,0.3c-0.1,0.1-0.2,0.1-0.4,0.1s-0.3,0-0.5-0.1s-0.4-0.2-0.6-0.3
			c-0.2-0.1-0.5-0.2-0.8-0.3c-0.3-0.1-0.6-0.1-1-0.1c-0.6,0-1.1,0.1-1.4,0.4c-0.3,0.3-0.5,0.6-0.5,1c0,0.3,0.1,0.5,0.3,0.7
			s0.4,0.4,0.7,0.5s0.6,0.3,1,0.4s0.8,0.2,1.2,0.4c0.4,0.1,0.8,0.3,1.2,0.5s0.7,0.4,1,0.7s0.5,0.6,0.7,1s0.3,0.8,0.3,1.3
			c0,0.6-0.1,1.2-0.3,1.7s-0.6,1-1,1.4s-1,0.7-1.6,0.9c-0.6,0.2-1.4,0.3-2.2,0.3c-0.4,0-0.9,0-1.3-0.1c-0.4-0.1-0.8-0.2-1.2-0.3
			c-0.4-0.1-0.8-0.3-1.1-0.5s-0.6-0.4-0.9-0.6l0.7-1.2c0.1-0.1,0.2-0.3,0.3-0.3c0.1-0.1,0.3-0.1,0.5-0.1s0.4,0.1,0.5,0.2
			c0.2,0.1,0.4,0.2,0.6,0.4c0.2,0.1,0.5,0.2,0.8,0.4c0.3,0.1,0.7,0.2,1.2,0.2c0.4,0,0.7,0,1-0.1s0.5-0.2,0.7-0.3
			c0.2-0.1,0.3-0.3,0.4-0.5s0.1-0.4,0.1-0.6c0-0.3-0.1-0.6-0.3-0.7c-0.2-0.2-0.4-0.4-0.7-0.5s-0.6-0.3-1-0.4s-0.8-0.2-1.2-0.4
			c-0.4-0.1-0.8-0.3-1.2-0.5s-0.7-0.4-1-0.7s-0.5-0.6-0.7-1s-0.3-0.9-0.3-1.5c0-0.5,0.1-1,0.3-1.5s0.5-0.9,0.9-1.3s0.9-0.6,1.5-0.9
			c0.6-0.2,1.3-0.3,2.1-0.3c0.9,0,1.7,0.1,2.4,0.4s1.3,0.7,1.8,1.2L201.5,415.6z"/>
	</g>
	<g>
		<path class="st6" d="M647.5,158.4h-2.7c-0.5,0-0.9-0.2-1.1-0.6l-3.4-5.1c-0.1-0.2-0.3-0.3-0.4-0.4s-0.4-0.1-0.7-0.1H638v6.2h-3
			v-15.9h4.9c1.1,0,2,0.1,2.8,0.3s1.4,0.5,1.9,0.9s0.9,0.9,1.1,1.5c0.2,0.6,0.4,1.2,0.4,1.9c0,0.5-0.1,1-0.2,1.5s-0.4,0.9-0.7,1.3
			s-0.7,0.7-1.1,1s-0.9,0.5-1.5,0.7c0.2,0.1,0.4,0.2,0.5,0.4c0.2,0.2,0.3,0.3,0.4,0.5L647.5,158.4z M639.9,150c0.6,0,1-0.1,1.5-0.2
			c0.4-0.1,0.8-0.3,1-0.6c0.3-0.2,0.5-0.5,0.6-0.9c0.1-0.3,0.2-0.7,0.2-1.1c0-0.8-0.3-1.4-0.8-1.9c-0.5-0.4-1.3-0.7-2.4-0.7h-2v5.3
			L639.9,150L639.9,150z"/>
		<path class="st6" d="M654.4,144.8v4.4h5.6v2.3h-5.6v4.5h7.1v2.4h-10.1v-15.9h10.1v2.4L654.4,144.8L654.4,144.8z"/>
		<path class="st6" d="M671.5,142.4c1.1,0,2,0.1,2.8,0.4c0.8,0.3,1.4,0.6,1.9,1s0.9,1,1.1,1.6c0.2,0.6,0.4,1.3,0.4,2.1
			s-0.1,1.5-0.4,2.1c-0.3,0.6-0.6,1.2-1.2,1.7c-0.5,0.5-1.2,0.8-1.9,1.1c-0.8,0.3-1.7,0.4-2.7,0.4h-2.2v5.6h-3v-15.9h5.2V142.4z
			 M671.5,150.4c0.5,0,1-0.1,1.4-0.2s0.7-0.3,1-0.6s0.5-0.6,0.6-0.9c0.1-0.4,0.2-0.8,0.2-1.2s-0.1-0.8-0.2-1.2
			c-0.1-0.3-0.3-0.6-0.6-0.9c-0.3-0.2-0.6-0.4-1-0.6c-0.4-0.1-0.9-0.2-1.4-0.2h-2.2v5.7L671.5,150.4L671.5,150.4z"/>
		<path class="st6" d="M691.5,155.9v2.4h-9.3v-15.9h3v13.5H691.5z"/>
		<path class="st6" d="M698.8,158.4h-3v-15.9h3V158.4z"/>
		<path class="st6" d="M715.5,154.6c0.2,0,0.3,0.1,0.4,0.2l1.2,1.3c-0.6,0.8-1.4,1.4-2.4,1.8s-2.1,0.6-3.4,0.6
			c-1.2,0-2.2-0.2-3.2-0.6c-0.9-0.4-1.8-1-2.4-1.7c-0.7-0.7-1.2-1.6-1.5-2.6c-0.4-1-0.5-2.1-0.5-3.3s0.2-2.3,0.6-3.3
			c0.4-1,0.9-1.9,1.6-2.6c0.7-0.7,1.5-1.3,2.5-1.7s2-0.6,3.2-0.6s2.2,0.2,3.1,0.6s1.7,0.9,2.3,1.5l-1,1.4c-0.1,0.1-0.1,0.2-0.2,0.2
			c-0.1,0.1-0.2,0.1-0.4,0.1c-0.1,0-0.2,0-0.3-0.1s-0.2-0.1-0.4-0.2c-0.1-0.1-0.3-0.2-0.5-0.3s-0.4-0.2-0.6-0.3s-0.5-0.2-0.8-0.2
			c-0.3-0.1-0.7-0.1-1.1-0.1c-0.7,0-1.4,0.1-2,0.4s-1.1,0.6-1.5,1.1s-0.8,1.1-1,1.8s-0.4,1.5-0.4,2.4s0.1,1.7,0.4,2.4
			c0.3,0.7,0.6,1.3,1,1.8s0.9,0.8,1.5,1.1s1.2,0.4,1.9,0.4c0.4,0,0.8,0,1.1-0.1s0.6-0.1,0.9-0.2s0.5-0.2,0.8-0.4
			c0.2-0.2,0.5-0.3,0.7-0.6c0.1-0.1,0.2-0.1,0.2-0.2C715.3,154.6,715.4,154.6,715.5,154.6z"/>
		<path class="st6" d="M735,158.4h-2.3c-0.3,0-0.5-0.1-0.6-0.2c-0.2-0.1-0.3-0.3-0.4-0.5l-1.2-3.3h-6.6l-1.2,3.3
			c-0.1,0.2-0.2,0.3-0.3,0.5c-0.2,0.1-0.4,0.2-0.6,0.2h-2.3l6.3-15.9h3L735,158.4z M729.8,152.4l-1.9-5.3c-0.1-0.2-0.2-0.5-0.3-0.8
			s-0.2-0.7-0.3-1c-0.1,0.4-0.2,0.7-0.3,1.1c-0.1,0.3-0.2,0.6-0.3,0.9l-1.9,5.3h5V152.4z"/>
		<path class="st6" d="M748.5,144.9h-4.8v13.5h-3v-13.5h-4.8v-2.4h12.6V144.9z"/>
		<path class="st6" d="M755.7,158.4h-3v-15.9h3V158.4z"/>
		<path class="st6" d="M776.7,150.4c0,1.2-0.2,2.3-0.6,3.2c-0.4,1-0.9,1.9-1.6,2.6c-0.7,0.7-1.6,1.3-2.5,1.7s-2.1,0.6-3.3,0.6
			s-2.3-0.2-3.3-0.6c-1-0.4-1.8-1-2.6-1.7c-0.7-0.7-1.3-1.6-1.6-2.6s-0.6-2.1-0.6-3.2s0.2-2.3,0.6-3.2s0.9-1.9,1.6-2.6
			c0.7-0.7,1.6-1.3,2.6-1.7s2.1-0.6,3.3-0.6c0.8,0,1.6,0.1,2.3,0.3s1.4,0.5,2,0.8s1.1,0.8,1.6,1.2c0.5,0.5,0.9,1,1.2,1.6
			s0.6,1.3,0.8,2C776.6,148.9,776.7,149.6,776.7,150.4z M773.7,150.4c0-0.9-0.1-1.7-0.4-2.4c-0.2-0.7-0.6-1.3-1-1.8s-1-0.9-1.6-1.1
			c-0.6-0.3-1.3-0.4-2.1-0.4s-1.5,0.1-2.1,0.4c-0.6,0.3-1.2,0.6-1.6,1.1c-0.4,0.5-0.8,1.1-1,1.8s-0.4,1.5-0.4,2.4s0.1,1.7,0.4,2.4
			s0.6,1.3,1,1.8s1,0.9,1.6,1.1c0.6,0.3,1.3,0.4,2.1,0.4s1.5-0.1,2.1-0.4c0.6-0.3,1.1-0.6,1.6-1.1s0.8-1.1,1-1.8
			C773.6,152.1,773.7,151.3,773.7,150.4z"/>
		<path class="st6" d="M795,142.4v15.9h-1.5c-0.2,0-0.4,0-0.6-0.1s-0.3-0.2-0.5-0.4l-8.3-10.6c0,0.5,0.1,0.9,0.1,1.3v9.8h-2.6v-15.9
			h1.6c0.1,0,0.2,0,0.3,0s0.2,0,0.2,0.1c0.1,0,0.1,0.1,0.2,0.1c0.1,0.1,0.1,0.1,0.2,0.2l8.4,10.7c0-0.3,0-0.5-0.1-0.8s0-0.5,0-0.7
			v-9.7L795,142.4L795,142.4z"/>
		<path class="st6" d="M821.7,142.4v15.9h-3v-7h-7.5v7h-3v-15.9h3v6.9h7.5v-6.9H821.7z"/>
		<path class="st6" d="M833.9,156c0.6,0,1.1-0.1,1.5-0.3c0.5-0.2,0.8-0.5,1.1-0.8s0.5-0.8,0.7-1.3s0.2-1,0.2-1.7v-9.5h3v9.5
			c0,0.9-0.2,1.8-0.5,2.6s-0.7,1.5-1.3,2.1s-1.3,1-2.1,1.4c-0.8,0.3-1.7,0.5-2.8,0.5c-1,0-2-0.2-2.8-0.5s-1.5-0.8-2.1-1.4
			s-1-1.3-1.3-2.1s-0.5-1.7-0.5-2.6v-9.5h3v9.5c0,0.6,0.1,1.2,0.2,1.7c0.2,0.5,0.4,0.9,0.7,1.3c0.3,0.3,0.7,0.6,1.1,0.8
			C832.8,155.9,833.3,156,833.9,156z"/>
		<path class="st6" d="M851.6,142.4c1,0,1.9,0.1,2.7,0.3c0.7,0.2,1.4,0.5,1.8,0.8c0.5,0.4,0.8,0.8,1,1.3s0.3,1.1,0.3,1.8
			c0,0.4-0.1,0.7-0.2,1.1s-0.3,0.7-0.5,1s-0.5,0.6-0.9,0.8s-0.8,0.4-1.3,0.6c2.2,0.5,3.3,1.7,3.3,3.6c0,0.7-0.1,1.3-0.4,1.9
			c-0.3,0.6-0.6,1.1-1.1,1.5s-1.1,0.7-1.8,1c-0.7,0.2-1.5,0.4-2.5,0.4h-6v-15.9h5.6V142.4z M849,144.7v4.6h2.4c1,0,1.8-0.2,2.3-0.6
			s0.8-1,0.8-1.8s-0.2-1.4-0.7-1.8c-0.5-0.4-1.2-0.5-2.2-0.5H849V144.7z M852,156.1c0.6,0,1-0.1,1.4-0.2c0.4-0.1,0.7-0.3,0.9-0.5
			s0.4-0.5,0.5-0.8s0.1-0.6,0.1-0.9c0-0.3-0.1-0.7-0.2-0.9c-0.1-0.3-0.3-0.5-0.5-0.7s-0.5-0.3-0.9-0.4c-0.4-0.1-0.8-0.2-1.3-0.2h-3
			v4.7h3V156.1z"/>
		<path class="st12" d="M871.8,150.6c0,1.5,0.2,3,0.6,4.5c0.4,1.5,0.9,2.8,1.6,4.1c0.1,0.1,0.1,0.3,0.1,0.4c0,0.1,0,0.2,0,0.3
			s-0.1,0.2-0.1,0.2c-0.1,0.1-0.1,0.1-0.2,0.2l-1.2,0.7c-0.5-0.8-1-1.7-1.4-2.5s-0.7-1.7-0.9-2.6c-0.2-0.9-0.4-1.7-0.5-2.6
			c-0.1-0.9-0.2-1.8-0.2-2.7s0.1-1.8,0.2-2.7c0.1-0.9,0.3-1.8,0.5-2.6c0.2-0.9,0.6-1.7,0.9-2.6c0.4-0.8,0.8-1.7,1.4-2.5l1.2,0.7
			c0.1,0,0.1,0.1,0.2,0.2c0.1,0.1,0.1,0.1,0.1,0.2c0,0.1,0,0.2,0,0.3s-0.1,0.2-0.1,0.4c-0.7,1.3-1.2,2.7-1.6,4.1
			C872,147.6,871.8,149.1,871.8,150.6z"/>
		<path class="st12" d="M887.9,155.8c0.3,0,0.5,0.1,0.7,0.2s0.3,0.4,0.3,0.7v1.6H878v-0.9c0-0.2,0-0.4,0.1-0.6s0.2-0.4,0.4-0.5
			l4.8-4.9c0.4-0.4,0.8-0.8,1.1-1.2s0.6-0.7,0.8-1.1c0.2-0.4,0.4-0.7,0.5-1.1c0.1-0.4,0.2-0.8,0.2-1.2s-0.1-0.7-0.2-1
			s-0.3-0.5-0.5-0.7s-0.4-0.3-0.7-0.4c-0.3-0.1-0.6-0.1-1-0.1c-0.3,0-0.6,0-0.9,0.1s-0.5,0.2-0.7,0.4s-0.4,0.4-0.5,0.6
			c-0.1,0.2-0.3,0.5-0.3,0.7c-0.1,0.3-0.3,0.6-0.5,0.7s-0.5,0.1-0.9,0.1l-1.4-0.3c0.1-0.8,0.3-1.4,0.6-2s0.7-1.1,1.2-1.4
			c0.5-0.4,1-0.7,1.6-0.9s1.3-0.3,2-0.3s1.4,0.1,2,0.3s1.1,0.5,1.6,0.9s0.8,0.9,1,1.4c0.2,0.6,0.4,1.2,0.4,1.9
			c0,0.6-0.1,1.1-0.3,1.6s-0.4,1-0.7,1.4c-0.3,0.5-0.6,0.9-1,1.3s-0.8,0.9-1.2,1.3l-3.6,3.7c0.3-0.1,0.7-0.2,1-0.2s0.7-0.1,1-0.1
			H887.9z"/>
		<path class="st12" d="M895.1,150.6c0-1.5-0.2-3-0.5-4.5c-0.4-1.5-0.9-2.8-1.6-4.1c-0.1-0.2-0.1-0.3-0.1-0.4s0-0.2,0-0.3
			s0.1-0.2,0.1-0.2c0.1-0.1,0.1-0.1,0.2-0.2l1.2-0.7c0.5,0.8,1,1.7,1.4,2.5s0.7,1.7,0.9,2.6c0.2,0.9,0.4,1.7,0.5,2.6
			c0.1,0.9,0.2,1.8,0.2,2.7s-0.1,1.8-0.2,2.7c-0.1,0.9-0.3,1.8-0.5,2.6c-0.2,0.9-0.6,1.7-0.9,2.6c-0.4,0.8-0.8,1.7-1.4,2.5l-1.2-0.7
			c-0.1,0-0.2-0.1-0.2-0.2s-0.1-0.1-0.1-0.2s0-0.2,0-0.3s0.1-0.2,0.1-0.4c0.7-1.3,1.2-2.7,1.6-4.1
			C894.9,153.6,895.1,152.1,895.1,150.6z"/>
	</g>
	<g>
		<path class="st4" d="M643.5,302.7c-0.1,0.2-0.2,0.3-0.3,0.3c-0.1,0.1-0.2,0.1-0.4,0.1s-0.3-0.1-0.5-0.2s-0.4-0.2-0.6-0.4
			s-0.5-0.3-0.9-0.4c-0.3-0.1-0.7-0.2-1.2-0.2c-0.4,0-0.8,0-1.1,0.1s-0.6,0.2-0.8,0.4c-0.2,0.2-0.4,0.4-0.5,0.6s-0.2,0.5-0.2,0.8
			c0,0.4,0.1,0.7,0.3,0.9c0.2,0.3,0.5,0.5,0.8,0.6c0.3,0.2,0.7,0.3,1.2,0.5c0.4,0.1,0.9,0.3,1.4,0.4c0.5,0.2,0.9,0.3,1.4,0.6
			c0.4,0.2,0.8,0.5,1.2,0.8c0.3,0.3,0.6,0.7,0.8,1.2s0.3,1,0.3,1.7s-0.1,1.4-0.4,2s-0.6,1.2-1.1,1.6c-0.5,0.5-1.1,0.8-1.7,1.1
			s-1.5,0.4-2.3,0.4c-0.5,0-1,0-1.5-0.1s-1-0.2-1.4-0.4c-0.5-0.2-0.9-0.4-1.3-0.7c-0.4-0.3-0.7-0.5-1.1-0.9l0.9-1.4
			c0.1-0.1,0.2-0.2,0.3-0.3s0.2-0.1,0.4-0.1s0.4,0.1,0.6,0.2c0.2,0.2,0.5,0.3,0.8,0.5s0.6,0.4,1,0.5c0.4,0.2,0.9,0.2,1.4,0.2
			c0.8,0,1.5-0.2,2-0.6s0.7-1,0.7-1.7c0-0.4-0.1-0.8-0.3-1s-0.5-0.5-0.8-0.7s-0.7-0.3-1.2-0.5c-0.4-0.1-0.9-0.3-1.3-0.4
			c-0.5-0.1-0.9-0.3-1.3-0.5c-0.4-0.2-0.8-0.5-1.2-0.8c-0.3-0.3-0.6-0.7-0.8-1.2s-0.3-1.1-0.3-1.8c0-0.6,0.1-1.1,0.3-1.7
			s0.6-1,1-1.5c0.4-0.4,1-0.8,1.6-1c0.6-0.3,1.4-0.4,2.2-0.4c0.9,0,1.8,0.1,2.6,0.4s1.5,0.7,2,1.2L643.5,302.7z"/>
		<path class="st4" d="M665.4,318.9H663c-0.4,0-0.7,0-1-0.1s-0.5-0.3-0.8-0.5l-2.3-2.6c-0.4,0.1-0.8,0.2-1.2,0.2s-0.8,0.1-1.2,0.1
			c-1.2,0-2.3-0.2-3.3-0.6s-1.8-1-2.6-1.7c-0.7-0.7-1.3-1.6-1.6-2.6s-0.6-2.1-0.6-3.2s0.2-2.3,0.6-3.2s0.9-1.9,1.6-2.6
			c0.7-0.7,1.6-1.3,2.6-1.7c1-0.4,2.1-0.6,3.3-0.6c0.8,0,1.6,0.1,2.3,0.3s1.4,0.5,2,0.8s1.1,0.8,1.6,1.2c0.5,0.5,0.9,1,1.2,1.6
			s0.6,1.3,0.8,2s0.3,1.4,0.3,2.2c0,0.7-0.1,1.4-0.2,2c-0.1,0.7-0.4,1.3-0.6,1.8c-0.3,0.6-0.6,1.1-1,1.6s-0.8,0.9-1.4,1.3
			L665.4,318.9z M651.4,307.8c0,0.9,0.1,1.7,0.4,2.4s0.6,1.3,1,1.8s1,0.9,1.6,1.1s1.3,0.4,2.1,0.4s1.5-0.1,2.1-0.4s1.1-0.6,1.6-1.1
			s0.8-1.1,1-1.8s0.4-1.5,0.4-2.4s-0.1-1.7-0.4-2.4s-0.6-1.3-1-1.8s-1-0.9-1.6-1.1s-1.3-0.4-2.1-0.4s-1.5,0.1-2.1,0.4
			s-1.2,0.6-1.6,1.1s-0.8,1.1-1,1.8S651.4,306.9,651.4,307.8z"/>
		<path class="st4" d="M678.7,313.3v2.4h-9.3v-15.9h3v13.5H678.7z"/>
		<path class="st4" d="M692.9,302.2v4.4h5.6v2.3h-5.6v4.5h7.1v2.4h-10.1v-15.9H700v2.4L692.9,302.2L692.9,302.2z"/>
		<path class="st4" d="M716,302.3h-4.8v13.5h-3v-13.5h-4.8v-2.4H716V302.3z"/>
		<path class="st4" d="M729.6,313.3v2.4h-9.3v-15.9h3v13.5H729.6z"/>
	</g>
	<g>
		<path class="st3" d="M805.6,533.8c-0.1,0.2-0.2,0.3-0.3,0.3c-0.1,0.1-0.2,0.1-0.4,0.1s-0.3-0.1-0.5-0.2c-0.2-0.1-0.4-0.2-0.6-0.4
			s-0.5-0.3-0.9-0.4c-0.3-0.1-0.7-0.2-1.2-0.2c-0.4,0-0.8,0-1.1,0.1s-0.6,0.2-0.8,0.4s-0.4,0.4-0.5,0.6c-0.1,0.2-0.2,0.5-0.2,0.8
			c0,0.4,0.1,0.7,0.3,0.9c0.2,0.3,0.5,0.5,0.8,0.6c0.3,0.2,0.7,0.3,1.2,0.5c0.4,0.1,0.9,0.3,1.4,0.4s0.9,0.3,1.4,0.6
			c0.4,0.2,0.8,0.5,1.2,0.8c0.3,0.3,0.6,0.7,0.8,1.2s0.3,1,0.3,1.7s-0.1,1.4-0.4,2s-0.6,1.2-1.1,1.6c-0.5,0.5-1.1,0.8-1.7,1.1
			c-0.7,0.3-1.5,0.4-2.3,0.4c-0.5,0-1,0-1.5-0.1s-1-0.2-1.4-0.4c-0.5-0.2-0.9-0.4-1.3-0.7c-0.4-0.3-0.7-0.5-1.1-0.9l0.9-1.4
			c0.1-0.1,0.2-0.2,0.3-0.3s0.2-0.1,0.4-0.1s0.4,0.1,0.6,0.2c0.2,0.2,0.5,0.3,0.8,0.5s0.6,0.4,1,0.5c0.4,0.2,0.9,0.2,1.4,0.2
			c0.8,0,1.5-0.2,2-0.6c0.5-0.4,0.7-1,0.7-1.7c0-0.4-0.1-0.8-0.3-1s-0.5-0.5-0.8-0.7s-0.7-0.3-1.2-0.5c-0.4-0.1-0.9-0.3-1.3-0.4
			c-0.5-0.1-0.9-0.3-1.3-0.5c-0.4-0.2-0.8-0.5-1.2-0.8s-0.6-0.7-0.8-1.2s-0.3-1.1-0.3-1.8c0-0.6,0.1-1.1,0.3-1.7
			c0.2-0.6,0.6-1,1-1.5c0.4-0.4,1-0.8,1.6-1c0.6-0.3,1.4-0.4,2.2-0.4c0.9,0,1.8,0.1,2.6,0.4s1.5,0.7,2,1.2L805.6,533.8z"/>
		<path class="st3" d="M817.8,544.5c0.6,0,1.1-0.1,1.5-0.3s0.8-0.5,1.1-0.8s0.5-0.8,0.7-1.3s0.2-1,0.2-1.7v-9.5h3v9.5
			c0,0.9-0.2,1.8-0.5,2.6s-0.7,1.5-1.3,2.1s-1.3,1-2.1,1.4c-0.8,0.3-1.7,0.5-2.8,0.5c-1,0-2-0.2-2.8-0.5s-1.5-0.8-2.1-1.4
			s-1-1.3-1.3-2.1s-0.5-1.7-0.5-2.6v-9.5h3v9.5c0,0.6,0.1,1.2,0.2,1.7c0.2,0.5,0.4,0.9,0.7,1.3c0.3,0.3,0.7,0.6,1.1,0.8
			C816.7,544.4,817.3,544.5,817.8,544.5z"/>
		<path class="st3" d="M835.5,530.9c1,0,1.9,0.1,2.7,0.3s1.4,0.5,1.8,0.8c0.5,0.4,0.8,0.8,1,1.3s0.3,1.1,0.3,1.8
			c0,0.4-0.1,0.7-0.2,1.1c-0.1,0.3-0.3,0.7-0.5,1s-0.5,0.6-0.9,0.8s-0.8,0.4-1.3,0.6c2.2,0.5,3.3,1.7,3.3,3.6c0,0.7-0.1,1.3-0.4,1.9
			c-0.3,0.6-0.6,1.1-1.1,1.5s-1.1,0.7-1.8,1c-0.7,0.2-1.5,0.4-2.5,0.4h-6v-15.9h5.6V530.9z M833,533.2v4.6h2.4c1,0,1.8-0.2,2.3-0.6
			c0.5-0.4,0.8-1,0.8-1.8s-0.2-1.4-0.7-1.8c-0.5-0.4-1.2-0.5-2.2-0.5L833,533.2L833,533.2z M836,544.5c0.6,0,1-0.1,1.4-0.2
			c0.4-0.1,0.7-0.3,0.9-0.5s0.4-0.5,0.5-0.8s0.1-0.6,0.1-0.9c0-0.3-0.1-0.7-0.2-0.9s-0.3-0.5-0.5-0.7s-0.5-0.3-0.9-0.4
			c-0.4-0.1-0.8-0.2-1.3-0.2h-3v4.7L836,544.5L836,544.5z"/>
		<path class="st3" d="M855.2,533.8c-0.1,0.2-0.2,0.3-0.3,0.3c-0.1,0.1-0.2,0.1-0.4,0.1s-0.3-0.1-0.5-0.2c-0.2-0.1-0.4-0.2-0.6-0.4
			s-0.5-0.3-0.9-0.4c-0.3-0.1-0.7-0.2-1.2-0.2c-0.4,0-0.8,0-1.1,0.1s-0.6,0.2-0.8,0.4s-0.4,0.4-0.5,0.6c-0.1,0.2-0.2,0.5-0.2,0.8
			c0,0.4,0.1,0.7,0.3,0.9c0.2,0.3,0.5,0.5,0.8,0.6c0.3,0.2,0.7,0.3,1.2,0.5c0.4,0.1,0.9,0.3,1.4,0.4s0.9,0.3,1.4,0.6
			c0.4,0.2,0.8,0.5,1.2,0.8c0.3,0.3,0.6,0.7,0.8,1.2s0.3,1,0.3,1.7s-0.1,1.4-0.4,2s-0.6,1.2-1.1,1.6c-0.5,0.5-1.1,0.8-1.7,1.1
			c-0.7,0.3-1.5,0.4-2.3,0.4c-0.5,0-1,0-1.5-0.1s-1-0.2-1.4-0.4c-0.5-0.2-0.9-0.4-1.3-0.7c-0.4-0.3-0.7-0.5-1.1-0.9l0.9-1.4
			c0.1-0.1,0.2-0.2,0.3-0.3s0.2-0.1,0.4-0.1s0.4,0.1,0.6,0.2c0.2,0.2,0.5,0.3,0.8,0.5s0.6,0.4,1,0.5c0.4,0.2,0.9,0.2,1.4,0.2
			c0.8,0,1.5-0.2,2-0.6c0.5-0.4,0.7-1,0.7-1.7c0-0.4-0.1-0.8-0.3-1s-0.5-0.5-0.8-0.7s-0.7-0.3-1.2-0.5c-0.4-0.1-0.9-0.3-1.3-0.4
			c-0.5-0.1-0.9-0.3-1.3-0.5c-0.4-0.2-0.8-0.5-1.2-0.8s-0.6-0.7-0.8-1.2s-0.3-1.1-0.3-1.8c0-0.6,0.1-1.1,0.3-1.7
			c0.2-0.6,0.6-1,1-1.5c0.4-0.4,1-0.8,1.6-1c0.6-0.3,1.4-0.4,2.2-0.4c0.9,0,1.8,0.1,2.6,0.4s1.5,0.7,2,1.2L855.2,533.8z"/>
		<path class="st3" d="M872,543.1c0.2,0,0.3,0.1,0.4,0.2l1.2,1.3c-0.6,0.8-1.4,1.4-2.4,1.8c-0.9,0.4-2.1,0.6-3.4,0.6
			c-1.2,0-2.2-0.2-3.2-0.6c-0.9-0.4-1.8-1-2.4-1.7s-1.2-1.6-1.5-2.6s-0.5-2.1-0.5-3.3s0.2-2.3,0.6-3.3c0.4-1,0.9-1.9,1.6-2.6
			c0.7-0.7,1.5-1.3,2.5-1.7s2-0.6,3.2-0.6s2.2,0.2,3.1,0.6c0.9,0.4,1.7,0.9,2.3,1.5l-1,1.4c-0.1,0.1-0.1,0.2-0.2,0.2
			c-0.1,0.1-0.2,0.1-0.4,0.1c-0.1,0-0.2,0-0.3-0.1s-0.2-0.1-0.4-0.2s-0.3-0.2-0.5-0.3s-0.4-0.2-0.6-0.3c-0.2-0.1-0.5-0.2-0.8-0.2
			c-0.3-0.1-0.7-0.1-1.1-0.1c-0.7,0-1.4,0.1-2,0.4s-1.1,0.6-1.5,1.1s-0.8,1.1-1,1.8s-0.4,1.5-0.4,2.4s0.1,1.7,0.4,2.4
			c0.3,0.7,0.6,1.3,1,1.8s0.9,0.8,1.5,1.1s1.2,0.4,1.9,0.4c0.4,0,0.8,0,1.1-0.1c0.3,0,0.6-0.1,0.9-0.2s0.5-0.2,0.8-0.4
			c0.2-0.2,0.5-0.3,0.7-0.6c0.1-0.1,0.2-0.1,0.2-0.2C871.8,543.1,871.9,543.1,872,543.1z"/>
		<path class="st3" d="M890.3,546.9h-2.7c-0.5,0-0.9-0.2-1.1-0.6l-3.4-5.1c-0.1-0.2-0.3-0.3-0.4-0.4c-0.2-0.1-0.4-0.1-0.7-0.1h-1.3
			v6.2h-3V531h4.9c1.1,0,2,0.1,2.8,0.3s1.4,0.5,1.9,0.9s0.9,0.9,1.1,1.5c0.2,0.6,0.4,1.2,0.4,1.9c0,0.5-0.1,1-0.2,1.5
			s-0.4,0.9-0.7,1.3s-0.7,0.7-1.1,1c-0.4,0.3-0.9,0.5-1.5,0.7c0.2,0.1,0.4,0.2,0.5,0.4c0.2,0.2,0.3,0.3,0.4,0.5L890.3,546.9z
			 M882.6,538.5c0.6,0,1-0.1,1.5-0.2c0.4-0.1,0.8-0.3,1-0.6c0.3-0.2,0.5-0.5,0.6-0.9c0.1-0.3,0.2-0.7,0.2-1.1c0-0.8-0.3-1.4-0.8-1.9
			c-0.5-0.4-1.3-0.7-2.4-0.7h-1.9v5.3h1.8V538.5z"/>
		<path class="st3" d="M897.2,546.9h-3V531h3V546.9z"/>
		<path class="st3" d="M908.1,530.9c1.1,0,2,0.1,2.8,0.4s1.4,0.6,1.9,1s0.9,1,1.1,1.6c0.2,0.6,0.4,1.3,0.4,2.1s-0.1,1.5-0.4,2.1
			c-0.3,0.6-0.6,1.2-1.2,1.7s-1.2,0.8-1.9,1.1c-0.8,0.3-1.7,0.4-2.7,0.4h-2.2v5.6h-3V531L908.1,530.9L908.1,530.9z M908.1,538.9
			c0.5,0,1-0.1,1.4-0.2c0.4-0.1,0.7-0.3,1-0.6s0.5-0.6,0.6-0.9c0.1-0.4,0.2-0.8,0.2-1.2s-0.1-0.8-0.2-1.2c-0.1-0.3-0.3-0.6-0.6-0.9
			c-0.3-0.2-0.6-0.4-1-0.6c-0.4-0.1-0.9-0.2-1.4-0.2h-2.2v5.7h2.2V538.9z"/>
		<path class="st3" d="M929.9,533.4h-4.8v13.5h-3v-13.5h-4.8V531h12.6V533.4z"/>
		<path class="st3" d="M937.2,546.9h-3V531h3V546.9z"/>
		<path class="st3" d="M958.2,538.9c0,1.2-0.2,2.3-0.6,3.2c-0.4,1-0.9,1.9-1.6,2.6c-0.7,0.7-1.6,1.3-2.5,1.7s-2.1,0.6-3.3,0.6
			s-2.3-0.2-3.3-0.6c-1-0.4-1.8-1-2.6-1.7c-0.7-0.7-1.3-1.6-1.6-2.6s-0.6-2.1-0.6-3.2s0.2-2.3,0.6-3.2s0.9-1.9,1.6-2.6
			c0.7-0.7,1.6-1.3,2.6-1.7s2.1-0.6,3.3-0.6c0.8,0,1.6,0.1,2.3,0.3s1.4,0.5,2,0.8s1.1,0.8,1.6,1.2c0.5,0.5,0.9,1,1.2,1.6
			s0.6,1.3,0.8,2C958.1,537.4,958.2,538.1,958.2,538.9z M955.2,538.9c0-0.9-0.1-1.7-0.4-2.4c-0.2-0.7-0.6-1.3-1-1.8s-1-0.9-1.6-1.1
			c-0.6-0.3-1.3-0.4-2.1-0.4s-1.5,0.1-2.1,0.4c-0.6,0.3-1.2,0.6-1.6,1.1c-0.4,0.5-0.8,1.1-1,1.8s-0.4,1.5-0.4,2.4s0.1,1.7,0.4,2.4
			s0.6,1.3,1,1.8s1,0.9,1.6,1.1c0.6,0.3,1.3,0.4,2.1,0.4s1.5-0.1,2.1-0.4c0.6-0.3,1.1-0.6,1.6-1.1s0.8-1.1,1-1.8
			C955,540.6,955.2,539.8,955.2,538.9z"/>
		<path class="st3" d="M976.4,530.9v15.9h-1.5c-0.2,0-0.4,0-0.6-0.1s-0.3-0.2-0.5-0.4l-8.3-10.6c0,0.5,0.1,0.9,0.1,1.3v9.8H963
			v-15.9h1.6c0.1,0,0.2,0,0.3,0s0.2,0,0.2,0.1c0.1,0,0.1,0.1,0.2,0.1c0.1,0.1,0.1,0.1,0.2,0.2l8.4,10.7c0-0.3,0-0.5-0.1-0.8
			s0-0.5,0-0.7v-9.7h2.6V530.9z"/>
	</g>
	<g>
		<path class="st11" d="M644.4,346.5v2.4H635V333h3v13.5H644.4z"/>
		<path class="st11" d="M647.6,343.6c0,0.6,0.1,1.1,0.3,1.5s0.4,0.8,0.6,1c0.3,0.3,0.6,0.5,0.9,0.6c0.4,0.1,0.8,0.2,1.2,0.2
			s0.8-0.1,1.1-0.2s0.6-0.2,0.8-0.3c0.2-0.1,0.4-0.2,0.6-0.3c0.2-0.1,0.4-0.2,0.5-0.2c0.2,0,0.4,0.1,0.5,0.3l0.8,1
			c-0.3,0.4-0.6,0.6-1,0.9s-0.8,0.4-1.2,0.6c-0.4,0.1-0.8,0.2-1.2,0.3c-0.4,0.1-0.8,0.1-1.2,0.1c-0.8,0-1.5-0.1-2.2-0.4
			s-1.3-0.6-1.8-1.2s-0.9-1.1-1.2-1.9s-0.4-1.6-0.4-2.6c0-0.8,0.1-1.5,0.4-2.2s0.6-1.3,1.1-1.8s1-0.9,1.7-1.2
			c0.7-0.3,1.4-0.4,2.3-0.4c0.7,0,1.4,0.1,2,0.3c0.6,0.2,1.1,0.6,1.6,1c0.4,0.4,0.8,1,1,1.6s0.4,1.4,0.4,2.2c0,0.4,0,0.7-0.1,0.8
			c-0.1,0.1-0.3,0.2-0.5,0.2h-7V343.6z M652.8,342c0-0.4,0-0.7-0.1-1s-0.2-0.6-0.4-0.8c-0.2-0.2-0.5-0.4-0.8-0.6
			c-0.3-0.1-0.7-0.2-1.1-0.2c-0.8,0-1.4,0.2-1.9,0.7c-0.5,0.4-0.7,1.1-0.9,1.9H652.8z"/>
		<path class="st11" d="M667.2,338v1c0,0.3-0.2,0.5-0.6,0.6l-1,0.2c0.2,0.4,0.2,0.8,0.2,1.3c0,0.6-0.1,1.1-0.3,1.5
			c-0.2,0.5-0.5,0.8-0.9,1.2c-0.4,0.3-0.9,0.6-1.4,0.7c-0.5,0.2-1.1,0.3-1.7,0.3c-0.2,0-0.4,0-0.6,0c-0.2,0-0.4-0.1-0.6-0.1
			c-0.4,0.2-0.5,0.5-0.5,0.7s0.1,0.4,0.3,0.5s0.5,0.2,0.8,0.2s0.7,0.1,1.2,0.1c0.4,0,0.9,0,1.4,0.1c0.5,0,0.9,0.1,1.4,0.2
			c0.4,0.1,0.8,0.2,1.2,0.4c0.3,0.2,0.6,0.5,0.8,0.8s0.3,0.8,0.3,1.3s-0.1,1-0.4,1.5c-0.2,0.5-0.6,0.9-1.1,1.3s-1,0.7-1.7,0.9
			c-0.7,0.2-1.5,0.3-2.3,0.3c-0.9,0-1.6-0.1-2.2-0.2c-0.6-0.2-1.2-0.4-1.6-0.7c-0.4-0.3-0.7-0.6-0.9-1s-0.3-0.7-0.3-1.1
			c0-0.5,0.2-1,0.5-1.3c0.3-0.4,0.8-0.6,1.3-0.9c-0.3-0.2-0.5-0.4-0.7-0.6c-0.2-0.3-0.3-0.6-0.3-1c0-0.2,0-0.3,0.1-0.5
			s0.2-0.4,0.3-0.5c0.1-0.2,0.3-0.3,0.5-0.5s0.4-0.3,0.7-0.4c-0.6-0.3-1-0.7-1.4-1.2c-0.3-0.5-0.5-1.1-0.5-1.8
			c0-0.6,0.1-1.1,0.3-1.5c0.2-0.5,0.5-0.8,0.9-1.2c0.4-0.3,0.9-0.6,1.4-0.7c0.5-0.2,1.1-0.3,1.8-0.3c0.5,0,0.9,0,1.4,0.1
			s0.8,0.2,1.2,0.4L667.2,338L667.2,338z M664.5,349.4c0-0.2-0.1-0.4-0.2-0.5c-0.1-0.1-0.3-0.2-0.5-0.3c-0.2-0.1-0.5-0.1-0.8-0.2
			c-0.3,0-0.6-0.1-1-0.1c-0.3,0-0.7,0-1.1,0c-0.4,0-0.7,0-1.1-0.1c-0.3,0.2-0.5,0.4-0.7,0.6s-0.3,0.5-0.3,0.8c0,0.2,0,0.4,0.1,0.6
			s0.3,0.3,0.5,0.4s0.5,0.2,0.8,0.3s0.8,0.1,1.3,0.1s0.9,0,1.3-0.1s0.7-0.2,0.9-0.3c0.2-0.1,0.4-0.3,0.5-0.5
			S664.5,349.7,664.5,349.4z M661.4,343c0.3,0,0.6,0,0.9-0.1s0.5-0.2,0.6-0.4c0.2-0.2,0.3-0.4,0.4-0.6c0.1-0.2,0.1-0.5,0.1-0.8
			c0-0.6-0.2-1-0.5-1.3s-0.8-0.5-1.5-0.5s-1.2,0.2-1.5,0.5s-0.5,0.8-0.5,1.3c0,0.3,0,0.5,0.1,0.7s0.2,0.4,0.4,0.6s0.4,0.3,0.6,0.4
			C660.8,343,661.1,343,661.4,343z"/>
		<path class="st11" d="M668.6,339.2c1.3-1.2,2.9-1.8,4.7-1.8c0.7,0,1.3,0.1,1.8,0.3c0.5,0.2,1,0.5,1.3,0.9c0.4,0.4,0.6,0.8,0.8,1.4
			s0.3,1.1,0.3,1.8v7.1h-1.2c-0.3,0-0.5,0-0.6-0.1s-0.3-0.2-0.3-0.5l-0.2-0.8c-0.3,0.3-0.6,0.5-0.8,0.7c-0.3,0.2-0.6,0.4-0.8,0.5
			s-0.6,0.2-0.9,0.3c-0.3,0.1-0.7,0.1-1.1,0.1c-0.5,0-0.9-0.1-1.3-0.2s-0.8-0.3-1-0.6s-0.5-0.6-0.7-1s-0.2-0.8-0.2-1.3
			c0-0.3,0-0.6,0.1-0.9s0.3-0.6,0.5-0.8s0.5-0.5,0.8-0.7s0.8-0.4,1.3-0.6s1.1-0.3,1.8-0.4s1.4-0.2,2.3-0.2v-0.7
			c0-0.8-0.2-1.3-0.5-1.7c-0.3-0.4-0.8-0.5-1.4-0.5c-0.4,0-0.8,0.1-1.1,0.2s-0.5,0.2-0.8,0.3c-0.2,0.1-0.4,0.2-0.6,0.3
			s-0.4,0.2-0.6,0.2c-0.2,0-0.4,0-0.5-0.1s-0.2-0.2-0.3-0.3L668.6,339.2z M674.9,344.1c-0.8,0-1.4,0.1-2,0.2c-0.5,0.1-1,0.2-1.3,0.4
			c-0.3,0.2-0.6,0.3-0.7,0.5c-0.1,0.2-0.2,0.4-0.2,0.7c0,0.5,0.1,0.8,0.4,1c0.3,0.2,0.7,0.3,1.1,0.3c0.6,0,1-0.1,1.5-0.3
			c0.4-0.2,0.8-0.5,1.2-0.9V344.1z"/>
		<path class="st11" d="M688.2,340c-0.1,0.1-0.2,0.2-0.2,0.2c-0.1,0.1-0.2,0.1-0.3,0.1s-0.3,0-0.4-0.1c-0.1-0.1-0.3-0.2-0.5-0.3
			c-0.2-0.1-0.4-0.2-0.7-0.3c-0.3-0.1-0.6-0.1-0.9-0.1c-0.5,0-0.9,0.1-1.3,0.3s-0.7,0.4-0.9,0.7c-0.2,0.3-0.4,0.7-0.5,1.2
			s-0.2,1-0.2,1.6s0.1,1.1,0.2,1.6c0.1,0.5,0.3,0.9,0.6,1.2c0.2,0.3,0.5,0.6,0.9,0.7c0.3,0.2,0.7,0.2,1.2,0.2s0.8-0.1,1.1-0.2
			s0.5-0.2,0.7-0.4c0.2-0.1,0.3-0.2,0.5-0.4c0.1-0.1,0.3-0.2,0.5-0.2s0.4,0.1,0.5,0.3l0.8,1c-0.3,0.4-0.6,0.6-1,0.9
			s-0.7,0.4-1.1,0.6c-0.4,0.1-0.8,0.2-1.2,0.3c-0.4,0.1-0.8,0.1-1.2,0.1c-0.7,0-1.4-0.1-2-0.4s-1.2-0.6-1.6-1.1s-0.8-1.1-1.1-1.8
			c-0.3-0.7-0.4-1.5-0.4-2.5c0-0.8,0.1-1.6,0.4-2.3c0.2-0.7,0.6-1.3,1.1-1.8s1-0.9,1.7-1.2s1.5-0.4,2.4-0.4c0.8,0,1.6,0.1,2.2,0.4
			s1.2,0.7,1.7,1.2L688.2,340z"/>
		<path class="st11" d="M701,337.6l-6.2,14.4c-0.1,0.2-0.2,0.3-0.3,0.4s-0.3,0.1-0.6,0.1h-2l2.1-4.5l-4.6-10.5h2.4
			c0.2,0,0.4,0.1,0.5,0.2s0.2,0.2,0.3,0.4l2.4,5.9c0.1,0.2,0.1,0.4,0.2,0.6c0.1,0.2,0.1,0.4,0.2,0.6c0.1-0.2,0.1-0.4,0.2-0.6
			s0.1-0.4,0.2-0.6l2.3-5.9c0.1-0.1,0.2-0.3,0.3-0.4s0.3-0.1,0.5-0.1H701z"/>
		<path class="st11" d="M710.6,335.3v4.4h5.6v2.3h-5.6v4.5h7.1v2.4h-10.1V333h10.1v2.4h-7.1V335.3z"/>
		<path class="st11" d="M731.4,335.4h-4.8v13.5h-3v-13.5h-4.8V333h12.6V335.4z"/>
		<path class="st11" d="M742.9,346.5v2.4h-9.3V333h3v13.5H742.9z"/>
	</g>
	<g>
		<path class="st11" d="M647.5,198.8h-2.7c-0.5,0-0.9-0.2-1.1-0.6l-3.4-5.1c-0.1-0.2-0.3-0.3-0.4-0.4s-0.4-0.1-0.7-0.1H638v6.2h-3
			v-15.9h4.9c1.1,0,2,0.1,2.8,0.3s1.4,0.5,1.9,0.9s0.9,0.9,1.1,1.5c0.2,0.6,0.4,1.2,0.4,1.9c0,0.5-0.1,1-0.2,1.5s-0.4,0.9-0.7,1.3
			s-0.7,0.7-1.1,1s-0.9,0.5-1.5,0.7c0.2,0.1,0.4,0.2,0.5,0.4c0.2,0.2,0.3,0.3,0.4,0.5L647.5,198.8z M639.9,190.4
			c0.6,0,1-0.1,1.5-0.2c0.4-0.1,0.8-0.3,1-0.6c0.3-0.2,0.5-0.5,0.6-0.9c0.1-0.3,0.2-0.7,0.2-1.1c0-0.8-0.3-1.4-0.8-1.9
			c-0.5-0.4-1.3-0.7-2.4-0.7h-2v5.3L639.9,190.4L639.9,190.4z"/>
		<path class="st11" d="M650.1,193.5c0,0.6,0.1,1.1,0.3,1.5s0.4,0.8,0.6,1c0.3,0.3,0.6,0.5,0.9,0.6c0.4,0.1,0.8,0.2,1.2,0.2
			s0.8-0.1,1.1-0.2c0.3-0.1,0.6-0.2,0.8-0.3s0.4-0.2,0.6-0.3c0.2-0.1,0.4-0.2,0.5-0.2c0.2,0,0.4,0.1,0.5,0.3l0.8,1
			c-0.3,0.4-0.6,0.6-1,0.9s-0.8,0.4-1.2,0.6c-0.4,0.1-0.8,0.2-1.2,0.3s-0.8,0.1-1.2,0.1c-0.8,0-1.5-0.1-2.2-0.4
			c-0.7-0.3-1.3-0.6-1.8-1.2s-0.9-1.1-1.2-1.9c-0.3-0.8-0.4-1.6-0.4-2.6c0-0.8,0.1-1.5,0.4-2.2s0.6-1.3,1.1-1.8s1-0.9,1.7-1.2
			s1.4-0.4,2.3-0.4c0.7,0,1.4,0.1,2,0.3s1.1,0.6,1.6,1c0.4,0.4,0.8,1,1,1.6s0.4,1.4,0.4,2.2c0,0.4,0,0.7-0.1,0.8s-0.3,0.2-0.5,0.2
			L650.1,193.5L650.1,193.5z M655.3,191.8c0-0.4,0-0.7-0.1-1s-0.2-0.6-0.4-0.8s-0.5-0.4-0.8-0.6c-0.3-0.1-0.7-0.2-1.1-0.2
			c-0.8,0-1.4,0.2-1.9,0.7c-0.5,0.4-0.7,1.1-0.9,1.9L655.3,191.8L655.3,191.8z"/>
		<path class="st11" d="M662.4,189c0.5-0.5,1-0.9,1.6-1.3c0.6-0.3,1.3-0.5,2.1-0.5c0.6,0,1.2,0.1,1.7,0.4c0.5,0.3,1,0.6,1.3,1.1
			c0.4,0.5,0.7,1.1,0.9,1.8s0.3,1.5,0.3,2.5c0,0.8-0.1,1.6-0.3,2.3s-0.6,1.3-1,1.9c-0.4,0.5-0.9,0.9-1.5,1.2s-1.3,0.4-2,0.4
			c-0.6,0-1.2-0.1-1.6-0.3c-0.4-0.2-0.8-0.5-1.2-0.8v4.6H660v-15h1.7c0.4,0,0.6,0.2,0.7,0.5V189z M662.5,195.9
			c0.3,0.4,0.6,0.6,1,0.8s0.8,0.2,1.2,0.2s0.8-0.1,1.1-0.2s0.6-0.4,0.8-0.7s0.4-0.7,0.5-1.2s0.2-1,0.2-1.7s-0.1-1.2-0.2-1.7
			s-0.3-0.8-0.5-1.1s-0.4-0.5-0.7-0.6s-0.6-0.2-1-0.2c-0.6,0-1,0.1-1.4,0.4c-0.4,0.2-0.8,0.6-1.1,1v5H662.5z"/>
		<path class="st11" d="M675.1,182.4v16.4h-2.7v-16.4H675.1z"/>
		<path class="st11" d="M681,184.2c0,0.2,0,0.5-0.1,0.7s-0.2,0.4-0.4,0.5s-0.3,0.3-0.6,0.4c-0.2,0.1-0.4,0.1-0.7,0.1
			c-0.2,0-0.5,0-0.7-0.1s-0.4-0.2-0.5-0.4s-0.3-0.3-0.4-0.5c-0.1-0.2-0.1-0.4-0.1-0.7c0-0.2,0-0.5,0.1-0.7s0.2-0.4,0.4-0.6
			s0.3-0.3,0.5-0.4c0.2-0.1,0.4-0.1,0.7-0.1c0.2,0,0.5,0,0.7,0.1s0.4,0.2,0.6,0.4s0.3,0.3,0.4,0.6C681,183.7,681,184,681,184.2z
			 M680.7,187.5v11.3H678v-11.3H680.7z"/>
		<path class="st11" d="M691.5,189.9c-0.1,0.1-0.2,0.2-0.2,0.2c-0.1,0.1-0.2,0.1-0.3,0.1s-0.3,0-0.4-0.1c-0.1-0.1-0.3-0.2-0.5-0.3
			s-0.4-0.2-0.7-0.3s-0.6-0.1-0.9-0.1c-0.5,0-0.9,0.1-1.3,0.3s-0.7,0.4-0.9,0.7s-0.4,0.7-0.5,1.2s-0.2,1-0.2,1.6s0.1,1.1,0.2,1.6
			c0.1,0.5,0.3,0.9,0.6,1.2c0.2,0.3,0.5,0.6,0.9,0.7c0.3,0.2,0.7,0.2,1.2,0.2s0.8-0.1,1.1-0.2c0.3-0.1,0.5-0.2,0.7-0.4
			c0.2-0.1,0.3-0.2,0.5-0.4c0.1-0.1,0.3-0.2,0.5-0.2s0.4,0.1,0.5,0.3l0.8,1c-0.3,0.4-0.6,0.6-1,0.9s-0.7,0.4-1.1,0.6
			c-0.4,0.1-0.8,0.2-1.2,0.3s-0.8,0.1-1.2,0.1c-0.7,0-1.4-0.1-2-0.4s-1.2-0.6-1.6-1.1s-0.8-1.1-1.1-1.8s-0.4-1.5-0.4-2.5
			c0-0.8,0.1-1.6,0.4-2.3c0.2-0.7,0.6-1.3,1.1-1.8s1-0.9,1.7-1.2s1.5-0.4,2.4-0.4c0.8,0,1.6,0.1,2.2,0.4s1.2,0.7,1.7,1.2
			L691.5,189.9z"/>
		<path class="st11" d="M693.8,189.1c1.3-1.2,2.9-1.8,4.7-1.8c0.7,0,1.3,0.1,1.8,0.3s1,0.5,1.3,0.9c0.4,0.4,0.6,0.8,0.8,1.4
			s0.3,1.1,0.3,1.8v7.1h-1.2c-0.3,0-0.5,0-0.6-0.1s-0.3-0.2-0.3-0.5l-0.2-0.8c-0.3,0.3-0.6,0.5-0.8,0.7c-0.3,0.2-0.6,0.4-0.8,0.5
			s-0.6,0.2-0.9,0.3c-0.3,0.1-0.7,0.1-1.1,0.1c-0.5,0-0.9-0.1-1.3-0.2s-0.8-0.3-1-0.6s-0.5-0.6-0.7-1s-0.2-0.8-0.2-1.3
			c0-0.3,0-0.6,0.1-0.9c0.1-0.3,0.3-0.6,0.5-0.8s0.5-0.5,0.8-0.7s0.8-0.4,1.3-0.6c0.5-0.2,1.1-0.3,1.8-0.4c0.7-0.1,1.4-0.2,2.3-0.2
			v-0.7c0-0.8-0.2-1.3-0.5-1.7s-0.8-0.5-1.4-0.5c-0.4,0-0.8,0.1-1.1,0.2c-0.3,0.1-0.5,0.2-0.8,0.3c-0.2,0.1-0.4,0.2-0.6,0.3
			s-0.4,0.2-0.6,0.2c-0.2,0-0.4,0-0.5-0.1s-0.2-0.2-0.3-0.3L693.8,189.1z M700,194c-0.8,0-1.4,0.1-2,0.2c-0.5,0.1-1,0.2-1.3,0.4
			s-0.6,0.3-0.7,0.5c-0.1,0.2-0.2,0.4-0.2,0.7c0,0.5,0.1,0.8,0.4,1c0.3,0.2,0.7,0.3,1.1,0.3c0.6,0,1-0.1,1.5-0.3
			c0.4-0.2,0.8-0.5,1.2-0.9V194z"/>
		<path class="st11" d="M716.5,198.8h-2.7v-9.3h-5.2v6.1c0,0.4,0.1,0.6,0.3,0.8s0.4,0.3,0.7,0.3c0.2,0,0.3,0,0.4-0.1
			s0.2-0.1,0.3-0.1s0.2-0.1,0.2-0.1c0.1,0,0.1-0.1,0.2-0.1c0.1,0,0.1,0,0.2,0.1c0.1,0,0.1,0.1,0.2,0.2l0.8,1.3
			c-0.4,0.3-0.9,0.6-1.4,0.8s-1,0.3-1.6,0.3c-1,0-1.7-0.3-2.3-0.8c-0.5-0.6-0.8-1.3-0.8-2.3v-6.3h-1.2c-0.1,0-0.3,0-0.4-0.1
			c-0.1-0.1-0.2-0.2-0.2-0.4V188l1.8-0.3l0.6-3.1c0-0.1,0.1-0.3,0.2-0.3c0.1-0.1,0.2-0.1,0.4-0.1h1.4v3.6h8L716.5,198.8L716.5,198.8
			z M717,184.2c0,0.2,0,0.5-0.1,0.7s-0.2,0.4-0.4,0.5c-0.2,0.2-0.3,0.3-0.6,0.4c-0.2,0.1-0.4,0.1-0.7,0.1c-0.2,0-0.5,0-0.7-0.1
			s-0.4-0.2-0.5-0.4s-0.3-0.3-0.4-0.5s-0.1-0.4-0.1-0.7c0-0.2,0-0.5,0.1-0.7s0.2-0.4,0.4-0.6s0.3-0.3,0.5-0.4
			c0.2-0.1,0.4-0.1,0.7-0.1c0.2,0,0.5,0,0.7,0.1s0.4,0.2,0.6,0.4c0.2,0.2,0.3,0.3,0.4,0.6S717,183.9,717,184.2z"/>
		<path class="st11" d="M724.3,187.3c0.8,0,1.6,0.1,2.3,0.4s1.3,0.7,1.8,1.2s0.9,1.1,1.1,1.8c0.3,0.7,0.4,1.5,0.4,2.4
			s-0.1,1.7-0.4,2.4c-0.3,0.7-0.6,1.3-1.1,1.8s-1.1,0.9-1.8,1.2s-1.5,0.4-2.3,0.4s-1.6-0.1-2.3-0.4s-1.3-0.7-1.8-1.2
			s-0.9-1.1-1.1-1.8c-0.3-0.7-0.4-1.5-0.4-2.4s0.1-1.7,0.4-2.4c0.3-0.7,0.6-1.3,1.1-1.8s1.1-0.9,1.8-1.2S723.5,187.3,724.3,187.3z
			 M724.3,196.9c0.9,0,1.6-0.3,2.1-0.9s0.7-1.6,0.7-2.8s-0.2-2.2-0.7-2.8s-1.1-1-2.1-1s-1.7,0.3-2.1,1c-0.5,0.6-0.7,1.6-0.7,2.8
			s0.2,2.1,0.7,2.8C722.6,196.6,723.3,196.9,724.3,196.9z"/>
		<path class="st11" d="M734.5,188.9c0.2-0.2,0.5-0.4,0.7-0.6c0.3-0.2,0.5-0.4,0.8-0.5s0.6-0.2,0.9-0.3c0.3-0.1,0.7-0.1,1.1-0.1
			c0.6,0,1.2,0.1,1.6,0.3c0.5,0.2,0.9,0.5,1.2,0.9s0.6,0.8,0.7,1.4c0.2,0.5,0.2,1.1,0.2,1.7v7.2H739v-7.2c0-0.7-0.2-1.2-0.5-1.6
			c-0.3-0.4-0.8-0.6-1.4-0.6c-0.5,0-0.9,0.1-1.3,0.3c-0.4,0.2-0.8,0.5-1.2,0.9v8.2H732v-11.3h1.7c0.4,0,0.6,0.2,0.7,0.5L734.5,188.9
			z"/>
		<path class="st11" d="M758,182.9v15.9h-1.5c-0.2,0-0.4,0-0.6-0.1s-0.3-0.2-0.5-0.4l-8.3-10.6c0,0.5,0.1,0.9,0.1,1.3v9.8h-2.6
			v-15.9h1.6c0.1,0,0.2,0,0.3,0s0.2,0,0.2,0.1c0.1,0,0.1,0.1,0.2,0.1c0.1,0.1,0.1,0.1,0.2,0.2l8.4,10.7c0-0.3,0-0.5-0.1-0.8
			s0-0.5,0-0.7v-9.7L758,182.9L758,182.9z"/>
		<path class="st11" d="M760.6,189.1c1.3-1.2,2.9-1.8,4.7-1.8c0.7,0,1.3,0.1,1.8,0.3s1,0.5,1.3,0.9c0.4,0.4,0.6,0.8,0.8,1.4
			s0.3,1.1,0.3,1.8v7.1h-1.2c-0.3,0-0.5,0-0.6-0.1s-0.3-0.2-0.3-0.5l-0.2-0.8c-0.3,0.3-0.6,0.5-0.8,0.7c-0.3,0.2-0.6,0.4-0.8,0.5
			s-0.6,0.2-0.9,0.3c-0.3,0.1-0.7,0.1-1.1,0.1c-0.5,0-0.9-0.1-1.3-0.2s-0.8-0.3-1-0.6s-0.5-0.6-0.7-1s-0.2-0.8-0.2-1.3
			c0-0.3,0-0.6,0.1-0.9c0.1-0.3,0.3-0.6,0.5-0.8s0.5-0.5,0.8-0.7s0.8-0.4,1.3-0.6c0.5-0.2,1.1-0.3,1.8-0.4c0.7-0.1,1.4-0.2,2.3-0.2
			v-0.7c0-0.8-0.2-1.3-0.5-1.7s-0.8-0.5-1.4-0.5c-0.4,0-0.8,0.1-1.1,0.2c-0.3,0.1-0.5,0.2-0.8,0.3c-0.2,0.1-0.4,0.2-0.6,0.3
			s-0.4,0.2-0.6,0.2c-0.2,0-0.4,0-0.5-0.1s-0.2-0.2-0.3-0.3L760.6,189.1z M766.9,194c-0.8,0-1.4,0.1-2,0.2c-0.5,0.1-1,0.2-1.3,0.4
			s-0.6,0.3-0.7,0.5c-0.1,0.2-0.2,0.4-0.2,0.7c0,0.5,0.1,0.8,0.4,1c0.3,0.2,0.7,0.3,1.1,0.3c0.6,0,1-0.1,1.5-0.3
			c0.4-0.2,0.8-0.5,1.2-0.9V194z"/>
		<path class="st11" d="M772.1,198.8v-11.3h1.7c0.4,0,0.6,0.2,0.7,0.5l0.2,0.8c0.2-0.2,0.4-0.4,0.6-0.6c0.2-0.2,0.4-0.3,0.7-0.5
			s0.5-0.2,0.8-0.3s0.6-0.1,0.9-0.1c0.7,0,1.3,0.2,1.8,0.6c0.5,0.4,0.8,0.9,1,1.5c0.2-0.4,0.4-0.7,0.7-1s0.6-0.5,0.9-0.7
			c0.3-0.2,0.7-0.3,1-0.4c0.4-0.1,0.7-0.1,1.1-0.1c0.6,0,1.2,0.1,1.7,0.3s0.9,0.5,1.2,0.8s0.6,0.8,0.8,1.3s0.3,1.1,0.3,1.8v7.2h-2.7
			v-7.2c0-0.7-0.2-1.3-0.5-1.6s-0.8-0.5-1.4-0.5c-0.3,0-0.5,0-0.8,0.1c-0.2,0.1-0.4,0.2-0.6,0.4c-0.2,0.2-0.3,0.4-0.4,0.7
			s-0.2,0.6-0.2,0.9v7.2h-2.7v-7.2c0-0.8-0.2-1.3-0.5-1.7c-0.3-0.3-0.8-0.5-1.3-0.5c-0.4,0-0.8,0.1-1.1,0.3s-0.7,0.5-1,0.8v8.3h-2.9
			V198.8z"/>
		<path class="st11" d="M792.6,193.5c0,0.6,0.1,1.1,0.3,1.5s0.4,0.8,0.6,1c0.3,0.3,0.6,0.5,0.9,0.6c0.4,0.1,0.8,0.2,1.2,0.2
			s0.8-0.1,1.1-0.2c0.3-0.1,0.6-0.2,0.8-0.3s0.4-0.2,0.6-0.3c0.2-0.1,0.4-0.2,0.5-0.2c0.2,0,0.4,0.1,0.5,0.3l0.8,1
			c-0.3,0.4-0.6,0.6-1,0.9s-0.8,0.4-1.2,0.6c-0.4,0.1-0.8,0.2-1.2,0.3s-0.8,0.1-1.2,0.1c-0.8,0-1.5-0.1-2.2-0.4
			c-0.7-0.3-1.3-0.6-1.8-1.2s-0.9-1.1-1.2-1.9c-0.3-0.8-0.4-1.6-0.4-2.6c0-0.8,0.1-1.5,0.4-2.2s0.6-1.3,1.1-1.8s1-0.9,1.7-1.2
			s1.4-0.4,2.3-0.4c0.7,0,1.4,0.1,2,0.3s1.1,0.6,1.6,1c0.4,0.4,0.8,1,1,1.6s0.4,1.4,0.4,2.2c0,0.4,0,0.7-0.1,0.8s-0.3,0.2-0.5,0.2
			L792.6,193.5L792.6,193.5z M797.8,191.8c0-0.4,0-0.7-0.1-1s-0.2-0.6-0.4-0.8s-0.5-0.4-0.8-0.6c-0.3-0.1-0.7-0.2-1.1-0.2
			c-0.8,0-1.4,0.2-1.9,0.7c-0.5,0.4-0.7,1.1-0.9,1.9L797.8,191.8L797.8,191.8z"/>
	</g>
	<g>
		<path class="st11" d="M650.2,227c0,1.2-0.2,2.3-0.6,3.2c-0.4,1-0.9,1.9-1.6,2.6c-0.7,0.7-1.6,1.3-2.5,1.7s-2.1,0.6-3.3,0.6
			s-2.3-0.2-3.3-0.6c-1-0.4-1.8-1-2.6-1.7c-0.7-0.7-1.3-1.6-1.6-2.6s-0.6-2.1-0.6-3.2s0.2-2.3,0.6-3.2s0.9-1.9,1.6-2.6
			c0.7-0.7,1.6-1.3,2.6-1.7s2.1-0.6,3.3-0.6c0.8,0,1.6,0.1,2.3,0.3s1.4,0.5,2,0.8s1.1,0.8,1.6,1.2c0.5,0.5,0.9,1,1.2,1.6
			s0.6,1.3,0.8,2C650.2,225.5,650.2,226.2,650.2,227z M647.2,227c0-0.9-0.1-1.7-0.4-2.4c-0.2-0.7-0.6-1.3-1-1.8s-1-0.9-1.6-1.1
			c-0.6-0.3-1.3-0.4-2.1-0.4s-1.5,0.1-2.1,0.4c-0.6,0.3-1.2,0.6-1.6,1.1c-0.4,0.5-0.8,1.1-1,1.8s-0.4,1.5-0.4,2.4s0.1,1.7,0.4,2.4
			s0.6,1.3,1,1.8s1,0.9,1.6,1.1c0.6,0.3,1.3,0.4,2.1,0.4s1.5-0.1,2.1-0.4c0.6-0.3,1.1-0.6,1.6-1.1s0.8-1.1,1-1.8
			C647.1,228.7,647.2,227.9,647.2,227z"/>
		<path class="st11" d="M656.2,235.2c-1,0-1.7-0.3-2.3-0.8c-0.5-0.6-0.8-1.3-0.8-2.3v-6.3H652c-0.1,0-0.3,0-0.4-0.1
			c-0.1-0.1-0.2-0.2-0.2-0.4v-1.1l1.8-0.3l0.6-3.1c0-0.1,0.1-0.3,0.2-0.3c0.1-0.1,0.2-0.1,0.4-0.1h1.4v3.6h3v1.9h-3v6.1
			c0,0.4,0.1,0.6,0.3,0.8s0.4,0.3,0.7,0.3c0.2,0,0.3,0,0.4-0.1s0.2-0.1,0.3-0.1s0.2-0.1,0.2-0.1c0.1,0,0.1-0.1,0.2-0.1
			c0.1,0,0.1,0,0.2,0.1c0.1,0,0.1,0.1,0.2,0.2l0.8,1.3c-0.4,0.3-0.9,0.6-1.4,0.8C657.3,235.1,656.7,235.2,656.2,235.2z"/>
		<path class="st11" d="M663.3,224.9c0.4-0.4,0.9-0.7,1.5-1s1.2-0.4,1.9-0.4c0.6,0,1.2,0.1,1.6,0.3c0.5,0.2,0.9,0.5,1.2,0.9
			s0.6,0.8,0.7,1.4c0.2,0.5,0.2,1.1,0.2,1.7v7.2h-2.7v-7.2c0-0.7-0.2-1.2-0.5-1.6c-0.3-0.4-0.8-0.6-1.4-0.6c-0.5,0-0.9,0.1-1.3,0.3
			c-0.4,0.2-0.8,0.5-1.2,0.9v8.2h-2.7v-16.4h2.7V224.9z"/>
		<path class="st11" d="M675.1,229.7c0,0.6,0.1,1.1,0.3,1.5s0.4,0.8,0.6,1c0.3,0.3,0.6,0.5,0.9,0.6c0.4,0.1,0.8,0.2,1.2,0.2
			s0.8-0.1,1.1-0.2c0.3-0.1,0.6-0.2,0.8-0.3s0.4-0.2,0.6-0.3c0.2-0.1,0.4-0.2,0.5-0.2c0.2,0,0.4,0.1,0.5,0.3l0.8,1
			c-0.3,0.4-0.6,0.6-1,0.9s-0.8,0.4-1.2,0.6c-0.4,0.1-0.8,0.2-1.2,0.3s-0.8,0.1-1.2,0.1c-0.8,0-1.5-0.1-2.2-0.4
			c-0.7-0.3-1.3-0.6-1.8-1.2s-0.9-1.1-1.2-1.9c-0.3-0.8-0.4-1.6-0.4-2.6c0-0.8,0.1-1.5,0.4-2.2s0.6-1.3,1.1-1.8s1-0.9,1.7-1.2
			s1.4-0.4,2.3-0.4c0.7,0,1.4,0.1,2,0.3s1.1,0.6,1.6,1c0.4,0.4,0.8,1,1,1.6s0.4,1.4,0.4,2.2c0,0.4,0,0.7-0.1,0.8s-0.3,0.2-0.5,0.2
			L675.1,229.7L675.1,229.7z M680.3,228c0-0.4,0-0.7-0.1-1s-0.2-0.6-0.4-0.8s-0.5-0.4-0.8-0.6c-0.3-0.1-0.7-0.2-1.1-0.2
			c-0.8,0-1.4,0.2-1.9,0.7c-0.5,0.4-0.7,1.1-0.9,1.9L680.3,228L680.3,228z"/>
		<path class="st11" d="M687.4,225.6c0.4-0.7,0.8-1.2,1.3-1.6c0.5-0.4,1.1-0.6,1.7-0.6c0.5,0,0.9,0.1,1.3,0.3l-0.2,2
			c0,0.1-0.1,0.2-0.2,0.3s-0.2,0.1-0.3,0.1s-0.3,0-0.5-0.1s-0.4-0.1-0.6-0.1c-0.3,0-0.6,0-0.8,0.1s-0.4,0.2-0.6,0.4
			s-0.4,0.4-0.5,0.6s-0.3,0.5-0.4,0.8v7h-2.7v-11.3h1.6c0.3,0,0.5,0,0.6,0.1s0.2,0.3,0.2,0.5L687.4,225.6z"/>
		<path class="st11" d="M705.7,235H703c-0.5,0-0.9-0.2-1.1-0.6l-3.4-5.1c-0.1-0.2-0.3-0.3-0.4-0.4s-0.4-0.1-0.7-0.1h-1.3v6.2h-3v-16
			h4.9c1.1,0,2,0.1,2.8,0.3s1.4,0.5,1.9,0.9s0.9,0.9,1.1,1.5c0.2,0.6,0.4,1.2,0.4,1.9c0,0.5-0.1,1-0.2,1.5s-0.4,0.9-0.7,1.3
			s-0.7,0.7-1.1,1s-0.9,0.5-1.5,0.7c0.2,0.1,0.4,0.2,0.5,0.4c0.2,0.2,0.3,0.3,0.4,0.5L705.7,235z M698.1,226.6c0.6,0,1-0.1,1.5-0.2
			c0.4-0.1,0.8-0.3,1-0.6c0.3-0.2,0.5-0.5,0.6-0.9c0.1-0.3,0.2-0.7,0.2-1.1c0-0.8-0.3-1.4-0.8-1.9c-0.5-0.4-1.3-0.7-2.4-0.7h-1.9
			v5.3L698.1,226.6L698.1,226.6z"/>
		<path class="st11" d="M708.4,229.7c0,0.6,0.1,1.1,0.3,1.5s0.4,0.8,0.6,1c0.3,0.3,0.6,0.5,0.9,0.6c0.4,0.1,0.8,0.2,1.2,0.2
			s0.8-0.1,1.1-0.2c0.3-0.1,0.6-0.2,0.8-0.3s0.4-0.2,0.6-0.3c0.2-0.1,0.4-0.2,0.5-0.2c0.2,0,0.4,0.1,0.5,0.3l0.8,1
			c-0.3,0.4-0.6,0.6-1,0.9s-0.8,0.4-1.2,0.6c-0.4,0.1-0.8,0.2-1.2,0.3s-0.8,0.1-1.2,0.1c-0.8,0-1.5-0.1-2.2-0.4
			c-0.7-0.3-1.3-0.6-1.8-1.2s-0.9-1.1-1.2-1.9c-0.3-0.8-0.4-1.6-0.4-2.6c0-0.8,0.1-1.5,0.4-2.2s0.6-1.3,1.1-1.8s1-0.9,1.7-1.2
			s1.4-0.4,2.3-0.4c0.7,0,1.4,0.1,2,0.3s1.1,0.6,1.6,1c0.4,0.4,0.8,1,1,1.6s0.4,1.4,0.4,2.2c0,0.4,0,0.7-0.1,0.8s-0.3,0.2-0.5,0.2
			L708.4,229.7L708.4,229.7z M713.6,228c0-0.4,0-0.7-0.1-1s-0.2-0.6-0.4-0.8s-0.5-0.4-0.8-0.6c-0.3-0.1-0.7-0.2-1.1-0.2
			c-0.8,0-1.4,0.2-1.9,0.7c-0.5,0.4-0.7,1.1-0.9,1.9L713.6,228L713.6,228z"/>
		<path class="st11" d="M720.6,225.2c0.5-0.5,1-0.9,1.6-1.3c0.6-0.3,1.3-0.5,2.1-0.5c0.6,0,1.2,0.1,1.7,0.4c0.5,0.3,1,0.6,1.3,1.1
			c0.4,0.5,0.7,1.1,0.9,1.8s0.3,1.5,0.3,2.5c0,0.8-0.1,1.6-0.3,2.3s-0.6,1.3-1,1.9c-0.4,0.5-0.9,0.9-1.5,1.2s-1.3,0.4-2,0.4
			c-0.6,0-1.2-0.1-1.6-0.3c-0.4-0.2-0.8-0.5-1.2-0.8v4.6h-2.7v-15h1.7c0.4,0,0.6,0.2,0.7,0.5V225.2z M720.8,232
			c0.3,0.4,0.6,0.6,1,0.8s0.8,0.2,1.2,0.2s0.8-0.1,1.1-0.2s0.6-0.4,0.8-0.7s0.4-0.7,0.5-1.2s0.2-1,0.2-1.7s-0.1-1.2-0.2-1.7
			s-0.3-0.8-0.5-1.1s-0.4-0.5-0.7-0.6s-0.6-0.2-1-0.2c-0.6,0-1,0.1-1.4,0.4c-0.4,0.2-0.8,0.6-1.1,1v5H720.8z"/>
		<path class="st11" d="M733.4,218.6V235h-2.7v-16.4H733.4z"/>
		<path class="st11" d="M739.3,220.4c0,0.2,0,0.5-0.1,0.7s-0.2,0.4-0.4,0.5s-0.3,0.3-0.6,0.4c-0.2,0.1-0.4,0.1-0.7,0.1
			c-0.2,0-0.5,0-0.7-0.1s-0.4-0.2-0.5-0.4s-0.3-0.3-0.4-0.5c-0.1-0.2-0.1-0.4-0.1-0.7c0-0.2,0-0.5,0.1-0.7s0.2-0.4,0.4-0.6
			s0.3-0.3,0.5-0.4c0.2-0.1,0.4-0.1,0.7-0.1c0.2,0,0.5,0,0.7,0.1s0.4,0.2,0.6,0.4s0.3,0.3,0.4,0.6
			C739.2,219.9,739.3,220.1,739.3,220.4z M738.9,223.7V235h-2.7v-11.3H738.9z"/>
		<path class="st11" d="M749.8,226.1c-0.1,0.1-0.2,0.2-0.2,0.2c-0.1,0.1-0.2,0.1-0.3,0.1s-0.3,0-0.4-0.1c-0.1-0.1-0.3-0.2-0.5-0.3
			s-0.4-0.2-0.7-0.3s-0.6-0.1-0.9-0.1c-0.5,0-0.9,0.1-1.3,0.3s-0.7,0.4-0.9,0.7s-0.4,0.7-0.5,1.2s-0.2,1-0.2,1.6s0.1,1.1,0.2,1.6
			c0.1,0.5,0.3,0.9,0.6,1.2c0.2,0.3,0.5,0.6,0.9,0.7c0.3,0.2,0.7,0.2,1.2,0.2s0.8-0.1,1.1-0.2c0.3-0.1,0.5-0.2,0.7-0.4
			c0.2-0.1,0.3-0.2,0.5-0.4c0.1-0.1,0.3-0.2,0.5-0.2s0.4,0.1,0.5,0.3l0.8,1c-0.3,0.4-0.6,0.6-1,0.9s-0.7,0.4-1.1,0.6
			c-0.4,0.1-0.8,0.2-1.2,0.3s-0.8,0.1-1.2,0.1c-0.7,0-1.4-0.1-2-0.4s-1.2-0.6-1.6-1.1s-0.8-1.1-1.1-1.8s-0.4-1.5-0.4-2.5
			c0-0.8,0.1-1.6,0.4-2.3c0.2-0.7,0.6-1.3,1.1-1.8s1-0.9,1.7-1.2s1.5-0.4,2.4-0.4c0.8,0,1.6,0.1,2.2,0.4s1.2,0.7,1.7,1.2
			L749.8,226.1z"/>
		<path class="st11" d="M752,225.2c1.3-1.2,2.9-1.8,4.7-1.8c0.7,0,1.3,0.1,1.8,0.3s1,0.5,1.3,0.9c0.4,0.4,0.6,0.8,0.8,1.4
			s0.3,1.1,0.3,1.8v7.1h-1.2c-0.3,0-0.5,0-0.6-0.1s-0.3-0.2-0.3-0.5l-0.2-0.8c-0.3,0.3-0.6,0.5-0.8,0.7c-0.3,0.2-0.6,0.4-0.8,0.5
			s-0.6,0.2-0.9,0.3c-0.3,0.1-0.7,0.1-1.1,0.1c-0.5,0-0.9-0.1-1.3-0.2s-0.8-0.3-1-0.6s-0.5-0.6-0.7-1s-0.2-0.8-0.2-1.3
			c0-0.3,0-0.6,0.1-0.9c0.1-0.3,0.3-0.6,0.5-0.8s0.5-0.5,0.8-0.7s0.8-0.4,1.3-0.6c0.5-0.2,1.1-0.3,1.8-0.4c0.7-0.1,1.4-0.2,2.3-0.2
			v-0.7c0-0.8-0.2-1.3-0.5-1.7s-0.8-0.5-1.4-0.5c-0.4,0-0.8,0.1-1.1,0.2c-0.3,0.1-0.5,0.2-0.8,0.3c-0.2,0.1-0.4,0.2-0.6,0.3
			s-0.4,0.2-0.6,0.2c-0.2,0-0.4,0-0.5-0.1s-0.2-0.2-0.3-0.3L752,225.2z M758.3,230.2c-0.8,0-1.4,0.1-2,0.2c-0.5,0.1-1,0.2-1.3,0.4
			s-0.6,0.3-0.7,0.5c-0.1,0.2-0.2,0.4-0.2,0.7c0,0.5,0.1,0.8,0.4,1c0.3,0.2,0.7,0.3,1.1,0.3c0.6,0,1-0.1,1.5-0.3
			c0.4-0.2,0.8-0.5,1.2-0.9V230.2z"/>
		<path class="st11" d="M774.8,235H772v-9.3h-5.2v6.1c0,0.4,0.1,0.6,0.3,0.8s0.4,0.3,0.7,0.3c0.2,0,0.3,0,0.4-0.1s0.2-0.1,0.3-0.1
			s0.2-0.1,0.2-0.1c0.1,0,0.1-0.1,0.2-0.1c0.1,0,0.1,0,0.2,0.1c0.1,0,0.1,0.1,0.2,0.2l0.8,1.3c-0.4,0.3-0.9,0.6-1.4,0.8
			s-1,0.3-1.6,0.3c-1,0-1.7-0.3-2.3-0.8c-0.5-0.6-0.8-1.3-0.8-2.3v-6.3h-1.2c-0.1,0-0.3,0-0.4-0.1c-0.1-0.1-0.2-0.2-0.2-0.4v-1.1
			l1.8-0.3l0.6-3.1c0-0.1,0.1-0.3,0.2-0.3c0.1-0.1,0.2-0.1,0.4-0.1h1.4v3.6h8v11H774.8z M775.2,220.3c0,0.2,0,0.5-0.1,0.7
			s-0.2,0.4-0.4,0.5c-0.2,0.2-0.3,0.3-0.6,0.4c-0.2,0.1-0.4,0.1-0.7,0.1c-0.2,0-0.5,0-0.7-0.1s-0.4-0.2-0.5-0.4s-0.3-0.3-0.4-0.5
			s-0.1-0.4-0.1-0.7c0-0.2,0-0.5,0.1-0.7s0.2-0.4,0.4-0.6s0.3-0.3,0.5-0.4c0.2-0.1,0.4-0.1,0.7-0.1c0.2,0,0.5,0,0.7,0.1
			s0.4,0.2,0.6,0.4c0.2,0.2,0.3,0.3,0.4,0.6S775.2,220.1,775.2,220.3z"/>
		<path class="st11" d="M782.5,223.5c0.8,0,1.6,0.1,2.3,0.4s1.3,0.7,1.8,1.2s0.9,1.1,1.1,1.8c0.3,0.7,0.4,1.5,0.4,2.4
			s-0.1,1.7-0.4,2.4c-0.3,0.7-0.6,1.3-1.1,1.8s-1.1,0.9-1.8,1.2s-1.5,0.4-2.3,0.4s-1.6-0.1-2.3-0.4s-1.3-0.7-1.8-1.2
			s-0.9-1.1-1.1-1.8c-0.3-0.7-0.4-1.5-0.4-2.4s0.1-1.7,0.4-2.4c0.3-0.7,0.6-1.3,1.1-1.8s1.1-0.9,1.8-1.2S781.7,223.5,782.5,223.5z
			 M782.5,233.1c0.9,0,1.6-0.3,2.1-0.9s0.7-1.6,0.7-2.8s-0.2-2.2-0.7-2.8s-1.1-1-2.1-1s-1.7,0.3-2.1,1c-0.5,0.6-0.7,1.6-0.7,2.8
			s0.2,2.1,0.7,2.8C780.9,232.7,781.6,233.1,782.5,233.1z"/>
		<path class="st11" d="M792.8,225.1c0.2-0.2,0.5-0.4,0.7-0.6c0.3-0.2,0.5-0.4,0.8-0.5s0.6-0.2,0.9-0.3c0.3-0.1,0.7-0.1,1.1-0.1
			c0.6,0,1.2,0.1,1.6,0.3c0.5,0.2,0.9,0.5,1.2,0.9s0.6,0.8,0.7,1.4c0.2,0.5,0.2,1.1,0.2,1.7v7.2h-2.7v-7.2c0-0.7-0.2-1.2-0.5-1.6
			c-0.3-0.4-0.8-0.6-1.4-0.6c-0.5,0-0.9,0.1-1.3,0.3c-0.4,0.2-0.8,0.5-1.2,0.9v8.2h-2.7v-11.3h1.7c0.4,0,0.6,0.2,0.7,0.5
			L792.8,225.1z"/>
		<path class="st11" d="M816.3,219v16h-1.5c-0.2,0-0.4,0-0.6-0.1s-0.3-0.2-0.5-0.4l-8.3-10.6c0,0.5,0.1,0.9,0.1,1.3v9.8h-2.6v-16
			h1.6c0.1,0,0.2,0,0.3,0s0.2,0,0.2,0.1c0.1,0,0.1,0.1,0.2,0.1c0.1,0.1,0.1,0.1,0.2,0.2l8.4,10.7c0-0.3,0-0.5-0.1-0.8s0-0.5,0-0.7
			V219H816.3z"/>
		<path class="st11" d="M818.9,225.2c1.3-1.2,2.9-1.8,4.7-1.8c0.7,0,1.3,0.1,1.8,0.3s1,0.5,1.3,0.9c0.4,0.4,0.6,0.8,0.8,1.4
			s0.3,1.1,0.3,1.8v7.1h-1.2c-0.3,0-0.5,0-0.6-0.1s-0.3-0.2-0.3-0.5l-0.2-0.8c-0.3,0.3-0.6,0.5-0.8,0.7c-0.3,0.2-0.6,0.4-0.8,0.5
			s-0.6,0.2-0.9,0.3c-0.3,0.1-0.7,0.1-1.1,0.1c-0.5,0-0.9-0.1-1.3-0.2s-0.8-0.3-1-0.6s-0.5-0.6-0.7-1s-0.2-0.8-0.2-1.3
			c0-0.3,0-0.6,0.1-0.9c0.1-0.3,0.3-0.6,0.5-0.8s0.5-0.5,0.8-0.7s0.8-0.4,1.3-0.6c0.5-0.2,1.1-0.3,1.8-0.4c0.7-0.1,1.4-0.2,2.3-0.2
			v-0.7c0-0.8-0.2-1.3-0.5-1.7s-0.8-0.5-1.4-0.5c-0.4,0-0.8,0.1-1.1,0.2c-0.3,0.1-0.5,0.2-0.8,0.3c-0.2,0.1-0.4,0.2-0.6,0.3
			s-0.4,0.2-0.6,0.2c-0.2,0-0.4,0-0.5-0.1s-0.2-0.2-0.3-0.3L818.9,225.2z M825.1,230.2c-0.8,0-1.4,0.1-2,0.2c-0.5,0.1-1,0.2-1.3,0.4
			s-0.6,0.3-0.7,0.5c-0.1,0.2-0.2,0.4-0.2,0.7c0,0.5,0.1,0.8,0.4,1c0.3,0.2,0.7,0.3,1.1,0.3c0.6,0,1-0.1,1.5-0.3
			c0.4-0.2,0.8-0.5,1.2-0.9V230.2z"/>
		<path class="st11" d="M830.3,235v-11.3h1.7c0.4,0,0.6,0.2,0.7,0.5l0.2,0.8c0.2-0.2,0.4-0.4,0.6-0.6c0.2-0.2,0.4-0.3,0.7-0.5
			s0.5-0.2,0.8-0.3s0.6-0.1,0.9-0.1c0.7,0,1.3,0.2,1.8,0.6c0.5,0.4,0.8,0.9,1,1.5c0.2-0.4,0.4-0.7,0.7-1s0.6-0.5,0.9-0.7
			c0.3-0.2,0.7-0.3,1-0.4c0.4-0.1,0.7-0.1,1.1-0.1c0.6,0,1.2,0.1,1.7,0.3s0.9,0.5,1.2,0.8s0.6,0.8,0.8,1.3s0.3,1.1,0.3,1.8v7.2h-2.7
			v-7.2c0-0.7-0.2-1.3-0.5-1.6s-0.8-0.5-1.4-0.5c-0.3,0-0.5,0-0.8,0.1c-0.2,0.1-0.4,0.2-0.6,0.4c-0.2,0.2-0.3,0.4-0.4,0.7
			s-0.2,0.6-0.2,0.9v7.2h-2.7v-7.2c0-0.8-0.2-1.3-0.5-1.7c-0.3-0.3-0.8-0.5-1.3-0.5c-0.4,0-0.8,0.1-1.1,0.3s-0.7,0.5-1,0.8v8.3h-2.9
			V235z"/>
		<path class="st11" d="M850.9,229.7c0,0.6,0.1,1.1,0.3,1.5s0.4,0.8,0.6,1c0.3,0.3,0.6,0.5,0.9,0.6c0.4,0.1,0.8,0.2,1.2,0.2
			s0.8-0.1,1.1-0.2c0.3-0.1,0.6-0.2,0.8-0.3s0.4-0.2,0.6-0.3c0.2-0.1,0.4-0.2,0.5-0.2c0.2,0,0.4,0.1,0.5,0.3l0.8,1
			c-0.3,0.4-0.6,0.6-1,0.9s-0.8,0.4-1.2,0.6c-0.4,0.1-0.8,0.2-1.2,0.3s-0.8,0.1-1.2,0.1c-0.8,0-1.5-0.1-2.2-0.4
			c-0.7-0.3-1.3-0.6-1.8-1.2s-0.9-1.1-1.2-1.9c-0.3-0.8-0.4-1.6-0.4-2.6c0-0.8,0.1-1.5,0.4-2.2s0.6-1.3,1.1-1.8s1-0.9,1.7-1.2
			s1.4-0.4,2.3-0.4c0.7,0,1.4,0.1,2,0.3s1.1,0.6,1.6,1c0.4,0.4,0.8,1,1,1.6s0.4,1.4,0.4,2.2c0,0.4,0,0.7-0.1,0.8s-0.3,0.2-0.5,0.2
			L850.9,229.7L850.9,229.7z M856.1,228c0-0.4,0-0.7-0.1-1s-0.2-0.6-0.4-0.8s-0.5-0.4-0.8-0.6c-0.3-0.1-0.7-0.2-1.1-0.2
			c-0.8,0-1.4,0.2-1.9,0.7c-0.5,0.4-0.7,1.1-0.9,1.9L856.1,228L856.1,228z"/>
	</g>
	<g>
		<path class="st11" d="M805.6,569.9c-0.1,0.2-0.2,0.3-0.3,0.3c-0.1,0.1-0.2,0.1-0.4,0.1s-0.3-0.1-0.5-0.2c-0.2-0.1-0.4-0.2-0.6-0.4
			s-0.5-0.3-0.9-0.4c-0.3-0.1-0.7-0.2-1.2-0.2c-0.4,0-0.8,0-1.1,0.1s-0.6,0.2-0.8,0.4s-0.4,0.4-0.5,0.6c-0.1,0.2-0.2,0.5-0.2,0.8
			c0,0.4,0.1,0.7,0.3,0.9c0.2,0.3,0.5,0.5,0.8,0.6c0.3,0.2,0.7,0.3,1.2,0.5c0.4,0.1,0.9,0.3,1.4,0.4s0.9,0.3,1.4,0.6
			c0.4,0.2,0.8,0.5,1.2,0.8c0.3,0.3,0.6,0.7,0.8,1.2s0.3,1,0.3,1.7s-0.1,1.4-0.4,2s-0.6,1.2-1.1,1.6c-0.5,0.5-1.1,0.8-1.7,1.1
			c-0.7,0.3-1.5,0.4-2.3,0.4c-0.5,0-1,0-1.5-0.1s-1-0.2-1.4-0.4c-0.5-0.2-0.9-0.4-1.3-0.7c-0.4-0.3-0.7-0.5-1.1-0.9l0.9-1.4
			c0.1-0.1,0.2-0.2,0.3-0.3s0.2-0.1,0.4-0.1s0.4,0.1,0.6,0.2c0.2,0.2,0.5,0.3,0.8,0.5s0.6,0.4,1,0.5c0.4,0.2,0.9,0.2,1.4,0.2
			c0.8,0,1.5-0.2,2-0.6c0.5-0.4,0.7-1,0.7-1.7c0-0.4-0.1-0.8-0.3-1s-0.5-0.5-0.8-0.7s-0.7-0.3-1.2-0.5c-0.4-0.1-0.9-0.3-1.3-0.4
			c-0.5-0.1-0.9-0.3-1.3-0.5c-0.4-0.2-0.8-0.5-1.2-0.8s-0.6-0.7-0.8-1.2s-0.3-1.1-0.3-1.8c0-0.6,0.1-1.1,0.3-1.7
			c0.2-0.6,0.6-1,1-1.5c0.4-0.4,1-0.8,1.6-1c0.6-0.3,1.4-0.4,2.2-0.4c0.9,0,1.8,0.1,2.6,0.4s1.5,0.7,2,1.2L805.6,569.9z"/>
		<path class="st11" d="M818.3,571.6v11.3h-1.7c-0.4,0-0.6-0.2-0.7-0.5l-0.2-0.9c-0.5,0.5-1,0.9-1.5,1.1c-0.6,0.3-1.2,0.4-2,0.4
			c-0.6,0-1.2-0.1-1.6-0.3c-0.5-0.2-0.9-0.5-1.2-0.9s-0.6-0.8-0.7-1.4c-0.2-0.5-0.2-1.1-0.2-1.7v-7.2h2.7v7.2c0,0.7,0.2,1.2,0.5,1.6
			c0.3,0.4,0.8,0.6,1.4,0.6c0.5,0,0.9-0.1,1.3-0.3c0.4-0.2,0.8-0.5,1.2-0.9v-8.2h2.7V571.6z"/>
		<path class="st11" d="M823.7,573c0.5-0.5,1-0.9,1.5-1.1s1.2-0.4,1.9-0.4s1.2,0.1,1.8,0.4c0.5,0.3,1,0.6,1.3,1.1s0.7,1.1,0.9,1.7
			s0.3,1.5,0.3,2.3c0,0.9-0.1,1.8-0.3,2.5c-0.2,0.8-0.6,1.4-1,1.9s-0.9,0.9-1.5,1.2s-1.3,0.4-2,0.4c-0.4,0-0.7,0-1-0.1
			s-0.6-0.2-0.8-0.3s-0.5-0.3-0.7-0.5s-0.4-0.4-0.6-0.6l-0.1,0.8c0,0.2-0.1,0.3-0.2,0.4s-0.3,0.1-0.4,0.1H821v-16.4h2.7V573z
			 M823.7,580c0.3,0.4,0.6,0.6,1,0.8s0.7,0.2,1.2,0.2c0.4,0,0.8-0.1,1.1-0.2c0.3-0.2,0.6-0.4,0.9-0.7c0.2-0.3,0.4-0.7,0.5-1.2
			s0.2-1.1,0.2-1.8c0-1.2-0.2-2.1-0.6-2.7c-0.4-0.6-1-0.8-1.8-0.8c-0.5,0-1,0.1-1.4,0.4c-0.4,0.2-0.8,0.6-1.1,1L823.7,580L823.7,580
			z"/>
		<path class="st11" d="M841.6,574c-0.1,0.1-0.2,0.2-0.2,0.2c-0.1,0.1-0.2,0.1-0.3,0.1s-0.3,0-0.4-0.1c-0.1-0.1-0.3-0.2-0.5-0.3
			s-0.4-0.2-0.7-0.3s-0.6-0.1-0.9-0.1c-0.5,0-0.9,0.1-1.3,0.3c-0.4,0.2-0.7,0.4-0.9,0.7s-0.4,0.7-0.5,1.2s-0.2,1-0.2,1.6
			s0.1,1.1,0.2,1.6c0.1,0.5,0.3,0.9,0.6,1.2c0.2,0.3,0.5,0.6,0.9,0.7c0.3,0.2,0.7,0.2,1.2,0.2s0.8-0.1,1.1-0.2
			c0.3-0.1,0.5-0.2,0.7-0.4c0.2-0.1,0.3-0.2,0.5-0.4c0.1-0.1,0.3-0.2,0.5-0.2s0.4,0.1,0.5,0.3l0.8,1c-0.3,0.4-0.6,0.6-1,0.9
			c-0.4,0.2-0.7,0.4-1.1,0.6c-0.4,0.1-0.8,0.2-1.2,0.3s-0.8,0.1-1.2,0.1c-0.7,0-1.4-0.1-2-0.4c-0.6-0.3-1.2-0.6-1.6-1.1
			s-0.8-1.1-1.1-1.8s-0.4-1.5-0.4-2.5c0-0.8,0.1-1.6,0.4-2.3c0.2-0.7,0.6-1.3,1.1-1.8s1-0.9,1.7-1.2s1.5-0.4,2.4-0.4
			c0.8,0,1.6,0.1,2.2,0.4s1.2,0.7,1.7,1.2L841.6,574z"/>
		<path class="st11" d="M846.7,573.6c0.4-0.7,0.8-1.2,1.3-1.6s1.1-0.6,1.7-0.6c0.5,0,0.9,0.1,1.3,0.3l-0.2,2c0,0.1-0.1,0.2-0.2,0.3
			c-0.1,0.1-0.2,0.1-0.3,0.1s-0.3,0-0.5-0.1c-0.2,0-0.4-0.1-0.6-0.1c-0.3,0-0.6,0-0.8,0.1s-0.4,0.2-0.6,0.4s-0.4,0.4-0.5,0.6
			c-0.1,0.2-0.3,0.5-0.4,0.8v7h-2.7v-11.3h1.6c0.3,0,0.5,0,0.6,0.1s0.2,0.3,0.2,0.5L846.7,573.6z"/>
		<path class="st11" d="M855.6,568.3c0,0.2,0,0.5-0.1,0.7s-0.2,0.4-0.4,0.5s-0.3,0.3-0.6,0.4c-0.2,0.1-0.4,0.1-0.7,0.1
			c-0.2,0-0.5,0-0.7-0.1s-0.4-0.2-0.5-0.4s-0.3-0.3-0.4-0.5s-0.1-0.4-0.1-0.7c0-0.2,0-0.5,0.1-0.7s0.2-0.4,0.4-0.6s0.3-0.3,0.5-0.4
			c0.2-0.1,0.4-0.1,0.7-0.1c0.2,0,0.5,0,0.7,0.1s0.4,0.2,0.6,0.4s0.3,0.3,0.4,0.6C855.5,567.8,855.6,568.1,855.6,568.3z
			 M855.2,571.6v11.3h-2.7v-11.3H855.2z"/>
		<path class="st11" d="M860.6,573.2c0.5-0.5,1-0.9,1.6-1.3c0.6-0.3,1.3-0.5,2.1-0.5c0.6,0,1.2,0.1,1.7,0.4c0.5,0.3,1,0.6,1.3,1.1
			c0.4,0.5,0.7,1.1,0.9,1.8s0.3,1.5,0.3,2.5c0,0.8-0.1,1.6-0.3,2.3s-0.6,1.3-1,1.9c-0.4,0.5-0.9,0.9-1.5,1.2s-1.3,0.4-2,0.4
			c-0.6,0-1.2-0.1-1.6-0.3c-0.4-0.2-0.8-0.5-1.2-0.8v4.6H858v-15h1.7c0.4,0,0.6,0.2,0.7,0.5L860.6,573.2z M860.7,580
			c0.3,0.4,0.6,0.6,1,0.8s0.8,0.2,1.2,0.2s0.8-0.1,1.1-0.2c0.3-0.2,0.6-0.4,0.8-0.7s0.4-0.7,0.5-1.2s0.2-1,0.2-1.7s-0.1-1.2-0.2-1.7
			c-0.1-0.5-0.3-0.8-0.5-1.1s-0.4-0.5-0.7-0.6s-0.6-0.2-1-0.2c-0.6,0-1,0.1-1.4,0.4c-0.4,0.2-0.8,0.6-1.1,1v5H860.7z"/>
		<path class="st11" d="M881.8,582.9H879v-9.3h-5.2v6.1c0,0.4,0.1,0.6,0.3,0.8s0.4,0.3,0.7,0.3c0.2,0,0.3,0,0.4-0.1
			c0.1,0,0.2-0.1,0.3-0.1s0.2-0.1,0.2-0.1c0.1,0,0.1-0.1,0.2-0.1c0.1,0,0.1,0,0.2,0.1c0.1,0,0.1,0.1,0.2,0.2l0.8,1.3
			c-0.4,0.3-0.9,0.6-1.4,0.8s-1,0.3-1.6,0.3c-1,0-1.7-0.3-2.3-0.8c-0.5-0.6-0.8-1.3-0.8-2.3v-6.3h-1.2c-0.1,0-0.3,0-0.4-0.1
			c-0.1-0.1-0.2-0.2-0.2-0.4V572l1.8-0.3l0.6-3.1c0-0.1,0.1-0.3,0.2-0.3c0.1-0.1,0.2-0.1,0.4-0.1h1.4v3.6h8v11.1H881.8z
			 M882.2,568.3c0,0.2,0,0.5-0.1,0.7s-0.2,0.4-0.4,0.5c-0.2,0.2-0.3,0.3-0.6,0.4s-0.4,0.1-0.7,0.1c-0.2,0-0.5,0-0.7-0.1
			s-0.4-0.2-0.5-0.4c-0.2-0.2-0.3-0.3-0.4-0.5c-0.1-0.2-0.1-0.4-0.1-0.7c0-0.2,0-0.5,0.1-0.7s0.2-0.4,0.4-0.6
			c0.2-0.2,0.3-0.3,0.5-0.4c0.2-0.1,0.4-0.1,0.7-0.1c0.2,0,0.5,0,0.7,0.1s0.4,0.2,0.6,0.4c0.2,0.2,0.3,0.3,0.4,0.6
			S882.2,568,882.2,568.3z"/>
		<path class="st11" d="M889.6,571.4c0.8,0,1.6,0.1,2.3,0.4s1.3,0.7,1.8,1.2s0.9,1.1,1.1,1.8s0.4,1.5,0.4,2.4s-0.1,1.7-0.4,2.4
			s-0.6,1.3-1.1,1.8s-1.1,0.9-1.8,1.2s-1.5,0.4-2.3,0.4s-1.6-0.1-2.3-0.4c-0.7-0.3-1.3-0.7-1.8-1.2s-0.9-1.1-1.1-1.8
			c-0.3-0.7-0.4-1.5-0.4-2.4s0.1-1.7,0.4-2.4c0.3-0.7,0.6-1.3,1.1-1.8s1.1-0.9,1.8-1.2S888.7,571.4,889.6,571.4z M889.6,581
			c0.9,0,1.6-0.3,2.1-0.9s0.7-1.6,0.7-2.8s-0.2-2.1-0.7-2.8s-1.1-1-2.1-1s-1.7,0.3-2.1,1c-0.5,0.6-0.7,1.6-0.7,2.8s0.2,2.1,0.7,2.8
			C887.9,580.7,888.6,581,889.6,581z"/>
		<path class="st11" d="M899.8,573c0.2-0.2,0.5-0.4,0.7-0.6c0.3-0.2,0.5-0.4,0.8-0.5s0.6-0.2,0.9-0.3c0.3-0.1,0.7-0.1,1.1-0.1
			c0.6,0,1.2,0.1,1.6,0.3c0.5,0.2,0.9,0.5,1.2,0.9s0.6,0.8,0.7,1.4c0.2,0.5,0.2,1.1,0.2,1.7v7.2h-2.7v-7.2c0-0.7-0.2-1.2-0.5-1.6
			c-0.3-0.4-0.8-0.6-1.4-0.6c-0.5,0-0.9,0.1-1.3,0.3c-0.4,0.2-0.8,0.5-1.2,0.9v8.2h-2.7v-11.3h1.7c0.4,0,0.6,0.2,0.7,0.5L899.8,573z
			"/>
		<path class="st11" d="M923.3,567v15.9h-1.5c-0.2,0-0.4,0-0.6-0.1s-0.3-0.2-0.5-0.4l-8.3-10.6c0,0.5,0.1,0.9,0.1,1.3v9.8h-2.6V567
			h1.6c0.1,0,0.2,0,0.3,0s0.2,0,0.2,0.1c0.1,0,0.1,0.1,0.2,0.1c0.1,0.1,0.1,0.1,0.2,0.2l8.4,10.7c0-0.3,0-0.5-0.1-0.8s0-0.5,0-0.7
			V567H923.3z"/>
		<path class="st11" d="M925.9,573.2c1.3-1.2,2.9-1.8,4.7-1.8c0.7,0,1.3,0.1,1.8,0.3s1,0.5,1.3,0.9s0.6,0.8,0.8,1.4
			c0.2,0.5,0.3,1.1,0.3,1.8v7.1h-1.2c-0.3,0-0.5,0-0.6-0.1s-0.3-0.2-0.3-0.5l-0.2-0.8c-0.3,0.3-0.6,0.5-0.8,0.7
			c-0.3,0.2-0.6,0.4-0.8,0.5c-0.3,0.1-0.6,0.2-0.9,0.3c-0.3,0.1-0.7,0.1-1.1,0.1c-0.5,0-0.9-0.1-1.3-0.2s-0.8-0.3-1-0.6
			c-0.3-0.3-0.5-0.6-0.7-1s-0.2-0.8-0.2-1.3c0-0.3,0-0.6,0.1-0.9c0.1-0.3,0.3-0.6,0.5-0.8c0.2-0.3,0.5-0.5,0.8-0.7s0.8-0.4,1.3-0.6
			c0.5-0.2,1.1-0.3,1.8-0.4s1.4-0.2,2.3-0.2v-0.7c0-0.8-0.2-1.3-0.5-1.7s-0.8-0.5-1.4-0.5c-0.4,0-0.8,0.1-1.1,0.2
			c-0.3,0.1-0.5,0.2-0.8,0.3c-0.2,0.1-0.4,0.2-0.6,0.3c-0.2,0.1-0.4,0.2-0.6,0.2c-0.2,0-0.4,0-0.5-0.1s-0.2-0.2-0.3-0.3L925.9,573.2
			z M932.1,578.1c-0.8,0-1.4,0.1-2,0.2c-0.5,0.1-1,0.2-1.3,0.4s-0.6,0.3-0.7,0.5s-0.2,0.4-0.2,0.7c0,0.5,0.1,0.8,0.4,1
			s0.7,0.3,1.1,0.3c0.6,0,1-0.1,1.5-0.3c0.4-0.2,0.8-0.5,1.2-0.9V578.1z"/>
		<path class="st11" d="M937.3,582.9v-11.3h1.7c0.4,0,0.6,0.2,0.7,0.5l0.2,0.8c0.2-0.2,0.4-0.4,0.6-0.6s0.4-0.3,0.7-0.5
			c0.2-0.1,0.5-0.2,0.8-0.3s0.6-0.1,0.9-0.1c0.7,0,1.3,0.2,1.8,0.6c0.5,0.4,0.8,0.9,1,1.5c0.2-0.4,0.4-0.7,0.7-1s0.6-0.5,0.9-0.7
			c0.3-0.2,0.7-0.3,1-0.4c0.4-0.1,0.7-0.1,1.1-0.1c0.6,0,1.2,0.1,1.7,0.3s0.9,0.5,1.2,0.8s0.6,0.8,0.8,1.3s0.3,1.1,0.3,1.8v7.2h-2.7
			v-7.2c0-0.7-0.2-1.3-0.5-1.6s-0.8-0.5-1.4-0.5c-0.3,0-0.5,0-0.8,0.1c-0.2,0.1-0.4,0.2-0.6,0.4c-0.2,0.2-0.3,0.4-0.4,0.7
			c-0.1,0.3-0.2,0.6-0.2,0.9v7.2h-2.7v-7.2c0-0.8-0.2-1.3-0.5-1.7s-0.8-0.5-1.3-0.5c-0.4,0-0.8,0.1-1.1,0.3s-0.7,0.5-1,0.8v8.3h-2.9
			V582.9z"/>
		<path class="st11" d="M957.9,577.6c0,0.6,0.1,1.1,0.3,1.5s0.4,0.8,0.6,1c0.3,0.3,0.6,0.5,0.9,0.6c0.4,0.1,0.8,0.2,1.2,0.2
			s0.8-0.1,1.1-0.2c0.3-0.1,0.6-0.2,0.8-0.3s0.4-0.2,0.6-0.3c0.2-0.1,0.4-0.2,0.5-0.2c0.2,0,0.4,0.1,0.5,0.3l0.8,1
			c-0.3,0.4-0.6,0.6-1,0.9c-0.4,0.2-0.8,0.4-1.2,0.6c-0.4,0.1-0.8,0.2-1.2,0.3s-0.8,0.1-1.2,0.1c-0.8,0-1.5-0.1-2.2-0.4
			c-0.7-0.3-1.3-0.6-1.8-1.2s-0.9-1.1-1.2-1.9c-0.3-0.8-0.4-1.6-0.4-2.6c0-0.8,0.1-1.5,0.4-2.2s0.6-1.3,1.1-1.8s1-0.9,1.7-1.2
			s1.4-0.4,2.3-0.4c0.7,0,1.4,0.1,2,0.3s1.1,0.6,1.6,1s0.8,1,1,1.6s0.4,1.4,0.4,2.2c0,0.4,0,0.7-0.1,0.8s-0.3,0.2-0.5,0.2h-7V577.6z
			 M963.1,576c0-0.4,0-0.7-0.1-1s-0.2-0.6-0.4-0.8s-0.5-0.4-0.8-0.6c-0.3-0.1-0.7-0.2-1.1-0.2c-0.8,0-1.4,0.2-1.9,0.7
			c-0.5,0.4-0.7,1.1-0.9,1.9L963.1,576L963.1,576z"/>
	</g>
	<g>
		<path class="st5" d="M813.6,644.1c1,0,1.9,0.1,2.7,0.3s1.4,0.5,1.8,0.8c0.5,0.4,0.8,0.8,1,1.3s0.3,1.1,0.3,1.8
			c0,0.4-0.1,0.7-0.2,1.1c-0.1,0.3-0.3,0.7-0.5,1s-0.5,0.6-0.9,0.8s-0.8,0.4-1.3,0.6c2.2,0.5,3.3,1.7,3.3,3.6c0,0.7-0.1,1.3-0.4,1.9
			c-0.3,0.6-0.6,1.1-1.1,1.5s-1.1,0.7-1.8,1c-0.7,0.2-1.5,0.4-2.5,0.4h-6v-15.9h5.6V644.1z M811,646.4v4.6h2.4c1,0,1.8-0.2,2.3-0.6
			c0.5-0.4,0.8-1,0.8-1.8s-0.2-1.4-0.7-1.8c-0.5-0.4-1.2-0.5-2.2-0.5L811,646.4L811,646.4z M814,657.8c0.6,0,1-0.1,1.4-0.2
			c0.4-0.1,0.7-0.3,0.9-0.5s0.4-0.5,0.5-0.8s0.1-0.6,0.1-0.9c0-0.3-0.1-0.7-0.2-0.9s-0.3-0.5-0.5-0.7s-0.5-0.3-0.9-0.4
			c-0.4-0.1-0.8-0.2-1.3-0.2h-3v4.7L814,657.8L814,657.8z"/>
		<path class="st5" d="M838.2,660.1h-2.3c-0.3,0-0.5-0.1-0.6-0.2c-0.2-0.1-0.3-0.3-0.4-0.5l-1.2-3.3h-6.6l-1.2,3.3
			c-0.1,0.2-0.2,0.3-0.3,0.5c-0.2,0.1-0.4,0.2-0.6,0.2h-2.3l6.3-15.9h3L838.2,660.1z M833,654.1l-1.9-5.3c-0.1-0.2-0.2-0.5-0.3-0.8
			s-0.2-0.7-0.3-1c-0.1,0.4-0.2,0.7-0.3,1.1c-0.1,0.3-0.2,0.6-0.3,0.9l-1.9,5.3h5V654.1z"/>
		<path class="st5" d="M852.5,656.3c0.2,0,0.3,0.1,0.4,0.2l1.2,1.3c-0.6,0.8-1.4,1.4-2.4,1.8c-0.9,0.4-2.1,0.6-3.4,0.6
			c-1.2,0-2.2-0.2-3.2-0.6c-0.9-0.4-1.8-1-2.4-1.7s-1.2-1.6-1.5-2.6s-0.5-2.1-0.5-3.3s0.2-2.3,0.6-3.3c0.4-1,0.9-1.9,1.6-2.6
			c0.7-0.7,1.5-1.3,2.5-1.7s2-0.6,3.2-0.6s2.2,0.2,3.1,0.6c0.9,0.4,1.7,0.9,2.3,1.5l-1,1.4c-0.1,0.1-0.1,0.2-0.2,0.2
			c-0.1,0.1-0.2,0.1-0.4,0.1c-0.1,0-0.2,0-0.3-0.1s-0.2-0.1-0.4-0.2s-0.3-0.2-0.5-0.3s-0.4-0.2-0.6-0.3c-0.2-0.1-0.5-0.2-0.8-0.2
			c-0.3-0.1-0.7-0.1-1.1-0.1c-0.7,0-1.4,0.1-2,0.4s-1.1,0.6-1.5,1.1s-0.8,1.1-1,1.8s-0.4,1.5-0.4,2.4s0.1,1.7,0.4,2.4
			c0.3,0.7,0.6,1.3,1,1.8s0.9,0.8,1.5,1.1s1.2,0.4,1.9,0.4c0.4,0,0.8,0,1.1-0.1c0.3,0,0.6-0.1,0.9-0.2s0.5-0.2,0.8-0.4
			c0.2-0.2,0.5-0.3,0.7-0.6c0.1-0.1,0.2-0.1,0.2-0.2C852.4,656.3,852.5,656.3,852.5,656.3z"/>
		<path class="st5" d="M861.4,650.8h0.7c0.3,0,0.5,0,0.7-0.1s0.3-0.2,0.5-0.4l4.4-5.6c0.2-0.2,0.4-0.4,0.6-0.5
			c0.2-0.1,0.5-0.1,0.8-0.1h2.6l-5.4,6.6c-0.3,0.4-0.6,0.7-1,0.9c0.2,0.1,0.5,0.2,0.7,0.4s0.4,0.4,0.6,0.6l5.5,7.5h-2.6
			c-0.4,0-0.6,0-0.8-0.1s-0.3-0.2-0.4-0.4l-4.5-5.9c-0.1-0.2-0.3-0.3-0.5-0.4s-0.4-0.1-0.8-0.1h-0.9v7h-3v-15.9h3v6.5H861.4z"/>
		<path class="st5" d="M882.1,657.7c0.6,0,1.1-0.1,1.5-0.3s0.8-0.5,1.1-0.8s0.5-0.8,0.7-1.3s0.2-1,0.2-1.7v-9.5h3v9.5
			c0,0.9-0.2,1.8-0.5,2.6s-0.7,1.5-1.3,2.1s-1.3,1-2.1,1.4c-0.8,0.3-1.7,0.5-2.8,0.5c-1,0-2-0.2-2.8-0.5s-1.5-0.8-2.1-1.4
			s-1-1.3-1.3-2.1s-0.5-1.7-0.5-2.6v-9.5h3v9.5c0,0.6,0.1,1.2,0.2,1.7c0.2,0.5,0.4,0.9,0.7,1.3c0.3,0.3,0.7,0.6,1.1,0.8
			C881,657.6,881.6,657.7,882.1,657.7z"/>
		<path class="st5" d="M899.5,644.1c1.1,0,2,0.1,2.8,0.4s1.4,0.6,1.9,1s0.9,1,1.1,1.6c0.2,0.6,0.4,1.3,0.4,2.1s-0.1,1.5-0.4,2.1
			c-0.3,0.6-0.6,1.2-1.2,1.7s-1.2,0.8-1.9,1.1c-0.8,0.3-1.7,0.4-2.7,0.4h-2.2v5.6h-3v-15.9L899.5,644.1L899.5,644.1z M899.5,652.2
			c0.5,0,1-0.1,1.4-0.2c0.4-0.1,0.7-0.3,1-0.6s0.5-0.6,0.6-0.9c0.1-0.4,0.2-0.8,0.2-1.2s-0.1-0.8-0.2-1.2c-0.1-0.3-0.3-0.6-0.6-0.9
			c-0.3-0.2-0.6-0.4-1-0.6c-0.4-0.1-0.9-0.2-1.4-0.2h-2.2v5.7h2.2V652.2z"/>
	</g>
	<g>
		<path class="st11" d="M813.6,680.2c1,0,1.9,0.1,2.7,0.3s1.4,0.5,1.8,0.8c0.5,0.4,0.8,0.8,1,1.3s0.3,1.1,0.3,1.8
			c0,0.4-0.1,0.7-0.2,1.1c-0.1,0.3-0.3,0.7-0.5,1s-0.5,0.6-0.9,0.8s-0.8,0.4-1.3,0.6c2.2,0.5,3.3,1.7,3.3,3.6c0,0.7-0.1,1.3-0.4,1.9
			c-0.3,0.6-0.6,1.1-1.1,1.5s-1.1,0.7-1.8,1c-0.7,0.2-1.5,0.4-2.5,0.4h-6v-15.9h5.6V680.2z M811,682.5v4.6h2.4c1,0,1.8-0.2,2.3-0.6
			c0.5-0.4,0.8-1,0.8-1.8s-0.2-1.4-0.7-1.8c-0.5-0.4-1.2-0.5-2.2-0.5L811,682.5L811,682.5z M814,693.8c0.6,0,1-0.1,1.4-0.2
			c0.4-0.1,0.7-0.3,0.9-0.5s0.4-0.5,0.5-0.8s0.1-0.6,0.1-0.9c0-0.3-0.1-0.7-0.2-0.9s-0.3-0.5-0.5-0.7s-0.5-0.3-0.9-0.4
			c-0.4-0.1-0.8-0.2-1.3-0.2h-3v4.7L814,693.8L814,693.8z"/>
		<path class="st11" d="M821.7,686.4c1.3-1.2,2.9-1.8,4.7-1.8c0.7,0,1.3,0.1,1.8,0.3s1,0.5,1.3,0.9s0.6,0.8,0.8,1.4
			c0.2,0.5,0.3,1.1,0.3,1.8v7.1h-1.2c-0.3,0-0.5,0-0.6-0.1s-0.3-0.2-0.3-0.5l-0.2-0.8c-0.3,0.3-0.6,0.5-0.8,0.7
			c-0.3,0.2-0.6,0.4-0.8,0.5c-0.3,0.1-0.6,0.2-0.9,0.3c-0.3,0.1-0.7,0.1-1.1,0.1c-0.5,0-0.9-0.1-1.3-0.2s-0.8-0.3-1-0.6
			c-0.3-0.3-0.5-0.6-0.7-1s-0.2-0.8-0.2-1.3c0-0.3,0-0.6,0.1-0.9c0.1-0.3,0.3-0.6,0.5-0.8c0.2-0.3,0.5-0.5,0.8-0.7s0.8-0.4,1.3-0.6
			c0.5-0.2,1.1-0.3,1.8-0.4s1.4-0.2,2.3-0.2V689c0-0.8-0.2-1.3-0.5-1.7s-0.8-0.5-1.4-0.5c-0.4,0-0.8,0.1-1.1,0.2
			c-0.3,0.1-0.5,0.2-0.8,0.3c-0.2,0.1-0.4,0.2-0.6,0.3c-0.2,0.1-0.4,0.2-0.6,0.2c-0.2,0-0.4,0-0.5-0.1s-0.2-0.2-0.3-0.3L821.7,686.4
			z M828,691.3c-0.8,0-1.4,0.1-2,0.2c-0.5,0.1-1,0.2-1.3,0.4s-0.6,0.3-0.7,0.5s-0.2,0.4-0.2,0.7c0,0.5,0.1,0.8,0.4,1
			s0.7,0.3,1.1,0.3c0.6,0,1-0.1,1.5-0.3c0.4-0.2,0.8-0.5,1.2-0.9V691.3z"/>
		<path class="st11" d="M841.3,687.2c-0.1,0.1-0.2,0.2-0.2,0.2c-0.1,0.1-0.2,0.1-0.3,0.1s-0.3,0-0.4-0.1c-0.1-0.1-0.3-0.2-0.5-0.3
			s-0.4-0.2-0.7-0.3s-0.6-0.1-0.9-0.1c-0.5,0-0.9,0.1-1.3,0.3c-0.4,0.2-0.7,0.4-0.9,0.7s-0.4,0.7-0.5,1.2s-0.2,1-0.2,1.6
			s0.1,1.1,0.2,1.6c0.1,0.5,0.3,0.9,0.6,1.2c0.2,0.3,0.5,0.6,0.9,0.7c0.3,0.2,0.7,0.2,1.2,0.2s0.8-0.1,1.1-0.2
			c0.3-0.1,0.5-0.2,0.7-0.4c0.2-0.1,0.3-0.2,0.5-0.4c0.1-0.1,0.3-0.2,0.5-0.2s0.4,0.1,0.5,0.3l0.8,1c-0.3,0.4-0.6,0.6-1,0.9
			c-0.4,0.2-0.7,0.4-1.1,0.6c-0.4,0.1-0.8,0.2-1.2,0.3s-0.8,0.1-1.2,0.1c-0.7,0-1.4-0.1-2-0.4c-0.6-0.3-1.2-0.6-1.6-1.1
			s-0.8-1.1-1.1-1.8s-0.4-1.5-0.4-2.5c0-0.8,0.1-1.6,0.4-2.3c0.2-0.7,0.6-1.3,1.1-1.8s1-0.9,1.7-1.2s1.5-0.4,2.4-0.4
			c0.8,0,1.6,0.1,2.2,0.4s1.2,0.7,1.7,1.2L841.3,687.2z"/>
		<path class="st11" d="M846.5,679.8v9.4h0.5c0.2,0,0.3,0,0.4-0.1c0.1,0,0.2-0.1,0.3-0.3l2.8-3.5c0.1-0.2,0.2-0.3,0.4-0.4
			c0.1-0.1,0.3-0.1,0.6-0.1h2.5l-3.5,4.2c-0.3,0.3-0.5,0.6-0.8,0.8c0.2,0.1,0.3,0.2,0.4,0.4c0.1,0.1,0.2,0.3,0.3,0.5l3.8,5.5h-2.5
			c-0.2,0-0.4,0-0.6-0.1c-0.2-0.1-0.3-0.2-0.4-0.4l-2.9-4.3c-0.1-0.2-0.2-0.3-0.3-0.3s-0.3-0.1-0.5-0.1h-0.6v5.2h-2.7v-16.4
			L846.5,679.8L846.5,679.8z"/>
		<path class="st11" d="M865.3,684.8v11.3h-1.7c-0.4,0-0.6-0.2-0.7-0.5l-0.2-0.9c-0.5,0.5-1,0.9-1.5,1.1c-0.6,0.3-1.2,0.4-2,0.4
			c-0.6,0-1.2-0.1-1.6-0.3c-0.5-0.2-0.9-0.5-1.2-0.9s-0.6-0.8-0.7-1.4c-0.2-0.5-0.2-1.1-0.2-1.7v-7.2h2.7v7.2c0,0.7,0.2,1.2,0.5,1.6
			c0.3,0.4,0.8,0.6,1.4,0.6c0.5,0,0.9-0.1,1.3-0.3c0.4-0.2,0.8-0.5,1.2-0.9v-8.2h2.7V684.8z"/>
		<path class="st11" d="M870.6,686.4c0.5-0.5,1-0.9,1.6-1.3c0.6-0.3,1.3-0.5,2.1-0.5c0.6,0,1.2,0.1,1.7,0.4c0.5,0.3,1,0.6,1.3,1.1
			c0.4,0.5,0.7,1.1,0.9,1.8s0.3,1.5,0.3,2.5c0,0.8-0.1,1.6-0.3,2.3s-0.6,1.3-1,1.9c-0.4,0.5-0.9,0.9-1.5,1.2s-1.3,0.4-2,0.4
			c-0.6,0-1.2-0.1-1.6-0.3c-0.4-0.2-0.8-0.5-1.2-0.8v4.6H868v-15h1.7c0.4,0,0.6,0.2,0.7,0.5L870.6,686.4z M870.8,693.2
			c0.3,0.4,0.6,0.6,1,0.8s0.8,0.2,1.2,0.2s0.8-0.1,1.1-0.2c0.3-0.2,0.6-0.4,0.8-0.7s0.4-0.7,0.5-1.2s0.2-1,0.2-1.7s-0.1-1.2-0.2-1.7
			c-0.1-0.5-0.3-0.8-0.5-1.1s-0.4-0.5-0.7-0.6s-0.6-0.2-1-0.2c-0.6,0-1,0.1-1.4,0.4c-0.4,0.2-0.8,0.6-1.1,1v5H870.8z"/>
		<path class="st11" d="M894.1,680.2v15.9h-1.5c-0.2,0-0.4,0-0.6-0.1s-0.3-0.2-0.5-0.4l-8.3-10.6c0,0.5,0.1,0.9,0.1,1.3v9.8h-2.6
			v-15.9h1.6c0.1,0,0.2,0,0.3,0s0.2,0,0.2,0.1c0.1,0,0.1,0.1,0.2,0.1c0.1,0.1,0.1,0.1,0.2,0.2l8.4,10.7c0-0.3,0-0.5-0.1-0.8
			s0-0.5,0-0.7v-9.7h2.6V680.2z"/>
		<path class="st11" d="M896.7,686.4c1.3-1.2,2.9-1.8,4.7-1.8c0.7,0,1.3,0.1,1.8,0.3s1,0.5,1.3,0.9s0.6,0.8,0.8,1.4
			c0.2,0.5,0.3,1.1,0.3,1.8v7.1h-1.2c-0.3,0-0.5,0-0.6-0.1s-0.3-0.2-0.3-0.5l-0.2-0.8c-0.3,0.3-0.6,0.5-0.8,0.7
			c-0.3,0.2-0.6,0.4-0.8,0.5c-0.3,0.1-0.6,0.2-0.9,0.3c-0.3,0.1-0.7,0.1-1.1,0.1c-0.5,0-0.9-0.1-1.3-0.2s-0.8-0.3-1-0.6
			c-0.3-0.3-0.5-0.6-0.7-1s-0.2-0.8-0.2-1.3c0-0.3,0-0.6,0.1-0.9c0.1-0.3,0.3-0.6,0.5-0.8c0.2-0.3,0.5-0.5,0.8-0.7s0.8-0.4,1.3-0.6
			c0.5-0.2,1.1-0.3,1.8-0.4s1.4-0.2,2.3-0.2V689c0-0.8-0.2-1.3-0.5-1.7s-0.8-0.5-1.4-0.5c-0.4,0-0.8,0.1-1.1,0.2
			c-0.3,0.1-0.5,0.2-0.8,0.3c-0.2,0.1-0.4,0.2-0.6,0.3c-0.2,0.1-0.4,0.2-0.6,0.2c-0.2,0-0.4,0-0.5-0.1s-0.2-0.2-0.3-0.3L896.7,686.4
			z M902.9,691.3c-0.8,0-1.4,0.1-2,0.2c-0.5,0.1-1,0.2-1.3,0.4s-0.6,0.3-0.7,0.5s-0.2,0.4-0.2,0.7c0,0.5,0.1,0.8,0.4,1
			s0.7,0.3,1.1,0.3c0.6,0,1-0.1,1.5-0.3c0.4-0.2,0.8-0.5,1.2-0.9V691.3z"/>
		<path class="st11" d="M908.1,696.2v-11.3h1.7c0.4,0,0.6,0.2,0.7,0.5l0.2,0.8c0.2-0.2,0.4-0.4,0.6-0.6s0.4-0.3,0.7-0.5
			c0.2-0.1,0.5-0.2,0.8-0.3s0.6-0.1,0.9-0.1c0.7,0,1.3,0.2,1.8,0.6c0.5,0.4,0.8,0.9,1,1.5c0.2-0.4,0.4-0.7,0.7-1s0.6-0.5,0.9-0.7
			c0.3-0.2,0.7-0.3,1-0.4c0.4-0.1,0.7-0.1,1.1-0.1c0.6,0,1.2,0.1,1.7,0.3s0.9,0.5,1.2,0.8s0.6,0.8,0.8,1.3s0.3,1.1,0.3,1.8v7.2h-2.7
			v-7c0-0.7-0.2-1.3-0.5-1.6s-0.8-0.5-1.4-0.5c-0.3,0-0.5,0-0.8,0.1c-0.2,0.1-0.4,0.2-0.6,0.4c-0.2,0.2-0.3,0.4-0.4,0.7
			c-0.1,0.3-0.2,0.6-0.2,0.9v7.2h-2.7V689c0-0.8-0.2-1.3-0.5-1.7s-0.8-0.5-1.3-0.5c-0.4,0-0.8,0.1-1.1,0.3s-0.7,0.5-1,0.8v8.3
			L908.1,696.2L908.1,696.2z"/>
		<path class="st11" d="M928.7,690.8c0,0.6,0.1,1.1,0.3,1.5s0.4,0.8,0.6,1c0.3,0.3,0.6,0.5,0.9,0.6c0.4,0.1,0.8,0.2,1.2,0.2
			s0.8-0.1,1.1-0.2c0.3-0.1,0.6-0.2,0.8-0.3s0.4-0.2,0.6-0.3c0.2-0.1,0.4-0.2,0.5-0.2c0.2,0,0.4,0.1,0.5,0.3l0.8,1
			c-0.3,0.4-0.6,0.6-1,0.9c-0.4,0.2-0.8,0.4-1.2,0.6c-0.4,0.1-0.8,0.2-1.2,0.3s-0.8,0.1-1.2,0.1c-0.8,0-1.5-0.1-2.2-0.4
			c-0.7-0.3-1.3-0.6-1.8-1.2s-0.9-1.1-1.2-1.9c-0.3-0.8-0.4-1.6-0.4-2.6c0-0.8,0.1-1.5,0.4-2.2s0.6-1.3,1.1-1.8s1-0.9,1.7-1.2
			s1.4-0.4,2.3-0.4c0.7,0,1.4,0.1,2,0.3s1.1,0.6,1.6,1s0.8,1,1,1.6s0.4,1.4,0.4,2.2c0,0.4,0,0.7-0.1,0.8s-0.3,0.2-0.5,0.2h-7V690.8z
			 M933.9,689.2c0-0.4,0-0.7-0.1-1s-0.2-0.6-0.4-0.8s-0.5-0.4-0.8-0.6c-0.3-0.1-0.7-0.2-1.1-0.2c-0.8,0-1.4,0.2-1.9,0.7
			c-0.5,0.4-0.7,1.1-0.9,1.9L933.9,689.2L933.9,689.2z"/>
	</g>
</g>
<circle class="st13" cx="323.4" cy="268.9" r="136.4"/>
</svg>
