<svg xmlns="http://www.w3.org/2000/svg" viewBox="0 0 1191.449 906.53">
  <defs>
    <style>
      .a {
        fill: #3b4654;
      }

      .b {
        fill: #637085;
      }

      .c {
        fill: #945ab5;
      }

      .d {
        fill: #7bd85d;
      }

      .e {
        fill: none;
        stroke: #3b4654;
        stroke-miterlimit: 10;
        stroke-width: 4px;
      }

      .f {
        fill: #37c4ac;
      }

      .g {
        fill: #2f9ef3;
      }

      .h {
        fill: #fff;
      }

      .i, .j {
        font-size: 48.269px;
        font-family: Lato-Heavy, Lato;
        font-weight: 800;
      }

      .i {
        letter-spacing: -0.034em;
      }
    </style>
  </defs>
  <title>Artboard 5</title>
  <g>
    <rect class="a" x="772.167" y="386.629" width="378.888" height="78.183"/>
    <rect class="a" x="537.618" y="789.573" width="378.888" height="78.183"/>
    <rect class="b" x="630.212" y="805.507" width="273.234" height="15.226"/>
    <rect class="c" x="630.212" y="841.302" width="130.057" height="15.226"/>
    <rect class="b" x="856.885" y="405.198" width="273.234" height="15.226"/>
    <rect class="d" x="856.885" y="440.993" width="130.057" height="15.226"/>
    <line class="e" x1="489.317" y1="355.361" x2="430.278" y2="458.037"/>
    <line class="e" x1="627.85" y1="459.861" x2="566.132" y2="352.962"/>
    <line class="e" x1="589.889" y1="524.121" x2="466.467" y2="522.207"/>
    <line class="e" x1="858.34" y1="462.547" x2="741.674" y2="502.866"/>
    <line class="e" x1="807.547" y1="77.866" x2="527.093" y2="287.773"/>
    <line class="e" x1="229.838" y1="132.229" x2="527.093" y2="280.654"/>
    <line class="e" x1="720.187" y1="791.867" x2="683.697" y2="600.218"/>
    <circle class="d" cx="527.093" cy="287.773" r="82.318"/>
    <circle class="d" cx="393.28" cy="520.819" r="82.318"/>
    <circle class="d" cx="669.928" cy="525.329" r="82.318"/>
    <rect class="a" x="618.104" y="38.774" width="378.888" height="78.183"/>
    <rect class="b" x="702.822" y="57.343" width="273.234" height="15.226"/>
    <rect class="f" x="702.822" y="93.137" width="130.057" height="15.226"/>
    <rect class="a" x="40.394" y="93.137" width="378.888" height="78.183"/>
    <rect class="b" x="125.112" y="111.707" width="273.234" height="15.226"/>
    <rect class="g" x="125.112" y="147.501" width="130.057" height="15.226"/>
    <g>
      <path class="g" d="M105.541,125.359c-1.97,1.675-2.762,1.607-4.047,1.607a13.586,13.586,0,0,1-1.607-.16,19.532,19.532,0,0,0-3.535-.4,11.426,11.426,0,0,0-5.464,1.285,45.261,45.261,0,0,0-7.392,5.223h3.455v5.3h-6.83v-2.652c-.964.8-1.928,1.607-2.892,2.33v19.846h32.139v-32.38Zm-18.59,29.488h-6.83v-5.464h6.83Zm0-8.356h-6.83v-5.384h6.83Zm9.8,8.356H89.924v-5.464h6.829Zm0-8.356H89.924v-5.384h6.829Zm0-8.276H89.924v-5.3h6.829Zm9.8,16.632h-6.83v-5.464h6.83Zm0-8.356h-6.83v-5.384h6.83Zm0-8.276h-6.83v-5.3h6.83Z"/>
      <path class="g" d="M69.355,136.367c.8-1.527,3.294-10.445.241-18.159a16.439,16.439,0,0,0-4.1-6.026,17.858,17.858,0,0,0-6.187-3.7,28.988,28.988,0,0,0-7.713-1.607A33.233,33.233,0,0,1,58.99,111.7a19.335,19.335,0,0,1,4.821,5.785,48.98,48.98,0,0,1,3.294,8.035,61.068,61.068,0,0,1,1.929,8.517C69.275,135.483,69.355,136.367,69.355,136.367Z"/>
      <path class="g" d="M90.085,125.359c6.267-3.053,12.052.081,11.65-1.125-.723-2.651-6.669-5.785-6.669-5.785a12.414,12.414,0,0,0-7.312-4.1,21.086,21.086,0,0,0-8.516.482c-4.741-6.267-14.061-7.714-17.757-8.035-.964-.08-1.527-.08-1.527-.08a22.026,22.026,0,0,1,7.151,3.7,13.353,13.353,0,0,1,2.411,2.33l1.526-.081-.964.884a8.865,8.865,0,0,1,.723,1.125l2.571-.4L71.524,116.2c.161.482.241.884.4,1.366,3.7,14.3-3.616,22.979-3.616,22.979a21.671,21.671,0,0,0,2.009-.884,41.3,41.3,0,0,0,6.83-4.821c4.338-3.455,8.677-7.392,12.534-9.32C89.843,125.44,89.924,125.44,90.085,125.359Zm-.724-7.713a6.2,6.2,0,0,1,3.3,1.527c.08.08-.643.241-1.447.16a2.954,2.954,0,0,1-2.008-.884C88.638,117.887,88.8,117.646,89.361,117.646Z"/>
    </g>
    <g>
      <path class="d" d="M818.285,447.052a3.958,3.958,0,0,0-3,1.218,4.1,4.1,0,0,0-1.218,3,3.958,3.958,0,0,0,1.218,3,4.1,4.1,0,0,0,3,1.218,3.958,3.958,0,0,0,3-1.218,4.1,4.1,0,0,0,1.218-3,3.958,3.958,0,0,0-1.218-3A4.336,4.336,0,0,0,818.285,447.052Z"/>
      <path class="d" d="M842.552,443.024a31.02,31.02,0,0,0-6.465-9.37,30.516,30.516,0,0,0-9.369-6.465,23.508,23.508,0,0,0-4.31-1.5c-1.968,1.5-4.029,3.092-6,4.779l-.187.187a25.486,25.486,0,0,1,8.339,2.155,24.421,24.421,0,0,1,7.4,5.153,27.585,27.585,0,0,1,5.153,7.4,24.96,24.96,0,0,1,2.249,9.088h5.809A30.931,30.931,0,0,0,842.552,443.024Z"/>
      <path class="d" d="M828.03,441.524a20.378,20.378,0,0,0-5.716-4.028,18.969,18.969,0,0,0-6.746-1.781h-.281v5.809a13.192,13.192,0,0,1,8.62,4.123,14.377,14.377,0,0,1,4.123,8.62h5.809a19.584,19.584,0,0,0-5.809-12.743Z"/>
      <path class="d" d="M802.17,432.53c.937-1.78,3.841-12.18.281-21.175a19.176,19.176,0,0,0-4.778-7.027,20.81,20.81,0,0,0-7.215-4.31,33.789,33.789,0,0,0-9-1.874,38.729,38.729,0,0,1,8.62,5.622,22.534,22.534,0,0,1,5.622,6.746,57.1,57.1,0,0,1,3.841,9.369,71.006,71.006,0,0,1,2.249,9.932C802.076,431.5,802.17,432.53,802.17,432.53Z"/>
      <path class="d" d="M818.66,424.753a46.6,46.6,0,0,1,7.215-4.872c7.5-3.935,14.522-.094,14.054-1.5-.844-3.092-7.777-6.746-7.777-6.746a14.471,14.471,0,0,0-8.526-4.778,24.589,24.589,0,0,0-9.932.562c-5.528-7.308-16.4-9-20.706-9.37-1.125-.093-1.78-.093-1.78-.093a25.7,25.7,0,0,1,8.338,4.31,15.528,15.528,0,0,1,2.811,2.717l1.78-.094-1.124,1.031a10.251,10.251,0,0,1,.843,1.311l3-.468-2.155,2.249c.187.562.281,1.03.468,1.592,4.31,16.678-4.216,26.8-4.216,26.8a25.383,25.383,0,0,0,2.342-1.031c3.654-1.967,7.87-5.434,11.993-8.807C816.411,426.533,817.536,425.69,818.66,424.753ZM825.5,410.7a7.237,7.237,0,0,1,3.841,1.78c.094.094-.749.281-1.686.188a3.449,3.449,0,0,1-2.343-1.031C824.656,410.98,824.844,410.7,825.5,410.7Z"/>
    </g>
    <g>
      <path class="c" d="M573.832,834.253a3.929,3.929,0,0,1-1.117-2.744h-10.77v-7.315h17.679a21.134,21.134,0,0,1,19.811-13.817,17.154,17.154,0,0,1,2.337.1l-1.016-.712-1.829-1.219H569.362l-1.93,1.626-9.043,7.213-2.743,2.134v18.592h22.047l-3.861-3.86Z"/>
      <path class="c" d="M587.345,819.318a17.242,17.242,0,1,1,12.192,29.463,16.265,16.265,0,0,1-12.192-5.08l2.743-2.743a12.58,12.58,0,0,0,9.449,3.963,13.363,13.363,0,1,0-13.31-13.31h5.792l-7.823,7.722-.1-.3-7.417-7.417h5.791a16.159,16.159,0,0,1,4.877-12.293Zm10.363,4.572h2.845v8.127l6.6,4.064-1.321,2.337-8.128-4.978v-9.55Z"/>
    </g>
    <g>
      <path class="f" d="M652.886,85.186a10.623,10.623,0,1,1-3.13,7.531A10.268,10.268,0,0,1,652.886,85.186Zm1.361,13.7a8.761,8.761,0,1,0-2.54-6.168A8.395,8.395,0,0,0,654.247,98.885ZM656.13,91.2a1.427,1.427,0,1,1-1.021-.43A1.4,1.4,0,0,1,656.13,91.2Zm-.137,4.831a1.484,1.484,0,0,1,2.042,0,1.479,1.479,0,0,1,0,2.087,1.482,1.482,0,0,1-2.042,0,1.481,1.481,0,0,1,0-2.087Zm6.918-9.639a1.48,1.48,0,0,1,0,2.041,1.371,1.371,0,0,1-1.044.432h-2.9a1.368,1.368,0,0,1-1.043-.432,1.48,1.48,0,0,1,0-2.041,1.378,1.378,0,0,1,1.043-.43h2.9A1.38,1.38,0,0,1,662.911,86.388Zm-.114,9.639a1.483,1.483,0,0,1,2.041,0,1.476,1.476,0,0,1,0,2.087,1.48,1.48,0,0,1-2.041,0,1.479,1.479,0,0,1,0-2.087ZM664.7,91.2a1.423,1.423,0,1,1-.432,1.022A1.4,1.4,0,0,1,664.7,91.2Z"/>
      <g>
        <polygon class="f" points="669.179 65.315 663.36 59.541 663.36 62.935 657.472 62.935 657.472 59.541 651.654 65.359 657.472 71.134 657.472 67.739 663.36 67.739 663.36 71.134 669.179 65.315"/>
        <polygon class="f" points="681.445 52.355 666.454 52.355 664.195 56.27 666.368 58.427 672.186 64.201 673.305 65.311 672.19 66.426 666.372 72.244 664.201 74.415 666.454 78.319 681.445 78.319 688.94 65.337 681.445 52.355"/>
        <polygon class="f" points="654.465 72.248 648.646 66.474 647.528 65.363 648.642 64.249 654.46 58.431 656.632 56.259 654.378 52.355 639.388 52.355 631.893 65.337 639.388 78.319 654.378 78.319 656.638 74.405 654.465 72.248"/>
      </g>
    </g>
    <path class="h" d="M549.617,246.244h0c2.461-1.391,3.531-2.782,3.531-4.387v-4.28c0-1.6-1.07-3-3.424-4.28a29.954,29.954,0,0,0-9.523-3.21,71.646,71.646,0,0,0-13.054-1.07,70.854,70.854,0,0,0-13.055,1.07,30.681,30.681,0,0,0-9.63,3.21c-2.354,1.391-3.424,2.675-3.424,4.28v4.28c0,1.6,1.07,3,3.424,4.28h.107v4.709a18.622,18.622,0,0,1-3.531-1.926V254.7c0,1.6,1.07,3,3.424,4.28h.107v4.708a27.474,27.474,0,0,1-3.531-1.926v5.992c0,1.5,1.07,3,3.424,4.28h.107v4.922a18.622,18.622,0,0,1-3.531-1.926v5.778c0,1.5,1.07,3,3.424,4.28a29.954,29.954,0,0,0,9.523,3.21,71.657,71.657,0,0,0,13.055,1.07,70.843,70.843,0,0,0,13.054-1.07,31.772,31.772,0,0,0,9.523-3.21c2.354-1.391,3.424-2.675,3.424-4.28v-5.778a15.007,15.007,0,0,1-3.424,1.926v-5.029c2.247-1.284,3.317-2.675,3.317-4.173v-5.778a19.339,19.339,0,0,1-3.317,1.926v-4.708c2.354-1.391,3.424-2.675,3.424-4.28v-5.778a15.007,15.007,0,0,1-3.424,1.926v-4.816Zm-16.906,19.368-1.177,2.033-1.391,2.461h-5.885l-1.391-2.461-2.568-4.494-1.391-2.461v18.083h-9.417V241.108h9.1l4.708,9.31,2.247,4.387,1.5,2.889,2.14-4.173,1.605-3.1,4.708-9.31h9.095v37.665h-9.2V260.69l-2.675,4.922Z"/>
    <path class="h" d="M415.8,481.815h0c2.461-1.391,3.531-2.782,3.531-4.387v-4.28c0-1.605-1.07-3-3.424-4.28a29.954,29.954,0,0,0-9.523-3.21,71.665,71.665,0,0,0-13.055-1.07,70.843,70.843,0,0,0-13.054,1.07,30.681,30.681,0,0,0-9.63,3.21c-2.354,1.391-3.424,2.675-3.424,4.28v4.28c0,1.605,1.07,3,3.424,4.28h.107v4.709a18.682,18.682,0,0,1-3.531-1.927v5.779c0,1.605,1.07,3,3.424,4.28h.107v4.708a27.474,27.474,0,0,1-3.531-1.926v5.992c0,1.5,1.07,3,3.424,4.28h.107v4.922a18.622,18.622,0,0,1-3.531-1.926v5.778c0,1.5,1.07,3,3.424,4.28a29.954,29.954,0,0,0,9.523,3.21,71.646,71.646,0,0,0,13.054,1.07,70.861,70.861,0,0,0,13.055-1.07,31.772,31.772,0,0,0,9.523-3.21c2.354-1.391,3.424-2.675,3.424-4.28V510.6a15.007,15.007,0,0,1-3.424,1.926V507.5c2.247-1.284,3.317-2.675,3.317-4.173v-5.778a19.339,19.339,0,0,1-3.317,1.926v-4.708c2.354-1.391,3.424-2.675,3.424-4.28V484.7a15.047,15.047,0,0,1-3.424,1.927v-4.816ZM398.9,501.183l-1.177,2.033-1.391,2.461h-5.885l-1.391-2.461-2.568-4.494-1.391-2.461v18.083h-9.416V476.679h9.1l4.708,9.309,2.247,4.388,1.5,2.889,2.14-4.173,1.605-3.1,4.708-9.31h9.1v37.665h-9.2V496.261l-2.675,4.922Z"/>
    <path class="h" d="M692.452,485.975h0c2.461-1.391,3.531-2.782,3.531-4.387v-4.28c0-1.605-1.07-3-3.424-4.28a29.954,29.954,0,0,0-9.523-3.21,71.657,71.657,0,0,0-13.055-1.07,70.843,70.843,0,0,0-13.054,1.07,30.681,30.681,0,0,0-9.63,3.21c-2.354,1.391-3.424,2.675-3.424,4.28v4.28c0,1.6,1.07,3,3.424,4.28h.107v4.708a18.622,18.622,0,0,1-3.531-1.926v5.778c0,1.605,1.07,3,3.424,4.281h.107v4.708a27.474,27.474,0,0,1-3.531-1.926v5.992c0,1.5,1.07,3,3.424,4.28h.107v4.922a18.622,18.622,0,0,1-3.531-1.926v5.778c0,1.5,1.07,3,3.424,4.28a29.954,29.954,0,0,0,9.523,3.21,71.646,71.646,0,0,0,13.054,1.07,70.854,70.854,0,0,0,13.055-1.07,31.772,31.772,0,0,0,9.523-3.21c2.354-1.391,3.424-2.675,3.424-4.28v-5.778a15.007,15.007,0,0,1-3.424,1.926v-5.029c2.247-1.284,3.317-2.675,3.317-4.173v-5.778a19.339,19.339,0,0,1-3.317,1.926v-4.708c2.354-1.392,3.424-2.676,3.424-4.281v-5.778a15.007,15.007,0,0,1-3.424,1.926v-4.815Zm-16.907,19.368-1.177,2.033-1.391,2.461h-5.885l-1.391-2.461-2.568-4.494-1.391-2.461V518.5h-9.416V480.839h9.1l4.708,9.309,2.247,4.387,1.5,2.89,2.14-4.174,1.605-3.1,4.708-9.309h9.1V518.5h-9.2V500.421l-2.675,4.922Z"/>
    <text class="i" transform="translate(376.337 573.582)">A</text>
    <text class="j" transform="translate(654.023 577.024)">C</text>
    <text class="j" transform="translate(511.08 338.253)">B</text>
  </g>
</svg>
