<?xml version="1.0" encoding="utf-8"?>
<!-- Generator: Adobe Illustrator 23.0.6, SVG Export Plug-In . SVG Version: 6.00 Build 0)  -->
<svg version="1.1" id="Layer_1" xmlns="http://www.w3.org/2000/svg" xmlns:xlink="http://www.w3.org/1999/xlink" x="0px" y="0px"
	 viewBox="0 0 1191.4 906.5" style="enable-background:new 0 0 1191.4 906.5;" xml:space="preserve">
<style type="text/css">
	.connection{fill:none;stroke:#333D48;stroke-width:4;stroke-miterlimit:10;}
	.st1{fill:none;stroke:#EDCD51;stroke-width:4;stroke-miterlimit:10;}
	.st2{fill:#EDCD51;}
	.st3{fill:none;stroke:#51D27A;stroke-width:4;stroke-miterlimit:10;}
	.st4{fill:#51D27A;}
	.st5{fill:#7BD85D;}
	.st6{fill:#FFFFFF;}
	.st7{enable-background:new    ;}
	.st8{fill:none;stroke:#FFFFFF;stroke-width:4;stroke-miterlimit:10;}
	.st9{font-family:'Lato-Bold';}
	.st10{font-size:19.389px;}
	.st11{font-size:34.4694px;}
	.st12{fill:#FF510F;}
	.st13{font-family:'MyriadPro-Regular';}
	.st14{font-size:80px;}
</style>



	<path class="connection" d="M847.9,484.9c0,0-160.6-144.6-504.6-165.1"/>
	<path class="connection" d="M315.1,678.7c0,0-107.7-190.8,28.2-358.8"/>
	<path class="connection" d="M343.3,319.8c80.1,197.4,319,465.3,319,465.3"/>
	<path class="connection" d="M847.9,484.9c0,0,53.4,208.1-185.6,300.2"/>
	<path class="connection" d="M662.3,785.1c-235.8,80.4-352.2-113.9-352.2-113.9"/>
	<path class="connection" d="M847.9,484.9C684.1,617.5,310.2,671.2,310.2,671.2"/>
	
		
	<g class="connection-selected">
		<path class="connection" d="M659.8,176.3C785,521.8,667,771,667,771"/>
		<g class="connection-incoming">
			<path class="connection" d="M689.2,292.8c47.6,207.2,6.7,364.9,6.7,364.9"/>
			<polygon class="arrow" points="684.3,302.1 689.4,294 697.5,299.1 696.2,293.5 688.1,288.4 683,296.5"/>
		</g>
		
		<g class="connection-outgoing">
			<path class="connection" d="M698.8,288.4c45.3,191.5,13.6,343.5,7,371"/>
			<polygon class="arrow" points="701.1,650 706.1,658.2 714.3,653.2 712.9,658.8 704.7,663.8 699.8,655.6"/>
		</g>
	</g>

	
	<g class="connection-selected">
		<path class="connection" d="M320.5,663c0,0,48.2-271.4,350.4-480.5"/>		
		<g class="connection-outgoing">
			<path class="connection" d="M364.2,549.7C375,524,437.1,385.8,582.8,257.4"/>
			<polygon class="arrow" points="373.6,545 364.7,548.6 361,539.8 358.8,545.1 362.5,554 371.4,550.3"/>
		</g>		
		<g class="connection-incoming">
			<path class="connection" d="M355.6,544.3c0,0,59.9-152.6,217.3-291.3"/>
			<polygon class="arrow" points="571.5,263.4 572.1,253.8 562.5,253.3 566.8,249.4 576.4,250 575.8,259.5"/>
		</g>
	</g>	
	
	
	<g class="connection-selected">
		<path class="connection" d="M853,469.5c0,0,8.6-217-184.2-295.3"/>
		<g class="connection-outgoing">
			<path class="connection" d="M829.5,356.9c-12.8-38.4-34.2-80.5-69.9-116.7"/>
			<polygon class="arrow" points="770,241.2 760.4,241.1 760.3,250.7 756.2,246.6 756.3,237 765.9,237.1"/>
		</g>
	
		<g class="connection-incoming">
			<path class="connection" d="M838.2,350.1c-13.4-39.7-36-83.3-74.1-120.2"/>
			<polygon class="arrow" points="841.9,340.3 837.7,349 829.1,344.8 831,350.2 839.6,354.4 843.8,345.8 "/>
		</g>
	</g>
	
	
	<g class="connection-selected">
		<path class="connection" d="M655.4,166.8c-202.2-49.1-322,132.1-322,132.1"/>
		<g class="connection-outgoing">
			<path class="connection" d="M547.7,166.7c-50.2,7.7-92.5,28.6-125.7,52"/>
			<polygon class="arrow" points="424.7,208.6 422.9,218 432.4,219.7 427.6,223 418.2,221.3 420,211.8 "/>
		</g>
	
		<g class="connection-incoming">
			<path class="connection" d="M541,157c-52.4,8.6-96,31.5-129.6,56.3"/>
			<polygon class="arrow" points="532.1,151.7 539.9,157.3 534.3,165.1 540,164.1 545.6,156.3 537.8,150.7"/>			
		</g>
	</g>
	
	
	<g id="nodeB" class="node">
		<circle class="selected-outline" cx="660.9" cy="172.1" r="113.7"/>
		<circle class="st5" cx="660.9" cy="172.1" r="107.9"/>
		<path class="st6" d="M690.4,117.6L690.4,117.6c3.2-1.8,4.6-3.7,4.6-5.7v-5.6c0-2.1-1.4-4-4.5-5.6c-3.9-2.1-8.1-3.5-12.5-4.2
			c-5.6-1-11.4-1.4-17.1-1.4c-5.7-0.1-11.5,0.4-17.1,1.4c-4.4,0.7-8.7,2.1-12.6,4.2c-3.1,1.8-4.5,3.5-4.5,5.6v5.6
			c0,2.1,1.4,4,4.5,5.6h0.1v6.2c-1.6-0.7-3.2-1.5-4.6-2.5v7.5c0,2.1,1.4,4,4.5,5.6h0.1v6.2c-1.6-0.8-3.1-1.6-4.6-2.5v7.8
			c0,2,1.4,4,4.5,5.6h0.1v6.5c-1.6-0.7-3.2-1.5-4.6-2.5v7.5c0,2,1.4,4,4.5,5.6c3.9,2.1,8.1,3.5,12.5,4.2c5.6,1,11.4,1.4,17.1,1.4
			c5.7,0.1,11.5-0.4,17.1-1.4c4.3-0.8,8.6-2.2,12.5-4.2c3.1-1.8,4.5-3.5,4.5-5.6v-7.5c-1.4,1-2.9,1.9-4.5,2.5v-6.6
			c2.9-1.7,4.3-3.5,4.3-5.5v-7.5c-1.3,0.9-2.8,1.8-4.3,2.5v-6.2c3.1-1.8,4.5-3.5,4.5-5.6v-7.5c-1.4,1-2.9,1.9-4.5,2.5V117.6
			L690.4,117.6z M668.2,143l-1.5,2.6l-1.8,3.2h-7.7l-1.8-3.2l-3.4-5.9l-1.8-3.2v23.7h-12.3v-49.3h12l6.2,12.2l2.9,5.7l2,3.8l2.8-5.5
			l2.1-4l6.2-12.2h12v49.3H672v-23.7L668.2,143L668.2,143z"/>
		<g class="st7">
			<path d="M661,192.3c3.1,0,5.7,0.3,7.9,0.8c2.2,0.6,4,1.4,5.4,2.4s2.4,2.4,3,3.9c0.7,1.5,0.9,3.2,0.9,5.1c0,1-0.2,2.1-0.5,3
				s-0.8,1.9-1.4,2.7s-1.5,1.6-2.4,2.4c-1,0.7-2.3,1.3-3.6,1.8c3.1,0.8,5.5,2,7,3.6c1.5,1.7,2.3,3.9,2.3,6.5c0,2-0.4,3.8-1.1,5.4
				c-0.8,1.7-1.9,3.1-3.3,4.3c-1.4,1.2-3.2,2.2-5.3,2.8c-2.1,0.7-4.5,1-7.2,1h-17.8v-45.9L661,192.3L661,192.3z M654.2,199.5V212
				h6.2c1.3,0,2.5-0.1,3.6-0.4c1-0.2,1.9-0.6,2.6-1c0.7-0.5,1.2-1.1,1.6-1.9s0.6-1.8,0.6-2.8c0-1.1-0.2-2.1-0.5-2.9
				c-0.3-0.8-0.8-1.4-1.4-1.9c-0.7-0.5-1.4-0.8-2.4-1c-0.9-0.2-2.2-0.4-3.5-0.4L654.2,199.5L654.2,199.5L654.2,199.5z M662.3,230.9
				c1.5,0,2.7-0.2,3.8-0.6c0.9-0.4,1.8-0.8,2.4-1.5c0.6-0.6,1-1.3,1.2-2.1s0.4-1.6,0.4-2.4c0-0.9-0.1-1.8-0.4-2.5
				c-0.3-0.8-0.8-1.3-1.3-1.9c-0.6-0.5-1.4-0.9-2.4-1.2s-2.2-0.4-3.6-0.4h-8.1v12.5L662.3,230.9L662.3,230.9z"/>
		</g>
	</g>
	
	<g id="nodeE" class="node">
		<circle class="st5" cx="310.2" cy="655.4" r="107.9"/>
		<path class="st6" d="M339.8,604.3L339.8,604.3c3.2-1.8,4.6-3.7,4.6-5.7V593c0-2.1-1.4-4-4.5-5.6c-3.9-2.1-8.1-3.5-12.5-4.2
			c-5.6-1-11.4-1.4-17.1-1.4c-5.7-0.1-11.5,0.4-17.1,1.4c-4.4,0.7-8.7,2.1-12.6,4.2c-3.1,1.8-4.5,3.5-4.5,5.6v5.6
			c0,2.1,1.4,4,4.5,5.6h0.1v6.2c-1.6-0.7-3.2-1.5-4.6-2.5v7.5c0,2.1,1.4,4,4.5,5.6h0.1v6.2c-1.6-0.8-3.1-1.6-4.6-2.5v7.8
			c0,2,1.4,4,4.5,5.6h0.1v6.5c-1.6-0.7-3.2-1.5-4.6-2.5v7.5c0,2,1.4,4,4.5,5.6c3.9,2.1,8.1,3.5,12.5,4.2c5.6,1,11.4,1.4,17.1,1.4
			c5.7,0.1,11.5-0.4,17.1-1.4c4.3-0.8,8.6-2.2,12.5-4.2c3.1-1.8,4.5-3.5,4.5-5.6v-7.5c-1.4,1-2.9,1.9-4.5,2.5V638
			c2.9-1.7,4.3-3.5,4.3-5.5V625c-1.3,0.9-2.8,1.8-4.3,2.5v-6.4c3.1-1.8,4.5-3.5,4.5-5.6V608c-1.4,1-2.9,1.9-4.5,2.5V604.3
			L339.8,604.3z M317.5,629.6l-1.5,2.6l-1.8,3.2h-7.7l-1.8-3.2l-3.4-5.9l-1.8-3.2v23.7h-12.3v-49.3h12l6.2,12.2l2.9,5.7l2,3.8
			l2.8-5.5l2.1-4l6.2-12.2h12v49.3h-12.1v-23.7L317.5,629.6L317.5,629.6z"/>
		<g>
			<path d="M306.5,686v11.8h15.3v7.2h-15.3v12.1h19.7v7.4H297v-45.9h29.2v7.4H306.5z"/>
		</g>
		<g>
			<rect x="256.1" y="580.2" class="st5" width="108.3" height="81.5"/>
			<text transform="matrix(1 0 0 1 286.8174 606.5934)"><tspan x="0" y="0" class="st6 st9 st10">ping</tspan><tspan x="-18.6" y="35.5" class="st6 st9 st11">15ms</tspan></text>
		</g>
	</g>
	<g id="nodeD" class="node">
		<circle class="st5" cx="660.8" cy="773.3" r="107.9"/>
		<path class="st6" d="M690.3,722.2L690.3,722.2c3.2-1.8,4.6-3.7,4.6-5.7v-5.6c0-2.1-1.4-4-4.5-5.6c-3.9-2.1-8.1-3.5-12.5-4.2
			c-5.6-1-11.4-1.4-17.1-1.4c-5.7-0.1-11.5,0.4-17.1,1.4c-4.4,0.7-8.7,2.1-12.6,4.2c-3.1,1.8-4.5,3.5-4.5,5.6v5.6
			c0,2.1,1.4,4,4.5,5.6h0.1v6.2c-1.6-0.7-3.2-1.5-4.6-2.5v7.5c0,2.1,1.4,4,4.5,5.6h0.1v6.2c-1.6-0.8-3.1-1.6-4.6-2.5v7.8
			c0,2,1.4,4,4.5,5.6h0.1v6.5c-1.6-0.7-3.2-1.5-4.6-2.5v7.5c0,2,1.4,4,4.5,5.6c3.9,2.1,8.1,3.5,12.5,4.2c5.6,1,11.4,1.4,17.1,1.4
			c5.7,0.1,11.5-0.4,17.1-1.4c4.3-0.8,8.6-2.2,12.5-4.2c3.1-1.8,4.5-3.5,4.5-5.6V760c-1.4,1-2.9,1.9-4.5,2.5V756
			c2.9-1.7,4.3-3.5,4.3-5.5V743c-1.3,0.9-2.8,1.8-4.3,2.5v-6.4c3.1-1.8,4.5-3.5,4.5-5.6V726c-1.4,1-2.9,1.9-4.5,2.5V722.2
			L690.3,722.2z M668.1,747.5l-1.5,2.6l-1.8,3.2h-7.7l-1.8-3.2l-3.4-5.9l-1.8-3.2v23.7h-12.3v-49.3h12l6.2,12.2l2.9,5.7l2,3.8
			l2.8-5.5l2.1-4l6.2-12.2h12v49.3h-12.1V741L668.1,747.5L668.1,747.5z"/>
		<g>
			<path d="M682.5,820.2c0,3.4-0.6,6.4-1.7,9.3c-1.1,2.8-2.7,5.2-4.8,7.3c-2.1,2-4.5,3.6-7.4,4.7c-2.9,1.1-6.1,1.7-9.6,1.7h-17.7
				v-45.9H659c3.5,0,6.7,0.6,9.6,1.7c2.9,1.1,5.4,2.7,7.4,4.8c2.1,2,3.6,4.5,4.8,7.3C682,813.8,682.5,816.9,682.5,820.2z
				 M672.8,820.2c0-2.4-0.3-4.6-1-6.5c-0.6-1.9-1.5-3.5-2.7-4.9c-1.2-1.3-2.6-2.4-4.3-3.1c-1.7-0.7-3.6-1.1-5.8-1.1h-8.1v31h8.1
				c2.2,0,4.1-0.4,5.8-1.1c1.7-0.7,3.1-1.7,4.3-3.1c1.2-1.3,2.1-3,2.7-4.9C672.5,824.8,672.8,822.6,672.8,820.2z"/>
		</g>
		<g>
			<rect x="608.2" y="697.5" class="st5" width="108.3" height="81.5"/>
			<text transform="matrix(1 0 0 1 638.9175 723.866)"><tspan x="0" y="0" class="st6 st9 st10">ping</tspan><tspan x="-18.6" y="35.5" class="st6 st9 st11">15ms</tspan></text>
		</g>
	</g>
	<g id="nodeC" class="node">
		<circle class="st5" cx="848.1" cy="472.3" r="107.9"/>
		<path class="st6" d="M877.5,420.8L877.5,420.8c3.2-1.8,4.6-3.7,4.6-5.7v-5.6c0-2.1-1.4-4-4.5-5.6c-3.9-2.1-8.1-3.5-12.5-4.2
			c-5.6-1-11.4-1.4-17.1-1.4c-5.7-0.1-11.5,0.4-17.1,1.4c-4.4,0.7-8.7,2.1-12.6,4.2c-3.1,1.8-4.5,3.5-4.5,5.6v5.6
			c0,2.1,1.4,4,4.5,5.6h0.1v6.2c-1.6-0.7-3.2-1.5-4.6-2.5v7.5c0,2.1,1.4,4,4.5,5.6h0.1v6.2c-1.6-0.8-3.1-1.6-4.6-2.5v7.8
			c0,2,1.4,4,4.5,5.6h0.1v6.5c-1.6-0.7-3.2-1.5-4.6-2.5v7.5c0,2,1.4,4,4.5,5.6c3.9,2.1,8.1,3.5,12.5,4.2c5.6,1,11.4,1.4,17.1,1.4
			c5.7,0.1,11.5-0.4,17.1-1.4c4.3-0.8,8.6-2.2,12.5-4.2c3.1-1.8,4.5-3.5,4.5-5.6v-7.5c-1.4,1-2.9,1.9-4.5,2.5v-6.6
			c2.9-1.7,4.3-3.5,4.3-5.5v-7.5c-1.3,0.9-2.8,1.8-4.3,2.5v-6c3.1-1.8,4.5-3.5,4.5-5.6v-7.5c-1.4,1-2.9,1.9-4.5,2.5V420.8
			L877.5,420.8z M855.4,446.1l-1.5,2.6l-1.8,3.2h-7.7l-1.8-3.2l-3.4-5.9l-1.8-3.2v23.7h-12.3V414h12l6.2,12.2l2.9,5.7l2,3.8l2.8-5.5
			l2.1-4l6.2-12.2h12v49.3h-12.1v-23.7L855.4,446.1L855.4,446.1z"/>
		<g class="st7">
			<path d="M863.2,528.8c0.6,0,0.9,0.2,1.3,0.6l3.8,4c-1.9,2.4-4.1,4.1-6.9,5.4c-2.7,1.2-6,1.8-9.8,1.8c-3.5,0-6.5-0.6-9.2-1.8
				c-2.7-1.1-5.1-2.8-7-4.9c-1.9-2.1-3.4-4.5-4.4-7.4c-1-2.8-1.5-6-1.5-9.4c0-2.3,0.3-4.4,0.8-6.5s1.2-4,2.2-5.6
				c0.9-1.7,2.1-3.3,3.4-4.7c1.3-1.4,2.8-2.5,4.5-3.6c1.7-0.9,3.5-1.7,5.6-2.3c2-0.5,4.1-0.8,6.4-0.8c1.7,0,3.3,0.2,4.8,0.5
				s2.9,0.8,4.2,1.2c1.3,0.5,2.5,1.1,3.6,1.9c1,0.8,2.1,1.6,3,2.4l-3.2,4.3c-0.2,0.3-0.5,0.5-0.8,0.8c-0.3,0.2-0.7,0.3-1.2,0.3
				s-1-0.2-1.5-0.6s-1.1-0.8-1.9-1.2c-0.8-0.5-1.7-0.8-2.8-1.2c-1.1-0.4-2.5-0.6-4.3-0.6c-1.9,0-3.7,0.4-5.3,1c-1.6,0.7-3,1.7-4.1,3
				s-2.1,2.9-2.6,4.9s-0.9,4.1-0.9,6.6c0,2.4,0.4,4.7,1,6.6c0.7,1.9,1.6,3.6,2.8,4.9s2.5,2.4,4.1,3c1.6,0.7,3.3,1,5.1,1
				c1,0,2.1-0.1,2.9-0.2c0.8-0.1,1.7-0.3,2.4-0.6c0.8-0.3,1.4-0.6,2.2-0.9c0.7-0.4,1.3-0.9,2-1.5c0.2-0.2,0.5-0.4,0.8-0.5
				C862.7,528.9,862.9,528.8,863.2,528.8z"/>
		</g>
		<g>
			<rect x="793.8" y="397.1" class="st5" width="108.3" height="81.5"/>
			<text transform="matrix(1 0 0 1 824.5175 425.466)"><tspan x="0" y="0" class="st6 st9 st10">ping</tspan><tspan x="-18.6" y="35.5" class="st6 st9 st11">15ms</tspan></text>
		</g>
	</g>
	<g id="nodeA" class="node">
		<circle class="st12" cx="343.3" cy="306.5" r="107.9"/>
		<path class="st6" d="M372.9,255.4L372.9,255.4c3.2-1.8,4.6-3.7,4.6-5.7V244c0-2.1-1.4-4-4.5-5.6c-3.9-2.1-8.1-3.5-12.5-4.2
			c-5.6-1-11.4-1.4-17.1-1.4c-5.7-0.1-11.5,0.4-17.1,1.4c-4.4,0.7-8.7,2.1-12.6,4.2c-3.1,1.8-4.5,3.5-4.5,5.6v5.6
			c0,2.1,1.4,4,4.5,5.6h0.1v6.2c-1.6-0.7-3.2-1.5-4.6-2.5v7.5c0,2.1,1.4,4,4.5,5.6h0.1v6.2c-1.6-0.8-3.1-1.6-4.6-2.5v7.8
			c0,2,1.4,4,4.5,5.6h0.1v6.5c-1.6-0.7-3.2-1.5-4.6-2.5v7.5c0,2,1.4,4,4.5,5.6c3.9,2.1,8.1,3.5,12.5,4.2c5.6,1,11.4,1.4,17.1,1.4
			c5.7,0.1,11.5-0.4,17.1-1.4c4.3-0.8,8.6-2.2,12.5-4.2c3.1-1.8,4.5-3.5,4.5-5.6v-7.5c-1.4,1-2.9,1.9-4.5,2.5V289
			c2.9-1.7,4.3-3.5,4.3-5.5V276c-1.3,0.9-2.8,1.8-4.3,2.5v-6.4c3.1-1.8,4.5-3.5,4.5-5.6V259c-1.4,1-2.9,1.9-4.5,2.5V255.4
			L372.9,255.4z M350.7,280.7l-1.5,2.6l-1.8,3.2h-7.7l-1.8-3.2l-3.4-5.9l-1.8-3.2v23.7h-12.3v-49.3h12l6.2,12.2l2.9,5.7l2,3.8
			l2.8-5.5l2.1-4l6.2-12.2h12v49.3h-12.1v-23.7L350.7,280.7L350.7,280.7z"/>
		<g class="st7">
			<path d="M366.1,375.6h-7.3c-0.8,0-1.5-0.2-2-0.6s-0.9-0.8-1.1-1.5l-3.1-8.8h-18.3l-3.1,8.8c-0.2,0.6-0.6,1-1.1,1.4
				c-0.6,0.5-1.2,0.7-2,0.7h-7.4l17.9-45.9h9.7L366.1,375.6z M350.2,358.2l-5-14c-0.3-0.8-0.6-1.6-0.9-2.6s-0.7-2.1-0.9-3.2
				c-0.3,1.2-0.6,2.3-0.9,3.3s-0.7,1.9-0.9,2.6l-4.9,13.9L350.2,358.2L350.2,358.2z"/>
		</g>
		<g>
			<rect x="288.6" y="231.5" class="st12" width="108.3" height="81.5"/>
			<text transform="matrix(1 0 0 1 317.8604 292.916)" class="st6 st13 st14">×</text>
		</g>
	</g>

</svg>
