<?xml version="1.0" encoding="UTF-8"?>
<svg id="Layer_1" data-name="Layer 1" xmlns="http://www.w3.org/2000/svg" version="1.1" viewBox="0 0 230 190">
  <defs>
    <style>
      .cls-1 {
        fill: #4f5b6d;
      }

      .cls-1, .cls-2, .cls-3, .cls-4, .cls-5, .cls-6 {
        stroke-width: 0px;
      }

      .cls-2 {
        fill: #f75e71;
      }

      .cls-3 {
        fill: #9457b5;
      }

      .cls-4 {
        fill: #3b4654;
      }

      .cls-5 {
        fill: #333d48;
      }

      .cls-6 {
        fill: #637085;
      }
    </style>
  </defs>
  <g>
    <path class="cls-5" d="M187.2,160.6c-1.3,0-2.5-.4-3.6-1.3l-72.3-60.2c-2.4-2-2.7-5.5-.7-7.8,2-2.4,5.5-2.7,7.8-.7l72.3,60.2c2.4,2,2.7,5.5.7,7.8-1.1,1.3-2.7,2-4.3,2Z"/>
    <path class="cls-4" d="M114.9,100.4c-1.3,0-2.5-.4-3.6-1.3L39,38.9c-2.4-2-2.7-5.5-.7-7.8,2-2.4,5.5-2.7,7.8-.7l72.3,60.2c2.4,2,2.7,5.5.7,7.8-1.1,1.3-2.7,2-4.3,2Z"/>
    <path class="cls-4" d="M122.7,88.2c-1,0-2-.3-2.9-.8-2.6-1.6-3.5-5-1.9-7.6l5.6-9.4c1.6-2.6,5-3.5,7.6-1.9,2.6,1.6,3.5,5,1.9,7.6l-5.6,9.4c-1,1.7-2.9,2.7-4.8,2.7ZM137.9,62.9c-1,0-2-.3-2.9-.8-2.6-1.6-3.5-5-1.9-7.6l5.7-9.5c1.6-2.6,5-3.5,7.6-1.9,2.6,1.6,3.5,5,1.9,7.6l-5.7,9.5c-1,1.7-2.9,2.7-4.8,2.7ZM153.1,37.5c-1,0-2-.3-2.9-.8-2.6-1.6-3.5-5-1.9-7.6l5.7-9.5c1.6-2.6,5-3.5,7.6-1.9,2.6,1.6,3.5,5,1.9,7.6l-5.7,9.5c-1,1.7-2.9,2.7-4.8,2.7Z"/>
    <path class="cls-5" d="M183.7,160.6h-11.1c-3.1,0-5.6-2.5-5.6-5.6s2.5-5.6,5.6-5.6h11.1c3.1,0,5.6,2.5,5.6,5.6s-2.5,5.6-5.6,5.6ZM154.1,160.6h-11.1c-3.1,0-5.6-2.5-5.6-5.6s2.5-5.6,5.6-5.6h11.1c3.1,0,5.6,2.5,5.6,5.6s-2.5,5.6-5.6,5.6ZM124.4,160.6h-11.1c-3.1,0-5.6-2.5-5.6-5.6s2.5-5.6,5.6-5.6h11.1c3.1,0,5.6,2.5,5.6,5.6s-2.5,5.6-5.6,5.6ZM94.8,160.6h-11.1c-3.1,0-5.6-2.5-5.6-5.6s2.5-5.6,5.6-5.6h11.1c3.1,0,5.6,2.5,5.6,5.6s-2.5,5.6-5.6,5.6Z"/>
    <path class="cls-4" d="M78.7,160.6c-2.4,0-4.6-1.6-5.3-4L37.2,36.2c-.9-2.9.8-6,3.7-6.9,2.9-.9,6,.8,6.9,3.7l36.2,120.4c.9,2.9-.8,6-3.7,6.9-.5.2-1.1.2-1.6.2Z"/>
    <path class="cls-4" d="M151,40.2H42.5c-3.1,0-5.6-2.5-5.6-5.6s2.5-5.6,5.6-5.6h108.5c3.1,0,5.6,2.5,5.6,5.6s-2.5,5.6-5.6,5.6Z"/>
    <g>
      <circle class="cls-6" cx="42.5" cy="34.6" r="19.6"/>
      <path class="cls-4" d="M42.5,59.8c-13.9,0-25.1-11.3-25.1-25.1s11.3-25.1,25.1-25.1,25.1,11.3,25.1,25.1-11.3,25.1-25.1,25.1ZM42.5,20.6c-7.7,0-14,6.3-14,14s6.3,14,14,14,14-6.3,14-14-6.3-14-14-14Z"/>
    </g>
    <g>
      <circle class="cls-4" cx="78.7" cy="155.1" r="19.6"/>
      <path class="cls-5" d="M78.7,180.2c-13.9,0-25.1-11.3-25.1-25.1s11.3-25.1,25.1-25.1,25.1,11.3,25.1,25.1-11.3,25.1-25.1,25.1ZM78.7,141.1c-7.7,0-14,6.3-14,14s6.3,14,14,14,14-6.3,14-14-6.3-14-14-14Z"/>
    </g>
    <g>
      <circle class="cls-4" cx="114.9" cy="94.9" r="19.6"/>
      <path class="cls-5" d="M114.9,120c-13.9,0-25.1-11.3-25.1-25.1s11.3-25.1,25.1-25.1,25.1,11.3,25.1,25.1-11.3,25.1-25.1,25.1ZM114.9,80.8c-7.7,0-14,6.3-14,14s6.3,14,14,14,14-6.3,14-14-6.3-14-14-14Z"/>
    </g>
    <path class="cls-5" d="M187.2,160.6c-2.4,0-4.6-1.6-5.3-4l-36.2-120.4c-.9-2.9.8-6,3.7-6.9,2.9-.9,6,.8,6.9,3.7l36.2,120.4c.9,2.9-.8,6-3.7,6.9-.5.2-1.1.2-1.6.2Z"/>
    <g>
      <circle class="cls-1" cx="187.2" cy="155.1" r="19.6"/>
      <path class="cls-5" d="M187.2,180.2c-13.9,0-25.1-11.3-25.1-25.1s11.3-25.1,25.1-25.1,25.1,11.3,25.1,25.1-11.3,25.1-25.1,25.1ZM187.2,141.1c-7.7,0-14,6.3-14,14s6.3,14,14,14,14-6.3,14-14-6.3-14-14-14Z"/>
    </g>
    <g>
      <circle class="cls-4" cx="151" cy="34.6" r="19.6"/>
      <path class="cls-5" d="M151,59.8c-13.9,0-25.1-11.3-25.1-25.1s11.3-25.1,25.1-25.1,25.1,11.3,25.1,25.1-11.3,25.1-25.1,25.1ZM151,20.6c-7.7,0-14,6.3-14,14s6.3,14,14,14,14-6.3,14-14-6.3-14-14-14Z"/>
    </g>
  </g>
  <g>
    <path class="cls-2" d="M127.2,143.1c0,2.4-.2,4.4-.6,6-.4,1.6-1,2.9-2,3.9s-2.2,1.7-3.8,2.1c-1.6.4-3.5.7-5.9.7s-4.4-.2-6-.7c-1.6-.4-2.9-1.1-3.8-2.1s-1.6-2.3-2-3.9c-.4-1.6-.6-3.6-.6-6s.2-4.5.6-6.2c.4-1.7,1-3,2-4s2.2-1.7,3.8-2.2c1.6-.4,3.6-.7,6-.7s4.4.2,5.9.7c1.6.4,2.8,1.2,3.8,2.2s1.6,2.4,2,4c.4,1.7.6,3.7.6,6.2ZM124.5,117.6c0,.6-.2,1.1-.5,1.6-.3.5-.8.9-1.5,1.2-.7.3-1.7.6-3,.7-1.3.2-2.8.3-4.6.3s-3.4,0-4.6-.3c-1.2-.2-2.2-.4-2.9-.7-.7-.3-1.2-.7-1.5-1.2-.3-.5-.5-1-.5-1.6l-2.3-79.2c0-.8.2-1.4.5-2,.3-.6,1-1.1,1.9-1.4.9-.4,2.1-.7,3.7-.8,1.5-.2,3.5-.3,5.8-.3s4.2.1,5.8.3c1.5.2,2.7.5,3.6.9.9.4,1.5.8,1.9,1.4.4.6.6,1.2.6,2l-2.3,79.2Z"/>
    <path class="cls-3" d="M114.9,33.8c2.3,0,4.2.1,5.8.3,1.5.2,2.7.5,3.6.9.9.4,1.5.8,1.9,1.4.4.6.6,1.2.6,2l-2.3,79.2c0,.6-.2,1.1-.5,1.6-.3.5-.8.9-1.5,1.2-.7.3-1.7.6-3,.7-1.3.2-2.8.3-4.6.3s-3.4,0-4.6-.3c-1.2-.2-2.2-.4-2.9-.7-.7-.3-1.2-.7-1.5-1.2-.3-.5-.5-1-.5-1.6l-2.3-79.2c0-.8.2-1.4.5-2,.3-.6,1-1.1,1.9-1.4.9-.4,2.1-.7,3.7-.8,1.5-.2,3.5-.3,5.8-.3M114.9,130.1c2.4,0,4.4.2,5.9.7,1.6.4,2.8,1.2,3.8,2.2s1.6,2.4,2,4c.4,1.7.6,3.7.6,6.2s-.2,4.4-.6,6c-.4,1.6-1,2.9-2,3.9s-2.2,1.7-3.8,2.1c-1.6.4-3.5.7-5.9.7s-4.4-.2-6-.7c-1.6-.4-2.9-1.1-3.8-2.1s-1.6-2.3-2-3.9c-.4-1.6-.6-3.6-.6-6s.2-4.5.6-6.2c.4-1.7,1-3,2-4s2.2-1.7,3.8-2.2c1.6-.4,3.6-.7,6-.7M114.9,25.3c-2.7,0-4.9.1-6.8.3-2.4.3-4.3.7-6,1.4-2.6,1.1-4.6,2.8-5.9,5-1.1,1.9-1.7,4.1-1.7,6.4h0c0,.1,0,.2,0,.2l2.3,79.2v.3s0,.3,0,.3c.2,1.9.8,3.7,1.8,5.3.5.8,1,1.5,1.7,2.1-.5.4-1,.9-1.5,1.4-1.9,2.1-3.3,4.8-4,7.9-.5,2.3-.8,4.9-.8,8s.3,5.7.8,8c.7,3.1,2.1,5.7,4.1,7.8,2,2.2,4.6,3.7,7.8,4.5,2.3.6,5,1,8.2,1s5.9-.3,8.2-1c3-.8,5.6-2.3,7.6-4.4,2-2.1,3.5-4.8,4.2-7.9.5-2.3.8-4.9.8-8s-.3-5.8-.8-8.1c-.7-3.2-2.1-5.8-4.1-8-.4-.5-.9-.9-1.4-1.3.7-.6,1.3-1.4,1.8-2.1,1-1.6,1.6-3.3,1.8-5.2v-.3s0-.3,0-.3l2.3-79.2h0v-.2c0-2.5-.7-4.8-2.1-6.8-1.3-1.9-3.2-3.4-5.7-4.4-1.6-.7-3.5-1.2-5.8-1.5-1.9-.3-4.2-.4-6.9-.4h0Z"/>
  </g>
</svg>