<?xml version="1.0" encoding="utf-8"?>
<!-- Generator: Adobe Illustrator 27.4.1, SVG Export Plug-In . SVG Version: 6.00 Build 0)  -->
<svg version="1.1" id="Layer_1" xmlns="http://www.w3.org/2000/svg" xmlns:xlink="http://www.w3.org/1999/xlink" x="0px" y="0px"
	 viewBox="0 0 230 190" style="enable-background:new 0 0 230 190;" xml:space="preserve">
<style type="text/css">
	.st0{fill:#7A61D4;}
	.st1{fill:#F75E71;}
	.st2{fill:#F38861;}
	.st3{fill:#518BEE;}
</style>
<g>
	<path class="st0" d="M187.4,160.6c-1.3,0-2.5-0.4-3.6-1.3l-72.4-60.2c-2.4-2-2.7-5.5-0.7-7.8c2-2.4,5.5-2.7,7.8-0.7l72.4,60.2
		c2.4,2,2.7,5.5,0.7,7.8C190.5,159.9,189,160.6,187.4,160.6z"/>
	<path class="st1" d="M115,100.4c-1.3,0-2.5-0.4-3.6-1.3L39.1,38.9c-2.4-2-2.7-5.5-0.7-7.8c2-2.4,5.5-2.7,7.8-0.7l72.4,60.2
		c2.4,2,2.7,5.5,0.7,7.8C118.2,99.7,116.6,100.4,115,100.4z"/>
	<path class="st1" d="M122.8,88.1c-1,0-2-0.3-2.9-0.8c-2.6-1.6-3.5-5-1.9-7.6l5.6-9.4c1.6-2.6,5-3.5,7.6-1.9c2.6,1.6,3.5,5,1.9,7.6
		l-5.6,9.4C126.6,87.2,124.7,88.1,122.8,88.1z M138,62.9c-1,0-2-0.3-2.9-0.8c-2.6-1.6-3.5-5-1.9-7.6l5.7-9.5c1.6-2.6,5-3.5,7.6-1.9
		c2.6,1.6,3.5,5,1.9,7.6l-5.7,9.5C141.7,61.9,139.9,62.9,138,62.9z M153.3,37.4c-1,0-2-0.3-2.9-0.8c-2.6-1.6-3.5-5-1.9-7.6l5.7-9.5
		c1.6-2.6,5-3.5,7.6-1.9c2.6,1.6,3.5,5,1.9,7.6l-5.7,9.5C157,36.5,155.2,37.4,153.3,37.4z"/>
	<path class="st0" d="M183.9,160.6h-11.1c-3.1,0-5.6-2.5-5.6-5.6c0-3.1,2.5-5.6,5.6-5.6h11.1c3.1,0,5.6,2.5,5.6,5.6
		C189.4,158.1,187,160.6,183.9,160.6z M154.2,160.6h-11.1c-3.1,0-5.6-2.5-5.6-5.6c0-3.1,2.5-5.6,5.6-5.6h11.1c3.1,0,5.6,2.5,5.6,5.6
		C159.8,158.1,157.3,160.6,154.2,160.6z M124.5,160.6h-11.1c-3.1,0-5.6-2.5-5.6-5.6c0-3.1,2.5-5.6,5.6-5.6h11.1
		c3.1,0,5.6,2.5,5.6,5.6C130.1,158.1,127.6,160.6,124.5,160.6z M94.9,160.6H83.7c-3.1,0-5.6-2.5-5.6-5.6c0-3.1,2.5-5.6,5.6-5.6h11.1
		c3.1,0,5.6,2.5,5.6,5.6C100.4,158.1,97.9,160.6,94.9,160.6z"/>
	<path class="st1" d="M78.8,160.6c-2.4,0-4.6-1.6-5.3-4L37.3,36.2c-0.9-2.9,0.8-6,3.7-6.9c2.9-0.9,6,0.8,6.9,3.7l36.2,120.5
		c0.9,2.9-0.8,6-3.7,6.9C79.9,160.6,79.3,160.6,78.8,160.6z"/>
	<path class="st1" d="M151.2,40.1H42.6c-3.1,0-5.6-2.5-5.6-5.6s2.5-5.6,5.6-5.6h108.5c3.1,0,5.6,2.5,5.6,5.6S154.3,40.1,151.2,40.1z
		"/>
	<g>
		<circle class="st2" cx="42.6" cy="34.6" r="19.6"/>
		<path class="st1" d="M42.6,59.7c-13.9,0-25.1-11.3-25.1-25.1S28.8,9.4,42.6,9.4c13.9,0,25.1,11.3,25.1,25.1S56.5,59.7,42.6,59.7z
			 M42.6,20.6c-7.7,0-14,6.3-14,14s6.3,14,14,14s14-6.3,14-14S50.4,20.6,42.6,20.6z"/>
	</g>
	<g>
		<circle class="st1" cx="78.8" cy="155.1" r="19.6"/>
		<path class="st0" d="M78.8,180.2c-13.9,0-25.1-11.3-25.1-25.1c0-13.9,11.3-25.1,25.1-25.1c13.9,0,25.1,11.3,25.1,25.1
			C104,168.9,92.7,180.2,78.8,180.2z M78.8,141.1c-7.7,0-14,6.3-14,14c0,7.7,6.3,14,14,14s14-6.3,14-14
			C92.8,147.3,86.5,141.1,78.8,141.1z"/>
	</g>
	<g>
		<circle class="st1" cx="115" cy="94.8" r="19.6"/>
		<path class="st0" d="M115,120c-13.9,0-25.1-11.3-25.1-25.1s11.3-25.1,25.1-25.1c13.9,0,25.1,11.3,25.1,25.1S128.9,120,115,120z
			 M115,80.8c-7.7,0-14,6.3-14,14s6.3,14,14,14s14-6.3,14-14S122.7,80.8,115,80.8z"/>
	</g>
	<path class="st0" d="M187.4,160.6c-2.4,0-4.6-1.6-5.3-4L145.9,36.2c-0.9-2.9,0.8-6,3.7-6.9c2.9-0.9,6,0.8,6.9,3.7l36.2,120.5
		c0.9,2.9-0.8,6-3.7,6.9C188.4,160.6,187.9,160.6,187.4,160.6z"/>
	<g>
		<circle class="st3" cx="187.4" cy="155.1" r="19.6"/>
		<path class="st0" d="M187.4,180.2c-13.9,0-25.1-11.3-25.1-25.1c0-13.9,11.3-25.1,25.1-25.1c13.9,0,25.1,11.3,25.1,25.1
			C212.5,168.9,201.2,180.2,187.4,180.2z M187.4,141.1c-7.7,0-14,6.3-14,14c0,7.7,6.3,14,14,14s14-6.3,14-14
			C201.4,147.3,195.1,141.1,187.4,141.1z"/>
	</g>
	<g>
		<circle class="st1" cx="151.2" cy="34.6" r="19.6"/>
		<path class="st0" d="M151.2,59.7c-13.9,0-25.1-11.3-25.1-25.1s11.3-25.1,25.1-25.1c13.9,0,25.1,11.3,25.1,25.1
			S165,59.7,151.2,59.7z M151.2,20.6c-7.7,0-14,6.3-14,14s6.3,14,14,14s14-6.3,14-14S158.9,20.6,151.2,20.6z"/>
	</g>
</g>
</svg>
