<?xml version="1.0" encoding="utf-8"?>
<!-- Generator: Adobe Illustrator 27.4.1, SVG Export Plug-In . SVG Version: 6.00 Build 0)  -->
<svg version="1.1" id="Layer_1" xmlns="http://www.w3.org/2000/svg" xmlns:xlink="http://www.w3.org/1999/xlink" x="0px" y="0px"
	 viewBox="0 0 230 190" style="enable-background:new 0 0 230 190;" xml:space="preserve">
<style type="text/css">
	.st0{fill:#727489;}
	.st1{fill:#424554;}
	.st2{fill:#7A61D4;}
	.st3{fill:#518BEE;}
</style>
<g>
	<g>
		<path class="st0" d="M99,155.3c0-6.9,2.2-13.3,5.8-18.6c-2-0.7-4.2-1.1-6.4-1.1c-10.8,0-19.6,8.8-19.6,19.6
			c0,10.8,8.8,19.6,19.6,19.6c2.2,0,4.4-0.4,6.4-1.1C101.1,168.6,99,162.2,99,155.3z"/>
		<path class="st0" d="M26.5,34.7c0-6.9,2.2-13.3,5.8-18.6c-2-0.7-4.2-1.1-6.4-1.1c-10.8,0-19.6,8.8-19.6,19.6s8.8,19.6,19.6,19.6
			c2.2,0,4.4-0.4,6.4-1.1C28.7,47.9,26.5,41.6,26.5,34.7z"/>
		<path class="st1" d="M74.4,67.9l8.3,4.6c0.9,0.5,1.8,0.7,2.7,0.7c2,0,3.9-1,4.9-2.9c1.5-2.7,0.5-6.1-2.2-7.6l-10.2-5.7
			c-2.7-1.5-6.1-0.5-7.6,2.2C68.8,62,71.7,66.4,74.4,67.9z"/>
		<path class="st1" d="M101.9,168.8c-1.1,0.3-2.3,0.5-3.6,0.5c-7.7,0-14-6.3-14-14s6.3-14,14-14c1.3,0,2.5,0.2,3.6,0.5
			c1.6-3.5,3.8-6.7,6.5-9.5c-3.1-1.4-6.5-2.2-10.2-2.2c-2.7,0-5.4,0.5-7.9,1.3l-39-65c-9.8-2.4-17.9-9.2-22-18.2
			c-1.1,0.3-2.3,0.5-3.6,0.5c-7.7,0-14-6.3-14-14s6.3-14,14-14c1.3,0,2.5,0.2,3.6,0.5c1.6-3.5,3.8-6.7,6.5-9.5
			c-3.1-1.4-6.5-2.2-10.2-2.2C12,9.5,0.7,20.8,0.7,34.7S12,59.8,25.9,59.8c2.7,0,5.4-0.5,7.9-1.3L81,137.1c-4.8,4.6-7.8,11-7.8,18.1
			c0,13.9,11.3,25.2,25.2,25.2c3.6,0,7-0.8,10.1-2.1C105.8,175.6,103.5,172.4,101.9,168.8z"/>
		<path class="st0" d="M135.2,95c0-6.9,2.2-13.3,5.8-18.6c-2-0.7-4.2-1.1-6.4-1.1c-10.8,0-19.6,8.8-19.6,19.6s8.8,19.6,19.6,19.6
			c2.2,0,4.4-0.4,6.4-1.1C137.3,108.2,135.2,101.9,135.2,95z"/>
		<path class="st1" d="M138.2,108.5c-1.1,0.3-2.3,0.5-3.6,0.5c-7.7,0-14-6.3-14-14s6.3-14,14-14c1.3,0,2.5,0.2,3.6,0.5
			c1.6-3.5,3.8-6.7,6.5-9.5c-3.1-1.4-6.5-2.2-10.2-2.2c-7.5,0-14.1,3.3-18.8,8.5c-0.2-0.1-0.3-0.2-0.5-0.3l-10.2-5.7
			c-2.7-1.5-6.1-0.5-7.6,2.2c-1.5,2.7-0.5,6.1,2.2,7.6l10.2,5.7c0.2,0.1,0.3,0.1,0.5,0.2c-0.7,2.3-1,4.6-1,7.1
			c0,13.9,11.3,25.2,25.2,25.2c3.6,0,7-0.8,10.1-2.1C142,115.3,139.8,112.1,138.2,108.5z"/>
	</g>
	<g>
		<g>
			<path class="st2" d="M64,43c-0.9,0-1.8-0.2-2.7-0.7l-4.9-2.7c-2.7-1.5-3.7-4.9-2.2-7.6c1.5-2.7,4.9-3.7,7.6-2.2l4.9,2.7
				c2.7,1.5,3.7,4.9,2.2,7.6C67.9,42,66,43,64,43z"/>
			<path class="st2" d="M145.9,88.4c-0.9,0-1.8-0.2-2.7-0.7L133,82c-2.7-1.5-3.7-4.9-2.2-7.6c1.5-2.7,4.9-3.7,7.6-2.2l10.2,5.7
				c2.7,1.5,3.7,4.9,2.2,7.6C149.8,87.4,147.9,88.4,145.9,88.4z M118.6,73.3c-0.9,0-1.8-0.2-2.7-0.7l-10.2-5.7
				c-2.7-1.5-3.7-4.9-2.2-7.6c1.5-2.7,4.9-3.7,7.6-2.2l10.2,5.7c2.7,1.5,3.7,4.9,2.2,7.6C122.5,72.2,120.6,73.3,118.6,73.3z
				 M91.3,58.1c-0.9,0-1.8-0.2-2.7-0.7l-10.2-5.7c-2.7-1.5-3.7-4.9-2.2-7.6c1.5-2.7,4.9-3.7,7.6-2.2L94,47.7
				c2.7,1.5,3.7,4.9,2.2,7.6C95.2,57.1,93.3,58.1,91.3,58.1z"/>
			<path class="st2" d="M167.9,100.6c-0.9,0-1.8-0.2-2.7-0.7l-4.9-2.7c-2.7-1.5-3.7-4.9-2.2-7.6c1.5-2.7,4.9-3.7,7.6-2.2l4.9,2.7
				c2.7,1.5,3.7,4.9,2.2,7.6C171.7,99.6,169.8,100.6,167.9,100.6z"/>
		</g>
		<path class="st2" d="M167.9,100.6c-1,0-2-0.3-2.9-0.8c-2.6-1.6-3.5-5-1.9-7.6l36.2-60.3c1.6-2.6,5-3.5,7.6-1.9
			c2.6,1.6,3.5,5,1.9,7.6l-36.2,60.3C171.6,99.6,169.7,100.6,167.9,100.6z"/>
		<path class="st2" d="M131.6,160.9c-1.9,0-3.7-1-4.8-2.7L54.4,37.6c-1.6-2.6-0.7-6.1,1.9-7.6c2.6-1.6,6.1-0.7,7.6,1.9l72.4,120.6
			c1.6,2.6,0.7,6.1-1.9,7.6C133.6,160.7,132.6,160.9,131.6,160.9z"/>
		<path class="st2" d="M204.1,40.3H59.2c-3.1,0-5.6-2.5-5.6-5.6s2.5-5.6,5.6-5.6h144.9c3.1,0,5.6,2.5,5.6,5.6S207.2,40.3,204.1,40.3
			z"/>
		<g>
			<circle class="st3" cx="59.2" cy="34.7" r="19.6"/>
			<path class="st2" d="M59.2,59.9C45.3,59.9,34,48.6,34,34.7S45.3,9.5,59.2,9.5c13.9,0,25.2,11.3,25.2,25.2S73.1,59.9,59.2,59.9z
				 M59.2,20.7c-7.7,0-14,6.3-14,14s6.3,14,14,14s14-6.3,14-14S66.9,20.7,59.2,20.7z"/>
		</g>
		<g>
			<circle class="st3" cx="204.1" cy="34.7" r="19.6"/>
			<path class="st2" d="M204.1,59.9c-13.9,0-25.2-11.3-25.2-25.2s11.3-25.2,25.2-25.2c13.9,0,25.2,11.3,25.2,25.2
				S218,59.9,204.1,59.9z M204.1,20.7c-7.7,0-14,6.3-14,14s6.3,14,14,14c7.7,0,14-6.3,14-14S211.8,20.7,204.1,20.7z"/>
		</g>
		<g>
			<circle class="st3" cx="131.6" cy="155.3" r="19.6"/>
			<path class="st2" d="M131.6,180.5c-13.9,0-25.2-11.3-25.2-25.2s11.3-25.2,25.2-25.2c13.9,0,25.2,11.3,25.2,25.2
				S145.5,180.5,131.6,180.5z M131.6,141.3c-7.7,0-14,6.3-14,14s6.3,14,14,14s14-6.3,14-14S139.4,141.3,131.6,141.3z"/>
		</g>
		<g>
			<circle class="st3" cx="167.9" cy="95" r="19.6"/>
			<path class="st2" d="M167.9,120.2c-13.9,0-25.2-11.3-25.2-25.2s11.3-25.2,25.2-25.2c13.9,0,25.2,11.3,25.2,25.2
				S181.7,120.2,167.9,120.2z M167.9,81c-7.7,0-14,6.3-14,14s6.3,14,14,14s14-6.3,14-14S175.6,81,167.9,81z"/>
		</g>
	</g>
</g>
</svg>
