<?xml version="1.0" encoding="utf-8"?>
<!-- Generator: Adobe Illustrator 27.4.1, SVG Export Plug-In . SVG Version: 6.00 Build 0)  -->
<svg version="1.1" id="Layer_1" xmlns="http://www.w3.org/2000/svg" xmlns:xlink="http://www.w3.org/1999/xlink" x="0px" y="0px"
	 viewBox="0 0 230 190" style="enable-background:new 0 0 230 190;" xml:space="preserve">
<style type="text/css">
	.st0{fill:#595B71;}
	.st1{fill:#5D4C9E;}
	.st2{fill:#518BEE;}
	.st3{fill:#353742;}
</style>
<g>
	<g>
		<g>
			<path class="st0" d="M171.5,42.09c-0.25-0.44-0.66-0.75-1.15-0.88c-0.49-0.13-1-0.06-1.44,0.19l-28.49,16.44l-1.46-0.58
				c-3.96-1.56-6.14-2.42-8.48-3.63c-0.93-0.48-2.07-0.11-2.55,0.82c-0.48,0.93-0.11,2.07,0.82,2.55c2.16,1.11,4.08,1.88,7.27,3.16
				l0.23,0.09l-7.82,4.51c-5.62-2.24-6.81-2.92-11.52-6.65v-9.03c2.51,1.97,4.06,3.14,6.1,4.47c0.87,0.57,2.05,0.32,2.62-0.55
				c0.57-0.87,0.32-2.05-0.55-2.62c-2.46-1.6-4.51-3.22-8.17-6.12v-4.64c0-1.04-0.85-1.89-1.89-1.89s-1.89,0.85-1.89,1.89v4.64
				c-9.92,7.86-11.79,8.94-23.51,13.57L63.6,42.77c-0.91-0.52-2.06-0.21-2.59,0.69c-0.17,0.29-0.25,0.61-0.25,0.94
				c0,0.67,0.36,1.3,0.95,1.64l38,21.99c0.87,5.98,0.87,7.35,0,13.3l-7.82,4.52c0.49-3.5,0.75-5.85,0.88-7.96
				c0.03-0.5-0.13-0.99-0.46-1.37c-0.33-0.38-0.8-0.61-1.31-0.64c-1.09-0.08-1.94,0.73-2.01,1.77c-0.17,2.84-0.6,6.05-1.27,10.6
				l-6.43,3.43c-0.58,0.34-0.95,0.97-0.95,1.64c0,0.33,0.09,0.66,0.26,0.94c0.25,0.44,0.66,0.75,1.15,0.88
				c0.48,0.13,1,0.06,1.42-0.18l6.43-3.43c11.78,4.67,13.65,5.75,23.52,13.58v30.88c0,1.04,0.85,1.89,1.89,1.89s1.89-0.85,1.89-1.89
				V77.29l1.3-2.26l52.59-30.35c0.44-0.25,0.75-0.66,0.88-1.15C171.82,43.04,171.75,42.53,171.5,42.09z M124.29,67.15l-7.37,4.26
				V62.9C119.53,64.86,121.25,65.85,124.29,67.15z M113.13,91.27v9.03c-7.44-5.81-10.54-7.6-19.34-11.16l7.82-4.52
				C107.22,86.85,108.41,87.53,113.13,91.27z M113.13,62.89v8.52l-4.23-2.44l-3.14-1.81C108.77,65.86,110.49,64.87,113.13,62.89z
				 M113.13,77.97v8.51c-2.62-1.97-4.34-2.96-7.38-4.26L113.13,77.97z M103.86,70.43l7.37,4.26l-7.37,4.26
				C104.25,75.69,104.25,73.71,103.86,70.43z M101.61,64.76l-7.82-4.51c8.75-3.54,11.85-5.33,19.34-11.17v9.03
				C108.39,61.85,107.2,62.54,101.61,64.76z"/>
			<path class="st0" d="M88.94,70.87c0.03,0.5,0.26,0.97,0.64,1.3c0.35,0.31,0.79,0.47,1.25,0.47c0.04,0,0.08,0,0.12,0
				c0.51-0.03,0.98-0.26,1.31-0.64c0.33-0.38,0.5-0.86,0.46-1.37c-0.08-1.23-0.15-1.81-0.31-3.2l-0.05-0.44
				c-0.06-0.5-0.31-0.95-0.71-1.26c-0.4-0.31-0.88-0.45-1.4-0.39c-0.95,0.11-1.67,0.92-1.67,1.88c0,0.08,0,0.15,0.01,0.23l0.06,0.5
				C88.8,69.21,88.86,69.73,88.94,70.87z"/>
		</g>
		<g>
			<g>
				<path class="st1" d="M115,160.94c-1.89,0-3.74-0.96-4.78-2.7L37.7,37.5c-1.58-2.64-0.73-6.06,1.91-7.65
					c2.64-1.58,6.06-0.73,7.65,1.91l72.52,120.74c1.58,2.64,0.73,6.06-1.91,7.65C116.97,160.69,115.98,160.94,115,160.94z"/>
				<path class="st1" d="M187.51,40.21H42.48c-3.08,0-5.57-2.49-5.57-5.57s2.49-5.57,5.57-5.57h145.03c3.08,0,5.57,2.49,5.57,5.57
					S190.59,40.21,187.51,40.21z"/>
				<g>
					<circle class="st2" cx="42.48" cy="34.63" r="19.62"/>
					<path class="st1" d="M42.48,59.83c-13.89,0-25.19-11.3-25.19-25.19S28.59,9.44,42.48,9.44c13.89,0,25.19,11.3,25.19,25.19
						S56.38,59.83,42.48,59.83z M42.48,20.59c-7.74,0-14.04,6.3-14.04,14.05s6.3,14.05,14.04,14.05s14.05-6.3,14.05-14.05
						S50.23,20.59,42.48,20.59z"/>
				</g>
				<g>
					<circle class="st2" cx="187.52" cy="34.63" r="19.62"/>
					<path class="st1" d="M187.51,59.83c-13.89,0-25.19-11.3-25.19-25.19s11.3-25.19,25.19-25.19c13.89,0,25.19,11.3,25.19,25.19
						S201.41,59.83,187.51,59.83z M187.51,20.59c-7.74,0-14.04,6.3-14.04,14.05s6.3,14.05,14.04,14.05c7.74,0,14.05-6.3,14.05-14.05
						S195.26,20.59,187.51,20.59z"/>
				</g>
				<g>
					<circle class="st2" cx="115" cy="155.37" r="19.62"/>
					<path class="st1" d="M115,180.56c-13.89,0-25.19-11.3-25.19-25.19c0-13.89,11.3-25.19,25.19-25.19
						c13.89,0,25.19,11.3,25.19,25.19C140.19,169.26,128.89,180.56,115,180.56z M115,141.32c-7.74,0-14.04,6.3-14.04,14.05
						c0,7.74,6.3,14.05,14.04,14.05s14.05-6.3,14.05-14.05C129.05,147.62,122.74,141.32,115,141.32z"/>
				</g>
			</g>
		</g>
	</g>
	<path class="st3" d="M118.36,73.33l-1.48-0.39c-0.05-0.01-0.1-0.01-0.15,0l-1.13,0.31l0.58-0.69c0.06-0.07,0.08-0.16,0.06-0.24
		l-0.31-1.55c-0.03-0.16-0.16-0.26-0.34-0.23c-0.16,0.03-0.26,0.18-0.23,0.34l0.28,1.42l-0.48,0.58l0.08-0.77
		c0.01-0.09-0.02-0.18-0.09-0.24l-1.08-1c-0.11-0.1-0.29-0.1-0.41,0.02c-0.11,0.12-0.1,0.3,0.02,0.41l0.98,0.91l-0.05,0.53
		c-0.49-0.13-1.02-0.04-1.38,0.32c-0.37,0.37-0.46,0.9-0.32,1.4l-0.55,0.06l-0.91-0.98c-0.11-0.12-0.29-0.12-0.41-0.02
		c-0.12,0.11-0.12,0.29-0.02,0.41l1.01,1.08c0.06,0.06,0.13,0.09,0.21,0.09c0.01,0,0.02,0,0.03,0l0.77-0.08l-0.58,0.48l-1.42-0.28
		c-0.17-0.04-0.31,0.07-0.34,0.23s0.07,0.31,0.23,0.34l1.55,0.31c0.02,0,0.04,0.01,0.06,0.01c0.07,0,0.13-0.02,0.18-0.07l0.69-0.58
		l-0.31,1.13c-0.01,0.05-0.01,0.1,0,0.15l0.39,1.48c0.03,0.13,0.15,0.21,0.28,0.21c0.02,0,0.05,0,0.07-0.01
		c0.16-0.04,0.25-0.2,0.21-0.35l-0.37-1.41l0.26-0.93l0.38,1.37c0.03,0.1,0.1,0.17,0.19,0.2l1.44,0.44
		c0.03,0.01,0.06,0.01,0.08,0.01c0.12,0,0.24-0.08,0.27-0.2c0.05-0.15-0.04-0.31-0.19-0.36l-1.29-0.39l-0.32-1.17
		c0.12-0.01,0.23-0.02,0.34-0.05c0.02,0.17,0.09,0.34,0.22,0.47c0.32,0.32,0.83,0.32,1.15,0c0.32-0.32,0.32-0.83,0-1.15
		c-0.13-0.13-0.3-0.19-0.47-0.22c0.03-0.1,0.04-0.21,0.05-0.32l1.15,0.32l0.39,1.29c0.04,0.12,0.15,0.2,0.27,0.2
		c0.03,0,0.06,0,0.08-0.01c0.15-0.05,0.24-0.21,0.19-0.36l-0.44-1.44c-0.03-0.09-0.1-0.17-0.2-0.19l-1.37-0.38l0.93-0.26l1.41,0.37
		c0.15,0.05,0.31-0.05,0.35-0.21C118.61,73.53,118.52,73.37,118.36,73.33z M115.52,75.8c-0.05,0-0.09-0.04-0.09-0.09
		c0-0.05,0.04-0.09,0.09-0.09c0.05,0,0.09,0.04,0.09,0.09C115.61,75.76,115.57,75.8,115.52,75.8z M116.01,75.34
		c0.05,0,0.09,0.04,0.09,0.09c0,0.05-0.04,0.09-0.09,0.09c-0.05,0-0.09-0.04-0.09-0.09C115.92,75.38,115.96,75.34,116.01,75.34z
		 M115.82,75.76c0.01,0.01,0.04,0.01,0.06,0c0.03-0.01,0.04-0.03,0.04-0.05c0-0.02,0.02-0.04,0.05-0.04c0,0,0,0,0.01,0
		c0.03,0,0.04,0.03,0.04,0.05c-0.01,0.05-0.04,0.1-0.1,0.12c-0.02,0.01-0.05,0.02-0.07,0.02c-0.03,0-0.06-0.01-0.08-0.02
		c-0.02-0.01-0.03-0.04-0.01-0.06C115.77,75.75,115.8,75.74,115.82,75.76z"/>
</g>
</svg>
