<?xml version="1.0" encoding="utf-8"?>
<!-- Generator: Adobe Illustrator 27.4.1, SVG Export Plug-In . SVG Version: 6.00 Build 0)  -->
<svg version="1.1" id="Layer_1" xmlns="http://www.w3.org/2000/svg" xmlns:xlink="http://www.w3.org/1999/xlink" x="0px" y="0px"
	 viewBox="0 0 230 190" style="enable-background:new 0 0 230 190;" xml:space="preserve">
<style type="text/css">
	.st0{fill:#7A61D4;}
	.st1{fill:#518BEE;}
	.st2{fill:#F0AE5E;}
	.st3{fill:#F38861;}
</style>
<g>
	<g>
		<g>
			<path class="st0" d="M47.6,42.9c-0.9,0-1.8-0.2-2.7-0.7L40,39.5c-2.7-1.5-3.7-4.9-2.2-7.6c1.5-2.7,4.9-3.7,7.6-2.2l4.9,2.7
				c2.7,1.5,3.7,4.9,2.2,7.6C51.4,41.8,49.5,42.9,47.6,42.9z"/>
			<path class="st0" d="M129.3,88.2c-0.9,0-1.8-0.2-2.7-0.7l-10.2-5.7c-2.7-1.5-3.6-4.9-2.2-7.6c1.5-2.7,4.9-3.7,7.6-2.2l10.2,5.7
				c2.7,1.5,3.6,4.9,2.2,7.6C133.1,87.2,131.2,88.2,129.3,88.2z M102,73.1c-0.9,0-1.8-0.2-2.7-0.7l-10.2-5.7
				c-2.7-1.5-3.6-4.9-2.2-7.6c1.5-2.7,4.9-3.7,7.6-2.2l10.2,5.7c2.7,1.5,3.6,4.9,2.2,7.6C105.9,72.1,104,73.1,102,73.1z M74.8,58
				c-0.9,0-1.8-0.2-2.7-0.7l-10.2-5.7c-2.7-1.5-3.6-4.9-2.2-7.6c1.5-2.7,4.9-3.7,7.6-2.2l10.2,5.7c2.7,1.5,3.6,4.9,2.2,7.6
				C78.7,56.9,76.8,58,74.8,58z"/>
			<path class="st0" d="M151.1,100.3c-0.9,0-1.8-0.2-2.7-0.7l-4.9-2.7c-2.7-1.5-3.7-4.9-2.2-7.6c1.5-2.7,4.9-3.7,7.6-2.2l4.9,2.7
				c2.7,1.5,3.7,4.9,2.2,7.6C155,99.3,153.1,100.3,151.1,100.3z"/>
		</g>
		<path class="st0" d="M151.1,100.3c-1,0-2-0.3-2.9-0.8c-2.6-1.6-3.5-5-1.9-7.6l36.1-60.2c1.6-2.6,5-3.5,7.6-1.9
			c2.6,1.6,3.5,5,1.9,7.6l-36.1,60.2C154.9,99.4,153,100.3,151.1,100.3z"/>
		<path class="st0" d="M115,160.5c-1.9,0-3.7-1-4.8-2.7L38,37.5c-1.6-2.6-0.7-6,1.9-7.6c2.6-1.6,6-0.7,7.6,1.9l72.3,120.3
			c1.6,2.6,0.7,6-1.9,7.6C117,160.2,116,160.5,115,160.5z"/>
		<path class="st0" d="M187.3,40.2H42.7c-3.1,0-5.6-2.5-5.6-5.6s2.5-5.6,5.6-5.6h144.5c3.1,0,5.6,2.5,5.6,5.6S190.3,40.2,187.3,40.2
			z"/>
		<g>
			<circle class="st1" cx="42.7" cy="34.6" r="19.6"/>
			<path class="st0" d="M42.7,59.7c-13.8,0-25.1-11.3-25.1-25.1S28.9,9.5,42.7,9.5c13.8,0,25.1,11.3,25.1,25.1S56.6,59.7,42.7,59.7z
				 M42.7,20.6c-7.7,0-14,6.3-14,14s6.3,14,14,14s14-6.3,14-14S50.4,20.6,42.7,20.6z"/>
		</g>
		<g>
			<circle class="st1" cx="187.3" cy="34.6" r="19.6"/>
			<path class="st0" d="M187.3,59.7c-13.8,0-25.1-11.3-25.1-25.1s11.3-25.1,25.1-25.1c13.8,0,25.1,11.3,25.1,25.1
				S201.1,59.7,187.3,59.7z M187.3,20.6c-7.7,0-14,6.3-14,14s6.3,14,14,14c7.7,0,14-6.3,14-14S195,20.6,187.3,20.6z"/>
		</g>
		<g>
			<circle class="st1" cx="115" cy="154.9" r="19.6"/>
			<path class="st0" d="M115,180.1c-13.8,0-25.1-11.3-25.1-25.1c0-13.8,11.3-25.1,25.1-25.1c13.8,0,25.1,11.3,25.1,25.1
				C140.1,168.8,128.8,180.1,115,180.1z M115,140.9c-7.7,0-14,6.3-14,14c0,7.7,6.3,14,14,14s14-6.3,14-14
				C129,147.2,122.7,140.9,115,140.9z"/>
		</g>
		<g>
			<circle class="st1" cx="151.1" cy="94.8" r="19.6"/>
			<path class="st0" d="M151.1,119.9c-13.8,0-25.1-11.3-25.1-25.1s11.3-25.1,25.1-25.1c13.8,0,25.1,11.3,25.1,25.1
				S165,119.9,151.1,119.9z M151.1,80.8c-7.7,0-14,6.3-14,14s6.3,14,14,14s14-6.3,14-14S158.9,80.8,151.1,80.8z"/>
		</g>
	</g>
	<g>
		<path class="st2" d="M129.3,67.9v-3c0-0.1,0-0.2,0-0.3c0-3.8-1.6-7.3-4.1-9.8l0,0c-2.6-2.6-6.1-4.3-10.1-4.3
			c-3.9,0-7.5,1.6-10.1,4.2l0,0c-2.6,2.5-4.3,6-4.3,9.9c0,0,0,0.1,0,0.1l0,0v3h-6.1v34.3h40.8V67.9H129.3z M121.8,67.9h-13.5v-3.2
			c0,0,0,0,0-0.1c0-1.8,0.7-3.5,1.9-4.7l0,0c1.1-1.2,2.8-2,4.6-2c0.1,0,0.1,0,0.2,0l0,0c0,0,0,0,0,0c3.7,0,6.8,3,6.8,6.8v0
			L121.8,67.9z"/>
		<path class="st3" d="M135.4,103.8H94.6c-0.9,0-1.6-0.7-1.6-1.6V67.9c0-0.9,0.7-1.6,1.6-1.6h4.6l0-1.6c0-4.2,1.7-8.1,4.7-11.1
			c2.9-3,6.9-4.7,11.1-4.7c4.2,0,8.2,1.7,11.2,4.7c3,2.9,4.6,6.7,4.6,10.9l0,1.7h4.6c0.9,0,1.6,0.7,1.6,1.6v34.3
			C137,103.1,136.3,103.8,135.4,103.8z M96.2,100.6h37.7V69.4h-4.6c-0.9,0-1.6-0.7-1.6-1.6l0-3.3c0-3.3-1.3-6.4-3.7-8.7
			c-2.4-2.5-5.6-3.8-9-3.8s-6.6,1.3-8.9,3.8c0,0-0.1,0.1-0.1,0.1c-2.4,2.3-3.7,5.4-3.7,8.7l0,0.1c0,0,0,0,0,0c0,0,0,0,0,0v3
			c0,0.9-0.7,1.6-1.6,1.6h-4.6V100.6z M121.8,69.4h-13.5c-0.9,0-1.6-0.7-1.6-1.6v-3.2c0-2.2,0.8-4.3,2.3-5.9
			c1.5-1.6,3.6-2.5,5.7-2.5l0.2,0c4.6,0,8.4,3.7,8.4,8.3l0,3.2C123.3,68.7,122.6,69.4,121.8,69.4z M109.8,66.3h10.4l0-1.6
			c0-2.9-2.4-5.2-5.2-5.2c0,0,0,0,0,0c0,0,0,0,0,0l-0.2,0c-1.3,0-2.5,0.5-3.4,1.5c0,0,0,0,0,0c-0.9,1-1.5,2.3-1.5,3.6L109.8,66.3z"
			/>
	</g>
</g>
</svg>
