<svg xmlns="http://www.w3.org/2000/svg" viewBox="0 0 305.899 278.935">
  <defs>
    <style>
      .a {
        opacity: 0.3;
      }

      .b {
        fill: #2f9ef3;
      }
    </style>
  </defs>
  <title>Artboard 2</title>
  <g class="a">
    <polygon class="b" points="194.837 222.059 246.707 251.992 298.576 222.059 298.576 162.194 246.707 132.234 194.837 162.194 194.837 222.059"/>
    <g>
      <polygon class="b" points="128.322 252.569 119.411 247.427 119.911 246.561 128.322 251.415 136.734 246.561 137.234 247.427 128.322 252.569"/>
      <rect class="b" x="147.61" y="236.526" width="13.296" height="1" transform="translate(-97.835 108.861) rotate(-29.995)"/>
      <polygon class="b" points="171.781 227.491 171.281 226.625 179.692 221.771 179.692 212.06 180.692 212.06 180.692 222.348 171.781 227.491"/>
      <rect class="b" x="179.692" y="185.483" width="1" height="13.289"/>
      <polygon class="b" points="180.692 172.193 179.692 172.193 179.692 162.482 171.283 157.625 171.783 156.759 180.692 161.905 180.692 172.193"/>
      <rect class="b" x="153.757" y="140.564" width="1" height="13.3" transform="translate(-50.372 207.165) rotate(-59.991)"/>
      <polygon class="b" points="136.732 137.669 128.322 132.812 119.913 137.669 119.413 136.803 128.322 131.657 137.232 136.803 136.732 137.669"/>
      <rect class="b" x="95.737" y="146.714" width="13.3" height="1" transform="translate(-59.882 70.902) rotate(-29.995)"/>
      <polygon class="b" points="76.953 172.193 75.953 172.193 75.953 161.905 84.862 156.759 85.362 157.625 76.953 162.482 76.953 172.193"/>
      <rect class="b" x="75.953" y="185.482" width="1" height="13.289"/>
      <polygon class="b" points="84.864 227.491 75.953 222.348 75.953 212.06 76.953 212.06 76.953 221.771 85.364 226.625 84.864 227.491"/>
      <rect class="b" x="101.888" y="230.378" width="1" height="13.296" transform="translate(-154.083 207.234) rotate(-60.011)"/>
    </g>
    <polygon class="b" points="305.899 26.943 254.029 56.876 254.029 116.742 305.899 146.701 305.899 26.943"/>
    <g>
      <polygon class="b" points="112.592 122.178 112.092 121.312 120.5 116.453 120.5 106.742 121.5 106.742 121.5 117.03 112.592 122.178"/>
      <rect class="b" x="120.5" y="80.165" width="1" height="13.289"/>
      <polygon class="b" points="121.5 66.876 120.5 66.876 120.5 57.165 112.09 52.309 112.59 51.443 121.5 56.587 121.5 66.876"/>
      <rect class="b" x="94.578" y="35.265" width="1" height="13.288" transform="translate(11.243 103.292) rotate(-59.998)"/>
      <polygon class="b" points="77.567 32.377 69.157 27.52 60.746 32.375 60.246 31.508 69.157 26.366 78.067 31.51 77.567 32.377"/>
      <rect class="b" x="36.574" y="41.41" width="13.296" height="1" transform="translate(-15.163 27.22) rotate(-29.995)"/>
      <polygon class="b" points="17.787 66.876 16.787 66.876 16.787 56.587 25.698 51.444 26.198 52.311 17.787 57.165 17.787 66.876"/>
      <rect class="b" x="16.787" y="80.165" width="1" height="13.289"/>
      <polygon class="b" points="25.696 122.176 16.787 117.03 16.787 106.742 17.787 106.742 17.787 116.453 26.196 121.31 25.696 122.176"/>
      <rect class="b" x="42.722" y="125.072" width="1" height="13.3" transform="translate(-92.459 103.27) rotate(-59.991)"/>
      <polygon class="b" points="69.157 147.279 60.247 142.132 60.747 141.266 69.157 146.124 77.565 141.265 78.065 142.131 69.157 147.279"/>
      <rect class="b" x="88.432" y="131.221" width="13.292" height="1" transform="translate(-53.117 65.173) rotate(-29.995)"/>
    </g>
    <g>
      <path class="b" d="M187.515,29.253l49.869,28.8v57.556l-49.869,28.779-49.87-28.779V58.057l49.87-28.8m0-2.31L135.645,56.9v59.865l51.87,29.933,51.869-29.933V56.9l-51.869-29.96Z"/>
      <polygon class="b" points="162.935 91.379 182.987 91.379 182.987 111.431 192.197 111.431 192.197 91.379 212.152 91.379 212.152 82.169 192.197 82.169 192.197 62.214 182.987 62.214 182.987 82.169 162.935 82.169 162.935 91.379"/>
    </g>
  </g>
</svg>
