<svg id="Layer_1" data-name="Layer 1" xmlns="http://www.w3.org/2000/svg" xmlns:xlink="http://www.w3.org/1999/xlink" viewBox="0 0 394.189 189.55">
  <defs>
    <style>
      .cls-1 {
        fill: url(#linear-gradient);
      }

      .cls-2 {
        fill: #637085;
      }

      .cls-3 {
        fill: #002043;
      }

      .cls-4 {
        fill: url(#linear-gradient-2);
      }

      .cls-5 {
        fill: #cf1f5d;
      }

      .cls-6 {
        fill: #ff9e67;
      }

      .cls-7 {
        fill: #ee8d55;
      }

      .cls-8 {
        fill: #a4312a;
      }

      .cls-9 {
        fill: #942148;
      }

      .cls-10 {
        fill: url(#linear-gradient-3);
      }

      .cls-11 {
        fill: #fff;
      }

      .cls-12 {
        fill: #4f5b6d;
      }
    </style>
    <linearGradient id="linear-gradient" x1="391.754" y1="60.418" x2="2.228" y2="201.31" gradientUnits="userSpaceOnUse">
      <stop offset="0" stop-color="#44beaa"/>
      <stop offset="1" stop-color="#2fb4d2"/>
    </linearGradient>
    <linearGradient id="linear-gradient-2" x1="11.484" y1="136.247" x2="130.301" y2="136.247" gradientUnits="userSpaceOnUse">
      <stop offset="0" stop-color="#c4ced7"/>
      <stop offset="1" stop-color="#637085"/>
    </linearGradient>
    <linearGradient id="linear-gradient-3" x1="195.711" y1="153.551" x2="323.095" y2="153.551" gradientUnits="userSpaceOnUse">
      <stop offset="0" stop-color="#98a7b7"/>
      <stop offset="1" stop-color="#4f5b6d"/>
    </linearGradient>
  </defs>
  <title>supportCharacter</title>
  <g>
    <path class="cls-1" d="M22.269,94.2A131.831,131.831,0,0,1,35.88,76.465c40.834-44.595,113.558-60.1,202.875-2.985a62.194,62.194,0,0,0,24.536,9.646,56.828,56.828,0,0,0,6.805.6,58.954,58.954,0,0,0,6.806-.216c39.559-3.525,69.527-44.119,104.6,6.077,24.712,35.361,5.671,95.265,5.965,99.958H.984C-2.919,155.6,4.912,121.3,22.269,94.2Z"/>
    <g>
      <polygon class="cls-2" points="11.484 90.87 5.137 90.87 12.91 189.238 28.348 189.238 11.484 90.87"/>
      <g>
        <path class="cls-3" d="M137.7,62.166l-1.362.276a11.288,11.288,0,0,1-13.259-8.8l-1.438-7.122a11.286,11.286,0,0,1,8.8-13.259l1.362-.275a11.286,11.286,0,0,1,13.259,8.8l1.439,7.121A11.286,11.286,0,0,1,137.7,62.166Z"/>
        <path class="cls-2" d="M5.137,90.87S39.8,74.6,87.286,85.425l-75.8,5.445Z"/>
        <path class="cls-4" d="M28.4,189.55,11.484,90.87s53.106-17.835,94.309,0L130.3,189.55Z"/>
        <path class="cls-5" d="M179.686,189.55H82.65a103.213,103.213,0,0,1-3.8-11.061,188.29,188.29,0,0,1-5.7-30.783c-.015-.132-.029-.27-.044-.4a359.139,359.139,0,0,1-1.7-46.011c.152-6.056.392-9.788.406-9.969v0c.206-.088.417-.171.622-.254,5.146-2.16,10.082-4.02,14.812-5.631a.383.383,0,0,0,.039-.01q5.964-2.034,11.487-3.535a167.8,167.8,0,0,1,18.067-3.941A132.082,132.082,0,0,1,134.679,76.3c.239-.009.475-.009.715-.014q2.108-.037,4.083.009c13.284.284,22.122,2.928,26.592,4.691.622.245,1.156.475,1.6.681l.177.073c.5.225.895.417,1.17.554a.563.563,0,0,1,.107.058c.132.069.26.142.382.215l7,73.539Z"/>
        <path class="cls-5" d="M276.383,173.652c-9.723,4.515-67.55,8.3-73.1,6.7-2.848-.823-14.771-11.324-26.765-24.242l-.011-.008c-11.35-12.219-22.794-26.6-26.653-36.952A63.332,63.332,0,0,1,148.735,79s14.755-.062,20.77,3.57,40.408,66.979,45.005,68.65,59.079,4.795,65.315,7.756C279.825,158.977,286.1,169.14,276.383,173.652Z"/>
        <path class="cls-6" d="M135.383,78.86l-.014,3.581s.993,11.2-12.8,12.854-24.243-4.33-23.883-12.972c1.232-6.693,2.588-11.29,2.672-16.827a38.968,38.968,0,0,0-.5-6.7l26.72-.575,7.872,1.274Z"/>
        <path class="cls-7" d="M135.455,59.49l-.072,19.37A22.6,22.6,0,0,1,125.755,81c-12.281.019-24.5-19.744-24.892-22.209Z"/>
        <path class="cls-6" d="M137.029,68.9s-34.212,6.966-38.222-14.406S87.68,19.627,109.354,14.275s27.461,2.006,30.535,8.814S145.825,66.537,137.029,68.9Z"/>
        <path class="cls-8" d="M146.518,7.2A71.74,71.74,0,0,1,125.71,1.6c-9.142-3.958-20.662.435-24.4,2.412a5.553,5.553,0,0,1,.909-2.253A5.024,5.024,0,0,0,100.3,4.617c-.172.128-.25.216-.2.245a6.433,6.433,0,0,0-3.127.208s.856-.124,1.163.426a.515.515,0,0,0,.137.151C84.022,12.555,82.741,35.08,87.335,40.285,92.862,46.547,99.5,60.657,99.5,60.657s2.408-3.34,1.4-8.856,3.753-5.523,9.769-8.041.988-9.532,6.249-13.8,24.576-1.793,24.32-5.053C148.4,22.28,146.519,7.93,146.518,7.2Z"/>
        <path class="cls-9" d="M82.65,189.55a103.213,103.213,0,0,1-3.8-11.061,188.29,188.29,0,0,1-5.7-30.783c-.015-.132-.029-.27-.044-.4.073.034.2.234.274.137,3.779-4.589,14.092-9.61,26.583,8.673,2.492,3.643,13.42,29.171,15.163,33.436Z"/>
        <path class="cls-6" d="M92.79,189.55a10.393,10.393,0,0,1,1.317-6.316s1.6-1.038,3.727-2.248c3.168-1.787,7.5-3.951,9.464-3.6.353.064.828.167,1.391.3,4.656,1.116,15.512,4.46,17.152,6.419,1.351,1.611,3.192,3.663,4.46,5.445Z"/>
        <path class="cls-5" d="M99.969,189.55H8.539a5.538,5.538,0,0,1,.069-3.075c2.727-6.889,8.049-18.229,14.179-30.4,4.51-8.95,9.45-18.351,14.117-26.758,6.477-11.673,12.412-21.436,15.9-25.442a41.289,41.289,0,0,1,9.837-7.971,69.33,69.33,0,0,1,9.175-4.583v0c.206-.088.417-.171.622-.254A80.882,80.882,0,0,1,83.85,87.353s.068,2.889.073,7.33c.02,12.887-.475,38.858-4.588,45.194a84.854,84.854,0,0,1-5.949,7.564c-.078.089-.152.177-.23.265-1.444,1.694-3.045,3.515-4.725,5.391-9.543,10.688-21.627,23.242-23.1,24.77-.1.1-.152.157-.152.157h.177l25.637.357,7.863.108,16.3.225a6.174,6.174,0,0,1,2.674,2.272C99.41,183.292,99.9,186.651,99.969,189.55Z"/>
        <path class="cls-9" d="M276.383,173.652c-9.723,4.515-67.55,8.3-73.1,6.7-2.848-.823-14.771-11.324-26.765-24.242.592.078,6.077-9.065,31.087,12.814,0,0,6.55,2.915,24.375,1.283S272.692,167.979,276.383,173.652Z"/>
        <g>
          <path class="cls-2" d="M219.574,189.55H153.467a5.27,5.27,0,0,1,5.269-5.27h60.838Z"/>
          <polygon class="cls-2" points="219.384 117.553 321.59 117.553 297.075 189.55 194.206 189.55 219.384 117.553"/>
          <polygon class="cls-10" points="323.095 117.552 298.58 189.55 195.711 189.55 220.89 117.552 323.095 117.552"/>
          <path class="cls-11" d="M267.992,152.886a6.645,6.645,0,0,1-6.131,4.981,3.835,3.835,0,0,1-3.831-4.981,6.645,6.645,0,0,1,6.131-4.981A3.835,3.835,0,0,1,267.992,152.886Z"/>
          <polygon class="cls-12" points="323.095 117.552 298.58 189.55 250.726 189.55 308.044 117.552 323.095 117.552"/>
        </g>
        <path class="cls-3" d="M108.75,62.166l-1.362.276a11.289,11.289,0,0,1-13.26-8.8L92.69,46.518a11.286,11.286,0,0,1,8.8-13.259l1.362-.275a11.287,11.287,0,0,1,13.26,8.8l1.438,7.121A11.286,11.286,0,0,1,108.75,62.166Z"/>
        <path class="cls-3" d="M98.147,36.519c-.912-1.648-2.251-14.9,1.393-25.457a16.91,16.91,0,0,1,8.18-9.973A8.756,8.756,0,0,1,111.935,0l3.59.06C103.7,5.065,100.961,31.845,101.882,34.7a1.09,1.09,0,0,0-.092-.2Z"/>
        <path class="cls-3" d="M132.652,64.4c-19.87,0-29.7-15.7-29.8-15.862l1.776-1.086-.888.543.887-.544c.092.15,9.354,14.867,28.029,14.867l.375,0,.022,2.082Z"/>
        <path class="cls-5" d="M103.391,40.575h.7a5.6,5.6,0,0,1,5.6,5.6V49.8a5.606,5.606,0,0,1-5.606,5.606h-.692A5.607,5.607,0,0,1,97.785,49.8v-3.62A5.607,5.607,0,0,1,103.391,40.575Z" transform="translate(-7.462 21.545) rotate(-11.448)"/>
        <path class="cls-3" d="M135.122,65.089h-1.874a1.74,1.74,0,0,1-1.735-1.735h0a1.74,1.74,0,0,1,1.735-1.735h1.874a1.74,1.74,0,0,1,1.735,1.735h0A1.74,1.74,0,0,1,135.122,65.089Z"/>
      </g>
    </g>
  </g>
</svg>
