<svg id="Layer_1" data-name="Layer 1" xmlns="http://www.w3.org/2000/svg" viewBox="0 0 65 65">
  <defs>
    <style>
      .cls-1 {
        fill: #e6e6e6;
      }

      .cls-2 {
        fill: #e65668;
      }

      .cls-3 {
        fill: #f57564;
      }

      .cls-4 {
        fill: #e66251;
      }
    </style>
  </defs>
  <title>support</title>
  <g>
    <g>
      <path class="cls-1" d="M33.223,4.322A28.178,28.178,0,1,0,61.4,32.5,28.178,28.178,0,0,0,33.223,4.322Zm0,43.044A14.866,14.866,0,1,1,48.089,32.5,14.865,14.865,0,0,1,33.223,47.366Z"/>
      <path class="cls-2" d="M33.224,62a29.5,29.5,0,1,1,29.5-29.5A29.53,29.53,0,0,1,33.224,62Zm0-56.355A26.859,26.859,0,1,0,60.082,32.5,26.89,26.89,0,0,0,33.224,5.641Zm0,43.044A16.185,16.185,0,1,1,49.407,32.5,16.2,16.2,0,0,1,33.224,48.685Zm0-29.732A13.547,13.547,0,1,0,46.77,32.5,13.562,13.562,0,0,0,33.224,18.953Z"/>
    </g>
    <g>
      <path class="cls-3" d="M33.223,18.77a9.647,9.647,0,0,1,5.81,1.945l6.519-15.77a26.559,26.559,0,0,0-24.658,0l6.52,15.77A9.641,9.641,0,0,1,33.223,18.77Z"/>
      <path class="cls-2" d="M39.033,21.9a1.192,1.192,0,0,1-.712-.237,8.462,8.462,0,0,0-10.2,0,1.186,1.186,0,0,1-1.808-.5L19.8,5.4a1.187,1.187,0,0,1,.545-1.5A27.74,27.74,0,0,1,46.1,3.9a1.187,1.187,0,0,1,.545,1.5L40.13,21.167a1.187,1.187,0,0,1-1.1.734ZM22.413,5.513l5.553,13.432a10.969,10.969,0,0,1,10.514,0L44.034,5.513a25.385,25.385,0,0,0-21.621,0Z"/>
    </g>
    <g>
      <g>
        <path class="cls-3" d="M33.223,46.23a9.641,9.641,0,0,1-5.809-1.945l-6.52,15.77a26.559,26.559,0,0,0,24.658,0l-6.519-15.77A9.647,9.647,0,0,1,33.223,46.23Z"/>
        <path class="cls-4" d="M20.894,60.055a26.559,26.559,0,0,0,24.658,0l-6.519-15.77C39.033,54.213,20.894,60.055,20.894,60.055Z"/>
      </g>
      <path class="cls-2" d="M33.224,64.277a27.821,27.821,0,0,1-12.882-3.172,1.187,1.187,0,0,1-.545-1.5l6.52-15.768a1.186,1.186,0,0,1,1.808-.5,8.462,8.462,0,0,0,10.2,0,1.187,1.187,0,0,1,1.809.5L46.649,59.6a1.187,1.187,0,0,1-.545,1.5A27.816,27.816,0,0,1,33.224,64.277Zm-10.811-4.79a25.385,25.385,0,0,0,21.621,0L38.48,46.055a10.969,10.969,0,0,1-10.514,0Z"/>
    </g>
    <g>
      <path class="cls-3" d="M19.493,32.5a9.647,9.647,0,0,1,1.945-5.81L5.669,20.171a26.552,26.552,0,0,0,0,24.658L21.438,38.31A9.647,9.647,0,0,1,19.493,32.5Z"/>
      <path class="cls-2" d="M5.669,46.016a1.187,1.187,0,0,1-1.051-.636,27.736,27.736,0,0,1,0-25.76,1.19,1.19,0,0,1,1.5-.546l15.769,6.519a1.187,1.187,0,0,1,.5,1.809,8.466,8.466,0,0,0,0,10.2,1.187,1.187,0,0,1-.5,1.809L6.122,45.926A1.188,1.188,0,0,1,5.669,46.016ZM6.238,21.69a25.373,25.373,0,0,0,0,21.62l13.43-5.552a10.837,10.837,0,0,1,0-10.516Z"/>
    </g>
    <g>
      <g>
        <path class="cls-3" d="M60.778,20.171,45.008,26.69a9.65,9.65,0,0,1,0,11.62l15.77,6.519a26.559,26.559,0,0,0,0-24.658Z"/>
        <path class="cls-4" d="M60.778,20.171S55.428,38.31,45.009,38.31l15.769,6.519a26.559,26.559,0,0,0,0-24.658Z"/>
      </g>
      <path class="cls-2" d="M60.778,46.016a1.179,1.179,0,0,1-.452-.09l-15.77-6.519a1.187,1.187,0,0,1-.5-1.809,8.47,8.47,0,0,0,0-10.2,1.187,1.187,0,0,1,.5-1.809l15.77-6.519a1.189,1.189,0,0,1,1.5.546,27.744,27.744,0,0,1,0,25.76A1.187,1.187,0,0,1,60.778,46.016Zm-14-8.258L60.21,43.31a25.382,25.382,0,0,0,0-21.62L46.779,27.242a10.837,10.837,0,0,1,0,10.516Z"/>
    </g>
  </g>
</svg>
