<?xml version="1.0" standalone="no"?>
<!DOCTYPE svg PUBLIC "-//W3C//DTD SVG 1.1//EN" "http://www.w3.org/Graphics/SVG/1.1/DTD/svg11.dtd" >
<svg xmlns="http://www.w3.org/2000/svg">
<metadata>Generated by IcoMoon</metadata>
<defs>
<font id="icomoon" horiz-adv-x="1024">
<font-face units-per-em="1024" ascent="960" descent="-64" />
<missing-glyph horiz-adv-x="1024" />
<glyph unicode="&#x20;" horiz-adv-x="512" d="" />
<glyph unicode="&#xe900;" glyph-name="icons_revert" d="M252.8 715.2c73.6 73.6 163.2 110.4 267.2 110.4 105.6 0 193.6-36.8 267.2-110.4s110.4-163.2 110.4-267.2c0-105.6-36.8-195.2-110.4-267.2-73.6-73.6-163.2-110.4-267.2-110.4s-193.6 36.8-267.2 110.4l60.8 60.8c56-57.6 124.8-86.4 206.4-86.4s150.4 28.8 208 86.4 86.4 126.4 86.4 208c0 81.6-28.8 150.4-86.4 208s-126.4 86.4-208 86.4c-81.6 0-150.4-28.8-208-86.4s-86.4-126.4-86.4-208h126.4l-171.2-171.2-1.6 6.4-163.2 163.2h126.4c0 105.6 36.8 193.6 110.4 267.2zM478.4 616h62.4v-177.6l145.6-88-28.8-51.2-179.2 108.8v208z" />
<glyph unicode="&#xe901;" glyph-name="icons_pause" d="M803.2 737.6c-81.6 80-177.6 120-291.2 120s-211.2-40-291.2-120-120-176-120-289.6 40-209.6 120-289.6 177.6-120 291.2-120 211.2 40 291.2 120 120 176 120 289.6-40 209.6-120 289.6zM744 214.4c-64-64-140.8-96-232-96s-168 32-232 96c-64 65.6-96 142.4-96 233.6s32 169.6 96 233.6 140.8 96 232 96 168-32 232-96c64-65.6 96-142.4 96-233.6s-32-169.6-96-233.6zM339.2 651.2h115.2v-404.8h-115.2v404.8zM569.6 651.2h115.2v-404.8h-115.2v404.8z" />
<glyph unicode="&#xe902;" glyph-name="icons_swap" d="M609.6 140.8l-110.4 110.4h-195.2v332.8h168l-171.2 171.2-51.2 52.8-224-224h168v-443.2zM830.4 312v443.2h-416l110.4-110.4h195.2v-332.8h-168l171.2-171.2 51.2-52.8 224 224z" />
<glyph unicode="&#xe903;" glyph-name="icons_switch" d="M313.6 844.8h396.8l-158.4-316.8h158.4l-276.8-476.8v358.4h-118.4v435.2z" />
<glyph unicode="&#xe904;" glyph-name="icons_lock" d="M776 620.8c24 0 43.2-8 60.8-25.6s25.6-36.8 25.6-60.8v-441.6c0-24-8-43.2-25.6-60.8s-36.8-25.6-60.8-25.6h-528c-24 0-46.4 8-62.4 25.6-17.6 17.6-25.6 36.8-25.6 60.8v441.6c0 24 8 43.2 25.6 60.8s38.4 25.6 62.4 25.6h43.2v88c0 60.8 22.4 112 65.6 155.2s94.4 65.6 155.2 65.6c60.8 0 112-22.4 155.2-65.6s64-94.4 64-155.2v-88h44.8zM649.6 620.8v88c0 36.8-12.8 68.8-40 96s-59.2 40-97.6 40c-38.4 0-70.4-12.8-96-40s-38.4-59.2-38.4-96v-88h272z" />
<glyph unicode="&#xe905;" glyph-name="icons_unlock" d="M777.6 619.2c24 0 43.2-8 60.8-25.6s25.6-36.8 25.6-60.8v-441.6c0-24-8-43.2-25.6-60.8s-36.8-25.6-60.8-25.6h-528c-24 0-46.4 8-62.4 25.6-17.6 17.6-27.2 38.4-27.2 60.8v441.6c0 24 8 43.2 25.6 60.8s38.4 25.6 62.4 25.6h400v88c0 36.8-12.8 68.8-40 96s-59.2 40-97.6 40c-38.4 0-70.4-12.8-96-40s-38.4-59.2-38.4-96h-84.8c0 60.8 22.4 112 65.6 155.2s94.4 65.6 155.2 65.6c60.8 0 112-22.4 155.2-65.6s64-94.4 64-155.2v-88h46.4zM777.6 91.2v441.6h-528v-441.6h528z" />
<glyph unicode="&#xe906;" glyph-name="icons_lock-sidebyside" d="M686.4 9.6l-88 91.2h-62.4v169.6h134.4l-49.6 48-88 92.8-40 38.4-179.2-179.2h134.4v-260.8zM404.8 227.2h-196.8l284.8 284.8 57.6-57.6h312v80c1.6 22.4-8 43.2-25.6 60.8s-36.8 25.6-60.8 25.6h-44.8v88c0 60.8-20.8 112-64 155.2s-94.4 65.6-155.2 65.6-112-22.4-155.2-65.6c-43.2-43.2-65.6-94.4-65.6-155.2v-88h-43.2c-24 0-46.4-8-62.4-25.6-17.6-17.6-25.6-36.8-25.6-60.8v-441.6c0-24 8-43.2 25.6-60.8s38.4-25.6 62.4-25.6h156.8v220.8zM377.6 708.8c0 36.8 12.8 68.8 38.4 96s57.6 40 96 40 70.4-12.8 97.6-40c27.2-27.2 40-59.2 40-96v-88h-272v88zM864 150.4v260.8h-240l89.6-92.8h62.4v-168h-134.4l48-49.6 88-91.2 40-43.2 180.8 184z" />
<glyph unicode="&#xe907;" glyph-name="icons_lock-error" d="M568 620.8h-190.4v88c0 36.8 12.8 68.8 38.4 96s57.6 40 96 40 70.4-12.8 97.6-40c6.4-6.4 12.8-14.4 17.6-20.8 0 0 0 0 0 0h92.8c-11.2 28.8-27.2 56-51.2 80-43.2 43.2-94.4 65.6-155.2 65.6s-112-22.4-155.2-65.6c-43.2-43.2-65.6-94.4-65.6-155.2v-88h-43.2c-24 0-46.4-8-62.4-25.6-17.6-17.6-25.6-36.8-25.6-60.8v-441.6c0-24 8-43.2 25.6-60.8s38.4-25.6 62.4-25.6h318.4v614.4zM830.4 212.8h-171.2v475.2h171.2v-475.2zM830.4 8h-171.2v142.4h171.2v-142.4z" />
<glyph unicode="&#xe908;" glyph-name="icons_play" d="M220.8 737.6c80 80 177.6 120 291.2 120s209.6-40 291.2-120c80-80 120-176 120-289.6s-40-209.6-120-289.6-177.6-120-291.2-120-211.2 40-291.2 120-120 176-120 289.6c0 113.6 40 209.6 120 289.6zM280 214.4c64-64 140.8-96 232-96s168 32 232 96 96 142.4 96 233.6-32 168-96 233.6c-64 64-140.8 96-232 96s-168-32-232-96-96-142.4-96-233.6 32-168 96-233.6zM400 651.2l320-203.2-320-203.2v406.4z" />
<glyph unicode="&#xe909;" glyph-name="icons_reset" d="M513.6 776c99.2 0 184-35.2 256-107.2 70.4-70.4 107.2-156.8 107.2-257.6s-35.2-185.6-107.2-257.6c-70.4-70.4-156.8-107.2-257.6-107.2s-185.6 35.2-257.6 107.2c-70.4 70.4-107.2 156.8-107.2 257.6h92.8c0-75.2 27.2-139.2 80-193.6 52.8-52.8 118.4-80 193.6-80s139.2 27.2 193.6 80c52.8 52.8 80 118.4 80 193.6s-27.2 139.2-80 193.6c-52.8 52.8-118.4 80-193.6 80v-184l-228.8 230.4 228.8 228.8v-184z" />
<glyph unicode="&#xe90a;" glyph-name="icons_stop" d="M803.2 737.6c-81.6 80-177.6 120-291.2 120s-211.2-40-291.2-120-120-176-120-289.6 40-209.6 120-289.6 177.6-120 291.2-120 211.2 40 291.2 120 120 176 120 289.6-40 209.6-120 289.6zM744 214.4c-64-64-140.8-96-232-96s-168 32-232 96c-64 65.6-96 142.4-96 233.6s32 169.6 96 233.6 140.8 96 232 96 168-32 232-96c64-65.6 96-142.4 96-233.6s-32-169.6-96-233.6zM331.2 628.8h363.2v-363.2h-363.2v363.2z" />
<glyph unicode="&#xe90b;" glyph-name="icons_clone" d="M750.4 105.6h-580.8v580.8h-72v-654.4h652.8zM243.2 180.8h651.2v651.2h-651.2v-651.2zM824 760v-508.8h-508.8v508.8h508.8z" />
<glyph unicode="&#xe90c;" glyph-name="icons_copy" d="M872 524.8l-206.4 206.4h-376v-728h606.4v497.6l-24 24zM760 524.8h-70.4v70.4l70.4-70.4zM816 83.2h-444.8v568h240v-206.4h204.8v-361.6zM209.6 814.4h240v-1.6h-240v1.6zM209.6 246.4v568h240v-1.6h137.6l-57.6 57.6-24 22.4h-377.6v-726.4h81.6z" />
<glyph unicode="&#xe90d;" glyph-name="icons_cut" d="M416 624l500.8-500.8v-40h-121.6l-284.8 283.2-94.4-94.4c9.6-20.8 14.4-43.2 14.4-65.6 0-44.8-16-81.6-48-113.6s-70.4-48-115.2-48-83.2 16-115.2 48c-32 32-48 68.8-48 113.6s16 81.6 48 113.6c32 32 68.8 48 113.6 48 24 0 46.4-4.8 65.6-12.8l96 94.4-96 94.4c-20.8-9.6-41.6-12.8-65.6-12.8-44.8 0-81.6 16-113.6 48s-48 68.8-48 113.6 16 81.6 48 113.6 70.4 48 115.2 48 83.2-16 115.2-48 48-68.8 48-113.6c1.6-25.6-4.8-46.4-14.4-68.8zM212.8 633.6c16-16 35.2-24 57.6-24s41.6 8 57.6 24c16 16 24 35.2 24 57.6s-8 41.6-24 57.6-35.2 24-57.6 24-41.6-8-57.6-24-24-35.2-24-57.6 8-43.2 24-57.6zM212.8 147.2c16-16 35.2-24 57.6-24s41.6 8 57.6 24c16 16 24 35.2 24 57.6s-8 41.6-24 57.6-35.2 24-57.6 24-41.6-8-57.6-24-24-35.2-24-57.6c0-22.4 8-41.6 24-57.6zM492.8 448c0-14.4 6.4-20.8 19.2-20.8s19.2 6.4 19.2 20.8c0 14.4-6.4 20.8-19.2 20.8s-19.2-6.4-19.2-20.8zM795.2 812.8h121.6v-40l-284.8-284.8-80 81.6 243.2 243.2z" />
<glyph unicode="&#xe90e;" glyph-name="icons_paste" d="M625.6 811.2c-9.6 24-24 43.2-44.8 59.2-20.8 14.4-43.2 22.4-68.8 22.4s-48-8-68.8-22.4-35.2-35.2-44.8-59.2h-251.2v-808h728v808h-249.6zM483.2 800c8 8 17.6 11.2 28.8 11.2s20.8-3.2 28.8-11.2c8-8 11.2-17.6 11.2-28.8s-3.2-20.8-11.2-28.8c-8-8-17.6-11.2-28.8-11.2s-20.8 3.2-28.8 11.2c-8 8-11.2 17.6-11.2 28.8s3.2 20.8 11.2 28.8zM228.8 83.2v648h80v-121.6h406.4v121.6h80v-648h-566.4z" />
<glyph unicode="&#xe90f;" glyph-name="icons_merge" d="M748.8 296v65.6c0 19.2-11.2 35.2-27.2 43.2l-344 158.4v33.6c60.8 20.8 104 76.8 104 144 0 83.2-68.8 152-152 152s-153.6-67.2-153.6-150.4c0-67.2 43.2-123.2 104-144v-299.2c-60.8-20.8-104-76.8-104-144 0-83.2 68.8-152 152-152s152 68.8 152 152c0 67.2-43.2 123.2-104 144v160l276.8-128v-32c-62.4-19.2-108.8-76.8-108.8-145.6 0-83.2 68.8-152 152-152s152 68.8 152 152c0 65.6-41.6 121.6-99.2 142.4zM328 798.4c30.4 0 56-25.6 56-56s-25.6-56-56-56-56 24-56 56 25.6 56 56 56zM328 97.6c-30.4 0-56 25.6-56 56s25.6 56 56 56 56-25.6 56-56-25.6-56-56-56zM696 97.6c-30.4 0-56 25.6-56 56s25.6 56 56 56 56-25.6 56-56-25.6-56-56-56z" />
<glyph unicode="&#xe910;" glyph-name="icons_import" d="M129.6 886.4h766.4v-110.4h-766.4v110.4zM129.6 337.6l380.8 384 384-384h-219.2v-328h-328v328h-217.6z" />
<glyph unicode="&#xe911;" glyph-name="icons_export" d="M894.4 9.6h-764.8v110.4h766.4v-110.4zM894.4 558.4l-380.8-384-384 384h220.8v328h328v-328h216z" />
<glyph unicode="&#xe912;" glyph-name="icons_check" d="M537.6 256l376 380.8-121.6 120-369.6-374.4-192 187.2-120-123.2 196.8-193.6 116.8-113.6z" />
<glyph unicode="&#xe913;" glyph-name="icons-toggle-off" d="M694.4 768h-364.8c-176 0-320-144-320-320v0c0-176 144-320 320-320h364.8c176 0 320 144 320 320v0c0 176-144 320-320 320zM502.4 284.8c-44.8-44.8-99.2-67.2-163.2-67.2s-118.4 22.4-163.2 67.2c-44.8 44.8-67.2 99.2-67.2 163.2s22.4 118.4 67.2 163.2c44.8 44.8 99.2 67.2 163.2 67.2s118.4-22.4 163.2-67.2c44.8-44.8 67.2-99.2 67.2-163.2 1.6-64-20.8-118.4-67.2-163.2z" />
<glyph unicode="&#xe914;" glyph-name="icons-toggle-on" d="M694.4 720c150.4 0 272-121.6 272-272s-121.6-272-272-272h-364.8c-150.4 0-272 121.6-272 272s121.6 272 272 272h364.8zM694.4 768h-364.8c-176 0-320-144-320-320v0c0-176 144-320 320-320h364.8c176 0 320 144 320 320v0c0 176-144 320-320 320v0zM521.6 611.2c44.8 44.8 99.2 67.2 163.2 67.2s118.4-22.4 163.2-67.2c44.8-44.8 67.2-99.2 67.2-163.2s-22.4-118.4-67.2-163.2c-44.8-44.8-99.2-67.2-163.2-67.2s-118.4 22.4-163.2 67.2c-44.8 44.8-67.2 99.2-67.2 163.2-1.6 64 20.8 118.4 67.2 163.2z" />
<glyph unicode="&#xe915;" glyph-name="icons_circle" d="M220.8 737.6c80 80 177.6 120 291.2 120s209.6-40 291.2-120c80-80 120-176 120-289.6s-40-209.6-120-289.6c-80-80-177.6-120-291.2-120s-211.2 40-291.2 120c-80 80-120 176-120 289.6s40 209.6 120 289.6zM280 214.4c64-64 140.8-96 232-96s168 32 232 96c64 64 96 142.4 96 233.6s-32 168-96 233.6c-64 64-140.8 96-232 96s-168-32-232-96c-64-64-96-142.4-96-233.6s32-168 96-233.6z" />
<glyph unicode="&#xe916;" glyph-name="icons_circle-filled" d="M220.8 737.6c80 80 177.6 120 291.2 120s209.6-40 291.2-120c80-80 120-176 120-289.6s-40-209.6-120-289.6c-80-80-177.6-120-291.2-120s-211.2 40-291.2 120c-80 80-120 176-120 289.6s40 209.6 120 289.6z" />
<glyph unicode="&#xe917;" glyph-name="icons_edited" d="M803.2 737.6c-80 80-177.6 120-291.2 120s-211.2-40-291.2-120c-80-80-120-176-120-289.6s40-209.6 120-289.6c80-80 177.6-120 291.2-120s209.6 40 291.2 120c80 80 120 176 120 289.6s-40 209.6-120 289.6zM382.4 216h-102.4v102.4l273.6 273.6 102.4-102.4-273.6-273.6zM736 569.6l-54.4-54.4-102.4 102.4 54.4 54.4c4.8 4.8 11.2 8 19.2 8s14.4-3.2 19.2-8l64-64c4.8-4.8 8-11.2 8-19.2s-3.2-14.4-8-19.2z" />
<glyph unicode="&#xe918;" glyph-name="icons_arrow-down" d="M635.2 291.2l315.2 315.2-123.2 123.2-315.2-315.2-315.2 313.6-123.2-123.2 438.4-438.4z" />
<glyph unicode="&#xe919;" glyph-name="icons_arrow-filled-down" d="M920 609.6l-408-406.4-408 406.4z" />
<glyph unicode="&#xe91a;" glyph-name="icons_arrow-filled-left" d="M673.6 40l-406.4 408 406.4 408z" />
<glyph unicode="&#xe91b;" glyph-name="icons_arrow-filled-right" d="M350.4 856l406.4-408-406.4-408z" />
<glyph unicode="&#xe91c;" glyph-name="icons_arrow-filled-up" d="M104 286.4l408 406.4 408-406.4z" />
<glyph unicode="&#xe91d;" glyph-name="icons_arrow-left" d="M355.2 324.8l315.2-315.2 123.2 123.2-315.2 315.2 313.6 315.2-123.2 123.2-438.4-438.4z" />
<glyph unicode="&#xe91e;" glyph-name="icons_arrow-right" d="M668.8 571.2l-315.2 315.2-123.2-123.2 315.2-315.2-313.6-315.2 123.2-123.2 438.4 438.4z" />
<glyph unicode="&#xe91f;" glyph-name="icons_arrow-up" d="M388.8 604.8l-315.2-315.2 123.2-123.2 315.2 315.2 315.2-313.6 123.2 123.2-438.4 438.4z" />
<glyph unicode="&#xe920;" glyph-name="icons_cancel" d="M638.4 448l236.8 235.2-128 126.4-235.2-235.2-235.2 236.8-128-128 236.8-235.2-235.2-235.2 126.4-126.4 235.2 235.2 235.2-236.8 128 128z" />
<glyph unicode="&#xe921;" glyph-name="icons_checkbox" d="M904 56h-784v784h784v-784zM164.8 100.8h694.4v694.4h-694.4v-694.4z" />
<glyph unicode="&#xe922;" glyph-name="icons_checkbox-on-28" d="M859.2 507.2v-406.4h-694.4v694.4h694.4l44.8 44.8h-784v-784h784v496zM598.4 328l376 380.8-75.2 72-417.6-422.4-190.4 187.2-73.6-75.2 150.4-145.6 115.2-113.6z" />
<glyph unicode="&#xe923;" glyph-name="icons_code" d="M206.4 348.8c0 17.6-3.2 32-11.2 43.2-6.4 11.2-19.2 16-38.4 16v78.4c9.6 0 16 1.6 22.4 4.8s11.2 6.4 14.4 12.8c3.2 4.8 6.4 11.2 8 19.2s3.2 16 3.2 24c0 12.8-1.6 27.2-3.2 40s-3.2 27.2-6.4 41.6c-1.6 14.4-4.8 27.2-6.4 41.6s-3.2 27.2-3.2 41.6c0 24 3.2 46.4 11.2 67.2 6.4 20.8 17.6 36.8 33.6 51.2 14.4 14.4 33.6 25.6 57.6 33.6 22.4 8 51.2 11.2 83.2 11.2h24v-60.8c0-4.8-1.6-9.6-3.2-12.8s-4.8-6.4-8-8c-3.2-1.6-6.4-3.2-9.6-4.8s-6.4-1.6-8-1.6c-19.2 0-33.6-6.4-41.6-17.6-9.6-11.2-12.8-28.8-12.8-49.6 0-16 0-32 1.6-48s3.2-28.8 4.8-43.2c1.6-14.4 3.2-27.2 4.8-40s1.6-27.2 1.6-40c0-11.2-1.6-22.4-4.8-33.6s-8-20.8-14.4-28.8-14.4-16-22.4-24c-9.6-6.4-19.2-12.8-32-16 11.2-3.2 22.4-9.6 32-16s16-14.4 22.4-24 11.2-19.2 14.4-28.8c3.2-11.2 4.8-22.4 4.8-33.6 0-12.8 0-27.2-1.6-40s-3.2-27.2-4.8-40c-1.6-14.4-3.2-28.8-4.8-43.2s-1.6-30.4-1.6-48c0-20.8 4.8-36.8 12.8-49.6 9.6-11.2 22.4-17.6 41.6-17.6 3.2 0 4.8 0 8-1.6s6.4-3.2 9.6-4.8c3.2-1.6 6.4-4.8 8-8s3.2-8 3.2-12.8v-60.8h-24c-32 0-59.2 3.2-83.2 11.2-22.4 8-41.6 19.2-57.6 33.6-14.4 14.4-25.6 32-33.6 51.2-6.4 19.2-11.2 41.6-11.2 67.2 0 14.4 1.6 27.2 3.2 41.6s3.2 27.2 6.4 41.6c1.6 14.4 4.8 27.2 6.4 41.6 4.8 16 4.8 28.8 4.8 43.2zM817.6 348.8c0-12.8 1.6-27.2 3.2-40s3.2-27.2 6.4-41.6c1.6-12.8 3.2-27.2 6.4-41.6 1.6-14.4 3.2-27.2 3.2-41.6 0-24-3.2-46.4-11.2-67.2-6.4-19.2-17.6-36.8-33.6-51.2-14.4-14.4-33.6-25.6-57.6-33.6-22.4-8-51.2-11.2-83.2-11.2h-24v60.8c0 4.8 1.6 9.6 3.2 12.8s4.8 6.4 8 8c3.2 1.6 6.4 3.2 9.6 4.8s6.4 1.6 8 1.6c19.2 0 33.6 6.4 41.6 17.6 9.6 11.2 12.8 28.8 12.8 49.6 0 16 0 32-1.6 48-1.6 14.4-3.2 28.8-4.8 43.2s-3.2 27.2-4.8 40c-1.6 12.8-1.6 27.2-1.6 40 0 11.2 1.6 22.4 4.8 33.6s8 20.8 14.4 28.8 14.4 16 22.4 24c9.6 6.4 19.2 11.2 30.4 16-11.2 3.2-22.4 9.6-30.4 16-9.6 6.4-16 14.4-22.4 24s-11.2 19.2-14.4 28.8c-3.2 11.2-4.8 22.4-4.8 33.6 0 14.4 0 27.2 1.6 40s3.2 27.2 4.8 40c1.6 14.4 3.2 28.8 4.8 43.2s1.6 30.4 1.6 48c0 20.8-4.8 36.8-12.8 49.6-9.6 11.2-22.4 17.6-41.6 17.6-3.2 0-4.8 0-8 1.6s-6.4 3.2-9.6 4.8-6.4 4.8-8 8c-1.6 3.2-3.2 8-3.2 12.8v57.6h24c32 0 59.2-3.2 83.2-11.2 22.4-8 41.6-19.2 57.6-33.6 14.4-14.4 25.6-32 33.6-51.2 6.4-20.8 11.2-43.2 11.2-67.2 0-14.4-1.6-27.2-3.2-41.6s-3.2-27.2-6.4-41.6c-1.6-12.8-4.8-27.2-6.4-41.6-1.6-12.8-3.2-27.2-3.2-40 0-8 1.6-17.6 3.2-24 1.6-8 4.8-14.4 8-19.2s8-9.6 14.4-12.8c6.4-3.2 14.4-4.8 22.4-4.8v-78.4c-17.6 0-30.4-4.8-38.4-16-6.4-11.2-9.6-25.6-9.6-43.2z" />
<glyph unicode="&#xe924;" glyph-name="icons_collapse" d="M904 56h-784v784h784v-784zM164.8 100.8h694.4v694.4h-694.4v-694.4zM270.4 500.8h484.8v-107.2h-484.8v107.2z" />
<glyph unicode="&#xe925;" glyph-name="icons_danger" d="M675.2 840l228.8-228.8v-326.4l-228.8-228.8h-326.4l-228.8 228.8v326.4l228.8 228.8h326.4zM472 233.6c11.2-11.2 24-16 41.6-16 16 0 30.4 4.8 40 16 11.2 11.2 16 24 16 40s-4.8 28.8-16 40c-11.2 11.2-24 16-40 16s-30.4-4.8-41.6-16c-11.2-11.2-16-24-16-40-1.6-16 4.8-28.8 16-40zM555.2 404.8v260.8h-86.4v-260.8h86.4z" />
<glyph unicode="&#xe926;" glyph-name="icons_database" d="M374.4 825.6c51.2 9.6 108.8 14.4 169.6 14.4s116.8-4.8 169.6-14.4c51.2-9.6 92.8-24 123.2-41.6s44.8-35.2 44.8-56v-56c0-20.8-14.4-38.4-44.8-56s-70.4-30.4-123.2-41.6c-52.8-9.6-108.8-14.4-169.6-14.4s-116.8 4.8-169.6 14.4c-51.2 9.6-92.8 24-123.2 41.6s-44.8 35.2-44.8 56v56c0 20.8 14.4 38.4 44.8 56s72 32 123.2 41.6zM350.4 523.2c60.8-12.8 124.8-19.2 193.6-19.2s134.4 6.4 193.6 19.2c60.8 12.8 107.2 30.4 142.4 56v-75.2c0-20.8-14.4-38.4-44.8-56s-70.4-30.4-123.2-41.6c-51.2-9.6-108.8-14.4-169.6-14.4s-116.8 4.8-169.6 14.4c-51.2 9.6-92.8 24-123.2 41.6s-44.8 35.2-44.8 56v75.2c36.8-25.6 84.8-43.2 145.6-56zM350.4 355.2c59.2-12.8 124.8-19.2 193.6-19.2s134.4 6.4 193.6 19.2c60.8 12.8 107.2 30.4 142.4 56v-75.2c0-20.8-14.4-38.4-44.8-56s-70.4-30.4-123.2-41.6c-51.2-9.6-107.2-14.4-168-14.4s-116.8 4.8-169.6 14.4c-51.2 9.6-92.8 24-123.2 41.6s-44.8 36.8-44.8 56v75.2c35.2-25.6 83.2-44.8 144-56zM350.4 185.6c60.8-12.8 124.8-19.2 193.6-19.2s134.4 6.4 193.6 19.2c60.8 12.8 107.2 30.4 142.4 56v-75.2c0-20.8-14.4-38.4-44.8-56s-70.4-30.4-123.2-41.6c-51.2-9.6-108.8-14.4-169.6-14.4s-116.8 4.8-169.6 14.4c-51.2 9.6-92.8 24-123.2 41.6s-44.8 36.8-44.8 56v75.2c36.8-24 84.8-43.2 145.6-56z" />
<glyph unicode="&#xe927;" glyph-name="icons_document" d="M492.8 884.8h-35.2l-262.4-260.8v-35.2h297.6zM572.8 884.8v-377.6h-377.6v-496h633.6v873.6z" />
<glyph unicode="&#xe928;" glyph-name="icons_document2" d="M577.6 884.8h-395.2v-875.2h657.6v612.8l-262.4 262.4zM534.4 819.2l240-240h-240v240zM691.2 164.8h-358.4v88h360v-88zM691.2 339.2h-358.4v88h360v-88z" />
<glyph unicode="&#xe929;" glyph-name="icons_document-group" d="M684.8 208c0-9.6-4.8-14.4-14.4-14.4h-505.6c-9.6 0-14.4 4.8-14.4 14.4v670.4c0 9.6 4.8 14.4 14.4 14.4h504c9.6 0 14.4-4.8 14.4-14.4v-670.4zM779.2 113.6c0-9.6-4.8-14.4-14.4-14.4h-505.6c-9.6 0-14.4 4.8-14.4 14.4v33.6h470.4c9.6 0 14.4 4.8 14.4 12.8v638.4h33.6c9.6 0 14.4-4.8 14.4-14.4v-670.4zM859.2 702.4c9.6 0 14.4-4.8 14.4-14.4v-670.4c0-9.6-4.8-14.4-14.4-14.4h-504c-9.6 0-14.4 4.8-14.4 14.4v33.6h470.4c9.6 0 14.4 4.8 14.4 12.8v638.4h33.6z" />
<glyph unicode="&#xe92a;" glyph-name="icons_edit" d="M758.4 520l-468.8-470.4h-176v176l470.4 470.4 174.4-176zM897.6 657.6l-92.8-92.8-176 176 92.8 92.8c8 9.6 19.2 12.8 33.6 12.8 12.8 0 24-4.8 33.6-12.8l110.4-110.4c9.6-8 12.8-19.2 12.8-33.6-1.6-11.2-4.8-22.4-14.4-32z" />
<glyph unicode="&#xe92b;" glyph-name="icons_help" d="M220.8 737.6c80 80 177.6 120 291.2 120s209.6-40 291.2-120c80-80 120-176 120-289.6s-40-209.6-120-289.6-177.6-120-291.2-120-209.6 40-291.2 120-120 176-120 289.6c0 113.6 40 209.6 120 289.6zM638.4 478.4c25.6 25.6 38.4 56 38.4 92.8 0 44.8-16 83.2-48 115.2s-70.4 48-116.8 48-84.8-16-116.8-48c-32-32-48-70.4-48-115.2h83.2c0 22.4 8 43.2 24 59.2s35.2 24 57.6 24 41.6-8 57.6-24c16-16 24-35.2 24-59.2s-8-41.6-25.6-57.6l-49.6-51.2c-32-32-48-70.4-48-115.2v-20.8h83.2c0 28.8 3.2 49.6 11.2 65.6 6.4 16 19.2 32 36.8 49.6l36.8 36.8zM553.6 161.6v81.6h-83.2v-81.6h83.2z" />
<glyph unicode="&#xe92c;" glyph-name="icons_indent" d="M683.2 190.4v-73.6h-486.4v73.6h486.4zM827.2 484.8v-73.6h-470.4v73.6h470.4zM827.2 300.8v35.2h-470.4v-72h470.4zM683.2 779.2v-73.6h-486.4v73.6h486.4zM827.2 595.2v36.8h-470.4v-72h470.4z" />
<glyph unicode="&#xe92d;" glyph-name="icons_index" d="M905.6 568v-240c0-11.2-4.8-20.8-14.4-28.8l-360-240c-6.4-3.2-12.8-6.4-19.2-6.4s-12.8 1.6-19.2 6.4l-360 240c-9.6 6.4-14.4 16-14.4 28.8v240c0 11.2 4.8 20.8 14.4 28.8l360 240c6.4 3.2 12.8 6.4 19.2 6.4s12.8-1.6 19.2-6.4l360-240c9.6-8 14.4-17.6 14.4-28.8zM185.6 392l84.8 56-84.8 56v-112zM331.2 489.6l147.2 97.6v158.4l-264-176 116.8-80zM212.8 328l264-176v158.4l-147.2 97.6-116.8-80zM512 368l120 80-120 80-120-80 120-80zM692.8 489.6l118.4 78.4-264 176v-158.4l145.6-96zM545.6 152l264 176-118.4 78.4-147.2-97.6v-156.8zM753.6 448l84.8-56v113.6l-84.8-57.6z" />
<glyph unicode="&#xe92e;" glyph-name="icons_info" d="M220.8 737.6c80 80 177.6 120 291.2 120s209.6-40 291.2-120 120-176 120-289.6-40-209.6-120-289.6c-80-80-177.6-120-291.2-120s-209.6 40-291.2 120c-80 80-120 176-120 289.6s40 209.6 120 289.6zM280 214.4c64-64 140.8-96 232-96s168 32 232 96 96 142.4 96 233.6-32 168-96 233.6-140.8 96-232 96-168-32-232-96-96-142.4-96-233.6 32-168 96-233.6zM470.4 571.2v83.2h83.2v-83.2h-83.2zM470.4 241.6v246.4h83.2v-246.4h-83.2z" />
<glyph unicode="&#xe92f;" glyph-name="icons_link" d="M864 486.4l-156.8-156.8c-86.4-86.4-225.6-86.4-312 0-12.8 12.8-24 28.8-33.6 44.8l72 72c3.2 3.2 8 4.8 11.2 8 4.8-17.6 14.4-33.6 27.2-46.4 43.2-43.2 113.6-43.2 156.8 0l156.8 156.8c43.2 43.2 43.2 113.6 0 156.8s-113.6 43.2-156.8 0l-56-56c-44.8 17.6-92.8 22.4-140.8 16l118.4 118.4c86.4 86.4 225.6 86.4 312 0 88-86.4 88-227.2 1.6-313.6zM451.2 230.4l-56-56c-43.2-43.2-113.6-43.2-156.8 0s-43.2 113.6 0 156.8l156.8 156.8c43.2 43.2 113.6 43.2 156.8 0 12.8-12.8 22.4-30.4 27.2-46.4 4.8 1.6 8 4.8 11.2 8l72 72c-9.6 16-19.2 30.4-33.6 44.8-86.4 86.4-225.6 86.4-312 0l-156.8-156.8c-86.4-86.4-86.4-227.2 0-313.6s225.6-86.4 312 0l118.4 118.4c-46.4-6.4-94.4-1.6-139.2 16z" />
<glyph unicode="&#xe930;" glyph-name="icons_list" d="M296 744h603.2v-113.6h-603.2v113.6zM124.8 744h113.6v-113.6h-113.6v113.6zM296 505.6h603.2v-113.6h-603.2v113.6zM124.8 505.6h113.6v-113.6h-113.6v113.6zM296 265.6h603.2v-113.6h-603.2v113.6zM124.8 265.6h113.6v-113.6h-113.6v113.6z" />
<glyph unicode="&#xe931;" glyph-name="icons_menu" d="M819.2 264v-123.2h-614.4v123.2h614.4zM819.2 756.8v-123.2h-614.4v123.2h614.4zM819.2 448v60.8h-614.4v-121.6h614.4z" />
<glyph unicode="&#xe932;" glyph-name="icons_menu-collapse" d="M936 203.2l-244.8 244.8 244.8 244.8v-489.6zM702.4 264v-123.2h-614.4v123.2h614.4zM702.4 756.8v-123.2h-614.4v123.2h614.4zM550.4 448l60.8 60.8h-523.2v-121.6h523.2z" />
<glyph unicode="&#xe933;" glyph-name="icons_menu-expand" d="M427.2 264v-123.2h-227.2v123.2h227.2zM427.2 756.8v-123.2h-227.2v123.2h227.2zM427.2 448v60.8h-227.2v-121.6h227.2zM579.2 692.8l244.8-244.8-244.8-244.8z" />
<glyph unicode="&#xe934;" glyph-name="icons_newline" d="M326.4 81.6l-230.4 692.8h124.8l228.8-692.8h-123.2zM745.6 142.4v265.6c0 51.2-36.8 60.8-54.4 60.8s-54.4-9.6-54.4-60.8v-264h-134.4v441.6h131.2v-36.8c27.2 27.2 67.2 41.6 102.4 41.6 41.6 0 75.2-14.4 99.2-38.4 38.4-38.4 44.8-80 44.8-126.4v-283.2h-134.4z" />
<glyph unicode="&#xe935;" glyph-name="icons_newtab" d="M672 180.8h-480v414.4c0 17.6 6.4 33.6 19.2 46.4s28.8 19.2 46.4 19.2h294.4v52.8h-294.4c-33.6 0-60.8-11.2-84.8-35.2s-35.2-51.2-35.2-84.8v-465.6h587.2v252.8h-52.8v-200zM580.8 768l120-118.4-281.6-281.6 65.6-67.2 281.6 281.6 120-118.4v304z" />
<glyph unicode="&#xe936;" glyph-name="icons_notifications" d="M137.6 822.4v-748.8l148.8 148.8h601.6v600h-750.4zM398.4 484.8h-73.6v75.2h73.6v-75.2zM550.4 484.8h-75.2v75.2h75.2v-75.2zM624 484.8v75.2h75.2v-75.2h-75.2z" />
<glyph unicode="&#xe937;" glyph-name="icons_plus" d="M601.6 328h332.8v179.2h-332.8v334.4h-179.2v-334.4h-332.8v-179.2h332.8v-332.8h179.2z" />
<glyph unicode="&#xe938;" glyph-name="icons_recent" d="M209.6 750.4c83.2 83.2 184 124.8 302.4 124.8s219.2-41.6 302.4-124.8c83.2-83.2 124.8-184 124.8-302.4s-41.6-219.2-124.8-302.4c-83.2-83.2-184-124.8-302.4-124.8s-219.2 41.6-302.4 124.8c-84.8 83.2-126.4 184-126.4 302.4s41.6 217.6 126.4 302.4zM270.4 204.8c67.2-67.2 147.2-100.8 241.6-100.8s174.4 33.6 241.6 100.8c67.2 67.2 100.8 147.2 100.8 243.2 0 94.4-33.6 176-100.8 243.2s-147.2 100.8-241.6 100.8c-94.4 0-174.4-33.6-241.6-100.8s-100.8-147.2-100.8-243.2c0-94.4 33.6-176 100.8-243.2zM552 392h-220.8v80h140.8v244.8h80z" />
<glyph unicode="&#xe939;" glyph-name="icons_save" d="M726.4 832h-598.4v-768h768v598.4l-169.6 169.6zM592 310.4c-20.8-20.8-48-32-80-32s-57.6 11.2-80 32c-20.8 20.8-32 48-32 78.4s11.2 57.6 32 80c20.8 22.4 48 33.6 80 33.6s57.6-11.2 80-33.6c20.8-22.4 32-48 32-80 0-30.4-11.2-57.6-32-78.4zM640 620.8h-427.2v124.8h427.2v-124.8z" />
<glyph unicode="&#xe93a;" glyph-name="icons_search" d="M896 136l-246.4 246.4c38.4 48 60.8 108.8 60.8 174.4 0 155.2-126.4 281.6-281.6 281.6s-281.6-128-281.6-283.2c0-155.2 126.4-281.6 281.6-281.6 54.4 0 105.6 16 148.8 43.2l251.2-251.2 67.2 70.4zM243.2 555.2c0 102.4 83.2 185.6 185.6 185.6s185.6-83.2 185.6-185.6-83.2-185.6-185.6-185.6-185.6 84.8-185.6 185.6z" />
<glyph unicode="&#xe93b;" glyph-name="icons_settings" d="M822.4 406.4l104-80-9.6-16-84.8-145.6-8-14.4-121.6 48c-24-17.6-46.4-30.4-70.4-41.6l-17.6-128c0 0-6.4 0-19.2 0h-166.4c-11.2 0-19.2 0-19.2 0l-17.6 128c-25.6 11.2-48 24-70.4 41.6l-121.6-48-8 14.4-84.8 145.6-9.6 16 104 80c-1.6 16-1.6 28.8-1.6 41.6s0 25.6 1.6 41.6l-104 80 9.6 16 84.8 145.6 8 14.4 121.6-48c24 17.6 46.4 30.4 70.4 41.6l19.2 128h204.8l17.6-128c25.6-11.2 48-24 70.4-41.6l121.6 48 102.4-176-104-80c3.2-16 3.2-28.8 3.2-41.6s-1.6-25.6-4.8-41.6zM409.6 344c28.8-28.8 62.4-43.2 102.4-43.2s73.6 14.4 102.4 43.2c28.8 28.8 43.2 64 43.2 104s-14.4 75.2-43.2 104c-28.8 28.8-62.4 43.2-102.4 43.2s-73.6-14.4-102.4-43.2c-28.8-28.8-43.2-64-43.2-104s14.4-75.2 43.2-104z" />
<glyph unicode="&#xe93c;" glyph-name="icons_star" d="M969.6 552l-251.2-216 75.2-321.6-283.2 171.2-281.6-171.2 75.2 321.6-249.6 216 328 27.2 128 302.4 128-302.4 331.2-27.2zM510.4 268.8l172.8-102.4-46.4 195.2 152 132.8-198.4 17.6-78.4 184-76.8-184-198.4-17.6 150.4-132.8-44.8-195.2 168 102.4z" />
<glyph unicode="&#xe93d;" glyph-name="icons_star-filled" d="M510.4 185.6l-281.6-171.2 75.2 321.6-249.6 216 328 27.2 128 302.4 128-302.4 329.6-27.2-249.6-216 75.2-321.6-283.2 171.2z" />
<glyph unicode="&#xe93e;" glyph-name="icons_trash" d="M822.4 803.2v-89.6h-620.8v89.6h155.2l43.2 43.2h222.4l43.2-43.2h156.8zM246.4 139.2v531.2h531.2v-531.2c0-25.6-8-46.4-25.6-64s-38.4-25.6-60.8-25.6h-356.8c-25.6 0-46.4 8-64 25.6-16 17.6-24 38.4-24 64z" />
<glyph unicode="&#xe93f;" glyph-name="icons_warning" d="M59.2 56l454.4 784 452.8-784h-907.2zM553.6 344v166.4h-83.2v-166.4h83.2zM553.6 180.8v83.2h-83.2v-83.2h83.2z" />
<glyph unicode="&#xe940;" glyph-name="icons_tick" d="M979.2 667.2l-128 126.4-411.2-411.2-235.2 236.8-128-128 363.2-361.6z" />
<glyph unicode="&#xe941;" glyph-name="icons_coffee" d="M257.6 297.6c22.4-22.4 49.6-33.6 81.6-33.6h254.4c32 0 59.2 11.2 81.6 33.6 17.6 17.6 30.4 65.6 33.6 88h35.2c49.6 0 92.8 17.6 128 52.8s52.8 78.4 52.8 128c0 49.6-17.6 92.8-52.8 128-30.4 30.4-67.2 48-108.8 52.8l1.6 14.4c0 9.6-3.2 16-9.6 24-6.4 6.4-14.4 9.6-24 9.6h-531.2c-9.6 0-16-3.2-24-9.6-6.4-6.4-9.6-14.4-9.6-24l52.8-363.2c1.6-1.6 14.4-76.8 38.4-100.8zM808 630.4c17.6-17.6 25.6-38.4 25.6-64s-8-46.4-25.6-64c-17.6-17.6-38.4-25.6-64-25.6h-20.8l25.6 179.2c22.4 0 43.2-9.6 59.2-25.6zM132.8 136c22.4-22.4 49.6-33.6 80-33.6h569.6c32 0 57.6 11.2 80 33.6s33.6 49.6 33.6 80h-796.8c0-30.4 11.2-57.6 33.6-80z" />
<glyph unicode="&#xe942;" glyph-name="icons_filesystem" d="M579.2 886.4h-395.2v-875.2h657.6v611.2l-262.4 264zM388.8 465.6c35.2 0 62.4-28.8 62.4-62.4 0-35.2-28.8-62.4-62.4-62.4s-62.4 28.8-62.4 62.4c-1.6 35.2 27.2 62.4 62.4 62.4zM256 80c51.2 70.4 91.2 124.8 136 185.6 35.2-30.4 60.8-51.2 104-88 32 49.6 62.4 96 107.2 168 64-104 108.8-174.4 166.4-267.2-179.2 1.6-336 1.6-513.6 1.6zM536 579.2v240l240-240h-240z" />
<glyph unicode="&#xe943;" glyph-name="icons_copy-to-clipboard" d="M864 830.4c-16 16-35.2 24-57.6 24h-166.4c-8 24-24 43.2-44.8 57.6s-41.6 22.4-67.2 22.4c-25.6 0-48-8-68.8-22.4s-35.2-33.6-43.2-57.6h-168c-22.4 0-41.6-8-57.6-24s-24-33.6-24-56v-112h80v112h78.4v-80h401.6v80h78.4v-641.6h-89.6v-78.4h89.6c22.4 0 41.6 8 57.6 24s24 33.6 24 56v641.6c1.6 20.8-6.4 38.4-22.4 54.4zM556.8 787.2c-8-8-17.6-11.2-28.8-11.2s-20.8 3.2-28.8 11.2c-8 8-11.2 17.6-11.2 28.8s3.2 20.8 11.2 28.8c8 8 17.6 11.2 28.8 11.2s20.8-3.2 28.8-11.2c8-8 11.2-17.6 11.2-28.8 0-12.8-4.8-22.4-11.2-28.8zM606.4 371.2l-206.4 206.4h-232v-584h462.4v353.6l-24 24zM494.4 371.2h-70.4v70.4l70.4-70.4zM550.4 73.6h-300.8v424h96v-206.4h204.8v-217.6z" />
<glyph unicode="&#xe944;" glyph-name="icons_backup" d="M316.8 284.8c-11.2 11.2-17.6 27.2-17.6 43.2h-169.6v115.2h278.4c16 44.8 41.6 84.8 76.8 120 64 64 144 97.6 235.2 97.6 12.8 0 25.6 0 36.8-1.6l-16 11.2-28.8 19.2h-465.6l-30.4-25.6-142.4-113.6-43.2-33.6v-292.8h347.2l-60.8 60.8zM529.6 520c52.8 52.8 116.8 80 192 80s139.2-27.2 192-80c52.8-52.8 80-116.8 80-192s-27.2-139.2-80-192c-52.8-52.8-116.8-80-192-80s-139.2 25.6-192 80l43.2 43.2c40-41.6 89.6-62.4 148.8-62.4s108.8 20.8 148.8 60.8c41.6 41.6 60.8 91.2 60.8 148.8 0 59.2-20.8 108.8-60.8 148.8-41.6 41.6-91.2 60.8-148.8 60.8-59.2 0-108.8-20.8-148.8-60.8-41.6-41.6-60.8-91.2-60.8-148.8h91.2l-123.2-121.6-1.6 4.8-116.8 116.8h91.2c-1.6 76.8 24 140.8 76.8 193.6zM692.8 448h44.8v-128l104-64-20.8-36.8-128 78.4v150.4z" />
<glyph unicode="&#xe945;" glyph-name="icons_drive" d="M934.4 548.8l-169.6 115.2-28.8 20.8h-475.2l-32-25.6-145.6-115.2-44.8-35.2v-294.4h944v300.8l-48 33.6zM881.6 316.8h-739.2v118.4h737.6v-118.4h1.6z" />
<glyph unicode="&#xe946;" glyph-name="icons_exclamation" d="M401.6 92.8c0 14.4 3.2 28.8 8 41.6 6.4 12.8 12.8 24 24 33.6 9.6 9.6 20.8 17.6 35.2 22.4 12.8 6.4 28.8 8 44.8 8s30.4-3.2 43.2-8c12.8-6.4 25.6-12.8 35.2-22.4s17.6-20.8 24-33.6c6.4-12.8 8-27.2 8-41.6s-3.2-28.8-8-43.2c-6.4-12.8-12.8-24-24-33.6-9.6-9.6-22.4-17.6-35.2-22.4s-27.2-8-43.2-8c-16 0-30.4 3.2-44.8 8-12.8 4.8-25.6 12.8-35.2 22.4s-17.6 20.8-24 33.6c-4.8 14.4-8 27.2-8 43.2zM604.8 910.4v-360c0-38.4-1.6-76.8-6.4-115.2s-11.2-76.8-17.6-116.8h-132.8c-8 40-14.4 78.4-17.6 116.8-4.8 38.4-6.4 76.8-6.4 115.2v360h180.8z" />
<glyph unicode="&#xe947;" glyph-name="icons_hash" d="M670.4 256l-40-228.8h-83.2c-8 0-14.4 1.6-20.8 4.8s-11.2 8-16 12.8c-4.8 4.8-8 11.2-11.2 19.2-3.2 6.4-4.8 14.4-4.8 22.4 0 1.6 0 4.8 0 6.4s0 4.8 1.6 6.4l27.2 156.8h-96l-27.2-166.4c-1.6-11.2-4.8-20.8-9.6-28.8s-11.2-14.4-19.2-19.2c-8-4.8-16-8-24-11.2-8-1.6-17.6-3.2-27.2-3.2h-80l41.6 228.8h-51.2c-14.4 0-25.6 3.2-33.6 11.2-8 6.4-12.8 19.2-12.8 36.8 0 3.2 0 6.4 0 11.2 0 3.2 1.6 8 1.6 12.8l9.6 56h102.4l24 136h-113.6l14.4 72c3.2 17.6 11.2 30.4 22.4 40 11.2 8 30.4 12.8 56 12.8h40l30.4 169.6c3.2 17.6 11.2 32 25.6 43.2 14.4 9.6 30.4 16 49.6 16h81.6l-40-227.2h96l40 227.2h80c17.6 0 30.4-4.8 41.6-14.4s16-20.8 16-35.2c0-1.6 0-3.2 0-4.8s0-3.2 0-4.8l-30.4-168h112l-14.4-72c-3.2-17.6-11.2-32-22.4-40s-30.4-12.8-56-12.8h-36.8l-24-136h62.4c14.4 0 25.6-3.2 33.6-11.2 8-6.4 12.8-19.2 12.8-36.8 0-3.2 0-6.4 0-11.2 0-3.2-1.6-8-1.6-12.8l-12.8-57.6h-113.6zM444.8 380.8h96l24 136h-96l-24-136z" />
<glyph unicode="&#xe948;" glyph-name="icons_umbrella" d="M993.6 420.8c-33.6 33.6-88 40-148.8 40-75.2 0-139.2-16-166.4-62.4-20.8 33.6-60.8 44.8-112 56v-262.4c0-88-72-160-160-160s-160 72-160 160c0 25.6 20.8 44.8 44.8 44.8 25.6 0 44.8-20.8 44.8-44.8 0-38.4 32-70.4 70.4-70.4s70.4 32 70.4 70.4v265.6c-59.2-8-107.2-20.8-131.2-59.2-27.2 46.4-91.2 62.4-166.4 62.4-62.4 0-116.8-6.4-148.8-40 38.4 216 220.8 382.4 446.4 396.8v1.6c0 25.6 20.8 44.8 44.8 44.8 25.6 0 44.8-20.8 44.8-44.8v-3.2c217.6-24 390.4-185.6 427.2-395.2v0z" />
<glyph unicode="&#xe949;" glyph-name="menu-icons_about" d="M512 840c-108.8 0-201.6-38.4-278.4-115.2s-115.2-168-115.2-276.8c0-108.8 38.4-200 115.2-276.8s169.6-115.2 278.4-115.2 201.6 38.4 278.4 115.2c76.8 76.8 115.2 169.6 115.2 276.8 0 108.8-38.4 200-115.2 276.8s-169.6 115.2-278.4 115.2zM552 251.2h-80v235.2h80v-235.2zM552 566.4h-80v80h80v-80z" />
<glyph unicode="&#xe94a;" glyph-name="menu-icons_administrator-js-console" d="M108.8 116.8h804.8v659.2h-804.8v-659.2zM312 521.6h200v-56h-200v56zM190.4 680h46.4l60.8-86.4v-4.8l-60.8-86.4h-46.4l51.2 88-51.2 89.6z" />
<glyph unicode="&#xe94b;" glyph-name="menu-icons_disk-io-viewer" d="M264 307.2h68.8v-294.4h-68.8v294.4zM353.6-12.8h48l100.8 320h-48zM646.4 310.4c-36.8 0-67.2-11.2-91.2-35.2-22.4-24-35.2-52.8-35.2-89.6v-52.8c0-36.8 11.2-65.6 35.2-89.6s52.8-35.2 91.2-35.2c36.8 0 67.2 11.2 89.6 35.2s35.2 52.8 35.2 89.6v52.8c0 36.8-11.2 65.6-35.2 89.6-22.4 24-52.8 35.2-89.6 35.2zM704 132.8c0-20.8-4.8-38.4-14.4-52.8-9.6-12.8-24-20.8-41.6-20.8-19.2 0-32 6.4-43.2 20.8-9.6 12.8-14.4 30.4-14.4 52.8v52.8c0 20.8 4.8 38.4 14.4 51.2s24 20.8 43.2 20.8c17.6 0 32-6.4 41.6-20.8 9.6-12.8 14.4-28.8 14.4-51.2v-52.8zM766.4 838.4l-28.8 20.8h-475.2l-32-25.6-145.6-115.2-44.8-35.2v-294.4h944v300.8l-48 33.6-169.6 115.2zM676.8 491.2h-532.8v118.4h532.8v-118.4zM824 491.2c-33.6 0-60.8 27.2-60.8 60.8s27.2 60.8 60.8 60.8c33.6 0 60.8-27.2 60.8-60.8 0-35.2-27.2-60.8-60.8-60.8z" />
<glyph unicode="&#xe94c;" glyph-name="menu-icons_hot-spare" d="M920 628.8l-14.4 36.8-27.2-11.2c-40 75.2-100.8 136-176 176l11.2 27.2-36.8 14.4c-110.4 46.4-233.6 44.8-344-1.6l-36.8-14.4 11.2-27.2c-75.2-40-136-100.8-176-176l-27.2 11.2-14.4-36.8c-46.4-110.4-44.8-233.6 1.6-344l14.4-36.8 27.2 11.2c40-75.2 100.8-136 176-176l-11.2-27.2 36.8-14.4c54.4-22.4 112-33.6 169.6-33.6 19.2 0 40 1.6 59.2 4.8 49.6-43.2 112-65.6 177.6-65.6 150.4 0 273.6 123.2 273.6 273.6 0 65.6-22.4 128-65.6 176 12.8 80 1.6 160-28.8 233.6zM476.8 291.2c-12.8 1.6-24 4.8-35.2 9.6l-36.8 14.4-9.6-22.4c-20.8 14.4-38.4 32-51.2 51.2l22.4 9.6-14.4 36.8c-17.6 41.6-17.6 86.4 0 128l14.4 36.8-22.4 9.6c14.4 20.8 32 38.4 51.2 51.2l9.6-22.4 36.8 14.4c41.6 17.6 86.4 17.6 128 0l36.8-14.4 9.6 22.4c20.8-14.4 38.4-32 51.2-51.2l-22.4-9.6 14.4-36.8c4.8-11.2 8-24 9.6-36.8-92.8-24-166.4-96-192-190.4zM148.8 350.4c-20.8 68.8-20.8 140.8 0 209.6l118.4-48c-8-36.8-8-75.2 0-112l-118.4-49.6zM747.2 492.8c-1.6 6.4-1.6 12.8-3.2 19.2l67.2 28.8 49.6 20.8c9.6-33.6 16-68.8 16-104-1.6 0-1.6 1.6-3.2 1.6s-3.2 1.6-4.8 1.6c-6.4 3.2-12.8 6.4-20.8 9.6 0 0-1.6 0-1.6 0-8 3.2-14.4 6.4-22.4 8-1.6 0-3.2 1.6-4.8 1.6-8 1.6-16 4.8-24 6.4-1.6 0-1.6 0-3.2 0-8 1.6-14.4 3.2-22.4 3.2-1.6 0-3.2 0-4.8 0-4.8 3.2-11.2 3.2-17.6 3.2zM609.6 812.8l-48-118.4c-36.8 8-75.2 8-112 0l-33.6 75.2-17.6 43.2c68.8 19.2 142.4 20.8 211.2 0zM400 99.2l38.4 94.4 9.6 24c6.4-1.6 11.2-3.2 17.6-3.2 0-46.4 12.8-89.6 35.2-129.6-33.6 0-67.2 4.8-100.8 14.4zM740.8 22.4c-51.2 0-100.8 20.8-137.6 56v0c-36.8 36.8-57.6 86.4-57.6 139.2 0 8 0 16 1.6 25.6v0c11.2 88 81.6 156.8 168 168v0c9.6 1.6 17.6 1.6 25.6 1.6 52.8 0 102.4-20.8 139.2-59.2v0c36.8-36.8 56-84.8 56-136 1.6-107.2-86.4-195.2-195.2-195.2zM782.4 379.2h-78.4v-200h160v78.4h-81.6z" />
<glyph unicode="&#xe94d;" glyph-name="menu-icons_io-test" d="M148.8 729.6h116.8v-600h-116.8v600zM470.4 729.6l-208-651.2h43.2l208 651.2zM710.4 739.2c-64 0-113.6-19.2-152-59.2s-57.6-94.4-57.6-164.8v-168c0-70.4 19.2-124.8 57.6-164.8s88-59.2 152-59.2 113.6 19.2 152 59.2 57.6 94.4 57.6 164.8v166.4c0 70.4-19.2 124.8-57.6 164.8-36.8 40-88 60.8-152 60.8zM804.8 345.6c0-43.2-8-76.8-24-97.6-16-22.4-38.4-32-68.8-32s-52.8 11.2-68.8 32c-16 22.4-24 54.4-24 97.6v169.6c0 43.2 8 75.2 22.4 97.6s38.4 32 68.8 32c30.4 0 54.4-11.2 70.4-33.6s24-54.4 24-97.6v-168z" />
<glyph unicode="&#xe94e;" glyph-name="menu-icons_studio-config-73" d="M571.2 520c16 40 20.8 81.6 11.2 128-9.6 44.8-30.4 84.8-64 116.8-35.2 33.6-78.4 56-126.4 64-49.6 8-94.4 3.2-136-17.6l153.6-153.6-107.2-107.2-158.4 155.2c-22.4-43.2-28.8-89.6-19.2-137.6s30.4-89.6 65.6-126.4c33.6-33.6 72-54.4 116.8-64s88-6.4 129.6 11.2l323.2-323.2c6.4-8 14.4-11.2 24-11.2s17.6 3.2 25.6 11.2l81.6 81.6c9.6 6.4 12.8 16 12.8 25.6 0 11.2-3.2 19.2-9.6 24l-323.2 323.2z" />
<glyph unicode="&#xe94f;" glyph-name="menu-icons_admin-logs" d="M720 793.6l-52.8-52.8-52.8 52.8-52.8-52.8-49.6 52.8-52.8-52.8-52.8 52.8-52.8-52.8-49.6 52.8-52.8-52.8-52.8 52.8v-694.4l52.8 52.8 52.8-52.8 52.8 52.8 52.8-52.8 52.8 52.8 52.8-52.8 52.8 52.8 52.8-52.8 52.8 52.8 52.8-52.8 52.8 52.8 52.8-52.8v694.4l-52.8-52.8-59.2 52.8zM720 272h-416v70.4h416v-70.4zM720 411.2h-416v68.8h416v-68.8zM720 550.4h-416v70.4h416v-70.4z" />
<glyph unicode="&#xe950;" glyph-name="menu-icons_backup" d="M766.4 414.4c9.6 8 14.4 19.2 14.4 32s-4.8 22.4-14.4 32c-9.6 8-19.2 12.8-32 12.8-11.2 0-22.4-4.8-32-12.8s-14.4-19.2-14.4-32 4.8-22.4 14.4-32c9.6-8 19.2-12.8 32-12.8s24 3.2 32 12.8zM512 848h-44.8v-177.6h88v86.4c76.8-11.2 140.8-46.4 192-105.6s76.8-128 76.8-204.8c0-86.4-30.4-160-91.2-220.8s-134.4-91.2-220.8-91.2c-86.4 0-160 30.4-220.8 91.2s-91.2 134.4-91.2 220.8c0 73.6 22.4 139.2 68.8 196.8l243.2-241.6 62.4 62.4-304 304v-1.6c-49.6-36.8-89.6-83.2-118.4-139.2s-43.2-116.8-43.2-180.8c0-112 38.4-206.4 116.8-284.8s172.8-116.8 284.8-116.8c112 0 206.4 38.4 284.8 116.8s116.8 172.8 116.8 284.8c0 112-38.4 206.4-116.8 284.8-76.8 76.8-171.2 116.8-283.2 116.8zM257.6 476.8c-9.6-8-14.4-19.2-14.4-32s4.8-22.4 14.4-32c9.6-8 19.2-12.8 32-12.8 11.2 0 22.4 4.8 32 12.8s14.4 19.2 14.4 32-4.8 22.4-14.4 32c-9.6 8-19.2 12.8-32 12.8s-24-4.8-32-12.8zM480 252.8c-8-9.6-12.8-19.2-12.8-32 0-11.2 4.8-22.4 12.8-32s19.2-14.4 32-14.4 22.4 4.8 32 14.4c8 9.6 12.8 19.2 12.8 32 0 11.2-4.8 22.4-12.8 32s-19.2 14.4-32 14.4-22.4-4.8-32-14.4z" />
<glyph unicode="&#xe951;" glyph-name="menu-icons_compact" d="M208 520h609.6v-145.6h-609.6v145.6zM473.6 870.4v-153.6h-115.2l155.2-152 152 152h-115.2v153.6zM358.4 179.2h115.2v-153.6h76.8v153.6h115.2l-152 152z" />
<glyph unicode="&#xe952;" glyph-name="menu-icons_gather-debug-information" d="M947.2 382.4c-3.2 3.2-6.4 6.4-9.6 9.6-1.6 0-1.6 1.6-3.2 1.6 1.6 0 1.6-1.6 3.2-1.6 3.2 19.2 3.2 38.4 3.2 57.6 1.6 235.2-192 428.8-428.8 428.8s-430.4-193.6-430.4-430.4c0-236.8 193.6-430.4 430.4-430.4 19.2 0 38.4 1.6 57.6 3.2 3.2-3.2 4.8-6.4 8-9.6 0 0 0 0 0 0 3.2-3.2 8-6.4 11.2-11.2 40-35.2 84.8-57.6 137.6-64 11.2-1.6 24-3.2 36.8-3.2s25.6 1.6 36.8 3.2c51.2 6.4 96 27.2 136 62.4 4.8 3.2 8 6.4 12.8 11.2 0 0 0 0 0 0 51.2 51.2 76.8 112 76.8 184-1.6 75.2-27.2 137.6-78.4 188.8 0 0 0 0 0 0zM512 707.2c48 0 86.4-38.4 88-84.8-27.2 16-57.6 24-88 24s-60.8-8-88-24c1.6 46.4 40 84.8 88 84.8zM512 806.4c196.8 0 358.4-160 358.4-358.4 0-3.2 0-8 0-11.2-22.4 9.6-44.8 16-70.4 19.2-11.2 1.6-24 3.2-36.8 3.2s-24-1.6-36.8-3.2c-8-1.6-14.4-1.6-22.4-3.2-1.6 12.8-3.2 25.6-6.4 36.8 25.6 4.8 60.8 20.8 88 60.8l-40 27.2c-20.8-32-49.6-40-65.6-43.2-9.6 19.2-20.8 36.8-35.2 51.2 3.2 11.2 4.8 22.4 4.8 33.6 0 33.6-12.8 64-32 86.4l25.6 25.6-35.2 35.2-28.8-28.8c-19.2 11.2-41.6 17.6-67.2 17.6-24 0-46.4-6.4-67.2-17.6l-28.8 28.8-33.6-33.6 25.6-25.6c-16-19.2-27.2-44.8-30.4-72l-91.2 91.2c62.4 49.6 140.8 80 225.6 80zM512 89.6c-196.8 0-358.4 160-358.4 358.4 0 86.4 30.4 164.8 81.6 227.2l120-120c-4.8-6.4-8-12.8-11.2-19.2-16 1.6-44.8 9.6-67.2 43.2l-40-27.2c27.2-41.6 64-56 89.6-62.4-4.8-16-6.4-32-8-49.6-25.6 1.6-67.2 0-102.4-22.4l25.6-40c27.2 16 59.2 17.6 78.4 14.4 3.2-20.8 8-40 14.4-59.2-25.6-11.2-60.8-32-80-73.6l43.2-19.2c12.8 30.4 41.6 44.8 59.2 51.2 33.6-49.6 84.8-83.2 142.4-86.4 0-1.6 0-3.2 0-4.8 0-38.4 8-73.6 22.4-107.2-1.6-3.2-6.4-3.2-9.6-3.2zM910.4 49.6c-41.6-41.6-89.6-60.8-147.2-60.8-51.2 0-94.4 16-132.8 46.4-4.8 4.8-11.2 9.6-16 14.4-14.4 14.4-27.2 30.4-36.8 48-16 30.4-25.6 64-25.6 100.8 0 3.2 0 6.4 0 9.6 0 8 1.6 17.6 3.2 25.6 1.6 9.6 3.2 19.2 6.4 28.8 6.4 20.8 16 40 28.8 57.6 6.4 9.6 14.4 19.2 22.4 27.2 9.6 9.6 17.6 16 27.2 24 3.2 1.6 6.4 3.2 8 6.4 8 6.4 17.6 11.2 27.2 14.4 1.6 1.6 4.8 1.6 6.4 3.2 6.4 1.6 12.8 4.8 19.2 6.4 19.2 4.8 38.4 8 59.2 8 11.2 0 24-1.6 33.6-3.2 24-3.2 46.4-11.2 67.2-22.4 16-9.6 32-20.8 46.4-35.2 4.8-4.8 9.6-11.2 14.4-16 30.4-36.8 46.4-81.6 46.4-131.2 3.2-62.4-16-112-57.6-152zM736 299.2v-24h52.8v52.8h-52.8zM736 222.4v-156.8h52.8v156.8z" />
<glyph unicode="&#xe953;" glyph-name="menu-icons_license-information" d="M760 710.4l-150.4 150.4h-424v-824h654.4v593.6l-80 80zM633.6 724.8l70.4-70.4h-70.4v70.4zM760 115.2h-494.4v665.6h288v-206.4h204.8v-459.2zM328 488h368v-48h-368v48zM328 363.2h368v-48h-368v48zM328 240h208v-48h-208v48z" />
<glyph unicode="&#xe954;" glyph-name="menu-icons_restore" d="M832 731.2c-78.4 76.8-172.8 116.8-284.8 116.8s-206.4-38.4-284.8-116.8c-78.4-78.4-118.4-174.4-118.4-286.4h-134.4l174.4-172.8 1.6-6.4 182.4 180.8h-134.4c0 86.4 30.4 160 91.2 220.8s134.4 91.2 220.8 91.2c86.4 0 160-30.4 220.8-91.2s91.2-134.4 91.2-220.8c0-86.4-30.4-160-91.2-220.8s-134.4-91.2-220.8-91.2c-86.4 0-160 30.4-220.8 92.8l-62.4-67.2c80-78.4 174.4-116.8 284.8-116.8 112 0 206.4 38.4 284.8 116.8s116.8 172.8 116.8 284.8c1.6 112-38.4 208-116.8 286.4zM502.4 624v-222.4l192-115.2 30.4 54.4-155.2 94.4v188.8z" />
<glyph unicode="&#xe955;" glyph-name="menu-icons_server-smuggling" d="M281.6 564.8l-212.8-212.8 212.8-211.2v160h372.8v104h-372.8zM742.4 595.2h-372.8v-104h372.8v-160l212.8 212.8-212.8 211.2z" />
<glyph unicode="&#xe956;" glyph-name="menu-icons_server-topology" d="M451.2 480l99.2-132.8-56-40c-38.4 52.8-91.2 121.6-156.8 208l-208-278.4h764.8l-313.6 417.6-129.6-174.4z" />
<glyph unicode="&#xe957;" glyph-name="menu-icons_traffic-watch" d="M777.6 601.6l-206.4-206.4-169.6 169.6-312-313.6 59.2-59.2 252.8 252.8 169.6-168 267.2 265.6 96-97.6v254.4h-252.8z" />
<glyph unicode="&#xe958;" glyph-name="menu-icons_api-keys" d="M451.2 638.4c-41.6 30.4-86.4 44.8-137.6 44.8-65.6 0-121.6-24-168-70.4-46.4-44.8-68.8-100.8-68.8-166.4s24-121.6 70.4-168c44.8-48 100.8-70.4 166.4-70.4 51.2 0 96 14.4 137.6 44.8s70.4 67.2 88 113.6h171.2v-158.4h160v158.4h78.4v160h-409.6c-17.6 44.8-46.4 83.2-88 112zM371.2 388.8c-16-16-33.6-24-56-24s-41.6 8-56 24c-16 16-24 33.6-24 56s8 41.6 24 56c16 16 33.6 24 56 24s41.6-8 56-24c16-16 24-33.6 24-56s-9.6-40-24-56z" />
<glyph unicode="&#xe959;" glyph-name="menu-icons_cluster" d="M790.4 480h-52.8v140.8c0 19.2-6.4 35.2-20.8 48-12.8 12.8-30.4 20.8-49.6 20.8h-139.2v52.8c0 24-8 44.8-25.6 62.4s-38.4 25.6-62.4 25.6c-24 0-44.8-8-60.8-25.6-17.6-17.6-25.6-38.4-25.6-62.4v-52.8h-139.2c-19.2 0-36.8-6.4-49.6-20.8s-20.8-30.4-20.8-48v-132.8h52.8c25.6 0 48-9.6 67.2-27.2 19.2-19.2 27.2-40 27.2-67.2 0-25.6-9.6-48-27.2-67.2-19.2-19.2-40-27.2-67.2-27.2h-49.6v-132.8c0-19.2 6.4-35.2 20.8-48 12.8-12.8 30.4-20.8 49.6-20.8h132.8v52.8c0 25.6 9.6 48 27.2 65.6s40 27.2 65.6 27.2c25.6 0 48-9.6 67.2-27.2s27.2-40 27.2-65.6v-52.8h132.8c19.2 0 36.8 6.4 49.6 20.8s20.8 30.4 20.8 48v140.8h52.8c24 0 44.8 8 60.8 25.6 17.6 17.6 25.6 36.8 25.6 60.8s-8 44.8-25.6 60.8c-19.2 17.6-40 25.6-64 25.6z" />
<glyph unicode="&#xe95a;" glyph-name="menu-icons_cluster-wide-database-settings" d="M220.8 664c30.4-17.6 72-30.4 123.2-41.6 52.8-9.6 108.8-14.4 169.6-14.4s118.4 4.8 169.6 14.4c52.8 9.6 92.8 24 123.2 41.6s44.8 35.2 44.8 56v56c0 20.8-14.4 38.4-44.8 56s-72 30.4-123.2 41.6c-51.2 11.2-107.2 16-168 16s-118.4-4.8-169.6-14.4c-52.8-9.6-92.8-24-123.2-41.6s-44.8-35.2-44.8-56v-57.6c-3.2-19.2 12.8-38.4 43.2-56zM756.8 281.6c-8 8-17.6 12.8-28.8 14.4-3.2 0-4.8 0-8 0-11.2 0-20.8-3.2-30.4-9.6-1.6-1.6-4.8-3.2-6.4-6.4-9.6-9.6-16-22.4-16-36.8 0-6.4 1.6-12.8 3.2-17.6 3.2-8 6.4-14.4 12.8-19.2 9.6-9.6 22.4-16 36.8-16s27.2 4.8 36.8 16c9.6 9.6 16 22.4 16 36.8 0 1.6 0 3.2 0 4.8-3.2 14.4-8 24-16 33.6zM900.8 478.4h-129.6c14.4 4.8 27.2 11.2 38.4 17.6 30.4 17.6 44.8 35.2 44.8 56v75.2c-35.2-24-83.2-43.2-144-56s-126.4-19.2-195.2-19.2c-70.4 0-134.4 6.4-195.2 19.2s-108.8 30.4-144 56v-75.2c0-20.8 14.4-38.4 44.8-56s72-30.4 123.2-41.6c44.8-8 92.8-12.8 142.4-14.4-1.6-4.8-1.6-9.6-1.6-14.4v-41.6c-59.2 1.6-113.6 8-166.4 17.6-60.8 12.8-108.8 30.4-144 56v-73.6c0-20.8 14.4-38.4 44.8-56s72-30.4 123.2-41.6c43.2-8 91.2-12.8 140.8-14.4v-56c-59.2 1.6-113.6 8-166.4 17.6-60.8 12.8-108.8 30.4-144 56v-75.2c0-20.8 14.4-38.4 44.8-56s72-30.4 123.2-41.6c43.2-8 91.2-12.8 140.8-14.4v-40c0-14.4 4.8-27.2 16-36.8 9.6-9.6 22.4-16 36.8-16h363.2c14.4 0 27.2 4.8 36.8 16 9.6 9.6 16 22.4 16 36.8v363.2c0 14.4-4.8 27.2-16 36.8-6.4 11.2-19.2 16-33.6 16zM856 244.8c0-6.4 0-11.2-1.6-17.6l38.4-28.8c3.2-3.2 3.2-8 1.6-12.8l-36.8-62.4c-3.2-4.8-6.4-6.4-11.2-4.8l-44.8 17.6c-9.6-8-19.2-12.8-30.4-17.6l-8-48c-1.6-4.8-3.2-8-8-8h-73.6c-4.8 0-8 3.2-8 8l-6.4 44.8v3.2c-11.2 4.8-20.8 11.2-30.4 17.6l-44.8-17.6c-4.8-1.6-8 0-11.2 3.2l-36.8 64c-3.2 4.8-1.6 8 1.6 12.8l27.2 19.2 12.8 9.6c-1.6 6.4-1.6 12.8-1.6 17.6 0 6.4 0 11.2 1.6 17.6l-14.4 9.6-25.6 19.2c-3.2 3.2-3.2 8-1.6 12.8l36.8 62.4c3.2 4.8 6.4 6.4 11.2 4.8l44.8-17.6c9.6 8 19.2 12.8 30.4 17.6l3.2 25.6 3.2 24c0 4.8 3.2 8 8 8h73.6c4.8 0 8-3.2 8-8v-1.6l6.4-44.8c11.2-4.8 20.8-11.2 30.4-17.6l44.8 17.6c1.6 0 3.2 0 4.8 0s4.8-1.6 6.4-4.8l36.8-64c3.2-4.8 1.6-8-1.6-12.8l-38.4-28.8c1.6-8 3.2-14.4 3.2-19.2z" />
<glyph unicode="&#xe95b;" glyph-name="menu-icons_global-config" d="M592 516.8c4.8-27.2 6.4-51.2 6.4-70.4 0-14.4-1.6-30.4-3.2-48 20.8 17.6 44.8 32 72 41.6 0 1.6 0 3.2 0 4.8 0 19.2-1.6 43.2-4.8 70.4h116.8c4.8-20.8 8-40 9.6-59.2 24-3.2 48-8 70.4-17.6 0 1.6 0 4.8 0 6.4 0 96-33.6 177.6-102.4 244.8-67.2 67.2-150.4 102.4-246.4 102.4s-177.6-33.6-246.4-102.4c-67.2-67.2-102.4-150.4-102.4-244.8 0-96 33.6-177.6 102.4-244.8 67.2-67.2 150.4-102.4 246.4-102.4 3.2 0 6.4 0 8 0-11.2 25.6-17.6 54.4-19.2 84.8-24 38.4-43.2 80-56 124.8h80c11.2 25.6 27.2 48 46.4 68.8h-142.4c-3.2 27.2-4.8 51.2-4.8 70.4s1.6 43.2 4.8 70.4h164.8zM752 584h-102.4c-11.2 44.8-27.2 86.4-48 123.2 65.6-20.8 116.8-62.4 150.4-123.2zM510.4 723.2c28.8-41.6 51.2-88 67.2-139.2h-132.8c16 51.2 36.8 96 65.6 139.2zM241.6 376c-4.8 25.6-8 48-8 70.4s3.2 44.8 8 70.4h116.8c-3.2-27.2-4.8-51.2-4.8-70.4s1.6-43.2 4.8-70.4h-116.8zM272 307.2h102.4c11.2-44.8 27.2-86.4 48-123.2-65.6 20.8-116.8 62.4-150.4 123.2zM374.4 584h-102.4c35.2 60.8 84.8 102.4 150.4 123.2-20.8-36.8-36.8-78.4-48-123.2zM931.2 254.4l-35.2 60.8c-1.6 3.2-6.4 4.8-11.2 3.2l-41.6-17.6c-3.2 3.2-6.4 4.8-11.2 8-6.4 4.8-12.8 8-19.2 11.2l-6.4 46.4c-1.6 4.8-4.8 6.4-9.6 6.4h-68.8c-4.8 0-8-1.6-9.6-6.4l-6.4-46.4c-6.4-3.2-12.8-6.4-19.2-11.2-3.2-1.6-6.4-4.8-11.2-6.4l-16 6.4-25.6 9.6c-4.8 1.6-8 0-11.2-3.2l-33.6-60.8c-1.6-4.8-1.6-8 1.6-11.2l38.4-28.8c-1.6-4.8-1.6-11.2-1.6-17.6 0 0 0 0 0-1.6 0-4.8 0-11.2 1.6-16l-36.8-27.2c-3.2-3.2-3.2-6.4-1.6-11.2l16-28.8 17.6-32c1.6-4.8 6.4-6.4 11.2-4.8l41.6 17.6c9.6-8 19.2-12.8 28.8-16l6.4-48c1.6-4.8 4.8-6.4 9.6-6.4h68.8c4.8 0 8 1.6 9.6 6.4l6.4 48c11.2 4.8 20.8 9.6 28.8 16l41.6-17.6c4.8-1.6 9.6 0 11.2 4.8l33.6 60.8c1.6 4.8 1.6 8-1.6 11.2l-36.8 27.2c1.6 8 1.6 12.8 1.6 17.6 0 6.4 0 11.2-1.6 16l36.8 28.8c6.4 4.8 6.4 8 4.8 12.8zM800 160c-9.6-9.6-22.4-14.4-36.8-14.4s-25.6 4.8-36.8 14.4c-3.2 1.6-4.8 4.8-6.4 8-6.4 8-9.6 17.6-9.6 28.8 0 14.4 4.8 27.2 16 36.8 9.6 9.6 22.4 16 36.8 16 11.2 0 20.8-3.2 28.8-9.6 3.2-1.6 4.8-3.2 6.4-6.4 9.6-9.6 16-22.4 16-36.8s-4.8-27.2-14.4-36.8z" />
<glyph unicode="&#xe95c;" glyph-name="menu-icons_manage-server" d="M129.6 368h436.8c48 54.4 118.4 89.6 196.8 89.6 48 0 92.8-12.8 132.8-36.8v100.8h-766.4v-153.6zM206.4 483.2h75.2v-75.2h-75.2v75.2zM129.6 598.4h766.4v153.6h-766.4v-153.6zM206.4 713.6h75.2v-75.2h-75.2v75.2zM129.6 139.2h379.2c-4.8 19.2-6.4 38.4-6.4 57.6 0 33.6 6.4 65.6 19.2 96h-392v-153.6zM206.4 254.4h75.2v-75.2h-75.2v75.2zM929.6 243.2c3.2 3.2 3.2 6.4 1.6 11.2l-35.2 60.8c-1.6 3.2-6.4 4.8-11.2 3.2l-41.6-17.6c-9.6 8-19.2 12.8-28.8 17.6l-6.4 46.4c0 1.6-1.6 3.2-3.2 4.8s-3.2 1.6-6.4 1.6h-68.8c-3.2 0-4.8 0-6.4-1.6-3.2-1.6-3.2-3.2-4.8-6.4l-6.4-46.4c-11.2-4.8-20.8-11.2-28.8-17.6l-43.2 19.2c-4.8 1.6-8 0-11.2-3.2l-12.8-22.4-22.4-38.4c-1.6-4.8-1.6-8 1.6-11.2l36.8-28.8c-1.6-4.8-1.6-11.2-1.6-17.6s0-11.2 1.6-17.6l-36.8-27.2c-3.2-3.2-3.2-6.4-1.6-11.2l1.6-1.6 33.6-59.2c1.6-4.8 6.4-6.4 11.2-4.8l41.6 17.6c9.6-8 19.2-12.8 28.8-16l6.4-48c1.6-4.8 4.8-6.4 9.6-6.4h68.8c4.8 0 8 1.6 9.6 6.4l6.4 48c11.2 4.8 20.8 9.6 28.8 16l41.6-17.6c4.8-1.6 9.6 0 11.2 4.8l33.6 60.8c1.6 4.8 1.6 8-1.6 11.2l-33.6 25.6-3.2 3.2c1.6 8 1.6 12.8 1.6 17.6 0 6.4 0 11.2-1.6 16l3.2 3.2 38.4 25.6zM814.4 196.8c0-14.4-4.8-27.2-16-36.8-9.6-9.6-22.4-14.4-36.8-14.4s-25.6 4.8-36.8 14.4c-9.6 9.6-16 22.4-16 36.8s4.8 27.2 16 36.8c9.6 9.6 22.4 16 36.8 16s25.6-4.8 36.8-16c11.2-9.6 16-22.4 16-36.8z" />
<glyph unicode="&#xe95d;" glyph-name="menu-icons_new-counter" d="M220.8 56h582.4v145.6h-339.2l241.6 243.2-241.6 243.2h339.2v145.6h-582.4v-97.6l316.8-291.2-316.8-291.2z" />
<glyph unicode="&#xe95e;" glyph-name="menu-icons_new-filesystem" d="M459.2 209.6c4.8 139.2 120 249.6 260.8 249.6 43.2 0 84.8-11.2 121.6-30.4v192l-262.4 265.6h-395.2v-875.2h352c-20.8 19.2-36.8 43.2-49.6 68.8-75.2 0-150.4 0-230.4 0 51.2 70.4 91.2 124.8 136 185.6 24-20.8 43.2-36.8 67.2-56zM536 819.2l240-240h-240v240zM326.4 403.2c-1.6 35.2 27.2 62.4 62.4 62.4s62.4-28.8 62.4-62.4c0-35.2-28.8-62.4-62.4-62.4s-62.4 28.8-62.4 62.4zM667.2 25.6h105.6v120h120v104h-120v120h-105.6v-120h-120v-104h120v-67.2z" />
<glyph unicode="&#xe95f;" glyph-name="menu-icons_new-time-series" d="M204.8 158.4c80-80 177.6-120 291.2-120s209.6 40 291.2 120c80 80 120 176 120 289.6s-40 209.6-120 289.6c-80 80-177.6 120-291.2 120s-211.2-40-291.2-120c-80-80-120-176-120-289.6s40-209.6 120-289.6zM264 681.6c64 64 140.8 96 232 96s168-32 232-96c64-64 96-142.4 96-233.6s-32-168-96-233.6c-64-64-140.8-96-232-96s-168 32-232 96c-64 64-96 142.4-96 233.6s32 168 96 233.6zM536 716.8h-80v-244.8h-140.8v-80h220.8z" />
<glyph unicode="&#xe960;" glyph-name="menu-icons_periodic-export-56" d="M854.4 777.6c0 20.8-14.4 38.4-44.8 56s-72 30.4-123.2 41.6c-54.4 9.6-110.4 14.4-171.2 14.4s-118.4-4.8-169.6-14.4c-52.8-9.6-92.8-24-123.2-41.6s-44.8-35.2-44.8-56v-57.6c0-20.8 14.4-38.4 44.8-56 25.6-14.4 59.2-27.2 100.8-36.8 8 32 25.6 60.8 51.2 86.4 38.4 38.4 84.8 57.6 139.2 57.6s100.8-19.2 139.2-57.6c25.6-25.6 43.2-54.4 51.2-88 43.2 9.6 78.4 22.4 105.6 36.8 30.4 17.6 44.8 35.2 44.8 56v59.2zM854.4 457.6c-35.2-24-83.2-43.2-144-56-17.6-3.2-35.2-6.4-52.8-9.6v-67.2h43.2c19.2 0 38.4-9.6 49.6-24 22.4 6.4 41.6 14.4 57.6 24 30.4 17.6 44.8 36.8 44.8 56v76.8zM854.4 214.4v75.2c-24-17.6-54.4-30.4-89.6-41.6-3.2-11.2-8-20.8-16-30.4l-105.6-107.2c14.4 1.6 28.8 4.8 43.2 6.4 52.8 9.6 92.8 24 123.2 41.6 28.8 17.6 44.8 36.8 44.8 56zM344 454.4c4.8-1.6 9.6-1.6 12.8-1.6-28.8 33.6-43.2 73.6-43.2 120-59.2 12.8-105.6 30.4-139.2 54.4v-75.2c0-20.8 14.4-38.4 44.8-56 32-17.6 73.6-30.4 124.8-41.6zM174.4 214.4c0-20.8 14.4-38.4 44.8-56s72-30.4 123.2-41.6c12.8-3.2 25.6-4.8 40-6.4l-105.6 105.6c-9.6 9.6-14.4 19.2-17.6 32-33.6 11.2-62.4 24-84.8 40v-73.6zM854.4 627.2c-35.2-24-83.2-43.2-144-56 0 0-1.6 0-1.6 0-1.6-44.8-16-84.8-43.2-118.4 6.4 1.6 12.8 1.6 19.2 3.2 52.8 9.6 92.8 24 123.2 41.6s44.8 35.2 44.8 56v73.6zM174.4 384c0-20.8 14.4-38.4 44.8-56 14.4-8 33.6-16 52.8-22.4 11.2 14.4 30.4 22.4 48 22.4h48v67.2c-16 3.2-32 4.8-48 8-60.8 12.8-108.8 30.4-144 56v-75.2zM321.6 46.4h380.8v-54.4h-380.8v54.4zM358.4 227.2l153.6-153.6 30.4 30.4 121.6 123.2 36.8 36.8h-107.2v132.8c-11.2-4.8-22.4-9.6-33.6-11.2-16-3.2-32-6.4-48-6.4-17.6 0-33.6 1.6-49.6 6.4-11.2 3.2-20.8 6.4-32 11.2v-131.2h-108.8l36.8-38.4zM531.2 552v153.6h-38.4v-118.4h-67.2v-38.4h105.6z" />
<glyph unicode="&#xe961;" glyph-name="menu-icons_replication-58" d="M432 681.6c16 9.6 33.6 16 54.4 22.4-35.2 6.4-73.6 9.6-115.2 9.6-44.8 0-86.4-3.2-123.2-11.2-38.4-8-67.2-17.6-89.6-30.4s-33.6-25.6-33.6-41.6v-41.6c0-14.4 11.2-28.8 33.6-41.6s51.2-22.4 89.6-30.4c38.4-8 78.4-11.2 123.2-11.2 1.6 0 3.2 0 4.8 0v91.2c0 25.6 9.6 57.6 56 84.8zM248 396.8c38.4-8 78.4-11.2 123.2-11.2 1.6 0 3.2 0 4.8 0v81.6c-1.6 0-3.2 0-4.8 0-51.2 0-97.6 4.8-142.4 14.4s-78.4 22.4-104 40v-54.4c0-14.4 11.2-28.8 33.6-41.6 22.4-11.2 51.2-22.4 89.6-28.8zM124.8 220.8c0-14.4 11.2-28.8 33.6-41.6s51.2-22.4 89.6-30.4c38.4-8 78.4-11.2 123.2-11.2 8 0 14.4 0 22.4 0-14.4 17.6-17.6 35.2-17.6 49.6v32c-1.6 0-3.2 0-4.8 0-51.2 0-97.6 4.8-142.4 14.4s-78.4 22.4-104 40v-52.8zM124.8 344c0-14.4 11.2-28.8 33.6-41.6s51.2-22.4 89.6-30.4c38.4-8 78.4-11.2 123.2-11.2 1.6 0 3.2 0 4.8 0v81.6c-1.6 0-3.2 0-4.8 0-51.2 0-97.6 4.8-142.4 14.4s-78.4 22.4-104 40v-52.8zM915.2 489.6c-19.2-12.8-43.2-24-73.6-33.6-9.6-3.2-20.8-4.8-32-8-11.2-1.6-22.4-4.8-33.6-6.4s-22.4-3.2-35.2-4.8c-24-1.6-48-3.2-73.6-3.2v0c-12.8 0-25.6 0-36.8 1.6-9.6 0-19.2 1.6-28.8 1.6-25.6 1.6-51.2 6.4-75.2 11.2-22.4 4.8-41.6 9.6-59.2 17.6-4.8 1.6-8 3.2-12.8 6.4-11.2 4.8-22.4 11.2-32 17.6v-54.4c0-3.2 0-8 1.6-11.2 1.6-4.8 6.4-11.2 11.2-16 3.2-3.2 8-6.4 12.8-9.6 3.2-1.6 4.8-3.2 8-4.8 1.6-1.6 4.8-1.6 6.4-3.2 16-8 33.6-14.4 56-20.8 8-1.6 16-3.2 24-4.8 1.6 0 1.6 0 3.2 0 19.2-3.2 38.4-6.4 59.2-8 4.8 0 9.6 0 12.8-1.6 16-1.6 33.6-1.6 51.2-1.6 11.2 0 22.4 0 32 0 16 0 32 1.6 46.4 3.2s30.4 3.2 44.8 6.4c24 4.8 43.2 9.6 60.8 17.6 11.2 3.2 20.8 8 28.8 12.8 3.2 1.6 4.8 3.2 8 4.8s4.8 3.2 6.4 4.8c4.8 3.2 8 6.4 9.6 9.6 3.2 3.2 4.8 6.4 6.4 11.2s1.6 6.4 1.6 11.2v54.4zM915.2 600c0 3.2 0 8-1.6 11.2s-3.2 6.4-6.4 11.2c-3.2 3.2-6.4 6.4-9.6 9.6-1.6 1.6-4.8 3.2-6.4 4.8-3.2 1.6-4.8 3.2-8 4.8-8 4.8-17.6 9.6-28.8 12.8-17.6 6.4-38.4 12.8-60.8 17.6-14.4 3.2-28.8 4.8-44.8 6.4-14.4 1.6-30.4 3.2-46.4 3.2-11.2 0-22.4 0-32 0-22.4 0-43.2-1.6-64-3.2-9.6-1.6-17.6-1.6-25.6-3.2-11.2-1.6-22.4-3.2-33.6-4.8-9.6-1.6-19.2-3.2-27.2-6.4-25.6-6.4-46.4-14.4-62.4-24-3.2-1.6-4.8-3.2-8-4.8-4.8-3.2-9.6-6.4-12.8-9.6-4.8-4.8-8-9.6-11.2-16-1.6-3.2-1.6-6.4-1.6-11.2v-41.6c0-3.2 0-8 1.6-11.2 1.6-4.8 6.4-11.2 11.2-16 3.2-3.2 8-6.4 12.8-9.6 3.2-1.6 4.8-3.2 8-4.8 1.6-1.6 4.8-1.6 6.4-3.2 16-8 33.6-14.4 56-20.8 8-1.6 16-3.2 24-4.8 1.6 0 1.6 0 3.2 0 19.2-3.2 38.4-6.4 59.2-8 4.8 0 9.6 0 12.8-1.6 16-1.6 33.6-1.6 51.2-1.6 11.2 0 22.4 0 32 0 16 0 32 1.6 46.4 3.2s30.4 3.2 44.8 6.4c24 4.8 43.2 9.6 60.8 17.6 11.2 3.2 20.8 8 28.8 12.8 3.2 1.6 4.8 3.2 8 4.8s4.8 3.2 6.4 4.8c4.8 3.2 8 6.4 9.6 9.6 3.2 3.2 4.8 6.4 6.4 11.2s1.6 6.4 1.6 11.2v43.2zM915.2 366.4c-19.2-12.8-43.2-24-73.6-33.6-9.6-3.2-20.8-4.8-32-8s-22.4-4.8-33.6-6.4c-11.2-1.6-22.4-3.2-35.2-4.8-24-1.6-48-3.2-73.6-3.2v0c-12.8 0-25.6 0-36.8 1.6-9.6 0-19.2 1.6-28.8 1.6-25.6 1.6-51.2 6.4-75.2 11.2-22.4 4.8-41.6 9.6-59.2 17.6-4.8 1.6-8 3.2-12.8 6.4-11.2 4.8-22.4 11.2-32 17.6v-54.4c0-3.2 0-8 1.6-11.2 1.6-4.8 6.4-11.2 11.2-16 3.2-3.2 8-6.4 12.8-9.6 3.2-1.6 4.8-3.2 8-4.8 1.6-1.6 4.8-1.6 6.4-3.2 16-8 33.6-14.4 56-20.8 8-1.6 16-3.2 24-4.8 1.6 0 1.6 0 3.2 0 19.2-3.2 38.4-6.4 59.2-8 4.8 0 9.6 0 12.8-1.6 16-1.6 33.6-1.6 51.2-1.6 11.2 0 22.4 0 32 0 16 0 32 1.6 46.4 3.2s30.4 3.2 44.8 6.4c24 4.8 43.2 9.6 60.8 17.6 11.2 3.2 20.8 8 28.8 12.8 3.2 1.6 4.8 3.2 8 4.8s4.8 3.2 6.4 4.8c4.8 3.2 8 6.4 9.6 9.6 3.2 3.2 4.8 6.4 6.4 11.2 1.6 3.2 1.6 6.4 1.6 11.2v54.4zM435.2 163.2c3.2-3.2 8-6.4 12.8-9.6 3.2-1.6 4.8-3.2 8-4.8 1.6-1.6 4.8-1.6 6.4-3.2 16-8 33.6-14.4 56-20.8 8-1.6 17.6-4.8 27.2-6.4 19.2-3.2 38.4-6.4 59.2-8s41.6-3.2 64-3.2c11.2 0 22.4 0 32 0 16 0 32 1.6 46.4 3.2s30.4 3.2 44.8 6.4c24 4.8 43.2 9.6 60.8 17.6 11.2 3.2 20.8 8 28.8 12.8 3.2 1.6 4.8 3.2 8 4.8s4.8 3.2 6.4 4.8c4.8 3.2 8 6.4 9.6 9.6 3.2 3.2 4.8 6.4 6.4 11.2 1.6 3.2 1.6 6.4 1.6 11.2v54.4c-19.2-12.8-43.2-24-73.6-33.6-9.6-3.2-20.8-4.8-32-8s-22.4-4.8-33.6-6.4c-11.2-1.6-22.4-3.2-35.2-4.8-24-1.6-48-3.2-73.6-3.2v0c-12.8 0-25.6 0-36.8 1.6-9.6 0-19.2 1.6-28.8 1.6-25.6 1.6-51.2 6.4-75.2 11.2-22.4 4.8-41.6 9.6-59.2 17.6-4.8 1.6-8 3.2-12.8 6.4-11.2 4.8-22.4 11.2-32 17.6v-54.4c0-3.2 0-8 1.6-11.2 4.8-4.8 8-9.6 12.8-14.4z" />
<glyph unicode="&#xe962;" glyph-name="menu-icons_dasboard" d="M790.4 689.6h-556.8c-19.2 0-36.8-6.4-49.6-20.8s-20.8-30.4-20.8-48v-348.8c0-19.2 6.4-35.2 20.8-48 12.8-14.4 30.4-20.8 49.6-20.8h555.2c19.2 0 36.8 6.4 49.6 20.8 12.8 12.8 20.8 28.8 20.8 48v348.8c0 19.2-6.4 35.2-20.8 48-12.8 12.8-28.8 20.8-48 20.8zM476.8 584h70.4v-68.8h-70.4v68.8zM476.8 480h70.4v-68.8h-70.4v68.8zM372.8 584h70.4v-68.8h-70.4v68.8zM372.8 480h70.4v-68.8h-70.4v68.8zM337.6 411.2h-70.4v68.8h70.4v-68.8zM337.6 516.8h-70.4v68.8h70.4v-68.8zM651.2 272h-278.4v70.4h278.4v-70.4zM651.2 411.2h-70.4v68.8h70.4v-68.8zM651.2 516.8h-70.4v68.8h70.4v-68.8zM755.2 411.2h-70.4v68.8h70.4v-68.8zM755.2 516.8h-70.4v68.8h70.4v-68.8z" />
<glyph unicode="&#xe963;" glyph-name="menu-icons_debug-45" d="M512 17.6c236.8 0 430.4 193.6 430.4 430.4s-193.6 430.4-430.4 430.4c-236.8 0-430.4-193.6-430.4-430.4s193.6-430.4 430.4-430.4zM512 806.4c196.8 0 358.4-160 358.4-358.4 0-84.8-30.4-163.2-80-225.6l-32 32 8 3.2c-19.2 41.6-54.4 62.4-78.4 73.6 8 19.2 12.8 38.4 16 59.2 19.2 1.6 49.6 1.6 76.8-14.4l25.6 40c-35.2 22.4-73.6 24-100.8 22.4-1.6 17.6-3.2 33.6-8 49.6 25.6 4.8 60.8 20.8 88 60.8l-40 27.2c-20.8-32-49.6-40-65.6-43.2-9.6 19.2-20.8 36.8-35.2 51.2 3.2 11.2 4.8 22.4 4.8 33.6 0 33.6-12.8 64-32 86.4l25.6 25.6-35.2 36.8-28.8-28.8c-19.2 11.2-41.6 17.6-67.2 17.6-24 0-46.4-6.4-67.2-17.6l-28.8 28.8-33.6-33.6 25.6-25.6c-16-19.2-27.2-44.8-30.4-72l-91.2 91.2c62.4 49.6 140.8 80 225.6 80zM512 707.2c48 0 86.4-38.4 88-84.8-27.2 16-57.6 24-88 24s-60.8-8-88-24c1.6 46.4 40 84.8 88 84.8zM235.2 675.2l120-120c-4.8-6.4-8-12.8-11.2-19.2-16 1.6-44.8 9.6-67.2 43.2l-40-27.2c27.2-41.6 64-56 89.6-62.4-4.8-16-6.4-32-8-49.6-25.6 1.6-67.2 0-102.4-22.4l25.6-40c27.2 16 59.2 17.6 78.4 14.4 3.2-20.8 8-40 14.4-59.2-25.6-11.2-60.8-32-80-73.6l43.2-19.2c12.8 30.4 41.6 44.8 59.2 51.2 35.2-52.8 91.2-88 153.6-88 52.8 0 99.2 24 134.4 62.4l92.8-92.8c-62.4-51.2-140.8-81.6-227.2-81.6-196.8 0-358.4 160-358.4 358.4 1.6 84.8 32 163.2 83.2 225.6z" />
<glyph unicode="&#xe964;" glyph-name="menu-icons_map-reduce-visualizer" d="M200 132.8v70.4h-70.4c0-19.2 6.4-36.8 20.8-49.6 12.8-14.4 30.4-20.8 49.6-20.8zM686.4 203.2h70.4v-70.4h-70.4v70.4zM825.6 132.8c19.2 0 35.2 6.4 48 20.8 12.8 12.8 20.8 30.4 20.8 49.6h-68.8v-70.4zM547.2 203.2h70.4v-70.4h-70.4v70.4zM825.6 480h68.8v-68.8h-68.8v68.8zM129.6 620.8h70.4v-70.4h-70.4v70.4zM129.6 480h70.4v-68.8h-70.4v68.8zM129.6 340.8h70.4v-70.4h-70.4v70.4zM200 758.4c-19.2 0-36.8-6.4-49.6-20.8-12.8-12.8-20.8-30.4-20.8-49.6h70.4v70.4zM825.6 758.4h-278.4v-208h347.2v139.2c0 19.2-6.4 36.8-20.8 49.6-12.8 12.8-28.8 19.2-48 19.2zM825.6 340.8h68.8v-70.4h-68.8v70.4zM408 203.2h68.8v-70.4h-68.8v70.4zM268.8 758.4h70.4v-70.4h-70.4v70.4zM268.8 203.2h70.4v-70.4h-70.4v70.4zM408 758.4h68.8v-70.4h-68.8v70.4z" />
<glyph unicode="&#xe965;" glyph-name="menu-icons_new-database" d="M342.4 238.4c36.8-6.4 75.2-11.2 116.8-14.4 4.8 40 17.6 78.4 38.4 110.4-64 1.6-123.2 6.4-179.2 19.2-60.8 12.8-107.2 30.4-142.4 56v-73.6c0-20.8 14.4-38.4 44.8-56 28.8-17.6 70.4-32 121.6-41.6zM545.6 392c46.4 41.6 107.2 67.2 174.4 67.2 28.8 0 56-4.8 81.6-12.8 0 0 1.6 0 1.6 1.6 30.4 17.6 44.8 35.2 44.8 56v75.2c-35.2-24-81.6-43.2-142.4-56s-124.8-19.2-193.6-19.2c-68.8 0-134.4 6.4-193.6 19.2-60.8 12.8-107.2 30.4-142.4 56v-75.2c0-20.8 14.4-38.4 44.8-56s70.4-30.4 123.2-41.6c51.2-9.6 108.8-14.4 169.6-14.4 9.6 0 20.8 0 32 0zM174.4 166.4c0-20.8 14.4-38.4 44.8-56s70.4-30.4 123.2-41.6c48-9.6 100.8-14.4 156.8-14.4-22.4 33.6-36.8 72-40 113.6-49.6 1.6-97.6 8-142.4 17.6-60.8 12.8-107.2 30.4-142.4 56v-75.2zM803.2 785.6c-30.4 17.6-70.4 30.4-123.2 41.6-51.2 9.6-107.2 14.4-168 14.4s-116.8-4.8-169.6-14.4c-51.2-9.6-92.8-24-123.2-41.6s-44.8-35.2-44.8-56v-57.6c0-20.8 14.4-38.4 44.8-56s70.4-30.4 123.2-41.6c52.8-9.6 108.8-14.4 169.6-14.4s116.8 4.8 169.6 14.4c51.2 9.6 92.8 24 123.2 41.6s44.8 35.2 44.8 56v56c0 20.8-16 40-46.4 57.6zM667.2 25.6h105.6v120h120v104h-120v120h-105.6v-120h-120v-104h120v-78.4z" />
<glyph unicode="&#xe966;" glyph-name="menu-icons_resources" d="M523.2 132.8h278.4v278.4h-278.4zM176 758.4v-278.4h278.4v278.4zM176 411.2h278.4v-278.4h-278.4v278.4zM651.2 804.8l-196.8-196.8 196.8-196.8 196.8 196.8z" />
<glyph unicode="&#xe967;" glyph-name="menu-icons_server" d="M129.6 368h766.4v153.6h-766.4v-153.6zM206.4 483.2h75.2v-75.2h-75.2v75.2zM129.6 139.2h766.4v153.6h-766.4v-153.6zM206.4 254.4h75.2v-75.2h-75.2v75.2zM129.6 598.4h766.4v153.6h-766.4v-153.6zM206.4 713.6h75.2v-75.2h-75.2v75.2z" />
<glyph unicode="&#xe968;" glyph-name="menu-icons_srorage" d="M766.4 662.4l-28.8 20.8h-475.2l-32-25.6-145.6-115.2-44.8-35.2v-294.4h944v300.8l-48 33.6-169.6 115.2zM676.8 315.2h-532.8v118.4h532.8v-118.4zM824 315.2c-33.6 0-60.8 27.2-60.8 60.8s27.2 60.8 60.8 60.8 60.8-27.2 60.8-60.8c0-35.2-27.2-60.8-60.8-60.8z" />
<glyph unicode="&#xe969;" glyph-name="menu-icons_user-info" d="M755.2 758.4h-486.4c-19.2 0-36.8-6.4-49.6-20.8-12.8-12.8-20.8-30.4-20.8-49.6v-486.4c0-19.2 6.4-36.8 20.8-49.6 12.8-12.8 30.4-20.8 49.6-20.8h486.4c19.2 0 36.8 6.4 49.6 20.8 12.8 12.8 20.8 30.4 20.8 49.6v488c0 19.2-6.4 36.8-20.8 49.6s-30.4 19.2-49.6 19.2zM438.4 624c20.8 20.8 44.8 30.4 73.6 30.4s54.4-9.6 73.6-30.4c20.8-20.8 30.4-44.8 30.4-73.6s-9.6-54.4-30.4-73.6c-20.8-20.8-44.8-30.4-73.6-30.4s-54.4 9.6-73.6 30.4c-20.8 20.8-30.4 44.8-30.4 73.6s9.6 54.4 30.4 73.6zM720 236.8h-416v35.2c0 22.4 12.8 41.6 38.4 59.2s54.4 30.4 84.8 36.8c32 8 59.2 11.2 84.8 11.2s52.8-3.2 84.8-11.2c32-8 60.8-20.8 84.8-36.8 25.6-17.6 38.4-36.8 38.4-59.2v-35.2z" />
<glyph unicode="&#xe96a;" glyph-name="menu-icons_alerts" d="M513.6 793.6l-384-660.8h764.8l-380.8 660.8zM547.2 236.8h-70.4v70.4h70.4v-70.4zM476.8 376v140.8h70.4v-140.8h-70.4z" />
<glyph unicode="&#xe96b;" glyph-name="menu-icons_index-errors" d="M809.6 542.4l12.8 128-124.8 27.2-67.2 110.4-116.8-51.2-118.4 51.2-65.6-110.4-124.8-27.2 11.2-126.4-84.8-97.6 84.8-96-11.2-128 124.8-28.8 65.6-108.8 118.4 51.2 116.8-51.2 67.2 110.4 124.8 27.2-12.8 128 84.8 96-84.8 96zM547.2 272h-70.4v70.4h70.4v-70.4zM547.2 411.2h-70.4v208h70.4v-208z" />
<glyph unicode="&#xe96c;" glyph-name="menu-icons_logs" d="M304 99.2l52.8 52.8 52.8-52.8 52.8 52.8 52.8-52.8 52.8 52.8 52.8-52.8 52.8 52.8 52.8-52.8 52.8 52.8 52.8-52.8v694.4l-52.8-52.8-59.2 52.8-52.8-52.8-52.8 52.8-52.8-52.8-49.6 52.8-52.8-52.8-52.8 52.8-52.8-52.8-49.6 52.8-52.8-52.8-52.8 52.8v-694.4l52.8 52.8 52.8-52.8zM304 620.8h416v-70.4h-416v70.4zM304 480h416v-68.8h-416v68.8zM304 340.8h416v-68.8h-416v68.8z" />
<glyph unicode="&#xe96d;" glyph-name="menu-icons_replication-stats" d="M163.2 166.4c0-19.2 6.4-35.2 20.8-48 12.8-12.8 30.4-20.8 49.6-20.8h486.4v68.8h-486.4v488h-70.4v-488zM860.8 724.8c0 19.2-6.4 35.2-20.8 48-12.8 12.8-30.4 20.8-49.6 20.8h-417.6c-19.2 0-36.8-6.4-49.6-20.8s-20.8-30.4-20.8-48v-417.6c0-19.2 6.4-36.8 20.8-49.6 12.8-12.8 30.4-20.8 49.6-20.8h417.6c19.2 0 36.8 6.4 49.6 20.8 12.8 12.8 20.8 30.4 20.8 49.6v417.6zM616 340.8h-208v70.4h208v-70.4zM755.2 480h-348.8v70.4h348.8v-70.4zM755.2 620.8h-348.8v68.8h348.8v-68.8z" />
<glyph unicode="&#xe96e;" glyph-name="menu-icons_request-count" d="M904 172.8c0 11.2-3.2 19.2-9.6 24l-323.2 323.2c16 40 20.8 81.6 11.2 128-9.6 44.8-30.4 84.8-64 116.8-35.2 33.6-78.4 56-126.4 64-49.6 8-94.4 3.2-136-17.6l153.6-153.6-107.2-107.2-158.4 155.2c-22.4-43.2-28.8-89.6-19.2-137.6s30.4-89.6 65.6-126.4c33.6-33.6 72-54.4 116.8-64s88-6.4 129.6 11.2l323.2-323.2c6.4-8 14.4-11.2 24-11.2s17.6 3.2 25.6 11.2l81.6 81.6c8 6.4 12.8 16 12.8 25.6z" />
<glyph unicode="&#xe96f;" glyph-name="menu-icons_running-tasks" d="M513.6 198.4v123.2l-166.4-163.2 166.4-166.4v123.2c89.6 0 166.4 32 232 96 64 64 96 142.4 96 233.6 0 62.4-16 121.6-49.6 176l-59.2-59.2c19.2-36.8 28.8-75.2 28.8-115.2-1.6-68.8-25.6-126.4-73.6-174.4-48-49.6-107.2-73.6-174.4-73.6zM513.6 776c-91.2 0-169.6-32-233.6-96s-96-142.4-96-233.6c0-62.4 16-121.6 49.6-176l62.4 59.2c-19.2 35.2-28.8 75.2-28.8 115.2 0 68.8 24 126.4 72 174.4s105.6 72 174.4 72v-123.2l163.2 163.2-163.2 168v-123.2z" />
<glyph unicode="&#xe970;" glyph-name="menu-icons_sql-replication-stats" d="M790.4 236.8c19.2 0 36.8 6.4 49.6 20.8 12.8 12.8 20.8 30.4 20.8 49.6v417.6c0 19.2-6.4 35.2-20.8 48-12.8 12.8-30.4 20.8-49.6 20.8h-417.6c-19.2 0-36.8-6.4-49.6-20.8s-20.8-30.4-20.8-48v-417.6c0-19.2 6.4-36.8 20.8-49.6 12.8-12.8 30.4-20.8 49.6-20.8h417.6zM406.4 550.4h140.8v139.2h68.8v-139.2h140.8v-70.4h-140.8v-139.2h-68.8v139.2h-140.8v70.4zM163.2 654.4v-488c0-19.2 6.4-35.2 20.8-48 12.8-12.8 30.4-20.8 49.6-20.8h486.4v68.8h-486.4v488h-70.4z" />
<glyph unicode="&#xe971;" glyph-name="menu-icons_stats-36" d="M782.4 796.8h-540.8c-22.4 0-40-8-56-22.4-14.4-14.4-22.4-33.6-22.4-56v-542.4c0-22.4 8-40 22.4-56 14.4-14.4 33.6-22.4 56-22.4h542.4c22.4 0 40 8 56 22.4 14.4 14.4 22.4 33.6 22.4 56v542.4c0 22.4-8 40-22.4 56-17.6 14.4-35.2 22.4-57.6 22.4zM368 208h-96v336h96v-336zM558.4 208h-94.4v480h94.4v-480zM752 208h-96v192h96v-192z" />
<glyph unicode="&#xe972;" glyph-name="menu-icons_web-socket" d="M732.8 649.6h-176v-84.8h176c36.8 0 68.8-12.8 96-40s40-59.2 40-96-12.8-68.8-40-96c-27.2-27.2-59.2-40-96-40h-176v-84.8h176c60.8 0 112 22.4 155.2 65.6s65.6 96 65.6 155.2c0 60.8-22.4 112-65.6 155.2-43.2 44.8-96 65.6-155.2 65.6zM336 472h353.6v-86.4h-353.6v86.4zM136 585.6c-43.2-43.2-65.6-96-65.6-155.2 0-60.8 22.4-112 65.6-155.2s96-65.6 155.2-65.6h176v84.8h-176c-38.4 0-70.4 12.8-97.6 40-25.6 27.2-40 59.2-40 96s12.8 68.8 40 96c25.6 27.2 59.2 40 97.6 40h176v84.8h-176c-59.2-1.6-112-22.4-155.2-65.6z" />
<glyph unicode="&#xe973;" glyph-name="menu-icons_checkbox-on" d="M224 878.4h-16l-116.8-115.2v-16h132.8zM372.8 878.4h-113.6v-168h-168v-220.8h281.6zM651.2 510.4h132.8v132.8h-16l-116.8-116.8zM819.2 473.6h-168v-220.8h281.6v390.4h-113.6zM224 406.4h-16l-116.8-115.2v-16h132.8zM372.8 406.4h-113.6v-168h-168v-220.8h281.6zM577.6 531.2l-91.2 91.2c-12.8 12.8-32 12.8-44.8 0s-12.8-32 0-44.8l91.2-91.2c6.4-6.4 14.4-9.6 22.4-9.6s16 3.2 22.4 9.6c12.8 12.8 12.8 33.6 0 44.8zM577.6 409.6c-12.8 12.8-32 12.8-44.8 0l-91.2-91.2c-12.8-12.8-12.8-32 0-44.8 6.4-6.4 14.4-9.6 22.4-9.6s16 3.2 22.4 9.6l91.2 91.2c12.8 11.2 12.8 32 0 44.8z" />
<glyph unicode="&#xe974;" glyph-name="menu-icons_config" d="M188.8 441.6c33.6-33.6 72-54.4 116.8-64s88-6.4 129.6 11.2l323.2-323.2c6.4-8 14.4-11.2 24-11.2s17.6 3.2 25.6 11.2l81.6 81.6c9.6 6.4 12.8 16 12.8 25.6 0 11.2-3.2 19.2-9.6 24l-321.6 323.2c16 40 20.8 81.6 11.2 128-9.6 44.8-30.4 84.8-64 116.8-35.2 33.6-78.4 56-126.4 64-49.6 8-94.4 3.2-136-17.6l153.6-153.6-107.2-107.2-158.4 155.2c-22.4-43.2-28.8-89.6-19.2-137.6 8-48 30.4-91.2 64-126.4z" />
<glyph unicode="&#xe975;" glyph-name="menu-icons_data-subscriptions" d="M190.4 822.4v-283.2h291.2v227.2h-120v56h-171.2zM428.8 712v-118.4h-184v174.4h64v-57.6h120zM190.4 192h291.2v225.6h-120v57.6h-171.2v-283.2zM244.8 420.8h64v-57.6h120v-118.4h-184v176zM544 822.4v-283.2h291.2v227.2h-120v56h-171.2zM780.8 712v-118.4h-184v174.4h64v-57.6h120zM713.6 59.2c3.2-1.6 4.8-1.6 8-1.6s4.8 0 8 0c3.2 0 6.4 0 8 0 4.8 1.6 9.6 3.2 14.4 6.4 1.6 1.6 4.8 3.2 6.4 4.8 8 8 12.8 17.6 12.8 28.8h-83.2c0-8 1.6-16 6.4-22.4 1.6-1.6 3.2-4.8 4.8-6.4 4.8-4.8 9.6-8 14.4-9.6zM910.4 139.2l-43.2 43.2v116.8c0 16-3.2 32-8 46.4-3.2 6.4-4.8 14.4-9.6 20.8-3.2 6.4-8 12.8-12.8 19.2s-9.6 11.2-16 17.6c-11.2 9.6-24 17.6-38.4 24-6.4 3.2-14.4 4.8-22.4 6.4v14.4c0 9.6-3.2 17.6-9.6 22.4-6.4 6.4-12.8 9.6-22.4 9.6-4.8 0-8 0-12.8-1.6-1.6 0-3.2-1.6-4.8-3.2s-3.2-3.2-4.8-3.2c-1.6-1.6-3.2-3.2-4.8-4.8s-1.6-3.2-3.2-4.8-1.6-8-1.6-12.8v-14.4c-16-3.2-28.8-9.6-41.6-17.6s-24-17.6-33.6-30.4c-4.8-6.4-9.6-12.8-12.8-19.2-1.6-3.2-3.2-6.4-4.8-9.6-6.4-14.4-9.6-28.8-11.2-44.8 0-3.2 0-8 0-11.2v-116.8l-43.2-43.2v-20.8h360v17.6z" />
<glyph unicode="&#xe976;" glyph-name="menu-icons_identities" d="M755.2 132.8c19.2 0 36.8 6.4 49.6 20.8 12.8 12.8 20.8 30.4 20.8 49.6v486.4c0 19.2-6.4 36.8-20.8 49.6-12.8 12.8-30.4 20.8-49.6 20.8h-145.6c-8 20.8-20.8 36.8-38.4 51.2-17.6 12.8-38.4 19.2-59.2 19.2-22.4 0-41.6-6.4-59.2-19.2s-30.4-30.4-38.4-51.2h-145.6c-19.2 0-36.8-6.4-49.6-20.8-12.8-12.8-20.8-30.4-20.8-49.6v-486.4c0-19.2 6.4-36.8 20.8-49.6 12.8-12.8 30.4-20.8 49.6-20.8h486.4zM488 748.8c6.4 6.4 14.4 11.2 24 11.2s17.6-3.2 24-11.2c6.4-6.4 9.6-16 9.6-24 0-9.6-3.2-17.6-9.6-24s-14.4-11.2-24-11.2-17.6 3.2-24 11.2c-6.4 6.4-9.6 16-9.6 24s3.2 16 9.6 24zM438.4 588.8c20.8 20.8 44.8 30.4 73.6 30.4s54.4-9.6 73.6-30.4c20.8-20.8 30.4-44.8 30.4-73.6s-9.6-52.8-30.4-73.6c-20.8-20.8-44.8-30.4-73.6-30.4s-54.4 9.6-73.6 30.4c-20.8 20.8-30.4 44.8-30.4 73.6s9.6 52.8 30.4 73.6zM304 251.2c0 20.8 12.8 40 38.4 57.6s54.4 30.4 84.8 38.4c32 8 59.2 12.8 84.8 12.8s52.8-4.8 84.8-12.8c32-8 60.8-20.8 84.8-38.4 25.6-17.6 38.4-36.8 38.4-57.6v-49.6h-416v49.6z" />
<glyph unicode="&#xe977;" glyph-name="menu-icons_index-fields" d="M478.4 372.8h68.8v-70.4h-68.8v70.4zM616 512h70.4v-68.8h-70.4v68.8zM478.4 652.8h68.8v-70.4h-68.8v70.4zM337.6 512h70.4v-68.8h-70.4v68.8zM825.6 790.4h-627.2v-625.6h625.6v625.6zM755.2 235.2h-486.4v486.4h486.4v-486.4zM478.4 512h68.8v-68.8h-68.8v68.8z" />
<glyph unicode="&#xe978;" glyph-name="menu-icons_menu" d="M793.6 403.2h136v-182.4h-136v182.4zM158.4 764.8v-633.6h633.6v89.6h-136v182.4h136v361.6h-633.6zM248 675.2h227.2v-227.2h-227.2v227.2zM568 220.8h-136v182.4h136v-182.4zM704 448h-184v227.2h184v-227.2z" />
<glyph unicode="&#xe979;" glyph-name="menu-icons_metrics" d="M595.2 35.2c14.4-14.4 32-22.4 54.4-22.4 20.8 0 40 8 56 22.4l217.6 220.8c16 16 22.4 33.6 22.4 56 0 20.8-8 40-22.4 54.4l-492.8 492.8c-16 16-33.6 22.4-56 22.4-20.8 0-40-8-56-22.4l-217.6-219.2c-16-16-22.4-33.6-22.4-56 0-20.8 8-40 22.4-56l494.4-492.8zM374.4 803.2l54.4-54.4-108.8-108.8 56-56 108.8 108.8 56-56-108.8-108.8 54.4-54.4 108.8 108.8 56-56-108.8-108.8 56-56 108.8 108.8 54.4-54.4-108.8-108.8 51.2-51.2 108.8 108.8 56-56-219.2-217.6-492.8 494.4 217.6 217.6z" />
<glyph unicode="&#xe97a;" glyph-name="menu-icons_queries" d="M419.2 832c-155.2 0-281.6-124.8-281.6-280s126.4-281.6 281.6-281.6c54.4 0 105.6 16 148.8 43.2l249.6-249.6 67.2 67.2-244.8 246.4c38.4 48 60.8 108.8 60.8 174.4-1.6 155.2-126.4 280-281.6 280zM419.2 366.4c-102.4 0-185.6 83.2-185.6 185.6s83.2 184 185.6 184 185.6-83.2 185.6-185.6-83.2-184-185.6-184z" />
<glyph unicode="&#xe97b;" glyph-name="menu-icons_tasks-31" d="M211.2 598.4l46.4 48 155.2 155.2-51.2 49.6-152-153.6-78.4 76.8-49.6-49.6 81.6-80zM516.8 761.6h411.2v-73.6h-411.2v73.6zM211.2 326.4l46.4 48 155.2 156.8-51.2 49.6-152-155.2-78.4 78.4-49.6-51.2 81.6-80zM516.8 489.6h411.2v-73.6h-411.2v73.6zM211.2 56l46.4 48 155.2 155.2-51.2 49.6-152-153.6-78.4 76.8-49.6-51.2 81.6-78.4zM516.8 219.2h411.2v-73.6h-411.2v73.6z" />
<glyph unicode="&#xe97c;" glyph-name="menu-icons_changes" d="M566.4 83.2c14.4 14.4 22.4 33.6 22.4 54.4h-155.2c0-20.8 8-38.4 22.4-54.4 14.4-14.4 33.6-22.4 54.4-22.4 22.4 0 41.6 8 56 22.4zM553.6 819.2c-11.2 11.2-24 16-41.6 16-16 0-30.4-4.8-41.6-16s-17.6-25.6-17.6-41.6v-25.6c-56-12.8-102.4-43.2-137.6-88-36.8-44.8-54.4-97.6-54.4-156.8v-212.8l-78.4-78.4v-38.4h659.2v38.4l-78.4 78.4v211.2c0 59.2-17.6 112-54.4 156.8s-83.2 75.2-139.2 88v25.6c0 17.6-6.4 32-16 43.2z" />
<glyph unicode="&#xe97d;" glyph-name="menu-icons_collections-storage" d="M329.6 772.8h-105.6v49.6h-152v-249.6h257.6v200zM281.6 620.8h-161.6v153.6h56v-49.6h105.6v-104zM382.4 822.4v-249.6h257.6v200h-105.6v49.6h-152zM593.6 724.8v-104h-163.2v153.6h56v-49.6h107.2zM694.4 822.4v-249.6h257.6v200h-105.6v49.6h-152zM904 724.8v-104h-161.6v153.6h56v-49.6h105.6zM748.8 492.8l-25.6 19.2h-443.2l-30.4-24-136-107.2-41.6-33.6v-275.2h880v280l-44.8 32-158.4 108.8zM665.6 168h-497.6v110.4h497.6v-110.4zM803.2 168c-30.4 0-56 25.6-56 56s25.6 56 56 56c30.4 0 56-25.6 56-56s-24-56-56-56z" />
<glyph unicode="&#xe97e;" glyph-name="menu-icons_custom-functions" d="M296 324.8l24 198.4h124.8v62.4h-116.8l6.4 49.6c8 72 36.8 136 104 136 19.2 0 36.8-3.2 51.2-9.6l16 62.4c-14.4 8-36.8 14.4-67.2 14.4-131.2 0-174.4-112-187.2-208l-6.4-44.8h-96v-62.4h89.6l-22.4-192c-11.2-99.2-33.6-153.6-94.4-153.6-20.8 0-38.4 3.2-54.4 11.2l-16-60.8c16-9.6 43.2-16 76.8-16 112-1.6 152 84.8 168 212.8zM446.4 358.4v-8c0-72 14.4-134.4 41.6-184s59.2-81.6 97.6-96h1.6l17.6 44.8c-24 17.6-43.2 46.4-59.2 84.8s-22.4 89.6-22.4 150.4v9.6c0 62.4 8 112 22.4 150.4 16 38.4 35.2 67.2 59.2 84.8l-17.6 44.8h-1.6c-36.8-14.4-68.8-46.4-97.6-96-27.2-52.8-41.6-113.6-41.6-185.6zM672 345.6l-97.6-152h76.8l57.6 105.6 59.2-105.6h76.8l-97.6 152 94.4 148.8h-78.4l-54.4-104-56 104h-76.8zM873.6 508.8c16-38.4 24-89.6 24-150.4v-9.6c0-62.4-8-112-24-150.4s-35.2-67.2-59.2-84.8l17.6-44.8h1.6c38.4 14.4 72 46.4 100.8 99.2 28.8 51.2 43.2 112 43.2 182.4v8c0 68.8-14.4 129.6-43.2 180.8s-62.4 84.8-100.8 99.2h-1.6l-17.6-44.8c24-17.6 43.2-44.8 59.2-84.8z" />
<glyph unicode="&#xe97f;" glyph-name="menu-icons_debug-23" d="M512 17.6c236.8 0 430.4 193.6 430.4 430.4s-193.6 430.4-430.4 430.4c-236.8 0-430.4-193.6-430.4-430.4s193.6-430.4 430.4-430.4zM512 806.4c196.8 0 358.4-160 358.4-358.4 0-84.8-30.4-163.2-80-225.6l-32 32 8 3.2c-19.2 41.6-54.4 62.4-78.4 73.6 8 19.2 12.8 38.4 16 59.2 19.2 1.6 49.6 1.6 76.8-14.4l25.6 40c-35.2 22.4-73.6 24-100.8 22.4-1.6 17.6-3.2 33.6-8 49.6 25.6 4.8 60.8 20.8 88 60.8l-40 27.2c-20.8-32-49.6-40-65.6-43.2-9.6 19.2-20.8 36.8-35.2 51.2 3.2 11.2 4.8 22.4 4.8 33.6 0 33.6-12.8 64-32 86.4l25.6 25.6-35.2 36.8-28.8-28.8c-19.2 11.2-41.6 17.6-67.2 17.6-24 0-46.4-6.4-67.2-17.6l-28.8 28.8-33.6-33.6 25.6-25.6c-16-19.2-27.2-44.8-30.4-72l-91.2 91.2c62.4 49.6 140.8 80 225.6 80zM512 707.2c48 0 86.4-38.4 88-84.8-27.2 16-57.6 24-88 24s-60.8-8-88-24c1.6 46.4 40 84.8 88 84.8zM235.2 675.2l120-120c-4.8-6.4-8-12.8-11.2-19.2-16 1.6-44.8 9.6-67.2 43.2l-40-27.2c27.2-41.6 64-56 89.6-62.4-4.8-16-6.4-32-8-49.6-25.6 1.6-67.2 0-102.4-22.4l25.6-40c27.2 16 59.2 17.6 78.4 14.4 3.2-20.8 8-40 14.4-59.2-25.6-11.2-60.8-32-80-73.6l43.2-19.2c12.8 30.4 41.6 44.8 59.2 51.2 35.2-52.8 91.2-88 153.6-88 52.8 0 99.2 24 134.4 62.4l92.8-92.8c-62.4-51.2-140.8-81.6-227.2-81.6-196.8 0-358.4 160-358.4 358.4 1.6 84.8 32 163.2 83.2 225.6z" />
<glyph unicode="&#xe980;" glyph-name="menu-icons_index-batch-size" d="M348.4 589.819l41.936 68.128 54.502-33.549-41.936-68.128-54.502 33.549zM429.462 539.755l41.936 68.128 54.502-33.549-41.936-68.128-54.502 33.549zM774.4 451.2c-3.2 17.6-11.2 33.6-20.8 46.4l60.8 121.6c1.6 0 3.2 0 4.8 0 57.6 0 105.6 48 105.6 105.6s-48 105.6-105.6 105.6c-44.8 0-81.6-27.2-97.6-65.6h-419.2c-16 38.4-52.8 65.6-97.6 65.6-57.6 0-105.6-48-105.6-105.6s48-105.6 105.6-105.6c3.2 0 6.4 0 9.6 0l224-414.4c-14.4-17.6-22.4-40-22.4-65.6 0-57.6 48-105.6 105.6-105.6 17.6 0 33.6 4.8 48 11.2 44.8-48 107.2-78.4 179.2-78.4 134.4 0 241.6 108.8 241.6 241.6 0 126.4-94.4 230.4-216 243.2zM307.2 614.4l12.8-8 41.6 68.8-16 9.6h374.4c4.8-11.2 11.2-22.4 20.8-32l-57.6-115.2c-4.8 0-8 1.6-12.8 1.6-27.2 0-51.2-9.6-68.8-25.6l8 11.2-54.4 33.6-43.2-70.4 54.4-33.6 1.6 3.2c-1.6-8-3.2-17.6-3.2-27.2 0-17.6 4.8-35.2 12.8-51.2-36.8-36.8-60.8-83.2-68.8-136 0 0 0 0-1.6 0l-200 371.2zM748.8 17.6c-56 0-105.6 24-140.8 60.8-32 33.6-51.2 80-51.2 129.6 0 9.6 1.6 19.2 3.2 28.8 6.4 40 25.6 76.8 52.8 105.6 28.8 30.4 68.8 49.6 112 56v-204.8l177.6-102.4c-36.8-43.2-92.8-73.6-153.6-73.6zM924.8 134.4l-153.6 89.6v176c94.4-11.2 169.6-92.8 169.6-190.4 0-27.2-6.4-51.2-16-75.2z" />
<glyph unicode="&#xe981;" glyph-name="menu-icons_indexing" d="M204.8 617.6c3.2 0 6.4 0 9.6 0l224-414.4c-14.4-17.6-22.4-40-22.4-65.6 0-57.6 48-105.6 105.6-105.6s105.6 48 105.6 105.6-48 105.6-105.6 105.6c-4.8 0-9.6 0-14.4-1.6l-198.4 372.8 12.8-8 41.6 68.8-16 9.6h374.4c4.8-11.2 11.2-22.4 20.8-32l-57.6-115.2c-4.8 0-8 1.6-12.8 1.6-27.2 0-51.2-9.6-68.8-25.6l8 11.2-54.4 33.6-44.8-70.4 54.4-33.6 1.6 3.2c-1.6-8-3.2-17.6-3.2-27.2 0-57.6 48-105.6 105.6-105.6s105.6 48 105.6 105.6c0 24-8 48-22.4 65.6l60.8 121.6c1.6 0 3.2 0 4.8 0 57.6 0 105.6 48 105.6 105.6s-48 105.6-105.6 105.6c-44.8 0-81.6-27.2-97.6-65.6h-419.2c-16 38.4-52.8 65.6-97.6 65.6-57.6 0-105.6-48-105.6-105.6s48-105.6 105.6-105.6zM348.413 589.801l41.936 68.128 54.502-33.549-41.936-68.128-54.502 33.549zM429.472 539.731l41.936 68.128 54.502-33.549-41.936-68.128-54.502 33.549z" />
<glyph unicode="&#xe982;" glyph-name="menu-icons_index-stats" d="M497.192 589.755l54.502 33.549 41.936-68.128-54.502-33.549-41.936 68.128zM579.188 639.321l54.502 33.549 41.936-68.128-54.502-33.549-41.936 68.128zM920 448h-211.2l100.8 187.2c3.2 0 6.4 0 9.6 0 57.6 0 105.6 48 105.6 105.6s-48 105.6-105.6 105.6c-44.8 0-81.6-27.2-97.6-65.6h-419.2c-16 38.4-52.8 65.6-97.6 65.6-57.6 0-105.6-48-105.6-105.6s48-105.6 105.6-105.6c1.6 0 3.2 0 4.8 0l60.8-121.6c-14.4-17.6-22.4-40-22.4-65.6 0-57.6 48-105.6 105.6-105.6s105.6 48 105.6 105.6c0 9.6-1.6 17.6-3.2 27.2l1.6-3.2 54.4 33.6-41.6 68.8-54.4-35.2 8-11.2c-19.2 16-43.2 25.6-68.8 25.6-4.8 0-8 0-12.8-1.6l-57.6 115.2c8 9.6 16 19.2 20.8 32h374.4l-16-9.6 41.6-68.8 12.8 8-100.8-180.8h-84.8c-16 0-28.8-4.8-40-16s-16-24-16-40v-134.4c-46.4-11.2-81.6-52.8-81.6-102.4s35.2-91.2 81.6-102.4v-48c0-16 4.8-28.8 16-40s24-16 40-16h387.2c16 0 28.8 4.8 40 16s16 24 16 40v387.2c0 16-4.8 28.8-16 40s-24 16-40 16zM641.6 27.2h-86.4v240h86.4v-240zM771.2 27.2h-83.2v342.4h83.2v-342.4zM904 27.2h-86.4v137.6h86.4v-137.6z" />
<glyph unicode="&#xe983;" glyph-name="menu-icons_prefetches" d="M851.2 828.8c-44.8 0-81.6-27.2-97.6-65.6h-25.6v-80h25.6c4.8-11.2 11.2-22.4 20.8-32v0l-28.8-57.6 72-36.8 28.8 57.6-4.8 3.2c3.2 0 8 0 11.2 0 57.6 0 105.6 48 105.6 105.6s-49.6 105.6-107.2 105.6zM659.2 140.8c0-58.321-47.279-105.6-105.6-105.6s-105.6 47.279-105.6 105.6c0 58.321 47.279 105.6 105.6 105.6s105.6-47.279 105.6-105.6zM438.4 763.2h64v-80h-64v80zM534.4 763.2h64v-80h-64v80zM630.4 763.2h64v-80h-64v80zM340.23 444.055l70.368 38.064 30.451-56.294-70.368-38.064-30.451 56.294zM386.718 359.641l70.368 38.064 30.451-56.294-70.368-38.064-30.451 56.294zM295.15 529.228l70.368 38.064 30.451-56.294-70.368-38.064-30.451 56.294zM431.038 275.867l70.368 38.064 30.451-56.294-70.368-38.064-30.451 56.294zM729.6 566.4l-14.4-30.4c-4.8 0-8 1.6-12.8 1.6-27.2 0-51.2-9.6-70.4-25.6l8 11.2-54.4 33.6-41.6-68.8 54.4-33.6 1.6 3.2c-1.6-8-3.2-17.6-3.2-27.2 0-57.6 48-105.6 105.6-105.6s105.6 48 105.6 105.6c0 24-8 48-22.4 65.6l16 33.6-72 36.8zM461.494 539.731l41.928 68.136 54.509-33.542-41.928-68.136-54.509 33.542zM380.404 589.795l41.92 68.136 54.509-33.536-41.92-68.136-54.509 33.536zM236.8 553.6c14.4 0 27.2 1.6 41.6 4.8l1.6-3.2 11.2 6.4c19.2 6.4 36.8 16 51.2 28.8l8 4.8-1.6 1.6c25.6 22.4 44.8 52.8 52.8 86.4h4.8v36.8c0 1.6 0 1.6 0 3.2s0 1.6 0 3.2v36.8h-4.8c-17.6 75.2-84.8 129.6-164.8 129.6-92.8 0-169.6-75.2-169.6-169.6 0-92.8 76.8-169.6 169.6-169.6zM236.8 828.8c57.6 0 104-46.4 105.6-102.4 0-1.6 0-1.6 0-3.2s0-1.6 0-3.2c0-4.8 0-9.6-1.6-14.4-4.8-24-16-46.4-35.2-62.4-1.6-1.6-4.8-4.8-8-6.4-9.6-8-20.8-12.8-33.6-16-9.6-3.2-19.2-3.2-28.8-3.2-57.6 0-105.6 48-105.6 105.6s49.6 105.6 107.2 105.6z" />
<glyph unicode="&#xe984;" glyph-name="menu-icons_stats-20" d="M782.4 796.8h-540.8c-22.4 0-40-8-56-22.4-14.4-14.4-22.4-33.6-22.4-56v-542.4c0-22.4 8-40 22.4-56 14.4-14.4 33.6-22.4 56-22.4h542.4c22.4 0 40 8 56 22.4 14.4 14.4 22.4 33.6 22.4 56v542.4c0 22.4-8 40-22.4 56-17.6 14.4-35.2 22.4-57.6 22.4zM368 208h-96v336h96v-336zM558.4 208h-94.4v480h94.4v-480zM752 208h-96v192h96v-192z" />
<glyph unicode="&#xe985;" glyph-name="menu-icons_storage" d="M868.8 212.8h115.2v300.8l-48 33.6-169.6 115.2-28.8 20.8h-475.2l-32-25.6-145.6-115.2-44.8-35.2v-294.4h828.8zM824 435.2c33.6 0 60.8-27.2 60.8-60.8s-27.2-60.8-60.8-60.8c-33.6 0-60.8 27.2-60.8 60.8 1.6 33.6 28.8 60.8 60.8 60.8zM144 433.6h532.8v-118.4h-532.8v118.4z" />
<glyph unicode="&#xe986;" glyph-name="menu-icons_studio-config-15" d="M188.8 441.6c33.6-33.6 72-54.4 116.8-64s88-6.4 129.6 11.2l323.2-323.2c6.4-8 14.4-11.2 24-11.2s17.6 3.2 25.6 11.2l81.6 81.6c9.6 6.4 12.8 16 12.8 25.6 0 11.2-3.2 19.2-9.6 24l-321.6 323.2c16 40 20.8 81.6 11.2 128-9.6 44.8-30.4 84.8-64 116.8-35.2 33.6-78.4 56-126.4 64-49.6 8-94.4 3.2-136-17.6l153.6-153.6-107.2-107.2-158.4 155.2c-22.4-43.2-28.8-89.6-19.2-137.6 8-48 30.4-91.2 64-126.4z" />
<glyph unicode="&#xe987;" glyph-name="menu-icons_create-sample-data" d="M177.6 307.2h195.2v-195.2h-195.2v195.2zM414.4 307.2h195.2v-195.2h-195.2v195.2zM177.6 782.4h195.2v-432h-195.2v432zM414.4 545.6h195.2v-195.2h-195.2v195.2zM414.4 782.4h432v-195.2h-432v195.2zM652.8 545.6h195.2v-195.2h-195.2v195.2z" />
<glyph unicode="&#xe988;" glyph-name="menu-icons_csv-import" d="M841.6 387.2c-1.6 0-1.6 0-3.2 0h-64v-315.2h-524.8v747.2h254.4c0 3.2-1.6 8-1.6 11.2v54.4h-320v-875.2h657.6v377.6zM675.2 451.2h163.2v161.6h108.8l-190.4 190.4-188.8-190.4h107.2zM947.2 830.4v54.4h-379.2v-54.4h65.6zM296 150.4h35.2v-32h-35.2v32zM392 265.6c4.8 6.4 11.2 9.6 19.2 9.6 9.6 0 16-3.2 19.2-8s4.8-14.4 4.8-25.6h35.2c0 20.8-4.8 35.2-16 46.4-9.6 11.2-24 16-44.8 16-17.6 0-33.6-6.4-44.8-17.6s-16-28.8-16-49.6v-54.4c0-20.8 6.4-38.4 17.6-49.6s27.2-17.6 44.8-17.6 33.6 4.8 43.2 16c9.6 9.6 14.4 25.6 14.4 46.4v0h-35.2c0-12.8-1.6-20.8-4.8-25.6s-9.6-8-17.6-8c-9.6 0-16 3.2-20.8 9.6s-6.4 16-6.4 28.8v54.4c1.6 12.8 4.8 22.4 8 28.8zM483.2 252.8c0-16 4.8-27.2 14.4-35.2s24-16 43.2-22.4c9.6-4.8 16-8 19.2-12.8s4.8-9.6 4.8-17.6c0-6.4-1.6-12.8-4.8-16s-9.6-4.8-16-4.8c-9.6 0-17.6 3.2-22.4 8s-6.4 12.8-6.4 24h-35.2c0-19.2 6.4-33.6 19.2-43.2s27.2-16 44.8-16c17.6 0 32 4.8 41.6 12.8 11.2 9.6 16 20.8 16 36.8s-4.8 27.2-12.8 36.8c-8 9.6-22.4 16-40 22.4-11.2 4.8-19.2 9.6-22.4 12.8s-6.4 9.6-6.4 14.4c0 6.4 1.6 12.8 6.4 16 3.2 4.8 9.6 6.4 16 6.4 8 0 12.8-3.2 17.6-8s6.4-12.8 6.4-20.8h35.2c0 16-4.8 28.8-16 40s-25.6 16-43.2 16c-17.6 0-32-4.8-43.2-14.4s-16-19.2-16-35.2zM673.6 156.8v0l-1.6 8-30.4 136h-38.4l51.2-182.4h38.4l51.2 182.4h-38.4l-30.4-136z" />
<glyph unicode="&#xe989;" glyph-name="menu-icons_database-settings" d="M724.8 251.2c-4.8 0-9.6-1.6-14.4-6.4s-6.4-8-6.4-14.4c0-6.4 1.6-9.6 6.4-14.4 1.6-1.6 3.2-3.2 4.8-3.2 9.6 3.2 19.2 8 28.8 12.8 0 1.6 0 3.2 0 6.4 0 6.4-1.6 9.6-6.4 14.4-4.8 3.2-8 4.8-12.8 4.8zM172.8 400c30.4-17.6 70.4-30.4 123.2-41.6 44.8-8 92.8-12.8 142.4-14.4l46.4 81.6 4.8 8 12.8 24c-12.8 0-25.6-1.6-40-1.6-68.8 0-134.4 6.4-193.6 19.2-60.8 12.8-107.2 30.4-142.4 56v-75.2c0-20.8 16-38.4 46.4-56zM172.8 232c30.4-17.6 70.4-30.4 123.2-41.6 33.6-6.4 70.4-11.2 108.8-12.8l43.2 33.6 25.6 19.2-70.4 52.8 3.2 4.8c-48 3.2-92.8 8-136 17.6-60.8 12.8-107.2 30.4-142.4 56v-73.6c-1.6-20.8 14.4-40 44.8-56zM600 465.6c-11.2-1.6-20.8-3.2-32-3.2v0l28.8-11.2 3.2 14.4zM172.8 62.4c30.4-17.6 70.4-30.4 123.2-41.6 51.2-9.6 108.8-14.4 169.6-14.4 12.8 0 25.6 0 38.4 0l-11.2 20.8-4.8 8-48 83.2c-59.2 1.6-115.2 8-166.4 17.6-60.8 12.8-107.2 30.4-142.4 56v-75.2c-4.8-17.6 11.2-36.8 41.6-54.4zM172.8 568c30.4-17.6 70.4-30.4 123.2-41.6 51.2-9.6 107.2-14.4 168-14.4 51.2 0 99.2 3.2 145.6 11.2l1.6 11.2h56c36.8 9.6 65.6 20.8 89.6 33.6 30.4 17.6 44.8 35.2 44.8 56v56c0 20.8-14.4 38.4-44.8 56s-70.4 30.4-123.2 41.6c-51.2 9.6-108.8 14.4-169.6 14.4s-116.8-4.8-169.6-14.4c-51.2-9.6-92.8-24-123.2-41.6s-44.8-35.2-44.8-56v-56c0-19.2 16-38.4 46.4-56zM790.4 427.2l-6.4 43.2h-116.8l-11.2-73.6c-12.8-6.4-27.2-14.4-40-24l-68.8 27.2-4.8-8-27.2-48-20.8-35.2-4.8-9.6 16-12.8 43.2-33.6c0-9.6-1.6-17.6-1.6-24s0-14.4 1.6-24l-43.2-28.8-19.2-16 4.8-9.6 19.2-32 30.4-51.2 4.8-8 68.8 27.2c12.8-9.6 25.6-17.6 40-24l9.6-73.6c0 0 4.8 0 11.2 0h96c8 0 11.2 0 11.2 0l11.2 73.6c12.8 6.4 27.2 14.4 40 24l68.8-27.2 4.8 8 48 83.2 4.8 9.6-56 48c1.6 9.6 1.6 17.6 1.6 24s0 14.4-1.6 24l59.2 46.4-59.2 100.8-68.8-27.2c-12.8 9.6-25.6 17.6-40 24l-4.8 27.2zM800 192c-3.2-8-9.6-14.4-16-20.8-16-16-36.8-24-59.2-24-8 0-14.4 1.6-20.8 3.2-14.4 3.2-27.2 11.2-38.4 22.4-6.4 6.4-12.8 14.4-16 22.4-4.8 11.2-8 24-8 36.8 0 24 8 43.2 24 59.2s36.8 24 59.2 24c22.4 0 43.2-8 59.2-24 6.4-6.4 9.6-12.8 14.4-19.2 6.4-12.8 11.2-25.6 11.2-41.6-1.6-12.8-4.8-25.6-9.6-38.4z" />
<glyph unicode="&#xe98a;" glyph-name="menu-icons_etl" d="M558.4 312h1.6v-179.2l315.2 313.6-315.2 316.8v-180.8l134.4-136zM321.6 312h140.8l136 134.4-134.4 136h-140.8l134.4-136zM217.6 312h3.2l134.4 134.4-134.4 136h-72v-270.4h19.2z" />
<glyph unicode="&#xe98b;" glyph-name="menu-icons_export-database" d="M220.8 280c30.4-17.6 70.4-30.4 123.2-41.6 51.2-9.6 107.2-14.4 168-14.4 22.4 0 43.2 1.6 64 1.6l-56 56c-14.4 14.4-20.8 35.2-17.6 54.4-65.6 0-128 6.4-185.6 19.2-60.8 12.8-107.2 30.4-142.4 56v-75.2c0-20.8 16-40 46.4-56zM220.8 448c30.4-17.6 70.4-30.4 123.2-41.6 51.2-9.6 108.8-14.4 169.6-14.4 33.6 0 67.2 1.6 99.2 4.8v92.8c0 6.4 1.6 12.8 3.2 19.2-32-3.2-67.2-4.8-102.4-4.8-68.8 0-134.4 6.4-193.6 19.2-60.8 12.8-107.2 30.4-142.4 56v-75.2c-3.2-20.8 12.8-38.4 43.2-56zM849.6 552v25.6c-12.8-9.6-27.2-17.6-44.8-25.6h32c4.8 1.6 8 1.6 12.8 0zM220.8 110.4c30.4-17.6 70.4-30.4 123.2-41.6 48-9.6 100.8-14.4 158.4-14.4v54.4c0 25.6 16 48 38.4 57.6-9.6 0-17.6 0-27.2 0-68.8 0-134.4 6.4-193.6 19.2-60.8 12.8-107.2 30.4-142.4 56v-75.2c-3.2-19.2 12.8-38.4 43.2-56zM220.8 616c30.4-17.6 70.4-30.4 123.2-41.6 51.2-9.6 107.2-14.4 168-14.4s116.8 4.8 169.6 14.4c51.2 9.6 92.8 24 123.2 41.6s44.8 35.2 44.8 56v56c0 20.8-14.4 38.4-44.8 56s-70.4 30.4-123.2 41.6c-52.8 11.2-108.8 16-169.6 16s-116.8-4.8-169.6-14.4c-51.2-9.6-92.8-24-123.2-41.6s-44.8-35.2-44.8-56v-57.6c0-19.2 16-38.4 46.4-56zM627.2 174.4h1.6c-1.6 0-1.6 0-1.6 0zM848 326.4h-11.2v163.2h-161.6v-163.2h-108.8l190.4-190.4 92.8 94.4 96 96zM945.6 110.4h-380.8v-56h380.8z" />
<glyph unicode="&#xe98c;" glyph-name="menu-icons_import-database" d="M172.8 232c30.4-17.6 70.4-30.4 123.2-41.6 51.2-9.6 107.2-14.4 168-14.4s116.8 4.8 169.6 14.4c51.2 9.6 92.8 24 123.2 41.6s44.8 36.8 44.8 56v8c-4.8-1.6-9.6-1.6-14.4-1.6h-163.2c-6.4 0-12.8 1.6-19.2 3.2-44.8-6.4-91.2-9.6-140.8-9.6-68.8 0-134.4 6.4-193.6 19.2-60.8 12.8-107.2 30.4-142.4 56v-75.2c-1.6-20.8 14.4-40 44.8-56zM172.8 400c30.4-17.6 70.4-30.4 123.2-41.6 51.2-9.6 108.8-14.4 169.6-14.4 33.6 0 65.6 1.6 97.6 4.8 0 3.2-1.6 6.4-1.6 9.6v99.2h-43.2c-1.6 0-1.6 0-3.2 0-16 0-32-1.6-48-1.6-68.8 0-134.4 6.4-193.6 19.2-60.8 12.8-107.2 30.4-142.4 56v-75.2c-4.8-20.8 11.2-38.4 41.6-56zM172.8 62.4c30.4-17.6 70.4-30.4 123.2-41.6 51.2-9.6 108.8-14.4 169.6-14.4s116.8 4.8 169.6 14.4c51.2 9.6 92.8 24 123.2 41.6s44.8 36.8 44.8 56v75.2c-35.2-24-81.6-43.2-142.4-56s-124.8-19.2-193.6-19.2c-68.8 0-134.4 6.4-193.6 19.2-60.8 12.8-107.2 30.4-142.4 56v-75.2c-4.8-19.2 11.2-38.4 41.6-56zM172.8 568c30.4-17.6 70.4-30.4 123.2-41.6 48-9.6 100.8-14.4 156.8-14.4-3.2 19.2 3.2 40 17.6 52.8l107.2 108.8h-62.4c-35.2 0-64 28.8-64 64v54.4c-56 0-108.8-4.8-156.8-14.4-51.2-9.6-92.8-24-123.2-41.6s-44.8-35.2-44.8-56v-56c0-19.2 16-38.4 46.4-56zM896 737.6v56h-380.8v-56h238.4zM624 358.4h163.2v163.2h107.2l-190.4 190.4-188.8-190.4h108.8v-52.8z" />
<glyph unicode="&#xe98d;" glyph-name="menu-icons_periodic-export-13" d="M496 38.4c12.8 0 25.6 0 36.8 1.6v54.4c0 9.6 3.2 19.2 6.4 28.8-14.4-1.6-28.8-3.2-43.2-3.2-91.2 0-168 32-232 96s-96 142.4-96 233.6c0 91.2 32 168 96 233.6 64 64 140.8 96 232 96s168-32 232-96c41.6-41.6 70.4-89.6 84.8-142.4h56c11.2 0 20.8-3.2 30.4-8-14.4 78.4-52.8 147.2-112 208-80 80-177.6 120-291.2 120s-211.2-40-291.2-120c-80-80-120-176-120-289.6s40-209.6 120-289.6c80-83.2 177.6-123.2 291.2-123.2zM651.2 158.4h8l-3.2 3.2c0-1.6-1.6-3.2-4.8-3.2zM456 472h-140.8v-80h220.8v324.8h-80zM868.8 310.4v163.2h-161.6v-163.2h-108.8l190.4-190.4 188.8 190.4h-92.8zM596.8 94.4v0-56h380.8v56h-273.6z" />
<glyph unicode="&#xe98e;" glyph-name="menu-icons_quotas" d="M336 528l-81.6 142.4c-116.8-76.8-195.2-206.4-204.8-353.6h163.2c9.6 88 56 163.2 123.2 211.2zM472 340.8c-32-24-36.8-70.4-12.8-102.4s70.4-36.8 102.4-12.8c19.2 14.4 123.2 129.6 204.8 219.2-9.6 14.4-19.2 28.8-30.4 41.6-107.2-57.6-244.8-131.2-264-145.6zM512 585.6c43.2 0 84.8-9.6 121.6-25.6l81.6 142.4c-62.4 30.4-131.2 48-204.8 48s-142.4-17.6-204.8-48l81.6-142.4c40 17.6 81.6 25.6 124.8 25.6zM769.6 670.4l-81.6-142.4c17.6-12.8 33.6-27.2 48-43.2 70.4 36.8 126.4 67.2 126.4 67.2s-43.2-48-96-107.2c24-38.4 40-81.6 44.8-128h163.2c-9.6 147.2-88 276.8-204.8 353.6z" />
<glyph unicode="&#xe98f;" glyph-name="menu-icons_replication-09" d="M158.4 179.2c22.4-12.8 51.2-22.4 89.6-30.4s78.4-11.2 123.2-11.2c8 0 14.4 0 22.4 0-14.4 17.6-17.6 35.2-17.6 49.6v32c-1.6 0-3.2 0-4.8 0-51.2 0-97.6 4.8-142.4 14.4s-78.4 22.4-104 40v-54.4c0-12.8 11.2-27.2 33.6-40zM158.4 548.8c22.4-12.8 51.2-22.4 89.6-30.4s78.4-11.2 123.2-11.2c1.6 0 3.2 0 4.8 0v91.2c0 22.4 9.6 54.4 56 81.6 16 9.6 33.6 16 54.4 22.4-35.2 6.4-73.6 9.6-115.2 9.6-44.8 0-86.4-3.2-123.2-11.2-38.4-8-67.2-17.6-89.6-30.4s-33.6-25.6-33.6-41.6v-41.6c0-11.2 11.2-25.6 33.6-38.4zM158.4 302.4c22.4-12.8 51.2-22.4 89.6-30.4s78.4-11.2 123.2-11.2c1.6 0 3.2 0 4.8 0v81.6c-1.6 0-3.2 0-4.8 0-51.2 0-97.6 4.8-142.4 14.4s-78.4 22.4-104 40v-54.4c0-12.8 11.2-27.2 33.6-40zM158.4 425.6c22.4-12.8 51.2-22.4 89.6-30.4s78.4-11.2 123.2-11.2c1.6 0 3.2 0 4.8 0v81.6c-1.6 0-3.2 0-4.8 0-51.2 0-97.6 4.8-142.4 14.4s-78.4 22.4-104 40v-54.4c0-12.8 11.2-27.2 33.6-40zM915.2 366.4c-19.2-12.8-43.2-24-73.6-33.6-9.6-3.2-20.8-4.8-32-8s-22.4-4.8-33.6-6.4c-11.2-1.6-22.4-3.2-35.2-4.8-24-1.6-48-3.2-73.6-3.2v0c-12.8 0-25.6 0-36.8 1.6-9.6 0-19.2 1.6-28.8 1.6-25.6 1.6-51.2 6.4-75.2 11.2-27.2 6.4-51.2 12.8-72 22.4-11.2 4.8-22.4 11.2-32 17.6v-54.4c0-14.4 11.2-28.8 33.6-41.6 1.6-1.6 4.8-1.6 6.4-3.2 16-8 33.6-14.4 56-20.8 8-1.6 16-3.2 24-4.8 1.6 0 1.6 0 3.2 0 19.2-3.2 38.4-6.4 59.2-8 4.8 0 9.6 0 12.8-1.6 16-1.6 33.6-1.6 51.2-1.6 11.2 0 22.4 0 32 0 16 0 32 1.6 46.4 3.2s30.4 3.2 44.8 6.4c24 4.8 43.2 9.6 60.8 17.6 11.2 3.2 20.8 8 28.8 12.8 3.2 1.6 4.8 3.2 8 4.8s4.8 3.2 6.4 4.8c4.8 3.2 8 6.4 9.6 9.6 3.2 3.2 4.8 6.4 6.4 11.2 1.6 3.2 1.6 6.4 1.6 11.2v56zM915.2 489.6c-19.2-12.8-43.2-24-73.6-33.6-9.6-3.2-20.8-4.8-32-8-11.2-1.6-22.4-4.8-33.6-6.4s-22.4-3.2-35.2-4.8c-24-1.6-48-3.2-73.6-3.2v0c-12.8 0-25.6 0-36.8 1.6-9.6 0-19.2 1.6-28.8 1.6-25.6 1.6-51.2 6.4-75.2 11.2-27.2 6.4-51.2 12.8-72 22.4-11.2 4.8-22.4 11.2-32 17.6v-54.4c0-14.4 11.2-28.8 33.6-41.6 1.6-1.6 4.8-1.6 6.4-3.2 16-8 33.6-14.4 56-20.8 8-1.6 16-3.2 24-4.8 1.6 0 1.6 0 3.2 0 19.2-3.2 38.4-6.4 59.2-8 4.8 0 9.6 0 12.8-1.6 16-1.6 33.6-1.6 51.2-1.6 11.2 0 22.4 0 32 0 16 0 32 1.6 46.4 3.2s30.4 3.2 44.8 6.4c24 4.8 43.2 9.6 60.8 17.6 11.2 3.2 20.8 8 28.8 12.8 3.2 1.6 4.8 3.2 8 4.8s4.8 3.2 6.4 4.8c4.8 3.2 8 6.4 9.6 9.6 3.2 3.2 4.8 6.4 6.4 11.2s1.6 6.4 1.6 11.2v56zM915.2 188.8v54.4c-19.2-12.8-43.2-24-73.6-33.6-9.6-3.2-20.8-4.8-32-8s-22.4-4.8-33.6-6.4c-11.2-1.6-22.4-3.2-35.2-4.8-24-1.6-48-3.2-73.6-3.2v0c-12.8 0-25.6 0-36.8 1.6-9.6 0-19.2 1.6-28.8 1.6-25.6 1.6-51.2 6.4-75.2 11.2-27.2 6.4-51.2 12.8-72 22.4-11.2 4.8-22.4 11.2-32 17.6v-54.4c0-14.4 11.2-28.8 33.6-41.6 1.6-1.6 4.8-1.6 6.4-3.2 16-8 33.6-14.4 56-20.8 8-1.6 17.6-4.8 27.2-6.4 19.2-3.2 38.4-6.4 59.2-8s41.6-3.2 64-3.2c11.2 0 22.4 0 32 0 16 0 32 1.6 46.4 3.2s30.4 3.2 44.8 6.4c24 4.8 43.2 9.6 60.8 17.6 11.2 3.2 20.8 8 28.8 12.8 3.2 1.6 4.8 3.2 8 4.8s4.8 3.2 6.4 4.8c4.8 3.2 8 6.4 9.6 9.6 3.2 3.2 4.8 6.4 6.4 11.2 3.2 8 3.2 11.2 3.2 14.4zM422.4 600v-41.6c0-14.4 11.2-28.8 33.6-41.6 1.6-1.6 4.8-1.6 6.4-3.2 16-8 33.6-14.4 56-20.8 8-1.6 16-3.2 24-4.8 1.6 0 1.6 0 3.2 0 19.2-3.2 38.4-6.4 59.2-8 4.8 0 9.6 0 12.8-1.6 16-1.6 33.6-1.6 51.2-1.6 11.2 0 22.4 0 32 0 16 0 32 1.6 46.4 3.2s30.4 3.2 44.8 6.4c24 4.8 43.2 9.6 60.8 17.6 11.2 3.2 20.8 8 28.8 12.8 3.2 1.6 4.8 3.2 8 4.8s4.8 3.2 6.4 4.8c4.8 3.2 8 6.4 9.6 9.6 3.2 3.2 4.8 6.4 6.4 11.2s1.6 6.4 1.6 11.2v41.6c0 3.2 0 8-1.6 11.2s-3.2 6.4-6.4 11.2c-3.2 3.2-6.4 6.4-9.6 9.6-1.6 1.6-4.8 3.2-6.4 4.8-3.2 1.6-4.8 3.2-8 4.8-8 4.8-17.6 9.6-28.8 12.8-17.6 6.4-38.4 12.8-60.8 17.6-14.4 3.2-28.8 4.8-44.8 6.4-14.4 1.6-30.4 3.2-46.4 3.2-11.2 0-22.4 0-32 0-22.4 0-43.2-1.6-64-3.2-9.6-1.6-17.6-1.6-25.6-3.2-11.2-1.6-22.4-3.2-33.6-4.8-9.6-1.6-19.2-3.2-27.2-6.4-25.6-6.4-46.4-14.4-62.4-24-22.4-11.2-33.6-25.6-33.6-40z" />
<glyph unicode="&#xe990;" glyph-name="menu-icons_settings" d="M137.6 321.6l78.4-134.4 8-12.8 112 44.8c20.8-16 41.6-28.8 65.6-38.4l17.6-118.4c0 0 6.4 0 17.6 0h153.6c12.8 0 17.6 0 17.6 0l17.6 118.4c22.4 9.6 43.2 22.4 65.6 38.4l112-44.8 8 12.8 78.4 134.4 8 14.4-96 73.6c3.2 14.4 3.2 27.2 3.2 38.4s-1.6 24-3.2 38.4l96 73.6-97.6 161.6-112-44.8c-20.8 16-41.6 28.8-65.6 38.4l-16 118.4h-188.8l-17.6-116.8c-22.4-9.6-43.2-22.4-65.6-38.4l-112 44.8-8-14.4-78.4-134.4-6.4-14.4 96-73.6c-1.6-14.4-1.6-27.2-1.6-38.4s0-24 1.6-38.4l-96-73.6 8-14.4zM417.6 544c27.2 27.2 57.6 40 94.4 40s68.8-12.8 94.4-40c27.2-27.2 40-59.2 40-96s-12.8-68.8-40-96c-27.2-27.2-57.6-40-94.4-40s-68.8 12.8-94.4 40c-27.2 27.2-40 59.2-40 96s12.8 68.8 40 96z" />
<glyph unicode="&#xe991;" glyph-name="menu-icons_sql-replication" d="M158.4 179.2c22.4-12.8 51.2-22.4 89.6-30.4s78.4-11.2 123.2-11.2c8 0 14.4 0 22.4 0-14.4 17.6-17.6 35.2-17.6 49.6v32c-1.6 0-3.2 0-4.8 0-51.2 0-97.6 4.8-142.4 14.4s-78.4 22.4-104 40v-54.4c0-12.8 11.2-27.2 33.6-40zM158.4 302.4c22.4-12.8 51.2-22.4 89.6-30.4s78.4-11.2 123.2-11.2c1.6 0 3.2 0 4.8 0v81.6c-1.6 0-3.2 0-4.8 0-51.2 0-97.6 4.8-142.4 14.4s-78.4 22.4-104 40v-54.4c0-12.8 11.2-27.2 33.6-40zM158.4 548.8c22.4-12.8 51.2-22.4 89.6-30.4s78.4-11.2 123.2-11.2c1.6 0 3.2 0 4.8 0v91.2c0 22.4 9.6 54.4 56 81.6 16 9.6 33.6 16 54.4 22.4-35.2 6.4-73.6 9.6-115.2 9.6-44.8 0-86.4-3.2-123.2-11.2-38.4-8-67.2-17.6-89.6-30.4s-33.6-25.6-33.6-41.6v-41.6c0-11.2 11.2-25.6 33.6-38.4zM158.4 425.6c22.4-12.8 51.2-22.4 89.6-30.4s78.4-11.2 123.2-11.2c1.6 0 3.2 0 4.8 0v81.6c-1.6 0-3.2 0-4.8 0-51.2 0-97.6 4.8-142.4 14.4s-78.4 22.4-104 40v-54.4c0-12.8 11.2-27.2 33.6-40zM422.4 243.2v-54.4c0-3.2 0-8 1.6-11.2 1.6-4.8 6.4-11.2 11.2-16 3.2-3.2 8-6.4 12.8-9.6 3.2-1.6 4.8-3.2 8-4.8 1.6-1.6 4.8-1.6 6.4-3.2 6.4-3.2 12.8-6.4 19.2-9.6v80c-4.8 1.6-9.6 3.2-14.4 4.8s-8 3.2-12.8 6.4c-11.2 4.8-22.4 11.2-32 17.6zM896 280c4.8 3.2 8 6.4 9.6 9.6 3.2 3.2 4.8 6.4 6.4 11.2 1.6 3.2 1.6 6.4 1.6 11.2v54.4c-19.2-12.8-43.2-24-73.6-33.6-9.6-3.2-20.8-4.8-32-8s-22.4-4.8-33.6-6.4c-11.2-1.6-22.4-3.2-35.2-4.8-24-1.6-48-3.2-73.6-3.2v0c-12.8 0-25.6 0-36.8 1.6-9.6 0-19.2 1.6-28.8 1.6-25.6 1.6-51.2 6.4-75.2 11.2-22.4 4.8-41.6 9.6-59.2 17.6-4.8 1.6-8 3.2-12.8 6.4-11.2 4.8-22.4 11.2-32 17.6v-54.4c0-3.2 0-8 1.6-11.2 1.6-4.8 6.4-11.2 11.2-16 3.2-3.2 8-6.4 12.8-9.6 3.2-1.6 4.8-3.2 8-4.8 1.6-1.6 4.8-1.6 6.4-3.2 8-4.8 17.6-8 28.8-12.8 9.6 14.4 25.6 24 44.8 24l361.6 1.6c0 0 0 0 0 0zM448 635.2c-4.8-3.2-9.6-6.4-12.8-9.6-4.8-4.8-8-9.6-11.2-16-1.6-3.2-1.6-6.4-1.6-11.2v-41.6c0-3.2 0-8 1.6-11.2 1.6-4.8 6.4-11.2 11.2-16 3.2-3.2 8-6.4 12.8-9.6 3.2-1.6 4.8-3.2 8-4.8 1.6-1.6 4.8-1.6 6.4-3.2 16-8 33.6-14.4 56-20.8 8-1.6 16-3.2 24-4.8 1.6 0 1.6 0 3.2 0 19.2-3.2 38.4-6.4 59.2-8 4.8 0 9.6 0 12.8-1.6 16-1.6 33.6-1.6 51.2-1.6 11.2 0 22.4 0 32 0 16 0 32 1.6 46.4 3.2s30.4 3.2 44.8 6.4c24 4.8 43.2 9.6 60.8 17.6 11.2 3.2 20.8 8 28.8 12.8 3.2 1.6 4.8 3.2 8 4.8s4.8 3.2 6.4 4.8c4.8 3.2 8 6.4 9.6 9.6 3.2 3.2 4.8 6.4 6.4 11.2s1.6 6.4 1.6 11.2v41.6c0 3.2 0 8-1.6 11.2s-3.2 6.4-6.4 11.2c-3.2 3.2-6.4 6.4-9.6 9.6-1.6 1.6-4.8 3.2-6.4 4.8-3.2 1.6-4.8 3.2-8 4.8-8 4.8-17.6 9.6-28.8 12.8-17.6 6.4-38.4 12.8-60.8 17.6-14.4 3.2-28.8 4.8-44.8 6.4-14.4 1.6-30.4 3.2-46.4 3.2-11.2 0-22.4 0-32 0-22.4 0-43.2-1.6-64-3.2-9.6-1.6-17.6-1.6-25.6-3.2-11.2-1.6-22.4-3.2-33.6-4.8-9.6-1.6-19.2-3.2-27.2-6.4-25.6-6.4-46.4-14.4-62.4-24-3.2 0-6.4-1.6-8-3.2zM448 398.4c3.2-1.6 4.8-3.2 8-4.8 1.6-1.6 4.8-1.6 6.4-3.2 16-8 33.6-14.4 56-20.8 8-1.6 16-3.2 24-4.8 1.6 0 1.6 0 3.2 0 19.2-3.2 38.4-6.4 59.2-8 4.8 0 9.6 0 12.8-1.6 16-1.6 33.6-1.6 51.2-1.6 11.2 0 22.4 0 32 0 16 0 32 1.6 46.4 3.2s30.4 3.2 44.8 6.4c24 4.8 43.2 9.6 60.8 17.6 11.2 3.2 20.8 8 28.8 12.8 3.2 1.6 4.8 3.2 8 4.8s4.8 3.2 6.4 4.8c4.8 3.2 8 6.4 9.6 9.6 3.2 3.2 4.8 6.4 6.4 11.2s1.6 6.4 1.6 11.2v54.4c-19.2-12.8-43.2-24-73.6-33.6-9.6-3.2-20.8-4.8-32-8-11.2-1.6-22.4-4.8-33.6-6.4s-22.4-3.2-35.2-4.8c-24-1.6-48-3.2-73.6-3.2v0c-12.8 0-25.6 0-36.8 1.6-9.6 0-19.2 1.6-28.8 1.6-25.6 1.6-51.2 6.4-75.2 11.2-22.4 4.8-41.6 9.6-59.2 17.6-4.8 1.6-8 3.2-12.8 6.4-11.2 4.8-22.4 11.2-32 17.6v-54.4c0-3.2 0-8 1.6-11.2 1.6-4.8 6.4-11.2 11.2-16 4.8-3.2 9.6-6.4 14.4-9.6zM612.8 62.4c-3.2-1.6-6.4-3.2-12.8-3.2-8 0-14.4 1.6-19.2 6.4 0 0-1.6 1.6-1.6 1.6-4.8 4.8-6.4 12.8-6.4 24h-35.2c0-6.4 1.6-12.8 3.2-19.2 3.2-9.6 8-19.2 16-25.6 12.8-9.6 27.2-16 44.8-16s32 4.8 41.6 12.8c4.8 4.8 9.6 9.6 11.2 16 3.2 6.4 4.8 12.8 4.8 20.8 0 9.6-1.6 17.6-4.8 25.6-1.6 4.8-4.8 8-8 11.2-8 9.6-22.4 16-40 22.4-11.2 4.8-19.2 9.6-22.4 12.8-4.8 3.2-6.4 9.6-6.4 14.4 0 3.2 0 4.8 1.6 8s3.2 6.4 4.8 8c4.8 4.8 9.6 6.4 16 6.4 0 0 1.6 0 1.6 0 6.4 0 11.2-3.2 16-8s6.4-12.8 6.4-20.8h35.2c0 9.6-1.6 17.6-4.8 25.6-3.2 4.8-6.4 9.6-11.2 14.4-6.4 6.4-16 11.2-25.6 12.8-4.8 1.6-11.2 1.6-17.6 1.6-17.6 0-32-4.8-43.2-14.4-3.2-1.6-4.8-4.8-6.4-8-6.4-8-9.6-17.6-9.6-28.8 0-3.2 0-4.8 0-8 1.6-11.2 6.4-20.8 14.4-28.8 9.6-8 24-16 43.2-22.4 0 0 1.6 0 1.6 0 8-3.2 14.4-8 17.6-11.2 3.2-4.8 4.8-9.6 4.8-17.6 0-6.4-1.6-12.8-4.8-16-1.6 4.8-3.2 3.2-4.8 3.2zM795.2 73.6c3.2 8 3.2 16 3.2 25.6v51.2c0 19.2-4.8 35.2-14.4 46.4-1.6 1.6-1.6 3.2-3.2 3.2-11.2 12.8-27.2 17.6-46.4 17.6s-35.2-6.4-46.4-17.6c-3.2-3.2-6.4-8-8-12.8-6.4-11.2-8-22.4-8-38.4v-52.8c0-16 3.2-28.8 9.6-40 1.6-4.8 4.8-8 8-11.2 11.2-12.8 27.2-17.6 46.4-17.6 4.8 0 9.6 0 14.4 1.6s9.6 1.6 12.8 3.2l28.8-32 22.4 19.2-30.4 33.6c3.2 4.8 6.4 11.2 9.6 17.6 0 1.6 0 1.6 1.6 3.2zM734.4 59.2c-4.8 0-8 1.6-11.2 1.6-3.2 1.6-6.4 4.8-9.6 8-4.8 6.4-6.4 16-6.4 30.4v51.2c0 12.8 1.6 22.4 6.4 30.4 4.8 6.4 11.2 9.6 20.8 9.6s16-3.2 20.8-9.6c4.8-6.4 8-16 8-30.4v-51.2c0-12.8-3.2-24-8-30.4-1.6-1.6-3.2-3.2-4.8-4.8-4.8-3.2-9.6-4.8-16-4.8zM924.8 62.4h-67.2v155.2h-35.2v-184h102.4z" />
<glyph unicode="&#xe992;" glyph-name="menu-icons_tasks-01" d="M452.8 324.8l-102.4 99.2-64-64 105.6-102.4 60.8-60.8 60.8 62.4 200 201.6-65.6 62.4zM876.8 811.2h-249.6c-9.6 24-24 43.2-44.8 59.2-22.4 14.4-43.2 22.4-70.4 22.4-25.6 0-48-8-68.8-22.4s-35.2-35.2-44.8-59.2h-249.6v-808h728v808zM484.8 800c8 8 17.6 11.2 28.8 11.2s20.8-3.2 28.8-11.2 11.2-17.6 11.2-28.8-3.2-20.8-11.2-28.8-17.6-11.2-28.8-11.2-20.8 3.2-28.8 11.2-11.2 17.6-11.2 28.8 3.2 20.8 11.2 28.8zM796.8 83.2h-568v648h80v-121.6h406.4v121.6h80v-648z" />
<glyph unicode="&#xe993;" glyph-name="menu-icons_versioning" d="M198.4 844.8h486.4v48h-534.4v-699.2h48zM244.8 97.6h48v652.8h486.4v48h-534.4zM339.2 51.2v-48h534.4v699.2h-534.4v-651.2zM388.8 654.4h436.8v-603.2h-436.8v603.2zM606.4 550.4c-54.4 0-100.8-19.2-139.2-57.6s-57.6-84.8-57.6-139.2c0-54.4 19.2-100.8 57.6-139.2s84.8-57.6 139.2-57.6c54.4 0 100.8 19.2 139.2 57.6s57.6 84.8 57.6 139.2c0 54.4-19.2 100.8-57.6 139.2-36.8 38.4-84.8 57.6-139.2 57.6zM625.6 326.4h-105.6v38.4h67.2v118.4h38.4v-156.8z" />
<glyph unicode="&#xe994;" glyph-name="icons_query" d="M635.2 291.2l315.2 315.2-123.2 123.2-315.2-315.2-315.2 313.6-123.2-123.2 438.4-438.4z" />
<glyph unicode="&#xe995;" glyph-name="icons_magic-wand" d="M49.925 65.427l385.794 385.794 79.195-79.195-385.794-385.794-79.195 79.195zM476.981 491.88l145.945 145.945 79.195-79.195-145.945-145.945-79.195 79.195zM580.8 859.2h32v-160h-32v160zM820.8 908.8l40-44.8 59.2-6.4-30.4-51.2 14.4-57.6-59.2 12.8-51.2-30.4-4.8 59.2-44.8 40 54.4 22.4zM868.8 697.6l1.6-41.6 32-27.2-38.4-16-17.6-38.4-27.2 32-41.6 4.8 22.4 35.2-8 40 40-9.6zM748.8 518.4h177.6v-32h-177.6v32zM491.988 752.5l30.358 10.122 31.883-95.629-30.358-10.122-31.883 95.629zM677.277 676.738l31.75 55.565 27.782-15.875-31.75-55.565-27.782 15.875zM705.071 433.818l15.216 28.15 98.526-53.256-15.216-28.15-98.526 53.256z" />
<glyph unicode="&#xe996;" glyph-name="icons_empty-set" d="M980.8 916.8c-16 16-41.6 16-56 0l-152-152c-75.2 62.4-161.6 92.8-260.8 92.8-113.6 0-211.2-40-291.2-120s-120-176-120-289.6c0-100.8 32-187.2 94.4-260.8l-152-152c-16-16-16-41.6 0-56 8-8 17.6-11.2 28.8-11.2s20.8 3.2 28.8 11.2l152 152c73.6-60.8 161.6-92.8 260.8-92.8 113.6 0 211.2 40 291.2 120s120 176 120 289.6c0 100.8-32 187.2-94.4 260.8l152 152c14.4 16 14.4 41.6-1.6 56zM184 448c0 91.2 32 169.6 96 233.6s140.8 96 232 96c78.4 0 145.6-24 203.2-70.4l-462.4-462.4c-46.4 59.2-68.8 126.4-68.8 203.2zM840 448c0-91.2-32-169.6-96-233.6s-140.8-96-232-96c-78.4 0-145.6 24-203.2 70.4l462.4 462.4c46.4-59.2 68.8-126.4 68.8-203.2z" />
<glyph unicode="&#xe997;" glyph-name="icons_crane" d="M520 177.6v57.6l-59.2-57.6h59.2zM859.2 270.4c0-1.6 0-3.2 1.6-4.8 0-1.6 1.6-3.2 3.2-6.4 3.2-4.8 6.4-11.2 8-17.6 6.4-17.6 1.6-32-6.4-41.6-4.8-4.8-9.6-8-16-8-6.4-1.6-11.2-1.6-17.6 0-12.8 3.2-25.6 14.4-30.4 33.6l27.2 4.8c1.6-6.4 4.8-11.2 9.6-11.2 1.6 0 3.2 0 4.8 0s3.2 1.6 3.2 1.6 3.2 6.4 0 12.8c-1.6 4.8-4.8 11.2-6.4 14.4s-3.2 6.4-4.8 9.6c-1.6 3.2-1.6 6.4-1.6 9.6l-12.8 38.4h-36.8v150.4h19.2v174.4h-248v-470.4c20.8-6.4 35.2-25.6 35.2-48v-41.6c0-1.6 0-4.8 0-6.4h48v-81.6h-329.6v81.6h43.2c0 1.6 0 4.8 0 6.4v41.6c0 24 16 43.2 38.4 49.6v468.8h-267.2v73.6l316.8 208 1.6 1.6h65.6l1.6-1.6 374.4-208v-249.6h17.6v-150.4h-28.8l-12.8-33.6zM820.8 457.6h44.8v172.8h-44.8v-172.8zM846.4 702.4l-339.2 190.4v-3.2l40-185.6c100.8 0 200-1.6 299.2-1.6v0zM433.6 886.4l-278.4-182.4h238.4l40 182.4zM510.4 704l-35.2 164.8h-9.6l-35.2-164.8h80zM489.6 256h-65.6v-64l65.6 64zM520 292.8v57.6l-59.2-57.6h59.2zM496 377.6h-72v-70.4l72 70.4zM520 414.4v57.6l-59.2-57.6h59.2zM494.4 497.6h-68.8v-67.2l68.8 67.2zM520 534.4v57.6l-59.2-57.6h59.2zM483.2 606.4h-57.6v-56l57.6 56z" />
<glyph unicode="&#xe998;" glyph-name="icons_hammer" d="M129.874 733.195l141.42 141.42 726.333-726.333-141.42-141.42-726.333 726.333zM614.4 779.2l-393.6-392-172.8 172.8 297.6 297.6 153.6 36.8z" />
<glyph unicode="&#xe999;" glyph-name="icons_hamer-driver" d="M832 860.8l112-112-38.4-38.4-9.6 14.4-100.8 100.8 36.8 35.2zM60.8 748.8l72-113.6 76.8-6.4 166.4-166.4-67.2-67.2 27.2-27.2-225.6-227.2c14.4-54.4 60.8-99.2 113.6-113.6l236.8 236.8 260.8-260.8c94.4 25.6 147.2 89.6 177.6 177.6l-257.6 260.8 56 56 142.4-142.4 123.2 123.2-94.4 219.2-195.2 195.2-43.2 1.6-144-142.4 3.2-49.6 91.2-91.2-44.8-44.8-27.2 27.2-68.8-67.2-163.2 164.8-6.4 81.6-113.6 72-96-96zM590.4 344l30.4 30.4 206.4-206.4-24-38.4-212.8 214.4zM524.8 278.4l30.4 30.4 214.4-214.4-38.4-24-206.4 208z" />
<glyph unicode="&#xe99a;" glyph-name="icons_road-cone" d="M891.2 96h-84.8c0 1.6 0 3.2 0 4.8l-147.2 710.4c-3.2 24-22.4 41.6-46.4 41.6h-217.6c-22.4 0-43.2-16-46.4-40l-124.8-713.6c0-1.6 0-3.2 0-4.8h-91.2c-25.6 0-46.4-20.8-46.4-46.4s20.8-46.4 46.4-46.4h758.4c25.6 0 46.4 20.8 46.4 46.4 0 27.2-20.8 48-46.4 48zM412.8 636.8h185.6l30.4-144h-240l24 144zM340.8 222.4l24 140.8h289.6l28.8-140.8h-342.4z" />
<glyph unicode="&#xea10;" glyph-name="checkmark" d="M864 832l-480-480-224 224-160-160 384-384 640 640z" />
</font>
</defs>
</svg>
