<?xml version="1.0" encoding="utf-8"?>
<!-- Generator: Adobe Illustrator 19.2.0, SVG Export Plug-In . SVG Version: 6.00 Build 0)  -->
<svg version="1.1" id="Layer_1" xmlns="http://www.w3.org/2000/svg" xmlns:xlink="http://www.w3.org/1999/xlink" x="0px" y="0px"
	 viewBox="0 0 64 64" style="enable-background:new 0 0 64 64;" xml:space="preserve">
<style type="text/css">
	.st0{display:none;}
	.st1{display:inline;}
	.st2{fill:none;}
	.st3{fill:#010101;}
</style>
<g class="st0">
	<rect class="st1" width="64" height="64"/>
</g>
<g>
	<path d="M13.8,13.9c5-5,11.1-7.5,18.2-7.5s13.1,2.5,18.2,7.5s7.5,11,7.5,18.1s-2.5,13.1-7.5,18.1c-5,5-11.1,7.5-18.2,7.5
		s-13.1-2.5-18.2-7.5c-5-5-7.5-11-7.5-18.1S8.8,18.9,13.8,13.9z M17.5,46.6c4,4,8.8,6,14.5,6s10.5-2,14.5-6s6-8.9,6-14.6
		s-2-10.5-6-14.6s-8.8-6-14.5-6s-10.5,2-14.5,6s-6,8.9-6,14.6S13.5,42.5,17.5,46.6z M29.4,24.3v-5.2h5.2v5.2H29.4z M29.4,44.9V29.5
		h5.2v15.4H29.4z"/>
</g>
</svg>
