<?xml version="1.0" encoding="utf-8"?>
<!-- Generator: Adobe Illustrator 19.2.0, SVG Export Plug-In . SVG Version: 6.00 Build 0)  -->
<svg version="1.1" id="Layer_1" xmlns="http://www.w3.org/2000/svg" xmlns:xlink="http://www.w3.org/1999/xlink" x="0px" y="0px"
	 viewBox="0 0 64 64" style="enable-background:new 0 0 64 64;" xml:space="preserve">
<style type="text/css">
	.st0{display:none;}
	.st1{display:inline;}
</style>
<g class="st0">
	<rect y="0" class="st1" width="64" height="64"/>
</g>
<path d="M46.8,41.5v-4.1c0-1.2-0.7-2.2-1.7-2.7l-21.5-9.9v-2.1c3.8-1.3,6.5-4.8,6.5-9c0-5.2-4.3-9.5-9.5-9.5S11,8.4,11,13.6
	c0,4.2,2.7,7.7,6.5,9v18.7c-3.8,1.3-6.5,4.8-6.5,9c0,5.2,4.3,9.5,9.5,9.5s9.5-4.3,9.5-9.5c0-4.2-2.7-7.7-6.5-9V31.3l17.3,8v2
	c-3.9,1.2-6.8,4.8-6.8,9.1c0,5.2,4.3,9.5,9.5,9.5s9.5-4.3,9.5-9.5C53,46.3,50.4,42.8,46.8,41.5z M20.5,10.1c1.9,0,3.5,1.6,3.5,3.5
	s-1.6,3.5-3.5,3.5S17,15.6,17,13.6S18.6,10.1,20.5,10.1z M20.5,53.9c-1.9,0-3.5-1.6-3.5-3.5s1.6-3.5,3.5-3.5s3.5,1.6,3.5,3.5
	S22.4,53.9,20.5,53.9z M43.5,53.9c-1.9,0-3.5-1.6-3.5-3.5s1.6-3.5,3.5-3.5s3.5,1.6,3.5,3.5S45.4,53.9,43.5,53.9z"/>
</svg>
