<?xml version="1.0" encoding="utf-8"?>
<!-- Generator: Adobe Illustrator 19.2.0, SVG Export Plug-In . SVG Version: 6.00 Build 0)  -->
<svg version="1.1" id="Layer_1" xmlns="http://www.w3.org/2000/svg" xmlns:xlink="http://www.w3.org/1999/xlink" x="0px" y="0px"
	 viewBox="0 0 64 64" style="enable-background:new 0 0 64 64;" xml:space="preserve">
<style type="text/css">
	.st0{display:none;}
	.st1{display:inline;}
</style>
<g class="st0">
	<rect y="0" class="st1" width="64" height="64"/>
</g>
<path d="M48.1,32.7H54v-6.1c0-1.5-0.5-2.7-1.6-3.8c-1.1-1.1-2.3-1.6-3.8-1.6h-2.8v-5.5c0-3.8-1.3-7-4-9.7c-2.7-2.7-5.9-4.1-9.7-4.1
	c-3.8,0-7,1.4-9.7,4.1c-2.7,2.7-4.1,5.9-4.1,9.7v5.5h-2.7c-1.5,0-2.9,0.5-3.9,1.6c-1.1,1.1-1.6,2.3-1.6,3.8v27.6
	c0,1.5,0.5,2.7,1.6,3.8c1.1,1.1,2.4,1.6,3.9,1.6h32.5V32.7z M40.6,21.2h-17v-5.5c0-2.3,0.8-4.3,2.4-6c1.6-1.7,3.6-2.5,6-2.5
	c2.4,0,4.4,0.8,6.1,2.5s2.5,3.7,2.5,6V21.2z"/>
<rect x="52.1" y="36.7" width="4" height="16"/>
<rect x="52.1" y="56.7" width="4" height="3.9"/>
</svg>
