<?xml version="1.0" encoding="utf-8"?>
<!-- Generator: Adobe Illustrator 19.2.0, SVG Export Plug-In . SVG Version: 6.00 Build 0)  -->
<svg version="1.1" id="Layer_1" xmlns="http://www.w3.org/2000/svg" xmlns:xlink="http://www.w3.org/1999/xlink" x="0px" y="0px"
	 viewBox="0 0 64 64" style="enable-background:new 0 0 64 64;" xml:space="preserve">
<style type="text/css">
	.st0{display:none;}
	.st1{display:inline;}
</style>
<g class="st0">
	<rect y="0" class="st1" width="64" height="64"/>
</g>
<polygon points="42.9,59.4 37.4,53.7 33.5,53.7 33.5,43.1 41.9,43.1 38.8,40.1 33.3,34.3 30.8,31.9 19.6,43.1 28,43.1 28,59.4 "/>
<path d="M25.3,45.8H13L30.8,28l3.6,3.6h19.5v-5c0.1-1.4-0.5-2.7-1.6-3.8c-1.1-1.1-2.3-1.6-3.8-1.6h-2.8v-5.5c0-3.8-1.3-7-4-9.7
	C39,3.3,35.8,1.9,32,1.9S25,3.3,22.3,6c-2.7,2.7-4.1,5.9-4.1,9.7v5.5h-2.7c-1.5,0-2.9,0.5-3.9,1.6c-1.1,1.1-1.6,2.3-1.6,3.8v27.6
	c0,1.5,0.5,2.7,1.6,3.8c1.1,1.1,2.4,1.6,3.9,1.6h9.8V45.8z M23.6,15.7c0-2.3,0.8-4.3,2.4-6s3.6-2.5,6-2.5s4.4,0.8,6.1,2.5
	c1.7,1.7,2.5,3.7,2.5,6v5.5h-17V15.7z"/>
<polygon points="54,50.6 54,34.3 39,34.3 44.6,40.1 48.5,40.1 48.5,50.6 40.1,50.6 43.1,53.7 48.6,59.4 51.1,62.1 62.4,50.6 "/>
</svg>
