<?xml version="1.0" encoding="utf-8"?>
<!-- Generator: Adobe Illustrator 19.2.0, SVG Export Plug-In . SVG Version: 6.00 Build 0)  -->
<svg version="1.1" id="Layer_1" xmlns="http://www.w3.org/2000/svg" xmlns:xlink="http://www.w3.org/1999/xlink" x="0px" y="0px"
	 viewBox="0 0 64 64" style="enable-background:new 0 0 64 64;" xml:space="preserve">
<style type="text/css">
	.st0{display:none;}
	.st1{display:inline;}
	.st2{fill:none;}
	.st3{fill:#010101;}
</style>
<g class="st0">
	<rect class="st1" width="64" height="64"/>
</g>
<g>
	<path d="M10.6,17.1v36.3h36.3V58H10.6c-1.3,0-2.4-0.4-3.2-1.3c-0.9-0.9-1.3-2-1.3-3.2V17.1H10.6z M51.5,8c1.2,0,2.3,0.4,3.1,1.3
		c0.9,0.9,1.3,2,1.3,3.2v31.8c0,1.2-0.4,2.3-1.3,3.1c-0.9,0.9-1.9,1.3-3.1,1.3H19.7c-1.3,0-2.4-0.4-3.2-1.3
		c-0.9-0.9-1.3-1.9-1.3-3.1V12.5c0-1.3,0.4-2.4,1.3-3.2c0.9-0.9,2-1.3,3.2-1.3H51.5z M51.5,44.4V12.5H19.7v31.8H51.5z"/>
</g>
</svg>
