<?xml version="1.0" encoding="utf-8"?>
<!-- Generator: Adobe Illustrator 19.2.0, SVG Export Plug-In . SVG Version: 6.00 Build 0)  -->
<svg version="1.1" id="Layer_1" xmlns="http://www.w3.org/2000/svg" xmlns:xlink="http://www.w3.org/1999/xlink" x="0px" y="0px"
	 viewBox="0 0 64 64" style="enable-background:new 0 0 64 64;" xml:space="preserve">
<style type="text/css">
	.st0{display:none;}
	.st1{display:inline;}
	.st2{fill:none;}
	.st3{fill:#010101;}
</style>
<g class="st0">
	<rect class="st1" width="64" height="64"/>
</g>
<g>
	<path d="M12.9,38.2c0-1.1-0.2-2-0.7-2.7c-0.4-0.7-1.2-1-2.4-1v-4.9c0.6,0,1-0.1,1.4-0.3c0.4-0.2,0.7-0.4,0.9-0.8
		c0.2-0.3,0.4-0.7,0.5-1.2c0.1-0.5,0.2-1,0.2-1.5c0-0.8-0.1-1.7-0.2-2.5c-0.1-0.8-0.2-1.7-0.4-2.6c-0.1-0.9-0.3-1.7-0.4-2.6
		c-0.1-0.9-0.2-1.7-0.2-2.6c0-1.5,0.2-2.9,0.7-4.2c0.4-1.3,1.1-2.3,2.1-3.2c0.9-0.9,2.1-1.6,3.6-2.1c1.4-0.5,3.2-0.7,5.2-0.7h1.5
		v3.8c0,0.3-0.1,0.6-0.2,0.8c-0.1,0.2-0.3,0.4-0.5,0.5c-0.2,0.1-0.4,0.2-0.6,0.3c-0.2,0.1-0.4,0.1-0.5,0.1c-1.2,0-2.1,0.4-2.6,1.1
		c-0.6,0.7-0.8,1.8-0.8,3.1c0,1,0,2,0.1,3s0.2,1.8,0.3,2.7c0.1,0.9,0.2,1.7,0.3,2.5c0.1,0.8,0.1,1.7,0.1,2.5c0,0.7-0.1,1.4-0.3,2.1
		c-0.2,0.7-0.5,1.3-0.9,1.8s-0.9,1-1.4,1.5c-0.6,0.4-1.2,0.8-2,1c0.7,0.2,1.4,0.6,2,1c0.6,0.4,1,0.9,1.4,1.5s0.7,1.2,0.9,1.8
		c0.2,0.7,0.3,1.4,0.3,2.1c0,0.8,0,1.7-0.1,2.5c-0.1,0.8-0.2,1.7-0.3,2.5c-0.1,0.9-0.2,1.8-0.3,2.7c-0.1,0.9-0.1,1.9-0.1,3
		c0,1.3,0.3,2.3,0.8,3.1c0.6,0.7,1.4,1.1,2.6,1.1c0.2,0,0.3,0,0.5,0.1c0.2,0.1,0.4,0.2,0.6,0.3c0.2,0.1,0.4,0.3,0.5,0.5
		c0.1,0.2,0.2,0.5,0.2,0.8v3.8h-1.5c-2,0-3.7-0.2-5.2-0.7c-1.4-0.5-2.6-1.2-3.6-2.1c-0.9-0.9-1.6-2-2.1-3.2
		c-0.4-1.2-0.7-2.6-0.7-4.2c0-0.9,0.1-1.7,0.2-2.6c0.1-0.9,0.2-1.7,0.4-2.6c0.1-0.9,0.3-1.7,0.4-2.6C12.9,39.9,12.9,39.1,12.9,38.2z
		"/>
	<path d="M51.1,38.2c0,0.8,0.1,1.7,0.2,2.5c0.1,0.8,0.2,1.7,0.4,2.6c0.1,0.8,0.2,1.7,0.4,2.6c0.1,0.9,0.2,1.7,0.2,2.6
		c0,1.5-0.2,2.9-0.7,4.2c-0.4,1.2-1.1,2.3-2.1,3.2c-0.9,0.9-2.1,1.6-3.6,2.1c-1.4,0.5-3.2,0.7-5.2,0.7h-1.5v-3.8
		c0-0.3,0.1-0.6,0.2-0.8c0.1-0.2,0.3-0.4,0.5-0.5c0.2-0.1,0.4-0.2,0.6-0.3c0.2-0.1,0.4-0.1,0.5-0.1c1.2,0,2.1-0.4,2.6-1.1
		c0.6-0.7,0.8-1.8,0.8-3.1c0-1,0-2-0.1-3c-0.1-0.9-0.2-1.8-0.3-2.7c-0.1-0.9-0.2-1.7-0.3-2.5c-0.1-0.8-0.1-1.7-0.1-2.5
		c0-0.7,0.1-1.4,0.3-2.1c0.2-0.7,0.5-1.3,0.9-1.8s0.9-1,1.4-1.5c0.6-0.4,1.2-0.7,1.9-1c-0.7-0.2-1.4-0.6-1.9-1
		c-0.6-0.4-1-0.9-1.4-1.5s-0.7-1.2-0.9-1.8c-0.2-0.7-0.3-1.4-0.3-2.1c0-0.9,0-1.7,0.1-2.5c0.1-0.8,0.2-1.7,0.3-2.5
		c0.1-0.9,0.2-1.8,0.3-2.7s0.1-1.9,0.1-3c0-1.3-0.3-2.3-0.8-3.1c-0.6-0.7-1.4-1.1-2.6-1.1c-0.2,0-0.3,0-0.5-0.1
		c-0.2-0.1-0.4-0.2-0.6-0.3s-0.4-0.3-0.5-0.5c-0.1-0.2-0.2-0.5-0.2-0.8V5.3h1.5c2,0,3.7,0.2,5.2,0.7c1.4,0.5,2.6,1.2,3.6,2.1
		c0.9,0.9,1.6,2,2.1,3.2c0.4,1.3,0.7,2.7,0.7,4.2c0,0.9-0.1,1.7-0.2,2.6c-0.1,0.9-0.2,1.7-0.4,2.6c-0.1,0.8-0.3,1.7-0.4,2.6
		c-0.1,0.8-0.2,1.7-0.2,2.5c0,0.5,0.1,1.1,0.2,1.5c0.1,0.5,0.3,0.9,0.5,1.2c0.2,0.3,0.5,0.6,0.9,0.8c0.4,0.2,0.9,0.3,1.4,0.3v4.9
		c-1.1,0-1.9,0.3-2.4,1C51.3,36.2,51.1,37.1,51.1,38.2z"/>
</g>
</svg>
