<?xml version="1.0" encoding="utf-8"?>
<!-- Generator: Adobe Illustrator 19.2.0, SVG Export Plug-In . SVG Version: 6.00 Build 0)  -->
<svg version="1.1" id="Layer_1" xmlns="http://www.w3.org/2000/svg" xmlns:xlink="http://www.w3.org/1999/xlink" x="0px" y="0px"
	 viewBox="0 0 64 64" style="enable-background:new 0 0 64 64;" xml:space="preserve">
<style type="text/css">
	.st0{display:none;}
	.st1{display:inline;}
	.st2{fill:none;}
</style>
<g class="st0">
	<rect y="0" class="st1" width="64" height="64"/>
</g>
<polygon points="50.1,60.4 47.2,57.4 42,57.4 42,48.7 46.4,48.7 44.8,47.1 41.9,44.1 40.6,42.8 34.7,48.7 39.1,48.7 39.1,60.4 "/>
<g>
	<path class="st2" d="M32,7.2c-2.4,0-4.4,0.8-6,2.5c-1.6,1.7-2.4,3.7-2.4,6v5.5h17v-5.5c0-2.3-0.8-4.3-2.5-6S34.4,7.2,32,7.2z"/>
	<path d="M52.3,22.8c-1.1-1.1-2.3-1.6-3.8-1.6h-2.8v-5.5c0-3.8-1.3-7-4-9.7c-2.7-2.7-5.9-4.1-9.7-4.1c-3.8,0-7,1.4-9.7,4.1
		c-2.7,2.7-4.1,5.9-4.1,9.7v5.5h-2.7c-1.5,0-2.9,0.5-3.9,1.6c-1.1,1.1-1.6,2.3-1.6,3.8v27.6c0,1.5,0.5,2.7,1.6,3.8
		c1.1,1.1,2.4,1.6,3.9,1.6h20.7v-8.1h-1.6c-1.1,0-2.2-0.7-2.6-1.8c-0.4-1.1-0.2-2.3,0.6-3.1l7.9-7.9l2.5,2.6h10.8c0,0,0,0,0.1,0
		V26.6C54,25.2,53.4,23.9,52.3,22.8z M40.6,21.2h-17v-5.5c0-2.3,0.8-4.3,2.4-6c1.6-1.7,3.6-2.5,6-2.5c2.4,0,4.4,0.8,6.1,2.5
		s2.5,3.7,2.5,6V21.2z"/>
</g>
<polygon points="55.9,55.8 55.9,44.1 44.9,44.1 47.8,47.1 53,47.1 53,55.8 48.6,55.8 50.2,57.4 53.1,60.4 54.4,61.8 60.3,55.8 "/>
</svg>
