<?xml version="1.0" encoding="utf-8"?>
<!-- Generator: Adobe Illustrator 19.2.0, SVG Export Plug-In . SVG Version: 6.00 Build 0)  -->
<svg version="1.1" id="Layer_1" xmlns="http://www.w3.org/2000/svg" xmlns:xlink="http://www.w3.org/1999/xlink" x="0px" y="0px"
	 viewBox="0 0 64 64" style="enable-background:new 0 0 64 64;" xml:space="preserve">
<style type="text/css">
	.st0{display:none;}
	.st1{display:inline;}
</style>
<path d="M35.5,21.2H23.6v-5.5c0-2.3,0.8-4.3,2.4-6s3.6-2.5,6-2.5s4.4,0.8,6.1,2.5c0.4,0.4,0.8,0.9,1.1,1.3c0,0,0,0,0,0H45
	c-0.7-1.8-1.7-3.5-3.2-5c-2.7-2.7-5.9-4.1-9.7-4.1c-3.8,0-7,1.4-9.7,4.1c-2.7,2.7-4.1,5.9-4.1,9.7v5.5h-2.7c-1.5,0-2.9,0.5-3.9,1.6
	c-1.1,1.1-1.6,2.3-1.6,3.8v27.6c0,1.5,0.5,2.7,1.6,3.8c1.1,1.1,2.4,1.6,3.9,1.6h19.9V21.2z"/>
<g class="st0">
	<rect y="0" class="st1" width="64" height="64"/>
</g>
<g>
	<path d="M51.9,46.7H41.2V17h10.7V46.7z M51.9,59.5H41.2v-8.9h10.7V59.5z"/>
</g>
</svg>
