<?xml version="1.0" encoding="utf-8"?>
<!-- Generator: Adobe Illustrator 19.2.0, SVG Export Plug-In . SVG Version: 6.00 Build 0)  -->
<svg version="1.1" id="Layer_1" xmlns="http://www.w3.org/2000/svg" xmlns:xlink="http://www.w3.org/1999/xlink" x="0px" y="0px"
	 viewBox="0 0 64 64" style="enable-background:new 0 0 64 64;" xml:space="preserve">
<style type="text/css">
	.st0{display:none;}
	.st1{display:inline;}
	.st2{fill:#1D1D1B;}
</style>
<g>
	<path class="st2" d="M60.5,31.1c-1.3-0.8-3.1-1.4-5.3-1.8c-2.3-0.4-4.7-0.6-7.3-0.6c-2.3,0-4.6,0.2-6.6,0.5
		c1.6,1.2,2.4,2.6,2.4,4.3V36c0,0.3,0,0.6-0.1,0.8v3.8c1.4,0.1,2.8,0.2,4.3,0.2c2.6,0,5-0.2,7.3-0.6c2.3-0.5,4-1,5.3-1.8
		s1.9-1.5,1.9-2.4v-2.4C62.4,32.6,61.8,31.9,60.5,31.1z"/>
	<path class="st2" d="M47.9,57.8c-1.5,0-2.9-0.1-4.3-0.2v0.2c0,1.7-0.8,3.1-2.4,4.3c2.1,0.3,4.2,0.5,6.6,0.5c2.6,0,5.1-0.2,7.3-0.6
		c2.3-0.5,4-1,5.3-1.8c1.3-0.8,1.9-1.5,1.9-2.4v-3.2c-1.5,1.1-3.5,1.9-6.1,2.4C53.7,57.5,50.8,57.8,47.9,57.8z"/>
	<path class="st2" d="M47.9,43.2c-1.5,0-2.9-0.1-4.3-0.2v4.8c1.3,0.1,2.7,0.2,4.2,0.2c2.6,0,5.1-0.2,7.3-0.6c2.3-0.5,4-1,5.3-1.8
		c1.3-0.8,1.9-1.5,1.9-2.4V40c-1.5,1.1-3.5,1.9-6.1,2.4C53.7,42.9,50.8,43.2,47.9,43.2z"/>
	<path class="st2" d="M47.9,50.5c-1.5,0-2.9-0.1-4.3-0.2v4.8c1.4,0.1,2.8,0.2,4.3,0.2c2.6,0,5-0.2,7.2-0.6c2.3-0.5,4-1,5.3-1.8
		c1.3-0.8,1.9-1.5,1.9-2.4v-3.2c-1.5,1.1-3.5,1.9-6.1,2.4C53.7,50.2,50.8,50.5,47.9,50.5z"/>
	<path class="st2" d="M37,41.7c-0.8,0.3-1.6,0.5-2.5,0.7c-0.4,0.1-0.8,0.2-1.2,0.2c-2.2,0.4-4.6,0.6-7.1,0.6c-2.4,0-4.7-0.2-6.9-0.6
		c-1.9,1.2-3.7,2.2-5.4,2.8l-0.4,0.2c0,0,0.1,0,0.1,0c1.3,0.8,3.1,1.4,5.3,1.8C21,47.8,23.4,48,26,48c2.6,0,5.1-0.2,7.3-0.6
		c0,0,0,0,0.1,0c0.1,0,0.1,0,0.2,0c1.3-0.3,2.4-0.6,3.3-0.9c0.7-0.2,1.3-0.5,1.8-0.8c1.3-0.8,1.9-1.5,1.9-2.4v-0.6v-2.4V40
		c-0.1,0.1-0.2,0.1-0.2,0.2C39.4,40.8,38.3,41.3,37,41.7z"/>
	<path class="st2" d="M37,49c-0.8,0.2-1.6,0.5-2.5,0.7c-0.4,0.1-0.8,0.1-1.2,0.2c-2.2,0.4-4.7,0.6-7.2,0.6c-3,0-5.8-0.3-8.4-0.8
		c-2.6-0.5-4.7-1.3-6.2-2.4v3.2c0,0.8,0.6,1.7,1.9,2.4c1.3,0.8,3.1,1.4,5.3,1.8c2.3,0.4,4.7,0.6,7.3,0.6c2.6,0,5-0.2,7.1-0.6
		c0,0,0.1,0,0.1,0c0,0,0.1,0,0.1,0c1.4-0.3,2.5-0.6,3.5-1c0.6-0.2,1.2-0.5,1.7-0.8c1.3-0.8,1.9-1.5,1.9-2.4v-0.6v-2.4v-0.2
		c-0.1,0.1-0.2,0.1-0.3,0.2C39.4,48,38.3,48.5,37,49z"/>
	<path class="st2" d="M37,56.3c-0.8,0.3-1.6,0.5-2.6,0.7c-0.4,0.1-0.8,0.2-1.2,0.2c-2.2,0.4-4.6,0.6-7.1,0.6c-3,0-5.7-0.3-8.4-0.8
		c-2.6-0.6-4.7-1.4-6.3-2.4v3.2c0,0.8,0.6,1.7,1.9,2.4c1.3,0.8,3.1,1.4,5.3,1.8c2.3,0.4,4.7,0.6,7.3,0.6c2.6,0,5.1-0.2,7.3-0.6
		c1.4-0.3,2.5-0.6,3.5-1c0.7-0.2,1.3-0.5,1.8-0.8c1.3-0.8,1.9-1.5,1.9-2.4v-0.6v-2.5v-0.1c-0.1,0-0.1,0.1-0.2,0.1
		C39.5,55.3,38.4,55.8,37,56.3z"/>
	<path class="st2" d="M38.7,31.1c-0.5-0.3-1.1-0.6-1.8-0.8c-0.4-0.2-0.9-0.3-1.3-0.4c-2.1,1.6-4.3,3.4-6.5,5.2c-2.4,2-4.7,3.9-7,5.6
		c1.3,0.1,2.6,0.2,4,0.2c2.6,0,4.9-0.2,7.1-0.6c0.1,0,0.1,0,0.2,0c0,0,0.1,0,0.1,0c1.3-0.3,2.5-0.6,3.4-1c0.7-0.2,1.3-0.5,1.8-0.8
		c1.3-0.8,1.9-1.5,1.9-2.4v-2.4C40.7,32.6,40.1,31.9,38.7,31.1z"/>
	<path class="st2" d="M13.1,31.3c0.2,1.2,0.4,2.3,0.6,3.3c0.3,1.7,0.4,2.8,0.4,2.8c0.4-0.8,1.3-3.6,1.8-7.3c0.1-1,0.2-2.1,0.3-3.2
		c0.2-3.8-0.2-8-1.8-12c-1.1-2.7-2.7-5.3-5.1-7.5c-2-1.9-4.5-3.4-7.7-4.6c-2.7-1-5.9-1.7-9.6-2c4.4,2.1,7.6,4.6,9.2,6
		c0,0,3.4,2.5,6,7.2c2.3,4.1,4.1,10,4.1,10c0.5,1.4,0.8,2.9,1.2,4.3C12.7,29.3,12.9,30.4,13.1,31.3z"/>
	<path class="st2" d="M14.3,8l1.9-0.1L15,9c0.3,0.5,0.7,0.9,0.9,1.4l3.2-0.5l-2.3,2.4c0.2,0.6,0.3,1.1,0.5,1.7
		c1.2,4.6,1.5,8.8,1.2,12.4c-0.1,1.1-0.2,2.1-0.4,3.1c-0.7,4.1-2,7.4-3.1,9.6c-0.4,0.8-0.9,1.6-1.2,2.1c-0.6,0.9-1,1.4-1,1.4
		c0.7-0.2,1.4-0.6,2.2-1c0.1-0.1,0.2-0.1,0.4-0.2c0.8-0.4,1.6-0.9,2.5-1.5c4.4-2.9,9.3-7.2,13.9-10.9c1.1-0.9,2.2-1.7,3.3-2.5
		c1.5-1.1,3-2,4.4-2.7c8-4.2,15.5-0.1,15-1.6c-0.9-3.3-8.3-7.2-8.3-7.2c-3.2-3.7-6.8-4.6-9.1-5.1c-4.2-0.8-8.5,0.1-10.6,0.6
		C20.5,2.8,8.9,1,4.3,0.6C3.1,0.5,2.4,0.5,2.4,0.5c3.7,1.2,6.7,2.8,8.9,4.6C12.5,6,13.5,7,14.3,8z M39,14.1c0.9,0,2.7,0.7,4.1,1.9
		c0.1,0.1-0.8,0.3-1.8,0.2c-0.7,0-1.7-0.3-2.5-1.1C38.1,14.4,38.3,14.1,39,14.1z"/>
</g>
</svg>
