<?xml version="1.0" encoding="utf-8"?>
<!-- Generator: Adobe Illustrator 19.2.0, SVG Export Plug-In . SVG Version: 6.00 Build 0)  -->
<svg version="1.1" id="Layer_1" xmlns="http://www.w3.org/2000/svg" xmlns:xlink="http://www.w3.org/1999/xlink" x="0px" y="0px"
	 viewBox="0 0 64 64" style="enable-background:new 0 0 64 64;" xml:space="preserve">
<style type="text/css">
	.st0{display:none;}
	.st1{display:inline;}
</style>
<g id="Layer_1_1_">
	<g class="st0">
		<rect class="st1" width="64" height="64"/>
	</g>
</g>
<path d="M59,42.9l2.6-4.1c-3.5-2.2-7.5-2.5-10.1-2.3c-0.1-1.7-0.4-3.4-0.8-5c2.6-0.5,6.1-2.1,8.9-6.2l-4-2.7c-2.2,3.3-5,4.1-6.6,4.3
	c-1-1.9-2.2-3.7-3.6-5.2c0.3-1.1,0.4-2.2,0.4-3.3c0-3.4-1.2-6.4-3.2-8.8l2.6-2.6l-3.4-3.4l-3,3c-2-1.1-4.3-1.8-6.7-1.8
	c-2.4,0-4.7,0.7-6.7,1.8l-2.9-2.9L19,7l2.6,2.6c-1.7,2-2.8,4.5-3.1,7.2c-0.1,0.5-0.1,1-0.1,1.6c0,1.1,0.1,2.2,0.4,3.3
	c-0.9,1-1.7,2.1-2.5,3.2c-0.4,0.6-0.8,1.3-1.1,2c-1.5-0.1-4.5-0.9-6.7-4.3l-4,2.7c2.8,4.2,6.4,5.7,9,6.2c-0.4,1.6-0.7,3.3-0.8,5
	c-2.6-0.2-6.7,0-10.3,2.3L5,42.9c2.7-1.7,6-1.7,7.8-1.5c0.3,2.1,0.8,4.1,1.5,6c-2.5,1.1-6.2,3.2-8.1,7.5l4.4,2
	c1.4-3,4.2-4.5,5.9-5.2c3.6,5.4,9.2,8.9,15.5,8.9c5.3,0,10-2.4,13.6-6.3c0.7-0.8,1.3-1.6,1.9-2.5c1.7,0.7,4.5,2.2,5.8,5.1l3.6-1.6
	l0.8-0.4c-1.9-4.2-5.4-6.3-7.9-7.4c0.8-1.9,1.3-3.9,1.6-6C53.3,41.2,56.4,41.3,59,42.9z M40.9,18.1c-2.7-1.6-5.7-2.4-8.8-2.4
	c-3.1,0-6.1,0.9-8.8,2.4c0.1-4.8,4-8.6,8.8-8.6C36.9,9.5,40.8,13.3,40.9,18.1z"/>
</svg>
