<?xml version="1.0" encoding="utf-8"?>
<!-- Generator: Adobe Illustrator 19.2.0, SVG Export Plug-In . SVG Version: 6.00 Build 0)  -->
<svg version="1.1" id="Layer_1" xmlns="http://www.w3.org/2000/svg" xmlns:xlink="http://www.w3.org/1999/xlink" x="0px" y="0px"
	 viewBox="0 0 64 64" style="enable-background:new 0 0 64 64;" xml:space="preserve">
<style type="text/css">
	.st0{display:none;}
	.st1{display:inline;}
</style>
<g id="Layer_1_1_">
	<g class="st0">
		<rect class="st1" width="64" height="64"/>
	</g>
</g>
<g>
	<path d="M61.7,14.1c-0.8-0.8-1.8-1.3-3-1.3H5.4c-1.2,0-2.3,0.4-3.1,1.3C1.5,15,1,16,1,17.1v30.8c0,1.2,0.4,2.2,1.3,3
		c0.8,0.9,1.9,1.3,3.1,1.3h38.4V39.5c-1.3-1.4-2-3.3-2-5.4c0-4.6,3.7-8.3,8.3-8.3s8.3,3.7,8.3,8.3c0,2.1-0.8,4-2,5.4v12.7h2.4
		c1.2,0,2.3-0.4,3.1-1.3c0.8-0.8,1.3-1.8,1.3-3V17.1C63,15.9,62.6,14.9,61.7,14.1z M36.5,31.8h-30v-4.3h30V31.8z M36.5,23.1h-30
		v-4.4h30V23.1z"/>
	<path d="M45.8,41.2v13.6l4.2-3l4.2,3V41.2c-1.2,0.7-2.6,1.1-4.2,1.1S47.1,42,45.8,41.2z"/>
</g>
</svg>
