<?xml version="1.0" encoding="utf-8"?>
<!-- Generator: Adobe Illustrator 19.2.0, SVG Export Plug-In . SVG Version: 6.00 Build 0)  -->
<svg version="1.1" id="Layer_1" xmlns="http://www.w3.org/2000/svg" xmlns:xlink="http://www.w3.org/1999/xlink" x="0px" y="0px"
	 viewBox="0 0 64 64" style="enable-background:new 0 0 64 64;" xml:space="preserve">
<style type="text/css">
	.st0{display:none;}
	.st1{display:inline;}
</style>
<g class="st0">
	<rect y="0" class="st1" width="64" height="64"/>
</g>
<g>
	<path d="M36.1,4.6H11.5v54.7h41.1V21L36.1,4.6z M19.9,51.7c0.5,0.5,1.2,0.9,2.1,0.9c1.6,0,2.5-1,2.8-2.3H28c-0.6,3.5-3,5.2-6.1,5.2
		c-1.8,0-3.3-0.7-4.5-1.8c-1.7-1.7-1.6-3.7-1.6-6.6s0-4.9,1.6-6.6c1.2-1.2,2.6-1.8,4.5-1.8c3.1,0,5.5,1.8,6.1,5.2h-3.3
		c-0.3-1.3-1.2-2.3-2.8-2.3c-0.9,0-1.6,0.3-2.1,0.9c-0.6,0.7-0.8,1.5-0.8,4.7S19.3,51,19.9,51.7z M42.7,45.5h-2.1L40.2,48h1.6v2.8
		h-2.1l-0.7,4.4h-3.2l0.7-4.4h-2.7l-0.7,4.4H30l0.7-4.4h-1.6V48h2.1l0.4-2.5h-1.6v-2.8H32l0.7-4.1h3.2l-0.7,4.1h2.7l0.7-4.1h3.2
		l-0.6,4.1h1.6V45.5z M33.5,23.7v-15l15,15H33.5z"/>
	<polygon points="34.3,48 37,48 37.4,45.5 34.7,45.5 	"/>
</g>
</svg>
