<?xml version="1.0" encoding="utf-8"?>
<!-- Generator: Adobe Illustrator 19.2.0, SVG Export Plug-In . SVG Version: 6.00 Build 0)  -->
<svg version="1.1" id="Layer_1" xmlns="http://www.w3.org/2000/svg" xmlns:xlink="http://www.w3.org/1999/xlink" x="0px" y="0px"
	 viewBox="0 0 64 64" style="enable-background:new 0 0 64 64;" xml:space="preserve">
<style type="text/css">
	.st0{display:none;}
	.st1{display:inline;}
</style>
<g id="Layer_1_1_">
	<g class="st0">
		<rect class="st1" width="64" height="64"/>
	</g>
</g>
<g id="Layer_2">
	<g>
		<path d="M21.8,10.2C24.7,7.3,28,6,32,6c4,0,7.6,1.3,10.2,4.2c2.9,2.9,4.2,6.2,4.2,10.2s-1.3,7.6-4.2,10.2
			c-2.9,2.9-6.2,4.2-10.2,4.2s-7.6-1.3-10.2-4.2c-2.9-2.9-4.2-6.2-4.2-10.2S18.9,12.9,21.8,10.2z M60.9,60H3.1v-4.9
			c0-3.1,1.8-5.8,5.3-8.2c3.6-2.4,7.6-4.2,11.8-5.1c4.5-1.1,8.2-1.6,11.8-1.6s7.3,0.4,11.8,1.6s8.5,2.9,11.8,5.1
			c3.6,2.4,5.3,5.1,5.3,8.2V60z"/>
	</g>
</g>
</svg>
