<?xml version="1.0" encoding="utf-8"?>
<!-- Generator: Adobe Illustrator 19.2.0, SVG Export Plug-In . SVG Version: 6.00 Build 0)  -->
<svg version="1.1" id="Layer_1" xmlns="http://www.w3.org/2000/svg" xmlns:xlink="http://www.w3.org/1999/xlink" x="0px" y="0px"
	 viewBox="0 0 64 64" style="enable-background:new 0 0 64 64;" xml:space="preserve">
<style type="text/css">
	.st0{display:none;}
	.st1{display:inline;}
</style>
<g class="st0">
	<rect class="st1" width="64" height="64"/>
</g>
<g>
	<path d="M36.2,42.7H7.8V10.5h48.3v21.2c2,0.5,3.8,1.4,5.4,2.6V5.2H2.5v42.9h24.2v5.4h-5.4v5.3h18.7c-2.8-2.9-4.5-6.9-4.5-11.2
		C35.5,45.9,35.7,44.2,36.2,42.7z"/>
	<path d="M61,47.6c0-0.4,0-0.7-0.1-1.2l3-2.3l-3-5.1l-3.5,1.4c-0.7-0.5-1.3-0.9-2.1-1.2l-0.5-3.7h-6l-0.6,3.7
		c-0.7,0.3-1.4,0.7-2.1,1.2l-3.5-1.4l-0.2,0.4L40,43.6L39.8,44l3,2.3c0,0.5,0,0.8,0,1.2s0,0.7,0,1.2l-3,2.3l0.3,0.5l2.5,4.2l0.2,0.4
		l3.5-1.4c0.7,0.5,1.3,0.9,2.1,1.2l0.5,3.7c0,0,0.2,0,0.6,0h4.9c0.4,0,0.6,0,0.6,0l0.5-3.7c0.7-0.3,1.4-0.7,2.1-1.2l3.5,1.4l0.2-0.4
		l2.5-4.2l0.3-0.5l-3-2.3C61,48.3,61,48,61,47.6z M54.8,50.6c-0.8,0.8-1.8,1.3-3,1.3s-2.1-0.4-3-1.3c-0.8-0.8-1.3-1.9-1.3-3
		c0-1.2,0.4-2.2,1.3-3c0.8-0.8,1.8-1.3,3-1.3s2.1,0.4,3,1.3c0.8,0.8,1.3,1.9,1.3,3C56.1,48.7,55.7,49.8,54.8,50.6z"/>
</g>
</svg>
