<?xml version="1.0" encoding="utf-8"?>
<!-- Generator: Adobe Illustrator 19.2.0, SVG Export Plug-In . SVG Version: 6.00 Build 0)  -->
<svg version="1.1" id="Layer_1" xmlns="http://www.w3.org/2000/svg" xmlns:xlink="http://www.w3.org/1999/xlink" x="0px" y="0px"
	 viewBox="0 0 64 64" style="enable-background:new 0 0 64 64;" xml:space="preserve">
<g>
	<g>
		<path d="M3.6,24.1h26v-7.1h-26V24.1z M6.4,18.7h3.5v3.5H6.4C6.4,22.2,6.4,18.7,6.4,18.7z"/>
		<path d="M3.6,15.6h26V8.4h-26V15.6z M6.4,10.2h3.5v3.5H6.4C6.4,13.7,6.4,10.2,6.4,10.2z"/>
	</g>
	<g>
		<path d="M34.5,24.1h26v-7.1h-26V24.1z M37.3,18.7h3.5v3.5h-3.5C37.3,22.2,37.3,18.7,37.3,18.7z"/>
		<path d="M34.5,15.6h26V8.4h-26V15.6z M37.3,10.2h3.5v3.5h-3.5C37.3,13.7,37.3,10.2,37.3,10.2z"/>
	</g>
	<g>
		<g>
			<path d="M3.6,55.6h26v-7.1h-26V55.6z M6.4,50.2h3.5v3.5H6.4C6.4,53.7,6.4,50.2,6.4,50.2z"/>
			<path d="M3.6,47.1h26v-7.1h-26V47.1z M6.4,41.7h3.5v3.5H6.4C6.4,45.2,6.4,41.7,6.4,41.7z"/>
		</g>
		<g>
			<path d="M34.5,55.6h26v-7.1h-26V55.6z M37.3,50.2h3.5v3.5h-3.5C37.3,53.7,37.3,50.2,37.3,50.2z"/>
			<path d="M34.5,47.1h26v-7.1h-26V47.1z M37.3,41.7h3.5v3.5h-3.5C37.3,45.2,37.3,41.7,37.3,41.7z"/>
		</g>
	</g>
</g>
<polygon points="46,26.5 46,30.5 18,30.5 18,26.5 15,26.5 15,37.5 18,37.5 18,33.5 46,33.5 46,37.5 49,37.5 49,26.5 "/>
</svg>
