<?xml version="1.0" encoding="utf-8"?>
<!-- Generator: Adobe Illustrator 19.2.0, SVG Export Plug-In . SVG Version: 6.00 Build 0)  -->
<svg version="1.1" id="Layer_1" xmlns="http://www.w3.org/2000/svg" xmlns:xlink="http://www.w3.org/1999/xlink" x="0px" y="0px"
	 viewBox="0 0 64 64" style="enable-background:new 0 0 64 64;" xml:space="preserve">
<style type="text/css">
	.st0{display:none;}
	.st1{display:inline;}
</style>
<g class="st0">
	<rect class="st1" width="64" height="64"/>
</g>
<g>
	<g>
		<polygon points="60.8,51.6 59.9,51.8 52,44 58.7,37.2 57.9,34.3 54.9,33.5 49.4,39 43.8,44.6 38.3,50.2 39.1,53.1 42,53.9 
			48.8,47.2 56.6,55.1 56.4,56 58.9,58.5 62.4,57.6 63.3,54.1 		"/>
	</g>
	<polygon points="43,9.8 16.1,36.7 22.5,43.1 49.4,16.2 53.7,5.5 	"/>
	<g>
		<g>
			<polygon points="24,25.6 30.4,19.2 21,9.8 10.3,5.5 14.6,16.2 			"/>
		</g>
		<g>
			<rect x="36.2" y="30.4" transform="matrix(0.7071 -0.7071 0.7071 0.7071 -13.4876 39.3471)" width="9.1" height="11.1"/>
		</g>
	</g>
	<g>
		<polygon points="14.6,39 9.1,33.5 6.1,34.3 5.3,37.2 12,44 4.1,51.8 3.2,51.6 0.7,54.1 1.6,57.6 5.1,58.5 7.6,56 7.4,55.1 
			15.2,47.2 22,53.9 24.9,53.1 25.7,50.2 20.2,44.6 		"/>
	</g>
</g>
</svg>
