<?xml version="1.0" encoding="utf-8"?>
<!-- Generator: Adobe Illustrator 19.2.0, SVG Export Plug-In . SVG Version: 6.00 Build 0)  -->
<svg version="1.1" id="Layer_1" xmlns="http://www.w3.org/2000/svg" xmlns:xlink="http://www.w3.org/1999/xlink" x="0px" y="0px"
	 viewBox="0 0 137.8 23" style="enable-background:new 0 0 137.8 23;" xml:space="preserve">
<style type="text/css">
	.st0{display:none;}
	.st1{display:inline;}
</style>
<g class="st0">
	<rect x="-114.1" y="-20.5" class="st1" width="64" height="64"/>
</g>
<g>
	<polygon points="73.1,3.8 68.9,8.1 64.6,3.8 61.2,7.3 65.5,11.5 61.2,15.7 64.6,19.2 68.9,14.9 73.1,19.2 76.5,15.7 72.3,11.5 
		76.5,7.3 	"/>
	<rect x="33.3" y="11" width="20.1" height="1"/>
	<rect x="84.3" y="11" width="20.1" height="1"/>
	<path d="M1.5,13.9h23.8V9.1H1.5V13.9z M3.9,10.3h2.3v2.3H3.9V10.3z"/>
	<path d="M1.5,21h23.8v-4.8H1.5V21z M3.9,17.4h2.3v2.3H3.9V17.4z"/>
	<path d="M1.5,6.7h23.8V2H1.5V6.7z M3.9,3.2h2.3v2.3H3.9V3.2z"/>
	<path d="M136.2,17.5V1.4H114v16.1h9.1v2h-2v2h8.1v-2h-2v-2H136.2z M116,15.5V3.4h18.1v12.1H116z"/>
</g>
</svg>
