<?xml version="1.0" encoding="utf-8"?>
<!-- Generator: Adobe Illustrator 19.2.0, SVG Export Plug-In . SVG Version: 6.00 Build 0)  -->
<svg version="1.1" id="Layer_1" xmlns="http://www.w3.org/2000/svg" xmlns:xlink="http://www.w3.org/1999/xlink" x="0px" y="0px"
	 viewBox="0 0 64 64" style="enable-background:new 0 0 64 64;" xml:space="preserve">
<style type="text/css">
	.st0{fill:#231F20;}
</style>
<g>
	<path d="M19.9,4.8c3.7-0.7,7.8-1,12.2-1s8.4,0.3,12.2,1c3.7,0.7,6.7,1.7,8.9,3s3.2,2.5,3.2,4v4c0,1.5-1,2.8-3.2,4
		c-2.2,1.3-5.1,2.2-8.9,3c-3.9,0.7-7.9,1-12.3,1s-8.4-0.3-12.2-1c-3.7-0.7-6.7-1.7-8.9-3c-2.2-1.3-3.2-2.5-3.2-4v-4
		c0-1.5,1-2.8,3.2-4S16.2,5.5,19.9,4.8z M18.1,26.5c4.4,0.9,9,1.4,13.9,1.4s9.7-0.5,13.9-1.4c4.4-0.9,7.7-2.2,10.2-4v5.4
		c0,1.5-1,2.8-3.2,4c-2.2,1.3-5.1,2.2-8.9,3c-3.7,0.7-7.8,1-12.2,1s-8.4-0.3-12.2-1c-3.7-0.7-6.7-1.7-8.9-3c-2.2-1.3-3.2-2.5-3.2-4
		v-5.4C10.3,24.4,13.8,25.6,18.1,26.5z M18.1,38.6c4.3,0.9,9,1.4,13.8,1.4s9.7-0.5,13.9-1.4c4.4-0.9,7.7-2.2,10.2-4V40
		c0,1.5-1,2.8-3.2,4c-2.2,1.3-5.1,2.2-8.9,3c-3.7,0.7-7.7,1-12.1,1s-8.4-0.3-12.2-1c-3.7-0.7-6.7-1.7-8.9-3c-2.2-1.3-3.2-2.6-3.2-4
		v-5.4C10.3,36.4,13.8,37.8,18.1,38.6z M18.1,50.8c4.4,0.9,9,1.4,13.9,1.4s9.7-0.5,13.9-1.4c4.4-0.9,7.7-2.2,10.2-4v5.4
		c0,1.5-1,2.8-3.2,4c-2.2,1.3-5.1,2.2-8.9,3c-3.7,0.7-7.8,1-12.2,1s-8.4-0.3-12.2-1c-3.7-0.7-6.7-1.7-8.9-3c-2.2-1.3-3.2-2.6-3.2-4
		v-5.4C10.3,48.5,13.8,49.9,18.1,50.8z"/>
</g>
</svg>
