<?xml version="1.0" encoding="utf-8"?>
<!-- Generator: Adobe Illustrator 19.2.0, SVG Export Plug-In . SVG Version: 6.00 Build 0)  -->
<svg version="1.1" id="Layer_1" xmlns="http://www.w3.org/2000/svg" xmlns:xlink="http://www.w3.org/1999/xlink" x="0px" y="0px"
	 viewBox="0 0 64 64" style="enable-background:new 0 0 64 64;" xml:space="preserve">
<style type="text/css">
	.st0{fill:#231F20;}
</style>
<g>
	<path d="M21.5,8.3c3.2-0.6,6.8-0.9,10.6-0.9c3.8,0,7.3,0.3,10.6,0.9c3.2,0.6,5.8,1.5,7.7,2.6s2.8,2.2,2.8,3.5v3.5
		c0,1.3-0.9,2.4-2.8,3.5s-4.4,1.9-7.7,2.6c-3.4,0.6-6.9,0.9-10.7,0.9s-7.3-0.3-10.6-0.9c-3.2-0.6-5.8-1.5-7.7-2.6s-2.8-2.2-2.8-3.5
		v-3.5c0-1.3,0.9-2.4,2.8-3.5S18.3,8.9,21.5,8.3z M20,27.2c3.8,0.8,7.8,1.2,12.1,1.2c4.3,0,8.4-0.4,12.1-1.2
		c3.8-0.8,6.7-1.9,8.9-3.5v4.7c0,1.3-0.9,2.4-2.8,3.5s-4.4,1.9-7.7,2.6c-3.2,0.6-6.8,0.9-10.6,0.9s-7.3-0.3-10.6-0.9
		c-3.2-0.6-5.8-1.5-7.7-2.6c-1.9-1.1-2.8-2.2-2.8-3.5v-4.7C13.2,25.3,16.2,26.4,20,27.2z M20,37.8c3.7,0.8,7.8,1.2,12,1.2
		s8.4-0.4,12.1-1.2c3.8-0.8,6.7-1.9,8.9-3.5V39c0,1.3-0.9,2.4-2.8,3.5s-4.4,1.9-7.7,2.6C39.3,45.7,35.8,46,32,46s-7.3-0.3-10.6-0.9
		c-3.2-0.6-5.8-1.5-7.7-2.6s-2.8-2.3-2.8-3.5v-4.7C13.2,35.9,16.2,37,20,37.8z M20,48.4c3.8,0.8,7.8,1.2,12.1,1.2
		c4.3,0,8.4-0.4,12.1-1.2c3.8-0.8,6.7-1.9,8.9-3.5v4.7c0,1.3-0.9,2.4-2.8,3.5s-4.4,1.9-7.7,2.6c-3.2,0.6-6.8,0.9-10.6,0.9
		s-7.3-0.3-10.6-0.9c-3.2-0.6-5.8-1.5-7.7-2.6s-2.8-2.3-2.8-3.5v-4.7C13.2,46.4,16.2,47.5,20,48.4z"/>
</g>
</svg>
