<?xml version="1.0" encoding="utf-8"?>
<!-- Generator: Adobe Illustrator 19.2.0, SVG Export Plug-In . SVG Version: 6.00 Build 0)  -->
<svg version="1.1" id="Layer_1" xmlns="http://www.w3.org/2000/svg" xmlns:xlink="http://www.w3.org/1999/xlink" x="0px" y="0px"
	 viewBox="0 0 64 64" style="enable-background:new 0 0 64 64;" xml:space="preserve">
<g>
	<path d="M56.4,15.8v-4c0-1.5-1-2.7-3.2-4s-5.2-2.3-8.9-3c-3.8-0.7-7.8-1-12.2-1c-4.4,0-8.5,0.3-12.2,1c-3.7,0.7-6.8,1.8-9,3
		c-2.2,1.2-3.2,2.5-3.2,4v4c0,1.5,1,2.7,3.2,4c1.3,0.8,2.9,1.4,4.8,2v4.1c-3.2-0.8-5.9-1.9-8.2-3.4v5.4c0,1.5,1,2.7,3.2,4
		c1.4,0.8,3,1.5,5,2.1v4.1c-3.2-0.8-5.9-2-8.2-3.5V40c0,1.4,1,2.7,3.2,4c1.4,0.8,3,1.5,5,2.1v4.1c-3.2-0.9-5.9-2-8.2-3.4v5.4
		c0,1.4,1,2.7,3.2,4s5.2,2.3,8.9,3c3.8,0.7,7.8,1,12.2,1c4.4,0,8.5-0.3,12.2-1c3.8-0.8,6.7-1.7,8.9-3c2.2-1.2,3.2-2.5,3.2-4v-5.4
		c-1.3,0.9-2.9,1.8-4.7,2.4l-0.4-0.7l-1.6-3c1.2-0.4,2.3-0.9,3.3-1.5c2.2-1.2,3.2-2.5,3.2-4v-5.4c-2.5,1.8-5.7,3.1-10.1,4l-0.9-1.6
		c0.9-0.8,1.7-1.8,2.4-2.9c2.2-0.6,4-1.3,5.5-2.2c2.2-1.2,3.2-2.5,3.2-4v-5.4c-1.7,1.3-3.9,2.3-6.5,3.1c-0.1-1.3-0.3-2.7-0.7-3.9
		c1.7-0.5,3.1-1.1,4.3-1.8C55.4,18.6,56.4,17.3,56.4,15.8z M39.9,35.7l7.6,14.7h-10l-6.2-13.1h-2.9v13.1h-8.7V15.1h14
		c7.8,0,12,5.5,12,11.3C45.6,31.3,42.7,34.3,39.9,35.7z"/>
	<path d="M33.2,22.9h-4.9V30h4.9c2.4,0,3.8-1.7,3.8-3.6C37,24.6,35.6,22.9,33.2,22.9z"/>
</g>
</svg>
