<?xml version="1.0" encoding="utf-8"?>
<!-- Generator: Adobe Illustrator 19.2.0, SVG Export Plug-In . SVG Version: 6.00 Build 0)  -->
<svg version="1.1" id="Layer_1" xmlns="http://www.w3.org/2000/svg" xmlns:xlink="http://www.w3.org/1999/xlink" x="0px" y="0px"
	 viewBox="0 0 64 64" style="enable-background:new 0 0 64 64;" xml:space="preserve">
<style type="text/css">
	.st0{display:none;}
	.st1{display:inline;}
</style>
<g class="st0">
	<rect class="st1" width="64" height="64"/>
</g>
<g>
	<g>
		<path d="M20.9,43.2c-0.5-1.4-0.2-3,1-4l1.7-1.6c-4.1,0-8.1-0.4-11.6-1.2c-3.8-0.7-6.8-1.9-9-3.5v4.7c0,1.2,0.9,2.4,2.8,3.5
			c1.9,1.1,4.5,2,7.7,2.6c2.7,0.5,5.5,0.8,8.5,0.9C21.5,44.3,21.1,43.8,20.9,43.2z"/>
		<path d="M24.1,48.3c-4.3,0-8.3-0.4-12.1-1.2s-6.8-2-9.1-3.5v4.7c0,1.2,0.9,2.4,2.8,3.5c1.9,1.1,4.5,2,7.7,2.6
			c3.3,0.6,6.8,0.9,10.6,0.9c0.9,0,1.8,0,2.6-0.1v-7C25.8,48.2,24.9,48.3,24.1,48.3z"/>
		<path d="M5.8,20.2c1.9,1.1,4.5,2,7.7,2.6c3.3,0.6,6.8,0.9,10.6,0.9s7.3-0.3,10.6-0.9c3.3-0.7,5.8-1.5,7.7-2.6
			c1.9-1.1,2.8-2.2,2.8-3.5v-3.5c0-1.3-0.9-2.4-2.8-3.5c-1.9-1.1-4.5-2-7.7-2.6c-3.3-0.6-6.8-0.9-10.6-0.9s-7.4,0.3-10.6,0.9
			c-3.2,0.6-5.8,1.5-7.7,2.6C3.9,10.8,3,11.9,3,13.2v3.5C3,18,3.9,19.1,5.8,20.2z"/>
		<path d="M36.2,26c-3.7,0.8-7.8,1.2-12.1,1.2S15.8,26.8,12,26s-6.8-1.9-9.1-3.5v4.7c0,1.3,0.9,2.4,2.8,3.5c1.9,1.1,4.5,2,7.7,2.6
			c3.3,0.6,6.8,0.9,10.6,0.9c1.2,0,2.4,0,3.6-0.1l9.1-8.2C36.5,25.9,36.4,25.9,36.2,26z"/>
	</g>
	<polygon points="44.2,24 24.3,41.9 30.3,41.9 30.3,57.8 40.2,57.8 40.2,45.9 40.2,45.9 48.1,45.9 48.2,45.9 48.2,57.8 58.1,57.8 
		58.1,41.9 64,41.9 	"/>
</g>
</svg>
