<?xml version="1.0" encoding="utf-8"?>
<!-- Generator: Adobe Illustrator 19.2.0, SVG Export Plug-In . SVG Version: 6.00 Build 0)  -->
<svg version="1.1" id="Layer_1" xmlns="http://www.w3.org/2000/svg" xmlns:xlink="http://www.w3.org/1999/xlink" x="0px" y="0px"
	 viewBox="0 0 64 64" style="enable-background:new 0 0 64 64;" xml:space="preserve">
<style type="text/css">
	.st0{fill:#231F20;}
</style>
<path class="st0" d="M53.2,15.3v-0.8c0-0.4-0.1-0.8-0.3-1.2c-0.4-0.8-1.2-1.6-2.5-2.3c-1.9-1.1-4.5-2-7.7-2.6
	C39.3,7.8,35.8,7.5,32,7.5s-7.4,0.3-10.6,0.9C18.3,9,15.5,9.8,13.7,11c-1.3,0.8-2.1,1.5-2.5,2.3c-0.2,0.4-0.3,0.8-0.3,1.2v0.8h0v3.5
	l0,0v7.5l0,0v2.2c0,0.9,0.4,1.7,1.3,2.4l1.3,4.9c-0.9-0.4-1.8-0.9-2.6-1.5V39c0,1.2,0.9,2.4,2.8,3.5c0.6,0.3,1.2,0.6,1.9,0.9
	l1.1,4.1c-2.3-0.7-4.2-1.6-5.8-2.6v4.7c0,1.2,0.9,2.4,2.8,3.5c1.9,1.1,4.5,2,7.7,2.6c3.3,0.6,6.8,0.9,10.6,0.9s7.4-0.3,10.6-0.9
	c3.3-0.7,5.8-1.5,7.7-2.6s2.8-2.2,2.8-3.5v-4.7c-1.5,1.1-3.4,2-5.7,2.7l1.2-4.3c0.6-0.3,1.1-0.5,1.6-0.8C52,41.3,53,40.3,53,39v-4.7
	c-0.7,0.5-1.5,1-2.3,1.4l1.3-4.9c0.7-0.7,1.2-1.5,1.2-2.3v-1.7v0v-3L53.2,15.3L53.2,15.3z M47.1,33.3L47.1,33.3L46,37.3l0,0l-2,7.4
	l0,0l-0.9,3.2h-6.1l-0.7-2.1l0,0L34,38.9l0,0l-1.1-3.5l0,0L32,32.8l-0.9,2.6l0,0L30.6,37l-3.6,10.9h-6.1L18,37.3l0,0L17,33.4l0,0
	l-2.1-7.6l0,0l-0.2-0.6L14,22.7l-1.5-5.4h7.9l1.7,6.9l0,0l0.4,1.6l1.9,7.7l1.6-5.3l0-0.1l0.4-1.3l2.9-9.5h5.3l2.9,9.3l0.5,1.6l0,0
	l1.6,5.3l1.4-5.7l0,0l0.9-3.6l0,0l1.7-6.9h7.9L47.1,33.3z"/>
</svg>
