<?xml version="1.0" encoding="utf-8"?>
<!-- Generator: Adobe Illustrator 19.2.0, SVG Export Plug-In . SVG Version: 6.00 Build 0)  -->
<svg version="1.1" id="Layer_1" xmlns="http://www.w3.org/2000/svg" xmlns:xlink="http://www.w3.org/1999/xlink" x="0px" y="0px"
	 viewBox="0 0 64 64" style="enable-background:new 0 0 64 64;" xml:space="preserve">
<style type="text/css">
	.st0{fill:#231F20;}
</style>
<path class="st0" d="M50.3,21.5C50.3,21.5,50.3,21.5,50.3,21.5c2-1.1,2.9-2.2,2.9-3.5v-3.5c0-1.3-0.9-2.4-2.8-3.5
	c-1.9-1.1-4.5-2-7.7-2.6C39.3,7.8,35.8,7.5,32,7.5s-7.4,0.3-10.6,0.9C18.3,9,15.5,9.8,13.7,11c-1.9,1.1-2.8,2.2-2.8,3.5V18
	c0,1.3,0.9,2.4,2.8,3.5c0,0,0.1,0,0.1,0v1.7v2.2c-1.1-0.5-2-1-2.9-1.6v4.7c0,1.3,0.9,2.4,2.8,3.5c0,0,0.1,0,0.1,0v1.7v2.2
	c-1.1-0.5-2-1-2.9-1.6V39c0,1.2,0.9,2.4,2.8,3.5c0,0,0.1,0,0.1,0v1.7v2.2c-1.1-0.5-2-1-2.9-1.5v4.7c0,1.2,0.9,2.4,2.8,3.5
	c1.9,1.1,4.5,2,7.7,2.6c3.3,0.6,6.8,0.9,10.6,0.9s7.4-0.3,10.6-0.9c3.3-0.7,5.8-1.5,7.7-2.6s2.8-2.2,2.8-3.5v-4.7
	c-0.8,0.6-1.7,1.1-2.8,1.6v-2.4v-1.7c1.8-1.1,2.7-2.2,2.7-3.4v-4.7c-0.8,0.6-1.7,1.1-2.7,1.5v-2.2v-1.7c1.9-1.1,2.8-2.2,2.8-3.5
	v-4.7c-0.8,0.6-1.7,1.1-2.8,1.6v-2.2V21.5z M36.5,37.2l-0.9,1.6l-1.1,2h-4.8l-1.1-2l-2.1-3.6h0l-1.1-2v1.8v3.5v7v2.3h-7.1h-0.4v-0.1
	v-3.6v-6.9v-3.6v-6.9v-3.6v-5.9h7.4l3.9,7.6l1.8,3.5l1.2,2.4l1.7-3.4l1.3-2.6l3.9-7.6h7.4v5.8v3.6v6.9v3.6v6.9v3.8v0.1H46h-7.2v-2.3
	v-7v-3.5v-1.8L36.5,37.2z"/>
</svg>
