<?xml version="1.0" encoding="utf-8"?>
<!-- Generator: Adobe Illustrator 19.2.0, SVG Export Plug-In . SVG Version: 6.00 Build 0)  -->
<svg version="1.1" id="Layer_1" xmlns="http://www.w3.org/2000/svg" xmlns:xlink="http://www.w3.org/1999/xlink" x="0px" y="0px"
	 viewBox="0 0 64 64" style="enable-background:new 0 0 64 64;" xml:space="preserve">
<style type="text/css">
	.st0{fill:#231F20;}
</style>
<path class="st0" d="M56.3,12.8v-1c0-0.5-0.1-0.9-0.3-1.3c-0.4-0.9-1.4-1.8-2.9-2.7c-2.2-1.3-5.2-2.3-8.9-3c-3.8-0.7-7.8-1-12.2-1
	s-8.5,0.3-12.2,1c-3.7,0.7-6.8,1.7-9,3C9.4,8.7,8.4,9.5,8,10.5c-0.2,0.4-0.3,0.9-0.3,1.3v1h0v4l0,0v8.7l0,0v2.5c0,1,0.5,1.9,1.4,2.8
	l1.5,5.6c-1.1-0.5-2.1-1.1-3-1.7V40c0,1.4,1,2.8,3.2,4c0.7,0.4,1.4,0.7,2.2,1.1l1.3,4.7c-2.6-0.8-4.9-1.9-6.7-3v5.4
	c0,1.4,1,2.8,3.2,4c2.2,1.3,5.2,2.3,8.9,3c3.8,0.7,7.8,1,12.2,1s8.5-0.3,12.2-1c3.8-0.8,6.7-1.7,8.9-3s3.2-2.5,3.2-4v-5.4
	c-1.8,1.3-3.9,2.3-6.6,3.1l1.3-4.9c0.7-0.3,1.3-0.6,1.9-0.9c2.2-1.3,3.2-2.5,3.2-4v-5.4c-0.8,0.6-1.7,1.1-2.7,1.6l1.5-5.6
	c0.9-0.8,1.4-1.7,1.4-2.6v-2v0v-3.4L56.3,12.8L56.3,12.8z M49.3,33.5L49.3,33.5l-1.2,4.5l0,0l-2.3,8.5l0,0l-1,3.7h-7.1l-0.8-2.4l0,0
	l-2.6-7.9l0,0l-1.3-4l0,0l-1-3l-1,3l0,0l-0.6,1.8l-4.1,12.5h-7l-3.3-12.2l0,0l-1.2-4.5l0,0l-2.4-8.7l0,0l-0.2-0.6l-0.8-2.9l-1.7-6.2
	h9l2,7.9l0,0l0.4,1.8l2.2,8.9l1.9-6.1l0-0.1l0.5-1.5l3.3-10.9h6.1l3.3,10.7l0.5,1.8l0,0l1.9,6.1l1.6-6.5l0,0l1-4.2l0,0l2-7.9h9
	L49.3,33.5z"/>
</svg>
