<?xml version="1.0" encoding="utf-8"?>
<!-- Generator: Adobe Illustrator 19.2.0, SVG Export Plug-In . SVG Version: 6.00 Build 0)  -->
<svg version="1.1" id="Layer_1" xmlns="http://www.w3.org/2000/svg" xmlns:xlink="http://www.w3.org/1999/xlink" x="0px" y="0px"
	 viewBox="0 0 64 64" style="enable-background:new 0 0 64 64;" xml:space="preserve">
<style type="text/css">
	.st0{fill:#231F20;}
</style>
<path class="st0" d="M53,19.9C53,19.9,53.1,19.9,53,19.9c2.3-1.3,3.3-2.6,3.3-4.1v-4c0-1.5-1-2.8-3.2-4c-2.2-1.3-5.2-2.3-8.9-3
	c-3.8-0.7-7.8-1-12.2-1s-8.5,0.3-12.2,1c-3.7,0.7-6.8,1.7-9,3c-2.2,1.3-3.2,2.5-3.2,4v4c0,1.5,1,2.8,3.2,4c0,0,0.1,0,0.1,0v1.9v2.5
	c-1.2-0.5-2.3-1.1-3.3-1.8v5.4c0,1.5,1,2.8,3.2,4c0,0,0.1,0,0.1,0v1.9v2.5c-1.2-0.5-2.3-1.2-3.3-1.8V40c0,1.4,1,2.8,3.2,4
	c0,0,0.1,0,0.1,0V46v2.6c-1.2-0.5-2.3-1.1-3.3-1.8v5.4c0,1.4,1,2.8,3.2,4c2.2,1.3,5.2,2.3,8.9,3c3.8,0.7,7.8,1,12.2,1
	s8.5-0.3,12.2-1c3.8-0.8,6.7-1.7,8.9-3s3.2-2.5,3.2-4v-5.4c-0.9,0.7-2,1.3-3.2,1.8v-2.7v-2c2.1-1.2,3.1-2.5,3.1-3.9v-5.4
	c-0.9,0.7-1.9,1.2-3.1,1.8v-2.5v-1.9c2.2-1.3,3.2-2.5,3.2-4v-5.4c-0.9,0.7-2,1.3-3.2,1.8v-2.5V19.9z M37.2,38l-1.1,1.9l-1.3,2.3
	h-5.5l-1.3-2.3l-2.4-4.2h0l-1.3-2.3v2.1v4v8.1v2.7H16h-0.5v-0.1V46V38v-4.1v-8v-4.1v-6.7h8.5l4.4,8.7l2.1,4.1l1.4,2.7l2-3.9l1.5-2.9
	l4.4-8.7h8.5v6.7v4.1v7.9V38v7.9v4.3v0.1h-0.3h-8.3v-2.7v-8.1v-4v-2.1L37.2,38z"/>
</svg>
