<?xml version="1.0" encoding="utf-8"?>
<!-- Generator: Adobe Illustrator 19.2.0, SVG Export Plug-In . SVG Version: 6.00 Build 0)  -->
<svg version="1.1" id="Layer_1" xmlns="http://www.w3.org/2000/svg" xmlns:xlink="http://www.w3.org/1999/xlink" x="0px" y="0px"
	 viewBox="0 0 64 64" style="enable-background:new 0 0 64 64;" xml:space="preserve">
<style type="text/css">
	.st0{fill:#231F20;}
</style>
<g>
	<path class="st0" d="M56.3,15.8v-4c0-1.5-1-2.8-3.2-4c-2.2-1.3-5.2-2.3-8.9-3c-3.8-0.7-7.8-1-12.2-1s-8.5,0.3-12.2,1
		c-3.7,0.7-6.8,1.7-9,3c-2.2,1.3-3.2,2.5-3.2,4v4c0,1.5,1,2.8,3.2,4c1.3,0.7,2.8,1.4,4.6,1.9v1.1v3C12.3,25,9.8,24,7.7,22.5v5.4
		c0,1.5,1,2.8,3.2,4c1.3,0.7,2.8,1.4,4.6,1.9V35v3c-3.1-0.8-5.7-2-7.8-3.4V40c0,1.4,1,2.8,3.2,4c1.3,0.7,2.8,1.4,4.6,1.9v1.1v3.1
		c-3.1-0.9-5.7-2-7.8-3.4v5.4c0,1.4,1,2.8,3.2,4c2.2,1.3,5.2,2.3,8.9,3c3.8,0.7,7.8,1,12.2,1s8.5-0.3,12.2-1c3.8-0.8,6.7-1.7,8.9-3
		s3.2-2.5,3.2-4v-5.4c-2.5,1.8-5.9,3.1-10.2,4c-3.9,0.8-8.2,1.3-12.7,1.4v-1.9V48c3.8-0.1,7.4-0.4,10.7-1c3.8-0.8,6.7-1.7,8.9-3
		c2.2-1.3,3.2-2.5,3.2-4v-5.4c-2.5,1.8-5.9,3.1-10.2,4c-0.4,0.1-0.8,0.2-1.2,0.2c1.8-1.4,3.2-3.2,4.2-5.2c1.6-0.5,2.9-1.1,4.1-1.7
		c2.2-1.3,3.2-2.5,3.2-4v-5.4c-1.6,1.1-3.4,2-5.6,2.8c0-0.1,0-0.2,0-0.3c0-0.3-0.1-0.6-0.1-1l0,0l0,0c0-0.1,0-0.2,0-0.3
		c-0.1-0.4-0.1-0.7-0.2-1.2l0,0l0-0.1c-0.1-0.3-0.2-0.7-0.3-1c1.2-0.4,2.4-0.9,3.3-1.5C55.3,18.6,56.3,17.3,56.3,15.8z M38.6,37
		c-0.1,0-0.2,0.1-0.4,0.1c-0.2,0.1-0.4,0.1-0.6,0.2c-0.2,0-0.4,0.1-0.6,0.1c-0.2,0-0.4,0.1-0.5,0.1c-0.2,0-0.5,0.1-0.8,0.1
		c-0.2,0-0.3,0-0.5,0.1c-0.4,0-0.9,0.1-1.3,0.1h-5.3v2.2V48v2.3h-8.7v-3.2V39v-4v-8.1v-4v-7.8H34c6.1,0,9.9,3.3,11.4,7.5h0
		c0,0,0,0,0,0c0.1,0.3,0.2,0.6,0.3,0.9c0,0,0,0,0,0c0.1,0.3,0.1,0.6,0.2,0.9c0,0.1,0,0.2,0,0.2c0,0.2,0.1,0.5,0.1,0.7
		c0,0.3,0,0.7,0,1v0C46,30.9,43.4,35.3,38.6,37z"/>
	<path class="st0" d="M37.3,25.7c0,0,0-0.1,0-0.1c-0.1-0.2-0.1-0.4-0.2-0.6c0,0,0,0,0,0c-0.2-0.4-0.5-0.8-0.9-1.2
		c-0.6-0.6-1.5-0.9-2.6-0.9h-4.9v1v4V30h4.9c1.8,0,3-1,3.5-2.2c0.2-0.4,0.2-0.9,0.2-1.3c0,0,0,0,0,0C37.4,26.2,37.3,25.9,37.3,25.7z
		"/>
</g>
</svg>
