<?xml version="1.0" encoding="utf-8"?>
<!-- Generator: Adobe Illustrator 19.2.0, SVG Export Plug-In . SVG Version: 6.00 Build 0)  -->
<svg version="1.1" id="Layer_1" xmlns="http://www.w3.org/2000/svg" xmlns:xlink="http://www.w3.org/1999/xlink" x="0px" y="0px"
	 viewBox="0 0 64 64" style="enable-background:new 0 0 64 64;" xml:space="preserve">
<style type="text/css">
	.st0{fill:#231F20;}
</style>
<g>
	<path class="st0" d="M53.2,18v-3.5c0-1.3-0.9-2.4-2.8-3.5c-1.9-1.1-4.5-2-7.7-2.6C39.3,7.8,35.8,7.5,32,7.5s-7.4,0.3-10.6,0.9
		C18.3,9,15.5,9.8,13.7,11c-1.9,1.1-2.8,2.2-2.8,3.5V18c0,1.3,0.9,2.4,2.8,3.5c1.1,0.6,2.4,1.2,4,1.7v1v2.6c-2.7-0.7-5-1.7-6.8-2.9
		v4.7c0,1.3,0.9,2.4,2.8,3.5c1.1,0.6,2.4,1.2,4,1.7v1v2.6c-2.7-0.7-5-1.7-6.8-3V39c0,1.2,0.9,2.4,2.8,3.5c1.1,0.6,2.4,1.2,4,1.7v1
		v2.7c-2.7-0.8-5-1.7-6.8-2.9v4.7c0,1.2,0.9,2.4,2.8,3.5c1.9,1.1,4.5,2,7.7,2.6c3.3,0.6,6.8,0.9,10.6,0.9s7.4-0.3,10.6-0.9
		c3.3-0.7,5.8-1.5,7.7-2.6s2.8-2.2,2.8-3.5v-4.7c-2.2,1.6-5.1,2.7-8.9,3.5c-3.4,0.7-7.1,1.1-11,1.2v-1.6v-2c3.3-0.1,6.5-0.3,9.3-0.9
		c3.3-0.7,5.8-1.5,7.7-2.6C52,41.3,53,40.3,53,39v-4.7c-2.2,1.6-5.1,2.7-8.9,3.5c-0.3,0.1-0.7,0.1-1,0.2c1.6-1.2,2.8-2.7,3.7-4.5
		c1.4-0.4,2.5-0.9,3.5-1.5c1.9-1.1,2.8-2.2,2.8-3.5v-4.7c-1.4,1-3,1.8-4.9,2.4c0-0.1,0-0.2,0-0.3c0-0.3-0.1-0.6-0.1-0.8l0,0l0,0
		c0-0.1,0-0.2,0-0.3c-0.1-0.3-0.1-0.6-0.2-1l0,0l0-0.1c-0.1-0.3-0.2-0.6-0.3-0.9c1.1-0.4,2-0.8,2.9-1.3C52.3,20.3,53.2,19.3,53.2,18
		z M37.7,36.3c-0.1,0-0.2,0.1-0.3,0.1c-0.2,0.1-0.3,0.1-0.5,0.1c-0.2,0-0.3,0.1-0.5,0.1c-0.2,0-0.3,0.1-0.5,0.1
		c-0.2,0-0.4,0.1-0.7,0.1c-0.1,0-0.3,0-0.4,0c-0.4,0-0.7,0.1-1.1,0.1h-4.6v1.9v7v2h-7.5v-2.8v-7v-3.5v-7v-3.5v-6.8h12.1
		c5.3,0,8.6,2.9,9.9,6.5h0c0,0,0,0,0,0c0.1,0.3,0.2,0.5,0.2,0.8c0,0,0,0,0,0c0.1,0.3,0.1,0.5,0.2,0.8c0,0.1,0,0.1,0,0.2
		c0,0.2,0.1,0.4,0.1,0.6c0,0.3,0,0.6,0,0.9v0C44.2,31.1,42,34.9,37.7,36.3z"/>
	<path class="st0" d="M36.6,26.5C36.6,26.5,36.6,26.5,36.6,26.5c-0.1-0.3-0.1-0.5-0.2-0.6c0,0,0,0,0,0c-0.2-0.4-0.4-0.7-0.8-1
		c-0.5-0.5-1.3-0.8-2.2-0.8h-4.3v0.8v3.5v1.9h4.3c1.6,0,2.6-0.9,3.1-2c0.1-0.4,0.2-0.7,0.2-1.1c0,0,0,0,0,0
		C36.7,26.9,36.6,26.7,36.6,26.5z"/>
</g>
</svg>
