<?xml version="1.0" encoding="utf-8"?>
<!-- Generator: Adobe Illustrator 19.2.0, SVG Export Plug-In . SVG Version: 6.00 Build 0)  -->
<svg version="1.1" id="Layer_1" xmlns="http://www.w3.org/2000/svg" xmlns:xlink="http://www.w3.org/1999/xlink" x="0px" y="0px"
	 viewBox="0 0 64 64" style="enable-background:new 0 0 64 64;" xml:space="preserve">
<style type="text/css">
	.st0{fill:#231F20;}
</style>
<g>
	<path d="M0,21c0,1.3,0.9,2.4,2.8,3.5c1.3,0.8,3,1.5,5,2v-1l0,0c0,0,0,0,0-0.1v-3.5c0-0.9,0.2-1.6,0.5-2.3c-3.4-0.8-6.2-1.8-8.3-3.3
		V21z"/>
	<path d="M18.7,13.3v-2.8l0,0c0,0,0,0,0-0.1V7c0-3.6,3.2-5.5,4.3-6.1c0.5-0.3,1-0.6,1.6-0.8C23.5,0,22.4,0,21.2,0
		c-3.8,0-7.4,0.3-10.6,0.9C7.4,1.5,4.7,2.4,2.8,3.5C0.9,4.6,0,5.7,0,7v3.5c0,1.3,0.9,2.4,2.8,3.5c1.9,1.1,4.5,2,7.7,2.6
		c0.1,0,0.2,0,0.3,0.1c0.5-0.4,1-0.7,1.3-0.8C13.9,14.8,16.1,14,18.7,13.3z"/>
	<path d="M7.8,41.7v-1.1C4.6,39.8,2,38.7,0,37.4v4.7c0,1.2,0.9,2.4,2.8,3.5c1.3,0.8,3,1.5,5,2v-0.8l0,0c0-0.1,0-0.3,0-0.4V41.7z"/>
	<path d="M2.8,35c1.3,0.8,3,1.5,5,2v-1l0,0c0,0,0,0,0-0.1v-4.7V30C4.6,29.3,2,28.2,0,26.8v4.7C0,32.7,0.9,33.9,2.8,35z"/>
	<path d="M56,41.7v4.7c0,0,0,0.1,0,0.1l0.1-0.1v1.2c1.3-0.4,2.5-0.7,3.5-1.2c0.6-0.2,1.1-0.5,1.5-0.8c0.7-0.4,1.3-0.8,1.7-1.2
		c0.7-0.7,1.1-1.4,1.1-2.3v-4.7c-2,1.5-4.6,2.5-8,3.3V41.7z"/>
	<path d="M61.2,3.5c-1.9-1.1-4.5-2-7.7-2.6C50.2,0.3,46.7,0,42.9,0c-1.2,0-2.3,0-3.5,0.1c-2.5,0.1-4.9,0.4-7.1,0.8
		c-0.1,0-0.2,0-0.3,0.1c-0.3,0.1-0.6,0.1-0.9,0.2c-0.8,0.2-1.5,0.4-2.2,0.6c-1,0.3-2,0.6-2.9,1C25.5,3,25,3.2,24.5,3.5
		c-1.9,1.1-2.8,2.2-2.8,3.5v3.5c0,0.7,0.3,1.4,0.9,2.1c2.9-0.4,6.1-0.7,9.4-0.7c3.3,0,6.4,0.2,9.3,0.7c0.6,0.1,1.2,0.2,1.8,0.3
		c0.7,0.1,1.4,0.3,2,0.4c2.6,0.6,4.8,1.5,6.7,2.5c0.3,0.2,0.8,0.5,1.3,0.8c0.1,0,0.2,0,0.3-0.1c3.3-0.7,5.8-1.5,7.7-2.6
		c1.9-1.1,2.8-2.2,2.8-3.5V7C64,5.7,63.1,4.6,61.2,3.5z"/>
	<path d="M56.2,21.9v3.5c0,0.4,0,0.7-0.1,1.1c1.3-0.4,2.5-0.7,3.5-1.2c0.6-0.2,1.1-0.5,1.5-0.8c0.7-0.4,1.3-0.8,1.7-1.2
		c0.7-0.7,1.1-1.4,1.1-2.3v-4.7c-2.1,1.5-4.8,2.6-8.2,3.3C56,20.3,56.2,21.1,56.2,21.9z"/>
	<path d="M61,35c1.9-1.1,2.8-2.2,2.8-3.5v-4.7c-0.5,0.4-1.1,0.8-1.8,1.1c-0.6,0.3-1.3,0.7-2.1,0.9c-0.7,0.3-1.5,0.6-2.4,0.8
		c-0.5,0.1-1,0.3-1.5,0.4v1.2v4.7c0,0.4,0,0.7-0.1,1.1c0.2-0.1,0.5-0.1,0.7-0.2c1.4-0.4,2.5-0.8,3.6-1.4C60.5,35.3,60.8,35.1,61,35z
		"/>
	<path d="M49.2,54.3c-0.7,0.3-1.5,0.6-2.4,0.8c-0.8,0.2-1.7,0.5-2.7,0.7C40.5,56.6,36.3,57,32,57s-8.3-0.4-12.1-1.2s-6.8-2-9.1-3.5
		V57c0,1.2,0.9,2.4,2.8,3.5c1.9,1.1,4.5,2,7.7,2.6C24.7,63.7,28.2,64,32,64c1,0,1.9,0,2.8-0.1c1.8-0.1,3.6-0.2,5.3-0.4
		c0.8-0.1,1.7-0.2,2.5-0.4c1.2-0.3,2.4-0.5,3.4-0.8c1.4-0.4,2.5-0.8,3.6-1.4c0.3-0.1,0.5-0.3,0.7-0.4c1.9-1.1,2.8-2.2,2.8-3.5v-4.7
		c-0.5,0.4-1.1,0.8-1.8,1.1C50.6,53.7,49.9,54.1,49.2,54.3z"/>
	<path d="M13.7,49.9c1.5,0.9,3.4,1.6,5.7,2.2c0.6,0.2,1.3,0.3,2,0.4c3.3,0.6,6.8,0.9,10.6,0.9s7.3-0.3,10.5-0.9
		c0.7-0.1,1.3-0.3,1.9-0.4c2.4-0.6,4.3-1.3,5.8-2.2c0.8-0.5,1.5-1,1.9-1.5c0.6-0.6,0.9-1.3,0.9-2v-4.7c-0.8,0.6-1.7,1.1-2.8,1.6
		c-0.7,0.3-1.4,0.6-2.2,0.9c-0.4,0.1-0.8,0.3-1.2,0.4c-0.8,0.2-1.6,0.4-2.4,0.6c-0.1,0-0.2,0-0.3,0.1c-1.7,0.4-3.6,0.7-5.5,0.9
		c-0.1,0-0.2,0-0.3,0c-2,0.2-4.1,0.3-6.2,0.3c-2.3,0-4.5-0.1-6.6-0.4c-1.9-0.2-3.7-0.5-5.4-0.8c-0.1,0-0.2,0-0.3-0.1
		c-3.6-0.7-6.5-1.9-8.8-3.4v4.7c0,0.7,0.3,1.3,0.9,2C12.2,48.9,12.8,49.4,13.7,49.9z"/>
	<path d="M49.2,33.3c-0.7,0.3-1.5,0.5-2.4,0.8c-0.5,0.1-1.1,0.3-1.6,0.4c-0.3,0.1-0.7,0.2-1,0.2c-1.9,0.4-4,0.7-6.1,0.9
		c-2,0.2-4,0.3-6,0.3c-2.2,0-4.4-0.1-6.4-0.3c-1.9-0.2-3.8-0.5-5.7-0.9c-0.4-0.1-0.8-0.2-1.3-0.3c-3.2-0.8-5.8-1.8-7.9-3.2v4.7
		c0,0.2,0,0.3,0,0.5c0.1,0.3,0.2,0.6,0.3,0.9c0.1,0.2,0.2,0.3,0.3,0.5c0.5,0.6,1.1,1.1,2.1,1.6c1.3,0.8,3,1.5,5,2
		c0.8,0.2,1.7,0.4,2.6,0.6c0.1,0,0.2,0,0.4,0.1c0.1,0,0.1,0,0.2,0c3.1,0.5,6.5,0.8,10.1,0.8c1,0,1.9,0,2.8-0.1
		c1.8-0.1,3.6-0.2,5.3-0.4c0.7-0.1,1.3-0.2,2-0.3c0,0,0.1,0,0.2,0c0.1,0,0.2,0,0.3-0.1c1-0.2,1.8-0.4,2.7-0.6
		c0.2-0.1,0.5-0.1,0.7-0.2c1.4-0.4,2.5-0.8,3.6-1.4c0.3-0.1,0.5-0.3,0.7-0.4c0.9-0.5,1.6-1.1,2.1-1.6c0.5-0.6,0.7-1.2,0.7-1.9v-4.7
		c-0.5,0.4-1.1,0.8-1.8,1.1C50.6,32.6,49.9,33,49.2,33.3z"/>
	<path d="M52.1,19.6c-0.4-0.4-1-0.8-1.7-1.2c-0.7-0.4-1.5-0.8-2.3-1.1c0,0-0.1,0-0.1,0c-0.8-0.3-1.7-0.6-2.7-0.9
		c-0.4-0.1-0.9-0.2-1.4-0.3c-0.4-0.1-0.8-0.2-1.2-0.2c-1.8-0.3-3.6-0.6-5.5-0.7C36.4,15,35.6,15,34.8,15c-0.9,0-1.8-0.1-2.8-0.1
		c-1.8,0-3.5,0.1-5.2,0.2c-1.9,0.1-3.7,0.4-5.4,0.7c-1,0.2-1.9,0.4-2.8,0.6c-1,0.3-1.9,0.6-2.7,0.9c-0.9,0.3-1.7,0.7-2.3,1.1
		c-1,0.6-1.8,1.2-2.2,1.8c-0.4,0.5-0.6,1.1-0.6,1.7v3.5c0,0.7,0.2,1.3,0.7,1.9c0.5,0.6,1.1,1.1,2.1,1.6c1.3,0.8,3,1.5,5,2
		c0.8,0.2,1.7,0.4,2.6,0.6c0,0,0,0,0,0c0.1,0,0.2,0,0.4,0.1c3.2,0.6,6.6,0.8,10.2,0.8c3.6,0,6.9-0.3,10.1-0.8c0,0,0,0,0,0
		c0.2,0,0.4-0.1,0.6-0.1c0,0,0,0,0,0c0.9-0.2,1.7-0.4,2.4-0.6c1.4-0.4,2.6-0.8,3.7-1.2c0.6-0.2,1.1-0.5,1.5-0.8
		c0.7-0.4,1.3-0.8,1.7-1.2c0.1-0.1,0.3-0.3,0.4-0.4c0.5-0.6,0.7-1.2,0.7-1.9v-3.5c0-0.6-0.2-1.1-0.6-1.7
		C52.4,20,52.3,19.8,52.1,19.6z"/>
</g>
</svg>
