<?xml version="1.0" encoding="utf-8"?>
<!-- Generator: Adobe Illustrator 19.2.0, SVG Export Plug-In . SVG Version: 6.00 Build 0)  -->
<svg version="1.1" id="Layer_1" xmlns="http://www.w3.org/2000/svg" xmlns:xlink="http://www.w3.org/1999/xlink" x="0px" y="0px"
	 viewBox="0 0 64 64" style="enable-background:new 0 0 64 64;" xml:space="preserve">
<style type="text/css">
	.st0{display:none;}
	.st1{display:inline;}
</style>
<g id="Layer_1_1_">
	<g class="st0">
		<rect class="st1" width="64" height="64"/>
	</g>
</g>
<g id="Layer_2">
	<g>
		<path d="M32,63.7c17.4,0,31.7-14.2,31.7-31.7S49.4,0.3,32,0.3S0.3,14.6,0.3,32S14.6,63.7,32,63.7z M32,5.6
			c14.5,0,26.4,11.8,26.4,26.4c0,6.2-2.2,12-5.9,16.6l-2.4-2.4l0.6-0.2c-1.4-3.1-4-4.6-5.8-5.4c0.6-1.4,0.9-2.8,1.2-4.4
			c1.4-0.1,3.6-0.1,5.6,1.1l1.9-2.9c-2.6-1.6-5.4-1.8-7.4-1.6c-0.1-1.3-0.2-2.5-0.6-3.6c1.9-0.4,4.5-1.5,6.5-4.5l-2.9-2
			c-1.5,2.4-3.6,2.9-4.8,3.2c-0.7-1.4-1.5-2.7-2.6-3.8c0.2-0.8,0.4-1.6,0.4-2.5c0-2.5-0.9-4.7-2.4-6.4l1.9-1.9l-2.6-2.7l-2.1,2.1
			c-1.4-0.8-3.1-1.3-4.9-1.3c-1.8,0-3.4,0.5-4.9,1.3l-2.1-2.1l-2.5,2.5l1.9,1.9c-1.2,1.4-2,3.3-2.2,5.3l-6.7-6.7
			C20,7.9,25.8,5.6,32,5.6z M32,12.9c3.5,0,6.4,2.8,6.5,6.2c-2-1.2-4.2-1.8-6.5-1.8s-4.5,0.6-6.5,1.8C25.6,15.8,28.5,12.9,32,12.9z
			 M11.6,15.3l8.8,8.8c-0.4,0.5-0.6,0.9-0.8,1.4c-1.2-0.1-3.3-0.7-4.9-3.2l-2.9,2c2,3.1,4.7,4.1,6.6,4.6c-0.4,1.2-0.5,2.4-0.6,3.6
			c-1.9-0.1-4.9,0-7.5,1.6l1.9,2.9c2-1.2,4.4-1.3,5.8-1.1c0.2,1.5,0.6,2.9,1.1,4.4c-1.9,0.8-4.5,2.4-5.9,5.4l3.2,1.4
			c0.9-2.2,3.1-3.3,4.4-3.8c2.6,3.9,6.7,6.5,11.3,6.5c3.9,0,7.3-1.8,9.9-4.6l6.8,6.8c-4.6,3.8-10.4,6-16.7,6
			c-14.5,0-26.4-11.8-26.4-26.4C5.6,25.6,7.9,19.9,11.6,15.3z"/>
	</g>
</g>
</svg>
