<?xml version="1.0" encoding="utf-8"?>
<!-- Generator: Adobe Illustrator 19.2.0, SVG Export Plug-In . SVG Version: 6.00 Build 0)  -->
<svg version="1.1" id="Layer_1" xmlns="http://www.w3.org/2000/svg" xmlns:xlink="http://www.w3.org/1999/xlink" x="0px" y="0px"
	 viewBox="0 0 64 64" style="enable-background:new 0 0 64 64;" xml:space="preserve">
<g>
	<path d="M32,54.4c-12.3,0-22.4-10-22.4-22.4c0-5.4,1.9-10.3,5.1-14.2l7.5,7.5c-0.3,0.4-0.5,0.8-0.7,1.2c-1-0.1-2.8-0.6-4.2-2.7
		l-2.5,1.7c1.7,2.6,4,3.5,5.6,3.9c-0.3,1-0.4,2-0.5,3.1c-1.6-0.1-4.2,0-6.4,1.4l1.6,2.5c1.7-1,3.7-1.1,4.9-0.9
		c0.2,1.3,0.5,2.5,0.9,3.7c-1.6,0.7-3.8,2-5,4.6l2.7,1.2c0.8-1.9,2.6-2.8,3.7-3.2c2.1,3.1,5.3,5.2,8.9,5.4c0.1,0,0.1,0,0.1,0
		c0.3-7.5,5.6-13.7,12.7-15.4l0-0.1c-0.1-0.8-0.2-1.6-0.4-2.3c1.6-0.3,3.8-1.3,5.5-3.8l-2.5-1.7c-1.3,2-3.1,2.5-4.1,2.7
		c-0.6-1.2-1.3-2.3-2.2-3.2c0.2-0.7,0.3-1.4,0.3-2.1c0-2.1-0.8-4-2-5.4l1.6-1.6L38,12.1l-1.8,1.8c-1.2-0.7-2.6-1.1-4.2-1.1
		c-1.5,0-2.9,0.4-4.2,1.1L26,12.1l-2.1,2.1l1.6,1.6c-1,1.2-1.7,2.8-1.9,4.5l-5.7-5.7c3.9-3.1,8.8-5,14.1-5c12.3,0,22.4,10,22.4,22.4
		c0,0.2,0,0.5,0,0.7c1.5,0.7,3,1.6,4.2,2.7c0.2-1.1,0.2-2.3,0.2-3.4C58.9,17.2,46.8,5.1,32,5.1S5.1,17.2,5.1,32
		c0,14.8,12.1,26.9,26.9,26.9c1.1,0,2.3-0.1,3.4-0.2c-1.2-1.3-2.1-2.8-2.8-4.5C32.5,54.4,32.2,54.4,32,54.4z M32,15.8
		c3,0,5.4,2.4,5.5,5.3c-1.7-1-3.6-1.5-5.5-1.5s-3.8,0.5-5.5,1.5C26.6,18.2,29,15.8,32,15.8z"/>
	<path d="M60.1,43.5L57.5,39c-0.1-0.2-0.5-0.4-0.8-0.2L53.6,40c-0.2-0.2-0.5-0.4-0.8-0.6c-0.5-0.4-0.9-0.6-1.4-0.8l-0.5-3.4
		c-0.1-0.4-0.4-0.5-0.7-0.5h-5.1c-0.4,0-0.6,0.1-0.7,0.5l-0.5,3.4c-0.5,0.2-0.9,0.5-1.4,0.8c-0.2,0.1-0.5,0.4-0.8,0.5l-1.2-0.5
		l-1.9-0.7c-0.4-0.1-0.6,0-0.8,0.2l-2.5,4.5c-0.1,0.4-0.1,0.6,0.1,0.8l1.9,1.4l0.9,0.7c-0.1,0.4-0.1,0.8-0.1,1.3c0,0,0,0,0,0.1
		c0,0.4,0,0.8,0.1,1.2l-2.7,2c-0.2,0.2-0.2,0.5-0.1,0.8l2.5,4.5c0.1,0.4,0.5,0.5,0.8,0.4l3.1-1.3c0.7,0.6,1.4,0.9,2.1,1.2l0.5,3.5
		c0.1,0.4,0.4,0.5,0.7,0.5h5.1c0.4,0,0.6-0.1,0.7-0.5l0.5-3.5c0.8-0.4,1.5-0.7,2.1-1.2l3.1,1.3c0.4,0.1,0.7,0,0.8-0.4l2.5-4.5
		c0.1-0.4,0.1-0.6-0.1-0.8L57,49c0.1-0.6,0.1-0.9,0.1-1.3c0-0.5,0-0.8-0.1-1.2l2.7-2.1C60.2,44,60.2,43.8,60.1,43.5z M47.7,51.6
		c-2.2,0-3.9-1.8-3.9-3.9s1.8-3.9,3.9-3.9s3.9,1.8,3.9,3.9S49.9,51.6,47.7,51.6z"/>
</g>
</svg>
