<?xml version="1.0" encoding="utf-8"?>
<!-- Generator: Adobe Illustrator 19.2.0, SVG Export Plug-In . SVG Version: 6.00 Build 0)  -->
<svg version="1.1" id="Layer_1" xmlns="http://www.w3.org/2000/svg" xmlns:xlink="http://www.w3.org/1999/xlink" x="0px" y="0px"
	 viewBox="0 0 64 64" style="enable-background:new 0 0 64 64;" xml:space="preserve">
<style type="text/css">
	.st0{display:none;}
	.st1{display:inline;}
	.st2{fill:#1D1D1B;}
</style>
<g id="Layer_1_1_">
	<g class="st0">
		<rect class="st1" width="64" height="64"/>
	</g>
</g>
<g>
	<path class="st2" d="M23.2,51.8H64v-8.2H23.2V51.8z M27.3,45.7h4v4h-4V45.7z"/>
	<path class="st2" d="M23.2,64H64v-8.2H23.2V64z M27.3,57.9h4v4h-4V57.9z"/>
	<path class="st2" d="M33.7,31.4c-0.8,0.7-1.7,1.4-2.5,2h0.1v4h-4c0,0,0-0.6,0-0.8c-1.3,1-2.5,2-3.7,2.9H64v-8.2H33.7z"/>
	<path class="st2" d="M14.1,37.4c1-1.9,4.1-13,0.3-22.6c-1.1-2.7-2.7-5.3-5.1-7.5c-2-1.9-4.5-3.4-7.7-4.6c-2.7-1-5.9-1.7-9.6-2
		c4.4,2.1,7.6,4.6,9.2,6c0,0,3.4,2.5,6,7.2c2.3,4.1,4.1,10,4.1,10c1.2,3.8,2,8,2.4,10.6C14,36.3,14.1,37.4,14.1,37.4z"/>
	<path class="st2" d="M28.9,31.4c3.6-3,7.2-5.8,10.5-7.5c8-4.2,15.5-0.1,15-1.6c-0.9-3.3-8.3-7.2-8.3-7.2c-3.2-3.7-6.8-4.6-9.1-5.1
		c-4.2-0.8-8.5,0.1-10.6,0.6C20.5,2.8,8.9,1,4.3,0.6c2.7,1.2,5,2.7,7,4.5C12.5,6,13.5,7,14.3,8l1.9-0.1L15,9
		c0.3,0.5,0.7,0.9,0.9,1.4l3.2-0.5l-2.3,2.4c0.2,0.6,0.3,1.1,0.5,1.7c4.6,17.8-4.5,28.6-4.5,28.6c0.8-0.3,1.7-0.7,2.5-1.1
		c2.5-1.3,5.1-3.2,7.8-5.4C25.1,34.5,27,32.9,28.9,31.4z M39,14.1c0.9,0,2.7,0.7,4.1,1.9c0.1,0.1-0.8,0.3-1.8,0.2
		c-0.7,0-1.7-0.3-2.5-1.1C38.1,14.4,38.3,14.1,39,14.1z"/>
</g>
<path class="st2" d="M2.4,0.5c3.7,1.2,6.7,2.8,8.9,4.6c-2-1.8-4.3-3.3-7-4.5C3.1,0.5,2.4,0.5,2.4,0.5z"/>
</svg>
