<?xml version="1.0" encoding="utf-8"?>
<!-- Generator: Adobe Illustrator 19.2.0, SVG Export Plug-In . SVG Version: 6.00 Build 0)  -->
<svg version="1.1" id="Layer_1" xmlns="http://www.w3.org/2000/svg" xmlns:xlink="http://www.w3.org/1999/xlink" x="0px" y="0px"
	 viewBox="0 0 64 64" style="enable-background:new 0 0 64 64;" xml:space="preserve">
<style type="text/css">
	.st0{display:none;}
	.st1{display:inline;}
</style>
<g class="st0">
	<rect class="st1" width="64" height="64"/>
</g>
<g>
	<path d="M57.8,27.7c-4.2-4.2-9.2-6.2-15.1-6.2c0,0,0-0.1,0-0.1c0-5.9-2.1-10.9-6.2-15C32.3,2.1,27.2,0,21.3,0S10.4,2.1,6.2,6.2
		S0,15.4,0,21.3c0,5.9,2.1,10.9,6.2,15c4.2,4.2,9.2,6.2,15.1,6.2c0,0,0,0.1,0,0.1c0,5.9,2.1,10.9,6.2,15c4.2,4.2,9.2,6.2,15.1,6.2
		s10.9-2.1,15.1-6.2s6.2-9.2,6.2-15C64,36.8,61.9,31.8,57.8,27.7z M42.7,21.4 M15,31l-3.4-3.4l6.3-6.3L11.6,15l3.4-3.4l6.3,6.3
		l6.4-6.3l3.4,3.4l-6.4,6.3l4.7,4.7c-0.7,0.5-1.3,1.1-1.9,1.7c-0.6,0.6-1.1,1.1-1.5,1.7l-4.7-4.6L15,31z M21.3,42.6 M26,29.4
		c-0.4,0.5-0.8,1-1.1,1.5C25.2,30.3,25.6,29.8,26,29.4z M54.7,54.8c-3.3,3.3-7.3,5-12,5c-4.7,0-8.7-1.7-12-5c-3.3-3.3-5-7.4-5-12.1
		c0-4.7,1.7-8.8,5-12.1s7.3-5,12-5c4.7,0,8.7,1.7,12,5c3.3,3.3,5,7.4,5,12.1C59.7,47.4,58,51.5,54.7,54.8z"/>
	<polygon points="39.2,45.6 34.8,41.2 31.8,44.2 39.2,51.7 53.3,37.6 50.3,34.6 	"/>
</g>
</svg>
