<?xml version="1.0" encoding="utf-8"?>
<!-- Generator: Adobe Illustrator 19.2.0, SVG Export Plug-In . SVG Version: 6.00 Build 0)  -->
<svg version="1.1" id="Layer_1" xmlns="http://www.w3.org/2000/svg" xmlns:xlink="http://www.w3.org/1999/xlink" x="0px" y="0px"
	 viewBox="0 0 64 64" style="enable-background:new 0 0 64 64;" xml:space="preserve">
<style type="text/css">
	.st0{display:none;}
	.st1{display:inline;}
</style>
<g>
	<path d="M31.9,45.5c3.4-0.9,6.5-1.4,9.3-1.4c2.8,0,5.9,0.5,9.3,1.4c3.4,0.9,6.5,2.5,9.3,4.6c2.8,2.1,4.2,4.5,4.2,7.2V64H18.4v-6.7
		c0-2.7,1.4-5.1,4.2-7.2C25.4,47.9,28.5,46.4,31.9,45.5z M50.6,37.6c-2.6,2.6-5.7,3.9-9.4,3.9c-3.7,0-6.8-1.3-9.4-3.9
		c-2.6-2.6-3.9-5.7-3.9-9.4c0-3.7,1.3-6.8,3.9-9.4c2.6-2.6,5.7-3.9,9.4-3.9c3.7,0,6.8,1.3,9.4,3.9c2.6,2.6,3.9,5.7,3.9,9.4
		C54.5,31.9,53.2,35,50.6,37.6z"/>
</g>
<g class="st0">
	<rect class="st1" width="64" height="64"/>
</g>
<g>
	<path d="M0,0l0,19.5h16.5l7.8,7.8V0L0,0z"/>
</g>
</svg>
