<?xml version="1.0" encoding="utf-8"?>
<!-- Generator: Adobe Illustrator 19.2.0, SVG Export Plug-In . SVG Version: 6.00 Build 0)  -->
<svg version="1.1" id="Layer_1" xmlns="http://www.w3.org/2000/svg" xmlns:xlink="http://www.w3.org/1999/xlink" x="0px" y="0px"
	 viewBox="0 0 64 64" style="enable-background:new 0 0 64 64;" xml:space="preserve">
<style type="text/css">
	.st0{display:none;}
	.st1{display:inline;}
	.st2{fill:none;}
	.st3{fill:#010101;}
</style>
<g class="st0">
	<rect class="st1" width="64" height="64"/>
</g>
<path d="M56,51.5L40.6,36.1c2.4-3,3.8-6.8,3.8-10.9c0-9.7-7.9-17.6-17.6-17.6S9.2,15.6,9.2,25.3c0,9.7,7.9,17.6,17.6,17.6
	c3.4,0,6.6-1,9.3-2.7l15.7,15.7L56,51.5z M15.2,25.3c0-6.4,5.2-11.6,11.6-11.6s11.6,5.2,11.6,11.6s-5.2,11.6-11.6,11.6
	S15.2,31.6,15.2,25.3z"/>
</svg>
