<?xml version="1.0" encoding="utf-8"?>
<!-- Generator: Adobe Illustrator 19.2.0, SVG Export Plug-In . SVG Version: 6.00 Build 0)  -->
<svg version="1.1" xmlns="http://www.w3.org/2000/svg" xmlns:xlink="http://www.w3.org/1999/xlink" x="0px" y="0px"
	 viewBox="0 0 64 64" style="enable-background:new 0 0 64 64;" xml:space="preserve">
<style type="text/css">
	.st0{display:none;}
	.st1{display:inline;}
	.st2{fill:none;}
	.st3{fill:#010101;}
</style>
<g id="Layer_1">
	<g class="st0">
		<rect class="st1" width="64" height="64"/>
	</g>
	<path d="M50.2,13.9c-5-5-11.1-7.5-18.2-7.5c-7.1,0-13.2,2.5-18.2,7.5c-5,5-7.5,11-7.5,18.1c0,7.1,2.5,13.1,7.5,18.1
		c5,5,11.1,7.5,18.2,7.5c7.1,0,13.1-2.5,18.2-7.5c5-5,7.5-11,7.5-18.1C57.7,24.9,55.2,18.9,50.2,13.9z M23.9,46.5h-6.4v-6.4L34.6,23
		l6.4,6.4L23.9,46.5z M46,24.4l-3.4,3.4l-6.4-6.4l3.4-3.4c0.3-0.3,0.7-0.5,1.2-0.5c0.5,0,0.9,0.2,1.2,0.5l4,4
		c0.3,0.3,0.5,0.7,0.5,1.2C46.5,23.7,46.3,24.1,46,24.4z"/>
</g>
<g id="Layer_2">
</g>
</svg>
