<?xml version="1.0" encoding="utf-8"?>
<!-- Generator: Adobe Illustrator 19.2.0, SVG Export Plug-In . SVG Version: 6.00 Build 0)  -->
<svg version="1.1" id="Layer_1" xmlns="http://www.w3.org/2000/svg" xmlns:xlink="http://www.w3.org/1999/xlink" x="0px" y="0px"
	 viewBox="0 0 64 64" style="enable-background:new 0 0 64 64;" xml:space="preserve">
<style type="text/css">
	.st0{display:none;}
	.st1{display:inline;}
</style>
<g id="Layer_1_1_">
	<g class="st0">
		<rect class="st1" width="64" height="64"/>
	</g>
</g>
<g>
	<path d="M40,12.9l-10,4.6l2.2,4.8l10-4.6c2.1-1,4.2-1.1,6.5-0.2s3.8,2.3,4.8,4.4s1.1,4.2,0.2,6.5c-0.8,2.3-2.3,3.8-4.4,4.8l-10,4.6
		l2.2,4.8l10-4.6c3.4-1.6,5.8-4.2,7.1-7.8c1.3-3.6,1.2-7.2-0.3-10.5c-1.6-3.4-4.2-5.8-7.8-7.1C46.9,11.2,43.3,11.4,40,12.9z"/>
	<rect x="10.1" y="14.4" transform="matrix(0.4168 -0.909 0.909 0.4168 -11.1805 23.6231)" width="5.4" height="12.2"/>
	<rect x="18.3" y="6.8" transform="matrix(0.9375 -0.348 0.348 0.9375 -3.1629 8.1072)" width="5.4" height="12.2"/>
	<path d="M8.6,49.2c0.8,3.7,2.8,6.7,5.9,8.7c3.2,2.1,6.6,2.6,10.4,1.8s6.7-2.8,8.7-5.9l6-9.2l-4.5-2.9l-6,9.2
		c-1.3,2-3.1,3.3-5.4,3.8c-2.3,0.4-4.5,0.1-6.4-1.2s-3.2-3-3.7-5.4c-0.6-2.3-0.1-4.5,1.2-6.5l6-9.2l-4.5-2.9l-6,9.2
		C8.5,41.9,7.8,45.4,8.6,49.2z"/>
</g>
</svg>
