<?xml version="1.0" encoding="utf-8"?>
<!-- Generator: Adobe Illustrator 19.2.0, SVG Export Plug-In . SVG Version: 6.00 Build 0)  -->
<svg version="1.1" id="Layer_1" xmlns="http://www.w3.org/2000/svg" xmlns:xlink="http://www.w3.org/1999/xlink" x="0px" y="0px"
	 viewBox="0 0 64 64" style="enable-background:new 0 0 64 64;" xml:space="preserve">
<style type="text/css">
	.st0{display:none;}
	.st1{display:inline;}
</style>
<g class="st0">
	<rect class="st1" width="64" height="64"/>
</g>
<path d="M61.6,28.4c-0.5-0.5-13.3-12.1-29.5-12.1C16,16.3,3.2,27.9,2.6,28.4l-2.1,1.9l1.8,2.1C2.8,33,15.7,47.8,32,47.8
	S61.2,33,61.7,32.3l1.8-2.1L61.6,28.4z M32.2,42c-10.3,0-19.3-7.4-23.3-11.2c3.5-2.6,10.6-7.2,19.1-8.4c0,0.3,0.1,0.5,0.1,0.8
	c0,3-2.5,5.5-5.5,5.5c-0.7,0-1.4-0.1-2-0.4c0.1,6.2,5.1,11.2,11.3,11.2c6.3,0,11.3-5.1,11.3-11.3c0-1.5-0.3-3-0.9-4.3
	c5.7,1.9,10.4,5,13,6.9C51.4,34.6,42.4,42,32.2,42z"/>
</svg>
