<?xml version="1.0" encoding="utf-8"?>
<!-- Generator: Adobe Illustrator 19.2.0, SVG Export Plug-In . SVG Version: 6.00 Build 0)  -->
<svg version="1.1" id="Layer_1" xmlns="http://www.w3.org/2000/svg" xmlns:xlink="http://www.w3.org/1999/xlink" x="0px" y="0px"
	 viewBox="0 0 64 64" style="enable-background:new 0 0 64 64;" xml:space="preserve">
<style type="text/css">
	.st0{display:none;}
	.st1{display:inline;}
</style>
<g class="st0">
	<rect class="st1" width="64" height="64"/>
</g>
<g class="st0">
	<rect class="st1" width="64" height="64"/>
</g>
<g id="Layer_2">
</g>
<path d="M61.3,2.7c-1-1-2.6-1-3.5,0l-9.5,9.5C43.6,8.3,38.2,6.4,32,6.4c-7.1,0-13.2,2.5-18.2,7.5S6.3,24.9,6.3,32
	c0,6.3,2,11.7,5.9,16.3l-9.5,9.5c-1,1-1,2.6,0,3.5c0.5,0.5,1.1,0.7,1.8,0.7s1.3-0.2,1.8-0.7l9.5-9.5c4.6,3.8,10.1,5.8,16.3,5.8
	c7.1,0,13.2-2.5,18.2-7.5s7.5-11,7.5-18.1c0-6.3-2-11.7-5.9-16.3l9.5-9.5C62.3,5.2,62.3,3.6,61.3,2.7z M11.5,32c0-5.7,2-10.6,6-14.6
	s8.8-6,14.5-6c4.9,0,9.1,1.5,12.7,4.4L15.8,44.7C12.9,41,11.5,36.8,11.5,32z M52.5,32c0,5.7-2,10.6-6,14.6s-8.8,6-14.5,6
	c-4.9,0-9.1-1.5-12.7-4.4l28.9-28.9C51.1,23,52.5,27.2,52.5,32z"/>
</svg>
