<?xml version="1.0" encoding="utf-8"?>
<!-- Generator: Adobe Illustrator 19.2.0, SVG Export Plug-In . SVG Version: 6.00 Build 0)  -->
<svg version="1.1" id="Layer_1" xmlns="http://www.w3.org/2000/svg" xmlns:xlink="http://www.w3.org/1999/xlink" x="0px" y="0px"
	 viewBox="0 0 64 64" style="enable-background:new 0 0 64 64;" xml:space="preserve">
<style type="text/css">
	.st0{display:none;}
	.st1{display:inline;}
</style>
<g class="st0">
	<rect y="0" class="st1" width="64" height="64"/>
</g>
<g>
	<path d="M15.8,15.3c4.6-4.6,10.2-6.9,16.7-6.9c6.6,0,12.1,2.3,16.7,6.9c4.6,4.6,6.9,10.2,6.9,16.7c0,6.6-2.3,12.2-6.9,16.7
		c-4.6,4.6-10.2,6.9-16.7,6.9c-6.5,0-12.1-2.3-16.7-6.9l3.8-3.8c3.5,3.6,7.8,5.4,12.9,5.4c5.1,0,9.4-1.8,13-5.4s5.4-7.9,5.4-13
		c0-5.1-1.8-9.4-5.4-13s-7.9-5.4-13-5.4c-5.1,0-9.4,1.8-13,5.4s-5.4,7.9-5.4,13h7.9L11.3,42.6l-0.1-0.4L1,32h7.9
		C8.9,25.4,11.2,19.9,15.8,15.3z M29.9,21.5h3.9v11.1l9.1,5.5l-1.8,3.2l-11.2-6.8V21.5z"/>
</g>
</svg>
