<?xml version="1.0" encoding="utf-8"?>
<!-- Generator: Adobe Illustrator 19.2.0, SVG Export Plug-In . SVG Version: 6.00 Build 0)  -->
<svg version="1.1" xmlns="http://www.w3.org/2000/svg" xmlns:xlink="http://www.w3.org/1999/xlink" x="0px" y="0px"
	 viewBox="0 0 64 64" style="enable-background:new 0 0 64 64;" xml:space="preserve">
<style type="text/css">
	.st0{display:none;}
	.st1{display:inline;}
	.st2{fill:none;}
	.st3{fill:#010101;}
	.st4{fill-rule:evenodd;clip-rule:evenodd;}
</style>
<g id="Layer_1">
	<g class="st0">
		<rect class="st1" width="64" height="64"/>
	</g>
</g>
<g id="Layer_2">
	<path d="M55.7,54h-5.3c0-0.1,0-0.2,0-0.3L41.2,9.3c-0.2-1.5-1.4-2.6-2.9-2.6H24.7c-1.4,0-2.7,1-2.9,2.5l-7.8,44.6
		c0,0.1,0,0.2,0,0.3H8.3c-1.6,0-2.9,1.3-2.9,2.9c0,1.6,1.3,2.9,2.9,2.9h47.4c1.6,0,2.9-1.3,2.9-2.9C58.6,55.3,57.3,54,55.7,54z
		 M25.8,20.2h11.6l1.9,9h-15L25.8,20.2z M21.3,46.1l1.5-8.8h18.1l1.8,8.8H21.3z"/>
</g>
</svg>
