<?xml version="1.0" encoding="utf-8"?>
<!-- Generator: Adobe Illustrator 19.2.0, SVG Export Plug-In . SVG Version: 6.00 Build 0)  -->
<svg version="1.1" id="Layer_1" xmlns="http://www.w3.org/2000/svg" xmlns:xlink="http://www.w3.org/1999/xlink" x="0px" y="0px"
	 viewBox="0 0 64 64" style="enable-background:new 0 0 64 64;" xml:space="preserve">
<style type="text/css">
	.st0{display:none;}
	.st1{display:inline;}
</style>
<g id="Layer_1_1_">
	<g class="st0">
		<rect class="st1" width="64" height="64"/>
	</g>
</g>
<g id="Layer_2">
	<g>
		<path d="M32,58.9c14.8,0,26.9-12.1,26.9-26.9S46.8,5.1,32,5.1S5.1,17.2,5.1,32S17.2,58.9,32,58.9z M32,9.6
			c12.3,0,22.4,10,22.4,22.4c0,5.3-1.9,10.2-5,14.1L17.9,14.6C21.8,11.5,26.7,9.6,32,9.6z M14.7,17.8l31.4,31.4
			c-3.9,3.2-8.8,5.1-14.2,5.1c-12.3,0-22.4-10-22.4-22.4C9.6,26.6,11.5,21.7,14.7,17.8z"/>
	</g>
</g>
</svg>
