<?xml version="1.0" encoding="utf-8"?>
<!-- Generator: Adobe Illustrator 19.2.0, SVG Export Plug-In . SVG Version: 6.00 Build 0)  -->
<svg version="1.1" id="Layer_1" xmlns="http://www.w3.org/2000/svg" xmlns:xlink="http://www.w3.org/1999/xlink" x="0px" y="0px"
	 viewBox="0 0 64 64" style="enable-background:new 0 0 64 64;" xml:space="preserve">
<style type="text/css">
	.st0{display:none;}
	.st1{display:inline;}
</style>
<g id="Layer_1_1_">
	<g class="st0">
		<rect class="st1" width="64" height="64"/>
	</g>
</g>
<path d="M59.7,6.8V4.3H4.3v2.5h0V60h55.3L59.7,6.8L59.7,6.8z M26.1,40.6v-9.2h11.8v9.2H26.1z M37.9,45.6V55H26.1v-9.4H37.9z
	 M21.1,26.4H9.3v-9.1h11.8V26.4z M26.1,17.3h11.8v9.1H26.1V17.3z M9.3,31.4h11.8v9.2H9.3V31.4z M42.9,31.4h11.8v9.2H42.9V31.4z
	 M42.9,26.4v-9.1h11.8v9.1H42.9z M9.3,45.6h11.8V55H9.3V45.6z M42.9,55v-9.4h11.8V55H42.9z"/>
</svg>
