<?xml version="1.0" encoding="utf-8"?>
<!-- Generator: Adobe Illustrator 19.2.0, SVG Export Plug-In . SVG Version: 6.00 Build 0)  -->
<svg version="1.1" id="Layer_1" xmlns="http://www.w3.org/2000/svg" xmlns:xlink="http://www.w3.org/1999/xlink" x="0px" y="0px"
	 viewBox="0 0 64 64" style="enable-background:new 0 0 64 64;" xml:space="preserve">
<style type="text/css">
	.st0{display:none;}
	.st1{display:inline;}
</style>
<g class="st0">
	<rect y="0" class="st1" width="64" height="64"/>
</g>
<g>
	<path d="M54.5,27.2L51,23.7l-4.4-4.4l-3.5-3.5l-1.5-1.5h-3.5H18.1v45.5H56V32.2v-3.5L54.5,27.2z M47.5,27.2h-4.4v-4.4L47.5,27.2z
		 M51,54.8H23.2V19.3h15v7.9v5h5H51V54.8z"/>
	<g>
		<rect x="13.1" y="9.1" width="15" height="0.1"/>
		<polygon points="13.1,44.6 13.1,9.2 13.1,9.1 28.1,9.1 28.1,9.2 36.7,9.2 36.6,9.1 33.1,5.6 31.6,4.2 28.1,4.2 8,4.2 8,49.6 
			13.1,49.6 		"/>
	</g>
</g>
</svg>
