<?xml version="1.0" encoding="utf-8"?>
<!-- Generator: Adobe Illustrator 19.2.0, SVG Export Plug-In . SVG Version: 6.00 Build 0)  -->
<svg version="1.1" xmlns="http://www.w3.org/2000/svg" xmlns:xlink="http://www.w3.org/1999/xlink" x="0px" y="0px"
	 viewBox="0 0 64 64" style="enable-background:new 0 0 64 64;" xml:space="preserve">
<style type="text/css">
	.st0{display:none;}
	.st1{display:inline;}
	.st2{fill:none;}
	.st3{fill:#010101;}
	.st4{fill-rule:evenodd;clip-rule:evenodd;}
</style>
<g id="Layer_1">
	<g class="st0">
		<rect class="st1" width="64" height="64"/>
	</g>
</g>
<g id="Layer_2">
	<path class="st4" d="M32.5,48.9v-3.6l-3.7,3.6H32.5L32.5,48.9z M53.7,43.1c0,0.1,0,0.2,0.1,0.3c0,0.1,0.1,0.2,0.2,0.4
		c0.2,0.3,0.4,0.7,0.5,1.1c0.4,1.1,0.1,2-0.4,2.6c-0.3,0.3-0.6,0.5-1,0.5c-0.4,0.1-0.7,0.1-1.1,0c-0.8-0.2-1.6-0.9-1.9-2.1l1.7-0.3
		c0.1,0.4,0.3,0.7,0.6,0.7c0.1,0,0.2,0,0.3,0c0.1,0,0.2-0.1,0.2-0.1c0.1-0.1,0.2-0.4,0-0.8c-0.1-0.3-0.3-0.7-0.4-0.9
		c-0.1-0.2-0.2-0.4-0.3-0.6c-0.1-0.2-0.1-0.4-0.1-0.6l-0.8-2.4H49v-9.4h1.2V20.6H34.7V21V50c1.3,0.4,2.2,1.6,2.2,3v2.6
		c0,0.1,0,0.3,0,0.4h3v5.1H19.3V56H22c0-0.1,0-0.3,0-0.4V53c0-1.5,1-2.7,2.4-3.1V21v-0.4H7.7V16L27.5,3l0.1-0.1h0.2h3.8h0.1l0.1,0.1
		l23.4,13v0.6v15h1.1v9.4h-1.8L53.7,43.1L53.7,43.1z M51.3,31.4h2.8V20.6h-2.8V31.4L51.3,31.4z M52.9,16.1L31.7,4.2l0,0.2L34.2,16
		C40.5,16,46.7,16.1,52.9,16.1L52.9,16.1z M27.1,4.6L9.7,16h14.9L27.1,4.6L27.1,4.6z M31.9,16L29.7,5.7h-0.6L26.9,16H31.9L31.9,16z
		 M30.6,44l-4.1,4v-4H30.6L30.6,44z M32.5,41.7v-3.6l-3.7,3.6H32.5L32.5,41.7z M31,36.4h-4.5v4.4L31,36.4L31,36.4z M32.5,34.1v-3.6
		l-3.7,3.6H32.5L32.5,34.1z M30.9,28.9h-4.3v4.2L30.9,28.9L30.9,28.9z M32.5,26.6V23l-3.7,3.6H32.5L32.5,26.6z M30.2,22.1h-3.6v3.5
		L30.2,22.1z"/>
</g>
</svg>
