<?xml version="1.0" encoding="utf-8"?>
<!-- Generator: Adobe Illustrator 19.2.0, SVG Export Plug-In . SVG Version: 6.00 Build 0)  -->
<svg version="1.1" xmlns="http://www.w3.org/2000/svg" xmlns:xlink="http://www.w3.org/1999/xlink" x="0px" y="0px"
	 viewBox="0 0 64 64" style="enable-background:new 0 0 64 64;" xml:space="preserve">
<style type="text/css">
	.st0{display:none;}
	.st1{display:inline;}
	.st2{fill:none;}
	.st3{fill:#010101;}
	.st4{fill-rule:evenodd;clip-rule:evenodd;}
</style>
<g id="Layer_1">
	<g class="st0">
		<rect class="st1" width="64" height="64"/>
	</g>
</g>
<g id="Layer_2">
	<path class="st4" d="M52,6.2l7,7l-2.4,2.4L56,14.7l-6.3-6.3L52,6.2L52,6.2z M3.8,13.2l4.5,7.1l4.8,0.4l10.4,10.4l-4.2,4.2l1.7,1.7
		L6.9,51.2c0.9,3.4,3.8,6.2,7.1,7.1l14.8-14.8l16.3,16.3c5.9-1.6,9.2-5.6,11.1-11.1L40.1,32.4l3.5-3.5l8.9,8.9l7.7-7.7l-5.9-13.7
		L42.1,4.2l-2.7-0.1L30.4,13l0.2,3.1l5.7,5.7l-2.8,2.8l-1.7-1.7l-4.3,4.2L17.3,16.8l-0.4-5.1L9.8,7.2l-2,2l-2,2L3.8,13.2L3.8,13.2z
		 M36.9,38.5l1.9-1.9l12.9,12.9l-1.5,2.4L36.9,38.5L36.9,38.5z M32.8,42.6l1.9-1.9l13.4,13.4l-2.4,1.5L32.8,42.6z"/>
</g>
</svg>
