<?xml version="1.0" encoding="utf-8"?>
<!-- Generator: Adobe Illustrator 19.2.0, SVG Export Plug-In . SVG Version: 6.00 Build 0)  -->
<svg version="1.1" id="Layer_1" xmlns="http://www.w3.org/2000/svg" xmlns:xlink="http://www.w3.org/1999/xlink" x="0px" y="0px"
	 viewBox="0 0 64 64" style="enable-background:new 0 0 64 64;" xml:space="preserve">
<style type="text/css">
	.st0{display:none;}
	.st1{display:inline;}
</style>
<g class="st0">
	<rect y="0" class="st1" width="64" height="64"/>
</g>
<path d="M26,21l31.3,31.3v2.5h-7.6L31.9,37.1L26,43c0.6,1.3,0.9,2.7,0.9,4.1c0,2.8-1,5.1-3,7.1c-2,2-4.4,3-7.2,3s-5.2-1-7.2-3
	c-2-2-3-4.3-3-7.1s1-5.1,3-7.1c2-2,4.3-3,7.1-3c1.5,0,2.9,0.3,4.1,0.8l6-5.9l-6-5.9c-1.3,0.6-2.6,0.8-4.1,0.8c-2.8,0-5.1-1-7.1-3
	s-3-4.3-3-7.1s1-5.1,3-7.1s4.4-3,7.2-3s5.2,1,7.2,3s3,4.3,3,7.1C27,18.3,26.6,19.6,26,21z M13.3,20.4c1,1,2.2,1.5,3.6,1.5
	s2.6-0.5,3.6-1.5c1-1,1.5-2.2,1.5-3.6s-0.5-2.6-1.5-3.6s-2.2-1.5-3.6-1.5s-2.6,0.5-3.6,1.5s-1.5,2.2-1.5,3.6S12.3,19.5,13.3,20.4z
	 M13.3,50.8c1,1,2.2,1.5,3.6,1.5s2.6-0.5,3.6-1.5c1-1,1.5-2.2,1.5-3.6c0-1.4-0.5-2.6-1.5-3.6s-2.2-1.5-3.6-1.5s-2.6,0.5-3.6,1.5
	s-1.5,2.2-1.5,3.6C11.8,48.6,12.3,49.8,13.3,50.8z M30.8,32c0,0.9,0.4,1.3,1.2,1.3c0.8,0,1.2-0.4,1.2-1.3c0-0.9-0.4-1.3-1.2-1.3
	C31.2,30.7,30.8,31.1,30.8,32z M49.7,9.2h7.6v2.5L39.5,29.5l-5-5.1L49.7,9.2z"/>
</svg>
