<?xml version="1.0" encoding="utf-8"?>
<!-- Generator: Adobe Illustrator 19.2.0, SVG Export Plug-In . SVG Version: 6.00 Build 0)  -->
<svg version="1.1" id="Layer_1" xmlns="http://www.w3.org/2000/svg" xmlns:xlink="http://www.w3.org/1999/xlink" x="0px" y="0px"
	 viewBox="0 0 64 64" style="enable-background:new 0 0 64 64;" xml:space="preserve">
<style type="text/css">
	.st0{display:none;}
	.st1{display:inline;}
	.st2{fill:none;}
	.st3{fill:#010101;}
</style>
<g class="st0">
	<rect class="st1" width="64" height="64"/>
</g>
<g>
	<path d="M56.6,24.5v15c0,0.7-0.3,1.3-0.9,1.8l-22.5,15c-0.4,0.2-0.8,0.4-1.2,0.4c-0.4,0-0.8-0.1-1.2-0.4l-22.5-15
		c-0.6-0.4-0.9-1-0.9-1.8v-15c0-0.7,0.3-1.3,0.9-1.8l22.5-15c0.4-0.2,0.8-0.4,1.2-0.4c0.4,0,0.8,0.1,1.2,0.4l22.5,15
		C56.3,23.2,56.6,23.8,56.6,24.5z M11.6,35.5l5.3-3.5l-5.3-3.5V35.5z M20.7,29.4l9.2-6.1v-9.9l-16.5,11L20.7,29.4z M13.3,39.5
		l16.5,11v-9.9l-9.2-6.1L13.3,39.5z M32,37l7.5-5L32,27l-7.5,5L32,37z M43.3,29.4l7.4-4.9l-16.5-11v9.9L43.3,29.4z M34.1,50.5
		l16.5-11l-7.4-4.9l-9.2,6.1V50.5z M47.1,32l5.3,3.5v-7.1L47.1,32z"/>
</g>
</svg>
