<?xml version="1.0" encoding="utf-8"?>
<!-- Generator: Adobe Illustrator 19.2.0, SVG Export Plug-In . SVG Version: 6.00 Build 0)  -->
<svg version="1.1" id="Layer_1" xmlns="http://www.w3.org/2000/svg" xmlns:xlink="http://www.w3.org/1999/xlink" x="0px" y="0px"
	 viewBox="0 0 64 64" style="enable-background:new 0 0 64 64;" xml:space="preserve">
<style type="text/css">
	.st0{display:none;}
	.st1{display:inline;}
</style>
<g class="st0">
	<rect y="0" class="st1" width="64" height="64"/>
</g>
<g>
	<g>
		<path d="M16.1,41.4c1.4,1.4,3.1,2.1,5.1,2.1h0.1H37h0.1c2,0,3.7-0.7,5.1-2.1c1.1-1.1,1.9-4.1,2.1-5.5h2.2c3.1,0,5.8-1.1,8-3.3
			c2.2-2.2,3.3-4.9,3.3-8c0-3.1-1.1-5.8-3.3-8c-1.9-1.9-4.2-3-6.8-3.3l0.1-0.9c0-0.6-0.2-1-0.6-1.5c-0.4-0.4-0.9-0.6-1.5-0.6H12.5
			c-0.6,0-1,0.2-1.5,0.6c-0.4,0.4-0.6,0.9-0.6,1.5l3.3,22.7C13.8,35.2,14.6,39.9,16.1,41.4z M50.5,20.6c1.1,1.1,1.6,2.4,1.6,4
			c0,1.6-0.5,2.9-1.6,4c-1.1,1.1-2.4,1.6-4,1.6h-1.3L46.8,19C48.2,19,49.5,19.6,50.5,20.6z"/>
		<path d="M8.3,51.5c1.4,1.4,3.1,2.1,5,2.1h35.6c2,0,3.6-0.7,5-2.1c1.4-1.4,2.1-3.1,2.1-5H6.2C6.2,48.4,6.9,50.1,8.3,51.5z"/>
	</g>
</g>
</svg>
