<?xml version="1.0" encoding="utf-8"?>
<!-- Generator: Adobe Illustrator 19.2.0, SVG Export Plug-In . SVG Version: 6.00 Build 0)  -->
<svg version="1.1" id="Layer_1" xmlns="http://www.w3.org/2000/svg" xmlns:xlink="http://www.w3.org/1999/xlink" x="0px" y="0px"
	 viewBox="0 0 64 64" style="enable-background:new 0 0 64 64;" xml:space="preserve">
<style type="text/css">
	.st0{display:none;}
	.st1{display:inline;}
</style>
<g class="st0">
	<rect y="0" class="st1" width="64" height="64"/>
</g>
<g>
	<path d="M62.1,33.7c-2.1-2.1-5.5-2.5-9.3-2.5c-4.7,0-8.7,1-10.4,3.9c-1.3-2.1-3.8-2.8-7-3.5V48c0,5.5-4.5,10-10,10
		c-5.5,0-10-4.5-10-10c0-1.6,1.3-2.8,2.8-2.8c1.6,0,2.8,1.3,2.8,2.8c0,2.4,2,4.4,4.4,4.4c2.4,0,4.4-2,4.4-4.4V31.4
		c-3.7,0.5-6.7,1.3-8.2,3.7c-1.7-2.9-5.7-3.9-10.4-3.9c-3.9,0-7.3,0.4-9.3,2.5C4.3,20.2,15.7,9.8,29.8,8.9V8.8
		c0-1.6,1.3-2.8,2.8-2.8c1.6,0,2.8,1.3,2.8,2.8V9C49,10.5,59.8,20.6,62.1,33.7L62.1,33.7z M62.1,33.7"/>
</g>
</svg>
