<?xml version="1.0" encoding="utf-8"?>
<!-- Generator: Adobe Illustrator 19.2.0, SVG Export Plug-In . SVG Version: 6.00 Build 0)  -->
<svg version="1.1" id="Layer_1" xmlns="http://www.w3.org/2000/svg" xmlns:xlink="http://www.w3.org/1999/xlink" x="0px" y="0px"
	 viewBox="0 0 64 64" style="enable-background:new 0 0 64 64;" xml:space="preserve">
<style type="text/css">
	.st0{display:none;}
	.st1{display:inline;}
</style>
<g class="st0">
	<rect y="0" class="st1" width="64" height="64"/>
</g>
<g id="Layer_1_1_">
	<g class="st0">
		<rect y="0" class="st1" width="64" height="64"/>
	</g>
	<g>
		<path d="M13.8,13.9c5-5,11.1-7.5,18.2-7.5s13.1,2.5,18.2,7.5c5,5,7.5,11,7.5,18.1s-2.5,13.1-7.5,18.1S39.1,57.6,32,57.6
			s-13.2-2.5-18.2-7.5S6.3,39.1,6.3,32C6.3,24.9,8.8,18.9,13.8,13.9z M17.5,46.6c4,4,8.8,6,14.5,6s10.5-2,14.5-6s6-8.9,6-14.6
			s-2-10.5-6-14.6c-4-4-8.8-6-14.5-6s-10.5,2-14.5,6s-6,8.9-6,14.6S13.5,42.5,17.5,46.6z"/>
	</g>
</g>
<g id="Layer_2">
</g>
<g>
	<path d="M25,19.3L45,32L25,44.7V19.3z"/>
</g>
</svg>
