<?xml version="1.0" encoding="utf-8"?>
<!-- Generator: Adobe Illustrator 19.2.0, SVG Export Plug-In . SVG Version: 6.00 Build 0)  -->
<svg version="1.1" id="Layer_1" xmlns="http://www.w3.org/2000/svg" xmlns:xlink="http://www.w3.org/1999/xlink" x="0px" y="0px"
	 viewBox="0 0 64 64" style="enable-background:new 0 0 64 64;" xml:space="preserve">
<style type="text/css">
	.st0{display:none;}
	.st1{display:inline;}
</style>
<g id="Layer_1_1_">
	<g class="st0">
		<rect class="st1" width="64" height="64"/>
	</g>
</g>
<path d="M52.5,28.3V4.7H11.4v54.7h20V56c0-0.2,0.1-0.5,0.1-0.7H15.6V8.6h32.8v19.7h4C52.5,28.3,52.5,28.3,52.5,28.3L52.5,28.3z"/>
<polygon points="42.2,42.4 35.5,42.4 47.3,54.3 59.2,42.4 52.6,42.4 52.4,42.4 52.4,32.3 48.4,32.3 42.2,32.3 "/>
<polygon points="39.6,56 35.5,56 35.5,59.4 36.1,59.4 59.2,59.4 59.2,56 "/>
<g>
	<rect x="18.4" y="21.1" width="2.2" height="2"/>
	<path d="M24.4,13.9c0.3-0.4,0.7-0.6,1.2-0.6c0.6,0,1,0.2,1.2,0.5s0.3,0.9,0.3,1.6h2.2l0,0c0-1.3-0.3-2.2-1-2.9
		c-0.6-0.7-1.5-1-2.8-1c-1.1,0-2.1,0.4-2.8,1.1s-1,1.8-1,3.1v3.4c0,1.3,0.4,2.4,1.1,3.1c0.7,0.7,1.7,1.1,2.8,1.1s2.1-0.3,2.7-1
		c0.6-0.6,0.9-1.6,0.9-2.9l0,0H27c0,0.8-0.1,1.3-0.3,1.6c-0.2,0.3-0.6,0.5-1.1,0.5c-0.6,0-1-0.2-1.3-0.6c-0.3-0.4-0.4-1-0.4-1.8
		v-3.4C24,14.9,24.2,14.3,24.4,13.9z"/>
	<path d="M30.1,14.7c0,1,0.3,1.7,0.9,2.2s1.5,1,2.7,1.4c0.6,0.3,1,0.5,1.2,0.8s0.3,0.6,0.3,1.1c0,0.4-0.1,0.8-0.3,1s-0.6,0.3-1,0.3
		c-0.6,0-1.1-0.2-1.4-0.5c-0.3-0.3-0.4-0.8-0.4-1.5h-2.2l0,0c0,1.2,0.4,2.1,1.2,2.7c0.8,0.6,1.7,1,2.8,1s2-0.3,2.6-0.8
		c0.7-0.6,1-1.3,1-2.3s-0.3-1.7-0.8-2.3s-1.4-1-2.5-1.4c-0.7-0.3-1.2-0.6-1.4-0.8s-0.4-0.6-0.4-0.9c0-0.4,0.1-0.8,0.4-1
		c0.2-0.3,0.6-0.4,1-0.4c0.5,0,0.8,0.2,1.1,0.5s0.4,0.8,0.4,1.3h2.2l0,0c0-1-0.3-1.8-1-2.5s-1.6-1-2.7-1c-1.1,0-2,0.3-2.7,0.9
		S30.1,13.7,30.1,14.7z"/>
	<polygon points="42,20.7 42,20.7 41.9,20.2 40,11.7 37.6,11.7 40.8,23.1 43.2,23.1 46.4,11.7 44,11.7 42.1,20.2 	"/>
</g>
</svg>
