<?xml version="1.0" encoding="utf-8"?>
<!-- Generator: Adobe Illustrator 19.2.0, SVG Export Plug-In . SVG Version: 6.00 Build 0)  -->
<svg version="1.1" id="Layer_1" xmlns="http://www.w3.org/2000/svg" xmlns:xlink="http://www.w3.org/1999/xlink" x="0px" y="0px"
	 viewBox="0 0 64 64" style="enable-background:new 0 0 64 64;" xml:space="preserve">
<style type="text/css">
	.st0{display:none;}
	.st1{display:inline;}
</style>
<g class="st0">
	<rect y="0" class="st1" width="64" height="64"/>
</g>
<g>
	<path d="M32.1,11.5c6.2,0,11.5,2.2,16,6.7c4.4,4.4,6.7,9.8,6.7,16.1s-2.2,11.6-6.7,16.1c-4.4,4.4-9.8,6.7-16.1,6.7
		s-11.6-2.2-16.1-6.7c-4.4-4.4-6.7-9.8-6.7-16.1H15c0,4.7,1.7,8.7,5,12.1c3.3,3.3,7.4,5,12.1,5c4.7,0,8.7-1.7,12.1-5
		c3.3-3.3,5-7.4,5-12.1c0-4.7-1.7-8.7-5-12.1c-3.3-3.3-7.4-5-12.1-5v11.5L17.8,14.3L32.1,0V11.5z"/>
</g>
</svg>
