<?xml version="1.0" encoding="utf-8"?>
<!-- Generator: Adobe Illustrator 19.2.0, SVG Export Plug-In . SVG Version: 6.00 Build 0)  -->
<svg version="1.1" id="Layer_1" xmlns="http://www.w3.org/2000/svg" xmlns:xlink="http://www.w3.org/1999/xlink" x="0px" y="0px"
	 viewBox="0 0 64 64" style="enable-background:new 0 0 64 64;" xml:space="preserve">
<style type="text/css">
	.st0{display:none;}
	.st1{display:inline;}
</style>
<g class="st0">
	<rect y="0" class="st1" width="64" height="64"/>
</g>
<g>
	<path d="M25.1,54.2c0-0.9,0.2-1.8,0.5-2.6c0.4-0.8,0.8-1.5,1.5-2.1c0.6-0.6,1.3-1.1,2.2-1.4c0.8-0.4,1.8-0.5,2.8-0.5
		c1,0,1.9,0.2,2.7,0.5c0.8,0.4,1.6,0.8,2.2,1.4c0.6,0.6,1.1,1.3,1.5,2.1c0.4,0.8,0.5,1.7,0.5,2.6c0,0.9-0.2,1.8-0.5,2.7
		c-0.4,0.8-0.8,1.5-1.5,2.1c-0.6,0.6-1.4,1.1-2.2,1.4c-0.8,0.3-1.7,0.5-2.7,0.5c-1,0-1.9-0.2-2.8-0.5c-0.8-0.3-1.6-0.8-2.2-1.4
		c-0.6-0.6-1.1-1.3-1.5-2.1C25.3,56,25.1,55.2,25.1,54.2z M37.8,3.1v22.5c0,2.4-0.1,4.8-0.4,7.2c-0.3,2.4-0.7,4.8-1.1,7.3H28
		c-0.5-2.5-0.9-4.9-1.1-7.3c-0.3-2.4-0.4-4.8-0.4-7.2V3.1H37.8z"/>
</g>
</svg>
