<?xml version="1.0" encoding="utf-8"?>
<!-- Generator: Adobe Illustrator 19.2.0, SVG Export Plug-In . SVG Version: 6.00 Build 0)  -->
<svg version="1.1" id="Layer_1" xmlns="http://www.w3.org/2000/svg" xmlns:xlink="http://www.w3.org/1999/xlink" x="0px" y="0px"
	 viewBox="0 0 64 64" style="enable-background:new 0 0 64 64;" xml:space="preserve">
<style type="text/css">
	.st0{display:none;}
	.st1{display:inline;}
</style>
<g class="st0">
	<rect y="0" class="st1" width="64" height="64"/>
</g>
<g>
	<path d="M35.7,38.8c0-0.8,0.1-1.6,0.2-2.3c-2.5,0.3-5.1,0.5-7.9,0.5c-4.3,0-8.4-0.4-12.1-1.2c-3.8-0.7-6.8-1.9-9-3.5V37
		c0,1.2,0.9,2.4,2.8,3.5c1.9,1.1,4.5,2,7.7,2.6c3.3,0.6,6.8,0.9,10.6,0.9c1.9,0,3.7-0.1,5.5-0.2v-4.7h2.2V38.8z"/>
	<path d="M33.5,47.4c-1.8,0.2-3.6,0.2-5.5,0.2c-4.3,0-8.3-0.4-12.1-1.2c-3.8-0.8-6.8-2-9.1-3.5v4.7c0,1.2,0.9,2.4,2.8,3.5
		c1.9,1.1,4.5,2,7.7,2.6c3.3,0.6,6.8,0.9,10.6,0.9c1.9,0,3.8-0.1,5.6-0.2V47.4z"/>
	<path d="M9.8,19.5c1.9,1.1,4.5,2,7.7,2.6c3.3,0.6,6.8,0.9,10.6,0.9s7.3-0.3,10.6-0.9c3.3-0.7,5.8-1.5,7.7-2.6
		c1.9-1.1,2.8-2.2,2.8-3.5v-3.5c0-1.3-0.9-2.4-2.8-3.5c-1.9-1.1-4.5-2-7.7-2.6c-3.3-0.6-6.8-0.9-10.6-0.9s-7.4,0.3-10.6,0.9
		C14.3,7,11.7,7.9,9.8,9C7.9,10.1,7,11.2,7,12.5V16C7,17.3,7.9,18.4,9.8,19.5z"/>
	<path d="M9.7,30c1.9,1.1,4.5,2,7.7,2.6c3.3,0.6,6.8,0.9,10.6,0.9c3.4,0,6.5-0.2,9.4-0.7c0.5-0.8,1-1.5,1.7-2.2
		c2.3-2.3,5.1-3.4,8.2-3.4c0.5,0,1,0,1.5,0.1c0.1-0.3,0.1-0.5,0.1-0.8v-4.7c-2.2,1.6-5.1,2.7-8.9,3.5c-3.7,0.8-7.8,1.2-12.1,1.2
		s-8.3-0.4-12.1-1.2s-6.8-1.9-9.1-3.5v4.7C6.9,27.8,7.8,28.9,9.7,30z"/>
</g>
<path d="M55.8,42.3v-3.4c0-2.3-0.8-4.3-2.5-6c-1.6-1.7-3.6-2.5-6-2.5c-2.3,0-4.3,0.8-6,2.5c-1.7,1.7-2.5,3.7-2.5,6v3.4h-2.2v18.4H58
	V42.3H55.8z M42.3,38.8c0-1.4,0.3-2.7,1.4-3.7c1-1,2.2-1.6,3.7-1.6c1.5,0,2.7,0.5,3.7,1.6c1,1,1.6,2.3,1.6,3.7v3.4H42.3V38.8z"/>
</svg>
