<?xml version="1.0" encoding="utf-8"?>
<!-- Generator: Adobe Illustrator 19.2.0, SVG Export Plug-In . SVG Version: 6.00 Build 0)  -->
<svg version="1.1" id="Layer_1" xmlns="http://www.w3.org/2000/svg" xmlns:xlink="http://www.w3.org/1999/xlink" x="0px" y="0px"
	 viewBox="0 0 64 64" style="enable-background:new 0 0 64 64;" xml:space="preserve">
<style type="text/css">
	.st0{display:none;}
	.st1{display:inline;}
</style>
<g id="Layer_1_1_">
	<g class="st0">
		<rect class="st1" width="64" height="64"/>
	</g>
</g>
<g id="Layer_2">
	<g>
		<path d="M32,13.7l-7.8,7.8l3.7,3.7l7.8-7.8c1.6-1.6,3.6-2.5,6-2.5c2.4,0,4.4,0.8,6,2.5c1.6,1.6,2.5,3.6,2.5,6s-0.8,4.4-2.5,6
			L40,37.2l3.7,3.7l7.8-7.8c2.7-2.7,4-5.9,4-9.8c0-3.8-1.3-7.1-4-9.8c-2.7-2.7-5.9-4-9.8-4C37.9,9.6,34.7,11.1,32,13.7z"/>
		<rect x="21" y="30.4" transform="matrix(0.7071 -0.7071 0.7071 0.7071 -14.0473 32.3868)" width="22.1" height="5.4"/>
		<path d="M8.5,42.9c0,3.8,1.3,7.1,4,9.8c2.7,2.7,5.9,4,9.8,4s7.1-1.3,9.8-4l7.8-7.8L36,41.1l-7.8,7.8c-1.7,1.7-3.7,2.5-6.1,2.5
			c-2.3-0.1-4.4-0.8-6-2.5s-2.5-3.6-2.5-6c-0.1-2.3,0.8-4.4,2.5-6.1l7.8-7.8l-3.7-3.7l-7.8,7.8C9.9,35.8,8.5,39.1,8.5,42.9z"/>
	</g>
</g>
</svg>
