<?xml version="1.0" encoding="utf-8"?>
<!-- Generator: Adobe Illustrator 19.2.0, SVG Export Plug-In . SVG Version: 6.00 Build 0)  -->
<svg version="1.1" id="Layer_1" xmlns="http://www.w3.org/2000/svg" xmlns:xlink="http://www.w3.org/1999/xlink" x="0px" y="0px"
	 viewBox="0 0 64 64" style="enable-background:new 0 0 64 64;" xml:space="preserve">
<style type="text/css">
	.st0{display:none;}
	.st1{display:inline;}
	.st2{fill:none;}
	.st3{fill:#010101;}
</style>
<g class="st0">
	<rect class="st1" width="64" height="64"/>
</g>
<g>
	<path d="M13.1,13.1C18.3,7.9,24.6,5.3,32,5.3c7.4,0,13.7,2.6,18.9,7.8c5.2,5.2,7.8,11.5,7.8,18.9c0,7.4-2.6,13.7-7.8,18.9
		c-5.2,5.2-11.5,7.8-18.9,7.8c-7.4,0-13.7-2.6-18.9-7.8C7.8,45.7,5.2,39.4,5.2,32C5.2,24.6,7.8,18.4,13.1,13.1z M16.9,47.2
		c4.2,4.2,9.2,6.3,15.1,6.3c5.9,0,10.9-2.1,15.1-6.3c4.2-4.2,6.3-9.2,6.3-15.2c0-5.9-2.1-11-6.3-15.2c-4.2-4.2-9.2-6.3-15.1-6.3
		c-5.9,0-10.9,2.1-15.1,6.3c-4.2,4.2-6.3,9.2-6.3,15.2C10.6,37.9,12.7,43,16.9,47.2z"/>
</g>
<polygon points="34.5,35.5 20.7,35.5 20.7,30.5 29.5,30.5 29.5,15.2 34.5,15.2 "/>
</svg>
