<?xml version="1.0" encoding="utf-8"?>
<!-- Generator: Adobe Illustrator 19.2.0, SVG Export Plug-In . SVG Version: 6.00 Build 0)  -->
<svg version="1.1" id="Layer_1" xmlns="http://www.w3.org/2000/svg" xmlns:xlink="http://www.w3.org/1999/xlink" x="0px" y="0px"
	 viewBox="0 0 64 64" style="enable-background:new 0 0 64 64;" xml:space="preserve">
<style type="text/css">
	.st0{display:none;}
	.st1{display:inline;}
</style>
<g class="st0">
	<rect y="0" class="st1" width="64" height="64"/>
</g>
<g>
	<path d="M19.8,42.2c-0.7-0.7-1.1-1.7-1.1-2.7H8.1v-7.2h17.4c1-2.8,2.6-5.3,4.8-7.5c4-4,9-6.1,14.7-6.1c0.8,0,1.6,0,2.3,0.1l-1-0.7
		l-1.8-1.2h-2.1H17.9h-2.5l-1.9,1.6l-8.9,7.1l-2.7,2.1v3.4v7.7V46h7.1h14.6L19.8,42.2z"/>
</g>
<path d="M33.1,27.5c3.3-3.3,7.3-5,12-5c4.7,0,8.7,1.7,12,5c3.3,3.3,5,7.3,5,12c0,4.7-1.7,8.7-5,12c-3.3,3.3-7.3,5-12,5
	c-4.7,0-8.7-1.6-12-5l2.7-2.7c2.5,2.6,5.6,3.9,9.3,3.9c3.7,0,6.8-1.3,9.3-3.8c2.6-2.6,3.8-5.7,3.8-9.3c0-3.7-1.3-6.8-3.8-9.3
	c-2.6-2.6-5.7-3.8-9.3-3.8c-3.7,0-6.8,1.3-9.3,3.8c-2.6,2.6-3.8,5.7-3.8,9.3h5.7l-7.7,7.6l-0.1-0.3l-7.3-7.3h5.7
	C28.2,34.8,29.8,30.8,33.1,27.5z M43.3,32h2.8v8l6.5,4l-1.3,2.3l-8-4.9V32z"/>
</svg>
