<?xml version="1.0" encoding="utf-8"?>
<!-- Generator: Adobe Illustrator 19.2.0, SVG Export Plug-In . SVG Version: 6.00 Build 0)  -->
<svg version="1.1" id="Layer_1" xmlns="http://www.w3.org/2000/svg" xmlns:xlink="http://www.w3.org/1999/xlink" x="0px" y="0px"
	 viewBox="0 0 64 64" style="enable-background:new 0 0 64 64;" xml:space="preserve">
<style type="text/css">
	.st0{display:none;}
	.st1{display:inline;}
	.st2{fill:none;}
</style>
<g class="st0">
	<rect y="0" class="st1" width="64" height="64"/>
</g>
<g>
	<path class="st2" d="M32,14.3c0.7,0,1.3-0.2,1.8-0.7c0.5-0.5,0.7-1.1,0.7-1.8s-0.2-1.3-0.7-1.8c-0.5-0.5-1.1-0.7-1.8-0.7
		s-1.3,0.2-1.8,0.7c-0.5,0.5-0.7,1.1-0.7,1.8s0.2,1.3,0.7,1.8C30.7,14,31.3,14.3,32,14.3z"/>
	<path d="M39.1,9.3c-0.6-1.5-1.5-2.7-2.8-3.7C35,4.7,33.6,4.2,32,4.2c-1.6,0-3,0.5-4.3,1.4s-2.2,2.2-2.8,3.7H9.2v50.5h45.5V9.3H39.1
		z M30.2,10c0.5-0.5,1.1-0.7,1.8-0.7s1.3,0.2,1.8,0.7c0.5,0.5,0.7,1.1,0.7,1.8s-0.2,1.3-0.7,1.8c-0.5,0.5-1.1,0.7-1.8,0.7
		s-1.3-0.2-1.8-0.7c-0.5-0.5-0.7-1.1-0.7-1.8S29.7,10.5,30.2,10z M14.3,54.8V14.3h5v7.6h25.4v-7.6h5v40.5H14.3z"/>
</g>
</svg>
