<?xml version="1.0" encoding="utf-8"?>
<!-- Generator: Adobe Illustrator 19.2.0, SVG Export Plug-In . SVG Version: 6.00 Build 0)  -->
<svg version="1.1" id="Layer_1" xmlns="http://www.w3.org/2000/svg" xmlns:xlink="http://www.w3.org/1999/xlink" x="0px" y="0px"
	 viewBox="0 0 64 64" style="enable-background:new 0 0 64 64;" xml:space="preserve">
<style type="text/css">
	.st0{display:none;}
	.st1{display:inline;}
</style>
<g>
	<path d="M11,31.3V36c0,1.2,0.9,2.4,2.8,3.5c1.6,1,3.8,1.8,6.4,2.3l1.9-1.9c0,0,0,0,0,0l4.1-4.1l0,0c-2.2-0.2-4.3-0.5-6.3-0.9
		C16.2,34.1,13.2,32.9,11,31.3z"/>
	<path d="M47.5,48.4l-4,4c2.8-0.7,5-1.4,6.8-2.4c1.9-1.1,2.8-2.2,2.8-3.5v-4.7c-0.7,0.5-1.6,1-2.5,1.5C50,45.3,49,47,47.5,48.4z"/>
	<path d="M16.5,45.6l0.8-0.8c-2.6-0.7-4.7-1.7-6.4-2.8v4.7c0,1.2,0.9,2.4,2.8,3.5C14.2,48.4,15.2,46.9,16.5,45.6z"/>
	<path d="M50.3,8c-1.9-1.1-4.5-2-7.7-2.6C39.3,4.8,35.8,4.5,32,4.5s-7.4,0.3-10.6,0.9C18.3,6,15.7,6.9,13.8,8
		c-1.9,1.1-2.8,2.2-2.8,3.5V15c0,1.3,0.9,2.4,2.8,3.5c1.9,1.1,4.5,2,7.7,2.6C24.8,21.7,28.3,22,32,22s7.3-0.3,10.6-0.9
		c3.3-0.7,5.8-1.5,7.7-2.6c1.9-1.1,2.8-2.2,2.8-3.5v-3.5C53.2,10.2,52.3,9.1,50.3,8z"/>
	<path d="M51,39c1.4-0.9,2.1-1.9,2.1-3v-4.7c-1.1,0.8-2.5,1.5-4,2.1C50.2,35.1,50.8,37,51,39z"/>
	<path d="M32,25.5c-4.3,0-8.3-0.4-12.1-1.2s-6.8-1.9-9.1-3.5v4.7c0,1.3,0.9,2.4,2.8,3.5c1.9,1.1,4.5,2,7.7,2.6
		c2.6,0.5,5.3,0.8,8.2,0.9l1-1c2.3-2.3,5.3-3.5,8.5-3.5c2.8,0,5.4,0.9,7.5,2.6c1.5-0.5,2.7-1,3.8-1.6c1.9-1.1,2.8-2.2,2.8-3.5v-4.7
		c-2.2,1.6-5.1,2.7-8.9,3.5C40.5,25.1,36.3,25.5,32,25.5z"/>
</g>
<g class="st0">
	<rect class="st1" width="64" height="64"/>
</g>
<path d="M44.7,45.6l-5.7,5.7c-3.1,3.1-8.1,3.1-11.3,0c-0.5-0.5-0.9-1-1.2-1.6l2.6-2.6c0.1-0.1,0.3-0.2,0.4-0.3
	c0.2,0.6,0.5,1.2,1,1.7c1.6,1.6,4.1,1.6,5.7,0l5.7-5.7c1.6-1.6,1.6-4.1,0-5.7c-1.6-1.6-4.1-1.6-5.7,0l-2,2c-1.6-0.6-3.4-0.8-5.1-0.6
	l4.3-4.3c3.1-3.1,8.1-3.1,11.3,0C47.8,37.4,47.8,42.5,44.7,45.6z M29.8,54.9l-2,2c-1.6,1.6-4.1,1.6-5.7,0c-1.6-1.6-1.6-4.1,0-5.7
	l5.7-5.7c1.6-1.6,4.1-1.6,5.7,0c0.5,0.5,0.8,1.1,1,1.7c0.2-0.1,0.3-0.2,0.4-0.3l2.6-2.6c-0.3-0.6-0.7-1.1-1.2-1.6
	c-3.1-3.1-8.1-3.1-11.3,0l-5.7,5.7c-3.1,3.1-3.1,8.2,0,11.3s8.1,3.1,11.3,0l4.3-4.3C33.2,55.7,31.4,55.5,29.8,54.9z"/>
</svg>
