<?xml version="1.0" encoding="utf-8"?>
<!-- Generator: Adobe Illustrator 19.2.0, SVG Export Plug-In . SVG Version: 6.00 Build 0)  -->
<svg version="1.1" id="Layer_1" xmlns="http://www.w3.org/2000/svg" xmlns:xlink="http://www.w3.org/1999/xlink" x="0px" y="0px"
	 viewBox="0 0 64 64" style="enable-background:new 0 0 64 64;" xml:space="preserve">
<style type="text/css">
	.st0{display:none;}
	.st1{display:inline;}
</style>
<g class="st0">
	<rect class="st1" width="64" height="64"/>
</g>
<g>
	<path d="M58.3,30.8c1.1,1.1,1.7,2.5,1.7,4c0,1.5-0.6,2.8-1.7,3.9L38.8,58.4c-1.1,1.1-2.5,1.6-4,1.6c-1.5,0-2.8-0.5-3.9-1.6
		L5.6,33.2c-1.1-1.1-1.7-2.5-1.7-3.9V9.5c0-1.5,0.5-2.8,1.6-3.9C6.7,4.6,8,4,9.6,4h19.6c1.6,0,2.9,0.5,3.9,1.6L58.3,30.8z
		 M10.8,16.8c0.8,0.8,1.8,1.2,3,1.2c1.2,0,2.2-0.4,3-1.2c0.8-0.8,1.2-1.8,1.2-3c0-1.2-0.4-2.2-1.2-3c-0.8-0.8-1.8-1.2-3-1.2
		c-1.2,0-2.2,0.4-3,1.2c-0.8,0.8-1.2,1.8-1.2,3C9.6,15,10,16,10.8,16.8z"/>
</g>
</svg>
