<?xml version="1.0" encoding="utf-8"?>
<!-- Generator: Adobe Illustrator 19.2.0, SVG Export Plug-In . SVG Version: 6.00 Build 0)  -->
<svg version="1.1" id="Layer_1" xmlns="http://www.w3.org/2000/svg" xmlns:xlink="http://www.w3.org/1999/xlink" x="0px" y="0px"
	 viewBox="0 0 64 64" style="enable-background:new 0 0 64 64;" xml:space="preserve">
<style type="text/css">
	.st0{display:none;}
	.st1{display:inline;}
	.st2{fill:none;}
	.st3{fill:#010101;}
</style>
<g class="st0">
	<rect class="st1" width="64" height="64"/>
</g>
<path class="st3" d="M54,29.6l-9.8,9.8c-5.4,5.4-14.1,5.4-19.5,0c-0.8-0.8-1.5-1.8-2.1-2.8l4.5-4.5c0.2-0.2,0.5-0.3,0.7-0.5
	c0.3,1.1,0.9,2.1,1.7,2.9c2.7,2.7,7.1,2.7,9.8,0l9.8-9.8c2.7-2.7,2.7-7.1,0-9.8c-2.7-2.7-7.1-2.7-9.8,0l-3.5,3.5
	C33,17.3,30,17,27,17.4l7.4-7.4c5.4-5.4,14.1-5.4,19.5,0C59.4,15.4,59.4,24.2,54,29.6z M28.2,45.6l-3.5,3.5c-2.7,2.7-7.1,2.7-9.8,0
	c-2.7-2.7-2.7-7.1,0-9.8l9.8-9.8c2.7-2.7,7.1-2.7,9.8,0c0.8,0.8,1.4,1.9,1.7,2.9c0.3-0.1,0.5-0.3,0.7-0.5l4.5-4.5
	c-0.6-1-1.2-1.9-2.1-2.8c-5.4-5.4-14.1-5.4-19.5,0L10,34.4C4.6,39.8,4.6,48.6,10,54c5.4,5.4,14.1,5.4,19.5,0l7.4-7.4
	C34,47,31,46.7,28.2,45.6z"/>
</svg>
