<?xml version="1.0" encoding="utf-8"?>
<!-- Generator: Adobe Illustrator 19.2.0, SVG Export Plug-In . SVG Version: 6.00 Build 0)  -->
<svg version="1.1" xmlns="http://www.w3.org/2000/svg" xmlns:xlink="http://www.w3.org/1999/xlink" x="0px" y="0px"
	 viewBox="0 0 64 64" style="enable-background:new 0 0 64 64;" xml:space="preserve">
<style type="text/css">
	.st0{display:none;}
	.st1{display:inline;}
	.st2{fill:none;}
	.st3{fill:#010101;}
</style>
<g id="Layer_1">
	<g class="st0">
		<rect class="st1" width="64" height="64"/>
	</g>
	<g>
		<path d="M43.4,12H20.6c-11,0-20,9-20,20v0c0,11,9,20,20,20h22.8c11,0,20-9,20-20v0C63.4,21,54.4,12,43.4,12z M31.4,42.2
			c-2.8,2.8-6.2,4.2-10.2,4.2c-4,0-7.4-1.4-10.2-4.2C8.2,39.4,6.8,36,6.8,32c0-4,1.4-7.4,4.2-10.2c2.8-2.8,6.2-4.2,10.2-4.2
			c4,0,7.4,1.4,10.2,4.2c2.8,2.8,4.2,6.2,4.2,10.2C35.7,36,34.3,39.4,31.4,42.2z"/>
	</g>
</g>
<g id="Layer_2">
</g>
</svg>
