<?xml version="1.0" encoding="utf-8"?>
<!-- Generator: Adobe Illustrator 19.2.0, SVG Export Plug-In . SVG Version: 6.00 Build 0)  -->
<svg version="1.1" id="Layer_1" xmlns="http://www.w3.org/2000/svg" xmlns:xlink="http://www.w3.org/1999/xlink" x="0px" y="0px"
	 viewBox="0 0 64 64" style="enable-background:new 0 0 64 64;" xml:space="preserve">
<style type="text/css">
	.st0{display:none;}
	.st1{display:inline;}
	.st2{fill:none;}
	.st3{fill:#010101;}
</style>
<g class="st0">
	<rect class="st1" width="64" height="64"/>
</g>
<g>
	<path d="M42.2,7.5l14.3,14.3v20.4L42.2,56.5H21.8L7.5,42.2V21.8L21.8,7.5H42.2z M29.5,45.4c0.7,0.7,1.5,1,2.6,1c1,0,1.9-0.3,2.5-1
		c0.7-0.7,1-1.5,1-2.5c0-1-0.3-1.8-1-2.5c-0.7-0.7-1.5-1-2.5-1c-1,0-1.9,0.3-2.6,1c-0.7,0.7-1,1.5-1,2.5
		C28.4,43.9,28.8,44.7,29.5,45.4z M34.7,34.7V18.4h-5.4v16.3H34.7z"/>
</g>
</svg>
