<?xml version="1.0" encoding="utf-8"?>
<!-- Generator: Adobe Illustrator 19.2.0, SVG Export Plug-In . SVG Version: 6.00 Build 0)  -->
<svg version="1.1" id="Layer_1" xmlns="http://www.w3.org/2000/svg" xmlns:xlink="http://www.w3.org/1999/xlink" x="0px" y="0px"
	 viewBox="0 0 64 64" style="enable-background:new 0 0 64 64;" xml:space="preserve">
<style type="text/css">
	.st0{display:none;}
	.st1{display:inline;}
</style>
<g class="st0">
	<rect y="0" class="st1" width="64" height="64"/>
</g>
<g>
	<path d="M41.9,44l-2.5,14.3h-5.2c-0.5,0-0.9-0.1-1.3-0.3c-0.4-0.2-0.7-0.5-1-0.8c-0.3-0.3-0.5-0.7-0.7-1.2
		c-0.2-0.4-0.3-0.9-0.3-1.4c0-0.1,0-0.3,0-0.4c0-0.1,0-0.3,0.1-0.4l1.7-9.8h-6L25,54.4c-0.1,0.7-0.3,1.3-0.6,1.8
		c-0.3,0.5-0.7,0.9-1.2,1.2c-0.5,0.3-1,0.5-1.5,0.7c-0.5,0.1-1.1,0.2-1.7,0.2h-5L17.6,44h-3.2c-0.9,0-1.6-0.2-2.1-0.7
		c-0.5-0.4-0.8-1.2-0.8-2.3c0-0.2,0-0.4,0-0.7c0-0.2,0.1-0.5,0.1-0.8l0.6-3.5h6.4l1.5-8.5H13l0.9-4.5c0.2-1.1,0.7-1.9,1.4-2.5
		c0.7-0.5,1.9-0.8,3.5-0.8h2.5l1.9-10.6c0.2-1.1,0.7-2,1.6-2.7c0.9-0.6,1.9-1,3.1-1h5.1l-2.5,14.2h6l2.5-14.2h5
		c1.1,0,1.9,0.3,2.6,0.9c0.7,0.6,1,1.3,1,2.2c0,0.1,0,0.2,0,0.3c0,0.1,0,0.2,0,0.3l-1.9,10.5h7l-0.9,4.5c-0.2,1.1-0.7,2-1.4,2.5
		c-0.7,0.5-1.9,0.8-3.5,0.8h-2.3l-1.5,8.5h3.9c0.9,0,1.6,0.2,2.1,0.7c0.5,0.4,0.8,1.2,0.8,2.3c0,0.2,0,0.4,0,0.7
		c0,0.2-0.1,0.5-0.1,0.8L49,44H41.9z M27.8,36.2h6l1.5-8.5h-6L27.8,36.2z"/>
</g>
</svg>
