<?xml version="1.0" encoding="utf-8"?>
<!-- Generator: Adobe Illustrator 19.2.0, SVG Export Plug-In . SVG Version: 6.00 Build 0)  -->
<svg version="1.1" xmlns="http://www.w3.org/2000/svg" xmlns:xlink="http://www.w3.org/1999/xlink" x="0px" y="0px"
	 viewBox="0 0 64 64" style="enable-background:new 0 0 64 64;" xml:space="preserve">
<style type="text/css">
	.st0{display:none;}
	.st1{display:inline;}
	.st2{fill:none;}
	.st3{fill:#010101;}
	.st4{fill-rule:evenodd;clip-rule:evenodd;}
</style>
<g id="Layer_1">
	<g class="st0">
		<rect class="st1" width="64" height="64"/>
	</g>
</g>
<g id="Layer_2">
	<g>
		<path d="M33.7,27h25.6v10h-4.9v9.9h-10V37H33.7c-1.1,2.9-2.9,5.2-5.5,7.1c-2.6,1.9-5.4,2.8-8.6,2.8c-4.1,0-7.6-1.5-10.6-4.4
			S4.7,36.1,4.7,32c0-4.1,1.5-7.6,4.4-10.6s6.4-4.4,10.6-4.4c3.2,0,6.1,0.9,8.6,2.8S32.6,24.1,33.7,27z M16,35.6
			c1,1,2.2,1.5,3.6,1.5c1.4,0,2.6-0.5,3.6-1.5c1-1,1.5-2.2,1.5-3.6c0-1.4-0.5-2.6-1.5-3.6c-1-1-2.2-1.5-3.6-1.5
			c-1.4,0-2.6,0.5-3.6,1.5c-1,1-1.5,2.2-1.5,3.6C14.6,33.4,15.1,34.6,16,35.6z"/>
	</g>
</g>
</svg>
