<?xml version="1.0" encoding="utf-8"?>
<!-- Generator: Adobe Illustrator 19.2.0, SVG Export Plug-In . SVG Version: 6.00 Build 0)  -->
<svg version="1.1" id="Layer_1" xmlns="http://www.w3.org/2000/svg" xmlns:xlink="http://www.w3.org/1999/xlink" x="0px" y="0px"
	 viewBox="0 0 64 64" style="enable-background:new 0 0 64 64;" xml:space="preserve">
<style type="text/css">
	.st0{display:none;}
	.st1{display:inline;}
</style>
<g class="st0">
	<rect y="0" class="st1" width="64" height="64"/>
</g>
<g>
	<path d="M54,8.1c-1-1-2.2-1.5-3.6-1.5H40c-0.5-1.5-1.5-2.7-2.8-3.6S34.6,1.6,33,1.6c-1.6,0-3,0.5-4.3,1.4S26.5,5.1,26,6.6H15.5
		c-1.4,0-2.6,0.5-3.6,1.5c-1,1-1.5,2.1-1.5,3.5v7h5v-7h4.9v5h25.1v-5h4.9v40.1h-5.6v4.9h5.6c1.4,0,2.6-0.5,3.6-1.5
		c1-1,1.5-2.1,1.5-3.5V11.5C55.5,10.2,55,9.1,54,8.1z M34.8,10.8c-0.5,0.5-1.1,0.7-1.8,0.7s-1.3-0.2-1.8-0.7
		c-0.5-0.5-0.7-1.1-0.7-1.8c0-0.7,0.2-1.3,0.7-1.8c0.5-0.5,1.1-0.7,1.8-0.7s1.3,0.2,1.8,0.7c0.5,0.5,0.7,1.1,0.7,1.8
		C35.5,9.8,35.2,10.4,34.8,10.8z"/>
	<g>
		<path d="M37.9,36.8l-3.5-3.5L30,28.9l-3.5-3.5L25,23.9h-3.5h-11v36.5h28.9V41.8v-3.5L37.9,36.8z M30.9,36.8h-4.4v-4.4L30.9,36.8z
			 M34.4,55.4H15.6V28.9h6v7.9v5h5h7.8V55.4z"/>
	</g>
</g>
</svg>
