<?xml version="1.0" encoding="utf-8"?>
<!-- Generator: Adobe Illustrator 19.2.0, SVG Export Plug-In . SVG Version: 6.00 Build 0)  -->
<svg version="1.1" id="Layer_1" xmlns="http://www.w3.org/2000/svg" xmlns:xlink="http://www.w3.org/1999/xlink" x="0px" y="0px"
	 viewBox="0 0 64 64" style="enable-background:new 0 0 64 64;" xml:space="preserve">
<style type="text/css">
	.st0{display:none;}
	.st1{display:inline;}
</style>
<g class="st0">
	<rect class="st1" width="64" height="64"/>
</g>
<g>
	<rect x="0.6" y="42.8" transform="matrix(0.7071 -0.7071 0.7071 0.7071 -27.5678 26.0712)" width="34.1" height="7"/>
	<rect x="30.4" y="23.7" transform="matrix(0.7071 -0.7071 0.7071 0.7071 -8.4428 33.9951)" width="12.9" height="7"/>
	<rect x="36.3" y="6.3" width="2" height="10"/>
	<polygon points="51.3,3.2 53.8,6 57.5,6.4 55.6,9.6 56.5,13.2 52.8,12.4 49.6,14.3 49.3,10.6 46.5,8.1 49.9,6.7 	"/>
	<polygon points="54.3,16.4 54.4,19 56.4,20.7 54,21.7 52.9,24.1 51.2,22.1 48.6,21.8 50,19.6 49.5,17.1 52,17.7 	"/>
	<rect x="46.8" y="27.6" width="11.1" height="2"/>
	<rect x="31.7" y="12.5" transform="matrix(0.9487 -0.3163 0.3163 0.9487 -3.2783 11.1367)" width="2" height="6.3"/>
	<rect x="42.2" y="15.4" transform="matrix(0.4961 -0.8682 0.8682 0.4961 8.0241 46.702)" width="4" height="2"/>
	<rect x="46.6" y="30.2" transform="matrix(0.4755 -0.8797 0.8797 0.4755 -4.6583 59.5203)" width="2" height="7"/>
</g>
</svg>
