<?xml version="1.0" encoding="utf-8"?>
<!-- Generator: Adobe Illustrator 19.2.0, SVG Export Plug-In . SVG Version: 6.00 Build 0)  -->
<svg version="1.1" id="Layer_1" xmlns="http://www.w3.org/2000/svg" xmlns:xlink="http://www.w3.org/1999/xlink" x="0px" y="0px"
	 viewBox="0 0 64 64" style="enable-background:new 0 0 64 64;" xml:space="preserve">
<style type="text/css">
	.st0{display:none;}
	.st1{display:inline;}
</style>
<g class="st0">
	<rect class="st1" width="64" height="64"/>
</g>
<path d="M32,16.8C14.8,16.8,0.8,30,0.8,30S14.8,47.3,32,47.3S63.2,30,63.2,30S49.2,16.8,32,16.8z M32,43.3c-11,0-20.8-8.4-25.4-12.9
	c4.7-3.5,14.4-9.6,25.4-9.6c0.9,0,1.8,0.1,2.6,0.1c0.5,1,0.9,2.2,0.9,3.4c0,4.1-3.3,7.3-7.3,7.3c-3.5,0-6.4-2.4-7.1-5.6
	c-0.1,0.7-0.2,1.4-0.2,2.1c0,6.2,5,11.2,11.2,11.2s11.2-5,11.2-11.2c0-2.2-0.6-4.3-1.7-6c6.9,2,12.6,5.7,15.9,8.2
	C52.8,35,43,43.3,32,43.3z"/>
</svg>
