<?xml version="1.0" encoding="utf-8"?>
<!-- Generator: Adobe Illustrator 19.2.0, SVG Export Plug-In . SVG Version: 6.00 Build 0)  -->
<svg version="1.1" id="Layer_1" xmlns="http://www.w3.org/2000/svg" xmlns:xlink="http://www.w3.org/1999/xlink" x="0px" y="0px"
	 viewBox="0 0 64 64" style="enable-background:new 0 0 64 64;" xml:space="preserve">
<style type="text/css">
	.st0{display:none;}
	.st1{display:inline;}
</style>
<g class="st0">
	<rect y="0" class="st1" width="64" height="64"/>
</g>
<g>
	<path d="M48.6,21.3c1.5,0,2.7,0.5,3.8,1.6c1.1,1.1,1.6,2.3,1.6,3.8v27.6c0,1.5-0.5,2.7-1.6,3.8c-1.1,1.1-2.3,1.6-3.8,1.6h-33
		c-1.5,0-2.9-0.5-3.9-1.6C10.6,57,10,55.7,10,54.3V26.7c0-1.5,0.5-2.7,1.6-3.8c1.1-1.1,2.4-1.6,3.9-1.6h25v-5.5c0-2.3-0.8-4.3-2.5-6
		c-1.7-1.7-3.7-2.5-6.1-2.5c-2.4,0-4.4,0.8-6,2.5c-1.6,1.7-2.4,3.7-2.4,6h-5.3c0-3.8,1.4-7,4.1-9.7s5.9-4.1,9.7-4.1
		c3.8,0,7,1.4,9.7,4.1c2.7,2.7,4,5.9,4,9.7v5.5H48.6z M48.6,54.3V26.7h-33v27.6H48.6z"/>
</g>
</svg>
