<?xml version="1.0" encoding="utf-8"?>
<!-- Generator: Adobe Illustrator 19.2.0, SVG Export Plug-In . SVG Version: 6.00 Build 0)  -->
<svg version="1.1" id="Layer_1" xmlns="http://www.w3.org/2000/svg" xmlns:xlink="http://www.w3.org/1999/xlink" x="0px" y="0px"
	 viewBox="0 0 64 64" style="enable-background:new 0 0 64 64;" xml:space="preserve">
<style type="text/css">
	.st0{display:none;}
	.st1{display:inline;}
</style>
<g class="st0">
	<rect class="st1" width="64" height="64"/>
</g>
<path d="M58.6,9.1l-3.8-3.8c-1.9-1.9-4.3-2.8-6.8-2.8s-4.9,0.9-6.8,2.8l-36,36c-3.7,3.7-3.7,9.8,0,13.5l3.8,3.8
	c1.9,1.9,4.3,2.8,6.8,2.8s4.9-0.9,6.8-2.8l36-36C62.4,18.9,62.4,12.9,58.6,9.1z M25.4,29.4c1.4,0,2.6,1.2,2.6,2.6s-1.2,2.6-2.6,2.6
	s-2.6-1.2-2.6-2.6S24,29.4,25.4,29.4z M19.9,55.8c-1.1,1.1-2.5,1.6-3.9,1.6S13,56.9,12,55.8L8.2,52c-2.2-2.2-2.2-5.7,0-7.9l8.5-8.5
	l11.7,11.7L19.9,55.8z M32,22.8c1.4,0,2.6,1.2,2.6,2.6S33.4,28,32,28c-1.4,0-2.6-1.2-2.6-2.6S30.6,22.8,32,22.8z M32,41.2
	c-1.4,0-2.6-1.2-2.6-2.6S30.6,36,32,36s2.6,1.2,2.6,2.6S33.4,41.2,32,41.2z M38.6,34.6c-1.4,0-2.6-1.2-2.6-2.6s1.2-2.6,2.6-2.6
	s2.6,1.2,2.6,2.6S40,34.6,38.6,34.6z M55.8,19.9l-8.5,8.5L35.6,16.7l8.5-8.5c1.1-1.1,2.5-1.6,3.9-1.6c1.5,0,2.9,0.6,3.9,1.6l3.8,3.8
	C58,14.1,58,17.7,55.8,19.9z"/>
</svg>
