<?xml version="1.0" encoding="utf-8"?>
<!-- Generator: Adobe Illustrator 19.2.0, SVG Export Plug-In . SVG Version: 6.00 Build 0)  -->
<svg version="1.1" id="Layer_1" xmlns="http://www.w3.org/2000/svg" xmlns:xlink="http://www.w3.org/1999/xlink" x="0px" y="0px"
	 viewBox="0 0 64 64" style="enable-background:new 0 0 64 64;" xml:space="preserve">
<style type="text/css">
	.st0{display:none;}
	.st1{display:inline;}
</style>
<g class="st0">
	<rect class="st1" width="64" height="64"/>
</g>
<g>
	<path d="M46.6,10.4v10.5L35.5,32l11.1,11.2v10.5H17.4V43.2L28.5,32L17.4,20.8V10.4H46.6 M50.6,6.4h-4H17.4h-4v4v10.5v1.6l1.2,1.2
		l8.3,8.4l-8.3,8.4l-1.2,1.2v1.6v10.5v4h4h29.3h4v-4V43.2v-1.6l-1.2-1.2L41.2,32l8.3-8.4l1.2-1.2v-1.6V10.4V6.4L50.6,6.4z"/>
	<polygon points="32,27.9 41.9,18.6 22.1,18.6 	"/>
</g>
</svg>
