<?xml version="1.0" encoding="utf-8"?>
<!-- Generator: Adobe Illustrator 19.2.0, SVG Export Plug-In . SVG Version: 6.00 Build 0)  -->
<svg version="1.1" id="Layer_1" xmlns="http://www.w3.org/2000/svg" xmlns:xlink="http://www.w3.org/1999/xlink" x="0px" y="0px"
	 viewBox="0 0 64 64" style="enable-background:new 0 0 64 64;" xml:space="preserve">
<style type="text/css">
	.st0{display:none;}
	.st1{display:inline;}
	.st2{fill:none;}
	.st3{fill:#010101;}
</style>
<g class="st0">
	<rect class="st1" width="64" height="64"/>
</g>
<g>
	<path d="M42,48.7H12V22.8c0-1.1,0.4-2.1,1.2-2.9c0.8-0.8,1.8-1.2,2.9-1.2h18.4v-3.3H16.1c-2.1,0-3.8,0.7-5.3,2.2
		c-1.5,1.5-2.2,3.2-2.2,5.3v25.9V52v0h0H12H42h3.3v-3.3V36.2H42V48.7z"/>
	<polygon points="36.3,12 43.8,19.4 26.2,37 30.3,41.2 47.9,23.6 55.4,31 55.4,12 	"/>
</g>
</svg>
