<?xml version="1.0" encoding="utf-8"?>
<!-- Generator: Adobe Illustrator 19.2.0, SVG Export Plug-In . SVG Version: 6.00 Build 0)  -->
<svg version="1.1" id="Layer_1" xmlns="http://www.w3.org/2000/svg" xmlns:xlink="http://www.w3.org/1999/xlink" x="0px" y="0px"
	 viewBox="0 0 64 64" style="enable-background:new 0 0 64 64;" xml:space="preserve">
<style type="text/css">
	.st0{display:none;}
	.st1{display:inline;}
	.st2{fill:none;}
	.st3{fill:#010101;}
</style>
<g class="st0">
	<rect class="st1" width="64" height="64"/>
</g>
<g>
	<path d="M51.4,34.6l6.5,5l-0.6,1l-5.3,9.1l-0.5,0.9l-7.6-3c-1.5,1.1-2.9,1.9-4.4,2.6l-1.1,8c0,0-0.4,0-1.2,0H26.8
		c-0.7,0-1.2,0-1.2,0l-1.1-8c-1.6-0.7-3-1.5-4.4-2.6l-7.6,3l-0.5-0.9l-5.3-9.1l-0.6-1l6.5-5c-0.1-1-0.1-1.8-0.1-2.6s0-1.6,0.1-2.6
		l-6.5-5l0.6-1l5.3-9.1l0.5-0.9l7.6,3c1.5-1.1,2.9-1.9,4.4-2.6l1.2-8h12.8l1.1,8c1.6,0.7,3,1.5,4.4,2.6l7.6-3l6.4,11l-6.5,5
		c0.2,1,0.2,1.8,0.2,2.6S51.6,33.6,51.4,34.6z M25.6,38.5c1.8,1.8,3.9,2.7,6.4,2.7c2.5,0,4.6-0.9,6.4-2.7c1.8-1.8,2.7-4,2.7-6.5
		c0-2.5-0.9-4.7-2.7-6.5c-1.8-1.8-3.9-2.7-6.4-2.7c-2.5,0-4.6,0.9-6.4,2.7c-1.8,1.8-2.7,4-2.7,6.5C22.9,34.5,23.8,36.7,25.6,38.5z"
		/>
</g>
</svg>
