<?xml version="1.0" encoding="utf-8"?>
<!-- Generator: Adobe Illustrator 19.2.0, SVG Export Plug-In . SVG Version: 6.00 Build 0)  -->
<svg version="1.1" id="Layer_1" xmlns="http://www.w3.org/2000/svg" xmlns:xlink="http://www.w3.org/1999/xlink" x="0px" y="0px"
	 viewBox="0 0 64 64" style="enable-background:new 0 0 64 64;" xml:space="preserve">
<style type="text/css">
	.st0{display:none;}
	.st1{display:inline;}
</style>
<g class="st0">
	<rect y="0" class="st1" width="64" height="64"/>
</g>
<path d="M36.2,4.6H11.5v54.7h41.1V21.1L36.2,4.6z M24.3,30.9c2.2,0,3.9,1.8,3.9,3.9c0,2.2-1.8,3.9-3.9,3.9s-3.9-1.8-3.9-3.9
	C20.3,32.6,22.1,30.9,24.3,30.9z M16,55c3.2-4.4,5.7-7.8,8.5-11.6c2.2,1.9,3.8,3.2,6.5,5.5c2-3.1,3.9-6,6.7-10.5
	c4,6.5,6.8,10.9,10.4,16.7C36.9,55,27.1,55,16,55z M33.5,23.8v-15l15,15H33.5z"/>
</svg>
