<?xml version="1.0" encoding="utf-8"?>
<!-- Generator: Adobe Illustrator 19.2.0, SVG Export Plug-In . SVG Version: 6.00 Build 0)  -->
<svg version="1.1" id="Layer_1" xmlns="http://www.w3.org/2000/svg" xmlns:xlink="http://www.w3.org/1999/xlink" x="0px" y="0px"
	 viewBox="0 0 64 64" style="enable-background:new 0 0 64 64;" xml:space="preserve">
<style type="text/css">
	.st0{display:none;}
	.st1{display:inline;}
	.st2{fill:none;}
	.st3{fill:#010101;}
</style>
<g class="st0">
	<rect class="st1" width="64" height="64"/>
</g>
<g>
	<path d="M13.8,13.9c5-5,11.1-7.5,18.2-7.5s13.1,2.5,18.2,7.5c5,5,7.5,11,7.5,18.1c0,7.1-2.5,13.1-7.5,18.1S39.1,57.6,32,57.6
		s-13.1-2.5-18.2-7.5S6.3,39.1,6.3,32C6.3,24.9,8.8,18.9,13.8,13.9z M39.9,30.1c1.6-1.6,2.4-3.5,2.4-5.8c0-2.8-1-5.2-3-7.2
		c-2-2-4.4-3-7.3-3s-5.3,1-7.3,3c-2,2-3,4.4-3,7.2h5.2c0-1.4,0.5-2.7,1.5-3.7c1-1,2.2-1.5,3.6-1.5s2.6,0.5,3.6,1.5
		c1,1,1.5,2.2,1.5,3.7s-0.5,2.6-1.6,3.6l-3.1,3.2c-2,2-3,4.4-3,7.2v1.3h5.2c0-1.8,0.2-3.1,0.7-4.1c0.4-1,1.2-2,2.3-3.1L39.9,30.1z
		 M34.6,49.9v-5.1h-5.2v5.1H34.6z"/>
</g>
</svg>
