<?xml version="1.0" encoding="utf-8"?>
<!-- Generator: Adobe Illustrator 19.2.0, SVG Export Plug-In . SVG Version: 6.00 Build 0)  -->
<svg version="1.1" id="Layer_1" xmlns="http://www.w3.org/2000/svg" xmlns:xlink="http://www.w3.org/1999/xlink" x="0px" y="0px"
	 viewBox="0 0 64 64" style="enable-background:new 0 0 64 64;" xml:space="preserve">
<style type="text/css">
	.st0{display:none;}
	.st1{display:inline;}
	.st2{fill:none;}
	.st3{fill:#010101;}
</style>
<g class="st0">
	<rect class="st1" width="64" height="64"/>
</g>
<g>
	<path d="M42.8,47c0,0.6-0.3,0.9-0.9,0.9H10.3c-0.6,0-0.9-0.3-0.9-0.9V5.1c0-0.6,0.3-0.9,0.9-0.9h31.5c0.6,0,0.9,0.3,0.9,0.9V47z
		 M48.7,52.9c0,0.6-0.3,0.9-0.9,0.9H16.2c-0.6,0-0.9-0.3-0.9-0.9v-2.1h29.4c0.6,0,0.9-0.3,0.9-0.8V10.1h2.1c0.6,0,0.9,0.3,0.9,0.9
		V52.9z M53.7,16.1c0.6,0,0.9,0.3,0.9,0.9v41.9c0,0.6-0.3,0.9-0.9,0.9H22.2c-0.6,0-0.9-0.3-0.9-0.9v-2.1h29.4c0.6,0,0.9-0.3,0.9-0.8
		V16.1H53.7z"/>
</g>
</svg>
