<?xml version="1.0" encoding="utf-8"?>
<!-- Generator: Adobe Illustrator 19.2.0, SVG Export Plug-In . SVG Version: 6.00 Build 0)  -->
<svg version="1.1" id="Layer_1" xmlns="http://www.w3.org/2000/svg" xmlns:xlink="http://www.w3.org/1999/xlink" x="0px" y="0px"
	 viewBox="0 0 64 64" style="enable-background:new 0 0 64 64;" xml:space="preserve">
<style type="text/css">
	.st0{display:none;}
	.st1{display:inline;}
</style>
<g class="st0">
	<rect y="0" class="st1" width="64" height="64"/>
</g>
<g class="st0">
	<rect y="0" class="st1" width="64" height="64"/>
</g>
<g>
	<path d="M50.2,13.9c-5.1-5-11.1-7.5-18.2-7.5s-13.2,2.5-18.2,7.5S6.3,24.9,6.3,32s2.5,13.1,7.5,18.1s11.1,7.5,18.2,7.5
		s13.2-2.5,18.2-7.5s7.5-11,7.5-18.1S55.2,18.9,50.2,13.9z M46.5,46.6c-4,4-8.8,6-14.5,6s-10.5-2-14.5-6c-4-4.1-6-8.9-6-14.6
		s2-10.6,6-14.6s8.8-6,14.5-6s10.5,2,14.5,6c4,4.1,6,8.9,6,14.6S50.5,42.6,46.5,46.6z"/>
	<rect x="20.7" y="20.7" width="22.7" height="22.7"/>
</g>
</svg>
