<?xml version="1.0" encoding="utf-8"?>
<!-- Generator: Adobe Illustrator 19.2.0, SVG Export Plug-In . SVG Version: 6.00 Build 0)  -->
<svg version="1.1" id="Layer_1" xmlns="http://www.w3.org/2000/svg" xmlns:xlink="http://www.w3.org/1999/xlink" x="0px" y="0px"
	 viewBox="0 0 64 64" style="enable-background:new 0 0 64 64;" xml:space="preserve">
<style type="text/css">
	.st0{display:none;}
	.st1{display:inline;}
</style>
<g class="st0">
	<rect class="st1" width="64" height="64"/>
</g>
<g>
	<path d="M42.3,16.6h3.9v29.5c0,3.9-1.4,7.3-4.2,10.1c-2.8,2.8-6.1,4.2-10,4.2c-3.9,0-7.2-1.4-10-4.2c-2.8-2.8-4.2-6.1-4.2-10.1V14
		c0-2.9,1-5.3,3-7.4c2-2,4.4-3,7.3-3c2.9,0,5.3,1,7.3,3c2,2,3,4.5,3,7.4v27c0,1.8-0.6,3.3-1.9,4.5c-1.3,1.2-2.8,1.9-4.6,1.9
		c-1.8,0-3.3-0.6-4.5-1.9c-1.2-1.2-1.9-2.8-1.9-4.5V16.6h3.9V41c0,0.6,0.3,1.2,0.8,1.7c0.5,0.5,1.1,0.8,1.8,0.8
		c0.7,0,1.3-0.3,1.8-0.8c0.5-0.5,0.8-1.1,0.8-1.7V14c0-1.8-0.6-3.3-1.9-4.6c-1.3-1.3-2.8-1.9-4.6-1.9c-1.8,0-3.3,0.6-4.5,1.9
		c-1.2,1.3-1.9,2.8-1.9,4.6v32.1c0,2.9,1,5.3,3,7.4c2,2,4.4,3,7.3,3c2.9,0,5.3-1,7.3-3c2-2,3-4.5,3-7.4V16.6z"/>
</g>
</svg>
