<?xml version="1.0" encoding="utf-8"?>
<!-- Generator: Adobe Illustrator 19.2.0, SVG Export Plug-In . SVG Version: 6.00 Build 0)  -->
<svg version="1.1" id="Layer_1" xmlns="http://www.w3.org/2000/svg" xmlns:xlink="http://www.w3.org/1999/xlink" x="0px" y="0px"
	 viewBox="0 0 64 64" style="enable-background:new 0 0 64 64;" xml:space="preserve">
<style type="text/css">
	.st0{display:none;}
	.st1{display:inline;}
</style>
<g class="st0">
	<rect class="st1" width="64" height="64"/>
</g>
<g>
	<path d="M36.1,4.6H11.5v54.7h41.1V21L36.1,4.6z M33.5,8.7l15,15h-15V8.7z M18.8,53.1c0,1.6-0.9,3.2-3.2,3.2H14V54h1.1
		c0.7,0,1-0.3,1-1H16V41.1h2.8V53.1z M18.8,39.2H16V37h2.8V39.2z M24.6,52.2c-1.7,0-3.3-0.2-4.7-1.6l1.8-1.8c0.9,0.9,2.1,1,2.9,1
		c0.9,0,1.9-0.3,1.9-1.1c0-0.5-0.3-0.9-1.2-1l-1.7-0.2c-2-0.2-3.2-1.1-3.2-3.1c0-2.3,2.1-3.5,4.3-3.5c1.7,0,3.1,0.3,4.2,1.3
		l-1.7,1.7c-0.7-0.5-1.6-0.7-2.6-0.7c-1.1,0-1.6,0.5-1.6,1.1c0,0.4,0.1,0.9,1.1,1l1.7,0.2c2.2,0.2,3.3,1.4,3.5,3.1
		C29.3,51,27.2,52.2,24.6,52.2z M38,51c-0.6,0.8-1.8,1.4-3.4,1.4c-1.6,0-2.7-0.7-3.4-1.4c-0.9-1-1.2-2.3-1.2-4.3s0.2-3.3,1.2-4.3
		c0.7-0.8,1.8-1.4,3.4-1.4c1.6,0,2.7,0.7,3.4,1.4c0.9,1.1,1.2,2.3,1.2,4.3S39,50,38,51z M50,52.1h-2.9v-6.7c0-1.5-0.9-2-1.8-2
		c-0.8,0-1.8,0.5-1.8,2v6.7h-2.8v-11h2.7v1c0.8-0.7,1.8-1.1,2.8-1.1c1.2,0,2,0.4,2.7,0.9c0.9,0.9,1.1,1.9,1.1,3.1V52.1z"/>
	<path d="M34.6,43.5c-0.6,0-1,0.2-1.3,0.5c-0.5,0.6-0.6,1.6-0.6,2.7c0,1.2,0,2.1,0.6,2.7c0.3,0.3,0.7,0.5,1.3,0.5
		c0.6,0,1-0.2,1.3-0.5c0.5-0.6,0.6-1.6,0.6-2.7c0-1.2,0-2.1-0.6-2.7C35.6,43.7,35.2,43.5,34.6,43.5z"/>
</g>
</svg>
