<?xml version="1.0" encoding="utf-8"?>
<!-- Generator: Adobe Illustrator 19.2.0, SVG Export Plug-In . SVG Version: 6.00 Build 0)  -->
<svg version="1.1" id="Layer_1" xmlns="http://www.w3.org/2000/svg" xmlns:xlink="http://www.w3.org/1999/xlink" x="0px" y="0px"
	 viewBox="0 0 64 64" style="enable-background:new 0 0 64 64;" xml:space="preserve">
<style type="text/css">
	.st0{display:none;}
	.st1{display:inline;}
</style>
<g id="Layer_1_1_">
	<g class="st0">
		<rect x="-71.3" class="st1" width="64" height="64"/>
	</g>
</g>
<g>
	<path d="M-23.9,34.3h-2.9v-3.7c0-6.9-5.6-12.5-12.5-12.5c-6.9,0-12.5,5.6-12.5,12.5v3.7h-2.9c-1.3,0-2.4,1.1-2.4,2.4v22.9
		c0,1.3,1.1,2.4,2.4,2.4h30.9c1.3,0,2.4-1.1,2.4-2.4V36.7C-21.5,35.3-22.6,34.3-23.9,34.3z M-37.8,49.3v3.1c0,0.9-0.7,1.6-1.6,1.6
		c-0.9,0-1.6-0.7-1.6-1.6v-3.1c-1-0.5-1.6-1.6-1.6-2.8c0-1.8,1.4-3.2,3.2-3.2s3.2,1.4,3.2,3.2C-36.2,47.7-36.8,48.7-37.8,49.3z
		 M-44.7,34.3v-3.7c0-2.9,2.4-5.4,5.4-5.4s5.4,2.4,5.4,5.4v3.7H-44.7z"/>
	<path d="M-55.7,28.7c0-1.2-1-2.2-2.2-2.2h-7.5c-1.2,0-2.2,1-2.2,2.2s1,2.2,2.2,2.2h7.5C-56.7,30.9-55.7,29.9-55.7,28.7z"/>
	<path d="M-54,18.6c0.4,0.3,0.9,0.5,1.4,0.5c0.6,0,1.3-0.3,1.7-0.8c0.8-0.9,0.6-2.3-0.3-3.1l-5.9-4.8c-0.9-0.8-2.3-0.6-3.1,0.3
		c-0.8,0.9-0.6,2.3,0.3,3.1L-54,18.6z"/>
	<path d="M-39.3,14c1.2,0,2.2-1,2.2-2.2V4.3c0-1.2-1-2.2-2.2-2.2s-2.2,1-2.2,2.2v7.5C-41.5,13-40.5,14-39.3,14z"/>
	<path d="M-26,19.1c0.5,0,1-0.2,1.4-0.5l5.9-4.8c0.9-0.8,1.1-2.1,0.3-3.1c-0.8-0.9-2.1-1.1-3.1-0.3l-5.9,4.8
		c-0.9,0.8-1.1,2.1-0.3,3.1C-27.3,18.9-26.6,19.1-26,19.1z"/>
	<path d="M-13.3,26.5h-7.5c-1.2,0-2.2,1-2.2,2.2s1,2.2,2.2,2.2h7.5c1.2,0,2.2-1,2.2-2.2S-12.1,26.5-13.3,26.5z"/>
</g>
<g>
	<path d="M47.4,34.3h-2.9v-3.7C44.5,23.7,38.9,18,32,18c-6.9,0-12.5,5.6-12.5,12.5v3.7h-2.9c-1.3,0-2.4,1.1-2.4,2.4v22.9
		c0,1.3,1.1,2.4,2.4,2.4h30.9c1.3,0,2.4-1.1,2.4-2.4V36.7C49.8,35.3,48.8,34.3,47.4,34.3z M33.6,49.3v3.1c0,0.9-0.7,1.6-1.6,1.6
		c-0.9,0-1.6-0.7-1.6-1.6v-3.1c-1-0.5-1.6-1.6-1.6-2.8c0-1.8,1.4-3.2,3.2-3.2s3.2,1.4,3.2,3.2C35.2,47.7,34.5,48.7,33.6,49.3z
		 M26.6,34.3v-3.7c0-2.9,2.4-5.4,5.4-5.4s5.4,2.4,5.4,5.4v3.7H26.6z"/>
	<path d="M15.6,28.7c0-1.2-1-2.2-2.2-2.2H6c-1.2,0-2.2,1-2.2,2.2s1,2.2,2.2,2.2h7.5C14.6,30.9,15.6,29.9,15.6,28.7z"/>
	<path d="M17.3,18.6c0.4,0.3,0.9,0.5,1.4,0.5c0.6,0,1.3-0.3,1.7-0.8c0.8-0.9,0.6-2.3-0.3-3.1l-5.9-4.8c-0.9-0.8-2.3-0.6-3.1,0.3
		c-0.8,0.9-0.6,2.3,0.3,3.1L17.3,18.6z"/>
	<path d="M32,14c1.2,0,2.2-1,2.2-2.2V4.3c0-1.2-1-2.2-2.2-2.2s-2.2,1-2.2,2.2v7.5C29.8,13,30.8,14,32,14z"/>
	<path d="M45.3,19.1c0.5,0,1-0.2,1.4-0.5l5.9-4.8c0.9-0.8,1.1-2.1,0.3-3.1c-0.8-0.9-2.1-1.1-3.1-0.3l-5.9,4.8
		c-0.9,0.8-1.1,2.1-0.3,3.1C44.1,18.9,44.7,19.1,45.3,19.1z"/>
	<path d="M58,26.5h-7.5c-1.2,0-2.2,1-2.2,2.2s1,2.2,2.2,2.2H58c1.2,0,2.2-1,2.2-2.2S59.2,26.5,58,26.5z"/>
</g>
</svg>
