<?xml version="1.0" encoding="utf-8"?>
<!-- Generator: Adobe Illustrator 19.2.0, SVG Export Plug-In . SVG Version: 6.00 Build 0)  -->
<svg version="1.1" id="Layer_1" xmlns="http://www.w3.org/2000/svg" xmlns:xlink="http://www.w3.org/1999/xlink" x="0px" y="0px"
	 viewBox="0 0 64 64" style="enable-background:new 0 0 64 64;" xml:space="preserve">
<title></title>
<g id="icomoon-ignore">
</g>
<g id="Layer_2">
	<g>
		<path d="M54.8,9.3H39.2c-0.6-1.5-1.5-2.7-2.8-3.7C35,4.7,33.7,4.2,32,4.2c-1.6,0-3,0.5-4.3,1.4s-2.2,2.2-2.8,3.7H9.3v50.5h45.5
			V9.3z M30.3,10c0.5-0.5,1.1-0.7,1.8-0.7c0.7,0,1.3,0.2,1.8,0.7s0.7,1.1,0.7,1.8s-0.2,1.3-0.7,1.8s-1.1,0.7-1.8,0.7
			s-1.3-0.2-1.8-0.7s-0.7-1.1-0.7-1.8S29.8,10.5,30.3,10z M49.8,54.8H14.3V14.3h5v7.6h25.4v-7.6h5v40.5H49.8z"/>
	</g>
</g>
<g id="Layer_2_1_">
	<g>
		<path d="M19.4,40.9l10.5,0l-3.7,3.8c1.6,1.5,3.6,2.2,5.8,2.2l0.2,0c2.5,0,4.5-0.9,6.3-2.6c1-1,1.7-2.3,2.2-3.7l0.1-0.3l4.1,0
			l-0.1,0.6c-0.6,2.4-1.7,4.5-3.5,6.3C38.7,49.7,35.6,51,32,51l0,0c-3.4,0-6.4-1.2-8.8-3.4l-3.8,3.8L19.4,40.9z"/>
		<path d="M19.2,35.7l0.1-0.6c0.6-2.4,1.7-4.5,3.5-6.3c2.5-2.6,5.6-3.9,9.2-3.9c3.4,0,6.4,1.1,8.9,3.4l3.8-3.8l-0.1,10.6l-10.4,0.1
			l3.8-3.8c-1.7-1.5-3.6-2.3-6-2.2c-2.5,0-4.5,0.9-6.3,2.7c-1,1-1.8,2.3-2.2,3.7l-0.1,0.4L19.2,35.7z"/>
	</g>
</g>
</svg>
