<?xml version="1.0" encoding="utf-8"?>
<!-- Generator: Adobe Illustrator 19.2.0, SVG Export Plug-In . SVG Version: 6.00 Build 0)  -->
<svg version="1.1" id="Layer_1" xmlns="http://www.w3.org/2000/svg" xmlns:xlink="http://www.w3.org/1999/xlink" x="0px" y="0px"
	 viewBox="0 0 64 64" style="enable-background:new 0 0 64 64;" xml:space="preserve">
<style type="text/css">
	.st0{display:none;}
	.st1{display:inline;}
</style>
<g id="Layer_1_1_">
	<g class="st0">
		<rect class="st1" width="64" height="64"/>
	</g>
</g>
<g>
	<rect x="4" y="7.5" width="14" height="7"/>
	<rect x="25" y="7.5" width="35" height="7"/>
	<rect x="4" y="21.5" width="28" height="7"/>
	<rect x="39" y="21.5" width="21" height="7"/>
	<rect x="4" y="49.5" width="28" height="7"/>
	<path d="M25,35.5v7h7c0.5-2.6,1.7-5,3.3-7H25z"/>
	<rect x="4" y="35.5" width="14" height="7"/>
</g>
<path d="M58.6,42.1l-2.2-3.8c-0.1-0.2-0.4-0.3-0.7-0.2l-2.6,1.1c-0.2-0.2-0.4-0.3-0.7-0.5c-0.4-0.3-0.8-0.5-1.2-0.7l-0.4-2.9
	c-0.1-0.3-0.3-0.4-0.6-0.4h-4.3c-0.3,0-0.5,0.1-0.6,0.4L44.9,38c-0.4,0.2-0.8,0.4-1.2,0.7c-0.2,0.1-0.4,0.3-0.7,0.4l-1-0.4l-1.6-0.6
	c-0.3-0.1-0.5,0-0.7,0.2l-2.1,3.8c-0.1,0.3-0.1,0.5,0.1,0.7l1.6,1.2l0.8,0.6C40,44.9,40,45.3,40,45.7c0,0,0,0,0,0.1
	c0,0.3,0,0.7,0.1,1l-2.3,1.7c-0.2,0.2-0.2,0.4-0.1,0.7l1,1.8l1.1,2c0.1,0.3,0.4,0.4,0.7,0.3l2.6-1.1c0.6,0.5,1.2,0.8,1.8,1l0.4,3
	c0.1,0.3,0.3,0.4,0.6,0.4h4.3c0.3,0,0.5-0.1,0.6-0.4l0.4-3c0.7-0.3,1.3-0.6,1.8-1l2.6,1.1c0.3,0.1,0.6,0,0.7-0.3l2.1-3.8
	c0.1-0.3,0.1-0.5-0.1-0.7L56,46.8c0.1-0.5,0.1-0.8,0.1-1.1c0-0.4,0-0.7-0.1-1l2.3-1.8C58.7,42.6,58.7,42.4,58.6,42.1z M50.4,48
	c-0.6,0.6-1.4,0.9-2.3,0.9c-0.9,0-1.6-0.3-2.3-0.9c-0.2-0.1-0.3-0.3-0.4-0.5c-0.4-0.5-0.6-1.1-0.6-1.8c0-0.9,0.3-1.7,1-2.3
	c0.6-0.6,1.4-1,2.3-1c0.7,0,1.3,0.2,1.8,0.6c0.2,0.1,0.3,0.2,0.4,0.4c0.6,0.6,1,1.4,1,2.3S51,47.4,50.4,48z"/>
</svg>
