<?xml version="1.0" encoding="utf-8"?>
<!-- Generator: Adobe Illustrator 19.2.0, SVG Export Plug-In . SVG Version: 6.00 Build 0)  -->
<svg version="1.1" id="Layer_1" xmlns="http://www.w3.org/2000/svg" xmlns:xlink="http://www.w3.org/1999/xlink" x="0px" y="0px"
	 viewBox="0 0 64 64" style="enable-background:new 0 0 64 64;" xml:space="preserve">

<g>
	<path d="M32.2,35.5c1.2-1.1,2.5-2,3.9-2.6c-0.1-0.1-0.1-0.1-0.2,0C32.1,33.6,28,34,23.7,34s-8.4-0.4-12.1-1.2
		c-3.8-0.7-6.8-1.9-9-3.5V34c0,1.2,0.9,2.4,2.8,3.5c1.9,1.1,4.5,2,7.7,2.6c3.3,0.6,6.8,0.9,10.6,0.9c1.1,0,2.1,0,3.1-0.1L32.2,35.5z
		"/>
	<path d="M5.3,27c1.9,1.1,4.5,2,7.7,2.6c3.3,0.6,6.8,0.9,10.6,0.9c3.8,0,7.4-0.3,10.6-0.9c2.2-0.5,4-1,5.5-1.6l2.6-2.6
		c0.8-0.6,1.6-1.3,2.4-1.8v-4.8c-2.2,1.6-5.1,2.7-8.9,3.5c-3.7,0.8-7.8,1.2-12.1,1.2s-8.3-0.4-12.1-1.2c-3.8-0.8-6.8-1.9-9.1-3.5
		v4.7C2.5,24.8,3.4,25.9,5.3,27z"/>
	<path d="M2.5,39.9v4.7c0,1.2,0.9,2.4,2.8,3.5c1.9,1.1,4.5,2,7.7,2.6c2.7,0.5,5.5,0.8,8.5,0.9c0.1-2.4,0.8-4.8,2.1-7
		c-4.2,0-8.2-0.4-12-1.2C7.8,42.6,4.8,41.4,2.5,39.9z"/>
	<path d="M5.4,16.5c1.9,1.1,4.5,2,7.7,2.6c3.3,0.6,6.8,0.9,10.6,0.9s7.3-0.3,10.6-0.9c3.3-0.7,5.8-1.5,7.7-2.6
		s2.8-2.2,2.8-3.5V9.5c0-1.3-0.9-2.4-2.8-3.5s-4.5-2-7.7-2.6C31,2.8,27.5,2.5,23.7,2.5s-7.4,0.3-10.6,0.9C9.9,4,7.3,4.9,5.4,6
		C3.5,7.1,2.6,8.2,2.6,9.5V13C2.6,14.3,3.5,15.4,5.4,16.5z"/>
	<path d="M58.7,28.5c-3.7-3.7-9.7-3.7-13.4,0l-5.1,5.1c2.1-0.3,4.2-0.1,6.1,0.7l2.4-2.4c1.8-1.9,4.8-1.9,6.7,0
		c1.9,1.8,1.9,4.8,0,6.7l-6.7,6.7c-1.8,1.9-4.8,1.9-6.7,0c-0.6-0.6-1-1.2-1.2-2c-0.2,0.1-0.4,0.2-0.5,0.3l-3.1,3.1
		c0.4,0.7,0.8,1.3,1.4,1.9c3.7,3.7,9.7,3.7,13.4,0l6.7-6.7C62.4,38.2,62.4,32.1,58.7,28.5z"/>
	<path d="M40.9,52.9l-2.4,2.4c-1.9,1.9-4.9,1.9-6.7,0c-1.9-1.9-1.9-4.9,0-6.7l6.7-6.7c1.9-1.9,4.9-1.9,6.7,0
		c0.6,0.6,1,1.3,1.2,2c0.2-0.1,0.3-0.2,0.5-0.3l3.1-3.1c-0.4-0.7-0.8-1.3-1.4-1.9c-3.7-3.7-9.7-3.7-13.4,0l-6.7,6.7
		c-3.7,3.7-3.7,9.8,0,13.5s9.7,3.7,13.4,0l5.1-5.1C44.9,53.9,42.9,53.7,40.9,52.9z"/>
</g>
</svg>
