<?xml version="1.0" encoding="utf-8"?>
<!-- Generator: Adobe Illustrator 19.2.0, SVG Export Plug-In . SVG Version: 6.00 Build 0)  -->
<svg version="1.1" id="Layer_1" xmlns="http://www.w3.org/2000/svg" xmlns:xlink="http://www.w3.org/1999/xlink" x="0px" y="0px"
	 viewBox="0 0 64 64" style="enable-background:new 0 0 64 64;" xml:space="preserve">
<style type="text/css">
	.st0{display:none;}
	.st1{display:inline;}
</style>
<g class="st0">
	<rect class="st1" width="64" height="64"/>
</g>
<path d="M41.4,22.6H22.6v18.8h18.8V22.6z M35.1,35.1h-6.3v-6.3h6.3V35.1z M60.3,28.9v-6.3H54v-6.3c0-3.5-2.8-6.3-6.3-6.3h-6.3V3.8
	h-6.3V10h-6.3V3.8h-6.3V10h-6.3c-3.5,0-6.3,2.8-6.3,6.3v6.3H3.8v6.3H10v6.3H3.8v6.3H10v6.3c0,3.5,2.8,6.3,6.3,6.3h6.3v6.3h6.3V54
	h6.3v6.3h6.3V54h6.3c3.5,0,6.3-2.8,6.3-6.3v-6.3h6.3v-6.3H54v-6.3H60.3z M47.7,47.7H16.3V16.3h31.4V47.7z"/>
</svg>
