<?xml version="1.0" encoding="utf-8"?>
<!-- Generator: Adobe Illustrator 19.2.0, SVG Export Plug-In . SVG Version: 6.00 Build 0)  -->
<svg version="1.1" xmlns="http://www.w3.org/2000/svg" xmlns:xlink="http://www.w3.org/1999/xlink" x="0px" y="0px"
	 viewBox="0 0 64 64" style="enable-background:new 0 0 64 64;" xml:space="preserve">
<style type="text/css">
	.st0{display:none;}
	.st1{display:inline;}
</style>
<g id="Layer_1">
	<g class="st0">
		<rect class="st1" width="64" height="64"/>
	</g>
</g>
<g id="Layer_2">
	<g>
		<path d="M13.8,18.5c1.9,1.1,4.5,1.9,7.7,2.6c3.3,0.6,6.8,0.9,10.6,0.9c3.8,0,7.4-0.3,10.6-0.9c3.3-0.6,5.8-1.5,7.7-2.6
			c1.9-1.1,2.8-2.2,2.8-3.5v-3.5c0-1.3-0.9-2.4-2.8-3.5c-1.9-1.1-4.5-1.9-7.7-2.6C39.5,4.7,36,4.4,32.2,4.4c-3.8,0-7.4,0.3-10.6,0.9
			c-3.3,0.6-5.8,1.5-7.7,2.6c-1.9,1.1-2.8,2.2-2.8,3.5V15C10.9,16.2,11.9,17.4,13.8,18.5z"/>
		<path d="M47.3,42.4c-0.5-0.5-1.1-0.8-1.8-0.9c-0.2,0-0.3,0-0.5,0c-0.7,0-1.3,0.2-1.9,0.6c-0.1,0.1-0.3,0.2-0.4,0.4
			c-0.6,0.6-1,1.4-1,2.3c0,0.4,0.1,0.8,0.2,1.1c0.2,0.5,0.4,0.9,0.8,1.2c0.6,0.6,1.4,1,2.3,1c0.9,0,1.7-0.3,2.3-1
			c0.6-0.6,1-1.4,1-2.3c0-0.1,0-0.2,0-0.3C48.1,43.6,47.8,43,47.3,42.4z"/>
		<path d="M56.3,30.1h-8.1c0.9-0.3,1.7-0.7,2.4-1.1c1.9-1.1,2.8-2.2,2.8-3.5v-4.7c-2.2,1.5-5.2,2.7-9,3.5c-3.8,0.8-7.9,1.2-12.2,1.2
			c-4.4,0-8.4-0.4-12.2-1.2c-3.8-0.8-6.8-1.9-9-3.5v4.7c0,1.3,0.9,2.4,2.8,3.5c1.9,1.1,4.5,1.9,7.7,2.6c2.8,0.5,5.8,0.8,8.9,0.9
			c-0.1,0.3-0.1,0.6-0.1,0.9V36c-3.7-0.1-7.1-0.5-10.4-1.1c-3.8-0.8-6.8-1.9-9-3.5V36c0,1.3,0.9,2.4,2.8,3.5
			c1.9,1.1,4.5,1.9,7.7,2.6c2.7,0.5,5.7,0.8,8.8,0.9v3.5c-3.7-0.1-7.1-0.5-10.4-1.1c-3.8-0.8-6.8-1.9-9-3.5v4.7
			c0,1.3,0.9,2.4,2.8,3.5c1.9,1.1,4.5,1.9,7.7,2.6c2.7,0.5,5.7,0.8,8.8,0.9v2.5c0,0.9,0.3,1.7,1,2.3c0.6,0.6,1.4,1,2.3,1h22.7
			c0.9,0,1.7-0.3,2.3-1c0.6-0.6,1-1.4,1-2.3V33.4c0-0.9-0.3-1.7-1-2.3C58,30.4,57.2,30.1,56.3,30.1z M53.5,44.7c0,0.4,0,0.7-0.1,1.1
			l2.4,1.8c0.2,0.2,0.2,0.5,0.1,0.8l-2.3,3.9c-0.2,0.3-0.4,0.4-0.7,0.3l-2.8-1.1c-0.6,0.5-1.2,0.8-1.9,1.1l-0.5,3
			c-0.1,0.3-0.2,0.5-0.5,0.5h-4.6c-0.3,0-0.5-0.2-0.5-0.5l-0.4-2.8l0-0.2c-0.7-0.3-1.3-0.7-1.9-1.1l-2.8,1.1c-0.3,0.1-0.5,0-0.7-0.2
			l-2.3-4c-0.2-0.3-0.1-0.5,0.1-0.8l1.7-1.2l0.8-0.6c-0.1-0.4-0.1-0.8-0.1-1.1c0-0.4,0-0.7,0.1-1.1l-0.9-0.6l-1.6-1.2
			c-0.2-0.2-0.2-0.5-0.1-0.8l2.3-3.9c0.2-0.3,0.4-0.4,0.7-0.3l2.8,1.1c0.6-0.5,1.2-0.8,1.9-1.1l0.2-1.6l0.2-1.5
			c0-0.3,0.2-0.5,0.5-0.5h4.6c0.3,0,0.5,0.2,0.5,0.5l0,0.1l0.4,2.8c0.7,0.3,1.3,0.7,1.9,1.1l2.8-1.1c0.1,0,0.2,0,0.3,0
			c0.1,0,0.3,0.1,0.4,0.3l2.3,4c0.2,0.3,0.1,0.5-0.1,0.8l-2.4,1.8C53.4,44,53.5,44.4,53.5,44.7z"/>
	</g>
</g>
</svg>
