<?xml version="1.0" encoding="utf-8"?>
<!-- Generator: Adobe Illustrator 19.2.0, SVG Export Plug-In . SVG Version: 6.00 Build 0)  -->
<svg version="1.1" xmlns="http://www.w3.org/2000/svg" xmlns:xlink="http://www.w3.org/1999/xlink" x="0px" y="0px"
	 viewBox="0 0 64 64" style="enable-background:new 0 0 64 64;" xml:space="preserve">
<style type="text/css">
	.st0{display:none;}
	.st1{display:inline;}
</style>
<g id="Layer_1">
	<g class="st0">
		<rect class="st1" width="64" height="64"/>
	</g>
</g>
<g id="Layer_2">
	<g>
		<path d="M12.8,21.4c0.2,0,0.4,0,0.6,0l14,25.9c-0.9,1.1-1.4,2.5-1.4,4.1c0,3.6,3,6.6,6.6,6.6s6.6-3,6.6-6.6s-3-6.6-6.6-6.6
			c-0.3,0-0.6,0-0.9,0.1L19.3,21.6l0.8,0.5l2.6-4.3l-1-0.6h23.4c0.3,0.7,0.7,1.4,1.3,2l-3.6,7.2c-0.3,0-0.5-0.1-0.8-0.1
			c-1.7,0-3.2,0.6-4.3,1.6l0.5-0.7l-3.4-2.1L32,29.5l3.4,2.1l0.1-0.2c-0.1,0.5-0.2,1.1-0.2,1.7c0,3.6,3,6.6,6.6,6.6s6.6-3,6.6-6.6
			c0-1.5-0.5-3-1.4-4.1l3.8-7.6c0.1,0,0.2,0,0.3,0c3.6,0,6.6-3,6.6-6.6s-3-6.6-6.6-6.6c-2.8,0-5.1,1.7-6.1,4.1H18.9
			c-1-2.4-3.3-4.1-6.1-4.1c-3.6,0-6.6,3-6.6,6.6S9.2,21.4,12.8,21.4z"/>
		<rect x="22.3" y="20.1" transform="matrix(0.5242 -0.8516 0.8516 0.5242 -7.031 31.5917)" width="5" height="4"/>
		<rect x="27.4" y="23.2" transform="matrix(0.5242 -0.8516 0.8516 0.5242 -7.2782 37.4392)" width="5" height="4"/>
	</g>
</g>
</svg>
