<?xml version="1.0" encoding="utf-8"?>
<!-- Generator: Adobe Illustrator 19.2.0, SVG Export Plug-In . SVG Version: 6.00 Build 0)  -->
<svg version="1.1" xmlns="http://www.w3.org/2000/svg" xmlns:xlink="http://www.w3.org/1999/xlink" x="0px" y="0px"
	 viewBox="0 0 64 64" style="enable-background:new 0 0 64 64;" xml:space="preserve">
<style type="text/css">
	.st0{display:none;}
	.st1{display:inline;}
</style>
<g id="Layer_1">
	<g class="st0">
		<rect class="st1" width="64" height="64"/>
	</g>
</g>
<g id="Layer_2">
	<g>
		<polygon points="12.4,7.2 42.8,7.2 42.8,4.2 9.4,4.2 9.4,47.9 12.4,47.9 		"/>
		<polygon points="15.3,53.9 18.3,53.9 18.3,13.1 48.7,13.1 48.7,10.1 15.3,10.1 		"/>
		<path d="M21.2,56.8v3h3h30.4V19.1v-3h-3H21.2V56.8z M24.3,19.1h27.3v37.7H24.3V19.1z"/>
		<path d="M37.9,25.6c-3.4,0-6.3,1.2-8.7,3.6c-2.4,2.4-3.6,5.3-3.6,8.7c0,3.4,1.2,6.3,3.6,8.7c2.4,2.4,5.3,3.6,8.7,3.6
			c3.4,0,6.3-1.2,8.7-3.6c2.4-2.4,3.6-5.3,3.6-8.7c0-3.4-1.2-6.3-3.6-8.7C44.3,26.8,41.3,25.6,37.9,25.6z M39.1,39.6h-6.6v-2.4h4.2
			v-7.4h2.4V39.6z"/>
	</g>
</g>
</svg>
