<?xml version="1.0" encoding="utf-8"?>
<!-- Generator: Adobe Illustrator 19.2.0, SVG Export Plug-In . SVG Version: 6.00 Build 0)  -->
<svg version="1.1" xmlns="http://www.w3.org/2000/svg" xmlns:xlink="http://www.w3.org/1999/xlink" x="0px" y="0px"
	 viewBox="0 0 64 64" style="enable-background:new 0 0 64 64;" xml:space="preserve">
<style type="text/css">
	.st0{display:none;}
	.st1{display:inline;}
</style>
<g id="Layer_1">
	<g class="st0">
		<rect class="st1" width="64" height="64"/>
	</g>
</g>
<g id="Layer_2">
	<g>
		<path d="M37,27.7c0.3,1.7,0.4,3.2,0.4,4.4c0,0.9-0.1,1.9-0.2,3c1.3-1.1,2.8-2,4.5-2.6c0-0.1,0-0.2,0-0.3c0-1.2-0.1-2.7-0.3-4.4
			h7.3c0.3,1.3,0.5,2.5,0.6,3.7c1.5,0.2,3,0.5,4.4,1.1c0-0.1,0-0.3,0-0.4c0-6-2.1-11.1-6.4-15.3c-4.2-4.2-9.4-6.4-15.4-6.4
			s-11.1,2.1-15.4,6.4c-4.2,4.2-6.4,9.4-6.4,15.3c0,6,2.1,11.1,6.4,15.3c4.2,4.2,9.4,6.4,15.4,6.4c0.2,0,0.4,0,0.5,0
			c-0.7-1.6-1.1-3.4-1.2-5.3c-1.5-2.4-2.7-5-3.5-7.8h5c0.7-1.6,1.7-3,2.9-4.3h-8.9c-0.2-1.7-0.3-3.2-0.3-4.4s0.1-2.7,0.3-4.4H37z
			 M47,23.5h-6.4c-0.7-2.8-1.7-5.4-3-7.7C41.7,17.1,44.9,19.7,47,23.5z M31.9,14.8c1.8,2.6,3.2,5.5,4.2,8.7h-8.3
			C28.8,20.3,30.1,17.5,31.9,14.8z M15.1,36.5c-0.3-1.6-0.5-3-0.5-4.4c0-1.4,0.2-2.8,0.5-4.4h7.3c-0.2,1.7-0.3,3.2-0.3,4.4
			s0.1,2.7,0.3,4.4H15.1z M17,40.8h6.4c0.7,2.8,1.7,5.4,3,7.7C22.3,47.2,19.1,44.6,17,40.8z M23.4,23.5H17c2.2-3.8,5.3-6.4,9.4-7.7
			C25.1,18.1,24.1,20.7,23.4,23.5z"/>
		<path d="M58.2,44.1L56,40.3c-0.1-0.2-0.4-0.3-0.7-0.2l-2.6,1.1c-0.2-0.2-0.4-0.3-0.7-0.5c-0.4-0.3-0.8-0.5-1.2-0.7l-0.4-2.9
			c-0.1-0.3-0.3-0.4-0.6-0.4h-4.3c-0.3,0-0.5,0.1-0.6,0.4l-0.4,2.9c-0.4,0.2-0.8,0.4-1.2,0.7c-0.2,0.1-0.4,0.3-0.7,0.4l-1-0.4
			L40,40.1c-0.3-0.1-0.5,0-0.7,0.2l-2.1,3.8c-0.1,0.3-0.1,0.5,0.1,0.7l1.6,1.2l0.8,0.6c-0.1,0.3-0.1,0.7-0.1,1.1c0,0,0,0,0,0.1
			c0,0.3,0,0.7,0.1,1l-2.3,1.7c-0.2,0.2-0.2,0.4-0.1,0.7l1,1.8l1.1,2c0.1,0.3,0.4,0.4,0.7,0.3l2.6-1.1c0.6,0.5,1.2,0.8,1.8,1l0.4,3
			c0.1,0.3,0.3,0.4,0.6,0.4h4.3c0.3,0,0.5-0.1,0.6-0.4l0.4-3c0.7-0.3,1.3-0.6,1.8-1l2.6,1.1c0.3,0.1,0.6,0,0.7-0.3l2.1-3.8
			c0.1-0.3,0.1-0.5-0.1-0.7l-2.3-1.7c0.1-0.5,0.1-0.8,0.1-1.1c0-0.4,0-0.7-0.1-1l2.3-1.8C58.3,44.6,58.3,44.4,58.2,44.1z M50,50
			c-0.6,0.6-1.4,0.9-2.3,0.9c-0.9,0-1.6-0.3-2.3-0.9c-0.2-0.1-0.3-0.3-0.4-0.5c-0.4-0.5-0.6-1.1-0.6-1.8c0-0.9,0.3-1.7,1-2.3
			c0.6-0.6,1.4-1,2.3-1c0.7,0,1.3,0.2,1.8,0.6c0.2,0.1,0.3,0.2,0.4,0.4c0.6,0.6,1,1.4,1,2.3C50.9,48.6,50.6,49.4,50,50z"/>
	</g>
</g>
</svg>
