<?xml version="1.0" encoding="utf-8"?>
<!-- Generator: Adobe Illustrator 19.2.0, SVG Export Plug-In . SVG Version: 6.00 Build 0)  -->
<svg version="1.1" xmlns="http://www.w3.org/2000/svg" xmlns:xlink="http://www.w3.org/1999/xlink" x="0px" y="0px"
	 viewBox="0 0 64 64" style="enable-background:new 0 0 64 64;" xml:space="preserve">
<style type="text/css">
	.st0{display:none;}
	.st1{display:inline;}
</style>
<g id="Layer_1">
	<g class="st0">
		<rect class="st1" width="64" height="64"/>
	</g>
</g>
<g id="Layer_2">
	<g>
		<path d="M32,7.5c-6.8,0-12.6,2.4-17.4,7.2C9.8,19.5,7.4,25.2,7.4,32c0,6.8,2.4,12.5,7.2,17.3c4.8,4.8,10.6,7.2,17.4,7.2
			s12.6-2.4,17.4-7.2c4.8-4.8,7.2-10.6,7.2-17.3c0-6.8-2.4-12.5-7.2-17.3C44.6,9.9,38.8,7.5,32,7.5z M34.5,44.3h-5V29.6h5V44.3z
			 M34.5,24.6h-5v-5h5V24.6z"/>
	</g>
</g>
</svg>
