<?xml version="1.0" encoding="utf-8"?>
<!-- Generator: Adobe Illustrator 19.2.0, SVG Export Plug-In . SVG Version: 6.00 Build 0)  -->
<svg version="1.1" xmlns="http://www.w3.org/2000/svg" xmlns:xlink="http://www.w3.org/1999/xlink" x="0px" y="0px"
	 viewBox="0 0 64 64" style="enable-background:new 0 0 64 64;" xml:space="preserve">
<style type="text/css">
	.st0{display:none;}
	.st1{display:inline;}
</style>
<g id="Layer_1">
	<g class="st0">
		<rect class="st1" width="64" height="64"/>
	</g>
</g>
<g id="Layer_2">
	<g>
		<path d="M47.9,18.6l-1.8-1.3h-2.2h-25h-2.5l-2,1.6l-9.1,7.2l-2.8,2.2v3.4v7.8v7.2h7.2h44.6h7.2v-7.2v-7.8v-3.8l-3-2.1L47.9,18.6z
			 M42.3,40.3H9v-7.4h33.3V40.3z M51.5,40.3c-2.1,0-3.8-1.7-3.8-3.8c0-2.1,1.7-3.8,3.8-3.8s3.8,1.7,3.8,3.8
			C55.3,38.7,53.6,40.3,51.5,40.3z"/>
	</g>
</g>
</svg>
