<?xml version="1.0" encoding="utf-8"?>
<!-- Generator: Adobe Illustrator 19.2.0, SVG Export Plug-In . SVG Version: 6.00 Build 0)  -->
<svg version="1.1" xmlns="http://www.w3.org/2000/svg" xmlns:xlink="http://www.w3.org/1999/xlink" x="0px" y="0px"
	 viewBox="0 0 64 64" style="enable-background:new 0 0 64 64;" xml:space="preserve">
<style type="text/css">
	.st0{display:none;}
	.st1{display:inline;}
</style>
<g id="Layer_1">
	<g class="st0">
		<rect class="st1" width="64" height="64"/>
	</g>
</g>
<g id="Layer_2">
	<g>
		<rect x="32.1" y="21.7" transform="matrix(0.8516 -0.5242 0.5242 0.8516 -7.637 21.4874)" width="4" height="5"/>
		<rect x="37.2" y="18.6" transform="matrix(0.8516 -0.5242 0.5242 0.8516 -5.2304 23.7029)" width="4" height="5"/>
		<path d="M57.5,32H44.3l6.3-11.7c0.2,0,0.4,0,0.6,0c3.6,0,6.6-3,6.6-6.6s-3-6.6-6.6-6.6c-2.8,0-5.1,1.7-6.1,4.1H18.9
			c-1-2.4-3.3-4.1-6.1-4.1c-3.6,0-6.6,3-6.6,6.6s3,6.6,6.6,6.6c0.1,0,0.2,0,0.3,0l3.8,7.6c-0.9,1.1-1.4,2.5-1.4,4.1
			c0,3.6,3,6.6,6.6,6.6s6.6-3,6.6-6.6c0-0.6-0.1-1.1-0.2-1.7l0.1,0.2l3.4-2.1l-2.6-4.3L26,26.3l0.5,0.7c-1.2-1-2.7-1.6-4.3-1.6
			c-0.3,0-0.5,0-0.8,0.1l-3.6-7.2c0.5-0.6,1-1.2,1.3-2h23.4l-1,0.6l2.6,4.3l0.8-0.5L38.6,32h-5.3c-1,0-1.8,0.3-2.5,1
			c-0.7,0.7-1,1.5-1,2.5v8.4c-2.9,0.7-5.1,3.3-5.1,6.4s2.2,5.7,5.1,6.4v3c0,1,0.3,1.8,1,2.5c0.7,0.7,1.5,1,2.5,1h24.2
			c1,0,1.8-0.3,2.5-1c0.7-0.7,1-1.5,1-2.5V35.5c0-1-0.3-1.8-1-2.5C59.3,32.3,58.5,32,57.5,32z M40.1,58.3h-5.4v-2.3v-6.3v-5.1v-1.3
			h3.5h1.9V58.3z M48.2,58.3H43V36.9h5.2V58.3z M56.5,58.3h-5.4v-8.6h5.4V58.3z"/>
	</g>
</g>
</svg>
