<?xml version="1.0" encoding="utf-8"?>
<!-- Generator: Adobe Illustrator 19.2.0, SVG Export Plug-In . SVG Version: 6.00 Build 0)  -->
<svg version="1.1" xmlns="http://www.w3.org/2000/svg" xmlns:xlink="http://www.w3.org/1999/xlink" x="0px" y="0px"
	 viewBox="0 0 64 64" style="enable-background:new 0 0 64 64;" xml:space="preserve">
<style type="text/css">
	.st0{display:none;}
	.st1{display:inline;}
</style>
<g id="Layer_1">
	<g class="st0">
		<rect class="st1" width="64" height="64"/>
	</g>
</g>
<g id="Layer_2">
	<g>
		<path d="M53.2,8.2c-2.8,0-5.1,1.7-6.1,4.1h-1.6v5h1.6c0.3,0.7,0.7,1.4,1.3,2l0,0l-1.8,3.6l4.5,2.3l1.8-3.6l-0.3-0.2
			c0.2,0,0.5,0,0.7,0c3.6,0,6.6-3,6.6-6.6S56.8,8.2,53.2,8.2z"/>
		<circle cx="34.6" cy="51.2" r="6.6"/>
		<rect x="27.4" y="12.3" width="4" height="5"/>
		<rect x="33.4" y="12.3" width="4" height="5"/>
		<rect x="39.4" y="12.3" width="4" height="5"/>
		<rect x="21.9" y="30.8" transform="matrix(0.8796 -0.4758 0.4758 0.8796 -12.6535 15.5749)" width="5" height="4"/>
		<rect x="24.8" y="36.1" transform="matrix(0.8796 -0.4758 0.4758 0.8796 -14.8206 17.5687)" width="5" height="4"/>
		<rect x="19.1" y="25.5" transform="matrix(0.8796 -0.4758 0.4758 0.8796 -10.4864 13.5812)" width="5" height="4"/>
		<rect x="27.6" y="41.3" transform="matrix(0.8796 -0.4758 0.4758 0.8796 -16.9876 19.5629)" width="5" height="4"/>
		<path d="M45.6,24.6l-0.9,1.9c-0.3,0-0.5-0.1-0.8-0.1c-1.7,0-3.2,0.6-4.4,1.6l0.5-0.7l-3.4-2.1L34,29.5l3.4,2.1l0.1-0.2
			c-0.1,0.5-0.2,1.1-0.2,1.7c0,3.6,3,6.6,6.6,6.6s6.6-3,6.6-6.6c0-1.5-0.5-3-1.4-4.1l1-2.1L45.6,24.6z"/>
		<rect x="29.4" y="23.2" transform="matrix(0.5241 -0.8517 0.8517 0.5241 -6.3246 39.1477)" width="5" height="4"/>
		<rect x="24.3" y="20.1" transform="matrix(0.524 -0.8517 0.8517 0.524 -6.0771 33.3017)" width="5" height="4"/>
		<path d="M14.8,25.4c0.9,0,1.7-0.1,2.6-0.3l0.1,0.2l0.7-0.4c1.2-0.4,2.3-1,3.2-1.8l0.5-0.3l-0.1-0.1c1.6-1.4,2.8-3.3,3.3-5.4h0.3
			v-2.3c0-0.1,0-0.1,0-0.2s0-0.1,0-0.2v-2.3h-0.3C24,7.6,19.8,4.2,14.8,4.2C9,4.2,4.2,8.9,4.2,14.8C4.2,20.6,9,25.4,14.8,25.4z
			 M14.8,8.2c3.6,0,6.5,2.9,6.6,6.4c0,0.1,0,0.1,0,0.2s0,0.1,0,0.2c0,0.3,0,0.6-0.1,0.9c-0.3,1.5-1,2.9-2.2,3.9
			c-0.1,0.1-0.3,0.3-0.5,0.4c-0.6,0.5-1.3,0.8-2.1,1c-0.6,0.2-1.2,0.2-1.8,0.2c-3.6,0-6.6-3-6.6-6.6S11.2,8.2,14.8,8.2z"/>
	</g>
</g>
</svg>
