<?xml version="1.0" encoding="utf-8"?>
<!-- Generator: Adobe Illustrator 19.2.0, SVG Export Plug-In . SVG Version: 6.00 Build 0)  -->
<svg version="1.1" xmlns="http://www.w3.org/2000/svg" xmlns:xlink="http://www.w3.org/1999/xlink" x="0px" y="0px"
	 viewBox="0 0 64 64" style="enable-background:new 0 0 64 64;" xml:space="preserve">
<style type="text/css">
	.st0{display:none;}
	.st1{display:inline;}
</style>
<g id="Layer_1">
	<g class="st0">
		<rect class="st1" width="64" height="64"/>
	</g>
</g>
<g id="Layer_2">
	<g>
		<path d="M54.3,46.7h7.2v-7.2v-7.8v-3.8l-3-2.1l-10.6-7.2l-1.8-1.3h-2.2h-25h-2.5l-2,1.6l-9.1,7.2l-2.8,2.2v3.4v7.8v7.2h7.2H54.3z
			 M51.5,32.8c2.1,0,3.8,1.7,3.8,3.8c0,2.1-1.7,3.8-3.8,3.8c-2.1,0-3.8-1.7-3.8-3.8C47.8,34.5,49.5,32.8,51.5,32.8z M9,32.9h33.3
			v7.4H9V32.9z"/>
	</g>
</g>
</svg>
