<?xml version="1.0" encoding="utf-8"?>
<!-- Generator: Adobe Illustrator 19.2.0, SVG Export Plug-In . SVG Version: 6.00 Build 0)  -->
<svg version="1.1" xmlns="http://www.w3.org/2000/svg" xmlns:xlink="http://www.w3.org/1999/xlink" x="0px" y="0px"
	 viewBox="0 0 64 64" style="enable-background:new 0 0 64 64;" xml:space="preserve">
<style type="text/css">
	.st0{display:none;}
	.st1{display:inline;}
</style>
<g id="Layer_1">
	<g class="st0">
		<rect class="st1" width="64" height="64"/>
	</g>
</g>
<g id="Layer_2">
	<g>
		<path d="M32,58.9c14.8,0,26.9-12.1,26.9-26.9C58.9,17.2,46.8,5.1,32,5.1C17.2,5.1,5.1,17.2,5.1,32C5.1,46.8,17.2,58.9,32,58.9z
			 M32,9.6c12.3,0,22.4,10,22.4,22.4c0,5.3-1.9,10.2-5,14.1l-2-2l0.5-0.2c-1.2-2.6-3.4-3.9-4.9-4.6c0.5-1.2,0.8-2.4,1-3.7
			c1.2-0.1,3.1-0.1,4.8,0.9l1.6-2.5c-2.2-1.4-4.6-1.5-6.3-1.4c-0.1-1.1-0.2-2.1-0.5-3.1c1.6-0.3,3.8-1.3,5.5-3.8l-2.5-1.7
			c-1.3,2-3.1,2.5-4.1,2.7c-0.6-1.2-1.3-2.3-2.2-3.2c0.2-0.7,0.3-1.4,0.3-2.1c0-2.1-0.8-4-2-5.4l1.6-1.6L38,12.1l-1.8,1.8
			c-1.2-0.7-2.6-1.1-4.2-1.1c-1.5,0-2.9,0.4-4.2,1.1L26,12.1l-2.1,2.1l1.6,1.6c-1,1.2-1.7,2.8-1.9,4.5l-5.7-5.7
			C21.8,11.5,26.7,9.6,32,9.6z M32,15.8c3,0,5.4,2.4,5.5,5.3c-1.7-1-3.6-1.5-5.5-1.5c-1.9,0-3.8,0.5-5.5,1.5
			C26.6,18.2,29,15.8,32,15.8z M14.7,17.8l7.5,7.5c-0.3,0.4-0.5,0.8-0.7,1.2c-1-0.1-2.8-0.6-4.2-2.7l-2.5,1.7c1.7,2.6,4,3.5,5.6,3.9
			c-0.3,1-0.4,2-0.5,3.1c-1.6-0.1-4.2,0-6.4,1.4l1.6,2.5c1.7-1,3.7-1.1,4.9-0.9c0.2,1.3,0.5,2.5,0.9,3.7c-1.6,0.7-3.8,2-5,4.6
			l2.7,1.2c0.8-1.9,2.6-2.8,3.7-3.2c2.2,3.3,5.7,5.5,9.6,5.5c3.3,0,6.2-1.5,8.4-3.9l5.8,5.8c-3.9,3.2-8.8,5.1-14.2,5.1
			c-12.3,0-22.4-10-22.4-22.4C9.6,26.6,11.5,21.7,14.7,17.8z"/>
	</g>
</g>
</svg>
