<?xml version="1.0" encoding="utf-8"?>
<!-- Generator: Adobe Illustrator 19.2.0, SVG Export Plug-In . SVG Version: 6.00 Build 0)  -->
<svg version="1.1" xmlns="http://www.w3.org/2000/svg" xmlns:xlink="http://www.w3.org/1999/xlink" x="0px" y="0px"
	 viewBox="0 0 64 64" style="enable-background:new 0 0 64 64;" xml:space="preserve">
<style type="text/css">
	.st0{display:none;}
	.st1{display:inline;}
</style>
<g id="Layer_1">
	<g class="st0">
		<rect class="st1" width="64" height="64"/>
	</g>
</g>
<g id="Layer_2">
	<g>
		<path d="M8.6,39.9l4.9,8.4l0.5,0.8l7-2.8c1.3,1,2.6,1.8,4.1,2.4l1.1,7.4c0,0,0.4,0,1.1,0h9.6c0.8,0,1.1,0,1.1,0l1.1-7.4
			c1.4-0.6,2.7-1.4,4.1-2.4l7,2.8l0.5-0.8l4.9-8.4l0.5-0.9l-6-4.6c0.2-0.9,0.2-1.7,0.2-2.4c0-0.7-0.1-1.5-0.2-2.4l6-4.6L50,14.9
			l-7,2.8c-1.3-1-2.6-1.8-4.1-2.4l-1-7.4H26.1L25,15.2c-1.4,0.6-2.7,1.4-4.1,2.4l-7-2.8l-0.5,0.9l-4.9,8.4L8.1,25l6,4.6
			c-0.1,0.9-0.1,1.7-0.1,2.4c0,0.7,0,1.5,0.1,2.4l-6,4.6L8.6,39.9z M26.1,26c1.7-1.7,3.6-2.5,5.9-2.5c2.3,0,4.3,0.8,5.9,2.5
			c1.7,1.7,2.5,3.7,2.5,6c0,2.3-0.8,4.3-2.5,6c-1.7,1.7-3.6,2.5-5.9,2.5c-2.3,0-4.3-0.8-5.9-2.5c-1.7-1.7-2.5-3.7-2.5-6
			C23.6,29.7,24.4,27.7,26.1,26z"/>
	</g>
</g>
</svg>
