<?xml version="1.0" encoding="utf-8"?>
<!-- Generator: Adobe Illustrator 19.2.0, SVG Export Plug-In . SVG Version: 6.00 Build 0)  -->
<svg version="1.1" xmlns="http://www.w3.org/2000/svg" xmlns:xlink="http://www.w3.org/1999/xlink" x="0px" y="0px"
	 viewBox="0 0 64 64" style="enable-background:new 0 0 64 64;" xml:space="preserve">
<style type="text/css">
	.st0{display:none;}
	.st1{display:inline;}
</style>
<g id="Layer_1">
	<g class="st0">
		<rect class="st1" width="64" height="64"/>
	</g>
</g>
<g id="Layer_2">
	<g>
		<path d="M18.5,39.7L20,27.3h7.8v-3.9h-7.3l0.4-3.1c0.5-4.5,2.3-8.5,6.5-8.5c1.2,0,2.3,0.2,3.2,0.6l1-3.9c-0.9-0.5-2.3-0.9-4.2-0.9
			c-8.2,0-10.9,7-11.7,13l-0.4,2.8h-6v3.9h5.6l-1.4,12c-0.7,6.2-2.1,9.6-5.9,9.6c-1.3,0-2.4-0.2-3.4-0.7l-1,3.8c1,0.6,2.7,1,4.8,1
			C15,53.1,17.5,47.7,18.5,39.7z"/>
		<path d="M27.9,37.6v0.5c0,4.5,0.9,8.4,2.6,11.5c1.7,3.1,3.7,5.1,6.1,6h0.1l1.1-2.8c-1.5-1.1-2.7-2.9-3.7-5.3
			c-1-2.4-1.4-5.6-1.4-9.4v-0.6c0-3.9,0.5-7,1.4-9.4c1-2.4,2.2-4.2,3.7-5.3l-1.1-2.8h-0.1c-2.3,0.9-4.3,2.9-6.1,6
			C28.8,29.3,27.9,33.1,27.9,37.6z"/>
		<polygon points="42,38.4 35.9,47.9 40.7,47.9 44.3,41.3 48,47.9 52.8,47.9 46.7,38.4 52.6,29.1 47.7,29.1 44.3,35.6 40.8,29.1 
			36,29.1 		"/>
		<path d="M54.6,28.2c1,2.4,1.5,5.6,1.5,9.4v0.6c0,3.9-0.5,7-1.5,9.4c-1,2.4-2.2,4.2-3.7,5.3l1.1,2.8h0.1c2.4-0.9,4.5-2.9,6.3-6.2
			c1.8-3.2,2.7-7,2.7-11.4v-0.5c0-4.3-0.9-8.1-2.7-11.3c-1.8-3.2-3.9-5.3-6.3-6.2H52l-1.1,2.8C52.4,24,53.6,25.7,54.6,28.2z"/>
	</g>
</g>
</svg>
