<?xml version="1.0" encoding="utf-8"?>
<!-- Generator: Adobe Illustrator 19.2.0, SVG Export Plug-In . SVG Version: 6.00 Build 0)  -->
<svg version="1.1" xmlns="http://www.w3.org/2000/svg" xmlns:xlink="http://www.w3.org/1999/xlink" x="0px" y="0px"
	 viewBox="0 0 64 64" style="enable-background:new 0 0 64 64;" xml:space="preserve">
<style type="text/css">
	.st0{display:none;}
	.st1{display:inline;}
</style>
<g id="Layer_1">
	<g class="st0">
		<rect class="st1" width="64" height="64"/>
	</g>
</g>
<g id="Layer_2">
	<g>
		<path d="M35.7,27.5c1-2.5,1.3-5.1,0.7-8c-0.6-2.8-1.9-5.3-4-7.3c-2.2-2.1-4.9-3.5-7.9-4c-3.1-0.5-5.9-0.2-8.5,1.1l9.6,9.6
			l-6.7,6.7L9,15.9c-1.4,2.7-1.8,5.6-1.2,8.6c0.6,3,1.9,5.6,4.1,7.9c2.1,2.1,4.5,3.4,7.3,4c2.8,0.6,5.5,0.4,8.1-0.7l20.2,20.2
			c0.4,0.5,0.9,0.7,1.5,0.7c0.6,0,1.1-0.2,1.6-0.7l5.1-5.1c0.6-0.4,0.8-1,0.8-1.6c0-0.7-0.2-1.2-0.6-1.5L35.7,27.5z"/>
	</g>
</g>
</svg>
