<?xml version="1.0" encoding="utf-8"?>
<!-- Generator: Adobe Illustrator 19.2.0, SVG Export Plug-In . SVG Version: 6.00 Build 0)  -->
<svg version="1.1" xmlns="http://www.w3.org/2000/svg" xmlns:xlink="http://www.w3.org/1999/xlink" x="0px" y="0px"
	 viewBox="0 0 64 64" style="enable-background:new 0 0 64 64;" xml:space="preserve">
<style type="text/css">
	.st0{display:none;}
	.st1{display:inline;}
</style>
<g id="Layer_1">
	<g class="st0">
		<rect class="st1" width="64" height="64"/>
	</g>
</g>
<g id="Layer_2">
	<g>
		<path d="M49.4,45.2c1.2,0,2.3-0.4,3.1-1.3c0.8-0.8,1.3-1.9,1.3-3.1V14.7c0-1.2-0.4-2.2-1.3-3c-0.8-0.8-1.9-1.3-3.1-1.3H23.3
			c-1.2,0-2.3,0.4-3.1,1.3c-0.8,0.9-1.3,1.9-1.3,3v26.1c0,1.2,0.4,2.3,1.3,3.1c0.8,0.8,1.9,1.3,3.1,1.3H49.4z M25.4,25.6h8.8v-8.7
			h4.3v8.7h8.8V30h-8.8v8.7h-4.3V30h-8.8V25.6z"/>
		<path d="M10.2,19.1v30.5c0,1.2,0.4,2.2,1.3,3c0.8,0.8,1.9,1.3,3.1,1.3H45v-4.3H14.6V19.1H10.2z"/>
	</g>
</g>
</svg>
