<?xml version="1.0" encoding="utf-8"?>
<!-- Generator: Adobe Illustrator 19.2.0, SVG Export Plug-In . SVG Version: 6.00 Build 0)  -->
<svg version="1.1" xmlns="http://www.w3.org/2000/svg" xmlns:xlink="http://www.w3.org/1999/xlink" x="0px" y="0px"
	 viewBox="0 0 64 64" style="enable-background:new 0 0 64 64;" xml:space="preserve">
<style type="text/css">
	.st0{display:none;}
	.st1{display:inline;}
</style>
<g id="Layer_1">
	<g class="st0">
		<rect class="st1" width="64" height="64"/>
	</g>
</g>
<g id="Layer_2">
	<g>
		<path d="M26.2,8C16.5,8,8.6,15.8,8.6,25.5c0,9.7,7.9,17.6,17.6,17.6c3.4,0,6.6-1,9.3-2.7L51.1,56l4.2-4.2L40,36.4
			c2.4-3,3.8-6.8,3.8-10.9C43.7,15.8,35.9,8,26.2,8z M26.2,37.1c-6.4,0-11.6-5.2-11.6-11.6S19.8,14,26.2,14s11.6,5.2,11.6,11.6
			S32.6,37.1,26.2,37.1z"/>
	</g>
</g>
</svg>
