<?xml version="1.0" encoding="utf-8"?>
<!-- Generator: Adobe Illustrator 19.2.0, SVG Export Plug-In . SVG Version: 6.00 Build 0)  -->
<svg version="1.1" xmlns="http://www.w3.org/2000/svg" xmlns:xlink="http://www.w3.org/1999/xlink" x="0px" y="0px"
	 viewBox="0 0 64 64" style="enable-background:new 0 0 64 64;" xml:space="preserve">
<style type="text/css">
	.st0{display:none;}
	.st1{display:inline;}
</style>
<g id="Layer_1">
	<g class="st0">
		<rect class="st1" width="64" height="64"/>
	</g>
</g>
<g id="Layer_2">
	<g>
		<path d="M59.2,36.1c-0.2-0.2-0.4-0.4-0.6-0.6c-0.1,0-0.1-0.1-0.2-0.1c0.1,0,0.1,0.1,0.2,0.1c0.2-1.2,0.2-2.4,0.2-3.6
			C58.9,17.2,46.8,5.1,32,5.1C17.2,5.1,5.1,17.2,5.1,32c0,14.8,12.1,26.9,26.9,26.9c1.2,0,2.4-0.1,3.6-0.2c0.2,0.2,0.3,0.4,0.5,0.6
			c0,0,0,0,0,0c0.2,0.2,0.5,0.4,0.7,0.7c2.5,2.2,5.3,3.6,8.6,4c0.7,0.1,1.5,0.2,2.3,0.2c0.8,0,1.6-0.1,2.3-0.2
			c3.2-0.4,6-1.7,8.5-3.9c0.3-0.2,0.5-0.4,0.8-0.7c0,0,0,0,0,0c3.2-3.2,4.8-7,4.8-11.5C64,43.2,62.4,39.3,59.2,36.1
			C59.2,36.1,59.2,36.1,59.2,36.1z M32,15.8c3,0,5.4,2.4,5.5,5.3c-1.7-1-3.6-1.5-5.5-1.5c-1.9,0-3.8,0.5-5.5,1.5
			C26.6,18.2,29,15.8,32,15.8z M32,9.6c12.3,0,22.4,10,22.4,22.4c0,0.2,0,0.5,0,0.7c-1.4-0.6-2.8-1-4.4-1.2
			c-0.7-0.1-1.5-0.2-2.3-0.2c-0.8,0-1.5,0.1-2.3,0.2c-0.5,0.1-0.9,0.1-1.4,0.2c-0.1-0.8-0.2-1.6-0.4-2.3c1.6-0.3,3.8-1.3,5.5-3.8
			l-2.5-1.7c-1.3,2-3.1,2.5-4.1,2.7c-0.6-1.2-1.3-2.3-2.2-3.2c0.2-0.7,0.3-1.4,0.3-2.1c0-2.1-0.8-4-2-5.4l1.6-1.6L38,12.1l-1.8,1.8
			c-1.2-0.7-2.6-1.1-4.2-1.1c-1.5,0-2.9,0.4-4.2,1.1L26,12.1l-2.1,2.1l1.6,1.6c-1,1.2-1.7,2.8-1.9,4.5l-5.7-5.7
			C21.8,11.5,26.7,9.6,32,9.6z M32,54.4c-12.3,0-22.4-10-22.4-22.4c0-5.4,1.9-10.3,5.1-14.2l7.5,7.5c-0.3,0.4-0.5,0.8-0.7,1.2
			c-1-0.1-2.8-0.6-4.2-2.7l-2.5,1.7c1.7,2.6,4,3.5,5.6,3.9c-0.3,1-0.4,2-0.5,3.1c-1.6-0.1-4.2,0-6.4,1.4l1.6,2.5
			c1.7-1,3.7-1.1,4.9-0.9c0.2,1.3,0.5,2.5,0.9,3.7c-1.6,0.7-3.8,2-5,4.6l2.7,1.2c0.8-1.9,2.6-2.8,3.7-3.2c2.1,3.1,5.3,5.2,8.9,5.4
			c0,0.1,0,0.2,0,0.3c0,2.4,0.5,4.6,1.4,6.7C32.5,54.4,32.2,54.4,32,54.4z M56.9,56.9c-2.6,2.6-5.6,3.8-9.2,3.8
			c-3.2,0-5.9-1-8.3-2.9c-0.3-0.3-0.7-0.6-1-0.9c-0.9-0.9-1.7-1.9-2.3-3c-1-1.9-1.6-4-1.6-6.3c0-0.2,0-0.4,0-0.6
			c0-0.5,0.1-1.1,0.2-1.6c0.1-0.6,0.2-1.2,0.4-1.8c0.4-1.3,1-2.5,1.8-3.6c0.4-0.6,0.9-1.2,1.4-1.7c0.6-0.6,1.1-1,1.7-1.5
			c0.2-0.1,0.4-0.2,0.5-0.4c0.5-0.4,1.1-0.7,1.7-0.9c0.1-0.1,0.3-0.1,0.4-0.2c0.4-0.1,0.8-0.3,1.2-0.4c1.2-0.3,2.4-0.5,3.7-0.5
			c0.7,0,1.5,0.1,2.1,0.2c1.5,0.2,2.9,0.7,4.2,1.4c1,0.6,2,1.3,2.9,2.2c0.3,0.3,0.6,0.7,0.9,1c1.9,2.3,2.9,5.1,2.9,8.2
			C60.7,51.3,59.5,54.4,56.9,56.9z"/>
		<polygon points="46,41.3 46,42.8 47.3,42.8 49.3,42.8 49.3,39.5 46,39.5 		"/>
		<polygon points="46,46.1 46,49.1 46,49.4 46,54.9 46,55.9 49.3,55.9 49.3,52.5 49.3,48.8 49.3,46.2 49.3,46.1 49.3,46.1 
			49.3,46.1 		"/>
	</g>
</g>
</svg>
