<?xml version="1.0" encoding="utf-8"?>
<!-- Generator: Adobe Illustrator 19.2.0, SVG Export Plug-In . SVG Version: 6.00 Build 0)  -->
<svg version="1.1" xmlns="http://www.w3.org/2000/svg" xmlns:xlink="http://www.w3.org/1999/xlink" x="0px" y="0px"
	 viewBox="0 0 64 64" style="enable-background:new 0 0 64 64;" xml:space="preserve">
<style type="text/css">
	.st0{display:none;}
	.st1{display:inline;}
</style>
<g id="Layer_1">
	<g class="st0">
		<rect class="st1" width="64" height="64"/>
	</g>
</g>
<g id="Layer_2">
	<g>
		<path d="M20.6,11.7H14V8.6H4.5v15.6h16.1V11.7z M17.6,21.2H7.5v-9.6H11v0.1v3h3h3.6V21.2z"/>
		<path d="M23.9,8.6v15.6h16.1V11.7h-6.6V8.6H23.9z M37.1,14.7v6.5H26.9v-9.6h3.5v0.1v3h3H37.1z"/>
		<path d="M43.4,8.6v15.6h16.1V11.7h-6.6V8.6H43.4z M56.5,14.7v6.5H46.4v-9.6h3.5v0.1v3h3H56.5z"/>
		<path d="M46.8,29.2L45.2,28h-2.1H19.8h-2.3l-1.9,1.5l-8.5,6.7l-2.6,2.1v3.2v7.3v6.7h6.7h41.6h6.7v-6.7v-7.3v-3.5l-2.8-2L46.8,29.2
			z M41.6,49.5H10.5v-6.9h31.1V49.5z M50.2,49.5c-1.9,0-3.5-1.6-3.5-3.5s1.6-3.5,3.5-3.5c1.9,0,3.5,1.6,3.5,3.5S52.2,49.5,50.2,49.5
			z"/>
	</g>
</g>
</svg>
