<?xml version="1.0" encoding="utf-8"?>
<!-- Generator: Adobe Illustrator 19.2.0, SVG Export Plug-In . SVG Version: 6.00 Build 0)  -->
<svg version="1.1" xmlns="http://www.w3.org/2000/svg" xmlns:xlink="http://www.w3.org/1999/xlink" x="0px" y="0px"
	 viewBox="0 0 64 64" style="enable-background:new 0 0 64 64;" xml:space="preserve">
<style type="text/css">
	.st0{display:none;}
	.st1{display:inline;}
</style>
<g id="Layer_1">
	<g class="st0">
		<rect class="st1" width="64" height="64"/>
	</g>
</g>
<g id="Layer_2">
	<g>
		<polygon points="14,5.1 13,5.1 5.7,12.3 5.7,13.3 14,13.3 		"/>
		<polygon points="23.3,5.1 16.2,5.1 16.2,15.6 5.7,15.6 5.7,29.4 23.3,29.4 		"/>
		<polygon points="40.7,28.1 49,28.1 49,19.8 48,19.8 40.7,27.1 		"/>
		<polygon points="51.2,30.4 40.7,30.4 40.7,44.2 58.3,44.2 58.3,19.8 51.2,19.8 		"/>
		<polygon points="14,34.6 13,34.6 5.7,41.8 5.7,42.8 14,42.8 		"/>
		<polygon points="23.3,34.6 16.2,34.6 16.2,45.1 5.7,45.1 5.7,58.9 23.3,58.9 		"/>
		<path d="M36.1,26.8l-5.7-5.7c-0.8-0.8-2-0.8-2.8,0s-0.8,2,0,2.8l5.7,5.7c0.4,0.4,0.9,0.6,1.4,0.6s1-0.2,1.4-0.6
			C36.9,28.8,36.9,27.5,36.1,26.8z"/>
		<path d="M36.1,34.4c-0.8-0.8-2-0.8-2.8,0l-5.7,5.7c-0.8,0.8-0.8,2,0,2.8c0.4,0.4,0.9,0.6,1.4,0.6s1-0.2,1.4-0.6l5.7-5.7
			C36.9,36.5,36.9,35.2,36.1,34.4z"/>
	</g>
</g>
</svg>
