<?xml version="1.0" encoding="utf-8"?>
<!-- Generator: Adobe Illustrator 19.2.0, SVG Export Plug-In . SVG Version: 6.00 Build 0)  -->
<svg version="1.1" xmlns="http://www.w3.org/2000/svg" xmlns:xlink="http://www.w3.org/1999/xlink" x="0px" y="0px"
	 viewBox="0 0 64 64" style="enable-background:new 0 0 64 64;" xml:space="preserve">
<style type="text/css">
	.st0{display:none;}
	.st1{display:inline;}
</style>
<g id="Layer_1">
	<g class="st0">
		<rect class="st1" width="64" height="64"/>
	</g>
</g>
<g id="Layer_2">
	<g>
		<path d="M53.4,11.4c0-1.3-0.9-2.4-2.8-3.5c-1.9-1.1-4.5-1.9-7.7-2.6C39.5,4.7,36,4.4,32.2,4.4c-3.8,0-7.4,0.3-10.6,0.9
			c-3.3,0.6-5.8,1.5-7.7,2.6c-1.9,1.1-2.8,2.2-2.8,3.5V15c0,1.3,0.9,2.4,2.8,3.5c1.6,0.9,3.7,1.7,6.3,2.3c0.5-2,1.6-3.8,3.2-5.4
			c2.4-2.4,5.3-3.6,8.7-3.6c3.4,0,6.3,1.2,8.7,3.6c1.6,1.6,2.7,3.4,3.2,5.5c2.7-0.6,4.9-1.4,6.6-2.3c1.9-1.1,2.8-2.2,2.8-3.5V11.4z"
			/>
		<path d="M53.4,31.4c-2.2,1.5-5.2,2.7-9,3.5c-1.1,0.2-2.2,0.4-3.3,0.6v4.2h2.7c1.2,0,2.4,0.6,3.1,1.5c1.4-0.4,2.6-0.9,3.6-1.5
			c1.9-1.1,2.8-2.3,2.8-3.5V31.4z"/>
		<path d="M53.4,46.6v-4.7c-1.5,1.1-3.4,1.9-5.6,2.6c-0.2,0.7-0.5,1.3-1,1.9l-6.6,6.7c0.9-0.1,1.8-0.3,2.7-0.4
			c3.3-0.6,5.8-1.5,7.7-2.6C52.4,49,53.4,47.8,53.4,46.6z"/>
		<path d="M21.5,31.6c0.3,0.1,0.6,0.1,0.8,0.1c-1.8-2.1-2.7-4.6-2.7-7.5c-3.7-0.8-6.6-1.9-8.7-3.4v4.7c0,1.3,0.9,2.4,2.8,3.5
			C15.7,30.1,18.3,30.9,21.5,31.6z"/>
		<path d="M10.9,46.6c0,1.3,0.9,2.4,2.8,3.5c1.9,1.1,4.5,1.9,7.7,2.6c0.8,0.2,1.6,0.3,2.5,0.4l-6.6-6.6c-0.6-0.6-0.9-1.2-1.1-2
			c-2.1-0.7-3.9-1.5-5.3-2.5V46.6z"/>
		<path d="M53.4,20.8c-2.2,1.5-5.2,2.7-9,3.5c0,0-0.1,0-0.1,0c-0.1,2.8-1,5.3-2.7,7.4c0.4-0.1,0.8-0.1,1.2-0.2
			c3.3-0.6,5.8-1.5,7.7-2.6c1.9-1.1,2.8-2.2,2.8-3.5V20.8z"/>
		<path d="M10.9,36c0,1.3,0.9,2.4,2.8,3.5c0.9,0.5,2.1,1,3.3,1.4c0.7-0.9,1.9-1.4,3-1.4H23v-4.2c-1-0.2-2-0.3-3-0.5
			c-3.8-0.8-6.8-1.9-9-3.5V36z"/>
		<rect x="20.1" y="57.1" width="23.8" height="3.4"/>
		<path d="M22.4,45.8l7.7,7.7l1.9,1.9l1.9-1.9l7.6-7.7l2.3-2.3h-6.7v-0.7v-7v-0.6c-0.7,0.3-1.4,0.6-2.1,0.7c-1,0.2-2,0.4-3,0.4
			c-1.1,0-2.1-0.1-3.1-0.4c-0.7-0.2-1.3-0.4-2-0.7v0.5v7v0.7h-6.8L22.4,45.8z"/>
		<polygon points="33.2,25.5 33.2,22 33.2,15.9 30.8,15.9 30.8,22 30.8,23.3 26.6,23.3 26.6,25.2 26.6,25.7 33.2,25.7 		"/>
	</g>
</g>
</svg>
