<?xml version="1.0" encoding="utf-8"?>
<!-- Generator: Adobe Illustrator 19.2.0, SVG Export Plug-In . SVG Version: 6.00 Build 0)  -->
<svg version="1.1" xmlns="http://www.w3.org/2000/svg" xmlns:xlink="http://www.w3.org/1999/xlink" x="0px" y="0px"
	 viewBox="0 0 64 64" style="enable-background:new 0 0 64 64;" xml:space="preserve">
<style type="text/css">
	.st0{display:none;}
	.st1{display:inline;}
</style>
<g id="Layer_1">
	<g class="st0">
		<rect class="st1" width="64" height="64"/>
	</g>
</g>
<g id="Layer_2">
	<g>
		<path d="M45.8,19.4h-11v5.3h11c2.3,0,4.3,0.8,6,2.5c1.7,1.7,2.5,3.7,2.5,6s-0.8,4.3-2.5,6c-1.7,1.7-3.7,2.5-6,2.5h-11V47h11
			c3.8,0,7-1.4,9.7-4.1c2.7-2.7,4.1-6,4.1-9.7c0-3.8-1.4-7-4.1-9.7C52.8,20.7,49.5,19.4,45.8,19.4z"/>
		<rect x="21" y="30.5" width="22.1" height="5.4"/>
		<path d="M8.5,23.4c-2.7,2.7-4.1,6-4.1,9.7c0,3.8,1.4,7,4.1,9.7c2.7,2.7,6,4.1,9.7,4.1h11v-5.3h-11c-2.4,0-4.4-0.8-6.1-2.5
			c-1.6-1.7-2.5-3.7-2.5-6s0.8-4.3,2.5-6c1.6-1.7,3.7-2.5,6.1-2.5h11v-5.3h-11C14.5,19.4,11.2,20.7,8.5,23.4z"/>
	</g>
</g>
</svg>
