<?xml version="1.0" encoding="utf-8"?>
<!-- Generator: Adobe Illustrator 19.2.0, SVG Export Plug-In . SVG Version: 6.00 Build 0)  -->
<svg version="1.1" xmlns="http://www.w3.org/2000/svg" xmlns:xlink="http://www.w3.org/1999/xlink" x="0px" y="0px"
	 viewBox="0 0 64 64" style="enable-background:new 0 0 64 64;" xml:space="preserve">
<style type="text/css">
	.st0{display:none;}
	.st1{display:inline;}
</style>
<g id="Layer_1">
	<g class="st0">
		<rect class="st1" width="64" height="64"/>
	</g>
</g>
<g id="Layer_2">
	<g>
		<path d="M8.1,37h27.3c3-3.4,7.4-5.6,12.3-5.6c3,0,5.8,0.8,8.3,2.3v-6.3H8.1V37z M12.9,29.8h4.7v4.7h-4.7V29.8z"/>
		<path d="M8.1,22.6h47.9V13H8.1V22.6z M12.9,15.4h4.7v4.7h-4.7V15.4z"/>
		<path d="M8.1,51.3h23.7c-0.3-1.2-0.4-2.4-0.4-3.6c0-2.1,0.4-4.1,1.2-6H8.1V51.3z M12.9,44.1h4.7v4.7h-4.7V44.1z"/>
		<path d="M58.1,44.8c0.2-0.2,0.2-0.4,0.1-0.7L56,40.3c-0.1-0.2-0.4-0.3-0.7-0.2l-2.6,1.1c-0.6-0.5-1.2-0.8-1.8-1.1l-0.4-2.9
			c0-0.1-0.1-0.2-0.2-0.3c-0.1-0.1-0.2-0.1-0.4-0.1h-4.3c-0.2,0-0.3,0-0.4,0.1C45,37,45,37.1,44.9,37.3l-0.4,2.9
			c-0.7,0.3-1.3,0.7-1.8,1.1L40,40.1c-0.3-0.1-0.5,0-0.7,0.2l-0.8,1.4l-1.4,2.4c-0.1,0.3-0.1,0.5,0.1,0.7l2.3,1.8
			c-0.1,0.3-0.1,0.7-0.1,1.1c0,0.4,0,0.7,0.1,1.1l-2.3,1.7c-0.2,0.2-0.2,0.4-0.1,0.7l0.1,0.1l2.1,3.7c0.1,0.3,0.4,0.4,0.7,0.3
			l2.6-1.1c0.6,0.5,1.2,0.8,1.8,1l0.4,3c0.1,0.3,0.3,0.4,0.6,0.4h4.3c0.3,0,0.5-0.1,0.6-0.4l0.4-3c0.7-0.3,1.3-0.6,1.8-1l2.6,1.1
			c0.3,0.1,0.6,0,0.7-0.3l2.1-3.8c0.1-0.3,0.1-0.5-0.1-0.7l-2.1-1.6l-0.2-0.2c0.1-0.5,0.1-0.8,0.1-1.1c0-0.4,0-0.7-0.1-1l0.2-0.2
			L58.1,44.8z M50.9,47.7c0,0.9-0.3,1.7-1,2.3c-0.6,0.6-1.4,0.9-2.3,0.9c-0.9,0-1.6-0.3-2.3-0.9c-0.6-0.6-1-1.4-1-2.3
			c0-0.9,0.3-1.7,1-2.3c0.6-0.6,1.4-1,2.3-1c0.9,0,1.6,0.3,2.3,1C50.6,46,50.9,46.8,50.9,47.7z"/>
	</g>
</g>
</svg>
