<?xml version="1.0" encoding="utf-8"?>
<!-- Generator: Adobe Illustrator 19.2.0, SVG Export Plug-In . SVG Version: 6.00 Build 0)  -->
<svg version="1.1" xmlns="http://www.w3.org/2000/svg" xmlns:xlink="http://www.w3.org/1999/xlink" x="0px" y="0px"
	 viewBox="0 0 64 64" style="enable-background:new 0 0 64 64;" xml:space="preserve">
<style type="text/css">
	.st0{display:none;}
	.st1{display:inline;}
</style>
<g id="Layer_1">
	<g class="st0">
		<rect class="st1" width="64" height="64"/>
	</g>
</g>
<g id="Layer_2">
	<g>
		<path d="M47.2,12.6H16.8c-1.2,0-2.3,0.4-3.1,1.3c-0.8,0.8-1.3,1.9-1.3,3.1v30.4c0,1.2,0.4,2.3,1.3,3.1c0.8,0.8,1.9,1.3,3.1,1.3
			h30.4c1.2,0,2.3-0.4,3.1-1.3c0.8-0.8,1.3-1.9,1.3-3.1V16.9c0-1.2-0.4-2.3-1.3-3.1C49.4,13,48.4,12.6,47.2,12.6z M27.4,21
			c1.3-1.3,2.8-1.9,4.6-1.9s3.4,0.6,4.6,1.9c1.3,1.3,1.9,2.8,1.9,4.6s-0.6,3.4-1.9,4.6c-1.3,1.3-2.8,1.9-4.6,1.9s-3.4-0.6-4.6-1.9
			c-1.3-1.3-1.9-2.8-1.9-4.6S26.1,22.2,27.4,21z M45,45.2H19V43c0-1.4,0.8-2.6,2.4-3.7c1.6-1.1,3.4-1.9,5.3-2.3
			c2-0.5,3.7-0.7,5.3-0.7c1.6,0,3.3,0.2,5.3,0.7c2,0.5,3.8,1.3,5.3,2.3c1.6,1.1,2.4,2.3,2.4,3.7V45.2z"/>
	</g>
</g>
</svg>
