<?xml version="1.0" encoding="utf-8"?>
<!-- Generator: Adobe Illustrator 19.2.0, SVG Export Plug-In . SVG Version: 6.00 Build 0)  -->
<svg version="1.1" xmlns="http://www.w3.org/2000/svg" xmlns:xlink="http://www.w3.org/1999/xlink" x="0px" y="0px"
	 viewBox="0 0 64 64" style="enable-background:new 0 0 64 64;" xml:space="preserve">
<style type="text/css">
	.st0{display:none;}
	.st1{display:inline;}
</style>
<g id="Layer_1">
	<g class="st0">
		<rect class="st1" width="64" height="64"/>
	</g>
</g>
<g id="Layer_2">
	<g>
		<path d="M57.5,20.7l-0.9-2.3l-1.7,0.7c-2.5-4.7-6.3-8.5-11-11l0.7-1.7l-2.3-0.9c-6.9-2.9-14.6-2.8-21.5,0.1l-2.3,0.9l0.7,1.7
			c-4.7,2.5-8.5,6.3-11,11l-1.7-0.7l-0.9,2.3c-2.9,6.9-2.8,14.6,0.1,21.5l0.9,2.3l1.7-0.7c2.5,4.7,6.3,8.5,11,11l-0.7,1.7l2.3,0.9
			c3.4,1.4,7,2.1,10.6,2.1c1.2,0,2.5-0.1,3.7-0.3c3.1,2.7,7,4.1,11.1,4.1c9.4,0,17.1-7.7,17.1-17.1c0-4.1-1.4-8-4.1-11
			C60.1,30.3,59.4,25.3,57.5,20.7z M29.8,41.8c-0.8-0.1-1.5-0.3-2.2-0.6l-2.3-0.9l-0.6,1.4c-1.3-0.9-2.4-2-3.2-3.2l1.4-0.6l-0.9-2.3
			c-1.1-2.6-1.1-5.4,0-8l0.9-2.3l-1.4-0.6c0.9-1.3,2-2.4,3.2-3.2l0.6,1.4l2.3-0.9c2.6-1.1,5.4-1.1,8,0l2.3,0.9l0.6-1.4
			c1.3,0.9,2.4,2,3.2,3.2l-1.4,0.6l0.9,2.3c0.3,0.7,0.5,1.5,0.6,2.3C36,31.4,31.4,35.9,29.8,41.8z M9.3,38.1C8,33.8,8,29.3,9.3,25
			l7.4,3c-0.5,2.3-0.5,4.7,0,7l-3.1,1.3L9.3,38.1z M46.7,29.2c-0.1-0.4-0.1-0.8-0.2-1.2l4.2-1.8l3.1-1.3c0.6,2.1,1,4.3,1,6.5
			c-0.1,0-0.1-0.1-0.2-0.1c-0.1,0-0.2-0.1-0.3-0.1c-0.4-0.2-0.8-0.4-1.3-0.6c0,0-0.1,0-0.1,0c-0.5-0.2-0.9-0.4-1.4-0.5
			c-0.1,0-0.2-0.1-0.3-0.1c-0.5-0.1-1-0.3-1.5-0.4c-0.1,0-0.1,0-0.2,0c-0.5-0.1-0.9-0.2-1.4-0.2c-0.1,0-0.2,0-0.3,0
			C47.5,29.2,47.1,29.2,46.7,29.2z M38.1,9.2l-3,7.4c-2.3-0.5-4.7-0.5-7,0L26,11.9l-1.1-2.7C29.2,8,33.8,7.9,38.1,9.2z M25,53.8
			l2.4-5.9l0.6-1.5c0.4,0.1,0.7,0.2,1.1,0.2c0,2.9,0.8,5.6,2.2,8.1C29.2,54.7,27.1,54.4,25,53.8z M46.3,58.6c-3.2,0-6.3-1.3-8.6-3.5
			l0,0c-2.3-2.3-3.6-5.4-3.6-8.7c0-0.5,0-1,0.1-1.6h0c0.7-5.5,5.1-9.8,10.5-10.5l0,0c0.6-0.1,1.1-0.1,1.6-0.1c3.3,0,6.4,1.3,8.7,3.7
			l0,0c2.3,2.3,3.5,5.3,3.5,8.5C58.6,53.1,53.1,58.6,46.3,58.6z"/>
		<polygon points="48.9,36.3 44,36.3 44,48.8 54,48.8 54,43.9 48.9,43.9 		"/>
	</g>
</g>
</svg>
