<?xml version="1.0" encoding="utf-8"?>
<!-- Generator: Adobe Illustrator 19.2.0, SVG Export Plug-In . SVG Version: 6.00 Build 0)  -->
<svg version="1.1" xmlns="http://www.w3.org/2000/svg" xmlns:xlink="http://www.w3.org/1999/xlink" x="0px" y="0px"
	 viewBox="0 0 64 64" style="enable-background:new 0 0 64 64;" xml:space="preserve">
<style type="text/css">
	.st0{display:none;}
	.st1{display:inline;}
</style>
<g id="Layer_1">
	<g class="st0">
		<rect class="st1" width="64" height="64"/>
	</g>
</g>
<g id="Layer_2">
	<g>
		<path d="M48.9,10.2H15.1c-1.4,0-2.5,0.5-3.5,1.4c-0.9,0.9-1.4,2.1-1.4,3.5v33.9c0,1.4,0.5,2.5,1.4,3.5c0.9,0.9,2.1,1.4,3.5,1.4
			h33.9c1.4,0,2.5-0.5,3.5-1.4c0.9-0.9,1.4-2.1,1.4-3.5V15.1c0-1.4-0.5-2.5-1.4-3.5C51.4,10.7,50.3,10.2,48.9,10.2z M23,47h-6V26h6
			V47z M34.9,47h-5.9V17h5.9V47z M47,47h-6v-12h6V47z"/>
	</g>
</g>
</svg>
