<?xml version="1.0" encoding="utf-8"?>
<!-- Generator: Adobe Illustrator 19.2.0, SVG Export Plug-In . SVG Version: 6.00 Build 0)  -->
<svg version="1.1" xmlns="http://www.w3.org/2000/svg" xmlns:xlink="http://www.w3.org/1999/xlink" x="0px" y="0px"
	 viewBox="0 0 64 64" style="enable-background:new 0 0 64 64;" xml:space="preserve">
<style type="text/css">
	.st0{display:none;}
	.st1{display:inline;}
</style>
<g id="Layer_1">
	<g class="st0">
		<rect class="st1" width="64" height="64"/>
	</g>
</g>
<g id="Layer_2">
	<g>
		<path d="M9.9,48.8c1.4,0.8,3.2,1.4,5.6,1.9c2.4,0.5,4.9,0.7,7.7,0.7c0.5,0,0.9,0,1.4,0c-0.9-1.1-1.1-2.2-1.1-3.1v-2
			c-0.1,0-0.2,0-0.3,0c-3.2,0-6.1-0.3-8.9-0.9c-2.8-0.6-4.9-1.4-6.5-2.5v3.4C7.8,47.1,8.5,48,9.9,48.8z"/>
		<path d="M9.9,41.1c1.4,0.8,3.2,1.4,5.6,1.9c2.4,0.5,4.9,0.7,7.7,0.7c0.1,0,0.2,0,0.3,0v-3.1v-2c-0.1,0-0.2,0-0.3,0
			c-3.2,0-6.1-0.3-8.9-0.9c-2.8-0.6-4.9-1.4-6.5-2.5v3.4C7.8,39.4,8.5,40.3,9.9,41.1z"/>
		<path d="M9.9,25.7c1.4,0.8,3.2,1.4,5.6,1.9c2.4,0.5,4.9,0.7,7.7,0.7c0.1,0,0.2,0,0.3,0v-3.1v-2.6c0-1.4,0.6-3.4,3.5-5.1
			c1-0.6,2.1-1,3.4-1.4c-2.2-0.4-4.6-0.6-7.2-0.6c-2.8,0-5.4,0.2-7.7,0.7c-2.4,0.5-4.2,1.1-5.6,1.9c-1.4,0.8-2.1,1.6-2.1,2.6v2.6
			C7.8,24,8.5,24.9,9.9,25.7z"/>
		<path d="M9.9,33.4c1.4,0.8,3.2,1.4,5.6,1.9c2.4,0.5,4.9,0.7,7.7,0.7c0.1,0,0.2,0,0.3,0v-3.1v-2c-0.1,0-0.2,0-0.3,0
			c-3.2,0-6.1-0.3-8.9-0.9c-2.8-0.6-4.9-1.4-6.5-2.5v3.4C7.8,31.7,8.5,32.6,9.9,33.4z"/>
		<path d="M26.4,44.8v1.3v2.1c0,0.2,0,0.5,0.1,0.7c0.1,0.3,0.4,0.7,0.7,1c0.2,0.2,0.5,0.4,0.8,0.6c0.2,0.1,0.3,0.2,0.5,0.3
			c0.1,0.1,0.3,0.1,0.4,0.2c0.4,0.2,0.8,0.4,1.2,0.6v-0.8v-4.2c-0.3-0.1-0.6-0.2-0.9-0.3c-0.3-0.1-0.5-0.2-0.8-0.4
			C27.7,45.6,27,45.2,26.4,44.8z"/>
		<path d="M56,42.5c0.3-0.2,0.5-0.4,0.6-0.6c0.2-0.2,0.3-0.4,0.4-0.7c0.1-0.2,0.1-0.4,0.1-0.7v-3.4c-1.2,0.8-2.7,1.5-4.6,2.1
			c-0.6,0.2-1.3,0.3-2,0.5s-1.4,0.3-2.1,0.4c-0.7,0.1-1.4,0.2-2.2,0.3c-1.5,0.1-3,0.2-4.6,0.2h0c-0.8,0-1.6,0-2.3-0.1
			c-0.6,0-1.2-0.1-1.8-0.1c-1.6-0.1-3.2-0.4-4.7-0.7c-1.4-0.3-2.6-0.6-3.7-1.1c-0.3-0.1-0.5-0.2-0.8-0.4c-0.7-0.3-1.4-0.7-2-1.1v1.3
			v2.1c0,0.2,0,0.5,0.1,0.7c0.1,0.3,0.4,0.7,0.7,1c0.2,0.2,0.5,0.4,0.8,0.6c0.2,0.1,0.3,0.2,0.5,0.3c0.1,0.1,0.3,0.1,0.4,0.2
			c0.5,0.3,1.1,0.5,1.8,0.8c0.6-0.9,1.6-1.5,2.8-1.5L56,42.5C56,42.5,56,42.5,56,42.5z"/>
		<path d="M28,20.3c-0.3,0.2-0.6,0.4-0.8,0.6c-0.3,0.3-0.5,0.6-0.7,1c-0.1,0.2-0.1,0.4-0.1,0.7v2.6c0,0.2,0,0.5,0.1,0.7
			c0.1,0.3,0.4,0.7,0.7,1c0.2,0.2,0.5,0.4,0.8,0.6c0.2,0.1,0.3,0.2,0.5,0.3c0.1,0.1,0.3,0.1,0.4,0.2c1,0.5,2.1,0.9,3.5,1.3
			c0.5,0.1,1,0.2,1.5,0.3c0.1,0,0.1,0,0.2,0c1.2,0.2,2.4,0.4,3.7,0.5c0.3,0,0.6,0,0.8,0.1c1,0.1,2.1,0.1,3.2,0.1c0.7,0,1.4,0,2,0
			c1,0,2-0.1,2.9-0.2c0.9-0.1,1.9-0.2,2.8-0.4c1.5-0.3,2.7-0.6,3.8-1.1c0.7-0.2,1.3-0.5,1.8-0.8c0.2-0.1,0.3-0.2,0.5-0.3
			c0.2-0.1,0.3-0.2,0.4-0.3c0.3-0.2,0.5-0.4,0.6-0.6c0.2-0.2,0.3-0.4,0.4-0.7s0.1-0.4,0.1-0.7v-2.6c0-0.2,0-0.5-0.1-0.7
			s-0.2-0.4-0.4-0.7c-0.2-0.2-0.4-0.4-0.6-0.6c-0.1-0.1-0.3-0.2-0.4-0.3c-0.2-0.1-0.3-0.2-0.5-0.3c-0.5-0.3-1.1-0.6-1.8-0.8
			c-1.1-0.4-2.4-0.8-3.8-1.1c-0.9-0.2-1.8-0.3-2.8-0.4c-0.9-0.1-1.9-0.2-2.9-0.2c-0.7,0-1.4,0-2,0c-1.4,0-2.7,0.1-4,0.2
			c-0.6,0.1-1.1,0.1-1.6,0.2c-0.7,0.1-1.4,0.2-2.1,0.3c-0.6,0.1-1.2,0.2-1.7,0.4c-1.6,0.4-2.9,0.9-3.9,1.5
			C28.3,20.1,28.1,20.2,28,20.3z"/>
		<path d="M28,35.1c0.2,0.1,0.3,0.2,0.5,0.3c0.1,0.1,0.3,0.1,0.4,0.2c1,0.5,2.1,0.9,3.5,1.3c0.5,0.1,1,0.2,1.5,0.3
			c0.1,0,0.1,0,0.2,0c1.2,0.2,2.4,0.4,3.7,0.5c0.3,0,0.6,0,0.8,0.1c1,0.1,2.1,0.1,3.2,0.1c0.7,0,1.4,0,2,0c1,0,2-0.1,2.9-0.2
			c0.9-0.1,1.9-0.2,2.8-0.4c1.5-0.3,2.7-0.6,3.8-1.1c0.7-0.2,1.3-0.5,1.8-0.8c0.2-0.1,0.3-0.2,0.5-0.3c0.2-0.1,0.3-0.2,0.4-0.3
			c0.3-0.2,0.5-0.4,0.6-0.6c0.2-0.2,0.3-0.4,0.4-0.7s0.1-0.4,0.1-0.7v-3.4c-1.2,0.8-2.7,1.5-4.6,2.1c-0.6,0.2-1.3,0.3-2,0.5
			c-0.7,0.1-1.4,0.3-2.1,0.4c-0.7,0.1-1.4,0.2-2.2,0.3c-1.5,0.1-3,0.2-4.6,0.2h0c-0.8,0-1.6,0-2.3-0.1c-0.6,0-1.2-0.1-1.8-0.1
			c-1.6-0.1-3.2-0.4-4.7-0.7c-1.4-0.3-2.6-0.6-3.7-1.1c-0.3-0.1-0.5-0.2-0.8-0.4c-0.7-0.3-1.4-0.7-2-1.1v1.3v2.1
			c0,0.2,0,0.5,0.1,0.7c0.1,0.3,0.4,0.7,0.7,1C27.4,34.7,27.7,34.9,28,35.1z"/>
		<path d="M38.3,56.1c-0.2,0.1-0.4,0.2-0.8,0.2c-0.5,0-0.9-0.1-1.2-0.4c0,0-0.1-0.1-0.1-0.1c-0.3-0.3-0.4-0.8-0.4-1.5h-2.2l0,0
			c0,0.4,0.1,0.8,0.2,1.2c0.2,0.6,0.5,1.2,1,1.6c0.8,0.6,1.7,1,2.8,1c1.1,0,2-0.3,2.6-0.8c0.3-0.3,0.6-0.6,0.7-1
			c0.2-0.4,0.3-0.8,0.3-1.3c0-0.6-0.1-1.1-0.3-1.6c-0.1-0.3-0.3-0.5-0.5-0.7c-0.5-0.6-1.4-1-2.5-1.4c-0.7-0.3-1.2-0.6-1.4-0.8
			c-0.3-0.2-0.4-0.6-0.4-0.9c0-0.2,0-0.3,0.1-0.5c0.1-0.2,0.2-0.4,0.3-0.5c0.3-0.3,0.6-0.4,1-0.4c0,0,0.1,0,0.1,0
			c0.4,0,0.7,0.2,1,0.5c0.3,0.3,0.4,0.8,0.4,1.3h2.2l0,0c0-0.6-0.1-1.1-0.3-1.6c-0.2-0.3-0.4-0.6-0.7-0.9c-0.4-0.4-1-0.7-1.6-0.8
			c-0.3-0.1-0.7-0.1-1.1-0.1c-1.1,0-2,0.3-2.7,0.9c-0.2,0.1-0.3,0.3-0.4,0.5c-0.4,0.5-0.6,1.1-0.6,1.8c0,0.2,0,0.3,0,0.5
			c0.1,0.7,0.4,1.3,0.9,1.8c0.6,0.5,1.5,1,2.7,1.4c0,0,0.1,0,0.1,0c0.5,0.2,0.9,0.5,1.1,0.7c0.2,0.3,0.3,0.6,0.3,1.1
			c0,0.4-0.1,0.8-0.3,1C38.5,56,38.4,56.1,38.3,56.1z"/>
		<path d="M49.7,55.4c0.2-0.5,0.2-1,0.2-1.6v-1.2v-2c0-1.2-0.3-2.2-0.9-2.9c-0.1-0.1-0.1-0.2-0.2-0.2c-0.7-0.8-1.7-1.1-2.9-1.1
			c-1.2,0-2.2,0.4-2.9,1.1c-0.2,0.2-0.4,0.5-0.5,0.8c-0.4,0.7-0.5,1.4-0.5,2.4v2.8v0.5c0,1,0.2,1.8,0.6,2.5c0.1,0.3,0.3,0.5,0.5,0.7
			c0.7,0.8,1.7,1.1,2.9,1.1c0.3,0,0.6,0,0.9-0.1c0.3-0.1,0.6-0.1,0.8-0.2l1.8,2l1.4-1.2L49,56.7c0.2-0.3,0.4-0.7,0.6-1.1
			C49.6,55.5,49.6,55.5,49.7,55.4z M45.9,56.3c-0.3,0-0.5-0.1-0.7-0.1c-0.2-0.1-0.4-0.3-0.6-0.5c-0.3-0.4-0.4-1-0.4-1.9v-0.5v-2.7
			c0-0.8,0.1-1.4,0.4-1.9c0.3-0.4,0.7-0.6,1.3-0.6c0.6,0,1,0.2,1.3,0.6c0.3,0.4,0.5,1,0.5,1.9v2.4v0.8c0,0.8-0.2,1.5-0.5,1.9
			c-0.1,0.1-0.2,0.2-0.3,0.3C46.6,56.2,46.3,56.3,45.9,56.3z"/>
		<polygon points="57.8,56.1 53.6,56.1 53.6,54.6 53.6,51.5 53.6,46.5 53.6,46.4 51.4,46.4 51.4,47.1 51.4,52.2 51.4,55.2 
			51.4,57.9 57.8,57.9 		"/>
	</g>
</g>
</svg>
