<?xml version="1.0" encoding="utf-8"?>
<!-- Generator: Adobe Illustrator 19.2.0, SVG Export Plug-In . SVG Version: 6.00 Build 0)  -->
<svg version="1.1" xmlns="http://www.w3.org/2000/svg" xmlns:xlink="http://www.w3.org/1999/xlink" x="0px" y="0px"
	 viewBox="0 0 64 64" style="enable-background:new 0 0 64 64;" xml:space="preserve">
<style type="text/css">
	.st0{display:none;}
	.st1{display:inline;}
</style>
<g id="Layer_1">
	<g class="st0">
		<rect class="st1" width="64" height="64"/>
	</g>
</g>
<g id="Layer_2">
	<g>
		<path d="M13.8,42.5c1.9,1.1,4.4,1.9,7.7,2.6C24.7,45.7,28.2,46,32,46c1.4,0,2.7-0.1,4-0.1l-3.5-3.5c-0.9-0.9-1.3-2.2-1.1-3.4
			c-4.1,0-8-0.4-11.6-1.2c-3.8-0.8-6.7-1.9-8.9-3.5V39C10.9,40.3,11.9,41.5,13.8,42.5z"/>
		<path d="M13.8,32c1.9,1.1,4.4,1.9,7.7,2.6c3.2,0.6,6.8,0.9,10.6,0.9c2.1,0,4.2-0.1,6.2-0.3v-5.8c0-0.4,0.1-0.8,0.2-1.2
			c-2,0.2-4.2,0.3-6.4,0.3c-4.3,0-8.4-0.4-12.1-1.2c-3.8-0.8-6.7-1.9-8.9-3.5v4.7C10.9,29.8,11.9,30.9,13.8,32z"/>
		<path d="M53.1,25.5v-1.6c-0.8,0.6-1.7,1.1-2.8,1.6h2C52.6,25.4,52.8,25.4,53.1,25.5z"/>
		<path d="M13.8,53.1c1.9,1.1,4.4,1.9,7.7,2.6c3,0.6,6.3,0.9,9.9,0.9v-3.4c0-1.6,1-3,2.4-3.6c-0.6,0-1.1,0-1.7,0
			c-4.3,0-8.4-0.4-12.1-1.2c-3.8-0.8-6.7-1.9-8.9-3.5v4.7C10.9,50.8,11.9,52,13.8,53.1z"/>
		<path d="M13.8,21.5c1.9,1.1,4.4,1.9,7.7,2.6C24.7,24.7,28.2,25,32,25c3.8,0,7.3-0.3,10.6-0.9c3.2-0.6,5.8-1.5,7.7-2.6
			c1.9-1.1,2.8-2.2,2.8-3.5v-3.5c0-1.3-0.9-2.4-2.8-3.5c-1.9-1.1-4.4-1.9-7.7-2.6C39.3,7.7,35.8,7.4,32,7.4c-3.8,0-7.3,0.3-10.6,0.9
			c-3.2,0.6-5.8,1.5-7.7,2.6c-1.9,1.1-2.8,2.2-2.8,3.5V18C10.9,19.2,11.9,20.4,13.8,21.5z"/>
		<path d="M39.2,49.1h0.1l0,0C39.2,49.1,39.2,49.1,39.2,49.1z"/>
		<polygon points="53,39.6 52.3,39.6 52.3,34.8 52.3,30.4 52.3,29.4 42.2,29.4 42.2,34.6 42.2,38.2 42.2,39.6 35.4,39.6 41.1,45.3 
			44.2,48.4 47.3,51.5 53.1,45.6 59.1,39.6 		"/>
		<polygon points="59.1,53.1 50.1,53.1 35.3,53.1 35.3,56.5 35.3,56.6 59.1,56.6 		"/>
	</g>
</g>
</svg>
