<?xml version="1.0" encoding="utf-8"?>
<!-- Generator: Adobe Illustrator 19.2.0, SVG Export Plug-In . SVG Version: 6.00 Build 0)  -->
<svg version="1.1" xmlns="http://www.w3.org/2000/svg" xmlns:xlink="http://www.w3.org/1999/xlink" x="0px" y="0px"
	 viewBox="0 0 64 64" style="enable-background:new 0 0 64 64;" xml:space="preserve">
<style type="text/css">
	.st0{display:none;}
	.st1{display:inline;}
</style>
<g id="Layer_1">
	<g class="st0">
		<rect class="st1" width="64" height="64"/>
	</g>
</g>
<g id="Layer_2">
	<g>
		<path d="M47.2,51.7c1.2,0,2.3-0.4,3.1-1.3c0.8-0.8,1.3-1.9,1.3-3.1V16.9c0-1.2-0.4-2.3-1.3-3.1c-0.8-0.8-1.9-1.3-3.1-1.3h-9.1
			c-0.5-1.3-1.3-2.3-2.4-3.2c-1.1-0.8-2.4-1.2-3.7-1.2c-1.4,0-2.6,0.4-3.7,1.2c-1.1,0.8-1.9,1.9-2.4,3.2h-9.1
			c-1.2,0-2.3,0.4-3.1,1.3c-0.8,0.8-1.3,1.9-1.3,3.1v30.4c0,1.2,0.4,2.3,1.3,3.1c0.8,0.8,1.9,1.3,3.1,1.3H47.2z M30.5,13.2
			c0.4-0.4,0.9-0.7,1.5-0.7s1.1,0.2,1.5,0.7c0.4,0.4,0.6,1,0.6,1.5c0,0.6-0.2,1.1-0.6,1.5c-0.4,0.4-0.9,0.7-1.5,0.7
			s-1.1-0.2-1.5-0.7c-0.4-0.4-0.6-1-0.6-1.5C29.9,14.2,30.1,13.7,30.5,13.2z M27.4,23.2c1.3-1.3,2.8-1.9,4.6-1.9s3.4,0.6,4.6,1.9
			c1.3,1.3,1.9,2.8,1.9,4.6c0,1.8-0.6,3.3-1.9,4.6c-1.3,1.3-2.8,1.9-4.6,1.9s-3.4-0.6-4.6-1.9c-1.3-1.3-1.9-2.8-1.9-4.6
			C25.5,26,26.1,24.5,27.4,23.2z M19,44.3c0-1.3,0.8-2.5,2.4-3.6c1.6-1.1,3.4-1.9,5.3-2.4c2-0.5,3.7-0.8,5.3-0.8
			c1.6,0,3.3,0.3,5.3,0.8c2,0.5,3.8,1.3,5.3,2.4c1.6,1.1,2.4,2.3,2.4,3.6v3.1H19V44.3z"/>
	</g>
</g>
</svg>
