<?xml version="1.0" encoding="utf-8"?>
<!-- Generator: Adobe Illustrator 19.2.0, SVG Export Plug-In . SVG Version: 6.00 Build 0)  -->
<svg version="1.1" xmlns="http://www.w3.org/2000/svg" xmlns:xlink="http://www.w3.org/1999/xlink" x="0px" y="0px"
	 viewBox="0 0 64 64" style="enable-background:new 0 0 64 64;" xml:space="preserve">
<style type="text/css">
	.st0{display:none;}
	.st1{display:inline;}
</style>
<g id="Layer_1">
	<g class="st0">
		<rect class="st1" width="64" height="64"/>
	</g>
</g>
<g id="Layer_2">
	<g>
		<rect x="16.5" y="40.8" width="4.3" height="18.4"/>
		<polygon points="22.1,60.8 25.1,60.8 31.4,40.8 28.4,40.8 		"/>
		<path d="M40.4,40.6c-2.3,0-4.2,0.7-5.7,2.2c-1.4,1.5-2.2,3.3-2.2,5.6v3.3c0,2.3,0.7,4.1,2.2,5.6s3.3,2.2,5.7,2.2
			c2.3,0,4.2-0.7,5.6-2.2c1.4-1.5,2.2-3.3,2.2-5.6v-3.3c0-2.3-0.7-4.1-2.2-5.6C44.6,41.3,42.7,40.6,40.4,40.6z M44,51.7
			c0,1.3-0.3,2.4-0.9,3.3c-0.6,0.8-1.5,1.3-2.6,1.3c-1.2,0-2-0.4-2.7-1.3c-0.6-0.8-0.9-1.9-0.9-3.3v-3.3c0-1.3,0.3-2.4,0.9-3.2
			c0.6-0.8,1.5-1.3,2.7-1.3c1.1,0,2,0.4,2.6,1.3C43.7,46,44,47,44,48.4V51.7z"/>
		<path d="M47.9,7.6l-1.8-1.3h-2.2h-25h-2.5l-2,1.6l-9.1,7.2l-2.8,2.2v3.4v7.8v7.2h7.2h44.6h7.2v-7.2v-7.8v-3.8l-3-2.1L47.9,7.6z
			 M42.3,29.3H9v-7.4h33.3V29.3z M51.5,29.3c-2.1,0-3.8-1.7-3.8-3.8c0-2.1,1.7-3.8,3.8-3.8c2.1,0,3.8,1.7,3.8,3.8
			C55.3,27.7,53.6,29.3,51.5,29.3z"/>
	</g>
</g>
</svg>
