<?xml version="1.0" encoding="utf-8"?>
<!-- Generator: Adobe Illustrator 19.2.0, SVG Export Plug-In . SVG Version: 6.00 Build 0)  -->
<svg version="1.1" xmlns="http://www.w3.org/2000/svg" xmlns:xlink="http://www.w3.org/1999/xlink" x="0px" y="0px"
	 viewBox="0 0 64 64" style="enable-background:new 0 0 64 64;" xml:space="preserve">
<style type="text/css">
	.st0{display:none;}
	.st1{display:inline;}
</style>
<g id="Layer_1">
	<g class="st0">
		<rect class="st1" width="64" height="64"/>
	</g>
</g>
<g id="Layer_2">
	<g>
		<path d="M19,53.8l3.3-3.3l3.3,3.3l3.3-3.3l3.3,3.3l3.3-3.3l3.3,3.3l3.3-3.3l3.3,3.3l3.3-3.3l3.3,3.3V10.4l-3.3,3.3L45,10.4
			l-3.3,3.3l-3.3-3.3l-3.3,3.3L32,10.4l-3.3,3.3l-3.3-3.3l-3.3,3.3L19,10.4l-3.3,3.3l-3.3-3.3v43.4l3.3-3.3L19,53.8z M19,21.2H45
			v4.4H19V21.2z M19,30H45v4.3H19V30z M19,38.7H45V43H19V38.7z"/>
	</g>
</g>
</svg>
