<?xml version="1.0" encoding="utf-8"?>
<!-- Generator: Adobe Illustrator 19.2.0, SVG Export Plug-In . SVG Version: 6.00 Build 0)  -->
<svg version="1.1" xmlns="http://www.w3.org/2000/svg" xmlns:xlink="http://www.w3.org/1999/xlink" x="0px" y="0px"
	 viewBox="0 0 64 64" style="enable-background:new 0 0 64 64;" xml:space="preserve">
<style type="text/css">
	.st0{display:none;}
	.st1{display:inline;}
</style>
<g id="Layer_1">
	<g class="st0">
		<rect class="st1" width="64" height="64"/>
	</g>
</g>
<g id="Layer_2">
	<g>
		<path d="M32.1,47.6v-7.7L21.7,50.1l10.4,10.4v-7.7c5.6,0,10.4-2,14.5-6c4-4,6-8.9,6-14.6c0-3.9-1-7.6-3.1-11l-3.7,3.7
			c1.2,2.3,1.8,4.7,1.8,7.2C47.5,36.4,46,40,43,43C40,46.1,36.3,47.6,32.1,47.6z"/>
		<path d="M32.1,11.5c-5.7,0-10.6,2-14.6,6c-4,4-6,8.9-6,14.6c0,3.9,1,7.6,3.1,11l3.9-3.7c-1.2-2.2-1.8-4.7-1.8-7.2
			c0-4.3,1.5-7.9,4.5-10.9c3-3,6.6-4.5,10.9-4.5v7.7l10.2-10.2L32.1,3.8V11.5z"/>
	</g>
</g>
</svg>
