<?xml version="1.0" encoding="utf-8"?>
<!-- Generator: Adobe Illustrator 19.2.0, SVG Export Plug-In . SVG Version: 6.00 Build 0)  -->
<svg version="1.1" xmlns="http://www.w3.org/2000/svg" xmlns:xlink="http://www.w3.org/1999/xlink" x="0px" y="0px"
	 viewBox="0 0 64 64" style="enable-background:new 0 0 64 64;" xml:space="preserve">
<style type="text/css">
	.st0{display:none;}
	.st1{display:inline;}
</style>
<g id="Layer_1">
	<g class="st0">
		<rect class="st1" width="64" height="64"/>
	</g>
</g>
<g id="Layer_2">
	<g>
		<path d="M10.2,49.6c0,1.2,0.4,2.2,1.3,3c0.8,0.8,1.9,1.3,3.1,1.3H45v-4.3H14.6V19.1h-4.4V49.6z"/>
		<path d="M53.8,14.7c0-1.2-0.4-2.2-1.3-3c-0.8-0.8-1.9-1.3-3.1-1.3H23.3c-1.2,0-2.3,0.4-3.1,1.3c-0.8,0.9-1.3,1.9-1.3,3v26.1
			c0,1.2,0.4,2.3,1.3,3.1c0.8,0.8,1.9,1.3,3.1,1.3h26.1c1.2,0,2.3-0.4,3.1-1.3c0.8-0.8,1.3-1.9,1.3-3.1V14.7z M38.5,38.7h-13v-4.4
			h13V38.7z M47.2,30H25.4v-4.4h21.8V30z M47.2,21.2H25.4v-4.3h21.8V21.2z"/>
	</g>
</g>
</svg>
