<?xml version="1.0" encoding="utf-8"?>
<!-- Generator: Adobe Illustrator 19.2.0, SVG Export Plug-In . SVG Version: 6.00 Build 0)  -->
<svg version="1.1" xmlns="http://www.w3.org/2000/svg" xmlns:xlink="http://www.w3.org/1999/xlink" x="0px" y="0px"
	 viewBox="0 0 64 64" style="enable-background:new 0 0 64 64;" xml:space="preserve">
<style type="text/css">
	.st0{display:none;}
	.st1{display:inline;}
</style>
<g id="Layer_1">
	<g class="st0">
		<rect class="st1" width="64" height="64"/>
	</g>
</g>
<g id="Layer_2">
	<g>
		<path d="M12.8,50.1c5,5,11.1,7.5,18.2,7.5c7.1,0,13.1-2.5,18.2-7.5c5-5,7.5-11,7.5-18.1c0-7.1-2.5-13.1-7.5-18.1
			c-5-5-11.1-7.5-18.2-7.5c-7.1,0-13.2,2.5-18.2,7.5c-5,5-7.5,11-7.5,18.1C5.3,39.1,7.8,45.1,12.8,50.1z M16.5,17.4
			c4-4,8.8-6,14.5-6c5.7,0,10.5,2,14.5,6c4,4,6,8.9,6,14.6c0,5.7-2,10.5-6,14.6c-4,4-8.8,6-14.5,6c-5.7,0-10.5-2-14.5-6
			c-4-4-6-8.9-6-14.6C10.5,26.3,12.5,21.5,16.5,17.4z"/>
		<polygon points="33.5,15.2 28.5,15.2 28.5,30.5 19.7,30.5 19.7,35.5 33.5,35.5 		"/>
	</g>
</g>
</svg>
