<?xml version="1.0" encoding="utf-8"?>
<!-- Generator: Adobe Illustrator 19.2.0, SVG Export Plug-In . SVG Version: 6.00 Build 0)  -->
<svg version="1.1" xmlns="http://www.w3.org/2000/svg" xmlns:xlink="http://www.w3.org/1999/xlink" x="0px" y="0px"
	 viewBox="0 0 64 64" style="enable-background:new 0 0 64 64;" xml:space="preserve">
<style type="text/css">
	.st0{display:none;}
	.st1{display:inline;}
</style>
<g id="Layer_1">
	<g class="st0">
		<rect class="st1" width="64" height="64"/>
	</g>
</g>
<g id="Layer_2">
	<g>
		<path d="M21.4,45.1c2.3,0.4,4.7,0.7,7.3,0.9c0.3-2.5,1.1-4.9,2.4-6.9c-4-0.1-7.7-0.4-11.2-1.2c-3.8-0.8-6.7-1.9-8.9-3.5V39
			c0,1.3,0.9,2.4,2.8,3.5C15.6,43.6,18.2,44.5,21.4,45.1z"/>
		<path d="M34.1,35.5c2.9-2.6,6.7-4.2,10.9-4.2c1.8,0,3.5,0.3,5.1,0.8c0,0,0.1,0,0.1-0.1c1.9-1.1,2.8-2.2,2.8-3.5v-4.7
			c-2.2,1.5-5.1,2.7-8.9,3.5c-3.8,0.8-7.8,1.2-12.1,1.2c-4.3,0-8.4-0.4-12.1-1.2c-3.8-0.8-6.7-1.9-8.9-3.5v4.7
			c0,1.3,0.9,2.4,2.8,3.5c1.9,1.1,4.4,1.9,7.7,2.6c3.2,0.6,6.8,0.9,10.6,0.9C32.7,35.5,33.4,35.5,34.1,35.5z"/>
		<path d="M10.9,49.6c0,1.3,0.9,2.4,2.8,3.5c1.9,1.1,4.4,1.9,7.7,2.6c3,0.6,6.3,0.9,9.8,0.9c-1.4-2.1-2.3-4.5-2.5-7.1
			c-3.1-0.1-6.1-0.5-8.9-1.1c-3.8-0.8-6.7-1.9-8.9-3.5V49.6z"/>
		<path d="M50.2,10.9c-1.9-1.1-4.4-1.9-7.7-2.6C39.3,7.7,35.8,7.4,32,7.4c-3.8,0-7.3,0.3-10.6,0.9c-3.2,0.6-5.8,1.5-7.7,2.6
			c-1.9,1.1-2.8,2.2-2.8,3.5V18c0,1.3,0.9,2.4,2.8,3.5c1.9,1.1,4.4,1.9,7.7,2.6C24.7,24.7,28.2,25,32,25c3.8,0,7.3-0.3,10.6-0.9
			c3.2-0.6,5.8-1.5,7.7-2.6c1.9-1.1,2.8-2.2,2.8-3.5v-3.5C53.1,13.2,52.1,12,50.2,10.9z"/>
		<polygon points="41.7,58.4 48.3,58.4 48.3,54 48.3,50.9 52.7,50.9 55.8,50.9 55.8,44.4 48.3,44.4 48.3,43.5 48.3,36.9 47.9,36.9 
			41.7,36.9 41.7,38.3 41.7,44.4 34.2,44.4 34.2,46 34.2,49.5 34.2,50.9 41.7,50.9 41.7,55.8 		"/>
	</g>
</g>
</svg>
