<?xml version="1.0" encoding="utf-8"?>
<!-- Generator: Adobe Illustrator 19.2.0, SVG Export Plug-In . SVG Version: 6.00 Build 0)  -->
<svg version="1.1" xmlns="http://www.w3.org/2000/svg" xmlns:xlink="http://www.w3.org/1999/xlink" x="0px" y="0px"
	 viewBox="0 0 64 64" style="enable-background:new 0 0 64 64;" xml:space="preserve">
<style type="text/css">
	.st0{display:none;}
	.st1{display:inline;}
</style>
<g id="Layer_1">
	<g class="st0">
		<rect class="st1" width="64" height="64"/>
	</g>
</g>
<g id="Layer_2">
	<g>
		<path d="M52,14.3C47.1,9.5,41.2,7,34.2,7c-7,0-12.9,2.4-17.8,7.3C11.5,19.2,9,25.2,9,32.2H0.6L11.5,43l0.1,0.4l11.4-11.3h-8.4
			c0-5.4,1.9-10,5.7-13.8c3.8-3.8,8.4-5.7,13.8-5.7c5.4,0,10,1.9,13.8,5.7c3.8,3.8,5.7,8.4,5.7,13.8c0,5.4-1.9,10-5.7,13.8
			c-3.8,3.8-8.4,5.7-13.8,5.7c-5.4,0-10-1.9-13.8-5.8L16.4,50c5,4.9,10.9,7.3,17.8,7.3c7,0,12.9-2.4,17.8-7.3
			c4.9-4.9,7.3-10.8,7.3-17.8C59.4,25.2,56.9,19.2,52,14.3z"/>
		<polygon points="31.4,21 31.4,34.9 43.4,42.1 45.3,38.7 35.6,32.8 35.6,21 		"/>
	</g>
</g>
</svg>
