<?xml version="1.0" encoding="utf-8"?>
<!-- Generator: Adobe Illustrator 19.2.0, SVG Export Plug-In . SVG Version: 6.00 Build 0)  -->
<svg version="1.1" xmlns="http://www.w3.org/2000/svg" xmlns:xlink="http://www.w3.org/1999/xlink" x="0px" y="0px"
	 viewBox="0 0 64 64" style="enable-background:new 0 0 64 64;" xml:space="preserve">
<style type="text/css">
	.st0{display:none;}
	.st1{display:inline;}
</style>
<g id="Layer_1">
	<g class="st0">
		<rect class="st1" width="64" height="64"/>
	</g>
</g>
<g id="Layer_2">
	<g>
		<path d="M49.4,16.9H14.6c-1.2,0-2.3,0.4-3.1,1.3c-0.8,0.9-1.3,1.9-1.3,3V43c0,1.2,0.4,2.2,1.3,3c0.8,0.9,1.9,1.3,3.1,1.3h34.7
			c1.2,0,2.3-0.4,3.1-1.3c0.8-0.8,1.3-1.8,1.3-3V21.2c0-1.2-0.4-2.2-1.3-3C51.6,17.4,50.6,16.9,49.4,16.9z M29.8,23.5h4.4v4.3h-4.4
			V23.5z M29.8,30h4.4v4.3h-4.4V30z M23.3,23.5h4.4v4.3h-4.4V23.5z M23.3,30h4.4v4.3h-4.4V30z M21.1,34.3h-4.4V30h4.4V34.3z
			 M21.1,27.7h-4.4v-4.3h4.4V27.7z M40.7,43H23.3v-4.4h17.4V43z M40.7,34.3h-4.4V30h4.4V34.3z M40.7,27.7h-4.4v-4.3h4.4V27.7z
			 M47.2,34.3h-4.4V30h4.4V34.3z M47.2,27.7h-4.4v-4.3h4.4V27.7z"/>
	</g>
</g>
</svg>
