<?xml version="1.0" encoding="utf-8"?>
<!-- Generator: Adobe Illustrator 19.2.0, SVG Export Plug-In . SVG Version: 6.00 Build 0)  -->
<svg version="1.1" xmlns="http://www.w3.org/2000/svg" xmlns:xlink="http://www.w3.org/1999/xlink" x="0px" y="0px"
	 viewBox="0 0 64 64" style="enable-background:new 0 0 64 64;" xml:space="preserve">
<style type="text/css">
	.st0{display:none;}
	.st1{display:inline;}
</style>
<g id="Layer_1">
	<g class="st0">
		<rect class="st1" width="64" height="64"/>
	</g>
</g>
<g id="Layer_2">
	<g>
		<path d="M12.5,51.7v-4.4H8.1c0,1.2,0.4,2.3,1.3,3.1C10.2,51.3,11.3,51.7,12.5,51.7z"/>
		<rect x="42.9" y="47.3" width="4.4" height="4.4"/>
		<path d="M51.6,51.7c1.2,0,2.2-0.4,3-1.3c0.8-0.8,1.3-1.9,1.3-3.1h-4.3V51.7z"/>
		<rect x="34.2" y="47.3" width="4.4" height="4.4"/>
		<rect x="51.6" y="30" width="4.3" height="4.3"/>
		<rect x="8.1" y="21.2" width="4.4" height="4.4"/>
		<rect x="8.1" y="30" width="4.4" height="4.3"/>
		<rect x="8.1" y="38.7" width="4.4" height="4.4"/>
		<path d="M12.5,12.6c-1.2,0-2.3,0.4-3.1,1.3c-0.8,0.8-1.3,1.9-1.3,3.1h4.4V12.6z"/>
		<path d="M51.6,12.6H34.2v13h21.7v-8.7c0-1.2-0.4-2.3-1.3-3.1C53.8,13,52.8,12.6,51.6,12.6z"/>
		<rect x="51.6" y="38.7" width="4.3" height="4.4"/>
		<rect x="25.5" y="47.3" width="4.3" height="4.4"/>
		<rect x="16.8" y="12.6" width="4.4" height="4.4"/>
		<rect x="16.8" y="47.3" width="4.4" height="4.4"/>
		<rect x="25.5" y="12.6" width="4.3" height="4.4"/>
	</g>
</g>
</svg>
