<?xml version="1.0" encoding="utf-8"?>
<!-- Generator: Adobe Illustrator 19.2.0, SVG Export Plug-In . SVG Version: 6.00 Build 0)  -->
<svg version="1.1" xmlns="http://www.w3.org/2000/svg" xmlns:xlink="http://www.w3.org/1999/xlink" x="0px" y="0px"
	 viewBox="0 0 64 64" style="enable-background:new 0 0 64 64;" xml:space="preserve">
<style type="text/css">
	.st0{display:none;}
	.st1{display:inline;}
</style>
<g id="Layer_1">
	<g class="st0">
		<rect class="st1" width="64" height="64"/>
	</g>
</g>
<g id="Layer_2">
	<g>
		<path d="M45.3,44.3c-0.3,0-0.6,0.1-0.9,0.4C44.1,45,44,45.2,44,45.6c0,0.4,0.1,0.6,0.4,0.9c0.1,0.1,0.2,0.2,0.3,0.2
			c0.6-0.2,1.2-0.5,1.8-0.8c0-0.1,0-0.2,0-0.4c0-0.4-0.1-0.6-0.4-0.9C45.8,44.4,45.6,44.3,45.3,44.3z"/>
		<path d="M10.8,35c1.9,1.1,4.4,1.9,7.7,2.6c2.8,0.5,5.8,0.8,8.9,0.9l2.9-5.1l0.3-0.5l0.8-1.5c-0.8,0-1.6,0.1-2.5,0.1
			c-4.3,0-8.4-0.4-12.1-1.2c-3.8-0.8-6.7-1.9-8.9-3.5v4.7C7.9,32.8,8.9,33.9,10.8,35z"/>
		<path d="M10.8,45.5c1.9,1.1,4.4,1.9,7.7,2.6c2.1,0.4,4.4,0.7,6.8,0.8l2.7-2.1l1.6-1.2L28,44.4l-2.8-2.1l0.2-0.3
			c-3-0.2-5.8-0.5-8.5-1.1c-3.8-0.8-6.7-1.9-8.9-3.5V42C7.9,43.3,8.9,44.5,10.8,45.5z"/>
		<path d="M37.5,30.9c-0.7,0.1-1.3,0.2-2,0.2l0,0l1.8,0.7L37.5,30.9z"/>
		<path d="M10.8,56.1c1.9,1.1,4.4,1.9,7.7,2.6c3.2,0.6,6.8,0.9,10.6,0.9c0.8,0,1.6,0,2.4,0l-0.7-1.3l-0.3-0.5l-3-5.2
			c-3.7-0.1-7.2-0.5-10.4-1.1c-3.8-0.8-6.7-1.9-8.9-3.5v4.7C7.9,53.8,8.9,55,10.8,56.1z"/>
		<path d="M10.8,24.5c1.9,1.1,4.4,1.9,7.7,2.6C21.7,27.7,25.2,28,29,28c3.2,0,6.2-0.2,9.1-0.7l0.1-0.7h3.5h0
			c2.3-0.6,4.1-1.3,5.6-2.1c1.9-1.1,2.8-2.2,2.8-3.5v-3.5c0-1.3-0.9-2.4-2.8-3.5c-1.9-1.1-4.4-1.9-7.7-2.6
			c-3.2-0.6-6.8-0.9-10.6-0.9c-3.8,0-7.3,0.3-10.6,0.9c-3.2,0.6-5.8,1.5-7.7,2.6c-1.9,1.1-2.8,2.2-2.8,3.5V21
			C7.9,22.2,8.9,23.4,10.8,24.5z"/>
		<path d="M49.4,33.3L49,30.6h-7.3L41,35.2c-0.8,0.4-1.7,0.9-2.5,1.5l-4.3-1.7l-0.3,0.5l-1.7,3l-1.3,2.2l-0.3,0.6l1,0.8l2.7,2.1
			c0,0.6-0.1,1.1-0.1,1.5c0,0.4,0,0.9,0.1,1.5L31.6,49l-1.2,1l0.3,0.6l1.2,2l1.9,3.2l0.3,0.5l4.3-1.7c0.8,0.6,1.6,1.1,2.5,1.5
			l0.3,2.3l0.3,2.3c0,0,0.3,0,0.7,0h6c0.5,0,0.7,0,0.7,0l0.7-4.6c0.8-0.4,1.7-0.9,2.5-1.5l4.3,1.7l0.3-0.5l3-5.2l0.3-0.6L56.5,47
			c0.1-0.6,0.1-1.1,0.1-1.5c0-0.4,0-0.9-0.1-1.5l3.7-2.9l-3.7-6.3l-4.3,1.7c-0.8-0.6-1.6-1.1-2.5-1.5L49.4,33.3z M50,48
			c-0.2,0.5-0.6,0.9-1,1.3c-1,1-2.3,1.5-3.7,1.5c-0.5,0-0.9-0.1-1.3-0.2c-0.9-0.2-1.7-0.7-2.4-1.4c-0.4-0.4-0.8-0.9-1-1.4
			c-0.3-0.7-0.5-1.5-0.5-2.3c0-1.5,0.5-2.7,1.5-3.7c1-1,2.3-1.5,3.7-1.5c1.4,0,2.7,0.5,3.7,1.5c0.4,0.4,0.6,0.8,0.9,1.2
			c0.4,0.8,0.7,1.6,0.7,2.6C50.5,46.4,50.3,47.2,50,48z"/>
	</g>
</g>
</svg>
