<?xml version="1.0" encoding="utf-8"?>
<!-- Generator: Adobe Illustrator 19.2.0, SVG Export Plug-In . SVG Version: 6.00 Build 0)  -->
<svg version="1.1" xmlns="http://www.w3.org/2000/svg" xmlns:xlink="http://www.w3.org/1999/xlink" x="0px" y="0px"
	 viewBox="0 0 64 64" style="enable-background:new 0 0 64 64;" xml:space="preserve">
<style type="text/css">
	.st0{display:none;}
	.st1{display:inline;}
</style>
<g id="Layer_1">
	<g class="st0">
		<rect class="st1" width="64" height="64"/>
	</g>
</g>
<g id="Layer_2">
	<g>
		<path d="M31,57.6c0.8,0,1.6,0,2.3-0.1v-3.4c0-0.6,0.2-1.2,0.4-1.8c-0.9,0.1-1.8,0.2-2.7,0.2c-5.7,0-10.5-2-14.5-6
			c-4-4-6-8.9-6-14.6c0-5.7,2-10.5,6-14.6c4-4,8.8-6,14.5-6c5.7,0,10.5,2,14.5,6c2.6,2.6,4.4,5.6,5.3,8.9h3.5c0.7,0,1.3,0.2,1.9,0.5
			c-0.9-4.9-3.3-9.2-7-13c-5-5-11.1-7.5-18.2-7.5c-7.1,0-13.2,2.5-18.2,7.5c-5,5-7.5,11-7.5,18.1c0,7.1,2.5,13.1,7.5,18.1
			C17.8,55.1,23.9,57.6,31,57.6z"/>
		<path d="M40.7,50.1h0.5l-0.2-0.2C41,50,40.9,50.1,40.7,50.1z"/>
		<polygon points="28.5,30.5 19.7,30.5 19.7,35.5 33.5,35.5 33.5,15.2 28.5,15.2 		"/>
		<polygon points="54.3,40.6 54.3,30.4 51.4,30.4 44.2,30.4 44.2,40.6 37.4,40.6 44.4,47.6 44.4,47.6 48,51.2 49.3,52.5 61.1,40.6 
			55.3,40.6 		"/>
		<polygon points="37.3,54.1 37.3,54.1 37.3,56.9 37.3,56.9 37.3,57.6 61.1,57.6 61.1,54.1 44,54.1 		"/>
	</g>
</g>
</svg>
