<?xml version="1.0" encoding="utf-8"?>
<!-- Generator: Adobe Illustrator 19.2.0, SVG Export Plug-In . SVG Version: 6.00 Build 0)  -->
<svg version="1.1" xmlns="http://www.w3.org/2000/svg" xmlns:xlink="http://www.w3.org/1999/xlink" x="0px" y="0px"
	 viewBox="0 0 64 64" style="enable-background:new 0 0 64 64;" xml:space="preserve">
<style type="text/css">
	.st0{display:none;}
	.st1{display:inline;}
</style>
<g id="Layer_1">
	<g class="st0">
		<rect class="st1" width="64" height="64"/>
	</g>
</g>
<g id="Layer_2">
	<g>
		<rect x="22.3" y="20.1" transform="matrix(0.5242 -0.8516 0.8516 0.5242 -7.0318 31.5906)" width="5" height="4"/>
		<rect x="27.4" y="23.2" transform="matrix(0.5242 -0.8516 0.8516 0.5242 -7.2788 37.4377)" width="5" height="4"/>
		<path d="M48.4,31.8c-0.2-1.1-0.7-2.1-1.3-2.9l3.8-7.6c0.1,0,0.2,0,0.3,0c3.6,0,6.6-3,6.6-6.6s-3-6.6-6.6-6.6
			c-2.8,0-5.1,1.7-6.1,4.1H18.9c-1-2.4-3.3-4.1-6.1-4.1c-3.6,0-6.6,3-6.6,6.6s3,6.6,6.6,6.6c0.2,0,0.4,0,0.6,0l14,25.9
			c-0.9,1.1-1.4,2.5-1.4,4.1c0,3.6,3,6.6,6.6,6.6c1.1,0,2.1-0.3,3-0.7c2.8,3,6.7,4.9,11.2,4.9c8.4,0,15.1-6.8,15.1-15.1
			C61.9,39.1,56,32.6,48.4,31.8z M19.2,21.6l0.8,0.5l2.6-4.3l-1-0.6h23.4c0.3,0.7,0.7,1.4,1.3,2l-3.6,7.2c-0.3,0-0.5-0.1-0.8-0.1
			c-1.7,0-3.2,0.6-4.3,1.6l0.5-0.7l-3.4-2.1L32,29.5l3.4,2.1l0.1-0.2c-0.1,0.5-0.2,1.1-0.2,1.7c0,1.1,0.3,2.2,0.8,3.2
			c-2.3,2.3-3.8,5.2-4.3,8.5c0,0,0,0-0.1,0L19.2,21.6z M46.8,58.9c-3.5,0-6.6-1.5-8.8-3.8c-2-2.1-3.2-5-3.2-8.1
			c0-0.6,0.1-1.2,0.2-1.8c0.4-2.5,1.6-4.8,3.3-6.6c1.8-1.9,4.3-3.1,7-3.5v3.7v9.1l11.1,6.4C54.1,57,50.6,58.9,46.8,58.9z M57.8,51.6
			L48.2,46V35c5.9,0.7,10.6,5.8,10.6,11.9C58.8,48.6,58.4,50.1,57.8,51.6z"/>
	</g>
</g>
</svg>
