<?xml version="1.0" encoding="utf-8"?>
<!-- Generator: Adobe Illustrator 19.2.0, SVG Export Plug-In . SVG Version: 6.00 Build 0)  -->
<svg version="1.1" xmlns="http://www.w3.org/2000/svg" xmlns:xlink="http://www.w3.org/1999/xlink" x="0px" y="0px"
	 viewBox="0 0 64 64" style="enable-background:new 0 0 64 64;" xml:space="preserve">
<style type="text/css">
	.st0{display:none;}
	.st1{display:inline;}
</style>
<g id="Layer_1">
	<g class="st0">
		<rect class="st1" width="64" height="64"/>
	</g>
	<g class="st0">
		<rect class="st1" width="64" height="64"/>
	</g>
</g>
<g id="Layer_2">
	<g>
		<path d="M49.4,30h-3.3v-8.8c0-1.2-0.4-2.2-1.3-3c-0.8-0.8-1.9-1.3-3.1-1.3h-8.7v-3.3c0-1.5-0.5-2.8-1.6-3.9
			c-1.1-1.1-2.4-1.6-3.9-1.6c-1.5,0-2.8,0.5-3.8,1.6c-1.1,1.1-1.6,2.4-1.6,3.9v3.3h-8.7c-1.2,0-2.3,0.4-3.1,1.3
			c-0.8,0.9-1.3,1.9-1.3,3v8.3h3.3c1.6,0,3,0.6,4.2,1.7c1.2,1.2,1.7,2.5,1.7,4.2c0,1.6-0.6,3-1.7,4.2c-1.2,1.2-2.5,1.7-4.2,1.7H9.2
			v8.3c0,1.2,0.4,2.2,1.3,3c0.8,0.8,1.9,1.3,3.1,1.3h8.3v-3.3c0-1.6,0.6-3,1.7-4.1c1.1-1.1,2.5-1.7,4.1-1.7c1.6,0,3,0.6,4.2,1.7
			c1.2,1.1,1.7,2.5,1.7,4.1v3.3h8.3c1.2,0,2.3-0.4,3.1-1.3c0.8-0.9,1.3-1.9,1.3-3v-8.8h3.3c1.5,0,2.8-0.5,3.8-1.6
			c1.1-1.1,1.6-2.3,1.6-3.8c0-1.5-0.5-2.8-1.6-3.8C52.2,30.5,50.9,30,49.4,30z"/>
	</g>
</g>
</svg>
