<?xml version="1.0" encoding="utf-8"?>
<!-- Generator: Adobe Illustrator 19.2.0, SVG Export Plug-In . SVG Version: 6.00 Build 0)  -->
<svg version="1.1" xmlns="http://www.w3.org/2000/svg" xmlns:xlink="http://www.w3.org/1999/xlink" x="0px" y="0px"
	 viewBox="0 0 64 64" style="enable-background:new 0 0 64 64;" xml:space="preserve">
<style type="text/css">
	.st0{display:none;}
	.st1{display:inline;}
</style>
<g id="Layer_1">
	<g class="st0">
		<rect class="st1" width="64" height="64"/>
	</g>
</g>
<g id="Layer_2">
	<g>
		<path d="M28.7,46.9C29,38.2,36.2,31.3,45,31.3c2.7,0,5.3,0.7,7.6,1.9v-12L36.2,4.6H11.5v54.7h22c-1.3-1.2-2.3-2.7-3.1-4.3
			c-4.7,0-9.4,0-14.4,0c3.2-4.4,5.7-7.8,8.5-11.6C26,44.7,27.2,45.7,28.7,46.9z M33.5,8.8l15,15h-15V8.8z M20.4,34.8
			c-0.1-2.2,1.7-3.9,3.9-3.9s3.9,1.8,3.9,3.9c0,2.2-1.8,3.9-3.9,3.9C22.2,38.7,20.4,36.9,20.4,34.8z"/>
		<polygon points="41.7,58.4 48.3,58.4 48.3,50.9 52.6,50.9 55.8,50.9 55.8,44.4 52.6,44.4 48.3,44.4 48.3,36.9 41.7,36.9 
			41.7,44.4 41.4,44.4 34.2,44.4 34.2,50.9 41.7,50.9 41.7,55.1 		"/>
	</g>
</g>
</svg>
