<?xml version="1.0" encoding="utf-8"?>
<!-- Generator: Adobe Illustrator 19.2.0, SVG Export Plug-In . SVG Version: 6.00 Build 0)  -->
<svg version="1.1" xmlns="http://www.w3.org/2000/svg" xmlns:xlink="http://www.w3.org/1999/xlink" x="0px" y="0px"
	 viewBox="0 0 64 64" style="enable-background:new 0 0 64 64;" xml:space="preserve">
<style type="text/css">
	.st0{display:none;}
	.st1{display:inline;}
</style>
<g id="Layer_1">
	<g class="st0">
		<rect class="st1" width="64" height="64"/>
	</g>
</g>
<g id="Layer_2">
	<g>
		<path d="M21,27l-5.1-8.9C8.6,22.9,3.7,31,3.1,40.2h10.2C13.9,34.7,16.8,30,21,27z"/>
		<path d="M29.5,38.7c-2,1.5-2.3,4.4-0.8,6.4c1.5,2,4.4,2.3,6.4,0.8c1.2-0.9,7.7-8.1,12.8-13.7c-0.6-0.9-1.2-1.8-1.9-2.6
			C39.3,33.2,30.7,37.8,29.5,38.7z"/>
		<path d="M32,23.4c2.7,0,5.3,0.6,7.6,1.6l5.1-8.9c-3.9-1.9-8.2-3-12.8-3c-4.6,0-8.9,1.1-12.8,3l5.1,8.9
			C26.7,23.9,29.3,23.4,32,23.4z"/>
		<path d="M48.1,18.1L43,27c1.1,0.8,2.1,1.7,3,2.7c4.4-2.3,7.9-4.2,7.9-4.2s-2.7,3-6,6.7c1.5,2.4,2.5,5.1,2.8,8h10.2
			C60.3,31,55.4,22.9,48.1,18.1z"/>
	</g>
</g>
</svg>
