<?xml version="1.0" encoding="utf-8"?>
<!-- Generator: Adobe Illustrator 19.2.0, SVG Export Plug-In . SVG Version: 6.00 Build 0)  -->
<svg version="1.1" xmlns="http://www.w3.org/2000/svg" xmlns:xlink="http://www.w3.org/1999/xlink" x="0px" y="0px"
	 viewBox="0 0 64 64" style="enable-background:new 0 0 64 64;" xml:space="preserve">
<style type="text/css">
	.st0{display:none;}
	.st1{display:inline;}
</style>
<g id="Layer_1">
	<g class="st0">
		<rect class="st1" width="64" height="64"/>
	</g>
</g>
<g id="Layer_2">
	<g>
		<path d="M10.8,45.5c1.9,1.1,4.4,1.9,7.7,2.6C21.7,48.7,25.2,49,29,49c3.8,0,7.3-0.3,10.6-0.9c3.2-0.6,5.8-1.5,7.7-2.6
			c1.9-1.1,2.8-2.3,2.8-3.5v-0.5c-0.3,0.1-0.6,0.1-0.9,0.1H39c-0.4,0-0.8-0.1-1.2-0.2C35,41.8,32.1,42,29,42
			c-4.3,0-8.4-0.4-12.1-1.2c-3.8-0.8-6.7-1.9-8.9-3.5V42C7.9,43.3,8.9,44.5,10.8,45.5z"/>
		<path d="M10.8,35c1.9,1.1,4.4,1.9,7.7,2.6c3.2,0.6,6.8,0.9,10.6,0.9c2.1,0,4.1-0.1,6.1-0.3c0-0.2-0.1-0.4-0.1-0.6v-6.2h-2.7
			c-0.1,0-0.1,0-0.2,0c-1,0-2,0.1-3,0.1c-4.3,0-8.4-0.4-12.1-1.2c-3.8-0.8-6.7-1.9-8.9-3.5v4.7C7.9,32.8,8.9,33.9,10.8,35z"/>
		<path d="M10.8,56.1c1.9,1.1,4.4,1.9,7.7,2.6c3.2,0.6,6.8,0.9,10.6,0.9c3.8,0,7.3-0.3,10.6-0.9c3.2-0.6,5.8-1.5,7.7-2.6
			c1.9-1.1,2.8-2.3,2.8-3.5v-4.7c-2.2,1.5-5.1,2.7-8.9,3.5c-3.8,0.8-7.8,1.2-12.1,1.2c-4.3,0-8.4-0.4-12.1-1.2
			c-3.8-0.8-6.7-1.9-8.9-3.5v4.7C7.9,53.8,8.9,55,10.8,56.1z"/>
		<path d="M10.8,24.5c1.9,1.1,4.4,1.9,7.7,2.6c3,0.6,6.3,0.9,9.8,0.9c-0.2-1.2,0.2-2.5,1.1-3.3l6.7-6.8h-3.9c-2.2,0-4-1.8-4-4v-3.4
			c-3.5,0-6.8,0.3-9.8,0.9c-3.2,0.6-5.8,1.5-7.7,2.6c-1.9,1.1-2.8,2.2-2.8,3.5V21C7.9,22.2,8.9,23.4,10.8,24.5z"/>
		<polygon points="56,13.9 56,10.4 32.2,10.4 32.2,10.5 32.2,13.9 47.1,13.9 		"/>
		<polygon points="39,37.6 39.3,37.6 49.2,37.6 49.2,33.5 49.2,27.4 50.1,27.4 55.9,27.4 50,21.5 44,15.5 32.2,27.4 37.1,27.4 
			39,27.4 39,30.7 		"/>
	</g>
</g>
</svg>
