<?xml version="1.0" encoding="utf-8"?>
<!-- Generator: Adobe Illustrator 19.2.0, SVG Export Plug-In . SVG Version: 6.00 Build 0)  -->
<svg version="1.1" xmlns="http://www.w3.org/2000/svg" xmlns:xlink="http://www.w3.org/1999/xlink" x="0px" y="0px"
	 viewBox="0 0 64 64" style="enable-background:new 0 0 64 64;" xml:space="preserve">
<style type="text/css">
	.st0{display:none;}
	.st1{display:inline;}
</style>
<g id="Layer_1">
	<g class="st0">
		<rect class="st1" width="64" height="64"/>
	</g>
</g>
<g id="Layer_2">
	<g>
		<polygon points="13.2,22.6 16.1,19.6 25.8,9.9 22.6,6.8 13.1,16.4 8.2,11.6 5.1,14.7 10.2,19.7 		"/>
		<rect x="32.3" y="12.4" width="25.7" height="4.6"/>
		<polygon points="13.2,39.6 16.1,36.6 25.8,26.8 22.6,23.7 13.1,33.4 8.2,28.5 5.1,31.7 10.2,36.7 		"/>
		<rect x="32.3" y="29.4" width="25.7" height="4.6"/>
		<polygon points="13.2,56.5 16.1,53.5 25.8,43.8 22.6,40.7 13.1,50.3 8.2,45.5 5.1,48.7 10.2,53.6 		"/>
		<rect x="32.3" y="46.3" width="25.7" height="4.6"/>
	</g>
</g>
</svg>
