<?xml version="1.0" encoding="utf-8"?>
<!-- Generator: Adobe Illustrator 19.2.0, SVG Export Plug-In . SVG Version: 6.00 Build 0)  -->
<svg version="1.1" xmlns="http://www.w3.org/2000/svg" xmlns:xlink="http://www.w3.org/1999/xlink" x="0px" y="0px"
	 viewBox="0 0 64 64" style="enable-background:new 0 0 64 64;" xml:space="preserve">
<style type="text/css">
	.st0{display:none;}
	.st1{display:inline;}
</style>
<g id="Layer_1">
	<g class="st0">
		<rect class="st1" width="64" height="64"/>
	</g>
</g>
<g id="Layer_2">
	<g>
		<path d="M35.4,54.8c0.9-0.9,1.4-2.1,1.4-3.4h-9.7c0,1.3,0.5,2.4,1.4,3.4c0.9,0.9,2.1,1.4,3.4,1.4C33.3,56.2,34.5,55.7,35.4,54.8z"
			/>
		<path d="M34.6,8.8c-0.7-0.7-1.5-1-2.6-1c-1,0-1.9,0.3-2.6,1c-0.7,0.7-1.1,1.6-1.1,2.6V13c-3.5,0.8-6.4,2.7-8.6,5.5
			c-2.3,2.8-3.4,6.1-3.4,9.8v13.3l-4.9,4.9v2.4h41.2v-2.4l-4.9-4.9V28.4c0-3.7-1.1-7-3.4-9.8c-2.3-2.8-5.2-4.7-8.7-5.5v-1.6
			C35.6,10.4,35.2,9.5,34.6,8.8z"/>
	</g>
</g>
</svg>
