<?xml version="1.0" encoding="utf-8"?>
<!-- Generator: Adobe Illustrator 19.2.0, SVG Export Plug-In . SVG Version: 6.00 Build 0)  -->
<svg version="1.1" xmlns="http://www.w3.org/2000/svg" xmlns:xlink="http://www.w3.org/1999/xlink" x="0px" y="0px"
	 viewBox="0 0 64 64" style="enable-background:new 0 0 64 64;" xml:space="preserve">
<style type="text/css">
	.st0{display:none;}
	.st1{display:inline;}
</style>
<g id="Layer_1">
	<g class="st0">
		<rect class="st1" width="64" height="64"/>
	</g>
</g>
<g id="Layer_2">
	<g>
		<path d="M52.6,35.8c-0.1,0-0.1,0-0.2,0h-4v19.7H15.6V8.8h15.9c0-0.2-0.1-0.5-0.1-0.7V4.7h-20v54.7h41.1V35.8z"/>
		<polygon points="42.2,31.8 48.4,31.8 52.4,31.8 52.4,21.7 52.6,21.7 59.2,21.7 47.3,9.8 35.5,21.7 42.2,21.7 		"/>
		<polygon points="59.2,8.1 59.2,4.7 36.1,4.7 35.5,4.7 35.5,8.1 39.6,8.1 		"/>
		<rect x="18.5" y="50.6" width="2.2" height="2"/>
		<path d="M24.5,43.4c0.3-0.4,0.7-0.6,1.2-0.6c0.6,0,1,0.2,1.2,0.5s0.3,0.9,0.3,1.6h2.2l0,0c0-1.3-0.3-2.2-1-2.9
			c-0.6-0.7-1.5-1-2.8-1c-1.1,0-2.1,0.4-2.8,1.1s-1,1.8-1,3.1v3.4c0,1.3,0.4,2.4,1.1,3.1c0.7,0.7,1.7,1.1,2.8,1.1s2.1-0.3,2.7-1
			c0.6-0.6,0.9-1.6,0.9-2.9l0,0h-2.2c0,0.8-0.1,1.3-0.3,1.6c-0.2,0.3-0.6,0.5-1.1,0.5c-0.6,0-1-0.2-1.3-0.6c-0.3-0.4-0.4-1-0.4-1.8
			v-3.4C24.1,44.4,24.3,43.8,24.5,43.4z"/>
		<path d="M30.2,44.2c0,1,0.3,1.7,0.9,2.2c0.6,0.5,1.5,1,2.7,1.4c0.6,0.3,1,0.5,1.2,0.8c0.2,0.3,0.3,0.6,0.3,1.1
			c0,0.4-0.1,0.8-0.3,1C34.8,50.9,34.4,51,34,51c-0.6,0-1.1-0.2-1.4-0.5c-0.3-0.3-0.4-0.8-0.4-1.5H30l0,0c0,1.2,0.4,2.1,1.2,2.7
			c0.8,0.6,1.7,1,2.8,1c1.1,0,2-0.3,2.6-0.8c0.7-0.6,1-1.3,1-2.3c0-1-0.3-1.7-0.8-2.3c-0.5-0.6-1.4-1-2.5-1.4
			c-0.7-0.3-1.2-0.6-1.4-0.8s-0.4-0.6-0.4-0.9c0-0.4,0.1-0.8,0.4-1c0.2-0.3,0.6-0.4,1-0.4c0.5,0,0.8,0.2,1.1,0.5s0.4,0.8,0.4,1.3
			h2.2l0,0c0-1-0.3-1.8-1-2.5s-1.6-1-2.7-1c-1.1,0-2,0.3-2.7,0.9S30.2,43.2,30.2,44.2z"/>
		<polygon points="42.1,50.2 42.1,50.2 42,49.7 40.1,41.2 37.7,41.2 40.9,52.6 43.3,52.6 46.5,41.2 44.1,41.2 42.2,49.7 		"/>
	</g>
</g>
</svg>
