<?xml version="1.0" encoding="utf-8"?>
<!-- Generator: Adobe Illustrator 19.2.0, SVG Export Plug-In . SVG Version: 6.00 Build 0)  -->
<svg version="1.1" xmlns="http://www.w3.org/2000/svg" xmlns:xlink="http://www.w3.org/1999/xlink" x="0px" y="0px"
	 viewBox="0 0 64 64" style="enable-background:new 0 0 64 64;" xml:space="preserve">
<style type="text/css">
	.st0{display:none;}
	.st1{display:inline;}
</style>
<g id="Layer_1">
	<g class="st0">
		<rect class="st1" width="64" height="64"/>
	</g>
</g>
<g id="Layer_2">
	<g>
		<polygon points="28.3,39.7 21.9,33.5 17.9,37.5 24.5,43.9 28.3,47.7 32.1,43.8 44.6,31.2 40.5,27.3 		"/>
		<path d="M54.8,9.3H39.2c-0.6-1.5-1.5-2.7-2.8-3.7C35,4.7,33.7,4.2,32,4.2c-1.6,0-3,0.5-4.3,1.4c-1.3,0.9-2.2,2.2-2.8,3.7H9.3v50.5
			h45.5V9.3z M30.3,10c0.5-0.5,1.1-0.7,1.8-0.7s1.3,0.2,1.8,0.7s0.7,1.1,0.7,1.8s-0.2,1.3-0.7,1.8s-1.1,0.7-1.8,0.7
			s-1.3-0.2-1.8-0.7s-0.7-1.1-0.7-1.8S29.8,10.5,30.3,10z M49.8,54.8H14.3V14.3h5v7.6h25.4v-7.6h5V54.8z"/>
	</g>
</g>
</svg>
