<?xml version="1.0" encoding="utf-8"?>
<!-- Generator: Adobe Illustrator 19.2.0, SVG Export Plug-In . SVG Version: 6.00 Build 0)  -->
<svg version="1.1" xmlns="http://www.w3.org/2000/svg" xmlns:xlink="http://www.w3.org/1999/xlink" x="0px" y="0px"
	 viewBox="0 0 64 64" style="enable-background:new 0 0 64 64;" xml:space="preserve">
<style type="text/css">
	.st0{display:none;}
	.st1{display:inline;}
</style>
<g id="Layer_1">
	<g class="st0">
		<rect class="st1" width="64" height="64"/>
	</g>
</g>
<g id="Layer_2">
	<g>
		<path d="M27,17.4c1-0.6,2.1-1,3.4-1.4c-2.2-0.4-4.6-0.6-7.2-0.6c-2.8,0-5.4,0.2-7.7,0.7c-2.4,0.5-4.2,1.1-5.6,1.9
			c-1.4,0.8-2.1,1.6-2.1,2.6v2.6c0,0.9,0.7,1.8,2.1,2.6c1.4,0.8,3.2,1.4,5.6,1.9c2.4,0.5,4.9,0.7,7.7,0.7c0.1,0,0.2,0,0.3,0v-3.1
			v-2.6C23.5,21.1,24.1,19.1,27,17.4z"/>
		<path d="M15.5,35.2c2.4,0.5,4.9,0.7,7.7,0.7c0.1,0,0.2,0,0.3,0v-3.1v-2c-0.1,0-0.2,0-0.3,0c-3.2,0-6.1-0.3-8.9-0.9
			c-2.8-0.6-4.9-1.4-6.5-2.5v3.4c0,0.9,0.7,1.8,2.1,2.6C11.3,34.1,13.1,34.8,15.5,35.2z"/>
		<path d="M7.8,46.2c0,0.9,0.7,1.8,2.1,2.6c1.4,0.8,3.2,1.4,5.6,1.9c2.4,0.5,4.9,0.7,7.7,0.7c0.5,0,0.9,0,1.4,0
			c-0.9-1.1-1.1-2.2-1.1-3.1v-2c-0.1,0-0.2,0-0.3,0c-3.2,0-6.1-0.3-8.9-0.9c-2.8-0.6-4.9-1.4-6.5-2.5V46.2z"/>
		<path d="M7.8,38.5c0,0.9,0.7,1.8,2.1,2.6c1.4,0.8,3.2,1.4,5.6,1.9c2.4,0.5,4.9,0.7,7.7,0.7c0.1,0,0.2,0,0.3,0v-3.1v-2
			c-0.1,0-0.2,0-0.3,0c-3.2,0-6.1-0.3-8.9-0.9c-2.8-0.6-4.9-1.4-6.5-2.5V38.5z"/>
		<path d="M57.2,29.4c-1.2,0.8-2.7,1.5-4.6,2.1c-0.6,0.2-1.3,0.3-2,0.5c-0.7,0.1-1.4,0.3-2.1,0.4c-0.7,0.1-1.4,0.2-2.2,0.3
			c-1.5,0.1-3,0.2-4.6,0.2h0c-0.8,0-1.6,0-2.3-0.1c-0.6,0-1.2-0.1-1.8-0.1c-1.6-0.1-3.2-0.4-4.7-0.7c-1.4-0.3-2.6-0.6-3.7-1.1
			c-0.3-0.1-0.5-0.2-0.8-0.4c-0.7-0.3-1.4-0.7-2-1.1v1.3v2.1c0,0.2,0,0.5,0.1,0.7c0.1,0.3,0.4,0.7,0.7,1c0.2,0.2,0.5,0.4,0.8,0.6
			c0.2,0.1,0.3,0.2,0.5,0.3c0.1,0.1,0.3,0.1,0.4,0.2c1,0.5,2.1,0.9,3.5,1.3c0.5,0.1,1,0.2,1.5,0.3c0.1,0,0.1,0,0.2,0
			c1.2,0.2,2.4,0.4,3.7,0.5c0.3,0,0.6,0,0.8,0.1c1,0.1,2.1,0.1,3.2,0.1c0.7,0,1.4,0,2,0c1,0,2-0.1,2.9-0.2c0.9-0.1,1.9-0.2,2.8-0.4
			c1.5-0.3,2.7-0.6,3.8-1.1c0.7-0.2,1.3-0.5,1.8-0.8c0.2-0.1,0.3-0.2,0.5-0.3c0.2-0.1,0.3-0.2,0.4-0.3c0.3-0.2,0.5-0.4,0.6-0.6
			c0.2-0.2,0.3-0.4,0.4-0.7s0.1-0.4,0.1-0.7V29.4z"/>
		<path d="M57.2,22.5c0-0.2,0-0.5-0.1-0.7s-0.2-0.4-0.4-0.7c-0.2-0.2-0.4-0.4-0.6-0.6c-0.1-0.1-0.3-0.2-0.4-0.3
			c-0.2-0.1-0.3-0.2-0.5-0.3c-0.5-0.3-1.1-0.6-1.8-0.8c-1.1-0.4-2.4-0.8-3.8-1.1c-0.9-0.2-1.8-0.3-2.8-0.4c-0.9-0.1-1.9-0.2-2.9-0.2
			c-0.7,0-1.4,0-2,0c-1.4,0-2.7,0.1-4,0.2c-0.6,0.1-1.1,0.1-1.6,0.2c-0.7,0.1-1.4,0.2-2.1,0.3c-0.6,0.1-1.2,0.2-1.7,0.4
			c-1.6,0.4-2.9,0.9-3.9,1.5c-0.2,0.1-0.3,0.2-0.5,0.3c-0.3,0.2-0.6,0.4-0.8,0.6c-0.3,0.3-0.5,0.6-0.7,1c-0.1,0.2-0.1,0.4-0.1,0.7
			v2.6c0,0.2,0,0.5,0.1,0.7c0.1,0.3,0.4,0.7,0.7,1c0.2,0.2,0.5,0.4,0.8,0.6c0.2,0.1,0.3,0.2,0.5,0.3c0.1,0.1,0.3,0.1,0.4,0.2
			c1,0.5,2.1,0.9,3.5,1.3c0.5,0.1,1,0.2,1.5,0.3c0.1,0,0.1,0,0.2,0c1.2,0.2,2.4,0.4,3.7,0.5c0.3,0,0.6,0,0.8,0.1
			c1,0.1,2.1,0.1,3.2,0.1c0.7,0,1.4,0,2,0c1,0,2-0.1,2.9-0.2c0.9-0.1,1.9-0.2,2.8-0.4c1.5-0.3,2.7-0.6,3.8-1.1
			c0.7-0.2,1.3-0.5,1.8-0.8c0.2-0.1,0.3-0.2,0.5-0.3c0.2-0.1,0.3-0.2,0.4-0.3c0.3-0.2,0.5-0.4,0.6-0.6c0.2-0.2,0.3-0.4,0.4-0.7
			s0.1-0.4,0.1-0.7V22.5z"/>
		<path d="M57.2,37.1c-1.2,0.8-2.7,1.5-4.6,2.1c-0.6,0.2-1.3,0.3-2,0.5s-1.4,0.3-2.1,0.4c-0.7,0.1-1.4,0.2-2.2,0.3
			c-1.5,0.1-3,0.2-4.6,0.2h0c-0.8,0-1.6,0-2.3-0.1c-0.6,0-1.2-0.1-1.8-0.1c-1.6-0.1-3.2-0.4-4.7-0.7c-1.4-0.3-2.6-0.6-3.7-1.1
			c-0.3-0.1-0.5-0.2-0.8-0.4c-0.7-0.3-1.4-0.7-2-1.1v1.3v2.1c0,0.2,0,0.5,0.1,0.7c0.1,0.3,0.4,0.7,0.7,1c0.2,0.2,0.5,0.4,0.8,0.6
			c0.2,0.1,0.3,0.2,0.5,0.3c0.1,0.1,0.3,0.1,0.4,0.2c1,0.5,2.1,0.9,3.5,1.3c0.5,0.1,1,0.2,1.5,0.3c0.1,0,0.1,0,0.2,0
			c1.2,0.2,2.4,0.4,3.7,0.5c0.3,0,0.6,0,0.8,0.1c1,0.1,2.1,0.1,3.2,0.1c0.7,0,1.4,0,2,0c1,0,2-0.1,2.9-0.2c0.9-0.1,1.9-0.2,2.8-0.4
			c1.5-0.3,2.7-0.6,3.8-1.1c0.7-0.2,1.3-0.5,1.8-0.8c0.2-0.1,0.3-0.2,0.5-0.3c0.2-0.1,0.3-0.2,0.4-0.3c0.3-0.2,0.5-0.4,0.6-0.6
			c0.2-0.2,0.3-0.4,0.4-0.7c0.1-0.2,0.1-0.4,0.1-0.7V37.1z"/>
		<path d="M27.2,49.8c0.2,0.2,0.5,0.4,0.8,0.6c0.2,0.1,0.3,0.2,0.5,0.3c0.1,0.1,0.3,0.1,0.4,0.2c1,0.5,2.1,0.9,3.5,1.3
			c0.5,0.1,1.1,0.3,1.7,0.4c1.2,0.2,2.4,0.4,3.7,0.5c1.3,0.1,2.6,0.2,4,0.2c0.7,0,1.4,0,2,0c1,0,2-0.1,2.9-0.2
			c0.9-0.1,1.9-0.2,2.8-0.4c1.5-0.3,2.7-0.6,3.8-1.1c0.7-0.2,1.3-0.5,1.8-0.8c0.2-0.1,0.3-0.2,0.5-0.3c0.2-0.1,0.3-0.2,0.4-0.3
			c0.3-0.2,0.5-0.4,0.6-0.6c0.2-0.2,0.3-0.4,0.4-0.7c0.1-0.2,0.1-0.4,0.1-0.7v-3.4c-1.2,0.8-2.7,1.5-4.6,2.1c-0.6,0.2-1.3,0.3-2,0.5
			s-1.4,0.3-2.1,0.4c-0.7,0.1-1.4,0.2-2.2,0.3c-1.5,0.1-3,0.2-4.6,0.2h0c-0.8,0-1.6,0-2.3-0.1c-0.6,0-1.2-0.1-1.8-0.1
			c-1.6-0.1-3.2-0.4-4.7-0.7c-1.4-0.3-2.6-0.6-3.7-1.1c-0.3-0.1-0.5-0.2-0.8-0.4c-0.7-0.3-1.4-0.7-2-1.1v1.3v2.1
			c0,0.2,0,0.5,0.1,0.7C26.7,49.2,26.9,49.5,27.2,49.8z"/>
	</g>
</g>
</svg>
