<?xml version="1.0" encoding="utf-8"?>
<!-- Generator: Adobe Illustrator 19.2.0, SVG Export Plug-In . SVG Version: 6.00 Build 0)  -->
<svg version="1.1" xmlns="http://www.w3.org/2000/svg" xmlns:xlink="http://www.w3.org/1999/xlink" x="0px" y="0px"
	 viewBox="0 0 64 64" style="enable-background:new 0 0 64 64;" xml:space="preserve">
<style type="text/css">
	.st0{display:none;}
	.st1{display:inline;}
</style>
<g id="Layer_1">
	<g class="st0">
		<rect class="st1" width="64" height="64"/>
	</g>
</g>
<g id="Layer_2">
	<g>
		<path d="M11.9,8.6v17.7h18.2V12.1h-7.5V8.6H11.9z M26.8,15.5v7.4H15.3V12h4v0.2v3.4h3.4H26.8z"/>
		<path d="M11.9,48h18.2V33.9h-7.5v-3.6H11.9V48z M15.3,33.7h4v0.2v3.4h3.4h4.1v7.4H15.3V33.7z"/>
		<path d="M34,8.6v17.7h18.2V12.1h-7.5V8.6H34z M48.8,15.5v7.4H37.3V12h4v0.2v3.4h3.4H48.8z"/>
		<path d="M44.6,56.3c0.2,0.1,0.3,0.1,0.5,0.1s0.3,0,0.5,0c0.2,0,0.4,0,0.5,0c0.3-0.1,0.6-0.2,0.9-0.4c0.1-0.1,0.3-0.2,0.4-0.3
			c0.5-0.5,0.8-1.1,0.8-1.8H43c0,0.5,0.1,1,0.4,1.4c0.1,0.1,0.2,0.3,0.3,0.4C44,56,44.3,56.2,44.6,56.3z"/>
		<path d="M56.9,51.3l-2.7-2.7v-7.3c0-1-0.2-2-0.5-2.9c-0.2-0.4-0.3-0.9-0.6-1.3c-0.2-0.4-0.5-0.8-0.8-1.2c-0.3-0.4-0.6-0.7-1-1.1
			c-0.7-0.6-1.5-1.1-2.4-1.5c-0.4-0.2-0.9-0.3-1.4-0.4v-0.9c0-0.6-0.2-1.1-0.6-1.4c-0.4-0.4-0.8-0.6-1.4-0.6c-0.3,0-0.5,0-0.8,0.1
			c-0.1,0-0.2,0.1-0.3,0.2c-0.1,0.1-0.2,0.2-0.3,0.2c-0.1,0.1-0.2,0.2-0.3,0.3c-0.1,0.1-0.1,0.2-0.2,0.3c-0.1,0.2-0.1,0.5-0.1,0.8
			v0.9c-1,0.2-1.8,0.6-2.6,1.1c-0.8,0.5-1.5,1.1-2.1,1.9c-0.3,0.4-0.6,0.8-0.8,1.2c-0.1,0.2-0.2,0.4-0.3,0.6
			c-0.4,0.9-0.6,1.8-0.7,2.8c0,0.2,0,0.5,0,0.7v7.3l-2.7,2.7v1.3h22.5V51.3z"/>
	</g>
</g>
</svg>
