<?xml version="1.0" encoding="utf-8"?>
<!-- Generator: Adobe Illustrator 19.2.0, SVG Export Plug-In . SVG Version: 6.00 Build 0)  -->
<svg version="1.1" xmlns="http://www.w3.org/2000/svg" xmlns:xlink="http://www.w3.org/1999/xlink" x="0px" y="0px"
	 viewBox="0 0 64 64" style="enable-background:new 0 0 64 64;" xml:space="preserve">
<style type="text/css">
	.st0{display:none;}
	.st1{display:inline;}
</style>
<g id="Layer_1">
	<g class="st0">
		<rect class="st1" width="64" height="64"/>
	</g>
</g>
<g id="Layer_2">
	<g>
		<path d="M28.2,20.1c-2.6-1.9-5.4-2.8-8.6-2.8c-4.1,0-7.6,1.5-10.5,4.4C6.2,24.5,4.8,28,4.8,32.1c0,4.1,1.5,7.6,4.4,10.5
			C12,45.6,15.5,47,19.6,47c3.2,0,6-0.9,8.6-2.8c2.6-1.9,4.4-4.2,5.5-7.1h10.7V47h10v-9.9h4.9v-10H33.7
			C32.6,24.3,30.8,21.9,28.2,20.1z M23.2,35.7c-1,1-2.1,1.5-3.5,1.5s-2.6-0.5-3.5-1.5c-1-1-1.5-2.1-1.5-3.5s0.5-2.6,1.5-3.5
			c1-1,2.1-1.5,3.5-1.5s2.6,0.5,3.5,1.5c1,1,1.5,2.1,1.5,3.5S24.1,34.7,23.2,35.7z"/>
	</g>
</g>
</svg>
