<?xml version="1.0" encoding="utf-8"?>
<!-- Generator: Adobe Illustrator 19.2.0, SVG Export Plug-In . SVG Version: 6.00 Build 0)  -->
<svg version="1.1" xmlns="http://www.w3.org/2000/svg" xmlns:xlink="http://www.w3.org/1999/xlink" x="0px" y="0px"
	 viewBox="0 0 64 64" style="enable-background:new 0 0 64 64;" xml:space="preserve">
<style type="text/css">
	.st0{display:none;}
	.st1{display:inline;}
</style>
<g id="Layer_1">
	<g class="st0">
		<rect class="st1" width="64" height="64"/>
	</g>
</g>
<g id="Layer_2">
	<g>
		<path d="M47.9,34.1c0.6-0.5,0.9-1.2,0.9-2s-0.3-1.4-0.9-2c-0.6-0.5-1.2-0.8-2-0.8c-0.7,0-1.4,0.3-2,0.8c-0.6,0.5-0.9,1.2-0.9,2
			s0.3,1.4,0.9,2c0.6,0.5,1.2,0.8,2,0.8C46.7,34.9,47.4,34.7,47.9,34.1z"/>
		<path d="M32,7h-2.8v11.1h5.5v-5.4c4.8,0.7,8.8,2.9,12,6.6c3.2,3.7,4.8,8,4.8,12.8c0,5.4-1.9,10-5.7,13.8
			c-3.8,3.8-8.4,5.7-13.8,5.7c-5.4,0-10-1.9-13.8-5.7c-3.8-3.8-5.7-8.4-5.7-13.8c0-4.6,1.4-8.7,4.3-12.3L32,34.9l3.9-3.9l-19-19v0.1
			c-3.1,2.3-5.6,5.2-7.4,8.7c-1.8,3.5-2.7,7.3-2.7,11.3c0,7,2.4,12.9,7.3,17.8c4.9,4.9,10.8,7.3,17.8,7.3c7,0,12.9-2.4,17.8-7.3
			c4.9-4.9,7.3-10.8,7.3-17.8c0-7-2.4-12.9-7.3-17.8C44.9,9.5,39,7,32,7z"/>
		<path d="M16.1,30.2c-0.6,0.5-0.9,1.2-0.9,2s0.3,1.4,0.9,2c0.6,0.5,1.2,0.8,2,0.8c0.7,0,1.4-0.3,2-0.8c0.6-0.5,0.9-1.2,0.9-2
			s-0.3-1.4-0.9-2c-0.6-0.5-1.2-0.8-2-0.8C17.3,29.4,16.6,29.7,16.1,30.2z"/>
		<path d="M30,44.2c-0.5,0.6-0.8,1.2-0.8,2c0,0.7,0.3,1.4,0.8,2c0.5,0.6,1.2,0.9,2,0.9s1.4-0.3,2-0.9c0.5-0.6,0.8-1.2,0.8-2
			c0-0.7-0.3-1.4-0.8-2c-0.5-0.6-1.2-0.9-2-0.9S30.6,43.6,30,44.2z"/>
	</g>
</g>
</svg>
