<?xml version="1.0" encoding="utf-8"?>
<!-- Generator: Adobe Illustrator 19.2.0, SVG Export Plug-In . SVG Version: 6.00 Build 0)  -->
<svg version="1.1" xmlns="http://www.w3.org/2000/svg" xmlns:xlink="http://www.w3.org/1999/xlink" x="0px" y="0px"
	 viewBox="0 0 64 64" style="enable-background:new 0 0 64 64;" xml:space="preserve">
<style type="text/css">
	.st0{display:none;}
	.st1{display:inline;}
</style>
<g id="Layer_1">
	<g class="st0">
		<rect class="st1" width="64" height="64"/>
	</g>
</g>
<g id="Layer_2">
	<g>
		<path d="M37.2,57.8c0.9,0.9,2,1.4,3.4,1.4c1.3,0,2.5-0.5,3.5-1.4L57.7,44c1-1,1.4-2.1,1.4-3.5c0-1.3-0.5-2.5-1.4-3.4L26.9,6.3
			c-1-1-2.1-1.4-3.5-1.4c-1.3,0-2.5,0.5-3.5,1.4L6.3,20c-1,1-1.4,2.1-1.4,3.5c0,1.3,0.5,2.5,1.4,3.5L37.2,57.8z M23.4,9.8l3.4,3.4
			L20,20l3.5,3.5l6.8-6.8l3.5,3.5l-6.8,6.8l3.4,3.4l6.8-6.8l3.5,3.5l-6.8,6.8l3.5,3.5l6.8-6.8l3.4,3.4l-6.8,6.8L44,44l6.8-6.8
			l3.5,3.5L40.6,54.3L9.8,23.4L23.4,9.8z"/>
	</g>
</g>
</svg>
