<?xml version="1.0" encoding="utf-8"?>
<!-- Generator: Adobe Illustrator 19.2.0, SVG Export Plug-In . SVG Version: 6.00 Build 0)  -->
<svg version="1.1" id="Layer_1" xmlns="http://www.w3.org/2000/svg" xmlns:xlink="http://www.w3.org/1999/xlink" x="0px" y="0px"
	 viewBox="0 0 64 64" style="enable-background:new 0 0 64 64;" xml:space="preserve">
<g>
	<g>
		<path d="M17.6,33c-6.8,0-13.1-3.8-13.1-12v-8.2c0-8.2,6.2-12,13.1-12c6.8,0,13.1,3.8,13.1,12v8.2C30.6,29.1,24.4,33,17.6,33z
			 M20.6,13c0-2.5-1.3-3.4-3-3.4c-1.7,0-3,0.9-3,3.4v7.5c0,2.5,1.3,3.4,3,3.4c1.7,0,3-0.9,3-3.4V13z M22.8,62.8H11.9L41.2,1.2h10.9
			L22.8,62.8z M46.4,63.3c-6.8,0-13.1-3.8-13.1-12v-8.2c0-8.2,6.2-12,13.1-12c6.8,0,13.1,3.8,13.1,12v8.2
			C59.5,59.5,53.3,63.3,46.4,63.3z M49.5,43.4c0-2.5-1.3-3.4-3-3.4c-1.7,0-3,0.9-3,3.4V51c0,2.5,1.3,3.4,3,3.4c1.7,0,3-0.9,3-3.4
			V43.4z"/>
	</g>
</g>
</svg>
