<?xml version="1.0" encoding="utf-8"?>
<!-- Generator: Adobe Illustrator 19.2.0, SVG Export Plug-In . SVG Version: 6.00 Build 0)  -->
<svg version="1.1" id="Layer_1" xmlns="http://www.w3.org/2000/svg" xmlns:xlink="http://www.w3.org/1999/xlink" x="0px" y="0px"
	 viewBox="0 0 64 64" style="enable-background:new 0 0 64 64;" xml:space="preserve">
<g>
	<path d="M52.3,20.5c2.4,0,4.4,0.8,6.1,2.5c1.7,1.7,2.6,3.7,2.6,6.2v17.4H49.3v11.5H14.5V46.5H3V29.1c0-2.4,0.8-4.5,2.5-6.2
		c1.7-1.7,3.7-2.5,6.2-2.5H52.3z M49.3,5.9v11.5H14.5V5.9H49.3z M43.6,52.2V37.8H20.4v14.4H43.6z M50.2,31.1c0.6,0.6,1.3,0.9,2,0.9
		c0.8,0,1.4-0.3,2-0.9c0.6-0.6,0.9-1.3,0.9-2c0-0.8-0.3-1.4-0.9-2c-0.6-0.6-1.3-0.9-2-0.9c-0.8,0-1.4,0.3-2,0.9
		c-0.6,0.6-0.9,1.3-0.9,2C49.3,29.8,49.6,30.5,50.2,31.1z"/>
</g>
</svg>
