<?xml version="1.0" encoding="utf-8"?>
<!-- Generator: Adobe Illustrator 19.2.0, SVG Export Plug-In . SVG Version: 6.00 Build 0)  -->
<svg version="1.1" id="Layer_1" xmlns="http://www.w3.org/2000/svg" xmlns:xlink="http://www.w3.org/1999/xlink" x="0px" y="0px"
	 viewBox="0 0 64 64" style="enable-background:new 0 0 64 64;" xml:space="preserve">
<g>
	<path d="M30.2,46.1l0.9-0.9l0.6-0.6c-2.4,0.3-4.9,0.5-7.5,0.5c-4.3,0-8.3-0.4-12.1-1.2c-3.8-0.8-6.8-2-9.1-3.5v4.7
		c0,1.2,0.9,2.4,2.8,3.5c1.9,1.1,4.5,2,7.7,2.6c3.3,0.6,6.8,0.9,10.6,0.9c1.7,0,3.4-0.1,5-0.2v-3C29.1,47.9,29.5,46.9,30.2,46.1z"/>
	<path d="M30.2,37.4c-0.8-0.8-1.2-1.8-1.2-2.8v-0.3c-1.6,0.1-3.2,0.2-4.9,0.2c-4.3,0-8.4-0.4-12.1-1.2c-3.8-0.7-6.8-1.9-9-3.5v4.7
		c0,1.2,0.9,2.4,2.8,3.5c1.9,1.1,4.5,2,7.7,2.6c3.3,0.6,6.8,0.9,10.6,0.9c3.4,0,6.5-0.3,9.4-0.7l-2.5-2.5L30.2,37.4z"/>
	<path d="M33.1,18.5h6c1.3-0.4,2.5-0.9,3.5-1.5c1.9-1.1,2.8-2.2,2.8-3.5V10c0-1.3-0.9-2.4-2.8-3.5c-1.9-1.1-4.5-2-7.7-2.6
		C31.5,3.3,28,3,24.2,3c-3.8,0-7.4,0.3-10.6,0.9c-3.2,0.6-5.8,1.5-7.7,2.6C4,7.6,3.1,8.7,3.1,10v3.5c0,1.3,0.9,2.4,2.8,3.5
		c1.9,1.1,4.5,2,7.7,2.6c3.3,0.6,6.8,0.9,10.6,0.9c1.9,0,3.8-0.1,5.5-0.2C30.5,19.2,31.7,18.5,33.1,18.5z"/>
	<path d="M24.2,24c-4.3,0-8.3-0.4-12.1-1.2S5.3,20.9,3,19.3V24c0,1.3,0.9,2.4,2.8,3.5s4.5,2,7.7,2.6c3.3,0.6,6.8,0.9,10.6,0.9
		c1.7,0,3.4-0.1,5-0.2v-7C27.5,23.9,25.9,24,24.2,24z"/>
	<path d="M57.9,25.5v7.9l-8.3,8.3l8.3,8.4v7.9H36.1v-7.9l8.3-8.4l-8.3-8.4v-7.8H57.9 M60.9,22.5h-3H36.1h-3v3v7.9v1.2l0.9,0.9
		l6.2,6.3L34,48l-0.9,0.9v1.2V58v3h3H58h3v-3v-7.9v-1.2L60.1,48l-6.2-6.3l6.2-6.3l0.9-0.9v-1.2v-7.8L60.9,22.5L60.9,22.5z"/>
	<polygon points="47,38.6 54.4,31.6 39.6,31.6 	"/>
</g>
</svg>
