<?xml version="1.0" encoding="utf-8"?>
<!-- Generator: Adobe Illustrator 19.2.0, SVG Export Plug-In . SVG Version: 6.00 Build 0)  -->
<svg version="1.1" id="Layer_1" xmlns="http://www.w3.org/2000/svg" xmlns:xlink="http://www.w3.org/1999/xlink" x="0px" y="0px"
	 viewBox="0 0 64 64" style="enable-background:new 0 0 64 64;" xml:space="preserve">
<style type="text/css">
	.st0{display:none;}
	.st1{display:inline;}
	.st2{fill:#1D1D1B;}
</style>
<g id="Layer_1_1_">
	<g class="st0">
		<rect class="st1" width="64" height="64"/>
	</g>
</g>
<g>
	<g>
		<path class="st2" d="M20,34.4c2,6.3,2.8,13.4,2.8,13.4c1.7-3.2,9.6-34.1-22.1-36.6c4.4,2.1,7.6,4.6,9.2,6c0,0,3.4,2.5,6,7.2
			C18.2,28.5,20,34.4,20,34.4z"/>
	</g>
	<path class="st2" d="M54.8,25.5c-3.2-3.7-6.8-4.6-9.1-5.1c-4.2-0.8-8.5,0.1-10.6,0.6c-7.5-9.8-24-10.1-24-10.1
		c5.6,1.8,9.4,4.5,11.9,7.5l1.9-0.1l-1.2,1.1c0.3,0.5,0.7,0.9,0.9,1.4l3.2-0.5l-2.3,2.4c5.6,18.8-4,30.3-4,30.3
		c7.8-2.7,18.3-14.4,26.6-18.7c8-4.2,15.5-0.1,15-1.6C62.2,29.4,54.8,25.5,54.8,25.5z M50,26.6c-0.7,0-1.7-0.3-2.5-1.1
		c-0.7-0.7-0.5-1,0.2-1c0.9,0,2.7,0.7,4.1,1.9C51.9,26.5,51,26.7,50,26.6z"/>
</g>
</svg>
