<?xml version="1.0" encoding="utf-8"?>
<!-- Generator: Adobe Illustrator 19.2.0, SVG Export Plug-In . SVG Version: 6.00 Build 0)  -->
<svg version="1.1" id="Layer_1" xmlns="http://www.w3.org/2000/svg" xmlns:xlink="http://www.w3.org/1999/xlink" x="0px" y="0px"
	 viewBox="0 0 64 64" style="enable-background:new 0 0 64 64;" xml:space="preserve">
<style type="text/css">
	.st0{display:none;}
	.st1{display:inline;}
	.st2{fill:#1D1D1B;}
</style>
<g>
	<path class="st2" d="M64,44.4L44.9,25.2c-0.2,0-0.4,0.1-0.6,0.1v10.6l8.4,8.5l-8.5,8.4h0.1V64L64,44.4z"/>
	<polygon class="st2" points="38.3,35.9 34.9,35.9 29.5,35.9 37.9,44.4 29.4,52.8 34.9,52.8 38.2,52.8 46.7,44.4 	"/>
	<path class="st2" d="M25.3,38.2C23,40,20.8,41.7,18.6,43v9.8h1.2h3.1h0.2l8.4-8.4L25.3,38.2z"/>
	<path class="st2" d="M14.1,37.4c1-1.9,4.1-13,0.3-22.6c-1.1-2.7-2.7-5.3-5.1-7.5c-2-1.9-4.5-3.4-7.7-4.6c-2.7-1-5.9-1.7-9.6-2
		c4.4,2.1,7.6,4.6,9.2,6c0,0,3.4,2.5,6,7.2c2.3,4.1,4.1,10,4.1,10c1.2,3.8,2,8,2.4,10.6C14,36.3,14.1,37.4,14.1,37.4z"/>
	<path class="st2" d="M23.2,36c5.5-4.4,11.2-9.6,16.2-12.1c8-4.2,15.5-0.1,15-1.6c-0.9-3.3-8.3-7.2-8.3-7.2
		c-3.2-3.7-6.8-4.6-9.1-5.1c-4.2-0.8-8.5,0.1-10.6,0.6C20.5,2.8,8.9,1,4.3,0.6C3.1,0.5,2.4,0.5,2.4,0.5c3.7,1.2,6.7,2.8,8.9,4.6
		C12.5,6,13.5,7,14.3,8l1.9-0.1L15,9c0.3,0.5,0.7,0.9,0.9,1.4l3.2-0.5l-2.3,2.4c0.2,0.6,0.3,1.1,0.5,1.7c4.6,17.8-4.5,28.6-4.5,28.6
		c0.8-0.3,1.7-0.7,2.5-1.1c1.1-0.6,2.1-1.2,3.3-2C20.1,38.4,21.6,37.3,23.2,36z M39,14.1c0.9,0,2.7,0.7,4.1,1.9
		c0.1,0.1-0.8,0.3-1.8,0.2c-0.7,0-1.7-0.3-2.5-1.1C38.1,14.4,38.3,14.1,39,14.1z"/>
</g>
</svg>
