<?xml version="1.0" encoding="utf-8"?>
<!-- Generator: Adobe Illustrator 19.2.0, SVG Export Plug-In . SVG Version: 6.00 Build 0)  -->
<svg version="1.1" id="Layer_1" xmlns="http://www.w3.org/2000/svg" xmlns:xlink="http://www.w3.org/1999/xlink" x="0px" y="0px"
	 viewBox="0 0 64 64" style="enable-background:new 0 0 64 64;" xml:space="preserve">
<style type="text/css">
	.st0{fill:#231F20;}
	.st1{display:none;}
	.st2{display:inline;}
</style>
<g>
	<path class="st0" d="M53.5,18.6l-4,3.8c1.6,2.9,2.5,6.1,2.5,9.6c0,11-9,20-20,20c-3.7,0-7.2-1-10.2-2.8l8.9,13.6l1.2-5.2
		c7,0,13.1-2.5,18-7.4c4.9-4.9,7.4-11,7.4-18C57.3,27.3,56.1,22.8,53.5,18.6z"/>
	<path class="st0" d="M32,12c3.7,0,7.2,1,10.2,2.8L33.3,1.3l-1.2,5.2c-7,0-13.1,2.5-18,7.4s-7.4,11-7.4,18c0,4.8,1.2,9.4,3.8,13.6
		l4-3.8C12.9,38.8,12,35.5,12,32C12,21,21,12,32,12z"/>
</g>
<g id="Layer_1_1_">
	<g class="st1">
		<rect class="st2" width="64" height="64"/>
	</g>
</g>
<g>
	<rect x="22" y="26.3" class="st0" width="5.8" height="17.8"/>
	<rect x="30.1" y="19.9" class="st0" width="5.7" height="24.2"/>
	<rect x="38.1" y="32.4" class="st0" width="5.8" height="11.7"/>
</g>
</svg>
