<?xml version="1.0" encoding="utf-8"?>
<!-- Generator: Adobe Illustrator 19.2.0, SVG Export Plug-In . SVG Version: 6.00 Build 0)  -->
<svg version="1.1" id="Layer_1" xmlns="http://www.w3.org/2000/svg" xmlns:xlink="http://www.w3.org/1999/xlink" x="0px" y="0px"
	 viewBox="0 0 64 64" style="enable-background:new 0 0 64 64;" xml:space="preserve">
<style type="text/css">
	.st0{display:none;}
	.st1{display:inline;}
</style>
<g class="st0">
	<rect class="st1" width="64" height="64"/>
</g>
<g>
	<polygon points="42.9,6.7 39.9,3.6 24,3.6 20.9,6.7 9.9,6.7 9.9,13.1 54.1,13.1 54.1,6.7 	"/>
	<polygon points="30.4,24.8 30.4,33.2 37.6,37.6 38.7,35.6 32.9,32 32.9,24.8 	"/>
	<path d="M18.5,38.2l6.8-6.6h-5.1c0-3.2,1.1-6,3.4-8.3c2.2-2.2,5-3.4,8.3-3.4c3.2,0,6,1.1,8.3,3.4c2.2,2.2,3.4,5,3.4,8.3
		c0,3.2-1.1,6-3.4,8.3c-2.2,2.2-5,3.4-8.3,3.4c-3.3,0-6.1-1.2-8.3-3.5l-2.4,2.4c3,3.1,6.6,4.5,10.8,4.5s7.8-1.5,10.8-4.5
		s4.5-6.6,4.5-10.8c0-4.2-1.5-7.8-4.5-10.8c-3-3-6.6-4.5-10.8-4.5s-7.8,1.5-10.8,4.5c-3,3-4.4,6.6-4.3,10.9h-5.1L18.5,38.2z"/>
	<path d="M23.3,16.1H13.1v13.5h1.3C15,23.8,18.4,18.9,23.3,16.1z"/>
	<path d="M49.7,31.5c0,9.8-7.9,17.7-17.7,17.7c-7.5,0-13.9-4.6-16.5-11.2l-2.5-2.4V54c0,1.8,0.6,3.3,1.7,4.6
		c1.3,1.3,2.7,1.8,4.6,1.8h25.4c1.6,0,3.1-0.6,4.3-1.8c1.3-1.3,1.8-2.7,1.8-4.6V16.1H40.7C46.1,19.2,49.7,24.9,49.7,31.5z"/>
</g>
</svg>
