<?xml version="1.0" encoding="utf-8"?>
<!-- Generator: Adobe Illustrator 19.2.0, SVG Export Plug-In . SVG Version: 6.00 Build 0)  -->
<svg version="1.1" id="Layer_1" xmlns="http://www.w3.org/2000/svg" xmlns:xlink="http://www.w3.org/1999/xlink" x="0px" y="0px"
	 viewBox="0 0 64 64" style="enable-background:new 0 0 64 64;" xml:space="preserve">
<g>
	<path d="M22.3,10.2c3-0.6,6.3-0.8,9.8-0.8c3.5,0,6.7,0.2,9.8,0.8c3,0.6,5.4,1.4,7.1,2.4c1.8,1,2.6,2,2.6,3.2V19
		c0,1.2-0.8,2.2-2.6,3.2c-1.8,1-4.1,1.8-7.1,2.4c-3.1,0.6-6.3,0.8-9.9,0.8s-6.7-0.2-9.8-0.8c-3-0.6-5.4-1.4-7.1-2.4
		c-1.8-1-2.6-2-2.6-3.2v-3.2c0-1.2,0.8-2.2,2.6-3.2S19.3,10.7,22.3,10.2z M20.8,27.6c3.5,0.7,7.2,1.1,11.2,1.1s7.8-0.4,11.2-1.1
		c3.5-0.7,6.2-1.8,8.2-3.2v4.3c0,1.2-0.8,2.2-2.6,3.2c-1.8,1-4.1,1.8-7.1,2.4c-3,0.6-6.3,0.8-9.8,0.8s-6.7-0.2-9.8-0.8
		c-3-0.6-5.4-1.4-7.1-2.4c-1.8-1-2.6-2-2.6-3.2v-4.3C14.6,25.9,17.4,26.9,20.8,27.6z M20.8,37.3c3.4,0.7,7.2,1.1,11.1,1.1
		s7.8-0.4,11.2-1.1c3.5-0.7,6.2-1.8,8.2-3.2v4.3c0,1.2-0.8,2.2-2.6,3.2c-1.8,1-4.1,1.8-7.1,2.4c-3,0.6-6.2,0.8-9.7,0.8
		S25.1,44.6,22,44c-3-0.6-5.4-1.4-7.1-2.4c-1.8-1-2.6-2.1-2.6-3.2v-4.3C14.6,35.5,17.4,36.7,20.8,37.3z M20.8,47.1
		c3.5,0.7,7.2,1.1,11.2,1.1s7.8-0.4,11.2-1.1c3.5-0.7,6.2-1.8,8.2-3.2v4.3c0,1.2-0.8,2.2-2.6,3.2c-1.8,1-4.1,1.8-7.1,2.4
		c-3,0.6-6.3,0.8-9.8,0.8s-6.7-0.2-9.8-0.8c-3-0.6-5.4-1.4-7.1-2.4s-2.6-2.1-2.6-3.2v-4.3C14.6,45.2,17.4,46.4,20.8,47.1z"/>
</g>
<g>
	<polygon points="62.3,62.3 49.3,62.3 49.3,58.3 58.3,58.3 58.3,49.3 62.3,49.3 	"/>
	<rect x="26.3" y="58.3" width="11.5" height="4"/>
	<polygon points="14.8,62.3 1.8,62.3 1.8,49.3 5.8,49.3 5.8,58.3 14.8,58.3 	"/>
	<rect x="1.8" y="26.3" width="4" height="11.5"/>
	<polygon points="5.8,14.8 1.8,14.8 1.8,1.8 14.8,1.8 14.8,5.8 5.8,5.8 	"/>
	<rect x="26.3" y="1.8" width="11.5" height="4"/>
	<polygon points="62.3,14.8 58.3,14.8 58.3,5.8 49.3,5.8 49.3,1.8 62.3,1.8 	"/>
	<rect x="58.3" y="26.3" width="4" height="11.5"/>
</g>
</svg>
