<?xml version="1.0" encoding="utf-8"?>
<!-- Generator: Adobe Illustrator 19.2.0, SVG Export Plug-In . SVG Version: 6.00 Build 0)  -->
<svg version="1.1" id="Layer_1" xmlns="http://www.w3.org/2000/svg" xmlns:xlink="http://www.w3.org/1999/xlink" x="0px" y="0px"
	 viewBox="0 0 64 64" style="enable-background:new 0 0 64 64;" xml:space="preserve">
<style type="text/css">
	.st0{display:none;}
	.st1{display:inline;}
	.st2{fill:#1D1D1B;}
</style>
<g>
	<path class="st2" d="M57.2,23.7c-0.1,0.2-0.2,0.4-0.3,0.6c-0.4,0.5-1.2,1.4-2.8,1.4c-0.6,0-1.2-0.1-2-0.2c-1.1-0.2-2.7-0.5-4.4-0.5
		c-2.5,0-4.7,0.5-6.8,1.6c-2.8,1.4-6,3.9-9.2,6.5H36v6.6h-8.5v-3.3c-1.2,1-2.4,2-3.6,2.9V64h40L64,25.5v-1.8H57.2z M36,60.4h-8.5
		v-6.8H36V60.4z M36,50h-8.5v-6.7H36V50z M48.2,60.4h-8.5v-6.8h8.5V60.4z M48.2,50h-8.5v-6.7h8.5V50z M48.2,39.7h-8.5v-6.6h8.5V39.7
		z M60.4,60.4h-8.5v-6.8h8.5V60.4z M60.4,50h-8.5v-6.7h8.5V50z M60.4,39.7h-8.5v-6.6h8.5V39.7z"/>
	<path class="st2" d="M14.1,37.4c1-1.9,4.1-13,0.3-22.6c-1.1-2.7-2.7-5.3-5.1-7.5c-2-1.9-4.5-3.4-7.7-4.6c-2.7-1-5.9-1.7-9.6-2
		c4.4,2.1,7.6,4.6,9.2,6c0,0,3.4,2.5,6,7.2c2.3,4.1,4.1,10,4.1,10c1.2,3.8,2,8,2.4,10.6C14,36.3,14.1,37.4,14.1,37.4z"/>
	<path class="st2" d="M39.4,23.9c0.2-0.1,0.3-0.1,0.5-0.2c7.8-3.8,15,0.1,14.5-1.4c-0.9-3.3-8.3-7.2-8.3-7.2
		c-3.2-3.7-6.8-4.6-9.1-5.1c-4.2-0.8-8.5,0.1-10.6,0.6C20.5,2.8,8.9,1,4.3,0.6C3.1,0.5,2.4,0.5,2.4,0.5c3.7,1.2,6.7,2.8,8.9,4.6
		C12.5,6,13.5,7,14.3,8l1.9-0.1L15,9c0.3,0.5,0.7,0.9,0.9,1.4l3.2-0.5l-2.3,2.4c0.2,0.6,0.3,1.1,0.5,1.7c4.6,17.8-4.5,28.6-4.5,28.6
		c0.8-0.3,1.7-0.7,2.5-1.1c2.7-1.4,5.6-3.6,8.5-6C29.2,31.2,34.6,26.3,39.4,23.9z M39,14.1c0.9,0,2.7,0.7,4.1,1.9
		c0.1,0.1-0.8,0.3-1.8,0.2c-0.7,0-1.7-0.3-2.5-1.1C38.1,14.4,38.3,14.1,39,14.1z"/>
</g>
</svg>
