<?xml version="1.0" encoding="utf-8"?>
<!-- Generator: Adobe Illustrator 19.2.0, SVG Export Plug-In . SVG Version: 6.00 Build 0)  -->
<svg version="1.1" id="Layer_1" xmlns="http://www.w3.org/2000/svg" xmlns:xlink="http://www.w3.org/1999/xlink" x="0px" y="0px"
	 viewBox="0 0 64 64" style="enable-background:new 0 0 64 64;" xml:space="preserve">
<style type="text/css">
	.st0{display:none;}
	.st1{display:inline;}
	.st2{fill:#1D1D1B;}
</style>
<g>
	<path class="st2" d="M31.3,52.9c-1.3,0-2.3,0.4-3.2,1.3c-0.9,0.9-1.3,2-1.3,3.2c0,1.3,0.4,2.3,1.3,3.2c0.9,0.9,2,1.3,3.2,1.3
		c1.3,0,2.3-0.4,3.2-1.3c0.9-0.9,1.3-2,1.3-3.2c0-1.3-0.4-2.3-1.3-3.2C33.6,53.4,32.6,52.9,31.3,52.9z"/>
	<path class="st2" d="M57.2,48.6c-1.7-3.8-4-7.1-6.9-10c-2.9-2.9-6.3-5.3-10-6.9c-1.5-0.7-3-1.2-4.6-1.6c-2.1,1.6-4.3,3.3-6.4,5.1
		c-0.1,0.1-0.1,0.1-0.2,0.2c3.1,0.3,6.1,1,8.9,2.3c3,1.4,5.7,3.2,7.9,5.5s4.1,4.9,5.5,7.9c1.4,3,2.2,6.3,2.4,9.7H60
		C59.8,56.5,58.9,52.3,57.2,48.6z"/>
	<path class="st2" d="M41.7,47c-1.8-1.8-3.8-3.2-6.1-4.3c-2.3-1.1-4.7-1.7-7.2-1.9h-0.3V47c3.6,0.3,6.7,1.8,9.2,4.4s4,5.6,4.4,9.2
		h6.2c-0.2-2.5-0.8-5.2-1.9-7.5C44.9,50.8,43.5,48.8,41.7,47z"/>
	<path class="st2" d="M14.1,37.4c1-1.9,4.1-13,0.3-22.6c-1.1-2.7-2.7-5.3-5.1-7.5c-2-1.9-4.5-3.4-7.7-4.6c-2.7-1-5.9-1.7-9.6-2
		c4.4,2.1,7.6,4.6,9.2,6c0,0,3.4,2.5,6,7.2c2.3,4.1,4.1,10,4.1,10c1.2,3.8,2,8,2.4,10.6C14,36.3,14.1,37.4,14.1,37.4z"/>
	<path class="st2" d="M31.7,29.1c2.7-2.1,5.3-4,7.7-5.2c8-4.2,15.5-0.1,15-1.6c-0.9-3.3-8.3-7.2-8.3-7.2c-3.2-3.7-6.8-4.6-9.1-5.1
		c-4.2-0.8-8.5,0.1-10.6,0.6C20.5,2.8,8.9,1,4.3,0.6C3.1,0.5,2.4,0.5,2.4,0.5c3.7,1.2,6.7,2.8,8.9,4.6C12.5,6,13.5,7,14.3,8l1.9-0.1
		L15,9c0.3,0.5,0.7,0.9,0.9,1.4l3.2-0.5l-2.3,2.4c0.2,0.6,0.3,1.1,0.5,1.7c4.6,17.8-4.5,28.6-4.5,28.6c0.8-0.3,1.7-0.7,2.5-1.1
		c3.9-2.1,8.4-5.8,12.8-9.4C29.3,31,30.5,30.1,31.7,29.1z M39,14.1c0.9,0,2.7,0.7,4.1,1.9c0.1,0.1-0.8,0.3-1.8,0.2
		c-0.7,0-1.7-0.3-2.5-1.1C38.1,14.4,38.3,14.1,39,14.1z"/>
</g>
</svg>
