<?xml version="1.0" encoding="utf-8"?>
<!-- Generator: Adobe Illustrator 19.2.0, SVG Export Plug-In . SVG Version: 6.00 Build 0)  -->
<svg version="1.1" id="Layer_1" xmlns="http://www.w3.org/2000/svg" xmlns:xlink="http://www.w3.org/1999/xlink" x="0px" y="0px"
	 viewBox="0 0 64 64" style="enable-background:new 0 0 64 64;" xml:space="preserve">
<style type="text/css">
	.st0{display:none;}
	.st1{display:inline;}
</style>
<g class="st0">
	<rect class="st1" width="64" height="64"/>
</g>
<g>
	<path d="M47.2,52.6c-11.2,0-16,0-27.4,0c4.1-15.3,8.1-30.1,12.1-45c3.9,0,1.4,0,5.3,0c5.6,0,5.1,3.9,4.6,5.8
		c-0.8,3.3-1.6,6.5-2.5,10c7.3,0,8,0,15.5,0c5.9,0,5.1,4.3,4.6,6.3c-1.4,5.5-2.9,10.9-4.4,16.3C54.3,48.2,54.2,52.6,47.2,52.6z"/>
	<path d="M15.8,52.6c-3.7,0-7.3,0-11.5,0c2.6-9.8,5.1-19.3,7.7-29c3.7,0,7.1,0,11.2,0C21.3,33.5,18.2,42.8,15.8,52.6z"/>
</g>
</svg>
