<?xml version="1.0" encoding="utf-8"?>
<!-- Generator: Adobe Illustrator 19.2.0, SVG Export Plug-In . SVG Version: 6.00 Build 0)  -->
<svg version="1.1" id="Layer_1" xmlns="http://www.w3.org/2000/svg" xmlns:xlink="http://www.w3.org/1999/xlink" x="0px" y="0px"
	 viewBox="0 0 64 64" style="enable-background:new 0 0 64 64;" xml:space="preserve">
<g>
	<path d="M12.1,33.3c-3.8-0.7-6.8-1.9-9-3.5v4.7c0,1.2,0.9,2.4,2.8,3.5c1.6,0.9,3.7,1.7,6.1,2.3c2.2-1.7,5.5-3.9,9.6-5.8
		C18.3,34.3,15.1,33.9,12.1,33.3z"/>
	<path d="M5.9,17c1.9,1.1,4.5,2,7.7,2.6c3.3,0.6,6.8,0.9,10.6,0.9s7.3-0.3,10.6-0.9c3.3-0.7,5.8-1.5,7.7-2.6
		c1.9-1.1,2.8-2.2,2.8-3.5V10c0-1.3-0.9-2.4-2.8-3.5c-1.9-1.1-4.5-2-7.7-2.6C31.5,3.3,28,3,24.2,3s-7.4,0.3-10.6,0.9
		c-3.2,0.6-5.8,1.5-7.7,2.6C4,7.6,3.1,8.7,3.1,10v3.5C3.1,14.8,4,15.9,5.9,17z"/>
	<path d="M8.8,43c-2.3-0.7-4.2-1.6-5.8-2.6v4.7c0,1.2,0.9,2.4,2.8,3.5c1.4,0.8,3.2,1.5,5.3,2.1c-1.4-1.4-2.2-2.4-2.3-2.6
		C7.6,46.6,7.6,44.5,8.8,43z"/>
	<path d="M5.8,27.5c1.9,1.1,4.5,2,7.7,2.6c3.3,0.6,6.8,0.9,10.6,0.9c3.8,0,7.4-0.3,10.6-0.9c3.3-0.7,5.8-1.5,7.7-2.6
		c1.9-1.1,2.8-2.2,2.8-3.5v-4.7c-2.2,1.6-5.1,2.7-8.9,3.5c-3.7,0.8-7.8,1.2-12.1,1.2s-8.3-0.4-12.1-1.2C8.3,22,5.3,20.9,3,19.3V24
		C3,25.3,3.9,26.4,5.8,27.5z"/>
</g>
<path d="M37.8,34.5c-14.5,0-26.2,11.1-26.2,11.1s11.8,14.6,26.2,14.6S64,45.6,64,45.6S52.2,34.5,37.8,34.5z M37.8,56.8
	c-9.3,0-17.5-7.1-21.4-10.8c4-2.9,12.1-8.1,21.4-8.1c0.8,0,1.5,0.1,2.2,0.1c0.4,0.8,0.8,1.9,0.8,2.9c0,3.4-2.8,6.1-6.1,6.1
	c-2.9,0-5.4-2-6-4.7c-0.1,0.6-0.2,1.2-0.2,1.8c0,5.2,4.2,9.4,9.4,9.4s9.4-4.2,9.4-9.4c0-1.9-0.5-3.6-1.4-5
	c5.8,1.7,10.6,4.8,13.4,6.9C55.3,49.8,47,56.8,37.8,56.8z"/>
</svg>
