<?xml version="1.0" encoding="utf-8"?>
<!-- Generator: Adobe Illustrator 19.2.0, SVG Export Plug-In . SVG Version: 6.00 Build 0)  -->
<svg version="1.1" id="Layer_1" xmlns="http://www.w3.org/2000/svg" xmlns:xlink="http://www.w3.org/1999/xlink" x="0px" y="0px"
	 viewBox="0 0 64 64" style="enable-background:new 0 0 64 64;" xml:space="preserve">
<style type="text/css">
	.st0{display:none;}
	.st1{display:inline;}
	.st2{clip-path:url(#SVGID_2_);}
</style>
<g class="st0">
	<rect class="st1" width="64" height="64"/>
</g>
<g>
	<defs>
		<rect id="SVGID_1_" width="64" height="64"/>
	</defs>
	<clipPath id="SVGID_2_">
		<use xlink:href="#SVGID_1_"  style="overflow:visible;"/>
	</clipPath>
	<path class="st2" d="M5.9,36c4.9,0,8.9,4,8.9,8.9c0,0,0,0,0,0h0v7.5c1.9,1.6,3.9,2.9,6.1,3.9v-4.9c0-0.8,0.7-1.5,1.5-1.5
		s1.5,0.7,1.5,1.5v6c2.1,0.6,4.3,1,6.6,1.1v-6.2c0-0.8,0.7-1.5,1.5-1.5s1.5,0.7,1.5,1.5v6.2c2.3-0.1,4.5-0.5,6.6-1.1v-6
		c0-0.8,0.7-1.5,1.5-1.5s1.5,0.7,1.5,1.5v4.9c2.2-1,4.2-2.3,6.1-3.9v-7.5h0c0,0,0,0,0,0c0-4.9,4-8.9,8.9-8.9c0.1,0,0.2,0,0.3,0
		c0.2-1.3,0.3-2.6,0.3-4c0-7.4-2.6-13.7-7.8-18.9C45.7,7.9,39.4,5.3,32,5.3s-13.7,2.6-18.9,7.8C7.8,18.4,5.2,24.6,5.2,32
		c0,1.4,0.1,2.7,0.3,4C5.6,36,5.8,36,5.9,36z M43.1,20.3c3.6,0,6.5,2.9,6.5,6.5s-2.9,6.5-6.5,6.5s-6.5-2.9-6.5-6.5
		S39.6,20.3,43.1,20.3z M21.6,20.3c3.6,0,6.5,2.9,6.5,6.5s-2.9,6.5-6.5,6.5s-6.5-2.9-6.5-6.5S18.1,20.3,21.6,20.3z"/>
</g>
</svg>
