<svg width="66" height="92" viewBox="0 0 66 92" fill="none" xmlns="http://www.w3.org/2000/svg">
<g clip-path="url(#clip0_2_9693)">
<path d="M43.9516 34.649C42.6587 33.5806 23.4788 34.1148 22.8891 34.649C21.982 35.4697 20.7648 69.9137 22.8891 71.9645C24.5265 73.5442 44.7956 73.3404 46.0579 71.9645C47.8937 69.9612 45.1563 35.6454 43.9516 34.649Z" fill="#131C26"/>
<path d="M18.8913 57.1595C18.9183 61.0799 14.3325 75.4368 15.1819 75.7232C16.226 76.0747 17.1403 73.0733 18.1375 73.2437C19.0698 73.4036 15.6183 81.914 16.9491 82.5625C18.7723 83.4516 20.5251 74.2928 21.6395 74.5002C23.0136 74.7567 20.3916 81.9597 21.8 82.2075C24.8097 82.7382 28.8527 58.5899 28.4776 57.467C27.6752 55.0613 18.8913 57.0259 18.8931 57.1577L18.8913 57.1595Z" fill="#131C26"/>
<path d="M29.4876 38.1653C28.218 37.1531 24.1822 37.7119 22.9506 38.7697C20.5883 40.8011 20.206 50.756 20.206 50.756C20.206 50.756 21.6071 59.6355 22.6567 60.1398C23.488 60.5387 31.592 53.8242 32.261 47.3276C32.5063 44.9518 31.3828 39.6783 29.4858 38.1653H29.4876Z" fill="#131C26"/>
<path d="M23.845 61.463C21.1559 61.463 18.976 59.3388 18.976 56.7184C18.976 54.098 21.1559 51.9738 23.845 51.9738C26.534 51.9738 28.7139 54.098 28.7139 56.7184C28.7139 59.3388 26.534 61.463 23.845 61.463Z" fill="#131C26"/>
<path d="M45.2915 33.0956C46.433 32.962 47.4014 30.3771 48.3571 29.7568C49.3345 29.1224 51.87 28.5671 52.5047 27.6041C52.9015 27.0032 53.1359 25.759 52.1441 25.0262C51.2316 24.3514 45.2987 24.6221 42.8426 24.7486C37.6455 25.0139 24.5806 26.6236 22.2075 27.4284C20.3086 28.0733 14.6372 30.2558 15.6398 31.9534C17.023 34.2958 24.5536 38.2936 24.5536 38.2936C24.5536 38.2936 40.1972 33.6895 45.2915 33.0956Z" fill="#388EE9"/>
<path d="M1.6936 16.4877C1.68278 16.6441 13.3916 19.9196 15.0687 20.0321C18.3723 20.2535 20.2189 21.5715 22.4766 18.3451C24.1375 15.9711 24.3936 12.9205 24.3936 12.9205C12.205 17.5192 1.70983 16.2276 1.6918 16.4877H1.6936Z" fill="#57577D"/>
<path d="M1.21217 16.4894C3.97483 10.2283 12.9733 8.99823 12.9733 8.99823C12.9733 8.99823 22.2819 11.6482 24.3774 12.9204C24.4153 12.9433 22.4677 16.0396 21.5011 16.2557C20.2514 16.5351 1.21217 16.4894 1.21217 16.4894Z" fill="#7995A5"/>
<path d="M19.2956 5.7806C24.2943 -2.77024 55.5185 1.13791 56.0216 3.04454C56.0883 3.7984 49.8399 3.35206 49.8435 4.07781C49.8435 4.07781 49.8435 4.07957 49.8453 4.08132C49.8994 4.13404 49.9517 4.18676 50.004 4.24123C51.4881 5.34831 62.9337 11.0524 62.7948 12.8009C62.692 14.103 54.5501 11.2896 54.8531 11.9521C55.376 13.0926 66.7765 25.606 65.3573 27.0241C64.425 27.9555 55.7313 20.1339 55.4139 20.4274C55.0406 20.7735 58.5985 25.8274 58.1206 26.2C57.6301 26.5813 52.5286 21.0863 52.1391 21.4765C51.8542 21.7629 53.6863 25.0208 53.3509 25.2546C52.5881 25.7835 48.5217 22.4148 48.0745 22.7294C47.7517 22.9561 49.2628 26.2913 48.5487 26.9187C47.62 27.7323 44.0315 24.0069 42.4175 25.8942C42.2642 26.2421 42.0929 26.5795 41.9054 26.9081C41.9054 26.9117 41.9036 26.9152 41.9018 26.9187C41.8819 26.9872 41.835 27.0575 41.7773 27.126C39.8207 30.3664 36.2069 32.5419 32.0702 32.5419C29.2805 32.5419 26.7306 31.5508 24.7632 29.9148C24.7614 29.9148 24.7578 29.9148 24.756 29.9131C24.2114 29.667 23.3999 28.7568 22.6605 27.5935C22.1682 26.8642 21.7625 26.0734 21.4577 25.237C21.2107 24.5956 21.0358 23.9542 20.9618 23.3532C20.9348 23.188 20.9113 23.0228 20.8915 22.8559C20.3072 20.3922 14.2986 20.886 14.5421 20.0917C14.7981 19.2588 17.9305 20.6259 19.5264 20.2885C20.2802 20.1286 20.5002 19.9845 20.9564 19.7543C21.3874 17.2977 22.5127 15.3173 24.2583 13.6777C24.2871 13.2964 24.2583 13.0029 24.1609 12.8448C23.811 12.2737 14.5276 12.6163 14.2986 11.6147C14.2662 11.5427 14.9821 10.7238 14.8504 10.6816C14.634 10.6113 13.5304 11.3371 13.4222 11.2949C13.0039 11.214 14.259 10.114 14.1616 10.0121C14.0894 9.96815 12.7803 10.4795 12.6035 10.2142C12.4935 10.0507 13.4096 9.46381 13.3284 9.2547C13.2383 9.06316 12.1978 9.37244 12.2753 9.16508C12.764 7.85944 18.4751 7.19168 19.2974 5.78411L19.2956 5.7806Z" fill="#131C26"/>
<path d="M30.5825 16.862C27.5639 16.862 25.1167 14.4773 25.1167 11.5357C25.1167 8.59412 27.5639 6.20947 30.5825 6.20947C33.6012 6.20947 36.0483 8.59412 36.0483 11.5357C36.0483 14.4773 33.6012 16.862 30.5825 16.862Z" fill="#EEEEEE"/>
<path d="M28.7971 9.41471C29.0748 9.41471 29.3327 9.48324 29.5653 9.59571C29.3057 9.77495 29.1343 10.0684 29.1343 10.4023C29.1343 10.9488 29.5888 11.3899 30.1478 11.3899C30.2758 11.3899 30.3984 11.3635 30.5103 11.3213C30.4003 12.1525 29.6789 12.7957 28.7971 12.7957C27.8378 12.7957 27.0605 12.0383 27.0605 11.1034C27.0605 10.1686 27.8378 9.41119 28.7971 9.41119V9.41471Z" fill="#131C26"/>
<path d="M44.7128 33.7792C45.8543 33.6456 47.4015 30.3789 48.3573 29.7568C49.3347 29.1224 51.8701 28.5672 52.5049 27.6042C52.9016 27.0032 52.9124 25.274 52.339 25.6273C45.1402 30.0643 45.1709 26.4637 44.9148 26.9153C43.3748 29.6391 23.3112 31.3331 20.8083 31.5563C18.509 31.7619 15.2938 31.3559 15.6382 31.9534C16.9997 34.3081 24.5519 38.2936 24.5519 38.2936C24.5519 38.2936 39.6167 34.3731 44.711 33.7792H44.7128Z" fill="#388EE9"/>
<path d="M5.17383 52.6416H13.5718C14.3148 52.6416 14.9369 52.0898 15.0072 51.3693L16.3254 37.798H1.98199L3.25872 50.9458C3.35249 51.9088 4.18201 52.6433 5.17383 52.6433V52.6416Z" fill="#253353"/>
<path d="M1.92062 35.6454H2.12079C2.23801 34.96 2.52834 33.6315 3.02064 33.6315H15.2867C15.779 33.6315 16.0693 34.96 16.1865 35.6454H16.3867C17.1838 35.6454 17.8293 36.2745 17.8293 37.0512V37.436C17.8293 38.2127 17.1838 38.8418 16.3867 38.8418H1.91882C1.12176 38.8418 0.476181 38.2127 0.476181 37.436V37.0512C0.476181 36.2745 1.12176 35.6454 1.91882 35.6454H1.92062Z" fill="#2EC4EA"/>
<path d="M38.531 83.7487C36.7674 83.9244 36.1849 76.2469 35.6782 73.0329C35.8026 72.3845 36.2859 71.8801 36.8702 71.7694C37.6366 71.6253 38.495 72.1789 38.6825 73.0839C39.0504 76.1766 40.5489 83.5448 38.531 83.7469V83.7487Z" fill="#7995A5"/>
<path d="M39.7212 98.6098C38.5455 98.5113 36.5564 82.4676 38.3525 82.2321C40.3109 81.9738 41.2883 98.7415 39.7212 98.6098Z" fill="#7995A5"/>
<path d="M38.4814 83.9499C37.4588 83.9334 36.6389 83.3827 36.6501 82.7199C36.6614 82.0571 37.4996 81.5333 38.5223 81.5498C39.545 81.5663 40.3649 82.117 40.3536 82.7798C40.3423 83.4425 39.5041 83.9664 38.4814 83.9499Z" fill="#57577D"/>
<path d="M28.8909 83.6626C27.1183 83.6697 27.3094 75.9728 27.1291 72.7254C27.3185 72.0928 27.8486 71.6359 28.4419 71.5832C29.2191 71.5147 30.0162 72.1455 30.1118 73.0646C30.1677 76.1767 30.9179 83.6538 28.8891 83.6626H28.8909Z" fill="#7995A5"/>
<path d="M28.5807 98.5659C27.4211 98.3568 27.0533 82.2005 28.8656 82.1355C30.8402 82.0652 30.1261 98.8453 28.5807 98.5659Z" fill="#7995A5"/>
<path d="M28.8229 83.859C27.8068 83.7449 27.0462 83.1186 27.124 82.4601C27.2018 81.8016 28.0886 81.3603 29.1048 81.4743C30.1209 81.5883 30.8815 82.2146 30.8037 82.8731C30.7258 83.5316 29.839 83.973 28.8229 83.859Z" fill="#57577D"/>
<path d="M60.4391 91.8812C60.174 92.4875 58.7007 91.412 58.5006 91.6616C58.2301 91.999 59.8675 94.2975 59.4329 94.663C59.1173 94.9283 57.2076 93.7404 56.9984 93.9899C56.7279 94.3115 57.754 96.8648 56.9984 97.153C55.976 97.5431 54.5027 94.4873 53.8571 94.6489C53.3305 94.7807 53.9779 97.4166 53.0005 97.5396C51.52 97.7259 50.9718 93.9899 50.4308 94.0339C49.8538 94.0813 50.1152 95.9229 49.0332 95.8351C47.4788 95.7085 39.5353 72.6955 40.4063 72.1103C42.4746 70.7203 61.229 90.08 60.4391 91.8812Z" fill="#131C26"/>
<path d="M22.1916 74.161C22.1123 74.4545 16.3002 75.6688 16.1199 75.4491C15.2633 74.4106 24.6008 38.2778 24.6008 38.2778C24.6008 38.2778 22.3233 73.676 22.1916 74.161Z" fill="#388EE9"/>
<path d="M21.8922 37.1092C22.6767 37.0143 24.6531 37.9386 24.6008 38.3076C24.2113 41.0964 16.1451 74.1294 16.1451 74.1294C16.1451 74.1294 20.5073 37.2778 21.8922 37.1092Z" fill="#388EE9"/>
<path d="M25.1813 74.1804C24.79 73.7305 24.6006 38.2795 24.6006 38.2795L56.7661 84.8522C56.7661 84.8522 25.8287 74.9237 25.1813 74.1804Z" fill="#388EE9"/>
<path d="M29.0149 50.7878C24.696 49.9091 9.95757 41.7959 9.44724 42.6165C8.81789 43.6252 11.9087 45.2752 11.4904 46.2786C11.0991 47.2153 2.53338 41.6412 1.51091 42.8818C0.109743 44.5811 9.78266 48.5314 9.29576 49.6473C8.69526 51.0232 1.37746 46.6178 0.778769 48.0306C-0.501575 51.0531 25.1324 60.8639 26.456 60.7321C29.2872 60.4492 29.1591 50.8194 29.0149 50.7895V50.7878Z" fill="#131C26"/>
<path d="M40.8572 38.1284C39.6689 36.8105 35.1985 36.7138 33.6729 37.6434C30.7425 39.4306 28.5046 50.1375 28.5046 50.1375C28.5046 50.1375 28.3928 59.9905 29.4369 60.7198C30.2628 61.2962 40.2657 55.441 42.1808 48.5261C42.8805 45.9974 42.6335 40.0948 40.859 38.1284H40.8572Z" fill="#131C26"/>
<path d="M28.1493 61.0484C25.1266 61.0484 22.6763 58.6606 22.6763 55.7151C22.6763 52.7696 25.1266 50.3818 28.1493 50.3818C31.172 50.3818 33.6223 52.7696 33.6223 55.7151C33.6223 58.6606 31.172 61.0484 28.1493 61.0484Z" fill="#131C26"/>
<path d="M24.6298 38.2935C24.6244 36.9211 43.8854 32.4102 44.9764 33.9461C46.0584 35.4696 56.999 85.0279 56.999 85.0279C56.999 85.0279 46.2333 84.1528 31.9908 60.4245C26.4006 51.111 24.6352 39.4727 24.6298 38.2935Z" fill="#2EC4EA"/>
<path d="M44.915 26.9171C43.3714 29.7691 20.3613 31.6617 20.3613 31.6617C20.3613 31.6617 23.3926 30.9886 24.9561 30.3138" stroke="#253353" stroke-width="0.5" stroke-miterlimit="10"/>
</g>
<defs>
<clipPath id="clip0_2_9693">
<rect width="65" height="91" fill="white" transform="matrix(-1 0 0 1 65.46 0.488281)"/>
</clipPath>
</defs>
</svg>
