<?xml version="1.0" encoding="UTF-8"?><svg id="a" xmlns="http://www.w3.org/2000/svg" viewBox="0 0 135 113"><defs><style>.b{fill:#487cd6;}.c{fill:#2f9ef3;}.d{fill:#4471cc;}</style></defs><g><g><path class="b" d="M24.06,.79l-2.61,4.58L1.4,40.59l-.85,1.48,.85,1.48,20.06,35.22,2.61,4.58,2.61-4.58,20.06-35.22,.85-1.48-.85-1.48L26.67,5.37,24.06,.79h0Z"/><polygon class="c" points="24.06 77.29 4 42.07 24.06 6.85 44.12 42.07 24.06 77.29"/></g><polygon class="d" points="24.06 77.29 30.55 42.07 44.12 42.07 24.06 77.29"/><polygon class="b" points="24.06 6.85 30.55 42.07 44.12 42.06 24.06 6.85"/></g><g><g><path class="b" d="M110.94,.79l-2.61,4.58-20.06,35.22-.85,1.48,.85,1.48,20.06,35.22,2.61,4.58,2.61-4.58,20.06-35.22,.85-1.48-.85-1.48L113.54,5.37l-2.61-4.58h0Z"/><polygon class="c" points="110.94 77.29 90.88 42.07 110.94 6.85 131 42.07 110.94 77.29"/></g><polygon class="d" points="110.94 77.29 117.42 42.07 131 42.07 110.94 77.29"/><polygon class="b" points="110.94 6.85 117.42 42.07 131 42.06 110.94 6.85"/></g><g><g><path class="b" d="M67.5,29.65l-2.61,4.58-20.06,35.22-.85,1.48,.85,1.48,20.06,35.22,2.61,4.58,2.61-4.58,20.06-35.22,.85-1.48-.85-1.48-20.06-35.22-2.61-4.58h0Z"/><polygon class="c" points="67.5 106.15 47.44 70.93 67.5 35.71 87.56 70.93 67.5 106.15"/></g><polygon class="d" points="67.5 106.15 73.98 70.93 87.56 70.93 67.5 106.15"/><polygon class="b" points="67.5 35.71 73.98 70.93 87.56 70.92 67.5 35.71"/></g></svg>