<svg xmlns="http://www.w3.org/2000/svg" viewBox="0 0 100 60">
  <defs>
    <style>
      .a {
        fill: #ed5580;
      }

      .b {
        fill: #7bd85d;
      }

      .c {
        fill: #51d27a;
      }

      .d {
        fill: #edcd51;
      }

      .e {
        fill: #f0bf54;
      }

      .f {
        fill: #ee9d5f;
      }

      .g {
        fill: #f57564;
      }

      .h {
        fill: #d45598;
      }

      .i {
        fill: #ba50a1;
      }
    </style>
  </defs>
  <title>connect</title>
  <g>
    <path class="a" d="M30.963,24.551V18.8a2.416,2.416,0,0,0-.032-.384V17.9c-.037.031-.081.057-.118.088a4,4,0,0,0-1.556-1.762,13.305,13.305,0,0,0-4.745-1.931,29.7,29.7,0,0,0-6.5-.644,29.381,29.381,0,0,0-6.5.644,14.934,14.934,0,0,0-4.8,1.931,3.683,3.683,0,0,0-1.561,1.761c-.039-.031-.085-.055-.124-.087v.6A2.447,2.447,0,0,0,5,18.8v5.753c0,.965.533,1.738,1.706,2.575A9.963,9.963,0,0,0,8.681,28.19a12.034,12.034,0,0,1-3.659-1.964V32.88c0,.965.533,1.738,1.706,2.575a10.829,10.829,0,0,0,2.558,1.282,13.649,13.649,0,0,1-4.264-2.189V41.2a3.271,3.271,0,0,0,1.706,2.575,13.292,13.292,0,0,0,4.744,1.931,27.773,27.773,0,0,0,4.849.608c.541.023,1.091.036,1.655.036a28.873,28.873,0,0,0,6.45-.644,14.1,14.1,0,0,0,4.745-1.931A3.1,3.1,0,0,0,30.877,41.2V34.548a12.706,12.706,0,0,1-5.438,2.575l-.111.025a12.7,12.7,0,0,0,3.9-1.693,3.1,3.1,0,0,0,1.707-2.575V26.226A12.712,12.712,0,0,1,25.493,28.8c-.1.027-.214.046-.318.071a13,13,0,0,0,4.082-1.745A3.1,3.1,0,0,0,30.963,24.551ZM18.433,29.69c-.117,0-.232.011-.35.011l-.068,0h.023C18.173,29.7,18.3,29.692,18.433,29.69Z"/>
    <path class="b" d="M51.478,28.978h3.71V25.9h3.229a4.1,4.1,0,0,1,0,8.2H55.188V31.022h-3.71Z"/>
    <path class="b" d="M43.128,33.853h2.25V34.1H42.149a4.1,4.1,0,0,1,0-8.2h3.229v.247h-2.25Z"/>
    <g>
      <path class="c" d="M72.238,28.8h-8.67a5.3,5.3,0,0,0-5.15-4.1h-3.23a1.2,1.2,0,0,0-1.2,1.2v1.878h-2.51a1.2,1.2,0,0,0-1.2,1.2v2.044a1.2,1.2,0,0,0,1.2,1.2h2.51V34.1a1.2,1.2,0,0,0,1.2,1.2h3.23a5.3,5.3,0,0,0,5.15-4.1h8.67a1.2,1.2,0,1,0,0-2.4Zm-13.82,4.1H56.389V31.022A1.2,1.2,0,0,0,55.817,30a1.2,1.2,0,0,0,.572-1.022V27.1h2.029a2.9,2.9,0,0,1,0,5.8Z"/>
      <path class="c" d="M45.379,24.7h-3.23A5.3,5.3,0,0,0,37,28.8H28.328a1.2,1.2,0,0,0,0,2.4H37a5.3,5.3,0,0,0,5.15,4.1h3.23a1.2,1.2,0,0,0,1.2-1.2v-.247a1.2,1.2,0,0,0-1.2-1.2H44.328V27.347h1.051a1.2,1.2,0,0,0,1.2-1.2V25.9A1.2,1.2,0,0,0,45.379,24.7Zm-3.451,8.191a2.9,2.9,0,0,1,0-5.782Z"/>
    </g>
    <polygon class="d" points="82.163 30.069 69.327 22.629 69.327 37.347 82.163 44.788 82.163 30.069"/>
    <polygon class="e" points="82.163 30.069 69.327 37.347 82.163 44.788 82.163 30.069"/>
    <polygon class="e" points="94.999 37.346 82.163 44.786 82.163 30.068 94.999 22.628 94.999 37.346"/>
    <polygon class="d" points="82.163 30.068 94.999 22.629 88.581 18.92 82.163 15.212 69.327 22.629 75.745 26.349 82.163 30.068"/>
    <path class="f" d="M96.2,22.628c0-.014,0-.026,0-.04a1.2,1.2,0,0,0-.6-1h0L82.764,14.174a1.2,1.2,0,0,0-1.2,0L68.726,21.59a1.2,1.2,0,0,0-.6,1.038h0V37.347a1.2,1.2,0,0,0,.6,1.039l12.836,7.439a1.2,1.2,0,0,0,1.2,0l.006,0L95.6,38.385a1.2,1.2,0,0,0,.6-1.039V22.628Zm-3.6,0-10.44,6.051-4.024-2.332,10.442-6.042ZM82.163,16.6l4.021,2.324-10.438,6.04-4.023-2.331ZM70.527,24.712l4.018,2.329v2.768a1.2,1.2,0,1,0,2.4,0V28.432l4.018,2.329V42.705L70.527,36.656ZM83.363,42.7V30.76l4.852-2.813L93.8,24.711V36.655Z"/>
    <path class="g" d="M11.5,14.292a29.381,29.381,0,0,1,6.5-.644,29.7,29.7,0,0,1,6.5.644,13.3,13.3,0,0,1,4.745,1.931c1.172.837,1.706,1.609,1.706,2.575v5.753a3.1,3.1,0,0,1-1.706,2.575,14.1,14.1,0,0,1-4.745,1.931,30.6,30.6,0,0,1-6.557.643,29.768,29.768,0,0,1-6.5-.643,13.292,13.292,0,0,1-4.744-1.931C5.534,26.289,5,25.516,5,24.551V18.8a3.1,3.1,0,0,1,1.706-2.575,14.934,14.934,0,0,1,4.8-1.931Z"/>
    <g>
      <path class="a" d="M18.083,29.7a30.645,30.645,0,0,1-7.41-.9,14.136,14.136,0,0,1-5.651-2.574V32.88c0,.965.533,1.738,1.706,2.575a13.31,13.31,0,0,0,4.744,1.931,29.774,29.774,0,0,0,6.5.643c.444,0,.876-.014,1.308-.028q1.451-4.239,2.76-8.551A31.523,31.523,0,0,1,18.083,29.7Z"/>
      <path class="h" d="M25.493,28.8a27.61,27.61,0,0,1-3.449.65Q20.73,33.76,19.284,38a27.563,27.563,0,0,0,5.2-.615,14.118,14.118,0,0,0,4.745-1.931,3.1,3.1,0,0,0,1.706-2.575V26.226A12.712,12.712,0,0,1,25.493,28.8Z"/>
      <path class="a" d="M18.029,38.024a30.255,30.255,0,0,1-7.356-.9,14.137,14.137,0,0,1-5.651-2.575V41.2a3.271,3.271,0,0,0,1.706,2.575,13.292,13.292,0,0,0,4.744,1.931,27.678,27.678,0,0,0,4.849.608c1.016-2.764,2.013-5.537,2.969-8.331C18.869,38,18.449,38.024,18.029,38.024Z"/>
      <path class="h" d="M25.439,37.123a29.884,29.884,0,0,1-6.149.862c-.956,2.794-1.953,5.567-2.969,8.331.541.023,1.091.036,1.655.036a28.873,28.873,0,0,0,6.45-.644,14.1,14.1,0,0,0,4.745-1.931A3.1,3.1,0,0,0,30.877,41.2V34.548A12.706,12.706,0,0,1,25.439,37.123Z"/>
      <path class="a" d="M18.083,21.373a30.645,30.645,0,0,1-7.41-.9A14.136,14.136,0,0,1,5.022,17.9v6.654c0,.965.533,1.738,1.706,2.575a13.292,13.292,0,0,0,4.744,1.931,29.772,29.772,0,0,0,6.5.644,33.848,33.848,0,0,0,4.064-.238c.883-2.9,1.718-5.817,2.478-8.775A30.5,30.5,0,0,1,18.083,21.373Z"/>
      <path class="h" d="M25.493,20.471c-.315.082-.648.146-.975.217-.76,2.958-1.6,5.879-2.478,8.775a23.69,23.69,0,0,0,2.44-.406,14.1,14.1,0,0,0,4.745-1.931,3.1,3.1,0,0,0,1.706-2.575V17.9A12.712,12.712,0,0,1,25.493,20.471Z"/>
    </g>
    <path class="i" d="M32.163,18.8a4.455,4.455,0,0,0-2.209-3.552,14.491,14.491,0,0,0-5.181-2.126,31,31,0,0,0-6.764-.672,30.322,30.322,0,0,0-6.771.674h0a16.009,16.009,0,0,0-5.19,2.1A4.27,4.27,0,0,0,3.8,18.8v5.753a3.441,3.441,0,0,0,.18,1.091,1.189,1.189,0,0,0-.16.583V32.88a3.448,3.448,0,0,0,.171,1.057,1.2,1.2,0,0,0-.171.611V41.2a4.38,4.38,0,0,0,2.21,3.552,14.471,14.471,0,0,0,5.181,2.125,30.912,30.912,0,0,0,6.764.673,30.077,30.077,0,0,0,6.747-.681,15.023,15.023,0,0,0,5.108-2.092A4.273,4.273,0,0,0,32.077,41.2V34.548a1.191,1.191,0,0,0-.136-.53,3.561,3.561,0,0,0,.19-1.138V26.225a1.192,1.192,0,0,0-.149-.558,3.593,3.593,0,0,0,.181-1.116ZM25.139,35.961a29.489,29.489,0,0,1-14.172,0l-.032-.007c-.432-.1-.847-.218-1.255-.347a9.547,9.547,0,0,1-2.256-1.128c-1.057-.754-1.2-1.213-1.2-1.6V28.443a16.084,16.084,0,0,0,2.181.928,18.678,18.678,0,0,0,2.787.857,30.97,30.97,0,0,0,6.765.673l.054,0c.025,0,.049,0,.074,0,.173,0,.346-.013.519-.016.47-.008.937-.018,1.39-.042.1-.006.192-.014.289-.021a29.771,29.771,0,0,0,4.527-.6c.293-.074.574-.15.843-.226.042-.011.088-.018.13-.029A16.587,16.587,0,0,0,29.73,28.5V32.88c0,.22,0,.8-1.2,1.6a10.784,10.784,0,0,1-3.2,1.428C25.264,35.922,25.207,35.944,25.139,35.961ZM6.2,18.8c0-.221,0-.8,1.166-1.573a13.833,13.833,0,0,1,4.4-1.763,27.98,27.98,0,0,1,6.238-.614,28.618,28.618,0,0,1,6.236.614A12.14,12.14,0,0,1,28.559,17.2c1.058.754,1.2,1.213,1.2,1.6v5.753c0,.22,0,.805-1.2,1.6a11.324,11.324,0,0,1-3.508,1.521,27.882,27.882,0,0,1-4.962.761c-.079,0-.155.013-.235.017-.423.024-.848.031-1.274.038-.191,0-.376.013-.571.013a29.277,29.277,0,0,1-7.044-.863c-.632-.159-1.21-.333-1.748-.519A8.964,8.964,0,0,1,7.4,26.149c-1.057-.755-1.2-1.214-1.2-1.6ZM29.677,41.2c0,.22,0,.8-1.2,1.6a12.827,12.827,0,0,1-4.315,1.738,27.671,27.671,0,0,1-6.183.614,28.634,28.634,0,0,1-6.237-.614A12.137,12.137,0,0,1,7.425,42.8c-1.2-.858-1.2-1.415-1.2-1.6V36.754a15.76,15.76,0,0,0,2.916,1.2,19.664,19.664,0,0,0,2.074.6,30.912,30.912,0,0,0,6.764.673,30.337,30.337,0,0,0,6.8-.681c.365-.093.705-.188,1.035-.284a16.572,16.572,0,0,0,3.866-1.446Z"/>
  </g>
</svg>
