<?xml version="1.0" encoding="utf-8"?>
<!-- Generator: Adobe Illustrator 27.5.0, SVG Export Plug-In . SVG Version: 6.00 Build 0)  -->
<svg version="1.1" id="Layer_1" xmlns="http://www.w3.org/2000/svg" xmlns:xlink="http://www.w3.org/1999/xlink" x="0px" y="0px"
	 viewBox="0 0 101.4 68.5" style="enable-background:new 0 0 101.4 68.5;" xml:space="preserve">
<style type="text/css">
	.st0{fill:#ED5580;}
	.st1{fill:#BA50A1;}
	.st2{fill:#EDCD51;stroke:#F0AE5E;stroke-linecap:round;stroke-linejoin:round;stroke-miterlimit:10;}
	.st3{fill:#A64275;}
	.st4{fill:#F0BF54;}
	.st5{fill:#F0AE5E;}
	.st6{fill:#EE9D5F;}
</style>
<g>
	<g>
		<polygon class="st0" points="45.3,62.5 45.3,34.6 21,20.5 21,48.4 		"/>
		<polygon class="st0" points="45.3,34.6 69.6,20.5 57.5,13.5 45.3,6.5 21,20.5 33.1,27.6 		"/>
	</g>
	<g>
		<polygon class="st1" points="21,48.4 45.3,62.5 45.3,34.6 		"/>
		<polygon class="st1" points="45.3,34.6 45.3,62.5 69.6,48.4 69.6,20.5 		"/>
	</g>
	<g>
		<path class="st2" d="M45.8,21.7"/>
	</g>
	<path class="st3" d="M70.4,19.2C70.4,19.2,70.4,19.2,70.4,19.2L46.1,5.2c-0.5-0.3-1-0.3-1.5,0L20.2,19.2c0,0,0,0,0,0s0,0,0,0l0,0
		c0,0-0.1,0.1-0.1,0.1c-0.1,0-0.1,0.1-0.2,0.1c-0.1,0.1-0.1,0.1-0.1,0.2c0,0-0.1,0.1-0.1,0.1c0,0.1-0.1,0.1-0.1,0.2
		c0,0.1-0.1,0.2-0.1,0.3c0,0.1,0,0.2,0,0.2c0,0,0,0,0,0s0,0,0,0v27.9c0,0.5,0.3,1,0.7,1.3l24.3,14.1C44.8,64,45,64,45.3,64
		c0.3,0,0.5-0.1,0.7-0.2c0,0,0,0,0,0l24.3-14.1c0.5-0.3,0.7-0.8,0.7-1.3V20.5C71.1,20,70.9,19.5,70.4,19.2z M66.6,20.5L45.3,32.9
		l-9.2-5.3l21.3-12.4L66.6,20.5z M45.3,8.2l9.2,5.3L33.1,25.8L24,20.5L45.3,8.2z M22.5,23.1l9.2,5.3v5.7c0,0.8,0.7,1.5,1.5,1.5
		s1.5-0.7,1.5-1.5v-4l9.2,5.3l0,24.4L22.5,47.6V23.1z M46.8,59.9l0-24.4l21.3-12.4v24.4L46.8,59.9z"/>
	<g>
		<g>
			<polygon class="st4" points="69.1,9.1 72.5,17.3 81.3,18 74.6,23.7 76.7,32.3 69.1,27.7 61.6,32.3 63.6,23.7 56.9,18 65.7,17.3 
							"/>
		</g>
		<g>
			<polygon class="st5" points="72.5,17.3 81.3,18 74.6,23.7 76.7,32.3 69.1,27.7 61.6,32.3 			"/>
		</g>
		<g>
			<path class="st6" d="M76.7,33.5c-0.2,0-0.4-0.1-0.6-0.2l-6.9-4.2l-6.9,4.2c-0.4,0.3-0.9,0.2-1.3-0.1c-0.4-0.3-0.6-0.8-0.5-1.2
				l1.9-7.9l-6.1-5.3c-0.4-0.3-0.5-0.8-0.4-1.3c0.2-0.5,0.6-0.8,1-0.8l8.1-0.7L68,8.6c0.2-0.4,0.6-0.7,1.1-0.7s0.9,0.3,1.1,0.7
				l3.1,7.5l8.1,0.7c0.5,0,0.9,0.4,1,0.8c0.1,0.5,0,1-0.4,1.3L76,24.2l1.9,7.9c0.1,0.5-0.1,1-0.5,1.2C77.2,33.4,76.9,33.5,76.7,33.5
				z M59.9,18.9l4.5,3.9c0.3,0.3,0.5,0.8,0.4,1.2l-1.4,5.8l5.1-3.1c0.4-0.2,0.9-0.2,1.2,0l5.1,3.1L73.5,24c-0.1-0.4,0-0.9,0.4-1.2
				l4.5-3.9l-5.9-0.5c-0.4,0-0.8-0.3-1-0.7l-2.3-5.5l-2.3,5.5c-0.2,0.4-0.6,0.7-1,0.7L59.9,18.9z"/>
		</g>
	</g>
</g>
</svg>
