<?xml version="1.0" encoding="UTF-8"?>
<svg xmlns="http://www.w3.org/2000/svg" version="1.1" viewBox="0 0 1024 1024">
  <defs>
    <style>
      .cls-1 {
        fill-rule: evenodd;
      }
    </style>
  </defs>
  <!-- Generator: Adobe Illustrator 28.6.0, SVG Export Plug-In . SVG Version: 1.2.0 Build 709)  -->
  <g>
    <g id="Layer_1">
      <path class="cls-1" d="M730,490.6h39.6v39.6h-39.6v-39.6ZM888,685.7c0,13.9-2.1,26.2-8,36.8-6,10.9-15.6,20.1-28,27.2l-9.7,5.6c-96.9,55.9-193.5,111.6-290.3,167.5-27,15.6-53.2,15-80-.8-39.8-23.5-236.5-137.8-296-172.2-12.4-7.2-22-16.3-28-27.2-5.9-10.6-12-23-12-36.9,0-58,0-116.1,0-174.1,0-58,0-116.1,0-174.1,0-28.2,15.5-49.9,40-64.1,59.5-34.4,256.2-148.8,296-172.2,26.8-15.8,53-16.4,80-.8,86.3,49.8,172.4,99.5,258.7,149.2,13.8,7.9,27.6,15.9,41.3,23.8,12.1,7,22,15.9,28,26.5,6.1,10.8,8,23.4,8,37.6,0,116.1,0,348.2,0,348.2ZM756.2,651.2l-121.5-70.4v-.2c.2-.1.2-.2.3-.3,0-.2.2-.3.3-.5l-.5.8c-24,41.9-69.4,70.1-120.8,70.1s-96.8-28.2-120.8-70.1c-11.7-20.4-18.4-43.9-18.4-69.1,0-76.9,62.3-139.2,139.2-139.2h1.6c50.4.6,94.4,28,118.3,68.5l121.7-70c.2.3.3.5.5.8l-.5-.8h0c-48.5-83-138.5-138.8-241.6-138.8-154.4,0-279.5,125.2-279.5,279.5s13.5,98.1,37,139.1c48.2,83.9,138.8,140.4,242.5,140.4h3.1c102.2-1.1,191.2-57.1,239.1-139.9ZM829.1,470.8h-39.6v-39.6h-19.8v39.6h-39.6v-39.6h-19.8v39.6h-39.6v19.8h39.6v39.6h-39.6v19.8h39.6v39.6h19.8v-39.6h39.6v39.6h19.8v-39.6h39.6v-19.8h-39.6v-39.6h39.6v-19.8Z"/>
    </g>
  </g>
</svg>