<svg id="Layer_1" data-name="Layer 1" xmlns="http://www.w3.org/2000/svg" xmlns:xlink="http://www.w3.org/1999/xlink" viewBox="0 0 411 372"><defs><style>.cls-1{fill:none;}.cls-2{fill:#181826;}.cls-3{fill:#262936;}.cls-4{fill:#22252b;}.cls-5{fill:#272a31;}.cls-6{fill:#8f8fa2;}.cls-7{fill:#f0f4f6;}.cls-8{clip-path:url(#clip-path);}.cls-9{fill:#981a48;}.cls-10{fill:#ee9d5f;}.cls-11{fill:#edcd51;}.cls-12{fill:#51d27a;}.cls-13{fill:#2f9ef3;}.cls-14{fill:#7a61d4;}.cls-15{fill:#f75e71;}.cls-16{fill:#d45598;}.cls-17{fill:#e166bc;}.cls-18{opacity:0.5;}.cls-19{fill:#3b4654;}.cls-20{fill:#595b71;}.cls-21{fill:#353742;}.cls-22{opacity:0.4;}.cls-23{fill:#9457b5;}</style><clipPath id="clip-path"><path class="cls-1" d="M87.64,245.2a41.51,41.51,0,1,0,41.5,41.51A41.5,41.5,0,0,0,87.64,245.2Zm0,48.88A7.38,7.38,0,1,1,95,286.71,7.37,7.37,0,0,1,87.64,294.08Z"/></clipPath></defs><rect class="cls-2" x="-0.5" y="-0.29" width="412" height="373"/><path class="cls-3" d="M390.5,194.71H19.5v155h371v-155Z"/><rect class="cls-4" x="146.5" y="239.71" width="226" height="91"/><rect class="cls-5" x="146.5" y="239.71" width="226" height="21"/><rect class="cls-5" x="146.5" y="281.71" width="226" height="21"/><rect class="cls-6" x="38.5" y="210.71" width="100" height="12"/><rect class="cls-6" x="222.5" y="210.71" width="21" height="12"/><rect class="cls-7" x="143.5" y="210.71" width="57" height="12"/><g class="cls-8"><polygon class="cls-9" points="87.64 286.7 77.96 239.67 114.85 244.74 87.64 286.7"/><polygon class="cls-10" points="87.64 286.7 134.22 289.47 114.85 244.74 87.64 286.7"/><polygon class="cls-11" points="87.64 286.7 134.22 289.47 123.61 315.3 87.64 286.7"/><polygon class="cls-12" points="87.64 286.7 81.18 340.2 123.61 315.3 87.64 286.7"/><polygon class="cls-13" points="87.64 286.7 81.18 340.2 41.52 302.85 87.64 286.7"/><polygon class="cls-14" points="87.15 286.7 41.5 275.18 41.04 302.85 87.15 286.7"/><polygon class="cls-15" points="87.64 286.7 77.96 239.67 114.85 244.74 87.64 286.7"/><polygon class="cls-16" points="87.64 286.7 77.96 239.67 30 273.33 87.64 286.7"/></g><rect class="cls-6" x="302.5" y="310.71" width="44" height="7"/><rect class="cls-6" x="302.5" y="289.71" width="44" height="7"/><rect class="cls-6" x="302.5" y="268.71" width="46" height="7"/><rect class="cls-6" x="302.5" y="247.71" width="47" height="7"/><rect class="cls-17" x="182.5" y="247.71" width="29" height="7"/><rect class="cls-17" x="182.5" y="268.71" width="74" height="7"/><rect class="cls-17" x="182.5" y="289.71" width="78" height="7"/><rect class="cls-17" x="182.5" y="310.71" width="99" height="7"/><g class="cls-18"><rect class="cls-19" x="294.5" y="239.71" width="1" height="91"/></g><rect class="cls-15" x="158.5" y="246.71" width="11" height="11"/><rect class="cls-10" x="158.5" y="267.71" width="11" height="11"/><rect class="cls-11" x="158.5" y="288.71" width="11" height="11"/><rect class="cls-12" x="158.5" y="309.71" width="11" height="11"/><g class="cls-18"><rect class="cls-19" x="174.5" y="239.71" width="1" height="91"/></g><rect class="cls-3" x="19.5" y="22.71" width="371" height="163"/><rect class="cls-20" x="67.5" y="123.71" width="122" height="12"/><rect class="cls-20" x="67.5" y="153.71" width="46" height="12"/><rect class="cls-12" x="117.5" y="153.71" width="89" height="12"/><rect class="cls-17" x="81.5" y="73.71" width="90" height="20"/><path class="cls-20" d="M42,153.32a8.91,8.91,0,1,1-2.65,6.34A8.61,8.61,0,0,1,42,153.32Zm1.27,11.44a7.22,7.22,0,1,0-2.11-5.1,6.93,6.93,0,0,0,2.11,5.1Z"/><path class="cls-20" d="M49.5,160.71h-5v-2h3v-5h2Z"/><path class="cls-17" d="M39.5,86.71h25v-5h-25v5Zm3-4h2v2h-2v-2Z"/><path class="cls-17" d="M39.5,93.71h25v-5h-25v5Zm3-3h2v2h-2v-2Z"/><path class="cls-17" d="M39.5,78.71h25v-5h-25v5Zm3-3h2v2h-2v-2Z"/><path class="cls-20" d="M56.34,128.19l-3.46,3.46a4.86,4.86,0,0,1-6.89,0,4.92,4.92,0,0,1-.74-1l1.59-1.59c.07-.07.18-.1.25-.17a2.25,2.25,0,0,0,.6,1,2.44,2.44,0,0,0,3.46,0l3.46-3.46A2.45,2.45,0,1,0,51.15,123l-1.24,1.23a6.32,6.32,0,0,0-3.11-.35l2.62-2.61a4.89,4.89,0,0,1,6.92,6.92Zm-9.11,5.65L46,135.08a2.45,2.45,0,1,1-3.46-3.46L46,128.16a2.44,2.44,0,0,1,3.46,0,2.38,2.38,0,0,1,.6,1,.67.67,0,0,0,.25-.18l1.59-1.59a4.82,4.82,0,0,0-.74-1,4.88,4.88,0,0,0-6.89,0l-3.46,3.47a4.88,4.88,0,0,0,6.89,6.92l2.61-2.61a6.11,6.11,0,0,1-3.07-.36Z"/><path class="cls-21" d="M390.5,56.71H19.5v-34h371Z"/><rect class="cls-6" x="37.5" y="33.71" width="117" height="12"/><rect class="cls-2" x="222.5" y="73.71" width="150" height="93"/><g class="cls-18"><rect class="cls-19" x="344.5" y="73.71" width="1" height="93"/></g><g class="cls-18"><rect class="cls-19" x="361.5" y="73.71" width="1" height="93"/></g><g class="cls-18"><rect class="cls-19" x="312.5" y="73.71" width="1" height="93"/></g><g class="cls-18"><rect class="cls-19" x="328.5" y="73.71" width="1" height="93"/></g><g class="cls-18"><rect class="cls-19" x="280.5" y="73.71" width="1" height="93"/></g><g class="cls-18"><rect class="cls-19" x="264.5" y="73.71" width="1" height="93"/></g><g class="cls-18"><rect class="cls-19" x="296.5" y="73.71" width="1" height="93"/></g><g class="cls-18"><rect class="cls-19" x="232.5" y="73.71" width="1" height="93"/></g><g class="cls-18"><rect class="cls-19" x="248.5" y="73.71" width="1" height="93"/></g><g class="cls-18"><rect class="cls-19" x="222.5" y="165.71" width="150" height="1"/></g><g class="cls-22"><polyline class="cls-23" points="222.5 166.71 261 166.71 270.32 92.19 275.59 112.42 282.07 84.99 292.2 84.16 296.66 125.71 305.98 125.71 310.44 166.71 315.19 166.71 320.02 125.71 324.45 125.71 329.68 166.71 372.5 166.71"/></g><polygon class="cls-23" points="372.5 166.71 328.95 166.71 323.72 125.71 320.4 125.71 315.57 166.71 309.71 166.71 305.26 125.71 295.94 125.71 295.9 125.35 291.48 84.21 282.44 84.95 275.46 114.49 270.37 94.97 261.4 166.71 222.5 166.71 222.5 165.71 260.29 165.71 269.95 88.42 275.4 109.34 281.38 84.03 292.6 83.11 297.07 124.71 306.38 124.71 310.84 165.71 314.46 165.71 319.29 124.71 324.83 124.71 330.06 165.71 372.5 165.71 372.5 166.71"/><polygon class="cls-10" points="372.5 166.71 328.44 166.71 323.14 127.71 319.78 127.71 314.9 166.71 308.49 166.71 304.09 128.71 294.9 128.71 294.86 128.35 290.51 90.24 281.59 90.93 274.71 118.29 269.7 100.2 260.85 166.71 222.5 166.71 222.5 166.71 260.74 166.71 270.51 93.21 276.03 113.11 282.09 89.01 293.43 88.14 297.95 127.71 307.38 127.71 311.89 166.71 313.77 166.71 318.66 127.71 324.26 127.71 329.56 166.71 372.5 166.71 372.5 166.71"/><polygon class="cls-13" points="372.5 166.71 357.32 166.71 352.36 156.75 347.6 116.71 343.78 116.71 338.73 126.7 335.11 147.32 324.96 166.71 315.03 166.71 310.02 157.71 292.68 157.71 286 146.71 276.02 146.71 270.44 156.71 261.35 156.71 256.07 166.71 222.5 166.71 222.5 165.71 255.2 165.71 260.48 155.71 269.59 155.71 275.18 145.71 286.83 145.71 293.5 156.71 310.87 156.71 315.88 165.71 324.1 165.71 333.95 146.89 337.57 126.27 342.91 115.71 348.7 115.71 348.75 116.07 353.55 156.42 358.19 165.71 372.5 165.71 372.5 166.71"/><g class="cls-22"><polyline class="cls-13" points="222.5 166.71 255.85 166.71 261.13 156.71 270.02 156.71 275.6 146.71 286.42 146.71 293.09 157.71 310.45 157.71 315.46 166.71 324.58 166.71 334.59 147.59 338.19 127 343.4 116.71 348.2 116.71 353 157.11 357.81 166.71 372.5 166.71"/></g><g class="cls-22"><polyline class="cls-10" points="222.5 166.71 261.35 166.71 270.54 97.64 275.73 116.39 282.12 90.97 292.11 90.2 296.51 128.71 305.69 128.71 310.09 166.71 315.1 166.71 319.99 127.71 324.47 127.71 329.76 166.71 372.5 166.71"/></g></svg>