<?xml version="1.0" encoding="utf-8"?>
<!-- Generator: Adobe Illustrator 27.4.0, SVG Export Plug-In . SVG Version: 6.00 Build 0)  -->
<svg version="1.1" id="Layer_2_00000058560815631844055500000004337150515642674819_"
	 xmlns="http://www.w3.org/2000/svg" xmlns:xlink="http://www.w3.org/1999/xlink" x="0px" y="0px" viewBox="0 0 1080 640"
	 style="enable-background:new 0 0 1080 640;" xml:space="preserve">
<style type="text/css">
	.st0{enable-background:new    ;}
	.st1{fill:#EDCD51;}
	.st2{fill:#ED9C60;}
	.st3{fill:#F0BF54;}
	.st4{fill:#37C4AC;}
	.st5{fill:#518BEE;}
	.st6{fill:#597EB2;}
	.st7{fill:#7A61D4;}
	.st8{fill:#6B5DB2;}
	.st9{fill:#50A091;}
	.st10{fill:#D45598;}
	.st11{fill:#B2598C;}
	.st12{fill:#F38861;}
	.st13{fill:#CC8E7A;}
	.st14{fill:#F0AE5E;}
	.st15{fill:#E5A967;}
	.st16{fill:none;}
</style>
<g>
	<g class="st0">
		<g>
			<g>
				<polygon class="st1" points="649,437 648.6,578.5 539.6,612.9 540,471.3 				"/>
				<path class="st2" d="M539.6,615.9c-0.6,0-1.3-0.2-1.8-0.6c-0.8-0.6-1.2-1.5-1.2-2.4l0.4-141.5c0-1.3,0.9-2.5,2.1-2.9l109-34.3
					c0.9-0.3,1.9-0.1,2.7,0.4c0.8,0.6,1.2,1.5,1.2,2.4l-0.4,141.5c0,1.3-0.9,2.5-2.1,2.9l-109,34.3
					C540.2,615.8,539.9,615.9,539.6,615.9z M543,473.5l-0.4,135.2l103-32.4l0.4-135.2L543,473.5z"/>
			</g>
		</g>
		<g>
			<g>
				<polygon class="st3" points="540,471.3 539.6,612.9 429.9,578.5 430.3,437 				"/>
				<path class="st2" d="M539.6,615.9c-0.3,0-0.6,0-0.9-0.1L429,581.4c-1.3-0.4-2.1-1.6-2.1-2.9l0.4-141.5c0-1,0.5-1.8,1.2-2.4
					c0.8-0.6,1.8-0.7,2.7-0.4l109.7,34.3c1.3,0.4,2.1,1.6,2.1,2.9l-0.4,141.5c0,1-0.5,1.8-1.2,2.4
					C540.9,615.7,540.3,615.9,539.6,615.9z M432.9,576.3l103.7,32.5l0.4-135.2l-103.7-32.5L432.9,576.3z"/>
			</g>
		</g>
	</g>
</g>
<polygon class="st1" points="540,471.3 583.9,519.3 704.1,481.6 649,437 "/>
<g>
	<polygon class="st1" points="540,471.3 496.1,519.3 375.9,481.6 431,437 	"/>
	<path class="st2" d="M495.2,515.8l-113-35.5l49.5-40l103,32.4L495.2,515.8z M584.8,515.8l-39.4-43l103-32.4l49.5,40L584.8,515.8z
		 M706,479.2l-55.1-44.6c-0.8-0.6-1.8-0.8-2.8-0.5L540,468.2l-108.1-34.1c-1-0.3-2-0.1-2.8,0.5L374,479.2c-0.9,0.7-1.3,1.8-1.1,2.9
		c0.2,1.1,1,2,2,2.3l120.2,37.7c0.3,0.1,0.6,0.1,0.9,0.1c0.8,0,1.6-0.3,2.2-1l41.6-45.5l41.6,45.5c0.6,0.6,1.4,1,2.2,1
		c0.3,0,0.6,0,0.9-0.1L705,484.4c1.1-0.3,1.8-1.2,2-2.3C707.2,481,706.8,479.9,706,479.2z"/>
</g>
<g>
	<path class="st4" d="M221.3,107.8c0,7.2,5.8,13.1,13.1,13.1c7.2,0,13.1-5.8,13.1-13.1c0-7.2-5.8-13.1-13.1-13.1
		C227.2,94.8,221.3,100.6,221.3,107.8z M241,107.8c0,3.7-3,6.6-6.6,6.6c-3.7,0-6.6-3-6.6-6.6c0-3.7,3-6.6,6.6-6.6
		C238,101.2,241,104.2,241,107.8z"/>
</g>
<g>
	<g>
		<path class="st5" d="M312.8,356.8L312.8,356.8l-3.8-19.2l0,0c-10.6,2.1-20.9-4.8-23-15.4l0,0l-19.2,3.8l0.1,0.4
			C271.3,347.3,291.7,361,312.8,356.8L312.8,356.8z"/>
		<path class="st6" d="M313,357.8L313,357.8c-21.5,4.2-42.6-9.8-47.1-31.3l-0.1-0.4c-0.1-0.3,0-0.5,0.2-0.8c0.2-0.2,0.4-0.4,0.7-0.4
			l0,0l19.2-3.8c0.6-0.1,1.1,0.3,1.2,0.8c2,10,11.7,16.6,21.8,14.6c0.6-0.1,1.1,0.3,1.2,0.8l3.8,19.2
			C313.9,357.2,313.6,357.7,313,357.8z M312.8,356.8L312.8,356.8L312.8,356.8z M268.1,326.8c4.4,19.7,23.7,32.6,43.5,29.2l-3.4-17.2
			c-10.4,1.5-20.4-5.2-23-15.4L268.1,326.8z"/>
	</g>
	<g>
		<path class="st7" d="M309,337.6L309,337.6l-3.8-19.2l-19.2,3.8C288.1,332.8,298.4,339.7,309,337.6z"/>
		<path class="st8" d="M309.2,338.6C309.2,338.6,309.2,338.6,309.2,338.6c-11.2,2.2-22-5.1-24.2-16.3c-0.1-0.6,0.3-1.1,0.8-1.2
			l19.2-3.8c0.6-0.1,1.1,0.3,1.2,0.8l3.8,19.2C310.1,338,309.8,338.5,309.2,338.6z M287.3,323c2.3,9.1,11.2,15.1,20.5,13.8
			l-3.4-17.2L287.3,323z"/>
	</g>
</g>
<g>
	<path class="st7" d="M228.9,89.1l-19.2,6.8l0,0l0,0l13.1,36.9l0,0l0,0l36.5-13l-13.1-36.8L228.9,89.1z M238.7,120.2
		c-6.8,2.4-14.3-1.1-16.7-7.9c-2.4-6.8,1.1-14.3,7.9-16.7c6.8-2.4,14.3,1.1,16.7,7.9C249.1,110.3,245.6,117.8,238.7,120.2z"/>
	<path class="st8" d="M223.2,133.7c-0.5,0.2-1.2-0.1-1.3-0.6l-13.1-36.9c-0.2-0.6,0.3-1.3,0.9-1.4L245.9,82c0.5-0.2,1.1,0.1,1.3,0.6
		l13.1,36.8c0.2,0.5-0.1,1.1-0.6,1.3l-36.3,12.9C223.4,133.6,223.3,133.7,223.2,133.7z M223.4,131.4l34.6-12.3l-12.4-34.8
		l-34.6,12.3L223.4,131.4z M239.1,121.2c-7.3,2.6-15.4-1.2-18-8.6c-2.6-7.3,1.2-15.4,8.6-18c7.3-2.6,15.4,1.2,18,8.6
		C250.3,110.5,246.4,118.6,239.1,121.2z M230.3,96.5c-6.3,2.2-9.5,9.1-7.3,15.4s9.1,9.5,15.4,7.3c6.3-2.2,9.5-9.1,7.3-15.4
		S236.6,94.3,230.3,96.5z"/>
</g>
<g>
	<circle class="st5" cx="234.4" cy="107.8" r="6.6"/>
	<path class="st6" d="M234.4,115.5c-4.2,0-7.7-3.4-7.7-7.7c0-4.2,3.4-7.7,7.7-7.7c4.2,0,7.7,3.4,7.7,7.7
		C242.1,112.1,238.6,115.5,234.4,115.5z M234.4,102.2c-3.1,0-5.6,2.5-5.6,5.6c0,3.1,2.5,5.6,5.6,5.6c3.1,0,5.6-2.5,5.6-5.6
		C240,104.7,237.5,102.2,234.4,102.2z"/>
</g>
<g>
	<g>
		<path class="st4" d="M815.2,127.4l15.3-4.8c5.3-1.6,10.6-3.3,15.9-4.9l-20.5-10.8L815.2,127.4z"/>
		<path class="st9" d="M846.7,118.5C846.7,118.5,846.7,118.5,846.7,118.5l-31.3,9.7c-0.3,0.1-0.7,0-0.9-0.3c-0.2-0.3-0.3-0.6-0.1-1
			l10.7-20.5c0.2-0.4,0.7-0.6,1.2-0.4l20.5,10.8c0.3,0.2,0.5,0.5,0.5,0.8C847.3,118.1,847,118.4,846.7,118.5z M816.9,125.9l27.3-8.5
			l-17.9-9.4L816.9,125.9z"/>
	</g>
	<g>
		<polygon class="st5" points="825.9,106.9 846.5,117.7 836.7,86.4 836.7,86.4 		"/>
		<path class="st6" d="M846.7,118.5c-0.2,0.1-0.5,0-0.7-0.1l-20.5-10.8c-0.2-0.1-0.4-0.3-0.4-0.5c-0.1-0.2,0-0.5,0.1-0.7L835.9,86
			c0.1-0.2,0.3-0.4,0.5-0.4c0.5-0.1,1,0.1,1.1,0.6l9.7,31.2c0.1,0.3,0,0.7-0.3,0.9C846.9,118.4,846.8,118.5,846.7,118.5z
			 M827.1,106.6L845,116l-8.5-27.3L827.1,106.6z"/>
	</g>
	<g>
		<polygon class="st7" points="805.5,96.2 805.4,96.2 815.2,127.4 815.2,127.4 825.9,106.9 836.7,86.4 		"/>
		<path class="st8" d="M815.5,128.2c-0.5,0.1-1-0.1-1.1-0.6l-9.7-31.2c-0.1-0.5,0.1-0.9,0.6-1.1l31.3-9.7c0.3-0.1,0.7,0,0.9,0.3
			c0.2,0.3,0.3,0.6,0.1,1L816,127.8C815.9,128,815.7,128.1,815.5,128.2z M806.5,96.7l8.9,28.4L835,87.9L806.5,96.7z"/>
	</g>
</g>
<g>
	<g>
		<path class="st4" d="M909.4,266.3c0.5-2.4-1.1-4.7-3.4-5.2c-2.4-0.5-4.7,1.1-5.2,3.4s1.1,4.7,3.4,5.2
			C906.6,270.2,908.9,268.7,909.4,266.3z"/>
	</g>
	<g>
		<path class="st7" d="M888.9,241.1l-5.7,28.3l28.3,5.7l5.7-28.3C917.2,246.8,888.9,241.1,888.9,241.1z M904.3,269.7
			c-2.4-0.5-3.9-2.8-3.4-5.2c0.5-2.4,2.8-3.9,5.2-3.4c2.4,0.5,3.9,2.8,3.4,5.2S906.6,270.2,904.3,269.7z"/>
		<path class="st8" d="M911.3,275.9l-28.3-5.7c-0.4-0.1-0.7-0.5-0.6-0.9l5.7-28.3c0.1-0.4,0.5-0.7,0.9-0.6l28.3,5.7
			c0.4,0.1,0.7,0.5,0.6,0.9l-5.7,28.3C912.1,275.7,911.7,276,911.3,275.9z M884.1,268.8l26.8,5.4l5.4-26.8l-26.8-5.4L884.1,268.8z
			 M904.1,270.5c-2.8-0.6-4.6-3.3-4-6.1c0.6-2.8,3.3-4.6,6.1-4c2.8,0.6,4.6,3.3,4,6.1C909.6,269.2,906.9,271,904.1,270.5z
			 M905.8,261.9c-2-0.4-3.9,0.9-4.3,2.8c-0.4,2,0.9,3.9,2.8,4.3c2,0.4,3.9-0.9,4.3-2.8S907.8,262.3,905.8,261.9z"/>
	</g>
</g>
<g>
	<g>
		<circle class="st10" cx="837" cy="184.3" r="3.8"/>
		<path class="st11" d="M839.7,187.7c-1.9,1.5-4.6,1.2-6.1-0.7s-1.2-4.6,0.7-6.1c1.9-1.5,4.6-1.2,6.1,0.7S841.6,186.2,839.7,187.7z
			 M835,181.8c-1.4,1.1-1.6,3.1-0.5,4.5s3.1,1.6,4.5,0.5c1.4-1.1,1.6-3.1,0.5-4.5S836.4,180.7,835,181.8z"/>
	</g>
	<g>
		<path class="st10" d="M830.2,175.6l-0.7,0.5c0.1-0.1,0.2-0.1,0.3-0.2C829.9,175.8,830,175.7,830.2,175.6z"/>
	</g>
	<g>
		<path class="st10" d="M830.5,175.3l-0.4,0.3c0.1-0.1,0.2-0.1,0.2-0.2C830.5,175.4,830.5,175.3,830.5,175.3z"/>
	</g>
	<g>
		<path class="st10" d="M830,175.7c0.1-0.1,0.3-0.2,0.4-0.3c-0.1,0.1-0.2,0.1-0.2,0.2c-0.1,0.1-0.3,0.2-0.4,0.3
			C829.8,175.9,829.9,175.8,830,175.7z"/>
	</g>
	<g>
		<path class="st10" d="M828.3,191.1l6.8,8.7l8.2-6.4C838.5,196.7,832,195.7,828.3,191.1z"/>
		<path class="st11" d="M843.7,193.8l-8.2,6.4c-0.2,0.2-0.6,0.2-0.8-0.1l-6.8-8.7c-0.2-0.2-0.2-0.6,0.1-0.8c0.2-0.2,0.6-0.2,0.8,0.1
			c3.4,4.4,9.7,5.3,14.2,2.1c0.3-0.2,0.6-0.1,0.8,0.1C844,193.3,843.9,193.6,843.7,193.8z M835.2,199l4.3-3.4
			c-2.6,0.6-5.3,0.2-7.6-0.9L835.2,199z"/>
	</g>
	<g>
		<path class="st10" d="M844.3,192.5l8.2-6.4l-6.8-8.7C849.3,182.1,848.7,188.7,844.3,192.5z"/>
		<path class="st11" d="M852.9,186.6l-8.2,6.4c-0.2,0.2-0.6,0.2-0.8-0.1c-0.2-0.2-0.2-0.6,0.1-0.8c4.1-3.7,4.7-10,1.3-14.3
			c-0.2-0.2-0.2-0.6,0.1-0.8c0.2-0.2,0.6-0.2,0.8,0.1l6.8,8.7C853.2,186,853.1,186.4,852.9,186.6z M847.5,189.4l4.3-3.4l-3.4-4.3
			C848.9,184.3,848.6,187,847.5,189.4z"/>
	</g>
	<g>
		<path class="st10" d="M830.7,175.2c4.8-3.3,11.4-2.4,15,2.2l-6.8-8.7l-0.2,0.1l0,0L830.7,175.2L830.7,175.2z"/>
		<path class="st11" d="M846,177.9c-0.2,0.2-0.6,0.2-0.8-0.1c-3.4-4.4-9.7-5.3-14.2-2.1c-0.3,0.2-0.6,0.1-0.8-0.1
			c-0.2-0.2-0.1-0.6,0.1-0.8l7.9-6.2c0,0,0.1-0.1,0.1-0.1l0.2-0.1c0.2-0.2,0.6-0.2,0.8,0.1l6.8,8.7
			C846.3,177.3,846.3,177.7,846,177.9z M834.5,172.9c2.6-0.6,5.3-0.2,7.6,0.9l-3.4-4.3L834.5,172.9z"/>
	</g>
	<g>
		<path class="st10" d="M829.7,176l-8.2,6.4l6.8,8.7C824.7,186.5,825.3,179.9,829.7,176z"/>
		<path class="st11" d="M828.7,191.6c-0.2,0.2-0.6,0.2-0.8-0.1l-6.8-8.7c-0.2-0.2-0.2-0.6,0.1-0.8l8.2-6.4c0.2-0.2,0.6-0.2,0.8,0.1
			c0.2,0.2,0.2,0.6-0.1,0.8c-4.1,3.7-4.7,10-1.3,14.3C829,191,828.9,191.4,828.7,191.6z M822.3,182.5l3.4,4.3
			c-0.6-2.6-0.3-5.3,0.9-7.6L822.3,182.5z"/>
	</g>
	<g>
		<path class="st10" d="M829.8,175.9c-0.1,0.1-0.2,0.1-0.3,0.2l-8,6.3l0,0L829.8,175.9C829.7,176,829.7,176,829.8,175.9L829.8,175.9
			z"/>
	</g>
	<g>
		<path class="st10" d="M830.4,175.4c0.1-0.1,0.2-0.1,0.3-0.2l8-6.3l0,0L830.4,175.4C830.5,175.3,830.4,175.4,830.4,175.4
			L830.4,175.4z"/>
	</g>
	<g>
		<path class="st10" d="M829.7,176l0.4-0.3c-0.1,0.1-0.2,0.1-0.2,0.2C829.7,176,829.7,176,829.7,176z"/>
	</g>
	<g>
		<path class="st10" d="M830.7,175.2c-0.1,0.1-0.2,0.1-0.3,0.2c-0.1,0.1-0.3,0.2-0.4,0.3C830,175.7,830.7,175.2,830.7,175.2z"/>
	</g>
	<g>
		<path class="st12" d="M831.2,188.8c2.5,3.2,7.2,3.8,10.4,1.2s3.8-7.2,1.2-10.4c-2.5-3.2-7.2-3.8-10.4-1.2S828.7,185.6,831.2,188.8
			z M840,182c1.3,1.6,1,4-0.6,5.3c-1.6,1.3-4,1-5.3-0.6s-1-4,0.6-5.3C836.3,180,838.7,180.3,840,182z"/>
		<path class="st13" d="M841.9,190.5c-3.5,2.7-8.5,2.1-11.2-1.3c-2.7-3.5-2.1-8.5,1.3-11.2c3.5-2.7,8.5-2.1,11.2,1.3
			C846,182.8,845.4,187.8,841.9,190.5z M832.8,178.9c-2.9,2.3-3.5,6.6-1.1,9.6s6.6,3.5,9.6,1.1c2.9-2.3,3.5-6.6,1.1-9.6
			C840,177.1,835.7,176.6,832.8,178.9z M839.7,187.7c-1.9,1.5-4.6,1.2-6.1-0.7c-1.5-1.9-1.2-4.6,0.7-6.1c1.9-1.5,4.6-1.2,6.1,0.7
			C841.9,183.5,841.6,186.2,839.7,187.7z M835,181.8c-1.4,1.1-1.6,3.1-0.5,4.5c1.1,1.4,3.1,1.6,4.5,0.5c1.4-1.1,1.6-3.1,0.5-4.5
			C838.4,180.9,836.4,180.7,835,181.8z"/>
	</g>
	<g>
		<path class="st14" d="M830.7,175.2l-1,0.8c-4.3,3.9-5,10.5-1.3,15.1s10.2,5.6,15,2.2l1-0.8c4.3-3.9,5-10.5,1.3-15.1
			S835.5,171.9,830.7,175.2z M842.8,179.7c2.5,3.2,2,7.8-1.2,10.4c-3.2,2.5-7.8,2-10.4-1.2c-2.5-3.2-2-7.8,1.2-10.4
			C835.6,175.9,840.3,176.5,842.8,179.7z"/>
		<path class="st15" d="M843.7,193.8c-5.1,3.5-12,2.5-15.8-2.3c-3.8-4.8-3.2-11.8,1.4-15.9l1.1-0.8c0,0,0,0,0,0
			c5-3.5,12-2.5,15.8,2.4c3.8,4.8,3.2,11.8-1.4,15.9L843.7,193.8z M830,176.5c-4.1,3.6-4.7,9.9-1.2,14.3c3.4,4.4,9.7,5.3,14.2,2.1
			l1-0.8c4.1-3.6,4.7-9.9,1.2-14.3c-3.4-4.3-9.7-5.3-14.2-2.1L830,176.5z M841.9,190.5c-3.5,2.7-8.5,2.1-11.2-1.3
			c-2.7-3.5-2.1-8.5,1.3-11.2c3.5-2.7,8.5-2.1,11.2,1.3C846,182.8,845.4,187.8,841.9,190.5z M832.8,178.9c-2.9,2.3-3.5,6.6-1.1,9.6
			s6.6,3.5,9.6,1.1c2.9-2.3,3.5-6.6,1.1-9.6C840,177.1,835.7,176.6,832.8,178.9z"/>
	</g>
</g>
<g>
	<g>
		<polygon class="st10" points="783.7,27.2 778.5,30 780.3,33.4 801.1,22.3 799.3,18.9 794.1,21.7 		"/>
		<path class="st11" d="M801.4,22.8l-20.8,11.1c-0.3,0.2-0.7,0-0.8-0.2l-1.8-3.3c-0.2-0.3,0-0.7,0.2-0.8l20.8-11.1
			c0.3-0.2,0.7,0,0.8,0.2l1.8,3.3C801.8,22.3,801.7,22.6,801.4,22.8z M780.6,32.5L800.3,22l-1.2-2.3l-19.7,10.5L780.6,32.5z"/>
	</g>
	<g>
		<polygon class="st10" points="784.7,41.5 786.6,45.2 787.8,47.4 789.6,50.8 794.8,48 805.2,42.5 810.4,39.7 808.6,36.3 
			807.4,34.1 805.5,30.4 		"/>
		<path class="st11" d="M810.7,40.2l-20.8,11.1c-0.3,0.2-0.7,0-0.8-0.2l-4.9-9.2c-0.2-0.3,0-0.7,0.2-0.8l20.8-11.1
			c0.3-0.2,0.7,0,0.8,0.2l4.9,9.2C811.1,39.7,811,40.1,810.7,40.2z M789.9,50l19.7-10.5l-4.4-8.2l-19.7,10.5L789.9,50z"/>
	</g>
	<g>
		
			<rect x="781.1" y="29.8" transform="matrix(0.8821 -0.471 0.471 0.8821 78.449 377.2573)" class="st10" width="23.6" height="4.1"/>
		<path class="st11" d="M804.6,28.7l-20.8,11.1c-0.3,0.2-0.7,0-0.8-0.2l-1.9-3.6c-0.2-0.3,0-0.7,0.2-0.8L802.1,24
			c0.3-0.2,0.7,0,0.8,0.2l1.9,3.6C805,28.2,804.9,28.5,804.6,28.7z M783.7,38.4l19.7-10.5l-1.4-2.6l-19.7,10.5L783.7,38.4z"/>
	</g>
	<g>
		
			<rect x="779.5" y="27.7" transform="matrix(0.8821 -0.471 0.471 0.8821 79.6551 376.1655)" class="st12" width="23.6" height="2.6"/>
		<path class="st13" d="M802.6,25.1l-20.8,11.1c-0.3,0.2-0.7,0-0.8-0.3l-1.2-2.3c-0.2-0.3,0-0.7,0.3-0.8l20.8-11.1
			c0.3-0.2,0.7,0,0.8,0.3l1.2,2.3C803.1,24.5,802.9,24.9,802.6,25.1z M781.8,34.8l19.7-10.5l-0.6-1.2l-19.7,10.5L781.8,34.8z"/>
	</g>
	<g>
		
			<rect x="782.7" y="33.6" transform="matrix(0.8821 -0.471 0.471 0.8821 77.2472 378.3452)" class="st14" width="23.6" height="2.6"/>
		<path class="st15" d="M805.8,31L785,42.1c-0.3,0.2-0.7,0-0.8-0.3l-1.2-2.3c-0.2-0.3,0-0.7,0.3-0.8L804,27.6c0.3-0.2,0.7,0,0.8,0.3
			l1.2,2.3C806.2,30.4,806.1,30.8,805.8,31z M784.9,40.7l19.7-10.5L804,29l-19.7,10.5L784.9,40.7z"/>
	</g>
</g>
<g>
	<g>
		<polygon class="st7" points="149.7,164.5 157.4,172.1 165.1,179.8 180.5,164.5 180.5,164.5 180.5,164.5 180.5,164.5 180.5,164.5 
			180.5,164.4 172.8,156.8 172.8,156.8 172.8,156.8 172.8,156.8 172.8,156.8 157.4,156.8 165.1,149.1 165.1,149.1 149.7,164.5 		"/>
		<path class="st8" d="M180.9,164.9l-15.4,15.4c-0.2,0.2-0.6,0.2-0.8,0l-15.4-15.4c-0.2-0.2-0.2-0.6,0-0.8l15.4-15.4
			c0.2-0.2,0.6-0.2,0.8,0c0.2,0.2,0.2,0.6,0,0.8l-6.7,6.7l13.9,0c0.2,0,0.3,0,0.4,0.2l7.7,7.7c0.1,0.1,0.2,0.3,0.2,0.5
			C181,164.6,181,164.8,180.9,164.9z M165.1,179l14.6-14.6l-7.1-7.1h-14.9l-7.1,7.1L165.1,179z"/>
	</g>
	<g>
		<polygon class="st4" points="157.4,156.8 172.8,156.8 165.1,149.1 		"/>
		<path class="st9" d="M173.2,157.2c-0.1,0.1-0.3,0.2-0.4,0.2h-15.3c-0.2,0-0.4-0.1-0.5-0.4c-0.1-0.2,0-0.5,0.1-0.6l7.7-7.7
			c0.2-0.2,0.6-0.2,0.8,0l7.7,7.7c0.2,0.2,0.2,0.4,0.1,0.6C173.3,157.1,173.2,157.1,173.2,157.2z M158.8,156.2h12.6l-6.3-6.3
			L158.8,156.2z"/>
	</g>
</g>
<g>
	<g>
		<path class="st14" d="M406.5,358.6c0.6-3.5-1.8-6.9-5.3-7.5c-3.5-0.6-6.9,1.8-7.5,5.3c-0.6,3.5,1.8,6.9,5.3,7.5
			C402.6,364.5,405.9,362.1,406.5,358.6z"/>
	</g>
	<g>
		<path class="st10" d="M410.9,372.6l4.4-25.9l-25.9-4.4l-4.4,25.9L410.9,372.6z M393.7,356.4c0.6-3.5,4-5.9,7.5-5.3
			c3.5,0.6,5.9,4,5.3,7.5c-0.6,3.5-4,5.9-7.5,5.3C395.5,363.3,393.1,360,393.7,356.4z"/>
		<path class="st11" d="M410.7,373.6l-25.9-4.4c-0.5-0.1-0.9-0.6-0.8-1.2l4.4-25.9c0.1-0.5,0.6-0.9,1.2-0.8l25.9,4.4
			c0.5,0.1,0.9,0.6,0.8,1.2l-4.4,25.9C411.8,373.4,411.2,373.7,410.7,373.6z M386.1,367.4l23.9,4l4-23.9l-23.9-4L386.1,367.4z
			 M398.8,364.9c-4.1-0.7-6.9-4.6-6.2-8.7s4.6-6.9,8.7-6.2c4.1,0.7,6.9,4.6,6.2,8.7C406.8,362.8,402.9,365.6,398.8,364.9z
			 M401,352.1c-3-0.5-5.8,1.5-6.4,4.5s1.5,5.8,4.5,6.4s5.8-1.5,6.4-4.5S404,352.6,401,352.1z"/>
	</g>
</g>
<g>
	<g>
		
			<rect x="173.1" y="324.9" transform="matrix(8.915222e-02 -0.996 0.996 8.915222e-02 -166.2998 476.4255)" class="st10" width="8.4" height="8.4"/>
	</g>
	<g>
		<polygon class="st10" points="175,307.9 174.3,316.2 182.7,317 183.4,308.6 175.1,307.8 		"/>
	</g>
	<g>
		<polygon class="st10" points="174.3,316.2 165.9,315.5 165.9,315.5 165.2,323.8 173.5,324.6 		"/>
	</g>
	<g>
		
			<rect x="182.3" y="317.3" transform="matrix(8.915222e-02 -0.996 0.996 8.915222e-02 -150.405 478.5733)" class="st14" width="8.4" height="8.4"/>
	</g>
	<g>
		<polygon class="st12" points="181.2,333.7 190.3,326.1 181.9,325.3 		"/>
		<path class="st13" d="M190.7,326.6l-9.1,7.6c-0.2,0.2-0.5,0.2-0.7,0.1c-0.2-0.1-0.4-0.4-0.3-0.6l0.7-8.4c0-0.3,0.4-0.6,0.7-0.6
			l8.4,0.7c0.3,0,0.5,0.2,0.5,0.4C191,326.1,190.9,326.4,190.7,326.6z M181.9,332.2l6.8-5.7l-6.2-0.6L181.9,332.2z"/>
	</g>
	<g>
		
			<rect x="173.9" y="316.6" transform="matrix(8.915222e-02 -0.996 0.996 8.915222e-02 -157.2763 469.5482)" class="st12" width="8.4" height="8.4"/>
		<path class="st13" d="M182.3,325.8c-0.1,0.1-0.3,0.2-0.5,0.1l-8.4-0.7c-0.2,0-0.3-0.1-0.4-0.2c-0.1-0.1-0.2-0.3-0.1-0.5l0.7-8.4
			c0-0.3,0.3-0.6,0.7-0.6l8.4,0.7c0.3,0,0.6,0.3,0.6,0.7l-0.7,8.4C182.5,325.5,182.4,325.7,182.3,325.8z M174.2,324l7.1,0.6l0.6-7.1
			l-7.1-0.6L174.2,324z"/>
	</g>
	<g>
		<polygon class="st12" points="183.4,308.6 179.6,304 175.1,307.8 		"/>
		<path class="st13" d="M183.8,309.1c-0.1,0.1-0.3,0.2-0.5,0.1l-8.3-0.7c-0.3,0-0.5-0.2-0.5-0.4c-0.1-0.2,0-0.5,0.2-0.7l4.5-3.8
			c0.3-0.2,0.7-0.2,0.9,0.1l3.8,4.5c0.2,0.2,0.2,0.5,0.1,0.7C183.9,308.9,183.9,309,183.8,309.1z M176.6,307.3l5.3,0.5l-2.4-2.9
			L176.6,307.3z"/>
	</g>
	<g>
		<polygon class="st12" points="174.3,316.2 175,307.9 165.9,315.5 		"/>
		<path class="st13" d="M174.7,316.7c-0.1,0.1-0.3,0.2-0.5,0.1l-8.3-0.7c-0.3,0-0.5-0.2-0.5-0.4c-0.1-0.2,0-0.5,0.2-0.7l9.1-7.6
			c0.2-0.2,0.5-0.2,0.7-0.1c0.2,0.1,0.4,0.4,0.3,0.6l-0.8,8.3C174.9,316.4,174.8,316.6,174.7,316.7z M167.5,315l6.2,0.6l0.6-6.2
			L167.5,315z"/>
	</g>
	<g>
		<polygon class="st12" points="176.6,337.5 181.2,333.7 172.8,332.9 		"/>
		<path class="st13" d="M181.6,334.2L177,338c-0.3,0.2-0.7,0.2-0.9-0.1l-3.8-4.6c-0.2-0.2-0.2-0.5-0.1-0.7c0.1-0.2,0.4-0.4,0.6-0.3
			l8.4,0.7c0.3,0,0.5,0.2,0.5,0.4C181.8,333.8,181.8,334,181.6,334.2z M176.7,336.6l2.9-2.4l-5.4-0.5L176.7,336.6z"/>
	</g>
	<g>
		<polygon class="st12" points="161.4,319.3 165.2,323.8 165.9,315.5 		"/>
		<path class="st13" d="M165.6,324.3c-0.1,0.1-0.1,0.1-0.2,0.1c-0.2,0.1-0.5,0-0.7-0.2l-3.8-4.5c-0.2-0.3-0.2-0.7,0.1-0.9l4.5-3.8
			c0.2-0.2,0.5-0.2,0.7-0.1c0.2,0.1,0.4,0.4,0.3,0.6l-0.8,8.3C165.8,324.1,165.7,324.2,165.6,324.3z M162.2,319.4l2.4,2.9l0.5-5.3
			L162.2,319.4z"/>
	</g>
	<g>
		<polygon class="st12" points="194.8,322.3 191,317.7 190.3,326.1 		"/>
		<path class="st13" d="M195.2,322.7l-4.6,3.8c-0.2,0.2-0.5,0.2-0.7,0.1c-0.2-0.1-0.4-0.4-0.3-0.6l0.7-8.4c0-0.3,0.2-0.5,0.4-0.5
			c0.2-0.1,0.5,0,0.7,0.2l3.8,4.6C195.5,322.1,195.5,322.5,195.2,322.7z M191,324.6l2.9-2.4l-2.4-2.9L191,324.6z"/>
	</g>
	<g>
		<polygon class="st12" points="165.2,323.8 172.8,332.9 173.5,324.6 		"/>
		<path class="st13" d="M173.2,333.4c-0.1,0.1-0.1,0.1-0.2,0.1c-0.2,0.1-0.5,0-0.7-0.2l-7.6-9.1c-0.2-0.2-0.2-0.5-0.1-0.7
			c0.1-0.2,0.4-0.4,0.6-0.3l8.4,0.7c0.2,0,0.3,0.1,0.4,0.2c0.1,0.1,0.2,0.3,0.1,0.5l-0.8,8.4C173.4,333.2,173.3,333.3,173.2,333.4z
			 M166.6,324.6l5.7,6.8l0.6-6.2L166.6,324.6z"/>
	</g>
	<g>
		<polygon class="st12" points="191,317.7 183.4,308.6 182.7,317 		"/>
		<path class="st13" d="M191.4,318.2c-0.1,0.1-0.3,0.2-0.5,0.1l-8.4-0.7c-0.3,0-0.6-0.3-0.6-0.7l0.7-8.4c0-0.3,0.2-0.5,0.4-0.5
			c0.2-0.1,0.5,0,0.7,0.2l7.6,9.1c0.2,0.2,0.2,0.5,0.1,0.7C191.5,318.1,191.5,318.1,191.4,318.2z M183.3,316.4l6.2,0.6l-5.7-6.8
			L183.3,316.4z"/>
	</g>
</g>
<g>
	<g>
		<path class="st10" d="M900.2,76.9c1.9-3.3,0.8-7.6-2.5-9.5l-3.5,6C896.2,74.5,898.2,75.7,900.2,76.9z"/>
		<path class="st11" d="M893.9,73.8c-0.1-0.1-0.2-0.2-0.2-0.3c0-0.1,0-0.3,0.1-0.4l3.5-6c0.1-0.2,0.5-0.3,0.7-0.2
			c3.5,2.1,4.7,6.7,2.6,10.2c-0.1,0.2-0.5,0.3-0.7,0.2L893.9,73.8C893.9,73.8,893.9,73.8,893.9,73.8z M900.2,76.9L900.2,76.9
			L900.2,76.9z M897.9,68.1l-3,5.1l5.1,3C901.3,73.3,900.4,69.9,897.9,68.1z"/>
	</g>
	<g>
		<path class="st12" d="M900.1,63.3L900.1,63.3c5.5,3.3,7.4,10.4,4.1,15.9l6.8,4l0,0c5.5-9.3,2.4-21.3-6.9-26.8l0,0
			C902.8,58.8,901.4,61,900.1,63.3z"/>
		<path class="st13" d="M910.8,83.7C910.8,83.7,910.8,83.7,910.8,83.7l-6.8-4c-0.2-0.1-0.3-0.5-0.2-0.7c3.1-5.3,1.3-12.1-3.9-15.2
			c-0.1-0.1-0.2-0.2-0.2-0.3c0-0.1,0-0.3,0.1-0.4l4-6.8c0.1-0.2,0.5-0.3,0.7-0.2c9.6,5.6,12.7,18,7.1,27.5c-0.1,0.1-0.2,0.2-0.3,0.2
			C911.1,83.8,910.9,83.8,910.8,83.7z M904.9,79.1l6,3.5c4.9-8.8,2-20-6.6-25.4l-3.5,6C906.1,66.6,907.9,73.5,904.9,79.1z"/>
	</g>
</g>
<g>
	<g>
		<path class="st10" d="M86.8,245.5c2.7,10.5,10.4,19.3,21,22.5l1.3,0.3l8.3-32l-1.3-0.3C105.2,233.7,94.2,237.6,86.8,245.5
			L86.8,245.5z"/>
		<path class="st11" d="M108.9,269.2l-1.3-0.3c-10.7-3.3-18.8-11.9-21.6-23.1c-0.1-0.3,0-0.6,0.2-0.8c8-8.4,19.2-12.1,30.1-9.7
			l1.3,0.3c0.5,0.1,0.7,0.6,0.6,1l-8.3,32C109.8,269,109.3,269.3,108.9,269.2z M87.7,245.8c2.8,10.4,10.4,18.4,20.3,21.5l0.4,0.1
			l7.9-30.4l-0.5-0.1C105.7,234.7,95.2,238,87.7,245.8z"/>
	</g>
	<g>
		<path class="st10" d="M86.8,245.5c-1.5-5.4-1.7-11.3-0.2-17.1l0,0l-8.3,32l0,0C79.8,254.6,82.8,249.5,86.8,245.5z"/>
		<path class="st11" d="M78.1,261.3c-0.5-0.1-0.7-0.6-0.6-1.1l8.3-32c0.1-0.5,0.6-0.7,1.1-0.6l0,0c0.5,0.1,0.7,0.6,0.6,1.1
			c-1.4,5.5-1.4,11.2,0.2,16.7c0.1,0.3,0,0.6-0.2,0.8c-4,4-6.8,9-8.2,14.5C79,261.1,78.6,261.4,78.1,261.3z M84.8,239l-2.9,11.2
			c1.2-1.8,2.5-3.4,3.9-5C85.3,243.2,84.9,241.1,84.8,239z"/>
	</g>
	<g>
		<path class="st12" d="M110,234.4l-23.4-6.1c-1.5,5.8-1.3,11.7,0.2,17.1c7.7-7.8,19.2-11.6,30.6-9.2L110,234.4L110,234.4z"/>
		<path class="st13" d="M86.6,246.4c-0.3-0.1-0.5-0.3-0.6-0.6c-1.6-5.7-1.7-11.8-0.2-17.6c0.1-0.5,0.6-0.7,1.1-0.6l30.7,8
			c0.5,0.1,0.7,0.6,0.6,1c-0.1,0.5-0.6,0.8-1,0.7c-10.8-2.3-22,1-29.8,8.9C87.2,246.3,86.9,246.4,86.6,246.4z M87.3,229.5
			c-1.1,4.7-1.1,9.6,0,14.4c5.8-5.4,13-8.5,20.7-9L87.3,229.5z"/>
	</g>
	<g>
		<path class="st12" d="M109.1,268.4c-11.2-3.4-19.4-12.3-22.3-22.9c-3.9,4-6.9,9.1-8.5,14.9L109.1,268.4L109.1,268.4z"/>
		<path class="st13" d="M108.9,269.2l-30.8-8c-0.2-0.1-0.4-0.2-0.5-0.4c-0.1-0.2-0.2-0.4-0.1-0.7c1.5-5.8,4.5-11.1,8.7-15.3
			c0.4-0.4,1.3-0.2,1.5,0.4c3,10.7,11.1,19,21.7,22.3c0.5,0.1,0.7,0.6,0.6,1.1C109.8,269.1,109.3,269.3,108.9,269.2z M79.4,259.8
			l20.7,5.4c-6.4-4.2-11.3-10.4-13.7-17.9C83.1,250.8,80.8,255.1,79.4,259.8z"/>
	</g>
</g>
<g>
	<g>
		<polygon class="st10" points="210,238.7 206.7,255.6 223.6,258.8 		"/>
		<path class="st11" d="M223.5,259.5l-16.9-3.3c-0.4-0.1-0.6-0.4-0.5-0.8l3.3-16.9c0.1-0.3,0.3-0.5,0.5-0.5c0.3-0.1,0.5,0.1,0.7,0.3
			l13.6,20.2c0.2,0.2,0.2,0.5,0,0.8C224.1,259.4,223.8,259.6,223.5,259.5z M207.5,255l14.6,2.8l-11.8-17.5L207.5,255z"/>
	</g>
	<g>
		<polygon class="st10" points="211.7,229.8 211.7,229.8 237.5,234.8 237.5,234.8 237.5,234.8 		"/>
	</g>
	<g>
		<polygon class="st12" points="232.5,260.5 232.5,260.6 237.5,234.8 211.7,229.8 		"/>
		<path class="st13" d="M232.4,261.2c-0.2,0-0.4-0.1-0.5-0.3l-20.8-30.7c-0.2-0.2-0.2-0.5,0-0.8c0.2-0.2,0.4-0.4,0.7-0.3l25.8,5
			c0.4,0.1,0.6,0.4,0.6,0.8l-5,25.8C233.1,261.1,232.8,261.3,232.4,261.2z M213.2,230.8l18.9,28l4.5-23.5L213.2,230.8z"/>
	</g>
	<g>
		<polygon class="st14" points="232.5,260.5 211.7,229.8 211.7,229.8 210,238.7 223.6,258.8 		"/>
		<path class="st15" d="M232.4,261.2l-8.9-1.7c-0.2,0-0.3-0.1-0.4-0.3l-13.6-20.2c-0.1-0.2-0.1-0.3-0.1-0.5l1.7-8.9
			c0.1-0.4,0.4-0.6,0.8-0.6c0.2,0,0.4,0.1,0.5,0.3l20.8,30.7c0.2,0.2,0.2,0.5,0,0.8C232.9,261.2,232.7,261.3,232.4,261.2z
			 M224.1,258.2l6.9,1.3l-18.9-28l-1.3,7L224.1,258.2z"/>
	</g>
</g>
<g>
	<polygon class="st14" points="817.6,331.6 798.1,337.7 800.3,344.7 786.4,349 784.2,342 764.8,348.1 764.7,348.1 799.4,366.3 
		804,357.6 	"/>
	<path class="st15" d="M798.9,367.2L764.3,349c-0.5-0.3-0.7-0.9-0.4-1.4c0.1-0.2,0.4-0.4,0.6-0.5l19.4-6.1c0.3-0.1,0.5-0.1,0.8,0.1
		l0,0c0.2,0.1,0.4,0.3,0.5,0.6l1.9,6l12-3.7l-1.9-6c-0.1-0.3-0.1-0.5,0.1-0.8c0.1-0.2,0.3-0.4,0.6-0.5l19.5-6.1
		c0.4-0.1,0.8,0,1.1,0.3c0.3,0.3,0.3,0.8,0.1,1.1l-18.2,34.7C800.1,367.3,799.4,367.5,798.9,367.2z M764.8,348.1L764.8,348.1
		L764.8,348.1z M767.4,348.4l31.6,16.6l16.5-31.5l-16.1,5l1.9,6c0.2,0.5-0.1,1.1-0.7,1.3l-14,4.4c-0.3,0.1-0.5,0.1-0.8-0.1
		c0,0,0,0,0,0c-0.2-0.1-0.4-0.3-0.5-0.6l-1.9-6L767.4,348.4z"/>
</g>
<g>
	<polygon class="st12" points="798.1,337.7 796,330.7 782,335.1 784.2,342 786.4,349 800.3,344.7 	"/>
	<path class="st13" d="M785.9,349.9L785.9,349.9c-0.2-0.1-0.4-0.3-0.5-0.6l-4.3-14c-0.2-0.5,0.1-1.1,0.7-1.3l14-4.4
		c0.5-0.2,1.1,0.1,1.3,0.7l4.4,14c0.2,0.5-0.1,1.1-0.7,1.3l-14,4.4C786.4,350.1,786.1,350.1,785.9,349.9z M783.3,335.7l3.7,12
		l12-3.7l-3.7-12L783.3,335.7z"/>
</g>
<g>
	<g>
		<polygon class="st12" points="104.2,-2.5 104.2,-2.6 76.1,-29.6 76.6,-2 		"/>
		<path class="st13" d="M105-1.8c-0.2,0.2-0.5,0.3-0.7,0.3L76.6-1c-0.3,0-0.5-0.1-0.7-0.3c-0.2-0.2-0.3-0.5-0.3-0.7L75-29.6
			c0-0.4,0.2-0.8,0.6-1c0.4-0.2,0.8-0.1,1.1,0.2l28.2,27.1C105.4-2.9,105.4-2.3,105-1.8z M77.6-3l24.1-0.5L77.1-27.2L77.6-3z"/>
	</g>
	<g>
		<polygon class="st14" points="77.1,25.6 76.6,-2 49,-1.4 77.1,25.6 		"/>
		<path class="st15" d="M77.9,26.3L77.9,26.3c-0.4,0.4-1.1,0.5-1.5,0.1L48.2-0.7C47.9-1,47.8-1.4,48-1.8c0.2-0.4,0.5-0.6,0.9-0.7
			L76.6-3c0.6,0,1,0.4,1.1,1l0.5,27.6C78.2,25.9,78.1,26.1,77.9,26.3z M77.1,25.6L77.1,25.6L77.1,25.6z M51.5-0.5l24.6,23.7
			L75.6-0.9L51.5-0.5z"/>
	</g>
	<g>
		<polygon class="st10" points="76.1,-29.6 49,-1.4 76.6,-2 		"/>
		<path class="st11" d="M77.3-1.3C77.2-1.1,76.9-1,76.6-1L49-0.4c-0.4,0-0.8-0.2-0.9-0.6c-0.2-0.4-0.1-0.8,0.2-1.1l27.1-28.2
			c0.3-0.3,0.7-0.4,1.1-0.2c0.4,0.1,0.6,0.5,0.6,0.9L77.6-2C77.6-1.7,77.5-1.5,77.3-1.3z M51.4-2.5L75.6-3l-0.5-24.2L51.4-2.5z"/>
	</g>
	<g>
		<polygon class="st10" points="76.6,-2 77.1,25.6 104.2,-2.5 		"/>
		<path class="st11" d="M104.9-1.8L77.9,26.3c-0.3,0.3-0.7,0.4-1.1,0.2c-0.4-0.1-0.6-0.5-0.6-0.9L75.6-2c0-0.6,0.4-1,1-1l27.6-0.5
			c0.4,0,0.8,0.2,0.9,0.6C105.3-2.6,105.2-2.1,104.9-1.8z M78.1,23.2l23.7-24.6L77.6-1L78.1,23.2z"/>
	</g>
</g>
<g>
	<g>
		<path class="st14" d="M1002.8,4.2c2.3-2.7,2-6.9-0.8-9.2s-6.9-2-9.2,0.8c-2.3,2.7-2,6.9,0.8,9.2C996.4,7.3,1000.5,7,1002.8,4.2z"
			/>
	</g>
	<g>
		<path class="st10" d="M999.4,18.5l17-20.1l-20.1-17l-17,20.1L999.4,18.5z M992.9-4.2c2.3-2.7,6.4-3.1,9.2-0.8s3.1,6.4,0.8,9.2
			c-2.3,2.7-6.4,3.1-9.2,0.8C990.9,2.7,990.6-1.4,992.9-4.2z"/>
		<path class="st11" d="M998.8,19.3l-20.1-17c-0.4-0.4-0.5-1-0.1-1.4l17-20.1c0.4-0.4,1-0.5,1.4-0.1l20.1,17c0.4,0.4,0.5,1,0.1,1.4
			l-17,20.1C999.8,19.6,999.2,19.7,998.8,19.3z M980.8,1.4l18.5,15.7L1015-1.4l-18.5-15.7L980.8,1.4z M993,5.8
			c-3.2-2.7-3.6-7.4-0.9-10.6s7.4-3.6,10.6-0.9c3.2,2.7,3.6,7.4,0.9,10.6S996.2,8.4,993,5.8z M1001.4-4.2c-2.3-2-5.8-1.7-7.8,0.6
			s-1.7,5.8,0.6,7.8s5.8,1.7,7.8-0.6C1004,1.3,1003.7-2.2,1001.4-4.2z"/>
	</g>
</g>
<g>
	<g>
		<path class="st7" d="M41.5,147.2L41.5,147.2c9.6,2.7,19.5-2.8,22.2-12.4l-17.3-4.9L41.5,147.2z"/>
		<path class="st8" d="M41.4,147.8c-0.3-0.1-0.5-0.4-0.4-0.8l4.9-17.3c0.1-0.3,0.4-0.5,0.8-0.4l17.3,4.9c0.2,0,0.3,0.2,0.4,0.3
			c0.1,0.1,0.1,0.3,0.1,0.5C61.6,144.8,51.2,150.6,41.4,147.8z M46.9,130.7l-4.5,16.1c8.8,2.2,17.8-2.9,20.6-11.5L46.9,130.7z"/>
	</g>
	<g>
		<path class="st5" d="M41.6,147.2L41.6,147.2l-1.6,5.8l23.1,6.5l6.5-23.1l-5.8-1.6C61,144.3,51.1,149.9,41.6,147.2L41.6,147.2z"/>
		<path class="st6" d="M62.8,160.1l-23.1-6.5c-0.3-0.1-0.5-0.4-0.4-0.8l1.6-5.8c0.1-0.2,0.3-0.4,0.5-0.4c0.1,0,0.2,0,0.3,0
			c9.2,2.6,18.8-2.8,21.4-11.9c0.1-0.3,0.4-0.5,0.8-0.4l5.8,1.6c0.3,0.1,0.5,0.4,0.4,0.8l-6.5,23.1C63.5,160,63.1,160.2,62.8,160.1z
			 M40.7,152.5l21.8,6.2l6.2-21.8l-4.5-1.3c-3,9.3-12.7,14.7-22.2,12.4L40.7,152.5z"/>
	</g>
</g>
<g>
	<g>
		<polygon class="st7" points="120.9,88.9 120.9,88.9 120.9,88.9 		"/>
	</g>
	<g>
		<polygon class="st7" points="120.9,88.9 120.9,88.9 120.9,88.9 		"/>
	</g>
	<g>
		<path class="st7" d="M120.9,88.9L120.9,88.9L120.9,88.9L120.9,88.9l-9.8,0.6l0.6,9.8l0,0l9.8-0.6L120.9,88.9z M114.9,95.7
			c-0.9-0.8-1-2.2-0.2-3.1s2.2-1,3.1-0.2c0.9,0.8,1,2.2,0.2,3.1S115.8,96.5,114.9,95.7z"/>
		<path class="st8" d="M111.5,99.5c-0.1-0.1-0.1-0.2-0.1-0.3l-0.6-9.8c0-0.2,0.1-0.4,0.3-0.4l9.8-0.6c0.2,0,0.4,0.2,0.4,0.4l0.6,9.8
			c0,0.1,0,0.2-0.1,0.3s-0.2,0.1-0.3,0.1l-9.8,0.6C111.7,99.6,111.6,99.6,111.5,99.5z M111.6,89.8l0.6,9l9-0.6l-0.6-9L111.6,89.8z
			 M114.7,96c-1.1-0.9-1.2-2.6-0.2-3.6c0.9-1.1,2.6-1.2,3.6-0.2c1.1,0.9,1.2,2.6,0.2,3.6C117.3,96.8,115.7,96.9,114.7,96z
			 M117.6,92.7c-0.8-0.7-1.9-0.6-2.6,0.2c-0.7,0.8-0.6,1.9,0.2,2.6c0.8,0.7,1.9,0.6,2.6-0.2S118.3,93.4,117.6,92.7z"/>
	</g>
	<g>
		<polygon class="st4" points="121.5,98.6 126.1,93.5 120.9,88.9 		"/>
		<path class="st9" d="M121.3,98.9c-0.1-0.1-0.1-0.2-0.1-0.3l-0.6-9.8c0-0.1,0.1-0.3,0.2-0.4c0.1-0.1,0.3,0,0.4,0.1l5.2,4.6
			c0.2,0.1,0.2,0.4,0,0.5l-4.6,5.2c-0.1,0.1-0.3,0.2-0.4,0.1C121.4,99,121.3,99,121.3,98.9z M121.4,89.7l0.5,8l3.8-4.2L121.4,89.7z"
			/>
	</g>
	<g>
		<polygon class="st4" points="115.8,84.3 111.2,89.5 120.9,88.9 		"/>
		<path class="st9" d="M110.9,89.7c0,0-0.1-0.1-0.1-0.1c-0.1-0.1,0-0.3,0.1-0.4l4.6-5.2c0.1-0.2,0.4-0.2,0.5,0l5.2,4.6
			c0.1,0.1,0.2,0.3,0.1,0.4c0,0.1-0.2,0.2-0.3,0.2l-9.8,0.6C111.1,89.8,111,89.8,110.9,89.7z M115.8,84.8l-3.8,4.2l8-0.5L115.8,84.8
			z"/>
	</g>
	<g>
		<polygon class="st4" points="111.8,99.2 111.2,89.5 106.6,94.7 106.6,94.7 117,103.8 121.5,98.6 		"/>
		<path class="st9" d="M116.7,104.1l-10.4-9.2c-0.2-0.1-0.2-0.4,0-0.5l4.6-5.2c0.1-0.1,0.3-0.2,0.4-0.1c0.1,0,0.2,0.2,0.2,0.3
			l0.6,9.4l9.4-0.6c0.1,0,0.3,0.1,0.4,0.2c0.1,0.1,0,0.3-0.1,0.4l-4.6,5.2C117.1,104.2,116.9,104.2,116.7,104.1z M112.7,99.6
			l4.3,3.8l3.8-4.3L112.7,99.6z M107.1,94.6l4.3,3.8l-0.5-8L107.1,94.6z"/>
	</g>
</g>
<g>
	<g>
		<polygon class="st7" points="657.8,377.3 656,382.9 660.4,384.3 667.8,380.6 		"/>
		<path class="st8" d="M655,382.6l1.8-5.5c0.2-0.5,0.8-0.8,1.3-0.7l10,3.3c0.4,0.1,0.7,0.5,0.7,0.9c0,0.4-0.2,0.8-0.6,1l-7.4,3.7
			c-0.2,0.1-0.5,0.1-0.8,0.1l-4.4-1.5C655.2,383.7,654.9,383.1,655,382.6z M658.5,378.6l-1.2,3.6l3,1l4.7-2.4L658.5,378.6z"/>
	</g>
	<g>
		<polygon class="st7" points="661.6,366 659.8,371.5 675.6,376.7 682.9,373 		"/>
		<path class="st8" d="M658.8,371.2l1.8-5.5c0.2-0.5,0.8-0.8,1.3-0.7l21.3,7c0.4,0.1,0.7,0.5,0.7,0.9c0,0.4-0.2,0.8-0.6,1l-7.4,3.7
			c-0.2,0.1-0.5,0.1-0.8,0.1l-15.8-5.2C658.9,372.3,658.6,371.7,658.8,371.2z M662.2,367.3l-1.2,3.6l14.4,4.7l4.8-2.4L662.2,367.3z"
			/>
	</g>
	<g>
		<polygon class="st7" points="665.3,354.6 663.5,360.1 690.7,369.1 698,365.3 		"/>
		<path class="st8" d="M662.5,359.8l1.8-5.5c0.2-0.5,0.8-0.8,1.3-0.7l32.7,10.8c0.4,0.1,0.7,0.5,0.7,0.9c0,0.4-0.2,0.8-0.6,1
			l-7.4,3.7c-0.2,0.1-0.5,0.1-0.8,0.1l-27.2-8.9C662.6,360.9,662.4,360.3,662.5,359.8z M666,355.9l-1.2,3.6l25.8,8.5l4.7-2.4
			L666,355.9z"/>
	</g>
	<g>
		<polygon class="st4" points="693.2,395.1 693.2,395.1 695,389.6 695,389.6 696.9,383.7 696.9,383.7 698.7,378.2 698.7,378.2 
			700.7,372.3 700.7,372.3 702.5,366.8 702.5,366.8 703.9,362.3 698,365.3 690.7,369.1 682.9,373 675.6,376.7 667.8,380.6 
			660.4,384.3 654.6,387.3 654.6,387.3 691.7,399.5 691.7,399.5 		"/>
		<path class="st9" d="M653.6,387c0.1-0.3,0.3-0.5,0.5-0.6l49.4-25c0.4-0.2,0.8-0.1,1.1,0.1c0.3,0.3,0.4,0.7,0.3,1.1l-12.2,37.2
			c-0.2,0.5-0.8,0.8-1.3,0.7l-37.1-12.2C653.7,388.1,653.4,387.5,653.6,387z M702.2,364.4l-44.9,22.7l33.8,11.1L702.2,364.4z"/>
	</g>
</g>
<g>
	<g>
		<path class="st16" d="M938,132.1l-1.6,2.9c4.2-0.1,8.4,0.9,12.4,3L938,132.1z"/>
	</g>
	<g>
		<path class="st7" d="M948.8,138C948.8,138,948.8,138,948.8,138L948.8,138L948.8,138L948.8,138z"/>
	</g>
	<g>
		<path class="st4" d="M915.3,147.8c4.4-8,12.6-12.6,21.1-12.8l1.6-2.9l-10.9-6L915.3,147.8L915.3,147.8L915.3,147.8L915.3,147.8z"
			/>
		<path class="st9" d="M914.9,148.4c-0.3-0.2-0.4-0.6-0.3-0.9c0,0,0,0,0,0l11.9-21.7c0.2-0.3,0.6-0.4,0.9-0.3l10.9,6
			c0.3,0.2,0.4,0.6,0.3,0.9l-1.6,2.9c-0.1,0.2-0.3,0.3-0.6,0.3c-8.6,0.2-16.5,5-20.6,12.5c-0.1,0.1-0.1,0.2-0.2,0.2
			C915.4,148.5,915.2,148.5,914.9,148.4z M927.4,127l-7.7,14.1c4.4-4.1,10.2-6.6,16.4-6.8l1.1-2L927.4,127z"/>
	</g>
	<g>
		<polygon class="st4" points="927.2,126.2 938,132.1 938,132.1 		"/>
	</g>
	<g>
		<path class="st7" d="M948.8,138c-3.9-2.1-8.2-3.1-12.4-3v0c-8.5,0.2-16.7,4.8-21.1,12.8l0,0l10.9,5.9l5.3,2.9l5.6,3L948.8,138
			L948.8,138z"/>
		<path class="st8" d="M936.7,160.3L915,148.4c-0.3-0.2-0.4-0.6-0.3-0.9c4.3-7.9,12.7-13,21.7-13.2c4.4-0.1,8.8,1,12.7,3.1
			c0,0,0,0,0,0l0.1,0c0.3,0.2,0.4,0.6,0.3,0.9L937.5,160C937.4,160.4,937,160.5,936.7,160.3z M916.2,147.6l20.5,11.3l11.2-20.5
			c-3.6-1.8-7.5-2.7-11.5-2.6C928.1,135.8,920.4,140.4,916.2,147.6z"/>
	</g>
</g>
<g>
	<g>
		<path class="st10" d="M1025.5,91.2l-9.3-7.9l0,0l0,0l-15.3,17.8l0,0l0,0l0,0l17.7,15.1l15.2-17.8L1025.5,91.2z M1012.2,105.6
			c-3.3-2.8-3.7-7.8-0.9-11.1c2.8-3.3,7.8-3.7,11.1-0.9c3.3,2.8,3.7,7.8,0.9,11.1C1020.5,108.1,1015.5,108.5,1012.2,105.6z"/>
		<path class="st11" d="M1000.6,101.6c-0.3-0.2-0.3-0.6-0.1-0.9l15.3-17.8c0.3-0.3,0.8-0.3,1,0.1l17.6,15c0.3,0.2,0.3,0.6,0.1,0.9
			l-15.2,17.8c-0.2,0.3-0.6,0.3-0.9,0.1l-17.6-15C1000.6,101.6,1000.6,101.6,1000.6,101.6z M1001.8,101l16.8,14.3l14.4-16.9
			l-16.8-14.3L1001.8,101z M1011.8,106.1c-3.5-3-4-8.4-0.9-11.9c3-3.5,8.4-4,11.9-0.9c3.5,3,4,8.4,0.9,11.9
			C1020.7,108.7,1015.4,109.1,1011.8,106.1z M1022,94.2c-3-2.6-7.6-2.2-10.2,0.8c-2.6,3-2.2,7.6,0.8,10.2c3,2.6,7.6,2.2,10.2-0.8
			C1025.4,101.3,1025.1,96.8,1022,94.2z"/>
	</g>
	<g>
		<circle class="st12" cx="1017.3" cy="99.7" r="4"/>
		<path class="st13" d="M1014.3,103.2c-1.9-1.7-2.2-4.6-0.5-6.5c1.7-1.9,4.6-2.2,6.5-0.5c1.9,1.7,2.2,4.6,0.5,6.5
			C1019.2,104.6,1016.3,104.8,1014.3,103.2z M1019.5,97.1c-1.4-1.2-3.5-1-4.8,0.4c-1.2,1.4-1,3.5,0.4,4.8s3.5,1,4.8-0.4
			S1020.9,98.3,1019.5,97.1z"/>
	</g>
	<g>
		<path class="st14" d="M1011.4,94.6c-2.8,3.3-2.4,8.2,0.9,11.1c3.3,2.8,8.2,2.4,11.1-0.9s2.4-8.2-0.9-11.1
			C1019.1,90.9,1014.2,91.3,1011.4,94.6z M1020.4,102.3c-1.4,1.7-4,1.9-5.6,0.4c-1.7-1.4-1.9-4-0.4-5.6s4-1.9,5.6-0.4
			C1021.6,98.1,1021.8,100.6,1020.4,102.3z"/>
		<path class="st15" d="M1011.8,106.1c-3.5-3-4-8.4-0.9-11.9c3-3.5,8.4-4,11.9-0.9c3.5,3,4,8.4,0.9,11.9
			C1020.7,108.7,1015.4,109.1,1011.8,106.1z M1022,94.2c-3-2.6-7.6-2.2-10.2,0.8c-2.6,3-2.2,7.6,0.8,10.2s7.6,2.2,10.2-0.8
			S1025.1,96.8,1022,94.2z M1014.3,103.2c-1.9-1.7-2.2-4.6-0.5-6.5c1.7-1.9,4.6-2.2,6.5-0.5c1.9,1.7,2.2,4.6,0.5,6.5
			C1019.2,104.6,1016.3,104.8,1014.3,103.2z M1019.5,97.1c-1.4-1.2-3.5-1-4.8,0.4c-1.2,1.4-1,3.5,0.4,4.8c1.4,1.2,3.5,1,4.8-0.4
			C1021.1,100.5,1020.9,98.3,1019.5,97.1z"/>
	</g>
</g>
<g>
	<g>
		<path class="st10" d="M913.2,337.4l-9-7.5l0,0l-7.5,9.1l18.1,15l7.5-9.1L913.2,337.4C913.3,337.4,913.3,337.4,913.2,337.4
			C913.3,337.4,913.3,337.4,913.2,337.4L913.2,337.4z"/>
		<path class="st11" d="M914.5,354.5l-18.1-15c-0.3-0.2-0.3-0.6-0.1-0.9l7.5-9.1c0.1-0.2,0.4-0.3,0.6-0.2c0.1,0,0.2,0.1,0.3,0.1
			l18.1,15c0.3,0.2,0.3,0.6,0.1,0.9l-7.5,9.1C915.1,354.6,914.7,354.7,914.5,354.5z M897.6,338.9l17.2,14.2l6.7-8.1l-17.2-14.2
			L897.6,338.9z"/>
	</g>
	<g>
		<path class="st14" d="M889.2,348.1L889.2,348.1l18.1,15l-1.6-16.6L889.2,348.1C889.2,348.1,889.2,348.1,889.2,348.1L889.2,348.1z"
			/>
		<path class="st15" d="M906.9,363.5L906.9,363.5l-18.1-15c-0.3-0.2-0.3-0.6-0.1-0.9l0,0c0.1-0.1,0.3-0.2,0.4-0.2l16.5-1.6
			c0.2,0,0.3,0,0.5,0.1l0,0c0.1,0.1,0.2,0.3,0.2,0.4L908,363c0,0.3-0.1,0.5-0.3,0.6S907.1,363.7,906.9,363.5z M890.8,348.5
			l15.8,13.1l-1.4-14.5L890.8,348.5z"/>
	</g>
</g>
<g>
	<g>
		<path class="st10" d="M189.9,40.9l-18.1,3.7l-3.7-18.1l-14.4,21.8l21.8,14.4L189.9,40.9L173.5,30L189.9,40.9L189.9,40.9z
			 M176,55.2c-0.9,1.4-2.9,1.8-4.3,0.9c-1.4-0.9-1.8-2.9-0.9-4.3c0.9-1.4,2.9-1.8,4.3-0.9C176.6,51.9,177,53.8,176,55.2z
			 M165.4,48.2c-0.9,1.4-2.9,1.8-4.3,0.9c-1.4-0.9-1.8-2.9-0.9-4.3s2.9-1.8,4.3-0.9C166,44.9,166.3,46.8,165.4,48.2z"/>
		<path class="st11" d="M175.1,63.3l-21.8-14.4c-0.3-0.2-0.4-0.6-0.2-0.9l14.4-21.8c0.2-0.2,0.4-0.3,0.7-0.3
			c0.3,0.1,0.5,0.3,0.5,0.5l3.5,17.4l15.9-3.2l-15-9.9c-0.3-0.2-0.4-0.6-0.2-0.9c0.2-0.3,0.6-0.4,0.9-0.2l16.4,10.8c0,0,0,0,0,0
			c0,0,0,0,0,0c0,0,0,0,0,0c0,0,0,0,0,0c0,0,0,0,0,0l0,0c0.1,0.1,0.2,0.2,0.3,0.4c0,0,0,0.1,0,0.1c0,0.1,0,0.3-0.1,0.4c0,0,0,0,0,0
			L176,63.1C175.8,63.4,175.4,63.5,175.1,63.3z M154.6,48.1l20.7,13.7l13.2-19.9l-16.5,3.4c-0.4,0.1-0.7-0.2-0.8-0.5l-3.4-16.5
			L154.6,48.1z M171.4,56.7c-1.7-1.1-2.2-3.5-1.1-5.2c1.1-1.7,3.5-2.2,5.2-1.1c1.7,1.1,2.2,3.5,1.1,5.2
			C175.4,57.3,173.1,57.8,171.4,56.7z M174.8,51.5c-1.1-0.7-2.6-0.4-3.3,0.7c-0.7,1.1-0.4,2.6,0.7,3.3c1.1,0.7,2.6,0.4,3.3-0.7
			C176.2,53.8,175.9,52.3,174.8,51.5z M160.8,49.6c-1.7-1.1-2.2-3.5-1.1-5.2c1.1-1.7,3.5-2.2,5.2-1.1c1.7,1.1,2.2,3.5,1.1,5.2
			C164.8,50.3,162.5,50.8,160.8,49.6z M164.2,44.5c-1.1-0.7-2.6-0.4-3.3,0.7c-0.7,1.1-0.4,2.6,0.7,3.3c1.1,0.7,2.6,0.4,3.3-0.7
			C165.6,46.7,165.3,45.2,164.2,44.5z"/>
	</g>
	<g>
		<path class="st12" d="M170.9,51.8c-0.9,1.4-0.5,3.3,0.9,4.3s3.3,0.5,4.3-0.9c0.9-1.4,0.6-3.3-0.9-4.3
			C173.7,50,171.8,50.4,170.9,51.8z"/>
		<path class="st13" d="M171.4,56.7c-1.7-1.1-2.2-3.5-1.1-5.2c1.2-1.7,3.5-2.2,5.2-1.1s2.2,3.5,1.1,5.2
			C175.4,57.3,173.1,57.8,171.4,56.7z M174.8,51.5c-1.1-0.7-2.6-0.4-3.3,0.7c-0.7,1.1-0.4,2.6,0.7,3.3c1.1,0.7,2.6,0.4,3.3-0.7
			C176.2,53.7,175.9,52.3,174.8,51.5z"/>
	</g>
	<g>
		<path class="st12" d="M160.2,44.8c-0.9,1.4-0.5,3.3,0.9,4.3c1.4,0.9,3.3,0.5,4.3-0.9c0.9-1.4,0.6-3.3-0.9-4.3
			C163.1,43,161.2,43.4,160.2,44.8z"/>
		<path class="st13" d="M160.7,49.6c-1.7-1.1-2.2-3.5-1.1-5.2c1.2-1.7,3.5-2.2,5.2-1.1c1.7,1.1,2.2,3.5,1.1,5.2
			C164.8,50.3,162.5,50.8,160.7,49.6z M164.1,44.5c-1.1-0.7-2.6-0.4-3.3,0.7c-0.7,1.1-0.4,2.6,0.7,3.3c1.1,0.7,2.6,0.4,3.3-0.7
			C165.5,46.7,165.2,45.2,164.1,44.5z"/>
	</g>
	<g>
		<polygon class="st14" points="168.1,26.5 168.1,26.4 168.1,26.5 168.1,26.5 168.1,26.5 171.7,44.6 189.9,40.9 173.5,30 
			168.1,26.4 		"/>
		<path class="st15" d="M171.4,45.1c-0.2-0.1-0.3-0.3-0.3-0.4l-3.7-18.1c0,0,0,0,0,0c0,0,0,0,0,0c-0.1-0.3,0.1-0.6,0.3-0.7
			c0.1-0.1,0.2-0.1,0.3-0.1c0.2,0,0.3,0,0.5,0.1l21.8,14.4c0.2,0.2,0.4,0.4,0.3,0.7c-0.1,0.3-0.3,0.5-0.5,0.5l-18.1,3.7
			C171.7,45.3,171.5,45.2,171.4,45.1z M169.1,27.9l3.2,15.8l15.8-3.2L169.1,27.9z"/>
	</g>
</g>
<g>
	<path class="st10" d="M787.1,277.4L787.1,277.4c6.3,0,11.4-5.1,11.4-11.4c0-6.3-5.1-11.4-11.4-11.4c-6.3,0-11,4.8-11.3,10.8v1.2
		C776,272.6,781,277.4,787.1,277.4L787.1,277.4z M787.1,260.1l6,6l-6,6l-6-6L787.1,260.1z"/>
	<path class="st11" d="M787.1,278C787.1,278,787.1,278,787.1,278c-6.4,0-11.6-5-11.9-11.3l0-1.2c0.3-6.5,5.5-11.4,11.9-11.4
		c6.6,0,11.9,5.4,11.9,11.9C799,272.6,793.7,278,787.1,278z M787.1,276.8L787.1,276.8c6,0,10.8-4.8,10.8-10.8
		c0-5.9-4.8-10.8-10.8-10.8c-5.8,0-10.5,4.4-10.8,10.2l0,1.1C776.6,272.3,781.3,276.8,787.1,276.8z M787.1,272.6
		c-0.1,0-0.3-0.1-0.4-0.2l-6-6c-0.2-0.2-0.2-0.6,0-0.8l6-6c0.2-0.2,0.6-0.2,0.8,0l6,6c0.2,0.2,0.2,0.6,0,0.8l-6,6
		C787.4,272.6,787.2,272.6,787.1,272.6z M781.9,266.1l5.2,5.2l5.2-5.2l-5.2-5.2L781.9,266.1z"/>
</g>
</svg>
