<svg version="1.1"
	 xmlns="http://www.w3.org/2000/svg" xmlns:xlink="http://www.w3.org/1999/xlink" x="0px" y="0px" viewBox="0 0 130.2 91.4"
	 style="enable-background:new 0 0 130.2 91.4;" xml:space="preserve">
<style type="text/css">
	.st0{fill:#F6ECBE;}
	.st1{fill:#D7D3A3;}
	.st2{fill:#EE9D5F;}
	.st3{fill:#F6D5EE;}
	.st4{fill:#D7B0D3;}
	.st5{fill:#A64275;}
	.st6{fill:#F0BF54;}
	.st7{fill:#ED5580;}
	.st8{fill:#C9E9F6;}
	.st9{fill:#A2C1D7;}
	.st10{fill:#4273C4;}
	.st11{fill:#2F9EF3;}
</style>
<g id="Layer_1-2">
	<path class="st0" d="M125.7,2H71.1c-1.1,0-1.9,0.9-1.9,1.9v35c0,1.1,0.8,1.9,1.9,1.9h21l5.6,5.9c0.2,0.3,0.4,0.6,0.5,1
		c0.2,0.6,0.6,1,1.1,1.2c0.2,0.1,0.5,0.2,0.7,0.2c0.5,0-0.2-1.4,0.2-1.8l3.6-6.5h21.9c1.1,0,1.9-0.8,1.9-1.9v-35
		C127.6,2.8,126.8,2,125.7,2C125.7,2,125.7,2,125.7,2z"/>
	<path class="st1" d="M126.3,2L69.8,38.9c0,1.1,0.8,1.9,1.9,1.9h21l4.1,7.4c0.8,1.5,3,1.5,3.8-0.1l3.8-7.3h21.9
		c1.1,0,1.9-0.8,1.9-1.9v-35C128.2,2.8,127.4,2,126.3,2L126.3,2z"/>
	<path class="st2" d="M98.7,51.3c-1.5,0-2.9-0.8-3.6-2.1l-3.5-6.4H71.7c-2.2,0-3.9-1.8-3.9-3.9v-35c0-2.2,1.8-3.9,3.9-3.9h54.6
		c2.1,0,3.9,1.7,3.9,3.8v35c0,2.2-1.8,3.9-3.9,3.9h-20.7l-3.2,6.3C101.7,50.4,100.3,51.3,98.7,51.3L98.7,51.3L98.7,51.3z M92.7,38.8
		h1.2l4.7,8.4c0,0,0.1,0.1,0.2,0.1c0.1,0,0.1-0.1,0.2-0.1l4.3-8.4h23.2L126.3,4H71.7l0.1,34.9L92.7,38.8L92.7,38.8z"/>
	<path class="st3" d="M57.9,7H3.3C2.2,7,1.4,7.8,1.4,8.9v35c0,1.1,0.8,1.9,1.9,1.9h21l5.6,5.9c0.2,0.3,0.4,0.6,0.5,1
		c0.1,0.6,0.6,1,1.1,1.2c0.2,0.1,0.5,0.2,0.7,0.2c0.5,0-0.2-1.4,0.2-1.8l3.6-6.5h21.9c1.1,0,1.9-0.8,1.9-1.9v-35
		C59.8,7.8,58.9,7,57.9,7C57.9,7,57.9,7,57.9,7z"/>
	<path class="st4" d="M58.5,7L2,43.9c0,1.1,0.8,1.9,1.9,1.9h21l4.1,7.4c0.8,1.5,3,1.5,3.8-0.1l3.8-7.3h21.9c1.1,0,1.9-0.8,1.9-1.9
		v-35C60.4,7.8,59.5,7,58.5,7z"/>
	<path class="st5" d="M30.9,56.3c-1.5,0-2.9-0.8-3.6-2.1l-3.5-6.4H3.9C1.8,47.8,0,46,0,43.9v-35C0,6.8,1.8,5,3.9,5h54.6
		c2.1,0,3.9,1.7,3.9,3.8v35c0,2.2-1.8,3.9-3.9,3.9H37.8L34.6,54C33.9,55.4,32.5,56.3,30.9,56.3L30.9,56.3L30.9,56.3z M24.9,43.8h1.2
		l4.6,8.4c0,0,0,0.1,0.2,0.1c0.1,0,0.1-0.1,0.2-0.1l4.3-8.4h23.2L58.5,9H3.9L4,43.9L24.9,43.8L24.9,43.8z"/>
	<polygon class="st6" points="98.7,10.6 101.6,17.4 108.9,18 103.3,22.8 105,30 98.7,26.2 92.4,30 94.1,22.8 88.5,18 95.9,17.4 	"/>
	<path class="st2" d="M92.4,31.2c-0.2,0-0.5-0.1-0.7-0.2c-0.4-0.3-0.6-0.8-0.5-1.2l1.5-6.5l-5.1-4.3c-0.4-0.3-0.5-0.8-0.4-1.3
		c0.2-0.5,0.6-0.8,1-0.8l6.6-0.5l2.6-6.1c0.2-0.4,0.6-0.7,1.1-0.7s0.9,0.3,1.1,0.7l2.6,6.1l6.6,0.5c0.5,0,0.9,0.4,1,0.8s0,1-0.4,1.3
		l-5.1,4.3l1.5,6.5c0.1,0.5-0.1,1-0.5,1.2s-0.9,0.3-1.3,0l-5.7-3.5L93,31C92.9,31.2,92.6,31.2,92.4,31.2L92.4,31.2z M98.7,25
		c0.2,0,0.4,0.1,0.6,0.2l3.8,2.4l-1-4.4c-0.1-0.4,0.1-0.9,0.4-1.2L106,19l-4.5-0.4c-0.4,0-0.8-0.3-1-0.7l-1.7-4.2L97,17.9
		c-0.2,0.4-0.6,0.7-1,0.7L91.5,19l3.4,2.9c0.3,0.3,0.5,0.8,0.4,1.2l-1,4.4l3.8-2.4C98.3,25,98.5,25,98.7,25L98.7,25z"/>
	<path class="st7" d="M39.8,19.1L39.8,19.1c-2.4-2.4-6.2-2.4-8.5,0c-2.4-2.4-6.2-2.4-8.5,0l0,0c-2.4,2.4-2.4,6.2,0,8.6l7,7
		c0.9,0.9,2.3,0.9,3.1,0l7-7C42.1,25.3,42.1,21.5,39.8,19.1L39.8,19.1z"/>
	<path class="st5" d="M31.2,36.8c-1,0-1.9-0.4-2.6-1.1l-7-7c-1.4-1.4-2.2-3.3-2.2-5.3s0.8-3.9,2.2-5.3c1.4-1.4,3.3-2.2,5.3-2.2
		c1.5,0,3,0.5,4.3,1.3c1.2-0.9,2.7-1.3,4.3-1.3c2,0,3.9,0.8,5.3,2.2c2.9,2.9,2.9,7.7,0,10.7l-7,7C33.1,36.4,32.2,36.8,31.2,36.8
		L31.2,36.8z M26.9,18.9c-1.2,0-2.4,0.5-3.2,1.3s-1.3,2-1.3,3.2s0.5,2.4,1.3,3.2l7,7c0.2,0.2,0.4,0.2,0.5,0.2s0.3,0,0.5-0.2l7-7
		c1.8-1.8,1.8-4.6,0-6.4c-0.9-0.9-2-1.3-3.2-1.3s-2.3,0.5-3.2,1.3c-0.6,0.6-1.6,0.6-2.1,0C29.3,19.3,28.2,18.8,26.9,18.9L26.9,18.9z
		"/>
	<path class="st8" d="M101.7,25.7H28.1c-1.4,0-2.6,1.2-2.6,2.6v47.1c0,1.4,1.1,2.6,2.6,2.6h28.3l7.6,8c0.3,0.4,0.5,0.8,0.7,1.3
		c0.2,0.8,0.8,1.4,1.5,1.7c0.3,0.1,0.7,0.2,1,0.2c0.7,0-0.3-1.9,0.2-2.4l4.8-8.8h29.5c1.4,0,2.6-1.1,2.6-2.6V28.3
		C104.2,26.8,103.1,25.7,101.7,25.7C101.7,25.7,101.7,25.7,101.7,25.7z"/>
	<path class="st9" d="M102.5,25.7L26.4,75.4c0,1.4,1.1,2.6,2.6,2.6h28.3l5.5,9.9c1.1,2.1,4.1,2,5.2-0.1L73,78h29.5
		c1.4,0,2.6-1.1,2.6-2.6V28.3C105.1,26.8,103.9,25.7,102.5,25.7z"/>
	<path class="st10" d="M65.3,91.4c-1.8,0-3.4-1-4.3-2.5L56.1,80H29c-2.5,0-4.6-2.1-4.6-4.6V28.3c0-2.5,2-4.6,4.6-4.6h73.5
		c2.5,0,4.5,2,4.6,4.5v47.2c0,2.5-2.1,4.6-4.6,4.6H74.2l-4.5,8.8C68.8,90.4,67.2,91.4,65.3,91.4L65.3,91.4z M29,27.7
		c-0.3,0-0.6,0.3-0.6,0.6v47.1c0,0.3,0.3,0.6,0.6,0.6h29.4l6.1,11c0.2,0.4,0.7,0.5,0.8,0.5c0.2,0,0.6-0.1,0.8-0.5l5.6-11h30.8
		c0.3,0,0.6-0.3,0.6-0.6V28.3c0-0.3-0.3-0.6-0.6-0.6H29z"/>
	<path class="st11" d="M68.8,61.6c-0.3,0-0.7-0.1-1-0.2c-1.2,0-2.3,0-3.4,0c-1.8,0-3.1-0.4-4.3-1.3c-0.3-0.2-0.5-0.3-0.9-0.3
		c-0.2,0.5-0.8,0.9-1.4,0.9l-3.8,0c-0.8,0-1.5-0.7-1.5-1.5l0.1-9.8c0-0.4,0.2-0.8,0.5-1.1c0.3-0.3,0.7-0.4,1-0.4l3.8,0
		c0.2,0,0.3,0,0.5,0.1c0,0,0.3-0.4,0.3-0.4c0.2-0.3,0.4-0.6,0.6-0.8c0.8-1.2,1.4-1.9,3.5-2.2c1-0.2,3.5-2.9,5.2-5.3
		c0.2-0.3,0.5-0.5,0.9-0.6c0.3-0.1,0.5-0.1,0.8-0.1c0.7,0,1.3,0.2,1.8,0.7c0.8,0.8,0.8,1.9,0.8,2.1c-0.1,1.5-0.7,3.1-1.4,4.4
		c0.3,0,3.8,0,3.8,0c0.2,0,0.4,0,0.6,0.1c1.1,0.4,1.8,1.2,2.1,2.3c0.2,0.9,0.1,1.8-0.3,2.5c0.1,0.2,0.2,0.5,0.3,0.7
		c0.2,1.2,0,2.2-0.5,3c0.1,0.3,0.2,0.7,0.2,1.1c0,1-0.3,2.2-1.6,3c0.1,2-1.1,2.8-2.1,3.2c-0.2,0.1-0.4,0.1-0.6,0.1
		C72.6,61.8,69,61.6,68.8,61.6L68.8,61.6z"/>
	<path class="st10" d="M69.6,40.1c1.1,0,1.1,1.3,1.1,1.3c-0.1,2.5-2.8,6.1-2.8,6.1s0,0,0.1,0c0.2-0.1,0.5-0.2,0.8-0.2c0,0,0,0,2.7,0
		c0.8,0,1.8,0,3.1,0h0.1l0,0c0.6,0.2,0.9,0.6,1.1,1.2c0.2,1-0.1,1.8-0.8,2.2c0.4,0.2,0.7,0.6,0.8,1c0.2,1.1-0.2,2.1-1.1,2.4h0
		c0.4,0.3,0.7,0.8,0.7,1.4c0,1.3-0.7,1.7-1.3,1.9l-0.1,0l-0.7-0.1c0.2,0.3,0.4,0.6,0.4,1c0.1,1.1-0.2,1.7-1.1,2l-0.1,0h-0.1
		c-1,0-3.6-0.2-3.6-0.2c-0.3,0-0.6-0.1-0.8-0.2c-1.2,0-2.5,0-3.7,0c-1.3,0-2.4-0.2-3.5-1c-0.9-0.7-1.9-0.7-3-0.7c0,0-0.1,0-0.1,0v1
		l-3.8,0l0.1-9.8l3.8,0v0.7c0.1,0,0.2,0,0.3,0c0.7-0.1,1.3-1,1.7-1.5c1.3-1.6,1.2-2.1,3.2-2.5c2.3-0.4,6.1-5.9,6.1-5.9
		C69.3,40.1,69.4,40.1,69.6,40.1 M69.5,56.9L69.5,56.9L69.5,56.9L69.5,56.9 M69.6,37.1L69.6,37.1c-0.4,0-0.7,0-1.1,0.1
		c-0.7,0.2-1.3,0.6-1.8,1.2c-1.5,2.1-3.5,4.3-4.3,4.7c-2.5,0.5-3.4,1.5-4.3,2.8c-0.1,0.2-0.2,0.3-0.4,0.5l-3.5,0c0,0,0,0,0,0
		c-1.7,0-3,1.3-3,3L51,59.1c0,1.7,1.3,3,3,3l3.8,0c0,0,0,0,0,0c0.6,0,1.2-0.2,1.8-0.6c1.8,1.1,3.6,1.3,4.8,1.3c1.1,0,2.2,0,3.2,0
		c0.4,0.1,0.8,0.2,1.2,0.2c0.3,0,2.6,0.1,3.6,0.2h0.1c0.1,0,0.1,0,0.2,0c0.3,0,0.7-0.1,1-0.2l0.1,0c0.9-0.3,2.8-1.3,3-3.8
		c1-0.9,1.6-2.2,1.6-3.8c0-0.3,0-0.6-0.1-0.8c0.5-1,0.7-2.3,0.4-3.6c0-0.1-0.1-0.3-0.1-0.4c0.3-0.9,0.3-1.8,0.1-2.8
		c-0.3-1.5-1.4-2.8-3-3.4c-0.3-0.1-0.7-0.2-1.1-0.2h-1.6c0.3-0.9,0.6-1.8,0.6-2.7c0,0,0-0.1,0-0.1c0-0.5-0.1-2-1.3-3.2
		C71.7,37.5,70.7,37,69.6,37.1L69.6,37.1L69.6,37.1z"/>
</g>
</svg>
