<?xml version="1.0" encoding="utf-8"?>
<!-- Generator: Adobe Illustrator 27.4.0, SVG Export Plug-In . SVG Version: 6.00 Build 0)  -->
<svg version="1.1" id="Layer_1" xmlns="http://www.w3.org/2000/svg" xmlns:xlink="http://www.w3.org/1999/xlink" x="0px" y="0px"
	 viewBox="0 0 101.4 68.5" style="enable-background:new 0 0 101.4 68.5;" xml:space="preserve">
<style type="text/css">
	.st0{fill:#C4D451;}
	.st1{fill:#49BD6F;}
	.st2{fill:#8B99CC;}
	.st3{fill:#6A7699;}
	.st4{fill:#EDCD51;}
	.st5{fill:#EE9D5F;}
	.st6{fill:#F75E71;}
	.st7{fill:#B54982;}
</style>
<g>
	<path class="st0" d="M10.7,40.1c0.1-1.2,0.6-2.3,1.6-3.4l0.4-0.5l-0.5-0.5c-0.6-0.6-1.2-1.3-1.7-2l-0.3-0.5l-0.5,0.2
		c-0.6,0.2-1.8,0.8-2.8,1.9l-0.6-0.4c0.9-1.1,2.2-1.8,2.9-2.1l0.7-0.3l-0.3-0.7c-0.3-0.6-0.5-1.3-0.6-2L8.7,29L8,29.3
		c-0.5,0.1-0.9,0.2-1.4,0.2c-0.7,0-1.5-0.2-2.2-0.5l0.3-0.6c0.6,0.3,1.3,0.4,1.9,0.4c0.8,0,1.4-0.2,1.7-0.3l0.5-0.2l0-0.5
		c0-0.3,0-0.6,0-0.9c0.1-0.6,0.2-1.1,0.3-1.7l0.1-0.4l-0.3-0.3c-0.3-0.3-0.5-0.6-0.7-1.1C8,23.2,8,23,7.9,22.9
		c-0.4-1.1-0.5-2.1-0.2-3.2L7.9,19l-1.5-0.5l0.2-0.6l1.6,0.5L8.5,18c0.6-0.8,1.3-1.4,2.1-1.8c0.7-0.4,1.6-0.6,2.5-0.6l0.8,0l0.5-1.6
		l0.6,0.2l-0.5,1.5l0.6,0.3c1.2,0.5,2.1,1.4,2.7,2.5c0.2,0.4,0.4,0.8,0.4,1.2l0.1,0.4l0.4,0.1c0.8,0.3,1.5,0.7,2.3,1.3l0.4,0.3
		l0.4-0.3c0.7-0.5,1.6-1.4,2-2.9l0.7,0.1c-0.4,1.7-1.3,2.6-1.9,3.1l-0.6,0.5l0.5,0.6c0.5,0.6,0.9,1.2,1.3,1.7l0.4,0.7l0.7-0.4
		c0.6-0.4,1.8-1,3.3-1l-0.1,0.7c-1.6,0.1-2.8,0.9-3.1,1.1L24.6,26l0.2,0.5c0.3,0.9,0.5,1.7,0.5,2.6l0.1,0.7l0.7,0c0.1,0,0.3,0,0.4,0
		c1.2,0,2.2,0.3,3.1,0.8l-0.4,0.5c-0.8-0.4-1.7-0.6-2.7-0.6c-0.2,0-0.4,0-0.6,0l-0.6,0l-0.1,0.6c-0.1,0.5-0.1,0.9-0.2,1.3
		c-0.6,2.2-2,3.9-3.8,4.8c-1,0.5-2,0.7-3.1,0.7c-1.4,0-2.9-0.4-4.2-1.2l-0.5-0.3L12.9,37c-0.8,1-1.3,2-1.5,3.1L10.7,40.1z"/>
</g>
<g>
	<path class="st1" d="M13,16.3c0.1,0,0.1,0,0.2,0l1,0l0.6,0.3c1,0.4,1.8,1.2,2.3,2.2c0.2,0.4,0.3,0.7,0.4,1l0.2,0.8l0.8,0.3
		c0.7,0.3,1.4,0.7,2.2,1.2l0.7,0.5l0.7,0.8c0.5,0.5,0.9,1.1,1.2,1.6l0.6,1.1l0.2,0.7c0.3,0.8,0.4,1.6,0.5,2.4l0.1,1l-0.1,0.9
		c-0.1,0.4-0.1,0.8-0.2,1.2c-0.4,1.4-1.3,3.3-3.4,4.4C20,37,19,37.3,18,37.3c-1.3,0-2.6-0.4-3.8-1.1l-0.8-0.5l-0.7-0.6
		c-0.6-0.5-1.1-1.2-1.6-1.9l-0.4-0.6l-0.5-1.1C10,31,9.8,30.4,9.6,29.7l-0.2-0.9l0,0l-0.1-1.1c0-0.2,0-0.5,0-0.7
		c0.1-0.6,0.2-1.1,0.3-1.6l0.2-0.8L9.4,24C9.2,23.7,9,23.4,8.8,23c-0.1-0.2-0.2-0.3-0.2-0.4l0-0.1l0-0.1c-0.3-0.9-0.4-1.8-0.2-2.7
		l0.2-0.7l0.5-0.8c0.5-0.7,1.1-1.3,1.8-1.6C11.5,16.5,12.3,16.3,13,16.3 M13.9,13l-0.6,1.8c-0.1,0-0.2,0-0.3,0
		c-0.9,0-1.9,0.2-2.8,0.6c-1,0.5-1.8,1.2-2.3,2.1L6.1,17l-0.7,2L7,19.5c-0.3,1.2-0.2,2.4,0.2,3.5c0.1,0.2,0.2,0.4,0.3,0.7
		C7.7,24.2,8,24.6,8.3,25c-0.2,0.6-0.3,1.2-0.4,1.8c0,0.3-0.1,0.7,0,1C7.6,27.9,7.1,28,6.5,28c-0.6,0-1.4-0.2-2.2-0.6l-1.1,1.9
		c1.2,0.7,2.3,0.9,3.2,0.9c0.6,0,1.2-0.1,1.6-0.2c0.2,0.7,0.4,1.5,0.7,2.2c-1.1,0.4-2.7,1.4-3.7,3L7,36.3c0.7-1.2,2.1-1.9,2.8-2.2
		c0.5,0.8,1.2,1.5,1.8,2.1c-0.8,1-1.8,2.5-1.7,4.7l2.2-0.1c0-1.5,0.8-2.7,1.3-3.3c1.4,0.8,3,1.3,4.6,1.3c1.2,0,2.4-0.3,3.5-0.8
		c2.1-1.1,3.5-3,4.2-5.3c0.1-0.5,0.2-0.9,0.3-1.4c0.2,0,0.3,0,0.5,0c0.8,0,1.9,0.2,2.9,0.9l1.1-1.4l0.2-0.3c-1.4-1.1-3-1.4-4.2-1.4
		c-0.2,0-0.3,0-0.5,0c-0.1-0.9-0.3-1.8-0.6-2.7c0.6-0.5,1.8-1,3-1c0.1,0,0.2,0,0.4,0h0l0.2-2.2c-0.2,0-0.4,0-0.6,0
		c-1.6,0-3,0.6-3.9,1.2c-0.4-0.7-0.9-1.3-1.3-1.9c0.9-0.7,2-2.1,2.3-4.3l-2.2-0.3c-0.2,1.8-1.2,2.7-1.8,3.1c-0.8-0.6-1.6-1-2.5-1.4
		c-0.1-0.5-0.3-1-0.5-1.4c-0.7-1.4-1.8-2.3-3.1-2.9l0.5-1.6L13.9,13L13.9,13z"/>
</g>
<g>
	<rect x="72" y="24.2" transform="matrix(0.96 -0.2799 0.2799 0.96 -8.6469 24.849)" class="st2" width="21.4" height="36.9"/>
	<polygon class="st2" points="80.9,16.6 73.3,18.8 77.8,17.5 76.5,12.9 71.9,14.3 73.3,18.8 70.1,19.7 67.2,28 87.8,22 	"/>
	<path class="st2" d="M62.9,12.4c-0.5,0.1-0.7,0.6-0.6,1.1c0.1,0.5,0.6,0.7,1.1,0.6c0.5-0.1,0.7-0.6,0.6-1.1
		C63.8,12.6,63.3,12.3,62.9,12.4z"/>
	<path class="st2" d="M62.2,18c-0.5,0.1-0.7,0.6-0.6,1.1c0.1,0.5,0.6,0.7,1.1,0.6c0.5-0.1,0.7-0.6,0.6-1.1
		C63.1,18.1,62.6,17.8,62.2,18z"/>
	<path class="st2" d="M56.8,15c-0.5,0.1-0.7,0.6-0.6,1.1s0.6,0.7,1.1,0.6c0.5-0.1,0.7-0.6,0.6-1.1C57.8,15.1,57.3,14.9,56.8,15z"/>
</g>
<g>
	<path class="st3" d="M99.1,57.2l-2-6.8c0,0,0,0,0,0s0,0,0,0l-8.4-28.6c0,0,0,0,0,0c0-0.1-0.1-0.2-0.2-0.3c0,0,0,0-0.1-0.1
		c0,0-0.1-0.1-0.1-0.1l-6.9-5.4c-0.3-0.2-0.6-0.3-0.9-0.2l-2.2,0.6l-1-3.6c-0.1-0.3-0.2-0.5-0.5-0.6c-0.2-0.1-0.5-0.2-0.8-0.1
		l-4.5,1.3c-0.3,0.1-0.5,0.2-0.6,0.5c-0.1,0.2-0.2,0.5-0.1,0.8l1,3.6l-2.2,0.6c-0.3,0.1-0.6,0.3-0.7,0.6l-2.9,8.2c0,0.1,0,0.1,0,0.2
		c0,0,0,0,0,0.1c0,0.1,0,0.2,0,0.3c0,0,0,0,0,0l8.4,28.6c0,0,0,0,0,0c0,0,0,0,0,0l2,6.8c0.1,0.4,0.5,0.7,1,0.7c0.1,0,0.2,0,0.3,0
		l20.6-6C98.9,58.2,99.2,57.7,99.1,57.2z M73.2,14.9l2.6-0.8l0.8,2.6l-1.3,0.4l-1.3,0.4L73.2,14.9z M70.9,20.5l2.6-0.8c0,0,0,0,0,0
		l3.5-1l3.6-1.1l4.9,3.9L77.2,24l-8.4,2.5L70.9,20.5z M77.8,25.9l9.3-2.7l7.8,26.7l-18.6,5.4l-7.8-26.7L77.8,25.9z M78.3,62.2
		l-1.4-4.9l18.6-5.4l1.4,4.9L78.3,62.2z"/>
	<path class="st3" d="M62.6,11.5c-1,0.3-1.6,1.3-1.3,2.3c0.1,0.5,0.5,0.9,0.9,1.1c0.3,0.2,0.6,0.2,0.9,0.2c0.2,0,0.4,0,0.5-0.1
		c1-0.3,1.6-1.3,1.3-2.3C64.6,11.8,63.6,11.2,62.6,11.5z M63.1,13.4c-0.1,0-0.2,0-0.2-0.1c0-0.1,0-0.1,0.1-0.2c0,0,0,0,0,0
		c0.1,0,0.1,0,0.1,0.1C63.3,13.3,63.2,13.4,63.1,13.4z"/>
	<path class="st3" d="M63.3,17.2c-0.4-0.2-0.9-0.3-1.4-0.2c-1,0.3-1.6,1.3-1.3,2.3c0.1,0.5,0.5,0.9,0.9,1.1c0.3,0.2,0.6,0.2,0.9,0.2
		c0.2,0,0.4,0,0.5-0.1c1-0.3,1.6-1.3,1.3-2.3C64.1,17.8,63.8,17.4,63.3,17.2z M62.5,18.9c-0.1,0-0.2,0-0.2-0.1c0-0.1,0-0.1,0.1-0.2
		c0,0,0,0,0,0c0.1,0,0.1,0,0.1,0.1C62.6,18.8,62.5,18.9,62.5,18.9z"/>
	<path class="st3" d="M58,14.2c-0.4-0.2-0.9-0.3-1.4-0.2c-0.5,0.1-0.9,0.5-1.1,0.9c-0.2,0.4-0.3,0.9-0.2,1.4c0,0,0,0,0,0
		c0.2,0.8,1,1.3,1.8,1.3c0.2,0,0.3,0,0.5-0.1c0.5-0.1,0.9-0.5,1.1-0.9c0.2-0.4,0.3-0.9,0.2-1.4C58.7,14.8,58.4,14.4,58,14.2z
		 M57.1,16c0,0-0.1,0-0.1,0c0,0-0.1,0-0.1-0.1l0.3-0.1C57.2,15.9,57.2,16,57.1,16z M56.9,15.9c0-0.1,0-0.2,0.1-0.2c0,0,0,0,0,0
		c0.1,0,0.1,0,0.1,0.1L56.9,15.9z"/>
</g>
<g>
	<path class="st4" d="M38.4,23.3c0.1-0.9-0.1-1.7-0.3-2.3l-0.2-0.6l-0.6,0.1c-0.3,0.1-0.6,0.1-0.9,0.1c-0.1,0-0.2,0-0.2,0
		c-1.4,0-2.7-0.5-3.6-1.4c-1.2-1.2-1.6-2.9-1.3-4.8l0.1-0.6l-0.6-0.2c-0.6-0.3-1.2-0.4-1.8-0.4c-0.2,0-0.3,0-0.5,0l0,0
		c0.2,0,0.3,0,0.5,0c0.5,0,1.1,0.1,1.7,0.4l0.7,0.3l0.3-0.6c0.2-0.5,0.6-1,0.9-1.5l0.3-0.5l-0.4-0.5c-0.3-0.4-0.9-1-1.8-1.4l0,0
		c0.8,0.4,1.4,0.9,1.7,1.3l0.5,0.6l0.6-0.5c0.3-0.3,0.7-0.6,1.2-0.9l0.7-0.4L35,8.9c-0.3-0.4-0.6-1.1-0.6-2.1l0,0
		c0,1.3,0.6,2.1,0.8,2.3l0.4,0.4L36,9.3c0.2-0.1,0.4-0.1,0.6-0.2C37,9.1,37.3,9.1,37.7,9l0.4,0l0.2-0.4c0.1-0.2,0.3-0.4,0.5-0.7
		C39,7.9,39,7.8,39.1,7.8C39.7,7.3,40.4,7,41.1,7l0.7-0.1l0-1.1l0,0V7l0.5,0.2c0.6,0.2,1.2,0.5,1.6,0.9c0.4,0.4,0.7,1,0.9,1.6
		l0.2,0.5h1.1v0l-1.1,0l-0.1,0.7c-0.1,0.8-0.4,1.6-1,2.2c-0.2,0.2-0.4,0.4-0.7,0.5l-0.4,0.2l0,0.4c0,0.5-0.1,1.1-0.3,1.8l-0.2,0.5
		l0.4,0.3c0.4,0.3,1.2,0.7,2.2,0.7c0,0,0.1,0,0.1,0l0,0c0,0-0.1,0-0.1,0c-0.9,0-1.6-0.3-2-0.6l-0.7-0.4L42,17.2
		c-0.3,0.4-0.6,0.8-0.9,1.2l-0.5,0.6l0.6,0.5c0.3,0.2,0.9,0.8,1.2,1.6l0,0c-0.4-1-1.2-1.5-1.4-1.7L40.5,19l-0.4,0.3
		c-0.5,0.4-1,0.7-1.5,0.9l-0.7,0.3l0.3,0.7C38.5,22,38.6,22.7,38.4,23.3L38.4,23.3z"/>
</g>
<g>
	<path class="st5" d="M41.6,7.7l0.5,0.2C42.6,8,43,8.2,43.4,8.5c0.3,0.3,0.6,0.8,0.7,1.2l0.2,0.6l0,0.4c-0.1,0.7-0.3,1.3-0.8,1.7
		c-0.2,0.2-0.3,0.3-0.5,0.4l-0.7,0.4l0,0.8c0,0.5-0.1,1-0.3,1.6l-0.2,0.5l-0.3,0.6c-0.2,0.4-0.5,0.8-0.8,1.1L40,18.5l-0.4,0.3
		c-0.5,0.3-0.9,0.6-1.4,0.8l-0.6,0.2l-0.6,0.1C36.8,20,36.6,20,36.4,20c-0.1,0-0.2,0-0.2,0c-0.9,0-2.1-0.2-3.1-1.2
		c-1-1-1.4-2.5-1.1-4.1l0.1-0.6l0.2-0.5c0.2-0.5,0.5-1,0.8-1.4l0.3-0.4l0.6-0.5c0.3-0.3,0.7-0.5,1.1-0.8l0.3-0.2l0.9-0.3
		c0.1,0,0.3-0.1,0.4-0.1c0.4-0.1,0.7-0.1,1.1-0.1l0.8,0L39,9c0.1-0.2,0.2-0.3,0.4-0.5c0.1-0.1,0.1-0.1,0.1-0.1l0.1,0l0.1,0
		c0.4-0.3,0.9-0.5,1.5-0.6L41.6,7.7 M41,5.1l0,1.2c-0.8,0.1-1.6,0.4-2.3,0.9c-0.1,0.1-0.2,0.2-0.4,0.3c-0.2,0.2-0.5,0.5-0.6,0.8
		c-0.4,0-0.8,0.1-1.3,0.2c-0.2,0-0.5,0.1-0.7,0.2c-0.3-0.4-0.8-1.2-0.5-2.4l-1.5-0.3c-0.3,1.6,0.2,2.7,0.6,3.4
		c-0.4,0.3-0.9,0.6-1.3,0.9c-0.5-0.6-1.5-1.5-2.8-1.8l-0.3,1.5c1,0.2,1.7,1,2.1,1.4c-0.4,0.5-0.7,1.1-1,1.7c-0.5-0.2-1.2-0.4-2-0.4
		c-0.5,0-1,0.1-1.5,0.3l0.5,1.4c0.3-0.1,0.7-0.2,1-0.2c0.6,0,1.1,0.2,1.5,0.3c-0.4,2,0.1,4,1.5,5.4c1.1,1.1,2.6,1.6,4.1,1.6
		c0.1,0,0.2,0,0.3,0c0.3,0,0.6-0.1,1-0.1c0.2,0.5,0.5,1.5,0.2,2.4l1.2,0.4l0.3,0.1c0.5-1.4,0.2-2.6-0.1-3.4c0.6-0.2,1.2-0.6,1.7-1
		c0.5,0.4,1.2,1.1,1.4,2l1.5-0.3c-0.3-1.3-1.1-2.2-1.7-2.8c0.4-0.4,0.7-0.8,0.9-1.3c0.5,0.4,1.3,0.7,2.4,0.7c0.3,0,0.6,0,1-0.1
		l-0.3-1.5c-0.2,0-0.5,0.1-0.7,0.1c-0.8,0-1.4-0.3-1.7-0.6c0.2-0.6,0.3-1.3,0.4-2c0.3-0.2,0.6-0.4,0.8-0.6c0.8-0.8,1.2-1.7,1.2-2.7
		l1.2,0l0-1.5l-1.3,0C45.3,8.7,45,8,44.4,7.5c-0.5-0.5-1.2-0.9-1.9-1.1l0-1.3L41,5.1L41,5.1z"/>
</g>
<g>
	<path class="st6" d="M44.7,45.7c-0.7-0.2-1.3-0.7-1.7-1.3c-0.2-0.2-0.3-0.5-0.3-0.7l-0.1-0.4l-0.4-0.1c-0.5-0.1-1-0.3-1.5-0.6
		l-0.5-0.3l-0.5-0.5c-0.3-0.3-0.6-0.6-0.9-1l-0.5-0.6l0,0l-0.2-0.5c-0.2-0.5-0.4-1-0.5-1.5l-0.1-0.6l0-0.6c0-0.3,0-0.5,0.1-0.8
		c0.2-1.3,0.9-2.4,1.9-3.1c0.7-0.4,1.4-0.7,2.3-0.7c0.7,0,1.4,0.1,2.1,0.4l0.6,0.2l0.5,0.4c0.4,0.3,0.8,0.7,1.2,1.1l0.3,0.4l0.4,0.7
		c0.2,0.3,0.4,0.7,0.5,1.2l0.2,0.7l-0.1,0l0.1,0.5c0,0.2,0,0.3,0,0.5c0,0.3,0,0.7-0.1,1l-0.1,0.4l0.3,0.3c0.2,0.1,0.3,0.3,0.5,0.6
		c0.1,0.1,0.1,0.2,0.2,0.3c0.3,0.6,0.4,1.2,0.3,1.8l-0.1,0.5l0,0l-0.3,0.5c-0.3,0.5-0.6,0.9-1.1,1.2c-0.4,0.3-0.9,0.4-1.5,0.5
		l-0.6,0l0,0L44.7,45.7z"/>
</g>
<g>
	<path class="st7" d="M41.8,33.5c0.6,0,1.2,0.1,1.8,0.4l0.5,0.2l0.4,0.3c0.4,0.3,0.7,0.6,1,1l0.3,0.3l0.3,0.6
		c0.2,0.3,0.3,0.7,0.5,1.1l0.1,0.3l0.1,0.8c0,0.1,0,0.2,0,0.3c0,0.3,0,0.7-0.1,1l-0.1,0.8l0.6,0.5c0.1,0.1,0.2,0.2,0.3,0.4
		c0,0.1,0.1,0.1,0.1,0.1l0,0.1l0,0.1c0.2,0.4,0.3,0.9,0.2,1.3l0,0.4l-0.2,0.4c-0.2,0.4-0.5,0.7-0.8,0.9c-0.3,0.2-0.7,0.3-1.2,0.4
		l-0.5,0L44.9,45c-0.6-0.2-1-0.5-1.3-1c-0.1-0.2-0.2-0.3-0.2-0.5l-0.3-0.8l-0.8-0.2c-0.4-0.1-0.8-0.3-1.3-0.5l-0.4-0.2l-0.4-0.4
		c-0.3-0.3-0.6-0.6-0.8-0.9L39,40l-0.2-0.4c-0.2-0.5-0.4-0.9-0.4-1.3l-0.1-0.6l0-0.5c0-0.3,0-0.5,0-0.6c0.1-0.8,0.5-1.9,1.6-2.6
		C40.5,33.6,41.2,33.5,41.8,33.5 M46.2,30.1l-1.4,0.2c0.1,0.9-0.3,1.7-0.6,2.1c-0.8-0.3-1.6-0.5-2.4-0.5c-0.9,0-1.9,0.2-2.7,0.8
		c-1.3,0.8-2,2.1-2.3,3.6c0,0.3-0.1,0.6-0.1,0.9c-0.2,0-0.4,0.1-0.7,0.1c-0.4,0-1-0.1-1.4-0.4l-0.6,0.9L33.9,38
		c0.7,0.5,1.5,0.6,2.2,0.6c0.3,0,0.6,0,0.8-0.1c0.1,0.6,0.3,1.1,0.5,1.7c-0.4,0.4-1.2,0.8-2,0.8l0,1.4c1.2,0,2.2-0.6,2.7-1
		c0.3,0.4,0.6,0.7,1,1.1c-0.5,0.5-1.1,1.4-1.2,2.8l1.4,0c0-1.1,0.6-1.7,0.9-2c0.5,0.3,1.1,0.5,1.7,0.7c0.1,0.3,0.2,0.6,0.4,0.8
		c0.5,0.8,1.3,1.3,2.1,1.6l-0.2,1l1.3,0.3l0.3-1.2c0.6,0,1.3-0.2,1.9-0.6c0.6-0.4,1-0.9,1.3-1.5l1.1,0.2l0.3-1.3l-1-0.2
		c0.1-0.7,0-1.5-0.4-2.2c-0.1-0.1-0.1-0.3-0.2-0.4c-0.2-0.3-0.4-0.5-0.6-0.7c0.1-0.4,0.1-0.8,0.1-1.1c0-0.2,0-0.4,0-0.6
		c0.2-0.1,0.6-0.3,1.1-0.3c0.3,0,0.7,0.1,1.2,0.3l0.5-1.3c-0.6-0.3-1.2-0.4-1.7-0.4c-0.6,0-1,0.1-1.4,0.3c-0.2-0.4-0.3-0.9-0.6-1.3
		c0.6-0.4,1.6-1,2.1-2.1l-1.2-0.6c-0.4,0.8-1.2,1.3-1.6,1.6c-0.4-0.5-0.8-0.8-1.3-1.2C45.8,32.5,46.4,31.4,46.2,30.1L46.2,30.1z"/>
</g>
</svg>
