<?xml version="1.0" encoding="UTF-8"?>
<svg id="Layer_1" data-name="Layer 1" xmlns="http://www.w3.org/2000/svg" version="1.1" viewBox="0 0 35 33">
  <defs>
    <style>
      .cls-1 {
        fill: #2f9ef3;
      }

      .cls-1, .cls-2, .cls-3, .cls-4 {
        stroke-width: 0px;
      }

      .cls-2 {
        fill: #95ebf9;
      }

      .cls-3 {
        fill: #2784cc;
      }

      .cls-4 {
        fill: #2fb4d2;
      }
    </style>
  </defs>
  <path class="cls-1" d="M29.1,6.4c-2.8-3.2-7-5.3-11.6-5.3C9,1.1,2.1,8,2.1,16.5s3.4,11.1,8.3,13.7c2.1,1.1,4.5,1.7,7.1,1.7,8.5,0,15.4-6.9,15.4-15.4s-1.4-7.4-3.8-10.1Z"/>
  <g>
    <path class="cls-4" d="M29.1,6.4c-2.8-3.2-7-5.3-11.6-5.3C9,1.1,2.1,8,2.1,16.5s3.4,11.1,8.3,13.7c9.1-5.1,15.3-13.9,18.7-23.8Z"/>
    <path class="cls-1" d="M29.1,6.4c-3.4,9.9-9.6,18.7-18.7,23.8,2.1,1.1,4.5,1.7,7.1,1.7,8.5,0,15.4-6.9,15.4-15.4s-1.4-7.4-3.8-10.1Z"/>
    <path class="cls-3" d="M17.5,32.8c-9,0-16.3-7.3-16.3-16.3S8.5.1,17.5.1s16.3,7.3,16.3,16.3-7.3,16.3-16.3,16.3ZM17.5,2c-8,0-14.5,6.5-14.5,14.5s6.5,14.5,14.5,14.5,14.5-6.5,14.5-14.5S25.4,2,17.5,2Z"/>
  </g>
  <g>
    <path class="cls-2" d="M17,27c-1,0-1.9-.8-1.9-1.9v-9.9c0-1,.8-1.9,1.9-1.9h1c1,0,1.9.8,1.9,1.9v9.9c0,1-.8,1.9-1.9,1.9h-1ZM17.5,10.8c-1.3,0-2.4-1.1-2.4-2.4s1.1-2.5,2.4-2.5,2.4,1.1,2.4,2.4-1.1,2.5-2.4,2.5Z"/>
    <path class="cls-3" d="M17.5,6.9c.8,0,1.4.6,1.4,1.4h0c0,.9-.6,1.5-1.4,1.5h0c-.8,0-1.4-.6-1.4-1.4h0c0-.9.6-1.5,1.4-1.5h0M18,14.4c.5,0,.9.4.9.9v9.9c0,.5-.4.9-.9.9h-1c-.5,0-.9-.4-.9-.9v-9.9c0-.5.4-.9.9-.9h1M17.5,4.9c-1.9,0-3.4,1.5-3.4,3.4h0c0,2,1.5,3.5,3.4,3.5s3.4-1.5,3.4-3.4h0c0-2-1.5-3.5-3.4-3.5h0ZM18,12.5h-1c-1.6,0-2.9,1.3-2.9,2.9v9.9c0,1.6,1.3,2.9,2.9,2.9h1c1.6,0,2.9-1.3,2.9-2.9v-9.9c0-1.6-1.3-2.9-2.9-2.9h0Z"/>
  </g>
</svg>