<?xml version="1.0" encoding="utf-8"?>
<!-- Generator: Adobe Illustrator 27.6.1, SVG Export Plug-In . SVG Version: 6.00 Build 0)  -->
<svg version="1.1" id="Layer_1" xmlns="http://www.w3.org/2000/svg" xmlns:xlink="http://www.w3.org/1999/xlink" x="0px" y="0px"
	 viewBox="0 0 35 33" style="enable-background:new 0 0 35 33;" xml:space="preserve">
<style type="text/css">
	.st0{clip-path:url(#SVGID_00000019656679838816305950000004319500514699001490_);}
	.st1{fill:#F0AE5E;}
	.st2{fill:#F0BF54;}
	.st3{fill:#EB9452;}
	.st4{fill:#EFD8A8;}
</style>
<g>
	<defs>
		<rect id="SVGID_1_" width="35" height="33"/>
	</defs>
	<clipPath id="SVGID_00000148648436362809985800000009709717115684820922_">
		<use xlink:href="#SVGID_1_"  style="overflow:visible;"/>
	</clipPath>
	
		<g id="Layer_1_00000065767029771669512430000004734343682815306400_" style="clip-path:url(#SVGID_00000148648436362809985800000009709717115684820922_);">
		<path class="st1" d="M31.9,0.8H3.1c-1.3,0-2.4,1.1-2.4,2.4v18.7v0v2.7c0,1.3,1.1,2.4,2.4,2.4h6.9v4c0,0.7,0.6,1.3,1.3,1.3
			c0.3,0,0.6-0.1,0.8-0.3l6.8-5.1h12.8c1.3,0,2.4-1.1,2.4-2.4v-7.6v0v0V3.1C34.2,1.8,33.2,0.8,31.9,0.8z"/>
		<path id="Vector" class="st2" d="M34.2,16.9V3.1c0-1.3-1.1-2.4-2.4-2.4H3.1c-1.3,0-2.4,1.1-2.4,2.4v18.7
			C9.9,14.2,23.5,11.5,34.2,16.9L34.2,16.9z"/>
		<path id="Vector_2" class="st1" d="M0.8,21.8v2.7c0,1.3,1.1,2.4,2.4,2.4h6.9v4c0,0.7,0.6,1.3,1.3,1.3c0.3,0,0.6-0.1,0.8-0.3
			l6.8-5.1h12.8c1.3,0,2.4-1.1,2.4-2.4v-7.6C23.5,11.5,9.9,14.2,0.8,21.8z"/>
		<path id="Vector_3" class="st3" d="M31.9,1.5c0.9,0,1.6,0.7,1.6,1.6v21.4c0,0.9-0.7,1.6-1.6,1.6H18.8l-7,5.2
			c-0.1,0.1-0.2,0.1-0.3,0.1c-0.3,0-0.6-0.2-0.6-0.6v-4.7H3.1c-0.9,0-1.6-0.7-1.6-1.6V3.1c0-0.9,0.7-1.6,1.6-1.6H31.9z M31.9,0H3.1
			C1.4,0,0,1.4,0,3.1v21.4c0,1.7,1.4,3.1,3.1,3.1h6.2v3.2c0,1.2,0.9,2.1,2.1,2.1c0.5,0,0.9-0.1,1.2-0.4l6.6-4.9h12.6
			c1.7,0,3.1-1.4,3.1-3.1V3.1C35,1.4,33.6,0,31.9,0L31.9,0z"/>
		<path id="Vector_4" class="st4" d="M16,16.4c-0.4,0-0.8-0.3-0.8-0.7l-0.1-2.8c0,0,0-0.1,0-0.1v-0.2c0-0.4,0.3-0.8,0.7-0.8l1.2-0.1
			c0.5,0,1-0.2,1.3-0.4c0.2-0.1,0.4-0.4,0.4-1c0-0.4-0.1-0.7-0.4-0.9c-0.3-0.3-0.6-0.4-1.1-0.4c-0.3,0-0.6,0.1-0.8,0.2
			c-0.2,0.1-0.4,0.3-0.4,0.5c-0.1,0.3-0.4,0.5-0.7,0.5c-0.1,0-0.1,0-0.2,0l-1.9-0.5c-0.2-0.1-0.4-0.2-0.5-0.4
			c-0.1-0.2-0.1-0.4-0.1-0.6c0.3-0.9,0.8-1.6,1.7-2.2c0.8-0.5,1.8-0.8,2.9-0.8c0.9,0,1.8,0.2,2.5,0.6c0.8,0.4,1.4,0.9,1.8,1.6
			c0.4,0.7,0.7,1.5,0.7,2.4c0,0.9-0.2,1.6-0.6,2.3c-0.4,0.7-1,1.2-1.8,1.5c-0.3,0.2-0.7,0.3-1.1,0.4l0,1.2c0,0.4-0.3,0.7-0.8,0.7
			L16,16.4L16,16.4z"/>
		<path id="Vector_5" class="st3" d="M17.3,6.3c0.8,0,1.6,0.2,2.2,0.5c0.6,0.3,1.1,0.8,1.5,1.4s0.5,1.3,0.5,2c0,0.7-0.2,1.4-0.5,1.9
			c-0.3,0.5-0.8,1-1.5,1.3c-0.5,0.2-1,0.4-1.5,0.4l0,1.8h-2L16,12.8h0v-0.4l1.2-0.1c0.7,0,1.3-0.2,1.7-0.6c0.4-0.4,0.7-0.9,0.7-1.6
			c0-0.6-0.2-1.1-0.6-1.5c-0.4-0.4-1-0.6-1.6-0.6c-0.5,0-0.9,0.1-1.2,0.3c-0.3,0.2-0.6,0.5-0.7,0.8l-1.9-0.5C13.7,8,14.2,7.4,14.8,7
			C15.5,6.5,16.3,6.3,17.3,6.3 M17.3,4.8c-1.3,0-2.4,0.3-3.3,0.9c-1,0.6-1.6,1.5-2,2.6c-0.1,0.4-0.1,0.8,0.1,1.2
			c0.2,0.4,0.5,0.6,0.9,0.7l1.9,0.5c0.1,0,0.3,0.1,0.4,0.1c0.6,0,1.2-0.4,1.4-1c0-0.1,0.1-0.1,0.1-0.1c0.1,0,0.2-0.1,0.4-0.1
			c0.4,0,0.5,0.1,0.6,0.2C18,9.9,18,9.9,18,10.2c0,0.3-0.1,0.4-0.1,0.4c-0.1,0.1-0.3,0.2-0.8,0.2c0,0,0,0,0,0l-1.2,0.1
			c-0.8,0.1-1.4,0.7-1.4,1.5v0.2c0,0.1,0,0.1,0,0.2l0.1,2.8c0,0.8,0.7,1.5,1.5,1.5h2c0.8,0,1.5-0.7,1.5-1.5V15
			c0.2-0.1,0.5-0.2,0.7-0.3c0.9-0.4,1.6-1,2.1-1.8c0.5-0.8,0.8-1.7,0.8-2.7c0-1-0.3-2-0.8-2.8c-0.5-0.8-1.2-1.5-2.1-1.9
			C19.3,5,18.4,4.7,17.3,4.8L17.3,4.8z"/>
		<path id="Vector_6" class="st4" d="M17,22.3c-0.6,0-1.1-0.2-1.5-0.6c-0.4-0.4-0.6-0.9-0.6-1.4c0-0.6,0.2-1.1,0.6-1.4
			c0.4-0.4,0.9-0.6,1.5-0.6s1,0.2,1.4,0.6c0.4,0.4,0.6,0.9,0.6,1.4c0,0.6-0.2,1-0.6,1.4C18.1,22.2,17.6,22.4,17,22.3L17,22.3z"/>
		<path id="Vector_7" class="st3" d="M17,19c0.3,0,0.7,0.1,0.9,0.4c0.2,0.3,0.4,0.6,0.4,0.9c0,0.4-0.1,0.6-0.4,0.9
			c-0.3,0.3-0.5,0.4-0.9,0.4c-0.3,0-0.7-0.1-0.9-0.4c-0.3-0.2-0.4-0.5-0.4-0.9c0-0.3,0.1-0.7,0.4-0.9C16.4,19.2,16.7,19,17,19z
			 M17,17.5c-0.8,0-1.5,0.3-2,0.8c-0.5,0.5-0.8,1.2-0.8,2c0,0.8,0.3,1.4,0.8,2c0.5,0.5,1.2,0.8,2,0.8c0.8,0,1.4-0.3,2-0.8
			c0.5-0.5,0.8-1.2,0.8-2s-0.3-1.4-0.8-2C18.5,17.8,17.8,17.5,17,17.5L17,17.5z"/>
	</g>
</g>
</svg>
