<?xml version="1.0" encoding="UTF-8"?>
<svg xmlns="http://www.w3.org/2000/svg" version="1.1" viewBox="0 0 1024 1024">
  <defs>
    <style>
      .cls-1 {
        fill-rule: evenodd;
      }
    </style>
  </defs>
  <!-- Generator: Adobe Illustrator 28.6.0, SVG Export Plug-In . SVG Version: 1.2.0 Build 709)  -->
  <g>
    <g id="Layer_1">
      <path class="cls-1" d="M912.8,112H112.8v800h800V112ZM384.4,743.5l-61.2,37h0c17.7,37.6,52.6,68.7,112.8,68.7s112.2-35.4,112.2-113.3v-256.7h-75.2v255.6c0,37.6-15.6,47.2-40.3,47.2s-36.5-17.7-48.3-38.7ZM650.2,737l-61.2,35.4h0c22,43.5,67.1,76.8,136.9,76.8s124.6-37,124.6-104.7-36-90.7-99.9-118.1l-18.8-8.1c-32.2-14-46.2-23.1-46.2-45.7s14-32.2,36-32.2,35.4,9.1,48.3,32.2l58.5-37.6c-24.7-43.5-59.1-60.1-106.9-60.1s-110.1,43-110.1,99.4,36,90.2,90.2,113.3l18.8,8.1c34.4,15,54.8,24.2,54.8,49.9s-19.9,37.1-51,37.1-58-19.3-74.1-45.6Z"/>
    </g>
  </g>
</svg>