<?xml version="1.0" encoding="utf-8"?>
<!-- Generator: Adobe Illustrator 27.4.0, SVG Export Plug-In . SVG Version: 6.00 Build 0)  -->
<svg version="1.1" id="Layer_1" xmlns="http://www.w3.org/2000/svg" xmlns:xlink="http://www.w3.org/1999/xlink" x="0px" y="0px"
	 viewBox="0 0 230 230" style="enable-background:new 0 0 230 230;" xml:space="preserve">
<style type="text/css">
	.st0{fill:#F0AE5E;}
	.st1{fill:#EE9D5F;}
	.st2{fill:#F0BF54;}
	.st3{fill:#EDBC74;}
	.st4{fill:#F75E71;stroke:#F75E71;stroke-width:6.7361;stroke-linecap:round;stroke-miterlimit:10;}
	.st5{fill:#CC6672;stroke:#CC6672;stroke-width:6.7361;stroke-linecap:round;stroke-miterlimit:10;}
	.st6{fill:#F38861;}
	.st7{fill:#F75E71;}
	.st8{fill:#F38861;stroke:#F0AE5E;stroke-width:6.7361;stroke-linecap:round;stroke-linejoin:round;stroke-miterlimit:10;}
</style>
<g>
	<g>
		<path class="st0" d="M51.7,199.7c-5.2,0-9.4-4.2-9.4-9.4V70.1c0-5.2,4.2-9.4,9.4-9.4h83.1c5.2,0,9.4,4.2,9.4,9.4v120.2
			c0,5.2-4.2,9.4-9.4,9.4H51.7z"/>
		<path class="st1" d="M134.8,64.7c3,0,5.4,2.4,5.4,5.4v120.2c0,3-2.4,5.4-5.4,5.4H51.7c-3,0-5.4-2.4-5.4-5.4V70.1
			c0-3,2.4-5.4,5.4-5.4H134.8 M134.8,56.8H51.7c-7.4,0-13.4,6-13.4,13.4v120.2c0,7.4,6,13.4,13.4,13.4h83.1c7.4,0,13.4-6,13.4-13.4
			V70.1C148.1,62.8,142.1,56.8,134.8,56.8L134.8,56.8z"/>
	</g>
	<g>
		<path class="st2" d="M84.6,139.7c-10.8,0-19.5-8.8-19.5-19.5c0-0.2,0-0.4,0-0.6c0-0.2,0-0.4,0-0.6v-91c0-3.6,2.9-6.6,6.6-6.6h88.8
			c3.6,0,6.6,2.9,6.6,6.6v88.4c0,2.2-1.8,4-4,4h-58.8c-0.3,10.6-8.8,19.2-19.2,19.4L84.6,139.7z"/>
		<path class="st1" d="M160.4,25.4c1.4,0,2.6,1.2,2.6,2.6v88.4h-62.8v3.3c0,8.6-6.7,15.9-15.3,16.1c-0.1,0-0.2,0-0.3,0
			c-8.6,0-15.6-7-15.6-15.6c0-0.2,0-0.4,0-0.6c0-0.2,0-0.4,0-0.7v-91c0-1.4,1.2-2.6,2.6-2.6H160.4 M160.4,17.4H71.6
			c-5.8,0-10.5,4.7-10.5,10.5v91c0,0.2,0,0.4,0,0.6c0,0.2,0,0.4,0,0.6c0,13,10.5,23.5,23.5,23.5c0.1,0,0.3,0,0.4,0
			c11.2-0.2,20.5-8.6,22.6-19.4H163c4.4,0,7.9-3.6,7.9-7.9V27.9C170.9,22.1,166.2,17.4,160.4,17.4L160.4,17.4z"/>
	</g>
	<g>
		<path class="st3" d="M84.6,139.8c-1.6,0-3.1-1-3.7-2.4c-0.6-1.5-0.3-3.1,0.8-4.3c0,0,0.1-0.1,0.1-0.1c0.7-0.7,1.7-1.2,2.8-1.2
			c6.4,0,11.6-5.2,11.6-11.6v-6.3c0-3.6,2.9-6.6,6.6-6.6h78.4c3.6,0,6.6,2.9,6.6,6.6v6.3c0,9.7-7.2,19.6-20.9,19.6H84.6z"/>
		<path class="st1" d="M181.2,111.3c1.4,0,2.6,1.2,2.6,2.6v6.3c0,8.1-6,15.6-16.9,15.6H84.6c0,0,0,0,0.1-0.1c8.6,0,15.5-7,15.5-15.6
			v-6.3c0-1.4,1.2-2.6,2.6-2.6H181.2 M181.2,103.4h-78.4c-5.8,0-10.5,4.7-10.5,10.5v6.3c0,4.2-3.4,7.6-7.6,7.6
			c-2.1,0-4.1,0.8-5.5,2.3c-0.1,0.1-0.2,0.2-0.3,0.3c-2.1,2.3-2.8,5.6-1.6,8.4c1.2,3,4.1,4.9,7.4,4.9h82.2c7.3,0,13.6-2.5,18.2-7.1
			c4.3-4.3,6.7-10.2,6.7-16.5v-6.3C191.7,108.1,187,103.4,181.2,103.4L181.2,103.4z"/>
	</g>
	<line class="st4" x1="84.6" y1="43.1" x2="147.4" y2="43.1"/>
	<line class="st4" x1="84.6" y1="65.8" x2="147.4" y2="65.8"/>
	<line class="st5" x1="61.8" y1="161.1" x2="124.6" y2="161.1"/>
	<line class="st5" x1="61.8" y1="179.6" x2="124.6" y2="179.6"/>
	<line class="st4" x1="84.6" y1="88.6" x2="119.6" y2="88.6"/>
</g>
<g>
	<g>
		<g>
			<path class="st6" d="M182.7,184.1c-0.6,0-1.1-0.1-1.6-0.4L163,173.6l-18.1,10.1c-0.5,0.3-1.1,0.4-1.6,0.4c-0.6,0-1.2-0.2-1.8-0.5
				c-1-0.6-1.6-1.8-1.6-3l0.9-26.1c0.1-1.7,1.4-3.1,3.1-3.2l6.2-0.5c0.1,0,0.2,0,0.3,0c1,0,1.9,0.4,2.6,1.2l10.1,12l10.1-12
				c0.6-0.8,1.6-1.2,2.6-1.2c0.1,0,0.2,0,0.3,0l6.2,0.5c1.7,0.1,3,1.5,3.1,3.2l0.9,26.1c0,1.2-0.6,2.4-1.6,3
				C184,183.9,183.3,184.1,182.7,184.1z"/>
			<path class="st7" d="M175.7,154.1l6.2,0.5l0.9,26.1l-18.5-10.3c-0.4-0.2-0.8-0.3-1.3-0.3c-0.4,0-0.9,0.1-1.3,0.3l-18.5,10.3
				l0.9-26.1l6.2-0.5l10.7,12.8c0.5,0.6,1.2,0.9,2,0.9s1.5-0.3,2-0.9L175.7,154.1 M150.3,147.4c-0.2,0-0.4,0-0.6,0l-6.2,0.5
				c-3.4,0.3-6,3.1-6.2,6.5l-0.9,26.1c-0.1,2.4,1.1,4.7,3.2,6c1.1,0.7,2.3,1,3.5,1c1.1,0,2.2-0.3,3.3-0.8l16.5-9.2l16.5,9.2
				c1,0.6,2.1,0.8,3.3,0.8c1.2,0,2.4-0.3,3.5-1c2.1-1.3,3.3-3.5,3.2-6l-0.9-26.1c-0.1-3.4-2.8-6.2-6.2-6.5l-6.2-0.5
				c-0.2,0-0.4,0-0.6,0c-2,0-3.9,0.9-5.2,2.4l-7.6,9l-7.6-9C154.1,148.2,152.2,147.4,150.3,147.4L150.3,147.4z"/>
		</g>
		<g>
			<path class="st6" d="M163,164.5c-1,0-1.9-0.4-2.6-1.2l-9.4-11.1l-14.5,1.2c-0.1,0-0.2,0-0.3,0c-0.9,0-1.7-0.4-2.4-1
				c-0.7-0.7-1.1-1.7-1-2.7l1.2-14.5L123,126c-0.8-0.6-1.2-1.6-1.2-2.6s0.4-1.9,1.2-2.6l11.1-9.4L132.9,97c-0.1-1,0.3-2,1-2.7
				c0.6-0.6,1.5-1,2.4-1c0.1,0,0.2,0,0.3,0l14.5,1.2l9.4-11.1c0.6-0.8,1.6-1.2,2.6-1.2c1,0,1.9,0.4,2.6,1.2l9.4,11.1l14.5-1.2
				c0.1,0,0.2,0,0.3,0c0.9,0,1.7,0.4,2.4,1c0.7,0.7,1.1,1.7,1,2.7l-1.2,14.5l11.1,9.4c0.8,0.6,1.2,1.6,1.2,2.6s-0.4,1.9-1.2,2.6
				l-11.1,9.4l1.2,14.5c0.1,1-0.3,2-1,2.7c-0.6,0.6-1.5,1-2.4,1c-0.1,0-0.2,0-0.3,0l-14.5-1.2l-9.4,11.1
				C164.9,164.1,163.9,164.5,163,164.5L163,164.5z"/>
			<g>
				<path class="st7" d="M163,85.7l9.6,11.4c0.5,0.6,1.2,0.9,2,0.9c0.1,0,0.1,0,0.2,0l14.9-1.3l-1.3,14.9c-0.1,0.8,0.3,1.7,0.9,2.2
					l11.4,9.6l-11.4,9.6c-0.6,0.5-1,1.4-0.9,2.2l1.3,14.9l-14.9-1.3c-0.1,0-0.1,0-0.2,0c-0.8,0-1.5,0.3-2,0.9l-9.6,11.4l-9.6-11.4
					c-0.5-0.6-1.2-0.9-2-0.9c-0.1,0-0.1,0-0.2,0l-14.9,1.3l1.3-14.9c0.1-0.8-0.3-1.7-0.9-2.2l-11.4-9.6l11.4-9.6
					c0.6-0.5,1-1.4,0.9-2.2l-1.3-14.9l14.9,1.3c0.1,0,0.1,0,0.2,0c0.8,0,1.5-0.3,2-0.9L163,85.7 M189.6,96.7L189.6,96.7 M163,78.9
					C163,78.9,163,78.9,163,78.9c-2,0-3.9,0.9-5.2,2.4l-8.2,9.8L136.8,90c-0.2,0-0.4,0-0.6,0c-1.8,0-3.5,0.7-4.8,2
					c-1.4,1.4-2.1,3.4-1.9,5.3l1.1,12.7l-9.8,8.2c-1.5,1.3-2.4,3.2-2.4,5.2c0,2,0.9,3.9,2.4,5.2l9.8,8.2l-1.1,12.7
					c-0.2,2,0.5,3.9,1.9,5.3c1.3,1.3,3,2,4.8,2c0.2,0,0.4,0,0.6,0l12.7-1.1l8.2,9.8c1.3,1.5,3.2,2.4,5.2,2.4c2,0,3.9-0.9,5.2-2.4
					l8.2-9.8l12.7,1.1c0.2,0,0.4,0,0.6,0c1.8,0,3.5-0.7,4.8-2c1.4-1.4,2.1-3.4,1.9-5.3l-1.1-12.7l9.8-8.2c1.5-1.3,2.4-3.2,2.4-5.2
					c0-2-0.9-3.9-2.4-5.2l-9.8-8.2l1.1-12.5c0-0.3,0-0.5,0-0.8c0-3.7-3-6.7-6.7-6.7c0,0,0,0,0,0c0,0-0.1,0-0.1,0c-0.2,0-0.4,0-0.6,0
					l-12.7,1.1l-8.2-9.8C166.8,79.8,164.9,78.9,163,78.9L163,78.9z"/>
			</g>
		</g>
		<g>
			<path class="st6" d="M163,154.1c-16.9,0-30.7-13.8-30.7-30.7S146,92.7,163,92.7c16.9,0,30.7,13.8,30.7,30.7
				S179.9,154.1,163,154.1z"/>
			<g>
				<path class="st7" d="M163,96.1c15.1,0,27.4,12.3,27.4,27.3S178,150.8,163,150.8c-15.1,0-27.3-12.3-27.3-27.3
					S147.9,96.1,163,96.1 M163,89.3c-18.8,0-34.1,15.3-34.1,34.1s15.3,34.1,34.1,34.1c18.8,0,34.1-15.3,34.1-34.1
					S181.8,89.3,163,89.3L163,89.3z"/>
			</g>
		</g>
		<path class="st8" d="M153.1,123.4c0,5.5,4.4,9.9,9.9,9.9c5.5,0,9.9-4.4,9.9-9.9c0-5.5-4.4-9.9-9.9-9.9"/>
	</g>
</g>
</svg>
