<svg id="Layer_1" data-name="Layer 1" xmlns="http://www.w3.org/2000/svg" xmlns:xlink="http://www.w3.org/1999/xlink" viewBox="0 0 411 372"><defs><style>.cls-1{fill:none;}.cls-2{fill:#dee0e5;}.cls-3{fill:#f6f7f7;}.cls-4{fill:#e5e6ea;}.cls-5{fill:#ebebef;}.cls-6{fill:#999db7;}.cls-7{fill:#292d3d;}.cls-8{clip-path:url(#clip-path);}.cls-9{fill:#981a48;}.cls-10{fill:#f0ae5e;}.cls-11{fill:#edcd51;}.cls-12{fill:#7bd85d;}.cls-13{fill:#2f9ef3;}.cls-14{fill:#9457b5;}.cls-15{fill:#f75e71;}.cls-16{fill:#d45598;}.cls-17{fill:#419ca6;}.cls-18{opacity:0.5;}.cls-19{fill:#dbdde3;}.cls-20{fill:#ee9d5f;}.cls-21{fill:#51d27a;}.cls-22{fill:#49ab29;}.cls-23{fill:#666d8a;}.cls-24{fill:#3b4654;}.cls-25{opacity:0.4;}</style><clipPath id="clip-path"><path class="cls-1" d="M87.64,245.2a41.51,41.51,0,1,0,41.5,41.51A41.5,41.5,0,0,0,87.64,245.2Zm0,48.88A7.38,7.38,0,1,1,95,286.71,7.37,7.37,0,0,1,87.64,294.08Z"/></clipPath></defs><rect class="cls-2" x="-0.5" width="412" height="373"/><path class="cls-3" d="M390.5,195H19.5V350h371V195Z"/><rect class="cls-4" x="146.5" y="240" width="226" height="91"/><rect class="cls-5" x="146.5" y="240" width="226" height="21"/><rect class="cls-5" x="146.5" y="282" width="226" height="21"/><rect class="cls-6" x="38.5" y="211" width="100" height="12"/><rect class="cls-6" x="222.5" y="211" width="21" height="12"/><rect class="cls-7" x="143.5" y="211" width="57" height="12"/><g class="cls-8"><polygon class="cls-9" points="87.64 286.7 77.96 239.67 114.85 244.74 87.64 286.7"/><polygon class="cls-10" points="87.64 286.7 134.22 289.47 114.85 244.74 87.64 286.7"/><polygon class="cls-11" points="87.64 286.7 134.22 289.47 123.61 315.3 87.64 286.7"/><polygon class="cls-12" points="87.64 286.7 81.18 340.2 123.61 315.3 87.64 286.7"/><polygon class="cls-13" points="87.64 286.7 81.18 340.2 41.52 302.85 87.64 286.7"/><polygon class="cls-14" points="87.15 286.7 41.5 275.18 41.04 302.85 87.15 286.7"/><polygon class="cls-15" points="87.64 286.7 77.96 239.67 114.85 244.74 87.64 286.7"/><polygon class="cls-16" points="87.64 286.7 77.96 239.67 30 273.33 87.64 286.7"/></g><rect class="cls-7" x="302.5" y="311" width="44" height="7"/><rect class="cls-7" x="302.5" y="290" width="44" height="7"/><rect class="cls-7" x="302.5" y="269" width="46" height="7"/><rect class="cls-7" x="302.5" y="248" width="47" height="7"/><rect class="cls-17" x="182.5" y="248" width="29" height="7"/><rect class="cls-17" x="182.5" y="269" width="74" height="7"/><rect class="cls-17" x="182.5" y="290" width="78" height="7"/><rect class="cls-17" x="182.5" y="311" width="99" height="7"/><g class="cls-18"><rect class="cls-19" x="294.5" y="240" width="1" height="91"/></g><rect class="cls-15" x="158.5" y="247" width="11" height="11"/><rect class="cls-20" x="158.5" y="268" width="11" height="11"/><rect class="cls-11" x="158.5" y="289" width="11" height="11"/><rect class="cls-21" x="158.5" y="310" width="11" height="11"/><g class="cls-18"><rect class="cls-19" x="174.5" y="240" width="1" height="91"/></g><rect class="cls-3" x="19.5" y="22" width="371" height="163"/><rect class="cls-7" x="67.5" y="123" width="122" height="12"/><rect class="cls-7" x="67.5" y="154" width="46" height="12"/><rect class="cls-22" x="117.5" y="154" width="89" height="12"/><rect class="cls-17" x="81.5" y="74" width="90" height="20"/><path class="cls-7" d="M42,153.32a8.91,8.91,0,1,1-2.65,6.34A8.61,8.61,0,0,1,42,153.32Zm1.27,11.44a7.22,7.22,0,1,0-2.11-5.1,6.93,6.93,0,0,0,2.11,5.1Z"/><path class="cls-7" d="M49.5,161h-5v-2h3v-5h2Z"/><path class="cls-17" d="M39.5,86h25V81h-25v5Zm3-3h2v2h-2V83Z"/><path class="cls-17" d="M39.5,94h25V89h-25v5Zm3-4h2v2h-2V90Z"/><path class="cls-17" d="M39.5,79h25V74h-25v5Zm3-4h2v2h-2V75Z"/><path class="cls-7" d="M56.34,128.19l-3.46,3.46a4.86,4.86,0,0,1-6.89,0,4.92,4.92,0,0,1-.74-1l1.59-1.59c.07-.07.18-.1.25-.17a2.25,2.25,0,0,0,.6,1,2.44,2.44,0,0,0,3.46,0l3.46-3.46A2.45,2.45,0,1,0,51.15,123l-1.24,1.23a6.32,6.32,0,0,0-3.11-.35l2.62-2.61a4.89,4.89,0,0,1,6.92,6.92Zm-9.11,5.65L46,135.08a2.45,2.45,0,1,1-3.46-3.46L46,128.16a2.44,2.44,0,0,1,3.46,0,2.38,2.38,0,0,1,.6,1,.67.67,0,0,0,.25-.18l1.59-1.59a4.82,4.82,0,0,0-.74-1,4.88,4.88,0,0,0-6.89,0l-3.46,3.47a4.88,4.88,0,0,0,6.89,6.92l2.61-2.61a6.11,6.11,0,0,1-3.07-.36Z"/><path class="cls-23" d="M390.5,56H19.5V22h371Z"/><rect class="cls-3" x="37.5" y="34" width="117" height="12"/><rect class="cls-4" x="222.5" y="74" width="150" height="93"/><g class="cls-18"><rect class="cls-19" x="344.5" y="73" width="1" height="93"/></g><g class="cls-18"><rect class="cls-19" x="361.5" y="73" width="1" height="93"/></g><g class="cls-18"><rect class="cls-19" x="312.5" y="73" width="1" height="93"/></g><g class="cls-18"><rect class="cls-19" x="328.5" y="73" width="1" height="93"/></g><g class="cls-18"><rect class="cls-19" x="280.5" y="73" width="1" height="93"/></g><g class="cls-18"><rect class="cls-19" x="264.5" y="73" width="1" height="93"/></g><g class="cls-18"><rect class="cls-19" x="296.5" y="73" width="1" height="93"/></g><g class="cls-18"><rect class="cls-19" x="232.5" y="73" width="1" height="93"/></g><g class="cls-18"><rect class="cls-19" x="248.5" y="73" width="1" height="93"/></g><g class="cls-18"><rect class="cls-24" x="222.5" y="166" width="150" height="1"/></g><g class="cls-25"><polyline class="cls-14" points="222.5 167 261 167 270.32 92.48 275.59 112.7 282.07 85.28 292.2 84.45 296.66 126 305.98 126 310.44 167 315.01 167 319.96 125 324.5 125 329.86 167 372.5 167"/></g><polygon class="cls-14" points="372.5 167 328.95 167 323.72 126 320.4 126 315.57 167 309.71 167 305.26 126 295.94 126 295.9 125.64 291.48 84.5 282.44 85.24 275.46 114.78 270.37 95.26 261.4 167 222.5 167 222.5 166 260.29 166 269.95 88.7 275.4 109.63 281.38 84.32 292.6 83.4 297.07 125 306.38 125 310.84 166 314.46 166 319.29 125 324.83 125 330.06 166 372.5 166 372.5 167"/><polygon class="cls-20" points="372.5 167 328.44 167 323.14 128 319.78 128 314.9 167 308.49 167 304.09 129 294.9 129 294.86 128.64 290.51 90.53 281.59 91.22 274.71 118.58 269.7 100.49 260.85 167 222.5 167 222.5 166 259.76 166 269.28 94.38 274.66 113.77 280.56 90.29 291.61 89.44 296.01 128 305.2 128 309.6 166 313.77 166 318.66 127 324.26 127 329.56 166 372.5 166 372.5 167"/><polygon class="cls-13" points="372.5 167 357.32 167 352.36 157.04 347.6 117 343.78 117 338.73 126.99 335.11 147.61 324.96 167 315.03 167 310.02 158 292.68 158 286 147 276.02 147 270.44 157 261.35 157 256.07 167 222.5 167 222.5 166 255.2 166 260.48 156 269.59 156 275.18 146 286.83 146 293.5 157 310.87 157 315.88 166 324.1 166 333.95 147.18 337.57 126.56 342.91 116 348.7 116 348.75 116.36 353.55 156.71 358.19 166 372.5 166 372.5 167"/><g class="cls-25"><polyline class="cls-13" points="222.5 167 255.85 167 261.13 157 269.74 157 275.88 146 286.42 146 293.09 157 310.45 157 315.46 166 324.58 166 334.59 146.88 338.19 126.29 343.4 116 348.2 116 353 156.4 357.81 166 372.5 166"/></g><g class="cls-25"><polyline class="cls-20" points="222.93 166 260.71 167 270.14 96.11 275.47 115.35 282.03 89.26 292.28 88.47 296.79 128 306.22 128 310.73 167 315.1 167 319.99 128 324.47 128 329.76 167 372.5 167"/></g></svg>