<svg xmlns="http://www.w3.org/2000/svg" viewBox="0 0 100 60">
  <defs>
    <style>
      .a {
        fill: #ed5580;
      }

      .b {
        fill: #f57564;
      }

      .c {
        fill: #d45598;
      }

      .d {
        fill: #ba50a1;
      }

      .e {
        fill: #f0bf54;
      }

      .f {
        fill: #f38861;
      }
    </style>
  </defs>
  <title>new-database</title>
  <g>
    <path class="a" d="M66.6,15.24v-.551c-.048.034-.1.065-.148.1a4.616,4.616,0,0,0-2.006-1.883,19.211,19.211,0,0,0-6.1-2.057,45.931,45.931,0,0,0-8.367-.686,45.424,45.424,0,0,0-8.368.686,21.587,21.587,0,0,0-6.172,2.057,4.252,4.252,0,0,0-2.009,1.877c-.05-.034-.109-.059-.159-.093v.64a2.277,2.277,0,0,0-.027.32v6.13c0,1.029.685,1.852,2.2,2.743a19.176,19.176,0,0,0,6.1,2.058,45.924,45.924,0,0,0,8.367.686h.027c.676,0,1.338-.014,1.991-.036.226-.008.448-.021.671-.031.421-.02.839-.043,1.25-.073.276-.019.551-.042.823-.066.339-.03.672-.066,1-.1.317-.035.636-.07.951-.113l.067-.008c.144-.02.282-.046.426-.067.409-.061.82-.115,1.226-.188a20.365,20.365,0,0,0,6.1-2.058c1.509-.823,2.2-1.714,2.2-2.743v-6.13A2.207,2.207,0,0,0,66.6,15.24Z"/>
    <path class="a" d="M52.07,41.71c-.69.03-1.382.053-2.072.053a46.624,46.624,0,0,1-9.465-.96,20.136,20.136,0,0,1-7.27-2.743v7.09c0,.96.686,1.852,2.2,2.743a19.185,19.185,0,0,0,6.1,2.058,44.96,44.96,0,0,0,7.718.674c.218,0,.428.012.649.012a44.651,44.651,0,0,0,8.3-.686,20.345,20.345,0,0,0,6.1-2.058c1.509-.823,2.2-1.715,2.2-2.743V38.06a17.952,17.952,0,0,1-7,2.743A45.517,45.517,0,0,1,52.07,41.71Z"/>
    <path class="a" d="M55.739,29.736a48.67,48.67,0,0,1-5.672.342,47.312,47.312,0,0,1-9.534-.96,20.136,20.136,0,0,1-7.27-2.744v7.09c0,1.029.686,1.852,2.2,2.744a19.211,19.211,0,0,0,6.1,2.057,45.924,45.924,0,0,0,8.367.686c1.029,0,2.024-.034,3-.084a40.187,40.187,0,0,0,5.366-.6,20.367,20.367,0,0,0,6.1-2.057c1.509-.823,2.2-1.715,2.2-2.744v-7.09a17.952,17.952,0,0,1-7,2.744C58.382,29.379,57.078,29.579,55.739,29.736Z"/>
  </g>
  <g>
    <path class="b" d="M41.6,10.848a45.424,45.424,0,0,1,8.368-.686,45.931,45.931,0,0,1,8.367.686,19.211,19.211,0,0,1,6.1,2.057c1.509.892,2.2,1.715,2.2,2.744v6.13c0,1.029-.686,1.92-2.2,2.743a20.365,20.365,0,0,1-6.1,2.058,47.232,47.232,0,0,1-8.436.686,45.924,45.924,0,0,1-8.367-.686,19.191,19.191,0,0,1-6.1-2.058c-1.508-.891-2.194-1.714-2.194-2.743v-6.13c0-1.029.686-1.92,2.194-2.744A21.606,21.606,0,0,1,41.6,10.848Z"/>
    <g>
      <path class="c" d="M49.929,50.637a44.658,44.658,0,0,0,8.3-.686,20.345,20.345,0,0,0,6.1-2.058c1.509-.823,2.2-1.715,2.2-2.743V38.06a17.952,17.952,0,0,1-7,2.743,45.517,45.517,0,0,1-7.461.907c-.9,2.986-1.82,5.962-2.79,8.915C49.5,50.627,49.708,50.637,49.929,50.637Z"/>
      <path class="a" d="M40.533,40.8a20.136,20.136,0,0,1-7.27-2.743v7.09c0,.96.686,1.852,2.2,2.743a19.185,19.185,0,0,0,6.1,2.058,44.96,44.96,0,0,0,7.718.674c.97-2.953,1.886-5.929,2.79-8.915-.69.03-1.382.053-2.072.053A46.624,46.624,0,0,1,40.533,40.8Z"/>
      <path class="c" d="M64.4,36.208c1.509-.823,2.2-1.715,2.2-2.744v-7.09a17.952,17.952,0,0,1-7,2.744c-1.218.261-2.522.461-3.861.618-.969,3.037-1.89,6.085-2.808,9.131a40.187,40.187,0,0,0,5.366-.6A20.367,20.367,0,0,0,64.4,36.208Z"/>
      <path class="a" d="M50.066,30.078a47.309,47.309,0,0,1-9.533-.96,20.136,20.136,0,0,1-7.27-2.744v7.09c0,1.029.686,1.852,2.2,2.744a19.211,19.211,0,0,0,6.1,2.057,45.924,45.924,0,0,0,8.367.686c1.029,0,2.024-.034,3-.084.918-3.046,1.839-6.094,2.808-9.131A48.674,48.674,0,0,1,50.066,30.078Z"/>
      <path class="a" d="M59.6,17.432a46.309,46.309,0,0,1-9.534.96,47.309,47.309,0,0,1-9.533-.96,20.117,20.117,0,0,1-7.27-2.743v7.09c0,1.029.686,1.852,2.2,2.743a19.185,19.185,0,0,0,6.1,2.058,45.924,45.924,0,0,0,8.367.686,48.972,48.972,0,0,0,6.757-.431c1.061-3.2,2.2-6.381,3.455-9.523C59.961,17.352,59.786,17.394,59.6,17.432Z"/>
      <path class="c" d="M60.141,17.312c-1.254,3.142-2.394,6.321-3.455,9.523.545-.076,1.087-.156,1.611-.255a20.365,20.365,0,0,0,6.1-2.058c1.509-.823,2.2-1.714,2.2-2.743v-7.09A17.369,17.369,0,0,1,60.141,17.312Z"/>
    </g>
    <path class="d" d="M49.93,51.837a47.141,47.141,0,0,1-8.586-.706,20.4,20.4,0,0,1-6.5-2.2c-1.875-1.107-2.786-2.343-2.786-3.776V38.059a1.2,1.2,0,0,1,1.849-1.009,19.029,19.029,0,0,0,6.842,2.573l.026.006A45.772,45.772,0,0,0,50,40.563a45.726,45.726,0,0,0,9.282-.933,16.922,16.922,0,0,0,6.546-2.544,1.2,1.2,0,0,1,1.9.973V45.15c0,1.52-.922,2.762-2.821,3.8a21.226,21.226,0,0,1-6.431,2.178A45.754,45.754,0,0,1,49.93,51.837ZM34.463,40.106V45.15c0,.629.873,1.277,1.6,1.71a18.068,18.068,0,0,0,5.716,1.911,44.725,44.725,0,0,0,8.146.665,43.311,43.311,0,0,0,8.075-.665,19.027,19.027,0,0,0,5.717-1.911c1.6-.876,1.6-1.5,1.6-1.71V40.171a22.636,22.636,0,0,1-5.556,1.808A48.171,48.171,0,0,1,50,42.963a47.5,47.5,0,0,1-9.7-.983A22.856,22.856,0,0,1,34.463,40.106Zm15.467.045a47.251,47.251,0,0,1-8.586-.705,20.4,20.4,0,0,1-6.5-2.2c-1.3-.766-2.786-1.888-2.786-3.777v-7.09a1.2,1.2,0,0,1,1.874-.993,18.959,18.959,0,0,0,6.839,2.561,45.8,45.8,0,0,0,9.291.936,45.057,45.057,0,0,0,9.282-.934A16.891,16.891,0,0,0,65.894,25.4a1.2,1.2,0,0,1,1.9.974v7.09c0,1.52-.923,2.762-2.82,3.8a21.238,21.238,0,0,1-6.432,2.179A46.2,46.2,0,0,1,49.93,40.151ZM34.463,28.438v5.026c0,.228,0,.762,1.6,1.711a18.073,18.073,0,0,0,5.717,1.911,44.8,44.8,0,0,0,8.145.665,43.758,43.758,0,0,0,8.144-.665,19.043,19.043,0,0,0,5.717-1.911c1.6-.877,1.6-1.5,1.6-1.711V28.486a22.658,22.658,0,0,1-5.555,1.807,47.442,47.442,0,0,1-9.774.985,48.163,48.163,0,0,1-9.773-.985h-.006A25.41,25.41,0,0,1,34.463,28.438Zm15.439.028a47.169,47.169,0,0,1-8.585-.706,20.362,20.362,0,0,1-6.5-2.205c-1.3-.766-2.785-1.888-2.785-3.776v-6.13c0-1.52.923-2.762,2.821-3.8a22.99,22.99,0,0,1,6.525-2.183h0a46.109,46.109,0,0,1,8.59-.707,47.176,47.176,0,0,1,8.585.706,20.4,20.4,0,0,1,6.5,2.2c1.3.766,2.785,1.888,2.785,3.777v6.13c0,1.519-.923,2.761-2.821,3.8a21.242,21.242,0,0,1-6.432,2.178A48.677,48.677,0,0,1,49.9,28.466Zm.069-17.1a43.777,43.777,0,0,0-8.145.665h0a20.552,20.552,0,0,0-5.82,1.932c-1.571.856-1.571,1.484-1.571,1.69v6.13c0,.228,0,.761,1.606,1.71A18.039,18.039,0,0,0,41.758,25.4a44.807,44.807,0,0,0,8.144.665,46.37,46.37,0,0,0,8.224-.667,19.014,19.014,0,0,0,5.706-1.91c1.6-.877,1.6-1.5,1.6-1.71v-6.13c0-.228,0-.761-1.6-1.71a18.039,18.039,0,0,0-5.717-1.912A44.823,44.823,0,0,0,49.971,11.362Z"/>
    <g>
      <path class="e" d="M71.451,16.021l2.138-1.8-2.138-1.8a.482.482,0,0,1-.17-.412l.239-2.783-2.784.24a.482.482,0,0,1-.41-.171l-1.8-2.138L64.727,9.3a.482.482,0,0,1-.41.171l-2.784-.24.24,2.783a.484.484,0,0,1-.17.412l-2.138,1.8,2.138,1.8a.481.481,0,0,1,.17.411l-.24,2.784,2.784-.24.041,0a.478.478,0,0,1,.369.173l1.8,2.137,1.8-2.137a.479.479,0,0,1,.41-.171l2.784.24-.239-2.784A.479.479,0,0,1,71.451,16.021Z"/>
      <path class="f" d="M66.526,8.2l1.534,1.822a.41.41,0,0,0,.316.147h.034l2.373-.2-.2,2.372a.408.408,0,0,0,.145.35l1.822,1.533-1.822,1.534a.407.407,0,0,0-.145.35l.2,2.372-2.373-.2h-.035a.41.41,0,0,0-.315.146l-1.534,1.822-1.533-1.822a.409.409,0,0,0-.314-.146h-.036l-2.372.2.2-2.372a.407.407,0,0,0-.145-.35l-1.822-1.534,1.822-1.533a.408.408,0,0,0,.145-.35l-.2-2.372,2.372.2h.034a.41.41,0,0,0,.316-.147L66.526,8.2m4.257,1.764h0M66.526,6.2h0A2,2,0,0,0,65,6.915l-1,1.192-1.551-.133c-.057,0-.114-.007-.171-.007a2,2,0,0,0-1.993,2.171l.134,1.552-1.192,1a2,2,0,0,0,0,3.061l1.192,1-.134,1.552a2,2,0,0,0,1.993,2.171c.057,0,.114,0,.171-.007l1.552-.134,1,1.192a2,2,0,0,0,3.061,0l1-1.192,1.552.134c.057,0,.114.007.171.007a2,2,0,0,0,1.992-2.171l-.133-1.551,1.192-1a2,2,0,0,0,0-3.061l-1.192-1,.125-1.449a2.067,2.067,0,0,0,.018-.274,2,2,0,0,0-2-2h-.037c-.055,0-.11,0-.163.009l-1.528.131-1-1.192A2,2,0,0,0,66.526,6.2Z"/>
    </g>
  </g>
</svg>
