<?xml version="1.0" encoding="utf-8"?>
<!-- Generator: Adobe Illustrator 25.4.1, SVG Export Plug-In . SVG Version: 6.00 Build 0)  -->
<svg version="1.1" id="a" xmlns="http://www.w3.org/2000/svg" xmlns:xlink="http://www.w3.org/1999/xlink" x="0px" y="0px"
	 viewBox="0 0 85 85" style="enable-background:new 0 0 85 85;" xml:space="preserve">
<style type="text/css">
	.st0{fill:#F0BF54;}
	.st1{fill:#F0AE5E;}
	.st2{fill:#EE9D5F;}
	.st3{fill:#2F9EF3;}
	.st4{fill:#487CD6;}
	.st5{fill:#4471CC;}
</style>
<g>
	<g>
		<g>
			
				<rect x="27.3" y="8.7" transform="matrix(0.7071 -0.7071 0.7071 0.7071 -4.4405 37.0434)" class="st0" width="30.4" height="30.4"/>
			<path class="st1" d="M42.5,4.2l19.7,19.7L42.5,43.6L22.8,23.9L42.5,4.2 M42.5,0.6l-1.8,1.8L21,22.1l-1.8,1.8l1.8,1.8l19.7,19.7
				l1.8,1.8l1.8-1.8L64,25.6l1.8-1.8L64,22.1L44.3,2.4L42.5,0.6L42.5,0.6z"/>
		</g>
		<g>
			<polygon class="st1" points="42.5,4.2 62.2,23.9 42.5,43.6 52.7,23.9 			"/>
		</g>
		<g>
			<polygon class="st2" points="62.2,23.9 42.5,43.6 52.7,23.9 			"/>
		</g>
	</g>
	<g>
		<g>
			<g>
				<g>
					<polygon class="st3" points="34.1,66.6 42.5,51.8 50.9,66.6 42.5,81.4 					"/>
					<path class="st4" d="M42.5,54.3l7,12.2l-7,12.2l-7-12.2L42.5,54.3 M42.5,49.3l-2.2,3.8l-7,12.2l-0.7,1.2l0.7,1.2l7,12.2
						l2.2,3.8l2.2-3.8l7-12.2l0.7-1.2l-0.7-1.2l-7-12.2L42.5,49.3L42.5,49.3z"/>
				</g>
				<polygon class="st5" points="42.5,78.8 44.8,66.6 49.5,66.6 				"/>
				<polygon class="st4" points="42.5,54.3 44.8,66.6 49.5,66.6 				"/>
			</g>
		</g>
	</g>
	<g>
		<g>
			<g>
				<g>
					<polygon class="st3" points="61,66.6 69.4,51.8 77.8,66.6 69.4,81.4 					"/>
					<path class="st4" d="M69.4,54.3l7,12.2l-7,12.2l-7-12.2L69.4,54.3 M69.4,49.3l-2.2,3.8l-7,12.2l-0.7,1.2l0.7,1.2l7,12.2
						l2.2,3.8l2.2-3.8l7-12.2l0.7-1.2l-0.7-1.2l-7-12.2L69.4,49.3L69.4,49.3z"/>
				</g>
				<polygon class="st5" points="69.4,78.8 71.6,66.6 76.4,66.6 				"/>
				<polygon class="st4" points="69.4,54.3 71.6,66.6 76.4,66.6 				"/>
			</g>
		</g>
	</g>
	<g>
		<g>
			<g>
				<g>
					<polygon class="st3" points="7.2,66.6 15.6,51.8 24,66.6 15.6,81.4 					"/>
					<path class="st4" d="M15.6,54.3l7,12.2l-7,12.2l-7-12.2L15.6,54.3 M15.6,49.3l-2.2,3.8l-7,12.2l-0.7,1.2l0.7,1.2l7,12.2
						l2.2,3.8l2.2-3.8l7-12.2l0.7-1.2l-0.7-1.2l-7-12.2L15.6,49.3L15.6,49.3z"/>
				</g>
				<polygon class="st5" points="15.6,78.8 17.9,66.6 22.6,66.6 				"/>
				<polygon class="st4" points="15.6,54.3 17.9,66.6 22.6,66.6 				"/>
			</g>
		</g>
	</g>
</g>
</svg>
