<?xml version="1.0" encoding="utf-8"?>
<!-- Generator: Adobe Illustrator 26.0.3, SVG Export Plug-In . SVG Version: 6.00 Build 0)  -->
<svg version="1.1" id="Layer_1" xmlns="http://www.w3.org/2000/svg" xmlns:xlink="http://www.w3.org/1999/xlink" x="0px" y="0px"
	 viewBox="0 0 291.6 74.7" style="enable-background:new 0 0 291.6 74.7;" xml:space="preserve">
<style type="text/css">
	.st0{fill:#FFFFFF;}
</style>
<g id="New_Symbol_1">
</g>
<g>
	<rect x="78.3" y="17.2" class="st0" width="3" height="3.2"/>
	<rect x="78.8" y="22.8" class="st0" width="2.9" height="3.1"/>
	<rect x="88.7" y="24.3" class="st0" width="3.3" height="3.5"/>
	<rect x="55.7" y="18.7" class="st0" width="2.2" height="2.4"/>
	<rect x="62.8" y="18.6" class="st0" width="2.4" height="2.6"/>
	<polygon class="st0" points="87.6,20.7 90.7,20.7 90.7,16.7 87.1,16.7 87.1,18.4 84.4,18.4 84.4,21.8 87.6,21.8 	"/>
	<rect x="52.4" y="13.2" class="st0" width="1.8" height="2"/>
	<rect x="93" y="29.9" class="st0" width="3" height="3.2"/>
	<rect x="83.5" y="28.1" class="st0" width="2.6" height="2.8"/>
	<rect x="73.4" y="15.6" class="st0" width="2.5" height="2.6"/>
	<rect x="71" y="20.3" class="st0" width="2.8" height="3"/>
	<rect x="96.3" y="25.5" class="st0" width="1.8" height="2"/>
	<rect x="65.3" y="23.4" class="st0" width="1.7" height="1.9"/>
	<polygon class="st0" points="84.3,14.7 84.3,12.8 82.8,12.8 82.8,11 80.7,11 80.7,13.3 82.5,13.3 82.5,14.7 	"/>
	<rect x="68" y="15.2" class="st0" width="1.7" height="1.9"/>
	<rect x="43.5" y="10.1" class="st0" width="1.7" height="1.9"/>
	<rect x="74.6" y="26.9" class="st0" width="1.7" height="1.9"/>
	<rect x="61" y="10.9" class="st0" width="2" height="2.1"/>
	<rect x="72" y="9.8" class="st0" width="1.7" height="1.9"/>
	<path class="st0" d="M91,13.8v1.1h2.4v3.6h2.9v1.8H93V24h3.5v-2.5h0.9v1.3h2v3.9h1.5v3.6h-1v1.2h-0.8c2.1,6.5,2.9,13.9,2.9,13.9
		c1.7-3.3,9.9-35.2-22.8-37.8c4.5,2.2,7.8,4.8,9.5,6.2C88.7,13.8,91,13.8,91,13.8z"/>
	<path class="st0" d="M78.6,67.3h10.6L73.8,34.6h-9.9l0,0L53.2,55.8h-3.1v7.4l-1,2.8L38.5,53.2c1.2-0.3,2.2-0.7,3.2-1.2l0,0l0,0
		c0.3-0.2,0.7-0.3,1-0.5c0.1,0,0.1-0.1,0.2-0.1c0.2-0.1,0.5-0.3,0.7-0.4c0.1,0,0.2-0.1,0.2-0.2c0.2-0.1,0.4-0.3,0.6-0.5
		c0.1-0.1,0.1-0.1,0.2-0.2c0.3-0.2,0.5-0.4,0.7-0.6c1.6-1.6,2.4-3.4,2.4-5.6c0-1-0.3-2.1-0.9-3.3c-0.6-1.2-1.5-2.2-2.7-3.2
		s-2.7-1.8-4.4-2.4c-1.7-0.6-3.8-1-6-1l0,0H9.5v12.5H7.1V52v2h2.4v13.3h10V54h8.3l10.7,13.3h19.7l2.5-4.1h16.4L78.6,67.3z
		 M19.5,40.8h12.4c0.6,0,1.2,0.1,1.8,0.3c0.6,0.2,1.1,0.4,1.6,0.7s0.8,0.7,1.1,1c0.3,0.4,0.4,0.8,0.4,1.2s-0.1,0.9-0.4,1.3
		s-0.7,0.7-1.1,1.1c-0.5,0.3-1,0.6-1.6,0.7c-0.6,0.2-1.2,0.3-1.8,0.3H19.5V40.8z M63.9,55.8l1.8-3.7l0,0l3.2-6.7l5,10.5L63.9,55.8
		L63.9,55.8z"/>
	<polygon class="st0" points="201.9,52 201.9,34.6 189.9,34.6 189.9,41.9 189.9,41.9 192.3,41.9 192.3,52 192.3,55.3 188.9,52 
		188.9,52 170.8,34.6 170.8,34.6 161.2,34.6 161.2,52 161.2,67.2 170.8,67.2 170.8,52 170.8,52 170.8,46.5 192.3,67.2 201.9,67.2 	
		"/>
	<path class="st0" d="M283.8,61.7c0.9-1.7,1.2-4.6,0.6-6.7c-0.3-0.9-0.6-1.8-1.1-2.4c-0.1-0.2-0.3-0.3-0.4-0.5l0,0
		c-0.1-0.1-0.2-0.2-0.3-0.3c-0.1-0.1-0.1-0.2-0.2-0.2c-0.2-0.2-0.5-0.5-0.7-0.6c-0.6-0.4-1.2-0.7-1.8-0.9c0.4-0.2,0.9-0.5,1.4-0.8
		s1-0.8,1.4-1.3s0.8-1.1,1-1.9c0.3-0.7,0.5-2.1,0.4-3.5c-0.1-0.8-0.2-1.7-0.6-2.4c-0.6-1.2-1-1.8-2.1-2.7s-2.5-1.6-4.2-2.1
		c-1.7-0.6-3.8-0.8-6.3-0.8l0,0h-23.5l0,0v12.3H245v5.3v2.1h2.4v13.1h24.4c1.9,0,3.6-0.2,5.2-0.7s3-1.1,4.2-1.9
		C282.3,63.7,283.3,62.8,283.8,61.7z M257,41.1h12.4c0.6,0,1.2,0.1,1.7,0.3c0.6,0.2,1.1,0.4,1.6,0.7s0.9,0.6,1.2,1
		c0.3,0.4,0.4,0.8,0.4,1.1c0,0.4-0.1,0.8-0.4,1.2s-0.7,0.7-1.2,1s-1,0.6-1.6,0.7c-0.6,0.2-1.2,0.3-1.7,0.3H257V41.1z M275.4,58.5
		c-0.3,0.4-0.7,0.7-1.2,1s-1.1,0.5-1.8,0.7c-0.7,0.2-1.4,0.3-2.2,0.3H257V54h13.2c1.6,0,2.9,0.3,4,1c1.1,0.6,1.6,1.4,1.6,2.3
		C275.8,57.7,275.6,58.1,275.4,58.5z"/>
	<path class="st0" d="M157.7,67.3v-6.5h-27v-6.6h20.4v-2.1v-5.3h-20.4v-5.6h27l0,0v-6.6l0,0h-29.8c-3.8,1.6-7,5-7,5v7.2h-2.4l0,0
		v7.3h2.4v13.2C120.9,67.3,157.7,67.3,157.7,67.3z"/>
	<path class="st0" d="M110.8,52L110.8,52c0.1-0.1,0.2-0.3,0.2-0.4c0.3-0.5,0.5-1,0.8-1.4c0.2-0.3,0.3-0.6,0.5-0.9l0,0
		c1.1-2.1,2.1-3.9,2.8-5.1c-0.5,0.5-1,1-1.4,1.4c-0.1,0.1-0.3,0.2-0.4,0.4c-0.3,0.3-0.7,0.6-1,0.9c-0.2,0.1-0.3,0.3-0.5,0.4
		c-0.3,0.2-0.6,0.5-0.9,0.7c-0.2,0.1-0.3,0.3-0.5,0.4c-0.3,0.2-0.6,0.4-0.9,0.6c-0.2,0.1-0.3,0.2-0.5,0.3c-0.3,0.2-0.6,0.4-0.9,0.6
		c-0.2,0.1-0.3,0.2-0.4,0.3c-0.3,0.2-0.6,0.4-0.9,0.5c-0.1,0.1-0.3,0.1-0.4,0.2c-0.3,0.2-0.6,0.3-0.9,0.5c-0.1,0.1-0.2,0.1-0.3,0.2
		c-0.3,0.2-0.6,0.3-0.9,0.4c-3,1.5-5,2-5,2l-1.1-2l0,0l-9.6-17.9h-10l17.3,33.2h6.7C102.6,67.3,107,59,110.8,52z"/>
	<path class="st0" d="M206.4,41.9v25.3h16.3c2.8,0,5.5-0.4,7.9-1.3c2.5-0.8,4.6-2,6.4-3.5s3.2-3.2,4.3-5.2c0.9-1.6,1.4-3.4,1.5-5.2
		l0,0c0-0.4,0.1-0.8,0.1-1.1c0-2.2-0.5-4.3-1.4-6.3c-1-2-2.3-3.7-4-5.2s-3.7-2.7-6.1-3.5c-2.4-0.9-5-1.3-7.8-1.3l0,0h-19.5l0,0V42
		l0,0L206.4,41.9L206.4,41.9z M222.7,41.2c1.6,0.2,3.1,0.6,4.6,1.2s2.8,1.3,3.9,2.2c1.1,0.9,2,1.8,2.7,2.9s1,2.2,1,3.4
		c0,0.4,0,0.8-0.1,1.1l0,0c-0.1,1-0.4,2-0.9,2.8c-0.7,1.2-1.6,2.3-2.7,3.1c-1.1,0.9-2.4,1.6-3.9,2.1s-3,0.7-4.6,0.7h-7.5v-8.8l0,0
		V41.2H222.7z"/>
	<path class="st0" d="M102.2,15.1l2-0.1l-1.2,1.1c0.4,0.5,0.7,1,1,1.5l3.3-0.6l-2.3,2.5c5.7,19.4-4.2,31.3-4.2,31.3
		c8.1-2.8,18.9-14.9,27.5-19.3c8.3-4.3,16-0.1,15.5-1.7c-1.1-3.4-8.7-7.4-8.7-7.4c-3.3-3.8-7-4.8-9.4-5.3c-4.4-0.8-8.8,0.1-11,0.6
		C106.9,7.6,89.9,7.3,89.9,7.3C95.7,9.2,99.6,11.9,102.2,15.1z M127.8,21.4c1,0,2.8,0.7,4.2,2c0,0-0.9,0.2-1.9,0.1
		c-0.8,0-1.7-0.3-2.6-1.1C126.8,21.7,127.1,21.3,127.8,21.4z"/>
</g>
</svg>
