<?xml version="1.0" encoding="utf-8"?>
<!-- Generator: Adobe Illustrator 27.6.1, SVG Export Plug-In . SVG Version: 6.00 Build 0)  -->
<svg version="1.1" id="Layer_1" xmlns="http://www.w3.org/2000/svg" xmlns:xlink="http://www.w3.org/1999/xlink" x="0px" y="0px"
	 viewBox="0 0 291.6 74.7" style="enable-background:new 0 0 291.6 74.7;" xml:space="preserve">
<style type="text/css">
	.st0{fill:#FFFFFF;}
</style>
<g id="New_Symbol_1">
</g>
<g>
	<path class="st0" d="M15.6,24.8l0.1,0c1.6,0.1,3-1,3.3-2.5l-6.5-0.9l0.1,0.7C12.9,23.5,14.1,24.6,15.6,24.8z"/>
	<path class="st0" d="M41.7,42.3c6.9-2,11.8-8.4,11.8-15.6c0-9-7.3-16.3-16.3-16.3H7.5l0,6.2c6-1.9,13.2,0.7,16.4,4.6
		c0,0,15.2-1.3,17.3,8.6c0,0-0.2-0.1-0.5-0.2c0,0,0,0,0,0c-0.1,0-0.2-0.1-0.2-0.1c0,0-0.1,0-0.1,0c-0.1,0-0.2-0.1-0.3-0.1
		c0,0-0.1,0-0.1,0c-0.1,0-0.2-0.1-0.3-0.1c-0.1,0-0.1,0-0.2-0.1c-0.1,0-0.2-0.1-0.3-0.1c-0.1,0-0.1,0-0.2-0.1
		c-0.1,0-0.2-0.1-0.3-0.1c-0.1,0-0.2,0-0.2-0.1c-0.1,0-0.2-0.1-0.3-0.1c-0.1,0-0.2,0-0.3-0.1c-0.1,0-0.2-0.1-0.4-0.1
		c-0.1,0-0.2,0-0.3-0.1c-0.1,0-0.2,0-0.4-0.1c-0.1,0-0.2,0-0.3-0.1c-0.1,0-0.3,0-0.4-0.1c-0.1,0-0.2,0-0.4-0.1c-0.1,0-0.3,0-0.4-0.1
		c-0.1,0-0.3,0-0.4,0c-0.1,0-0.3,0-0.4,0c-0.1,0-0.3,0-0.4,0c-0.1,0-0.3,0-0.4,0c-0.1,0-0.3,0-0.4,0c-0.1,0-0.3,0-0.4,0
		c-0.1,0-0.3,0-0.4,0c-0.1,0-0.3,0-0.4,0c-0.1,0-0.3,0-0.5,0c-0.1,0-0.3,0-0.4,0c-0.2,0-0.3,0-0.5,0c-0.1,0-0.3,0-0.4,0
		c-0.2,0-0.3,0-0.5,0.1c-0.1,0-0.3,0-0.4,0.1c-0.2,0-0.3,0.1-0.5,0.1c-0.1,0-0.3,0.1-0.4,0.1c-0.2,0-0.3,0.1-0.5,0.1
		c-0.1,0-0.3,0.1-0.4,0.1c-0.2,0-0.3,0.1-0.5,0.2c-0.1,0-0.3,0.1-0.4,0.1c-0.2,0.1-0.3,0.1-0.5,0.2c-0.1,0.1-0.3,0.1-0.4,0.2
		c-0.2,0.1-0.3,0.1-0.5,0.2c-0.1,0.1-0.3,0.1-0.4,0.2c-0.2,0.1-0.3,0.2-0.5,0.3c-0.1,0.1-0.3,0.1-0.4,0.2c-0.2,0.1-0.3,0.2-0.5,0.3
		c-0.1,0.1-0.2,0.2-0.4,0.2c-0.2,0.1-0.3,0.3-0.5,0.4c-0.1,0.1-0.2,0.2-0.3,0.3c-0.2,0.1-0.4,0.3-0.5,0.5c-0.1,0.1-0.2,0.2-0.3,0.3
		c-0.2,0.2-0.4,0.4-0.6,0.6c-0.1,0.1-0.2,0.2-0.3,0.3c-0.2,0.2-0.4,0.5-0.7,0.7c0,0.1-0.1,0.1-0.1,0.1c-0.3,0.3-0.5,0.7-0.8,1
		c-0.2,0.3-0.4,0.6-0.6,0.9c-0.1,0.1-0.1,0.2-0.1,0.3c-0.1,0.2-0.3,0.5-0.4,0.7c0,0.1-0.1,0.2-0.1,0.3c-0.1,0.3-0.3,0.7-0.4,1
		c0,0,0,0,0,0c-0.1,0.4-0.3,0.7-0.4,1.1c0,0.1-0.1,0.2-0.1,0.3c-0.1,0.3-0.2,0.6-0.3,1c0,0.1,0,0.2-0.1,0.2
		c-0.1,0.4-0.2,0.8-0.3,1.3c-0.2,0.9-0.5,1.8-0.8,2.8c-0.4,1.4-0.8,2.8-1.2,4c-0.1,0.5-0.3,1-0.4,1.5c-0.1,0.4-0.2,0.8-0.3,1.2
		c-0.1,0.3-0.2,0.7-0.3,1c-0.2,0.7-0.4,1.3-0.6,2c-0.1,0.2-0.1,0.4-0.2,0.6c-0.2,0.5-0.3,1-0.5,1.4c-0.1,0.3-0.2,0.5-0.3,0.7
		c-0.2,0.4-0.3,0.9-0.5,1.3c-0.1,0.2-0.2,0.5-0.3,0.7c-0.2,0.6-0.4,1.1-0.7,1.7c0,0.1-0.1,0.2-0.1,0.3c-0.3,0.7-0.6,1.4-1,2.1h10.4
		l3.7-17.3H29l10.2,17.3h13.2L40.2,43l1.3-0.7L41.7,42.3z"/>
	<path class="st0" d="M85.4,32.1c-1.2-1.5-2.9-2.7-4.9-3.5c-2-0.8-4.6-1.2-7.8-1.2c-2.9,0-5.7,0.5-8.4,1.5c-2.7,0.9-5.1,2.3-7.1,4.2
		l5.8,6c1.2-1.3,2.5-2.3,3.9-3c1.5-0.8,3.1-1.2,4.9-1.2c1.9,0,3.5,0.6,4.9,1.7c1.4,1.1,2.1,2.6,2.1,4.6c-1.5,0-3.1,0-4.9,0.1
		c-1.7,0-3.5,0.2-5.3,0.4c-1.7,0.2-3.4,0.6-5.1,1.2c-1.6,0.5-3.1,1.2-4.4,2.1c-1.3,0.9-2.3,2.1-3,3.5c-0.7,1.4-1.1,3.1-1.1,5.2
		c0,1.8,0.3,3.4,1,4.7c0.7,1.4,1.6,2.5,2.8,3.4c1.2,0.9,2.5,1.6,4,2c1.5,0.5,3.1,0.7,4.8,0.7c2.2,0,4.3-0.4,6.3-1.2
		c2-0.8,3.6-2.2,4.9-4.1h0.1v4.4h10V45.6c0-3-0.2-5.5-0.7-7.8C87.5,35.5,86.6,33.6,85.4,32.1z M78.7,50.4c0,1.1-0.2,2.1-0.7,2.9
		c-0.4,0.8-1,1.5-1.8,2c-0.8,0.5-1.7,0.9-2.7,1.2c-1,0.3-2,0.4-3,0.4c-1.2,0-2.4-0.3-3.5-0.9c-1.1-0.6-1.7-1.6-1.7-2.9
		c0-1.2,0.4-2.2,1.2-2.8c0.8-0.7,1.8-1.2,2.9-1.5c1.2-0.3,2.3-0.5,3.6-0.6c1.3-0.1,2.3-0.1,3.1-0.1h2.7V50.4z"/>
	<polygon class="st0" points="110.3,52.2 110.1,52.2 101.2,28.2 89.5,28.2 104.1,63.5 115.6,63.5 129.5,28.2 118.6,28.2 	"/>
	<path class="st0" d="M161.6,32.4c-1.4-1.6-3.1-2.9-5.2-3.8c-2-0.9-4.3-1.3-6.8-1.3c-2.7,0-5.3,0.4-7.7,1.3
		c-2.4,0.9-4.4,2.1-6.2,3.8c-1.7,1.6-3.1,3.5-4.1,5.8c-1,2.3-1.5,4.8-1.5,7.6c0,2.8,0.5,5.3,1.5,7.6c1,2.3,2.4,4.2,4.1,5.9
		c1.8,1.6,3.9,2.8,6.2,3.7c2.4,0.9,5,1.3,7.7,1.3c2.9,0,5.6-0.6,8.3-1.8c2.7-1.2,4.9-2.9,6.6-5.2l-7.6-5.6c-0.9,1.3-2,2.3-3.3,3.1
		c-1.2,0.8-2.7,1.2-4.5,1.2c-2.1,0-3.9-0.6-5.4-1.8c-1.4-1.3-2.4-2.9-2.8-5h25.2v-3.4c0-2.8-0.4-5.3-1.2-7.6
		C164.2,36,163.1,34,161.6,32.4z M140.9,41.9c0-0.9,0.2-1.7,0.6-2.5c0.4-0.8,0.9-1.5,1.5-2.1c0.7-0.6,1.5-1.1,2.4-1.5
		c0.9-0.4,2-0.6,3.2-0.6c2,0,3.6,0.7,4.9,2c1.3,1.3,1.9,2.9,1.8,4.7H140.9z"/>
	<path class="st0" d="M236.7,22.4c-3.3-1.7-7-2.4-11.2-2.4h-14.3v43.6h13.2c4.5,0,8.6-0.8,12-2.5c3.4-1.7,6.1-4.3,7.9-7.6
		c1.9-3.4,2.7-7.4,2.7-12.1c0-4.5-0.8-8.4-2.6-11.6C242.6,26.5,240,24,236.7,22.4z M233.9,51.5c-2,2-5.3,3.2-10.2,3.2h-3V28.7h4.1
		c2.9,0,5.1,0.5,6.9,1.4l0,0l0,0c1.7,0.8,3,2.1,3.9,3.9l0,0l0,0c0.9,1.8,1.5,4.2,1.5,7.4C237.2,46.2,236,49.4,233.9,51.5z"/>
	<path class="st0" d="M282.6,44c-0.9-1.5-2.1-2.7-3.6-3.6c1.2-0.9,2.1-2.1,2.7-3.4c0.7-1.6,1.1-3.3,1.1-5.1c0-2.7-0.6-5.2-2.2-7.1
		c-1.5-1.9-3.6-3.1-6.2-3.9c-2.5-0.7-5.4-1-8.7-1h-13.4v43.6h16c3,0,5.7-0.4,8.1-1.4l0,0l0,0c2.4-1,4.3-2.6,5.7-4.6l0,0l0,0
		c1.4-2.1,2-4.6,2-7.3C284.1,47.8,283.7,45.7,282.6,44z M261.8,28.7h4.1c3.2,0,5,0.5,6,1.1l0,0l0,0c0.7,0.4,1.2,1.1,1.2,2.6
		c0,1.6-0.5,2.5-1.1,3.1c-0.6,0.5-2.1,1-5.4,1h-4.9V28.7z M272.9,53.4c-0.7,0.7-2.3,1.3-5.6,1.3h-5.5v-9.5h5.2
		c2.3,0,3.8,0.3,4.8,0.7l0,0l0,0c1.1,0.4,1.6,0.9,1.8,1.3l0,0l0,0c0.4,0.6,0.6,1.4,0.6,2.4C274.2,51.4,273.8,52.5,272.9,53.4z"/>
	<path class="st0" d="M202.9,32.1c-0.9-1.5-2.2-2.7-3.9-3.5c-1.7-0.9-3.9-1.3-6.7-1.3c-1.3,0-2.5,0.2-3.6,0.5
		c-1.1,0.3-2.1,0.8-3,1.3c-0.9,0.5-1.6,1.1-2.2,1.8c-0.6,0.7-1.1,1.4-1.4,2h-0.1v-4.8h-10.4v35.3h10.9V45.9c0-1.2,0.1-2.3,0.2-3.3
		c0.1-1.1,0.4-2,0.9-2.8c0.5-0.9,1.2-1.5,2-2c0.9-0.5,2-0.8,3.4-0.8c1.4,0,2.5,0.3,3.2,0.9c0.8,0.6,1.3,1.3,1.7,2.2
		c0.4,0.9,0.6,1.9,0.7,3c0.1,1.1,0.1,2.1,0.1,3.1v17.3h10.9V44c0-2.4-0.2-4.6-0.5-6.6C204.5,35.4,203.9,33.6,202.9,32.1z"/>
</g>
</svg>
