<?xml version="1.0" encoding="utf-8"?>
<!-- Generator: Adobe Illustrator 27.7.0, SVG Export Plug-In . SVG Version: 6.00 Build 0)  -->
<svg version="1.1" id="Layer_1" xmlns="http://www.w3.org/2000/svg" xmlns:xlink="http://www.w3.org/1999/xlink" x="0px" y="0px"
	 viewBox="0 0 291.6 74.7" style="enable-background:new 0 0 291.6 74.7;" xml:space="preserve">
<style type="text/css">
	.st0{fill:#388EE9;}
	.st1{fill-rule:evenodd;clip-rule:evenodd;fill:#388EE9;}
</style>
<g id="New_Symbol_1">
</g>
<g>
	<path class="st0" d="M19,22.1l-6.5-0.9l0.1,0.7c0.2,1.5,1.4,2.6,2.9,2.7h0.1C17.3,24.8,18.8,23.7,19,22.1z"/>
	<path class="st0" d="M41.7,42.2c6.9-2,11.8-8.4,11.8-15.6c0-9-7.3-16.3-16.3-16.3H7.5v6.2c6-1.9,13.2,0.7,16.4,4.6
		c0,0,15.2-1.3,17.3,8.6c0,0-14.4-6.1-22.3,5.2c-1.9,2.7-2.4,5.9-3.5,9.9c-2.2,7.4-3.4,12.9-6.3,18.7h10.4l3.7-17.3H29l10.2,17.3
		h13.2L40.2,42.9l1.3-0.7H41.7z"/>
	<path class="st1" d="M211.2,63.4V19.8h14.3c4.2,0,8,0.8,11.2,2.4c3.3,1.7,5.8,4.1,7.6,7.4c1.8,3.2,2.6,7.1,2.6,11.6
		c0,4.6-0.9,8.7-2.7,12.1s-4.5,5.9-7.9,7.6c-3.4,1.7-7.4,2.5-12,2.5H211.2z M233.9,51.4c2.1-2,3.3-5.2,3.3-10c0-3.2-0.5-5.6-1.5-7.4
		l0,0l0,0c-0.9-1.8-2.2-3-3.9-3.9l0,0l0,0c-1.8-0.9-4.1-1.4-6.9-1.4h-4.1v25.9h3C228.6,54.6,231.9,53.4,233.9,51.4z M279,40.3
		c1.5,0.9,2.7,2.1,3.6,3.6c1,1.7,1.5,3.8,1.5,6.2c0,2.7-0.6,5.2-2,7.3l0,0l0,0c-1.4,2.1-3.3,3.6-5.7,4.6l0,0l0,0
		c-2.4,1-5.1,1.4-8.1,1.4h-16V19.8h13.4c3.4,0,6.3,0.3,8.7,1c2.5,0.7,4.7,1.9,6.2,3.9c1.5,1.9,2.2,4.4,2.2,7.1
		c0,1.8-0.3,3.5-1.1,5.1C281.1,38.2,280.2,39.4,279,40.3z M261.8,54.6h5.5c3.3,0,4.9-0.7,5.6-1.3c0.8-0.8,1.3-2,1.3-3.7
		c0-1-0.2-1.8-0.6-2.4l0,0l0,0c-0.2-0.4-0.8-0.9-1.8-1.3l0,0l0,0c-1-0.4-2.5-0.7-4.8-0.7h-5.2V54.6z M272,35.4
		c0.6-0.5,1.1-1.4,1.1-3.1c0-1.5-0.5-2.2-1.2-2.6l0,0l0,0c-0.9-0.6-2.8-1.1-6-1.1h-4.1v7.8h4.9C269.9,36.4,271.5,35.9,272,35.4z
		 M78.6,59L78.6,59l0.1,4.4h10V45.5c0-3-0.2-5.5-0.7-7.8s-1.4-4.2-2.6-5.7c-1.2-1.5-2.9-2.7-4.9-3.5s-4.6-1.2-7.8-1.2
		c-2.9,0-5.7,0.5-8.4,1.5c-2.7,0.9-5.1,2.3-7.1,4.2l5.8,6c1.2-1.3,2.5-2.3,3.9-3c1.5-0.8,3.1-1.2,4.9-1.2c1.9,0,3.5,0.6,4.9,1.7
		c1.4,1.1,2.1,2.6,2.1,4.6c-1.5,0-3.1,0-4.9,0.1c-1.7,0-3.5,0.2-5.3,0.4c-1.7,0.2-3.4,0.6-5.1,1.2c-1.6,0.5-3.1,1.2-4.4,2.1
		c-1.3,0.9-2.3,2.1-3,3.5S55,51.5,55,53.6c0,1.8,0.3,3.4,1,4.7c0.7,1.4,1.6,2.5,2.8,3.4s2.5,1.6,4,2c1.5,0.5,3.1,0.7,4.8,0.7
		c2.2,0,4.3-0.4,6.3-1.2C75.7,62.2,77.4,60.9,78.6,59z M76,47.9c-0.8,0-1.9,0-3.1,0.1c-1.2,0-2.4,0.2-3.6,0.6
		c-1.1,0.3-2.1,0.8-2.9,1.5s-1.2,1.6-1.2,2.8c0,1.3,0.6,2.3,1.7,2.9c1.1,0.6,2.3,0.9,3.5,0.9c1.1,0,2.1-0.1,3-0.4
		c1-0.3,1.9-0.7,2.7-1.2c0.8-0.5,1.4-1.2,1.8-2c0.5-0.8,0.7-1.8,0.7-2.9v-2.3H76z M157.9,62.4c2.7-1.2,4.9-2.9,6.6-5.2l-7.6-5.6
		c-0.9,1.3-2,2.3-3.3,3.1c-1.2,0.8-2.7,1.2-4.5,1.2c-2.1,0-3.9-0.6-5.4-1.8c-1.4-1.3-2.4-2.9-2.8-5h25.2v-3.4c0-2.8-0.4-5.3-1.2-7.6
		s-1.9-4.2-3.3-5.8c-1.4-1.6-3.1-2.9-5.2-3.8c-2-0.9-4.3-1.3-6.8-1.3c-2.7,0-5.3,0.4-7.7,1.3s-4.4,2.1-6.2,3.8
		c-1.7,1.6-3.1,3.5-4.1,5.8s-1.5,4.8-1.5,7.6s0.5,5.3,1.5,7.6s2.4,4.2,4.1,5.9c1.8,1.6,3.9,2.8,6.2,3.7c2.4,0.9,5,1.3,7.7,1.3
		C152.4,64.3,155.2,63.7,157.9,62.4z M153.4,37c1.3,1.3,1.9,2.9,1.8,4.7h-14.4c0-0.9,0.2-1.7,0.6-2.5c0.4-0.8,0.9-1.5,1.5-2.1
		c0.7-0.6,1.5-1.1,2.4-1.5s2-0.6,3.2-0.6C150.6,35.1,152.2,35.7,153.4,37z M171.5,28.1h10.4v4.8h0.1c0.3-0.7,0.8-1.4,1.4-2
		c0.6-0.7,1.4-1.3,2.2-1.8c0.9-0.5,1.9-1,3-1.3s2.3-0.5,3.6-0.5c2.8,0,5,0.4,6.7,1.3c1.7,0.8,3,2,3.9,3.5c1,1.5,1.6,3.3,2,5.3
		c0.3,2,0.5,4.2,0.5,6.6v19.4h-10.9V46.1c0-1,0-2.1-0.1-3.1c0-1.1-0.3-2.1-0.7-3c-0.3-0.9-0.9-1.7-1.7-2.2c-0.7-0.6-1.8-0.9-3.2-0.9
		s-2.5,0.3-3.4,0.8s-1.5,1.2-2,2c-0.4,0.8-0.7,1.8-0.9,2.8c-0.1,1.1-0.2,2.2-0.2,3.3v17.6h-10.9V28.1H171.5z M89.5,28.1h11.7
		l8.9,23.9h0.1l8.3-23.9h10.9l-13.9,35.3H104L89.5,28.1z"/>
</g>
</svg>
