<svg xmlns="http://www.w3.org/2000/svg" viewBox="0 0 100 60">
  <defs>
    <style>
      .a {
        fill: #2f9ef3;
      }

      .b {
        fill: #f0bf54;
      }

      .c {
        fill: #edcd51;
      }

      .d {
        fill: #ee9d5f;
      }

      .e {
        fill: #2fb4d2;
      }

      .f {
        fill: #5578b5;
      }
    </style>
  </defs>
  <title>search-index</title>
  <g>
    <path class="a" d="M46.561,44.769a2.819,2.819,0,0,1-2.007-.831L32.789,32.173a13.913,13.913,0,0,1-7.082,1.946,14.2,14.2,0,0,1-3.542-.454A13.708,13.708,0,0,1,19.4,32.616,14.094,14.094,0,0,1,25.707,5.953a14.316,14.316,0,0,1,2.114.158,14.025,14.025,0,0,1,8.319,4.54,13.925,13.925,0,0,1,.852,17.693L48.569,39.922a2.856,2.856,0,0,1,.048,3.968A2.817,2.817,0,0,1,46.561,44.769ZM25.707,11.65a8.427,8.427,0,0,0-5.959,14.383,8.261,8.261,0,0,0,2.975,1.9,8.541,8.541,0,0,0,2.991.542,8.351,8.351,0,0,0,5.952-2.445,8.483,8.483,0,0,0,.852-10.9,8.263,8.263,0,0,0-6.811-3.482Z"/>
    <g>
      <g>
        <g>
          <path class="b" d="M82.357,15.482a4.977,4.977,0,0,0-4.565,3H57.957a4.977,4.977,0,1,0-4.565,6.958c.143,0,.277-.03.416-.042l5.5,10.189L64.4,45.011a4.927,4.927,0,0,0-1.077,3.058A4.979,4.979,0,1,0,68.3,43.091c-.143,0-.277.03-.416.042l-5.673-10.5-4.921-9.111a5.005,5.005,0,0,0,.663-1.079H77.792a4.991,4.991,0,0,0,.744,1.178l-2.889,5.7c-.1-.006-.192-.03-.292-.03a5.037,5.037,0,1,0,3.82,1.822l2.891-5.7c.1,0,.191.029.291.029a4.979,4.979,0,0,0,0-9.957Z"/>
          <rect class="b" x="66.379" y="27.888" width="3.959" height="3.959" transform="translate(6.698 71.855) rotate(-57.855)"/>
          <rect class="b" x="60.514" y="24.201" width="3.959" height="3.959" transform="translate(7.069 65.156) rotate(-57.846)"/>
        </g>
        <g>
          <path class="c" d="M57.957,18.481a4.977,4.977,0,1,0-4.565,6.958c.143,0,.277-.03.416-.042l5.5,10.189q1.482-1.449,2.9-2.956l-4.921-9.111a5.005,5.005,0,0,0,.663-1.079H70.6c.933-1.3,1.844-2.616,2.716-3.959Z"/>
          <rect class="c" x="60.514" y="24.201" width="3.959" height="3.959" transform="translate(7.073 65.161) rotate(-57.852)"/>
        </g>
      </g>
      <path class="d" d="M82.356,14.282a6.174,6.174,0,0,0-5.294,3H58.686a6.177,6.177,0,1,0-5.574,9.352L63,44.936a6.054,6.054,0,0,0-.873,3.133A6.179,6.179,0,1,0,68.584,41.9l-6.65-12.312.542.341a1.2,1.2,0,0,0,1.655-.377L66.238,26.2a1.2,1.2,0,0,0-.377-1.655l-1.435-.9H77.072c.02.031.04.063.061.094L74.917,28.1a6.123,6.123,0,0,0-2.678.833,1.189,1.189,0,0,0-.513-.707l-3.351-2.106a1.2,1.2,0,0,0-1.654.377l-2.107,3.353a1.2,1.2,0,0,0,.377,1.654l3.352,2.107a1.2,1.2,0,0,0,.638.184,1.177,1.177,0,0,0,.22-.025c-.013.163-.024.326-.024.493a6.179,6.179,0,0,0,12.357,0A6.038,6.038,0,0,0,80.577,31L82.8,26.624a6.179,6.179,0,0,0-.439-12.342ZM62.738,27.256l-1.32-.83.83-1.32,1.32.83Zm-3.27-2.236-.745-1.38h1.612ZM68.6,30.942l-1.319-.829.83-1.32,1.319.829Zm13.76-6.707h-.007c-.072-.01-.145-.019-.219-.023A1.193,1.193,0,0,0,81,24.867l-2.89,5.7a1.2,1.2,0,0,0,.146,1.308,3.742,3.742,0,0,1,.883,2.392,3.779,3.779,0,1,1-3.788-3.775h.006c.076.01.152.019.229.024a1.187,1.187,0,0,0,1.136-.656l2.89-5.7a1.2,1.2,0,0,0-.146-1.309,3.767,3.767,0,0,1-.569-.89,1.2,1.2,0,0,0-1.1-.722H57.957a1.2,1.2,0,0,0-1.1.72,3.787,3.787,0,0,1-.508.819,1.2,1.2,0,0,0-.111,1.31L66.832,43.7a1.177,1.177,0,0,0,1.16.625c.071-.006.142-.015.212-.025l.1-.012a3.778,3.778,0,1,1-3.779,3.778,3.721,3.721,0,0,1,.821-2.317,1.2,1.2,0,0,0,.112-1.312l-10.6-19.613a1.2,1.2,0,0,0-1.056-.63c-.033,0-.066,0-.1,0-.074.006-.147.016-.22.026l-.1.012a3.779,3.779,0,1,1,3.464-5.28,1.2,1.2,0,0,0,1.1.723H77.792a1.2,1.2,0,0,0,1.1-.723,3.777,3.777,0,1,1,3.471,5.276Z"/>
    </g>
    <path class="e" d="M19.041,26.74a9.427,9.427,0,1,1,14.287-12.2q1.057-1.59,2.069-3.225A13.029,13.029,0,0,0,27.674,7.1a13.444,13.444,0,0,0-1.967-.146,13.005,13.005,0,0,0-9.877,4.579,13.046,13.046,0,0,0,4.024,20.192q1.275-1.41,2.52-2.851A9.282,9.282,0,0,1,19.041,26.74Z"/>
    <path class="f" d="M25.707,6.953a13.309,13.309,0,0,1,1.967.147A13.162,13.162,0,0,1,38.666,18.478a12.926,12.926,0,0,1-2.729,9.6l-.28.349L47.862,40.629a1.851,1.851,0,0,1,.032,2.571,1.843,1.843,0,0,1-2.633.031L32.936,30.906l-.338.212a12.924,12.924,0,0,1-6.891,2A13.055,13.055,0,0,1,15.83,11.532a13.005,13.005,0,0,1,9.877-4.579m.007,22.525a9.384,9.384,0,1,0-6.673-2.738,9.344,9.344,0,0,0,6.673,2.738M25.707,4.953a15.006,15.006,0,0,0-11.4,5.277,15.055,15.055,0,0,0,11.4,24.889,14.879,14.879,0,0,0,6.908-1.7L43.847,44.645a3.841,3.841,0,0,0,5.491-.062,3.864,3.864,0,0,0-.062-5.369L38.294,28.231a14.943,14.943,0,0,0,2.36-9.977A15.194,15.194,0,0,0,27.969,5.121a15.355,15.355,0,0,0-2.262-.168Zm.007,22.525a7.38,7.38,0,1,1,5.245-2.152,7.377,7.377,0,0,1-5.245,2.152Z"/>
  </g>
</svg>
