<svg xmlns="http://www.w3.org/2000/svg" viewBox="0 0 100 60">
  <defs>
    <style>
      .a {
        fill: #518bee;
      }

      .b {
        fill: #7a61d4;
      }

      .c {
        fill: #6972ee;
      }

      .d {
        fill: #2fb4d2;
      }
    </style>
  </defs>
  <title>setup-cluster</title>
  <g>
    <path class="a" d="M47.929,24.594,35.394,31.782,22.945,24.594V10.129L35.394,2.853l12.535,7.276Z"/>
    <g>
      <path class="a" d="M62.426,49.958,49.978,57.147,37.442,49.958V35.494l12.536-7.276,12.448,7.276Z"/>
      <path class="b" d="M49.978,58.347a1.194,1.194,0,0,1-.6-.159L36.846,51a1.2,1.2,0,0,1-.6-1.041V35.494a1.2,1.2,0,0,1,.6-1.038L49.376,27.18a1.2,1.2,0,0,1,1.208,0l12.448,7.276a1.2,1.2,0,0,1,.6,1.036V49.958a1.2,1.2,0,0,1-.6,1.039L50.578,58.186A1.2,1.2,0,0,1,49.978,58.347ZM38.642,49.263l11.334,6.5,11.25-6.5V36.182l-11.25-6.575L38.642,36.185Z"/>
    </g>
    <path class="c" d="M47.929,24.594,35.394,31.782,22.945,24.594,47.929,10.129Z"/>
    <path class="c" d="M62.426,49.958,49.978,57.147,37.442,49.958,62.426,35.494Z"/>
    <path class="b" d="M49.978,58.347a1.194,1.194,0,0,1-.6-.159L36.846,51a1.2,1.2,0,0,1-.6-1.041V35.494a1.2,1.2,0,0,1,.6-1.038L49.376,27.18a1.2,1.2,0,0,1,1.208,0l12.448,7.276a1.2,1.2,0,0,1,.6,1.036V49.958a1.2,1.2,0,0,1-.6,1.039L50.578,58.186A1.2,1.2,0,0,1,49.978,58.347ZM38.642,49.263l11.334,6.5,11.25-6.5V36.182l-11.25-6.575L38.642,36.185Z"/>
    <path class="b" d="M35.393,32.982a1.2,1.2,0,0,1-.6-.161L22.346,25.633a1.2,1.2,0,0,1-.6-1.039V10.13a1.2,1.2,0,0,1,.595-1.037L34.788,1.818a1.2,1.2,0,0,1,1.208,0L48.532,9.091a1.2,1.2,0,0,1,.6,1.039V24.594a1.2,1.2,0,0,1-.6,1.041L35.99,32.823A1.2,1.2,0,0,1,35.393,32.982ZM24.145,23.9,35.4,30.4l11.334-6.5V10.82L35.4,4.242l-11.25,6.576Z"/>
    <g>
      <path class="b" d="M72.731,28.216a1.2,1.2,0,0,1-.6-2.237l3.726-2.164V19.506a1.2,1.2,0,0,1,2.4,0v5a1.2,1.2,0,0,1-.6,1.038l-4.324,2.51A1.2,1.2,0,0,1,72.731,28.216Z"/>
      <path class="b" d="M64.519,32.982a1.2,1.2,0,0,1-.6-.162l-4.325-2.51a1.2,1.2,0,1,1,1.2-2.076L64.519,30.4l3.722-2.161a1.2,1.2,0,1,1,1.2,2.076l-4.324,2.51A1.2,1.2,0,0,1,64.519,32.982Z"/>
      <path class="b" d="M56.306,28.216a1.191,1.191,0,0,1-.6-.162l-4.324-2.51a1.2,1.2,0,0,1-.6-1.038v-5a1.2,1.2,0,0,1,2.4,0v4.309l3.727,2.164a1.2,1.2,0,0,1-.6,2.237Z"/>
      <path class="b" d="M51.983,16.242a1.2,1.2,0,0,1-1.2-1.2v-5A1.2,1.2,0,0,1,51.387,9l4.336-2.488A1.2,1.2,0,0,1,56.917,8.6l-3.734,2.142v4.305A1.2,1.2,0,0,1,51.983,16.242Z"/>
      <path class="b" d="M68.855,6.541a1.192,1.192,0,0,1-.595-.16L64.519,4.237,60.778,6.381A1.2,1.2,0,1,1,59.585,4.3l4.338-2.486a1.2,1.2,0,0,1,1.193,0L69.453,4.3a1.2,1.2,0,0,1-.6,2.242Z"/>
      <path class="b" d="M77.055,16.242a1.2,1.2,0,0,1-1.2-1.2v-4.3L72.12,8.6a1.2,1.2,0,0,1,1.193-2.082L77.651,9a1.2,1.2,0,0,1,.6,1.041v5A1.2,1.2,0,0,1,77.055,16.242Z"/>
    </g>
    <path class="d" d="M69.285,16.117H65.719V12.551a1.2,1.2,0,0,0-2.4,0v3.566H59.753a1.2,1.2,0,0,0,0,2.4h3.565v3.566a1.2,1.2,0,0,0,2.4,0V18.518h3.566a1.2,1.2,0,0,0,0-2.4Z"/>
    <path class="d" d="M71.734,32.757a1.209,1.209,0,0,0-1.173.7v-.108a1.244,1.244,0,0,0-1.173-1.261A1.211,1.211,0,0,0,68.14,33.3V33a1.242,1.242,0,0,0-1.173-1.26,1.21,1.21,0,0,0-1.248,1.209v-4.51a1.245,1.245,0,0,0-1.173-1.261,1.211,1.211,0,0,0-1.248,1.21v6.838a7.354,7.354,0,0,0-2.133-1.787,1.138,1.138,0,0,0-1.657.721,1.18,1.18,0,0,0,.6,1.3c1.871,1.06,2.692,3.319,3.448,5.21a3.887,3.887,0,0,0,3.833,2.526h1.457c3.313,0,4.024-3.6,4.024-4.322V34.011A1.241,1.241,0,0,0,71.734,32.757Z"/>
  </g>
</svg>
