<?xml version="1.0" encoding="utf-8"?>
<!-- Generator: Adobe Illustrator 27.4.0, SVG Export Plug-In . SVG Version: 6.00 Build 0)  -->
<svg version="1.1" id="Layer_2_00000086689073263440621210000013842030636776441509_"
	 xmlns="http://www.w3.org/2000/svg" xmlns:xlink="http://www.w3.org/1999/xlink" x="0px" y="0px" viewBox="0 0 380.2 352.9"
	 style="enable-background:new 0 0 380.2 352.9;" xml:space="preserve">
<style type="text/css">
	.st0{fill:#37C4AC;}
	.st1{fill:#50A091;}
	.st2{fill:#518BEE;}
	.st3{fill:#597EB2;}
	.st4{fill:#7A61D4;}
	.st5{fill:#6B5DB2;}
	.st6{fill:#D45598;}
	.st7{fill:#B2598C;}
	.st8{fill:#F38861;}
	.st9{fill:#CC8E7A;}
	.st10{fill:#F0AE5E;}
	.st11{fill:#E5A967;}
	.st12{fill:none;}
</style>
<g id="Layer_1-2">
	<g>
		<g>
			<path class="st0" d="M193.7,10.6c0,7.2,5.8,13.1,13.1,13.1s13.1-5.8,13.1-13.1S214-2.5,206.8-2.5S193.7,3.4,193.7,10.6z
				 M213.4,10.6c0,3.7-3,6.6-6.6,6.6s-6.6-3-6.6-6.6s3-6.6,6.6-6.6S213.4,6.9,213.4,10.6z"/>
		</g>
		<g>
			<path class="st0" d="M120.4,30.1h19.1c6.6,0,13.3,0,19.9,0l-19.6-19.6L120.4,30.1z"/>
			<path class="st1" d="M159.5,31.2C159.5,31.2,159.5,31.2,159.5,31.2l-39.1,0c-0.4,0-0.8-0.3-1-0.6c-0.2-0.4-0.1-0.8,0.2-1.1
				l19.5-19.5c0.4-0.4,1.1-0.4,1.5,0l19.6,19.6c0.3,0.3,0.4,0.7,0.2,1.1C160.3,30.9,159.9,31.2,159.5,31.2z M122.9,29.1l34.1,0
				l-17.1-17.1L122.9,29.1z"/>
		</g>
		<g>
			<path class="st0" d="M87.3,19c0-3.3-2.7-5.9-5.9-5.9c-3.3,0-5.9,2.7-5.9,5.9s2.7,5.9,5.9,5.9C84.6,24.9,87.3,22.3,87.3,19z"/>
		</g>
		<g>
			<path class="st2" d="M25.2,30.2L25.2,30.2l0-19.6h0C14.4,10.6,5.6,1.9,5.6-9l0,0L-14-9v0.4C-13.7,12.9,3.7,30.2,25.2,30.2
				L25.2,30.2z"/>
			<path class="st3" d="M25.2,31.2L25.2,31.2C3.3,31.2-14.8,13.4-15-8.5V-9c0-0.3,0.1-0.5,0.3-0.7c0.2-0.2,0.5-0.3,0.7-0.3h0l19.6,0
				c0.6,0,1,0.5,1,1C6.6,1.3,15,9.6,25.2,9.6c0.6,0,1,0.5,1,1v19.6C26.2,30.8,25.8,31.2,25.2,31.2z M25.2,30.2L25.2,30.2L25.2,30.2z
				 M-12.9-7.9c0.5,20.2,17,36.5,37.1,37.1V11.6c-10.5-0.5-19-9-19.6-19.5L-12.9-7.9z"/>
		</g>
		<g>
			<path class="st4" d="M25.2,10.6L25.2,10.6l0-19.6H5.6C5.6,1.8,14.4,10.6,25.2,10.6z"/>
			<path class="st5" d="M25.2,11.6C25.2,11.6,25.2,11.6,25.2,11.6C13.8,11.6,4.6,2.4,4.6-9c0-0.6,0.5-1,1-1h19.6c0.6,0,1,0.5,1,1
				v19.6C26.2,11.2,25.8,11.6,25.2,11.6z M6.7-7.9C7.2,1.5,14.7,9,24.1,9.5V-7.9H6.7z"/>
		</g>
		<g>
			<path class="st4" d="M207.9-8.9h-20.3v0h0v39.1h0v0h38.7v-39H207.9z M206.8,23.7c-7.2,0-13.1-5.8-13.1-13.1s5.8-13.1,13.1-13.1
				s13.1,5.8,13.1,13.1S214,23.7,206.8,23.7z"/>
			<path class="st5" d="M187.6,31.2c-0.6,0-1.1-0.5-1.1-1V-9c0-0.7,0.7-1.2,1.3-1h38.5c0.6,0,1,0.5,1,1v39c0,0.6-0.5,1-1,1h-38.5
				C187.8,31.2,187.7,31.2,187.6,31.2z M188.6,29.1h36.7v-37h-36.7V29.1z M206.8,24.7c-7.8,0-14.1-6.3-14.1-14.1S199-3.5,206.8-3.5
				c7.8,0,14.1,6.3,14.1,14.1S214.5,24.7,206.8,24.7z M206.8-1.4c-6.6,0-12,5.4-12,12s5.4,12,12,12s12-5.4,12-12
				S213.4-1.4,206.8-1.4z"/>
		</g>
		<g>
			<circle class="st2" cx="206.8" cy="10.6" r="6.6"/>
			<path class="st3" d="M206.8,18.3c-4.2,0-7.7-3.4-7.7-7.7s3.4-7.7,7.7-7.7s7.7,3.4,7.7,7.7S211,18.3,206.8,18.3z M206.8,5
				c-3.1,0-5.6,2.5-5.6,5.6c0,3.1,2.5,5.6,5.6,5.6s5.6-2.5,5.6-5.6C212.4,7.5,209.9,5,206.8,5z"/>
		</g>
		<g>
			<polygon class="st2" points="139.9,10.6 159.5,30.2 159.5,-8.9 159.5,-8.9 			"/>
			<path class="st3" d="M159.5,31.2c-0.3,0-0.5-0.1-0.7-0.3l-19.6-19.6c-0.2-0.2-0.3-0.5-0.3-0.7c0-0.3,0.1-0.5,0.3-0.7l19.5-19.5
				c0.2-0.2,0.5-0.3,0.7-0.3c0.6,0,1.1,0.5,1.1,1v39.1c0,0.4-0.3,0.8-0.6,1C159.8,31.2,159.6,31.2,159.5,31.2z M141.4,10.6
				l17.1,17.1V-6.5L141.4,10.6z"/>
		</g>
		<g>
			<polygon class="st4" points="120.4,-8.9 120.4,-8.9 120.4,30.1 120.4,30.1 139.9,10.6 159.5,-8.9 			"/>
			<path class="st5" d="M120.4,31.1c-0.6,0-1.1-0.5-1.1-1v-39c0-0.6,0.5-1,1-1h39.1c0.4,0,0.8,0.3,1,0.6c0.2,0.4,0.1,0.8-0.2,1.1
				l-39,39C121,31,120.7,31.1,120.4,31.1z M121.4-7.9v35.6L157-7.9H121.4z"/>
		</g>
		<g>
			<path class="st4" d="M53.2-8.9v39.1h39.1V-8.9C92.3-8.9,53.2-8.9,53.2-8.9z M81.3,24.9c-3.3,0-5.9-2.7-5.9-5.9S78,13,81.3,13
				c3.3,0,5.9,2.7,5.9,5.9S84.6,24.9,81.3,24.9z"/>
			<path class="st5" d="M92.3,31.2H53.2c-0.6,0-1-0.5-1-1V-8.9c0-0.6,0.5-1,1-1h39.1c0.6,0,1,0.5,1,1v39.1
				C93.4,30.7,92.9,31.2,92.3,31.2z M54.3,29.1h37.1v-37H54.3V29.1z M81.3,26c-3.8,0-7-3.1-7-7s3.1-7,7-7c3.8,0,7,3.1,7,7
				S85.2,26,81.3,26z M81.3,14.1c-2.7,0-4.9,2.2-4.9,4.9s2.2,4.9,4.9,4.9s4.9-2.2,4.9-4.9S84,14.1,81.3,14.1z"/>
		</g>
	</g>
	<g>
		<g>
			<path class="st6" d="M139.9,319L139.9,319c10.9,0,19.6-8.8,19.6-19.6c0-10.8-8.8-19.6-19.6-19.6s-19,8.2-19.5,18.6v2
				C120.9,310.8,129.5,319,139.9,319L139.9,319z M139.9,289.1l10.3,10.3l-10.3,10.3l-10.3-10.3L139.9,289.1z"/>
			<path class="st7" d="M140,320C140,320,139.9,320,140,320c-11,0-20-8.6-20.6-19.5l0-2.1c0.6-11.2,9.4-19.6,20.6-19.6
				c11.4,0,20.6,9.2,20.6,20.6C160.5,310.8,151.3,320,140,320z M139.9,318L139.9,318c10.3,0,18.6-8.4,18.6-18.6
				c0-10.2-8.3-18.6-18.6-18.6c-10.1,0-18,7.6-18.5,17.6l0,2C121.9,310.3,130,318,139.9,318z M139.9,310.8c-0.3,0-0.5-0.1-0.7-0.3
				l-10.3-10.3c-0.4-0.4-0.4-1,0-1.4l10.3-10.3c0.4-0.4,1-0.4,1.4,0l10.3,10.3c0.4,0.4,0.4,1,0,1.4l-10.3,10.3
				C140.5,310.7,140.2,310.8,139.9,310.8z M131,299.4l8.9,8.9l8.9-8.9l-8.9-8.9L131,299.4z"/>
		</g>
		<g>
			<path class="st6" d="M293.9,279.9l-19.6,19.6l-19.5-19.5V319h39.1L293.9,279.9h-29.4H293.9L293.9,279.9z M288.4,309.2
				c0,2.6-2.1,4.6-4.6,4.6s-4.6-2.1-4.6-4.6s2.1-4.6,4.6-4.6S288.4,306.7,288.4,309.2z M269.4,309.2c0,2.6-2.1,4.6-4.6,4.6
				s-4.6-2.1-4.6-4.6s2.1-4.6,4.6-4.6S269.4,306.7,269.4,309.2z"/>
			<path class="st7" d="M293.9,320h-39.1c-0.6,0-1-0.5-1-1v-39.1c0-0.4,0.2-0.8,0.6-0.9c0.4-0.2,0.8-0.1,1.1,0.2l18.8,18.8
				l17.1-17.1h-26.9c-0.6,0-1-0.5-1-1s0.5-1,1-1h29.4c0,0,0,0,0,0c0,0,0,0,0,0c0,0,0,0,0,0c0,0,0,0,0,0c0,0,0,0,0,0l0,0
				c0.2,0,0.5,0.1,0.6,0.2c0.1,0,0.1,0.1,0.1,0.1c0.1,0.2,0.2,0.3,0.2,0.5c0,0,0,0.1,0,0.1V319C294.9,319.6,294.4,320,293.9,320z
				 M255.7,318h37.1v-35.7L275,300.2c-0.4,0.4-1,0.4-1.4,0l-17.8-17.8V318z M283.8,314.9c-3.1,0-5.6-2.5-5.6-5.6
				c0-3.1,2.5-5.6,5.6-5.6c3.1,0,5.6,2.5,5.6,5.6C289.4,312.3,286.9,314.9,283.8,314.9z M283.8,305.6c-2,0-3.6,1.6-3.6,3.6
				c0,2,1.6,3.6,3.6,3.6s3.6-1.6,3.6-3.6C287.4,307.2,285.8,305.6,283.8,305.6z M264.8,314.9c-3.1,0-5.6-2.5-5.6-5.6
				c0-3.1,2.5-5.6,5.6-5.6c3.1,0,5.6,2.5,5.6,5.6C270.4,312.3,267.9,314.9,264.8,314.9z M264.8,305.6c-2,0-3.6,1.6-3.6,3.6
				c0,2,1.6,3.6,3.6,3.6s3.6-1.6,3.6-3.6C268.4,307.2,266.8,305.6,264.8,305.6z"/>
		</g>
		<g>
			<path class="st8" d="M279.2,309.2c0,2.6,2.1,4.6,4.6,4.6s4.6-2.1,4.6-4.6s-2.1-4.6-4.6-4.6S279.2,306.7,279.2,309.2z"/>
			<path class="st9" d="M283.8,314.9c-3.1,0-5.6-2.5-5.6-5.6c0-3.1,2.5-5.7,5.6-5.7c3.1,0,5.6,2.5,5.6,5.7
				C289.5,312.3,286.9,314.9,283.8,314.9z M283.8,305.6c-2,0-3.6,1.6-3.6,3.6c0,2,1.6,3.6,3.6,3.6c2,0,3.6-1.6,3.6-3.6
				C287.4,307.3,285.8,305.6,283.8,305.6z"/>
		</g>
		<g>
			<path class="st8" d="M260.1,309.2c0,2.6,2.1,4.6,4.6,4.6s4.6-2.1,4.6-4.6s-2.1-4.6-4.6-4.6S260.1,306.7,260.1,309.2z"/>
			<path class="st9" d="M264.7,314.9c-3.1,0-5.6-2.5-5.6-5.6c0-3.1,2.5-5.7,5.6-5.7c3.1,0,5.6,2.5,5.6,5.7
				C270.4,312.3,267.9,314.9,264.7,314.9z M264.7,305.6c-2,0-3.6,1.6-3.6,3.6c0,2,1.6,3.6,3.6,3.6c2,0,3.6-1.6,3.6-3.6
				C268.3,307.3,266.7,305.6,264.7,305.6z"/>
		</g>
		<g>
			<polygon class="st10" points="254.7,279.9 254.7,279.9 254.7,279.9 254.7,279.9 254.7,279.9 274.3,299.4 293.9,279.9 
				264.5,279.9 254.7,279.9 			"/>
			<path class="st11" d="M274.3,300.5c-0.3,0-0.5-0.1-0.7-0.3L254,280.6c0,0,0,0,0,0c0,0,0,0,0,0c-0.3-0.3-0.4-0.7-0.2-1.1
				c0.1-0.2,0.2-0.3,0.3-0.4c0.2-0.2,0.4-0.2,0.7-0.2h39.1c0.4,0,0.8,0.3,1,0.6c0.2,0.4,0.1,0.8-0.2,1.1L275,300.2
				C274.8,300.4,274.6,300.5,274.3,300.5z M257.2,280.9l17.1,17.1l17.1-17.1H257.2z"/>
		</g>
		<g>
			<path class="st6" d="M207.1,279.9h-19.5l0,0v19.6h39.2v-19.6H207.1C207.2,279.9,207.1,279.9,207.1,279.9
				C207.1,279.9,207.1,279.9,207.1,279.9L207.1,279.9z"/>
			<path class="st7" d="M226.7,300.5h-39.2c-0.6,0-1-0.5-1-1v-19.6c0-0.4,0.2-0.7,0.5-0.9c0.1-0.1,0.3-0.1,0.5-0.1h39.1
				c0.6,0,1,0.5,1,1v19.6C227.7,300,227.3,300.5,226.7,300.5z M188.6,298.4h37.1v-17.6h-37.1V298.4z"/>
		</g>
		<g>
			<path class="st10" d="M187.6,319L187.6,319l39.1,0l-19.6-19.6L187.6,319C187.6,319,187.6,319,187.6,319L187.6,319z"/>
			<path class="st11" d="M226.7,320.1L226.7,320.1l-39.1,0c-0.6,0-1-0.5-1-1v0c0-0.3,0.1-0.5,0.3-0.7l19.5-19.5
				c0.2-0.2,0.5-0.3,0.7-0.3l0,0c0.3,0,0.5,0.1,0.7,0.3l19.6,19.6c0.3,0.3,0.4,0.7,0.2,1.1C227.5,319.8,227.1,320.1,226.7,320.1z
				 M190,318l34.2,0l-17.1-17.1L190,318z"/>
		</g>
		<g>
			<circle class="st6" cx="72.8" cy="299.5" r="6.6"/>
			<path class="st7" d="M72.8,307.1c-4.2,0-7.7-3.4-7.7-7.7s3.4-7.7,7.7-7.7c4.2,0,7.7,3.4,7.7,7.7S77,307.1,72.8,307.1z
				 M72.8,293.8c-3.1,0-5.6,2.5-5.6,5.6s2.5,5.6,5.6,5.6s5.6-2.5,5.6-5.6S75.9,293.8,72.8,293.8z"/>
		</g>
		<g>
			<path class="st6" d="M72.8,279.9h-1.5c0.2,0,0.4,0,0.6,0C72.2,279.9,72.5,279.9,72.8,279.9z"/>
		</g>
		<g>
			<path class="st6" d="M73.6,279.9h-0.8c0.2,0,0.4,0,0.6,0C73.4,279.9,73.5,279.9,73.6,279.9z"/>
		</g>
		<g>
			<path class="st6" d="M72.4,279.9c0.3,0,0.6,0,0.9,0c-0.2,0-0.4,0-0.6,0c-0.3,0-0.6,0-0.9,0C72,279.9,72.2,279.9,72.4,279.9z"/>
		</g>
		<g>
			<path class="st6" d="M53.2,299.5V319h18.4C61.4,318.4,53.2,309.9,53.2,299.5z"/>
			<path class="st7" d="M71.6,320H53.2c-0.6,0-1-0.5-1-1v-19.5c0-0.6,0.5-1,1-1s1,0.5,1,1c0,9.8,7.7,17.9,17.4,18.5
				c0.5,0,1,0.5,0.9,1C72.6,319.6,72.2,320,71.6,320z M54.2,318h9.6c-4.2-2-7.6-5.4-9.6-9.6V318z"/>
		</g>
		<g>
			<path class="st6" d="M73.9,319h18.4v-19.5C92.3,309.9,84.2,318.4,73.9,319z"/>
			<path class="st7" d="M92.3,320H73.9c-0.5,0-1-0.4-1-1c0-0.5,0.4-1,0.9-1c9.8-0.6,17.4-8.7,17.4-18.5c0-0.6,0.5-1,1-1s1,0.5,1,1
				V319C93.3,319.5,92.9,320,92.3,320z M81.7,318h9.6v-9.6C89.3,312.5,85.9,315.9,81.7,318z"/>
		</g>
		<g>
			<path class="st6" d="M73.9,279.9c10.3,0.6,18.4,9.1,18.4,19.5v-19.6H92v0L73.9,279.9L73.9,279.9z"/>
			<path class="st7" d="M92.3,300.5c-0.6,0-1-0.5-1-1c0-9.8-7.7-17.9-17.4-18.5c-0.5,0-1-0.5-0.9-1c0-0.5,0.5-1,1-1h17.8
				c0.1,0,0.2,0,0.3,0h0.4c0.6,0,1,0.5,1,1v19.6C93.3,300,92.9,300.5,92.3,300.5z M81.7,280.9c4.2,2,7.6,5.4,9.6,9.6v-9.6H81.7z"/>
		</g>
		<g>
			<path class="st6" d="M71.6,279.9H53.2v19.5C53.2,289,61.4,280.5,71.6,279.9z"/>
			<path class="st7" d="M53.2,300.5c-0.6,0-1-0.5-1-1v-19.5c0-0.6,0.5-1,1-1h18.4c0.5,0,1,0.4,1,1c0,0.5-0.4,1-0.9,1
				c-9.8,0.6-17.4,8.7-17.4,18.5C54.2,300,53.8,300.5,53.2,300.5z M54.2,280.9v9.6c2-4.2,5.4-7.6,9.6-9.6H54.2z"/>
		</g>
		<g>
			<path class="st6" d="M71.9,279.9c-0.2,0-0.4,0-0.6,0h-18v0h18.4C71.7,280,71.8,279.9,71.9,279.9L71.9,279.9z"/>
		</g>
		<g>
			<path class="st6" d="M73.3,279.9c0.2,0,0.4,0,0.6,0h18v0H73.6C73.5,279.9,73.4,279.9,73.3,279.9L73.3,279.9z"/>
		</g>
		<g>
			<path class="st6" d="M71.6,279.9h0.8c-0.2,0-0.4,0-0.6,0C71.8,279.9,71.7,279.9,71.6,279.9z"/>
		</g>
		<g>
			<path class="st6" d="M73.9,279.9c-0.2,0-0.4,0-0.6,0c-0.3,0-0.6,0-0.9,0C72.4,279.9,73.9,279.9,73.9,279.9z"/>
		</g>
		<g>
			<path class="st8" d="M59.7,299.5c0,7.2,5.8,13.1,13.1,13.1c7.2,0,13.1-5.8,13.1-13.1s-5.8-13.1-13.1-13.1
				C65.6,286.4,59.7,292.2,59.7,299.5z M79.4,299.5c0,3.7-3,6.6-6.6,6.6c-3.7,0-6.6-3-6.6-6.6s3-6.6,6.6-6.6
				C76.4,292.8,79.4,295.8,79.4,299.5z"/>
			<path class="st9" d="M72.8,313.6c-7.8,0-14.1-6.3-14.1-14.1c0-7.8,6.3-14.1,14.1-14.1c7.8,0,14.1,6.3,14.1,14.1
				C86.9,307.2,80.6,313.6,72.8,313.6z M72.8,287.4c-6.6,0-12,5.4-12,12c0,6.6,5.4,12,12,12s12-5.4,12-12
				C84.8,292.8,79.4,287.4,72.8,287.4z M72.8,307.2c-4.2,0-7.7-3.4-7.7-7.7c0-4.2,3.4-7.7,7.7-7.7c4.2,0,7.7,3.4,7.7,7.7
				C80.5,303.7,77,307.2,72.8,307.2z M72.8,293.9c-3.1,0-5.6,2.5-5.6,5.6c0,3.1,2.5,5.6,5.6,5.6s5.6-2.5,5.6-5.6
				C78.4,296.4,75.9,293.9,72.8,293.9z"/>
		</g>
		<g>
			<path class="st10" d="M73.9,279.9h-2.3c-10.3,0.6-18.4,9.1-18.4,19.5s8.1,18.9,18.4,19.5h2.3c10.3-0.6,18.4-9.1,18.4-19.5
				S84.2,280.5,73.9,279.9z M85.8,299.5c0,7.2-5.8,13.1-13.1,13.1c-7.2,0-13.1-5.8-13.1-13.1s5.8-13.1,13.1-13.1
				C80,286.4,85.8,292.2,85.8,299.5z"/>
			<path class="st11" d="M71.6,320c-10.9-0.6-19.4-9.7-19.4-20.6c0-10.9,8.5-19.9,19.4-20.6l2.4,0c0,0,0,0,0.1,0
				c10.9,0.6,19.4,9.7,19.4,20.6c0,10.9-8.5,19.9-19.4,20.6L71.6,320z M71.6,281c-9.7,0.6-17.4,8.7-17.4,18.5
				c0,9.8,7.7,17.9,17.4,18.5l2.3,0c9.7-0.6,17.4-8.7,17.4-18.5c0-9.8-7.6-17.9-17.4-18.5H71.6z M72.8,313.6
				c-7.8,0-14.1-6.3-14.1-14.1c0-7.8,6.3-14.1,14.1-14.1c7.8,0,14.1,6.3,14.1,14.1C86.9,307.2,80.6,313.6,72.8,313.6z M72.8,287.4
				c-6.6,0-12,5.4-12,12c0,6.6,5.4,12,12,12s12-5.4,12-12C84.8,292.8,79.4,287.4,72.8,287.4z"/>
		</g>
		<g>
			<path class="st6" d="M342.5,279.9h-20.3v0h0V319l0,0h0v0h38.7v-39H342.5z M341.3,312.5c-7.2,0-13.1-5.8-13.1-13.1
				s5.8-13.1,13.1-13.1c7.2,0,13.1,5.8,13.1,13.1S348.5,312.5,341.3,312.5z"/>
			<path class="st7" d="M322.1,320c-0.6,0-1-0.5-1-1v-39.1c0-0.7,0.7-1.1,1.3-1h38.5c0.6,0,1,0.5,1,1v39c0,0.6-0.5,1-1,1h-38.5
				C322.3,320,322.2,320,322.1,320z M323.1,318h36.8v-37h-36.8V318z M341.3,313.5c-7.8,0-14.1-6.3-14.1-14.1
				c0-7.8,6.3-14.1,14.1-14.1c7.8,0,14.1,6.3,14.1,14.1C355.4,307.2,349,313.5,341.3,313.5z M341.3,287.4c-6.7,0-12.1,5.4-12.1,12.1
				c0,6.7,5.4,12.1,12.1,12.1c6.7,0,12.1-5.4,12.1-12.1C353.3,292.8,347.9,287.4,341.3,287.4z"/>
		</g>
		<g>
			<circle class="st8" cx="341.3" cy="299.4" r="6.6"/>
			<path class="st9" d="M341.3,307.1c-4.2,0-7.7-3.4-7.7-7.7s3.4-7.7,7.7-7.7s7.7,3.4,7.7,7.7S345.5,307.1,341.3,307.1z
				 M341.3,293.8c-3.1,0-5.6,2.5-5.6,5.6s2.5,5.6,5.6,5.6s5.6-2.5,5.6-5.6S344.4,293.8,341.3,293.8z"/>
		</g>
		<g>
			<path class="st10" d="M328.2,299.4c0,7.2,5.8,13.1,13.1,13.1s13.1-5.8,13.1-13.1s-5.8-13.1-13.1-13.1S328.2,292.2,328.2,299.4z
				 M347.9,299.4c0,3.7-3,6.6-6.6,6.6c-3.7,0-6.6-3-6.6-6.6s3-6.6,6.6-6.6C345,292.8,347.9,295.8,347.9,299.4z"/>
			<path class="st11" d="M341.3,313.6c-7.8,0-14.1-6.3-14.1-14.1c0-7.8,6.3-14.1,14.1-14.1c7.8,0,14.1,6.3,14.1,14.1
				C355.4,307.2,349.1,313.6,341.3,313.6z M341.3,287.4c-6.6,0-12,5.4-12,12c0,6.6,5.4,12,12,12c6.6,0,12-5.4,12-12
				C353.3,292.8,347.9,287.4,341.3,287.4z M341.3,307.1c-4.2,0-7.7-3.4-7.7-7.7s3.4-7.7,7.7-7.7c4.2,0,7.7,3.4,7.7,7.7
				S345.5,307.1,341.3,307.1z M341.3,293.8c-3.1,0-5.6,2.5-5.6,5.6s2.5,5.6,5.6,5.6c3.1,0,5.6-2.5,5.6-5.6S344.4,293.8,341.3,293.8z
				"/>
		</g>
	</g>
	<g>
		<g>
			<path class="st6" d="M134.2,102.4c0-7.7-6.2-13.9-13.9-13.9v13.9C125,102.4,129.6,102.4,134.2,102.4z"/>
			<path class="st7" d="M120.4,103.4c-0.3,0-0.5-0.1-0.7-0.3c-0.2-0.2-0.3-0.5-0.3-0.7V88.5c0-0.6,0.5-1,1-1
				c8.2,0,14.9,6.7,14.9,14.9c0,0.6-0.5,1-1,1L120.4,103.4C120.4,103.4,120.4,103.4,120.4,103.4z M134.2,102.4L134.2,102.4
				L134.2,102.4z M121.4,89.6v11.8l11.8,0C132.7,95.1,127.7,90.1,121.4,89.6z"/>
		</g>
		<g>
			<path class="st8" d="M120.4,79.1L120.4,79.1c12.9,0,23.3,10.4,23.3,23.3l15.9,0v0c0-21.6-17.5-39.1-39.1-39.1h0
				C120.4,68.5,120.4,73.8,120.4,79.1z"/>
			<path class="st9" d="M159.5,103.4C159.5,103.4,159.5,103.4,159.5,103.4l-15.9,0c-0.6,0-1-0.5-1-1c0-12.3-10-22.2-22.2-22.2
				c-0.3,0-0.5-0.1-0.7-0.3c-0.2-0.2-0.3-0.5-0.3-0.7l0-15.9c0-0.6,0.5-1,1-1c22.2,0,40.2,18,40.2,40.2c0,0.3-0.1,0.5-0.3,0.7
				S159.8,103.4,159.5,103.4z M144.6,101.4l13.8,0c-0.6-20.2-16.9-36.5-37.1-37.1l0,13.8C134,78.6,144.1,88.8,144.6,101.4z"/>
		</g>
		<g>
			<polygon class="st6" points="331.7,63.3 321.9,63.3 321.9,69.6 361,69.6 361,63.3 351.2,63.3 			"/>
			<path class="st7" d="M361,70.6h-39.1c-0.6,0-1-0.5-1-1v-6.3c0-0.6,0.5-1,1-1H361c0.6,0,1,0.5,1,1v6.3
				C362,70.1,361.6,70.6,361,70.6z M322.9,68.6H360v-4.3h-37.1V68.6z"/>
		</g>
		<g>
			<polygon class="st6" points="321.9,84.9 321.9,91.8 321.9,96 321.9,102.3 331.7,102.3 351.2,102.3 361,102.3 361,96 361,91.8 
				361,84.9 			"/>
			<path class="st7" d="M361,103.3h-39.1c-0.6,0-1-0.5-1-1V84.9c0-0.6,0.5-1,1-1H361c0.6,0,1,0.5,1,1v17.4
				C362,102.9,361.6,103.3,361,103.3z M322.9,101.3H360V86h-37.1V101.3z"/>
		</g>
		<g>
			<rect x="321.9" y="73.9" class="st6" width="39.1" height="6.8"/>
			<path class="st7" d="M361,81.7h-39.1c-0.6,0-1-0.5-1-1v-6.8c0-0.6,0.5-1,1-1H361c0.6,0,1,0.5,1,1v6.8
				C362,81.2,361.6,81.7,361,81.7z M322.9,79.7H360v-4.8h-37.1V79.7z"/>
		</g>
		<g>
			<rect x="321.9" y="69.6" class="st8" width="39.1" height="4.3"/>
			<path class="st9" d="M361,74.9h-39.1c-0.6,0-1-0.5-1-1v-4.3c0-0.6,0.5-1,1-1H361c0.6,0,1,0.5,1,1v4.3
				C362.1,74.4,361.6,74.9,361,74.9z M322.9,72.8H360v-2.2h-37.1V72.8z"/>
		</g>
		<g>
			<rect x="321.9" y="80.7" class="st10" width="39.1" height="4.3"/>
			<path class="st11" d="M361,86h-39.1c-0.6,0-1-0.5-1-1v-4.3c0-0.6,0.5-1,1-1H361c0.6,0,1,0.5,1,1v4.3C362.1,85.5,361.6,86,361,86z
				 M322.9,83.9H360v-2.2h-37.1V83.9z"/>
		</g>
		<g>
			<path class="st6" d="M192.8,82.8c6.2,11.2,17.6,19,30.7,19.5h1.5v-39h-1.6C210.4,63.9,199,71.6,192.8,82.8L192.8,82.8z"/>
			<path class="st7" d="M225,103.3h-1.5c-13.2-0.6-25-8.1-31.6-20c-0.2-0.3-0.2-0.7,0-1c6.6-12,18.4-19.5,31.5-20l1.6,0
				c0.6,0,1,0.5,1,1v39C226.1,102.9,225.6,103.3,225,103.3z M194,82.8c6.3,11.1,17.3,18,29.6,18.5l0.5,0v-37h-0.6
				C211.3,64.8,200.3,71.7,194,82.8z"/>
		</g>
		<g>
			<path class="st6" d="M192.8,82.8c-3.3-5.7-5.2-12.4-5.2-19.5l0,0v39l0,0C187.6,95.2,189.5,88.6,192.8,82.8z"/>
			<path class="st7" d="M187.6,103.4c-0.6,0-1-0.5-1-1v-39c0-0.6,0.5-1,1-1h0c0.6,0,1,0.5,1,1c0,6.7,1.8,13.2,5.1,19
				c0.2,0.3,0.2,0.7,0,1c-3.3,5.8-5.1,12.3-5.1,19C188.6,102.9,188.1,103.4,187.6,103.4z M188.6,76v13.7c0.8-2.4,1.8-4.7,3-6.8
				C190.4,80.6,189.4,78.3,188.6,76z"/>
		</g>
		<g>
			<path class="st8" d="M216.1,63.3h-28.5c0,7.1,1.9,13.8,5.2,19.5c6.5-11.2,18.4-19,32.2-19.5H216.1L216.1,63.3z"/>
			<path class="st9" d="M192.8,83.8c-0.4,0-0.7-0.2-0.9-0.5c-3.5-6.1-5.4-13-5.4-20c0-0.6,0.5-1,1-1H225c0.6,0,1,0.4,1,1
				c0,0.6-0.4,1-1,1.1c-13.1,0.5-24.8,7.6-31.4,19C193.5,83.7,193.2,83.8,192.8,83.8z M188.6,64.3c0.2,5.7,1.6,11.3,4.2,16.4
				c5-7.8,12.4-13.5,20.9-16.4H188.6z"/>
		</g>
		<g>
			<path class="st8" d="M225,102.3c-13.8-0.6-25.7-8.3-32.2-19.5c-3.3,5.7-5.2,12.4-5.2,19.5H225L225,102.3z"/>
			<path class="st9" d="M225,103.4h-37.5c-0.3,0-0.5-0.1-0.7-0.3s-0.3-0.5-0.3-0.7c0-7,1.9-14,5.4-20c0.4-0.6,1.4-0.6,1.8,0
				c6.6,11.4,18.3,18.5,31.4,19c0.6,0,1,0.5,1,1.1C226.1,102.9,225.6,103.4,225,103.4z M188.6,101.3h25.2
				c-8.6-2.9-15.9-8.6-20.9-16.4C190.2,89.9,188.8,95.6,188.6,101.3z"/>
		</g>
		<g>
			<polygon class="st6" points="254.7,76.7 254.7,102.4 280.4,102.4 			"/>
			<path class="st7" d="M280.4,103.4h-25.6c-0.6,0-1-0.5-1-1V76.7c0-0.4,0.2-0.8,0.6-0.9c0.4-0.2,0.8-0.1,1.1,0.2l25.6,25.6
				c0.3,0.3,0.4,0.7,0.2,1.1C281.1,103.1,280.8,103.4,280.4,103.4z M255.7,101.3h22.2l-22.2-22.2V101.3z"/>
		</g>
		<g>
			<polygon class="st6" points="254.8,63.3 254.8,63.3 293.9,63.3 293.9,63.3 293.9,63.3 			"/>
		</g>
		<g>
			<polygon class="st8" points="293.8,102.4 293.9,102.4 293.9,63.3 254.8,63.3 			"/>
			<path class="st9" d="M293.9,103.4c-0.3,0-0.6-0.1-0.8-0.3l-39-39c-0.3-0.3-0.4-0.7-0.2-1.1c0.2-0.4,0.5-0.6,1-0.6h39.1
				c0.6,0,1,0.5,1,1v39C294.9,102.9,294.4,103.4,293.9,103.4z M257.3,64.3l35.6,35.6V64.3H257.3z"/>
		</g>
		<g>
			<polygon class="st10" points="293.8,102.4 254.8,63.3 254.7,63.3 254.7,76.7 280.4,102.4 			"/>
			<path class="st11" d="M293.8,103.4h-13.5c-0.3,0-0.5-0.1-0.7-0.3L254,77.5c-0.2-0.2-0.3-0.5-0.3-0.7V63.3c0-0.6,0.5-1,1-1
				c0.3,0,0.6,0.1,0.8,0.3l39,39c0.3,0.3,0.4,0.7,0.2,1.1C294.6,103.1,294.2,103.4,293.8,103.4z M280.8,101.3h10.5l-35.6-35.6v10.5
				L280.8,101.3z"/>
		</g>
		<g>
			
				<rect x="56.1" y="85.7" transform="matrix(0.7071 -0.7071 0.7071 0.7071 -47.0055 71.6608)" class="st6" width="13.8" height="13.8"/>
		</g>
		<g>
			<polygon class="st6" points="82.5,63.3 72.8,73 82.6,82.8 92.3,73 82.6,63.3 			"/>
		</g>
		<g>
			<polygon class="st6" points="72.8,73 63,63.3 63,63.3 53.2,73 63,82.8 			"/>
		</g>
		<g>
			
				<rect x="75.6" y="85.7" transform="matrix(0.7071 -0.7071 0.7071 0.7071 -41.2848 85.4876)" class="st10" width="13.8" height="13.8"/>
		</g>
		<g>
			<polygon class="st8" points="63,102.4 82.6,102.4 72.8,92.6 			"/>
			<path class="st9" d="M82.6,103.4H63c-0.4,0-0.8-0.3-1-0.6c-0.2-0.4-0.1-0.8,0.2-1.1l9.8-9.8c0.4-0.4,1.1-0.4,1.5,0l9.8,9.8
				c0.3,0.3,0.4,0.7,0.2,1.1C83.4,103.1,83,103.4,82.6,103.4z M65.5,101.3h14.6L72.8,94L65.5,101.3z"/>
		</g>
		<g>
			
				<rect x="65.9" y="75.9" transform="matrix(0.7071 -0.7071 0.7071 0.7071 -37.2276 75.7139)" class="st8" width="13.8" height="13.8"/>
			<path class="st9" d="M72.8,93.6c-0.3,0-0.5-0.1-0.7-0.3l-9.8-9.8c-0.2-0.2-0.3-0.5-0.3-0.7c0-0.3,0.1-0.5,0.3-0.7l9.8-9.8
				c0.4-0.4,1.1-0.4,1.5,0l9.8,9.8c0.4,0.4,0.4,1.1,0,1.5l-9.8,9.8C73.3,93.5,73.1,93.6,72.8,93.6z M64.5,82.8l8.3,8.3l8.3-8.3
				l-8.3-8.3L64.5,82.8z"/>
		</g>
		<g>
			<polygon class="st8" points="92.3,73 92.3,63.3 82.6,63.3 			"/>
			<path class="st9" d="M92.3,74c-0.3,0-0.5-0.1-0.7-0.3L81.9,64c-0.3-0.3-0.4-0.7-0.2-1.1c0.2-0.4,0.5-0.6,1-0.6h9.7
				c0.6,0,1,0.5,1,1V73c0,0.4-0.3,0.8-0.6,1C92.6,74,92.5,74,92.3,74z M85.1,64.3l6.2,6.2v-6.2H85.1z"/>
		</g>
		<g>
			<polygon class="st8" points="72.8,73 82.5,63.3 63,63.3 			"/>
			<path class="st9" d="M72.8,74c-0.3,0-0.5-0.1-0.7-0.3L62.3,64c-0.3-0.3-0.4-0.7-0.2-1.1c0.2-0.4,0.5-0.6,1-0.6h19.5
				c0.4,0,0.8,0.3,1,0.6c0.2,0.4,0.1,0.8-0.2,1.1l-9.7,9.7C73.3,73.9,73,74,72.8,74z M65.5,64.3l7.2,7.2l7.2-7.2H65.5z"/>
		</g>
		<g>
			<polygon class="st8" points="53.2,102.4 63,102.4 53.2,92.6 			"/>
			<path class="st9" d="M63,103.4h-9.8c-0.6,0-1-0.5-1-1v-9.8c0-0.4,0.3-0.8,0.6-1c0.4-0.2,0.8-0.1,1.1,0.2l9.8,9.8
				c0.3,0.3,0.4,0.7,0.2,1.1C63.8,103.1,63.4,103.4,63,103.4z M54.3,101.3h6.3l-6.3-6.3V101.3z"/>
		</g>
		<g>
			<polygon class="st8" points="53.2,63.3 53.2,73 63,63.3 			"/>
			<path class="st9" d="M53.2,74c-0.1,0-0.3,0-0.4-0.1c-0.4-0.2-0.6-0.5-0.6-1v-9.7c0-0.6,0.5-1,1-1H63c0.4,0,0.8,0.3,1,0.6
				c0.2,0.4,0.1,0.8-0.2,1.1L54,73.7C53.8,73.9,53.5,74,53.2,74z M54.3,64.3v6.2l6.2-6.2H54.3z"/>
		</g>
		<g>
			<polygon class="st8" points="92.3,102.4 92.3,92.6 82.6,102.4 			"/>
			<path class="st9" d="M92.3,103.4h-9.8c-0.4,0-0.8-0.3-1-0.6c-0.2-0.4-0.1-0.8,0.2-1.1l9.8-9.8c0.3-0.3,0.7-0.4,1.1-0.2
				c0.4,0.2,0.6,0.5,0.6,1v9.8C93.4,102.9,92.9,103.4,92.3,103.4z M85.1,101.3h6.2v-6.3L85.1,101.3z"/>
		</g>
		<g>
			<polygon class="st8" points="53.2,73 53.2,92.6 63,82.8 			"/>
			<path class="st9" d="M53.2,93.6c-0.1,0-0.3,0-0.4-0.1c-0.4-0.2-0.6-0.5-0.6-1V73c0-0.4,0.3-0.8,0.6-1c0.4-0.2,0.8-0.1,1.1,0.2
				l9.8,9.8c0.2,0.2,0.3,0.5,0.3,0.7c0,0.3-0.1,0.5-0.3,0.7L54,93.3C53.8,93.5,53.5,93.6,53.2,93.6z M54.3,75.5v14.6l7.3-7.3
				L54.3,75.5z"/>
		</g>
		<g>
			<polygon class="st8" points="92.3,92.6 92.3,73 82.6,82.8 			"/>
			<path class="st9" d="M92.3,93.6c-0.3,0-0.5-0.1-0.7-0.3l-9.8-9.8c-0.4-0.4-0.4-1.1,0-1.5l9.8-9.8c0.3-0.3,0.7-0.4,1.1-0.2
				c0.4,0.2,0.6,0.5,0.6,1v19.6c0,0.4-0.3,0.8-0.6,1C92.6,93.6,92.5,93.6,92.3,93.6z M84,82.8l7.3,7.3V75.5L84,82.8z"/>
		</g>
	</g>
	<g>
		<g>
			<path class="st4" d="M-14,237L-14,237c16.2,0,29.4-13.1,29.4-29.3H-14V237z"/>
			<path class="st5" d="M-13.9,238c-0.6,0-1.1-0.5-1.1-1v-29.3c0-0.6,0.5-1,1-1h29.4c0.3,0,0.5,0.1,0.7,0.3c0.2,0.2,0.3,0.5,0.3,0.7
				C16.4,224.4,2.8,238-13.9,238z M-12.9,208.7V236c14.8-0.5,26.7-12.5,27.3-27.3H-12.9z"/>
		</g>
		<g>
			<path class="st2" d="M-13.9,237L-13.9,237l0,9.8h39.2v-39.2h-9.8C15.4,223.9,2.3,237-13.9,237L-13.9,237z"/>
			<path class="st3" d="M25.2,247.8H-14c-0.6,0-1-0.5-1-1V237c0-0.4,0.2-0.8,0.6-0.9c0.1-0.1,0.3-0.1,0.5-0.1
				c15.6,0,28.3-12.7,28.3-28.3c0-0.6,0.5-1,1-1h9.8c0.6,0,1,0.5,1,1v39.2C26.2,247.4,25.8,247.8,25.2,247.8z M-12.9,245.8h37.1
				v-37.1h-7.7C15.9,224.6,3,237.5-12.9,238V245.8z"/>
		</g>
		<g>
			<polygon class="st4" points="254.7,207.7 254.7,227.2 254.7,246.8 293.8,246.8 293.8,246.8 293.8,246.8 293.8,246.8 293.8,246.8 
				293.9,246.8 293.9,227.2 293.9,227.2 293.9,227.2 293.8,227.2 293.8,227.2 274.3,207.7 293.8,207.7 293.8,207.7 254.7,207.7 			
				"/>
			<path class="st5" d="M293.8,247.8h-39.1c-0.6,0-1-0.5-1-1v-39.1c0-0.6,0.5-1,1-1h39.1c0.6,0,1,0.5,1,1s-0.5,1-1,1h-17.1
				l17.8,17.8c0.2,0.2,0.4,0.5,0.4,0.8v19.5c0,0.3-0.1,0.6-0.4,0.8C294.3,247.7,294.1,247.8,293.8,247.8z M255.8,245.8h37.1v-18.1
				l-19-19h-18.1V245.8z"/>
		</g>
		<g>
			<polygon class="st0" points="274.3,207.7 293.8,227.2 293.8,207.7 			"/>
			<path class="st1" d="M293.8,228.2c-0.3,0-0.5-0.1-0.7-0.3l-19.5-19.5c-0.3-0.3-0.4-0.7-0.2-1.1c0.2-0.4,0.5-0.6,1-0.6h19.5
				c0.6,0,1,0.5,1,1v19.5c0,0.4-0.3,0.8-0.6,1C294.1,228.2,294,228.2,293.8,228.2z M276.8,208.7l16,16v-16H276.8z"/>
		</g>
		<g>
			<polygon class="st4" points="72.8,207.7 72.8,207.7 72.8,207.6 			"/>
		</g>
		<g>
			<polygon class="st4" points="72.8,207.6 72.8,207.7 72.8,207.7 			"/>
		</g>
		<g>
			<path class="st4" d="M72.8,207.7L72.8,207.7L72.8,207.7L72.8,207.7l-19.6,19.6l19.6,19.6v0l19.6-19.6L72.8,207.7z M72.8,233.5
				c-3.5,0-6.3-2.8-6.3-6.3c0-3.5,2.8-6.3,6.3-6.3s6.3,2.8,6.3,6.3C79,230.7,76.2,233.5,72.8,233.5z"/>
			<path class="st5" d="M72.8,247.8c-0.3,0-0.5-0.1-0.7-0.3L52.5,228c-0.4-0.4-0.4-1.1,0-1.5L72,206.9c0.4-0.4,1.1-0.4,1.5,0
				l19.6,19.6c0.2,0.2,0.3,0.5,0.3,0.7c0,0.3-0.1,0.5-0.3,0.7l-19.6,19.6C73.3,247.7,73.1,247.8,72.8,247.8z M54.7,227.2l18.1,18.1
				l18.1-18.1l-18.1-18.1L54.7,227.2z M72.8,234.5c-4,0-7.3-3.3-7.3-7.3c0-4,3.3-7.3,7.3-7.3s7.3,3.3,7.3,7.3
				C80.1,231.3,76.8,234.5,72.8,234.5z M72.8,222c-2.9,0-5.2,2.3-5.2,5.2s2.3,5.2,5.2,5.2c2.9,0,5.2-2.3,5.2-5.2S75.7,222,72.8,222z
				"/>
		</g>
		<g>
			<polygon class="st0" points="92.4,227.2 92.4,207.7 72.8,207.7 			"/>
			<path class="st1" d="M92.4,228.3c-0.3,0-0.5-0.1-0.7-0.3l-19.6-19.5c-0.3-0.3-0.4-0.7-0.2-1.1c0.2-0.4,0.5-0.6,1-0.6h19.6
				c0.6,0,1,0.5,1,1v19.5c0,0.4-0.3,0.8-0.6,1C92.6,228.2,92.5,228.3,92.4,228.3z M75.3,208.7l16,16v-16H75.3z"/>
		</g>
		<g>
			<polygon class="st0" points="53.2,207.7 53.2,227.2 72.8,207.7 			"/>
			<path class="st1" d="M53.2,228.3c-0.1,0-0.3,0-0.4-0.1c-0.4-0.2-0.6-0.5-0.6-1v-19.5c0-0.6,0.5-1,1-1h19.6c0.4,0,0.8,0.3,1,0.6
				c0.2,0.4,0.1,0.8-0.2,1.1l-19.6,19.5C53.7,228.1,53.5,228.3,53.2,228.3z M54.2,208.7v16l16-16H54.2z"/>
		</g>
		<g>
			<polygon class="st0" points="72.8,246.8 53.2,227.2 53.2,246.8 53.2,246.8 92.4,246.8 92.4,227.2 			"/>
			<path class="st1" d="M92.4,247.8H53.2c-0.6,0-1-0.5-1-1v-19.6c0-0.4,0.3-0.8,0.6-1c0.4-0.2,0.8-0.1,1.1,0.2l18.8,18.8l18.8-18.8
				c0.3-0.3,0.7-0.4,1.1-0.2c0.4,0.2,0.6,0.5,0.6,1v19.6C93.4,247.4,92.9,247.8,92.4,247.8z M75.3,245.8h16.1v-16.1L75.3,245.8z
				 M54.2,245.8h16.1l-16.1-16.1V245.8z"/>
		</g>
		<g>
			<polygon class="st4" points="149,246.8 154.9,246.8 154.9,242.1 149,236.3 			"/>
			<path class="st5" d="M154.9,247.8H149c-0.6,0-1-0.5-1-1v-10.5c0-0.4,0.3-0.8,0.6-1c0.4-0.2,0.8-0.1,1.1,0.2l5.8,5.8
				c0.2,0.2,0.3,0.5,0.3,0.7v4.7C155.9,247.4,155.4,247.8,154.9,247.8z M150.1,245.8h3.8v-3.2l-3.8-3.8V245.8z"/>
		</g>
		<g>
			<polygon class="st4" points="137,246.8 142.9,246.8 142.9,230.2 137,224.3 			"/>
			<path class="st5" d="M142.9,247.8H137c-0.6,0-1-0.5-1-1v-22.5c0-0.4,0.3-0.8,0.6-1c0.4-0.2,0.8-0.1,1.1,0.2l5.8,5.8
				c0.2,0.2,0.3,0.5,0.3,0.7v16.6C143.9,247.4,143.4,247.8,142.9,247.8z M138.1,245.8h3.8v-15.2l-3.8-3.8V245.8z"/>
		</g>
		<g>
			<polygon class="st4" points="125.1,246.8 130.9,246.8 130.9,218.2 125.1,212.4 			"/>
			<path class="st5" d="M130.9,247.8h-5.8c-0.6,0-1-0.5-1-1v-34.4c0-0.4,0.3-0.8,0.6-1c0.4-0.2,0.8-0.1,1.1,0.2l5.8,5.8
				c0.2,0.2,0.3,0.5,0.3,0.7v28.6C131.9,247.4,131.5,247.8,130.9,247.8z M126.1,245.8h3.8v-27.1l-3.8-3.8V245.8z"/>
		</g>
		<g>
			<polygon class="st0" points="154.9,207.7 154.9,207.7 149,207.7 149,207.7 142.9,207.7 142.9,207.7 137,207.7 137,207.7 
				130.9,207.7 130.9,207.7 125.1,207.7 125.1,207.7 120.4,207.7 125.1,212.4 130.9,218.2 137,224.3 142.9,230.2 149,236.3 
				154.9,242.1 159.5,246.8 159.5,246.8 159.5,207.7 159.5,207.7 			"/>
			<path class="st1" d="M159.5,247.8c-0.3,0-0.5-0.1-0.7-0.3l-39.1-39.1c-0.3-0.3-0.4-0.7-0.2-1.1c0.2-0.4,0.5-0.6,1-0.6h39.2
				c0.6,0,1,0.5,1,1v39.1C160.6,247.3,160.1,247.8,159.5,247.8z M122.9,208.7l35.6,35.6v-35.6H122.9z"/>
		</g>
		<g>
			<path class="st12" d="M207.1,207.7v5.2c5.7-3.3,12.4-5.2,19.5-5.2H207.1z"/>
		</g>
		<g>
			<path class="st4" d="M226.7,207.6C226.7,207.6,226.6,207.6,226.7,207.6L226.7,207.6L226.7,207.6L226.7,207.6z"/>
		</g>
		<g>
			<path class="st0" d="M187.5,246.8c0-14.5,7.9-27.1,19.6-33.9v-5.2h-19.6L187.5,246.8L187.5,246.8L187.5,246.8L187.5,246.8z"/>
			<path class="st1" d="M187.5,247.8c-0.6,0-1-0.5-1-1c0,0,0,0,0,0v-39.1c0-0.6,0.5-1,1-1h19.6c0.6,0,1,0.5,1,1v5.2
				c0,0.4-0.2,0.7-0.5,0.9c-11.8,6.8-19.1,19.4-19.1,33c0,0.2,0,0.3-0.1,0.5C188.3,247.6,187.9,247.8,187.5,247.8z M188.6,208.7
				v25.5c3-9,9.2-16.8,17.5-21.8v-3.6H188.6z"/>
		</g>
		<g>
			<polygon class="st0" points="187.6,207.7 207.1,207.7 207.1,207.7 			"/>
		</g>
		<g>
			<path class="st4" d="M226.6,207.7c-7.1,0-13.7,1.9-19.5,5.2v0c-11.7,6.8-19.6,19.4-19.6,33.9v0h19.6h9.5h10v-39.1H226.6z"/>
			<path class="st5" d="M226.7,247.8h-39.2c-0.6,0-1-0.5-1-1c0-14.3,7.7-27.6,20.1-34.8c6-3.5,12.9-5.4,20-5.4c0,0,0,0,0,0h0.1
				c0.6,0,1,0.5,1,1v39.1C227.7,247.4,227.3,247.8,226.7,247.8z M188.6,245.8h37.1v-37.1c-6.3,0.2-12.5,1.9-18,5.1
				C196.2,220.4,189,232.6,188.6,245.8z"/>
		</g>
	</g>
	<g>
		<g>
			<path class="st10" d="M213.6,155c0-3.6-2.9-6.5-6.5-6.5s-6.5,2.9-6.5,6.5s2.9,6.5,6.5,6.5S213.6,158.6,213.6,155z"/>
		</g>
		<g>
			<polygon class="st10" points="92.3,135.4 77.9,149.8 83.1,155 72.8,165.4 67.6,160.2 53.2,174.6 53.2,174.6 92.3,174.6 
				92.3,164.8 			"/>
			<path class="st11" d="M92.3,175.6H53.2c-0.6,0-1-0.5-1-1c0-0.3,0.1-0.6,0.3-0.8l14.4-14.4c0.2-0.2,0.5-0.3,0.7-0.3h0
				c0.3,0,0.5,0.1,0.7,0.3l4.4,4.4l8.9-8.9l-4.4-4.4c-0.2-0.2-0.3-0.5-0.3-0.7c0-0.3,0.1-0.5,0.3-0.7l14.4-14.4
				c0.3-0.3,0.7-0.4,1.1-0.2c0.4,0.2,0.6,0.5,0.6,1v39.1C93.4,175.2,92.9,175.6,92.3,175.6z M53.2,174.6L53.2,174.6L53.2,174.6z
				 M55.7,173.6h35.6v-35.6l-11.9,11.9l4.4,4.4c0.4,0.4,0.4,1.1,0,1.5l-10.3,10.3c-0.2,0.2-0.5,0.3-0.7,0.3c0,0,0,0,0,0
				c-0.3,0-0.5-0.1-0.7-0.3l-4.4-4.4L55.7,173.6z"/>
		</g>
		<g>
			<path class="st6" d="M220.3,168.2v-26.3H194v26.3H220.3z M200.6,155c0-3.6,2.9-6.5,6.5-6.5s6.5,2.9,6.5,6.5s-2.9,6.5-6.5,6.5
				S200.6,158.6,200.6,155z"/>
			<path class="st7" d="M220.3,169.2H194c-0.6,0-1-0.5-1-1v-26.3c0-0.6,0.5-1,1-1h26.3c0.6,0,1,0.5,1,1v26.3
				C221.3,168.7,220.8,169.2,220.3,169.2z M195,167.2h24.3v-24.3H195V167.2z M207.1,162.5c-4.2,0-7.5-3.4-7.5-7.5s3.4-7.5,7.5-7.5
				s7.5,3.4,7.5,7.5S211.3,162.5,207.1,162.5z M207.1,149.5c-3,0-5.5,2.5-5.5,5.5c0,3,2.5,5.5,5.5,5.5c3,0,5.5-2.5,5.5-5.5
				C212.6,152,210.2,149.5,207.1,149.5z"/>
		</g>
		<g>
			<polygon class="st8" points="159.5,174.6 159.5,174.6 159.5,135.5 139.9,155 			"/>
			<path class="st9" d="M159.5,175.6c-0.3,0-0.6-0.1-0.8-0.3l-19.5-19.5c-0.2-0.2-0.3-0.5-0.3-0.7c0-0.3,0.1-0.5,0.3-0.7l19.6-19.6
				c0.3-0.3,0.7-0.4,1.1-0.2c0.4,0.2,0.6,0.5,0.6,1v39.1C160.5,175.1,160.1,175.6,159.5,175.6z M141.4,155l17.1,17.1V138L141.4,155z
				"/>
		</g>
		<g>
			<polygon class="st10" points="120.4,174.6 139.9,155 120.4,135.5 120.4,174.6 			"/>
			<path class="st11" d="M120.4,175.6L120.4,175.6c-0.6,0-1.1-0.5-1.1-1v-39.1c0-0.4,0.3-0.8,0.6-1c0.4-0.2,0.8-0.1,1.1,0.2
				l19.6,19.6c0.4,0.4,0.4,1.1,0,1.5l-19.5,19.5C121,175.5,120.7,175.6,120.4,175.6z M120.4,174.6L120.4,174.6L120.4,174.6z
				 M121.4,138v34.1l17.1-17.1L121.4,138z"/>
		</g>
		<g>
			<polygon class="st8" points="77.9,149.8 72.8,144.7 62.4,155 67.6,160.2 72.8,165.4 83.1,155 			"/>
			<path class="st9" d="M72.8,166.4L72.8,166.4c-0.3,0-0.5-0.1-0.7-0.3l-10.3-10.3c-0.4-0.4-0.4-1.1,0-1.5L72,143.9
				c0.4-0.4,1.1-0.4,1.5,0l10.3,10.3c0.4,0.4,0.4,1.1,0,1.5l-10.3,10.3C73.3,166.3,73,166.4,72.8,166.4z M63.9,155l8.9,8.9l8.9-8.9
				l-8.9-8.9L63.9,155z"/>
		</g>
		<g>
			<polygon class="st6" points="159.5,135.5 120.4,135.5 139.9,155 			"/>
			<path class="st7" d="M139.9,156c-0.3,0-0.5-0.1-0.7-0.3l-19.6-19.6c-0.3-0.3-0.4-0.7-0.2-1.1c0.2-0.4,0.5-0.6,0.9-0.6h39.1
				c0.4,0,0.8,0.2,0.9,0.6c0.2,0.4,0.1,0.8-0.2,1.1l-19.6,19.6C140.5,155.9,140.2,156,139.9,156z M122.8,136.5l17.1,17.1l17.1-17.1
				H122.8z"/>
		</g>
		<g>
			<polygon class="st6" points="139.9,155 120.4,174.6 159.5,174.6 			"/>
			<path class="st7" d="M159.5,175.6h-39c-0.4,0-0.8-0.2-0.9-0.6c-0.2-0.4-0.1-0.8,0.2-1.1l19.5-19.5c0.4-0.4,1-0.4,1.4,0l19.5,19.5
				c0.3,0.3,0.4,0.7,0.2,1.1C160.3,175.3,159.9,175.6,159.5,175.6z M122.9,173.5H157l-17.1-17.1L122.9,173.5z"/>
		</g>
	</g>
</g>
</svg>
