<svg width="50" height="50" viewBox="0 0 1000 1000" fill="none" xmlns="http://www.w3.org/2000/svg">
    <path
        transform="scale(1,-1) translate(0,-1000)"
        fill="white"
        stroke-width="1"
        d="M312.5 462.5C343.75 364.0625000000001 356.25 253.125 356.25 253.125C382.8125 303.1250000000001 506.25 785.9375 10.9375 825C79.6875 792.1875000000001 129.6875 753.1250000000001 154.6875 731.25C154.6875 731.25 207.8125 692.1875 248.4375 618.75C284.375 554.6875000000001 312.5 462.5000000000001 312.5 462.5000000000001zM856.25 601.5625C806.2499999999999 659.375 750 673.4375 714.0624999999999 681.25C648.4374999999999 693.75 581.2499999999999 679.6875 548.4374999999999 671.875C431.2499999999999 825 173.4374999999999 829.6875 173.4374999999999 829.6875C260.9375 801.5625 320.3124999999999 759.375 359.3749999999999 712.5L389.0624999999999 714.0625L370.3124999999999 696.875C374.9999999999999 689.0625 381.2499999999999 682.8125 384.3749999999999 675L434.3749999999999 682.8125L398.4374999999999 645.3125C485.9374999999998 351.5625 335.9374999999999 171.875 335.9374999999999 171.875C457.8124999999998 214.0625 621.8749999999999 396.875 751.5624999999999 464.0625C876.5624999999999 529.6875 993.7499999999998 465.6250000000001 985.9374999999998 489.0625000000001C971.8749999999998 540.625 856.25 601.5625 856.25 601.5625zM781.25 584.375C770.3125 584.375 754.6875 589.0625 742.1875 601.5625C731.25 612.5 734.375 617.1875 745.3125 617.1875C759.375 617.1875 787.5000000000001 606.25 809.3750000000001 587.5C810.9375000000001 585.9375 796.8750000000001 582.8125 781.2500000000001 584.375z"
    />
</svg>
