<svg width="104" height="97" viewBox="0 0 104 97" fill="none" xmlns="http://www.w3.org/2000/svg">
<g clip-path="url(#clip0_99_3012)">
<path d="M77.73 67.54L65.58 50.57H89.73L100.66 67.54H77.73Z" fill="#F0BF54"/>
<path d="M88.91 52.07L97.91 66.04H78.5L68.5 52.07H88.91ZM90.55 49.07H62.67L66.07 53.82L76.07 67.79L76.97 69.04H103.42L100.44 64.42L91.44 50.45L90.55 49.07Z" fill="#E88F50"/>
<path d="M3.34 67.54L14.27 50.57H38.42L26.27 67.54H3.34Z" fill="#F0BF54"/>
<path d="M35.5 52.07L25.5 66.04H6.09L15.09 52.07H35.5ZM41.34 49.07H13.46L12.57 50.45L3.57 64.42L0.589996 69.04H27.04L27.94 67.79L37.94 53.82L41.34 49.07Z" fill="#E88F50"/>
<path d="M20.5 94.55V53.05C20.5 35.68 34.63 21.55 52 21.55C69.37 21.55 83.5 35.68 83.5 53.05V94.55H20.5Z" fill="#F0F4F6"/>
<path d="M52 23.05C68.57 23.05 82 36.48 82 53.05V93.05H22V53.05C22 36.48 35.43 23.05 52 23.05ZM52 20.05C33.8 20.05 19 34.85 19 53.05V96.05H85V53.05C85 34.85 70.2 20.05 52 20.05Z" fill="#C4CED7"/>
<path d="M30.03 53.06V79.67" stroke="#C4CED7" stroke-width="3" stroke-miterlimit="10" stroke-linecap="round"/>
<path d="M52 42.9V93.05" stroke="#C4CED7" stroke-width="3" stroke-miterlimit="10" stroke-linecap="round"/>
<path d="M73.99 53.06V79.67" stroke="#C4CED7" stroke-width="3" stroke-miterlimit="10" stroke-linecap="round"/>
<path d="M63 47.9V92.19" stroke="#C4CED7" stroke-width="3" stroke-miterlimit="10" stroke-linecap="round"/>
<path d="M41.02 47.9V91.97" stroke="#C4CED7" stroke-width="3" stroke-miterlimit="10" stroke-linecap="round"/>
<path d="M47.61 34.08C46.02 34.08 44.73 32.77 44.73 31.17V23.09L44.16 23.68C43.62 24.24 42.89 24.54 42.11 24.54C41.33 24.54 40.6 24.23 40.06 23.68L38.59 22.18C37.49 21.05 37.49 19.21 38.59 18.08L49.97 6.45C50.51 5.89 51.24 5.59 52.02 5.59C52.8 5.59 53.53 5.9 54.07 6.45L65.44 18.08C65.98 18.67 66.25 19.41 66.24 20.14C66.24 20.87 65.94 21.61 65.43 22.15L63.94 23.67C63.4 24.23 62.67 24.53 61.89 24.53C61.11 24.53 60.38 24.22 59.84 23.67L59.27 23.08V31.16C59.27 32.77 57.98 34.07 56.39 34.07H47.61V34.08Z" fill="#7BD85D"/>
<path d="M52.02 7.08001C52.37 7.08001 52.73 7.22001 53 7.49001L64.37 19.12C64.44 19.2 64.75 19.56 64.75 20.12C64.75 20.68 64.42 21.04 64.35 21.12L62.88 22.62C62.61 22.89 62.26 23.03 61.9 23.03C61.54 23.03 61.19 22.89 60.92 22.62L57.77 19.4V31.16C57.77 31.94 57.15 32.57 56.39 32.57H47.61C46.85 32.57 46.23 31.94 46.23 31.16V19.4L43.08 22.62C42.81 22.89 42.46 23.03 42.1 23.03C41.74 23.03 41.39 22.89 41.12 22.62L39.65 21.12C39.11 20.57 39.11 19.67 39.65 19.12L51.03 7.49001C51.3 7.22001 51.65 7.08001 52.01 7.08001M52.01 4.08001C50.82 4.08001 49.72 4.55001 48.89 5.39001L37.51 17.02C35.84 18.73 35.84 21.51 37.51 23.21L38.98 24.71C39.81 25.56 40.92 26.02 42.1 26.02C42.48 26.02 42.86 25.97 43.22 25.88V31.15C43.22 33.58 45.19 35.56 47.6 35.56H56.38C58.8 35.56 60.76 33.58 60.76 31.15V25.88C61.12 25.98 61.5 26.02 61.88 26.02C63.07 26.02 64.17 25.55 65 24.71L66.47 23.21L66.49 23.19L66.51 23.17C67.27 22.36 67.72 21.25 67.73 20.14C67.74 18.63 67.02 17.59 66.58 17.11L66.54 17.06L66.5 17.01L55.13 5.38001C54.3 4.53001 53.19 4.07001 52.01 4.07001V4.08001Z" fill="#369888"/>
<path d="M94.21 67.54H9.8V94.51H94.21V67.54Z" fill="#F0BF54"/>
<path d="M92.71 69.04V93.01H11.3V69.04H92.71ZM95.71 66.04H8.3V96.01H95.71V66.04Z" fill="#E88F50"/>
<path d="M19.96 81.8V77.08H22V81.8H19.96ZM23.24 84.91C22.56 84.91 21.97 84.79 21.48 84.54C20.99 84.29 20.61 83.93 20.35 83.47C20.09 83.01 19.96 82.45 19.96 81.8H22C22 82.06 22.05 82.28 22.15 82.46C22.25 82.64 22.4 82.78 22.58 82.88C22.77 82.98 22.99 83.02 23.26 83.02C23.53 83.02 23.75 82.97 23.94 82.88C24.13 82.78 24.27 82.65 24.37 82.46C24.47 82.28 24.52 82.06 24.52 81.8H26.56C26.56 82.45 26.43 83 26.16 83.47C25.89 83.94 25.52 84.29 25.02 84.54C24.52 84.79 23.93 84.91 23.23 84.91H23.24ZM24.53 81.8V77.08H26.57V81.8H24.53Z" fill="#E88F50"/>
<path d="M29.97 84.78V77.08H32.01V84.78H29.97ZM31.72 82.47V80.6H33.11C33.39 80.6 33.61 80.52 33.79 80.37C33.96 80.22 34.05 80.01 34.05 79.77C34.05 79.61 34.01 79.47 33.93 79.34C33.85 79.22 33.74 79.12 33.6 79.05C33.46 78.98 33.3 78.95 33.12 78.95H31.73V77.09H33.17C33.75 77.07 34.26 77.18 34.71 77.41C35.16 77.64 35.51 77.96 35.76 78.37C36.01 78.78 36.14 79.24 36.14 79.77C36.14 80.3 36.01 80.77 35.76 81.17C35.51 81.58 35.16 81.9 34.71 82.13C34.26 82.36 33.75 82.48 33.17 82.48H31.73L31.72 82.47Z" fill="#E88F50"/>
<path d="M42.71 84.91C41.92 84.91 41.22 84.74 40.61 84.4C40 84.06 39.53 83.59 39.18 82.99C38.83 82.39 38.66 81.7 38.66 80.93C38.66 80.16 38.83 79.47 39.18 78.87C39.53 78.27 40 77.8 40.61 77.46C41.22 77.12 41.92 76.95 42.71 76.95C43.23 76.95 43.69 77.02 44.09 77.17C44.49 77.32 44.84 77.52 45.13 77.77C45.42 78.02 45.67 78.31 45.88 78.64L44.19 79.64C44.09 79.48 43.96 79.34 43.8 79.21C43.64 79.09 43.47 78.99 43.28 78.92C43.09 78.85 42.9 78.82 42.71 78.82C42.33 78.82 41.99 78.91 41.7 79.09C41.41 79.27 41.18 79.52 41.01 79.83C40.84 80.15 40.76 80.51 40.76 80.93C40.76 81.35 40.84 81.71 41 82.03C41.16 82.35 41.39 82.61 41.7 82.79C42 82.97 42.36 83.07 42.77 83.07C43.06 83.07 43.32 83.02 43.55 82.91C43.78 82.8 43.96 82.65 44.09 82.46C44.22 82.27 44.29 82.04 44.29 81.78L46.23 81.42C46.23 82.2 46.08 82.85 45.78 83.37C45.48 83.89 45.07 84.28 44.54 84.54C44.02 84.8 43.41 84.92 42.72 84.92L42.71 84.91ZM42.57 82.01V80.47H46.22V81.6L45.06 82.01H42.56H42.57Z" fill="#E88F50"/>
<path d="M49.24 84.78V77.08H51.28V84.78H49.24ZM50.99 82.34V80.47H52.32C52.5 80.47 52.66 80.44 52.8 80.37C52.94 80.3 53.05 80.21 53.13 80.1C53.21 79.98 53.25 79.85 53.25 79.7C53.25 79.48 53.16 79.3 52.99 79.16C52.82 79.02 52.59 78.95 52.31 78.95H50.98V77.09H52.42C53 77.07 53.51 77.18 53.96 77.41C54.41 77.64 54.76 77.95 55.01 78.35C55.26 78.75 55.39 79.2 55.39 79.71C55.39 80.22 55.26 80.68 55.01 81.08C54.76 81.48 54.41 81.79 53.96 82.02C53.51 82.25 53 82.36 52.42 82.36H50.98L50.99 82.34ZM53.38 84.78L51.66 81.76L53.19 80.62L55.71 84.79H53.38V84.78Z" fill="#E88F50"/>
<path d="M58.26 84.78L61.21 77.08H63.23L60.41 84.78H58.25H58.26ZM59.65 83.55V81.76H64.97V83.55H59.65ZM64.19 84.78L61.37 77.08H63.39L66.34 84.78H64.18H64.19Z" fill="#E88F50"/>
<path d="M69.29 84.78V77.08H71.33V84.78H69.29ZM70.27 79.01V77.08H71.87V79.01H70.27ZM70.27 84.78V82.86H71.87V84.78H70.27ZM71.87 84.78V82.86C72.19 82.86 72.49 82.81 72.76 82.72C73.03 82.63 73.27 82.49 73.46 82.32C73.66 82.15 73.81 81.95 73.92 81.72C74.03 81.49 74.09 81.22 74.09 80.94C74.09 80.66 74.04 80.39 73.92 80.16C73.8 79.93 73.66 79.72 73.46 79.56C73.26 79.39 73.03 79.26 72.76 79.16C72.49 79.06 72.19 79.02 71.87 79.02V77.09C72.71 77.09 73.46 77.26 74.11 77.59C74.76 77.92 75.27 78.37 75.63 78.95C76 79.53 76.18 80.19 76.18 80.95C76.18 81.71 76 82.36 75.63 82.94C75.26 83.52 74.75 83.97 74.11 84.3C73.46 84.63 72.71 84.8 71.87 84.8V84.78Z" fill="#E88F50"/>
<path d="M79.31 84.78V77.08H81.35V84.78H79.31ZM80.74 78.95V77.08H84.47V78.95H80.74ZM80.74 81.83V80.02H83.87V81.83H80.74ZM80.74 84.78V82.91H84.55V84.78H80.74Z" fill="#E88F50"/>
<path d="M23.26 57.16C23.01 57.16 22.52 57.08 22.11 56.57L20.96 54.95C20.96 54.95 20.94 54.95 20.93 54.95C20.62 54.95 20.33 54.94 20.07 54.91L18.81 56.34C18.38 56.77 17.98 56.85 17.72 56.85C17.45 56.85 17.18 56.77 16.94 56.61L13.83 54.58C13.24 54.2 13.03 53.51 13.29 52.83L14.12 51.04C13.97 50.78 13.84 50.51 13.72 50.23L11.84 49.85C11.06 49.65 10.62 49.07 10.67 48.36L10.86 44.67C10.92 43.85 11.46 43.3 12.22 43.26L14.1 43.1C14.17 42.98 14.25 42.86 14.34 42.72C14.43 42.58 14.51 42.46 14.59 42.35L13.96 40.53C13.7 39.86 13.99 39.14 14.7 38.76L18.02 37.09C18.22 36.99 18.44 36.93 18.67 36.93C18.92 36.93 19.41 37.01 19.82 37.52L20.97 39.14C20.97 39.14 20.99 39.14 21 39.14C21.31 39.14 21.6 39.15 21.86 39.18L23.11 37.75C23.55 37.32 23.94 37.24 24.2 37.24C24.46 37.24 24.74 37.32 24.98 37.48L28.09 39.51C28.67 39.89 28.88 40.58 28.63 41.26L27.79 43.06C27.94 43.32 28.07 43.59 28.19 43.87L30.07 44.25C30.84 44.45 31.28 45.03 31.24 45.74L31.05 49.43C30.99 50.25 30.45 50.81 29.69 50.84L27.81 51C27.74 51.12 27.66 51.24 27.57 51.38C27.48 51.52 27.4 51.64 27.32 51.75L27.95 53.57C28.21 54.24 27.92 54.96 27.21 55.33L23.89 57C23.69 57.1 23.47 57.16 23.24 57.16H23.26ZM21 44.8C20.84 44.8 20.67 44.82 20.5 44.85C19.88 44.98 19.43 45.29 19.08 45.82C18.73 46.35 18.63 46.88 18.77 47.51C18.9 48.13 19.21 48.58 19.74 48.93C20.12 49.18 20.51 49.3 20.92 49.3C21.08 49.3 21.25 49.28 21.42 49.25C22.04 49.12 22.49 48.81 22.84 48.28C23.18 47.75 23.28 47.22 23.15 46.59C23.02 45.97 22.71 45.52 22.18 45.17C21.8 44.92 21.41 44.8 21 44.8Z" fill="#2F9EF3"/>
<path d="M18.66 37.93C18.79 37.93 18.91 38 19.03 38.14L20.45 40.15C20.64 40.15 20.82 40.14 20.99 40.14C21.49 40.14 21.91 40.17 22.25 40.24L23.86 38.4C23.97 38.29 24.09 38.23 24.2 38.23C24.28 38.23 24.36 38.26 24.43 38.31L27.54 40.34C27.73 40.47 27.78 40.65 27.69 40.9L26.66 43.12C26.99 43.61 27.26 44.15 27.47 44.73L29.88 45.22C30.14 45.29 30.27 45.44 30.26 45.67L30.07 49.36C30.05 49.66 29.91 49.81 29.67 49.82L27.21 50.02C27.12 50.2 26.97 50.47 26.75 50.8C26.53 51.14 26.35 51.38 26.22 51.54L27.02 53.87C27.11 54.1 27.02 54.29 26.76 54.42L23.46 56.08C23.39 56.12 23.32 56.13 23.26 56.13C23.13 56.13 23.01 56.06 22.89 55.92L21.47 53.91C21.28 53.91 21.1 53.92 20.93 53.92C20.43 53.92 20.01 53.89 19.67 53.82L18.06 55.66C17.95 55.77 17.83 55.83 17.72 55.83C17.64 55.83 17.56 55.8 17.49 55.75L14.38 53.72C14.19 53.59 14.14 53.41 14.23 53.16L15.26 50.94C14.93 50.45 14.66 49.91 14.45 49.33L12.04 48.84C11.78 48.77 11.65 48.62 11.66 48.39L11.85 44.7C11.87 44.4 12 44.25 12.25 44.24L14.7 44.04C14.79 43.86 14.94 43.59 15.16 43.26C15.38 42.92 15.56 42.68 15.69 42.52L14.89 40.19C14.8 39.96 14.89 39.77 15.15 39.64L18.45 37.98C18.52 37.94 18.58 37.93 18.65 37.93M20.91 50.29C21.14 50.29 21.38 50.26 21.62 50.21C22.5 50.03 23.18 49.56 23.67 48.81C24.16 48.06 24.31 47.25 24.12 46.37C23.94 45.49 23.47 44.81 22.72 44.32C22.18 43.97 21.6 43.79 20.99 43.79C20.76 43.79 20.52 43.82 20.28 43.87C19.4 44.05 18.72 44.52 18.23 45.27C17.74 46.02 17.59 46.83 17.77 47.71C17.95 48.59 18.42 49.27 19.17 49.76C19.71 50.11 20.29 50.29 20.9 50.29M18.64 35.93C18.26 35.93 17.88 36.02 17.53 36.2L14.24 37.86C13.06 38.48 12.57 39.71 13 40.88L13.44 42.15L12.1 42.26C10.86 42.34 9.93 43.28 9.84 44.58L9.65 48.31C9.58 49.48 10.33 50.49 11.52 50.8H11.57L11.62 50.83L12.97 51.1L12.39 52.34L12.36 52.41L12.33 52.48C11.91 53.6 12.28 54.78 13.26 55.42L16.37 57.45C16.77 57.71 17.23 57.85 17.7 57.85C18.33 57.85 18.95 57.59 19.44 57.12L19.5 57.07L19.55 57.01L20.45 55.98L21.25 57.11L21.28 57.16L21.31 57.2C21.81 57.83 22.49 58.17 23.24 58.17C23.62 58.17 24 58.08 24.35 57.9L27.64 56.24C28.82 55.62 29.31 54.39 28.88 53.22L28.44 51.95L29.78 51.84C31.02 51.76 31.95 50.82 32.04 49.53L32.23 45.8C32.3 44.63 31.55 43.62 30.36 43.31H30.31L30.26 43.28L28.91 43.01L29.49 41.77L29.52 41.7L29.55 41.63C29.97 40.51 29.59 39.33 28.62 38.69L25.51 36.66C25.11 36.4 24.65 36.26 24.18 36.26C23.54 36.26 22.93 36.52 22.44 37L22.39 37.05L22.34 37.11L21.44 38.14L20.64 37.01L20.61 36.96L20.58 36.92C20.08 36.29 19.4 35.95 18.65 35.95L18.64 35.93ZM20.9 48.29C20.68 48.29 20.48 48.23 20.26 48.08C19.96 47.88 19.8 47.65 19.73 47.3C19.65 46.94 19.7 46.67 19.9 46.37C20.1 46.07 20.33 45.91 20.68 45.84C20.78 45.82 20.88 45.81 20.98 45.81C21.2 45.81 21.4 45.87 21.62 46.02C21.92 46.22 22.08 46.45 22.15 46.8C22.23 47.16 22.18 47.43 21.98 47.73C21.78 48.03 21.55 48.19 21.2 48.26C21.1 48.28 21 48.29 20.9 48.29Z" fill="#487CD6"/>
<path d="M68.3 51.43C67.72 51.41 67.25 50.94 67.24 50.35C67.19 48.41 68.03 45.69 70.57 44.4L70.78 44.29H71.06C71.48 44.28 71.86 44.52 72.05 44.9C72.23 45.28 72.18 45.73 71.92 46.06C71.8333 46.1667 71.81 46.36 71.85 46.64C71.85 46.69 71.87 46.75 71.87 46.81C71.94 46.82 72 46.83 72.06 46.84C72.19 46.86 72.31 46.89 72.42 46.89C72.45 46.89 72.5 46.89 72.67 46.74L72.95 46.49L73.39 46.47C73.74 46.47 74.07 46.64 74.27 46.91L74.57 47.31L74.44 47.87C73.85 49.77 71.06 51.42 68.47 51.42H68.29L68.3 51.43Z" fill="#ED5580"/>
<path d="M71.07 45.28C71.14 45.28 71.2 45.37 71.14 45.44C70.56 46.16 70.93 46.54 70.94 47.64C70.94 47.69 70.98 47.73 71.03 47.73C71.67 47.75 72.07 47.88 72.43 47.88C72.72 47.88 72.98 47.79 73.33 47.49C73.35 47.47 73.37 47.47 73.39 47.47C73.45 47.47 73.5 47.52 73.48 47.59C73.03 49.04 70.58 50.43 68.47 50.43C68.42 50.43 68.37 50.43 68.32 50.43C68.27 50.43 68.23 50.39 68.23 50.34C68.18 48.45 69.07 46.29 71.02 45.3C71.03 45.3 71.05 45.29 71.06 45.29M71.06 43.29H70.58L70.11 43.52C67.68 44.76 66.16 47.46 66.23 50.4C66.26 51.51 67.15 52.41 68.26 52.44C68.33 52.44 68.4 52.44 68.47 52.44C71.17 52.44 74.6 50.73 75.39 48.2C75.59 47.57 75.47 46.87 75.08 46.34C74.69 45.8 74.05 45.48 73.39 45.48C73.31 45.48 73.23 45.48 73.15 45.49C73.17 45.15 73.1 44.8 72.95 44.48C72.6 43.76 71.86 43.29 71.06 43.29Z" fill="#BA50A1"/>
<path d="M70.73 44.42L70.62 44.4C68.77 44.1 66.84 43.79 66.57 43.76C66.41 43.74 66.23 43.67 66.15 43.63C65.68 43.41 65.36 42.95 65.31 42.44C65.26 41.94 65.46 41.47 65.86 41.17L65.94 41.11L66.08 41.04C67.41 40.29 68.83 39.52 70.24 38.76L71.71 37.96C72.04 37.79 72.32 37.64 72.68 37.64C73.3 37.64 73.66 38.05 73.96 38.39C74.32 38.8 74.34 39.41 74.02 39.85C73.77 40.18 73.52 40.55 73.27 40.94C72.73 41.81 72.26 42.73 71.9 43.69C71.73 44.13 71.3 44.43 70.82 44.43H70.74L70.73 44.42Z" fill="#ED5580"/>
<path d="M72.68 38.64C72.83 38.64 72.95 38.76 73.21 39.05C73.26 39.1 73.26 39.19 73.21 39.25C72.94 39.6 72.68 39.99 72.42 40.41C71.77 41.45 71.3 42.45 70.96 43.33C70.94 43.39 70.88 43.43 70.81 43.43C70.81 43.43 70.79 43.43 70.78 43.43C68.55 43.07 66.96 42.82 66.7 42.78C66.7 42.78 66.64 42.77 66.58 42.74C66.28 42.6 66.19 42.18 66.46 41.97C66.48 41.96 66.49 41.95 66.51 41.94C68.39 40.88 70.31 39.86 72.19 38.84C72.43 38.72 72.56 38.65 72.68 38.65M72.68 36.65C72.07 36.65 71.63 36.88 71.27 37.07L69.76 37.89C68.38 38.64 66.95 39.41 65.56 40.19C65.46 40.25 65.35 40.31 65.26 40.39C64.59 40.9 64.24 41.72 64.33 42.56C64.42 43.42 64.96 44.18 65.74 44.55C65.91 44.63 66.17 44.73 66.47 44.77C66.76 44.81 69.47 45.24 70.49 45.41L70.65 45.44H70.84C71.73 45.44 72.54 44.89 72.85 44.06C73.2 43.16 73.63 42.29 74.14 41.48C74.36 41.13 74.59 40.79 74.84 40.46C75.45 39.65 75.4 38.5 74.73 37.74C74.4 37.36 73.78 36.66 72.7 36.66L72.68 36.65Z" fill="#BA50A1"/>
<path d="M76.35 53.34C75.78 53.34 75.25 53.01 75.01 52.49C74.97 52.4 74.89 52.22 74.88 52.04C74.85 51.81 74.55 49.92 74.24 48.02C74.15 47.48 74.46 46.95 74.96 46.76C75.92 46.39 76.85 45.93 77.71 45.38C78.1 45.13 78.46 44.88 78.8 44.63L79.07 44.43L79.49 44.4C79.77 44.4 80.05 44.5 80.26 44.69C81.1 45.43 81.2 45.95 80.7 46.92L79.93 48.35C79.16 49.78 78.38 51.21 77.59 52.63L77.55 52.71L77.47 52.82C77.22 53.15 76.81 53.35 76.37 53.35L76.35 53.34Z" fill="#ED5580"/>
<path d="M79.49 45.4C79.49 45.4 79.57 45.41 79.6 45.44C80.11 45.89 80.09 45.92 79.81 46.46C78.79 48.34 77.76 50.26 76.71 52.14C76.71 52.15 76.69 52.17 76.68 52.19C76.6 52.3 76.48 52.35 76.35 52.35C76.17 52.35 76 52.25 75.91 52.07C75.88 52.01 75.87 51.96 75.87 51.95C75.84 51.69 75.58 50.1 75.22 47.87C75.21 47.8 75.25 47.72 75.32 47.7C76.21 47.36 77.21 46.89 78.24 46.24C78.66 45.98 79.04 45.71 79.4 45.45C79.43 45.43 79.46 45.42 79.49 45.42M79.49 43.42C79.03 43.42 78.57 43.57 78.2 43.85C77.87 44.1 77.53 44.33 77.18 44.55C76.37 45.06 75.5 45.49 74.6 45.84C73.65 46.2 73.08 47.2 73.25 48.2C73.43 49.31 73.85 51.93 73.89 52.21C73.93 52.51 74.03 52.77 74.11 52.94C74.52 53.8 75.4 54.36 76.35 54.36C77.11 54.36 77.81 54.02 78.27 53.41C78.34 53.32 78.41 53.21 78.47 53.11C79.25 51.72 80.02 50.29 80.77 48.91L81.58 47.42C82.31 46.01 82.11 44.99 80.93 43.95C80.54 43.6 80.03 43.41 79.5 43.41L79.49 43.42Z" fill="#BA50A1"/>
<path d="M74.69 48.31C74.39 48.31 73.94 48.21 73.55 47.75C72.69 46.86 71.76 45.94 70.83 45.04C70.39 44.6 70.26 44.09 70.43 43.51L70.47 43.4C71.35 41.27 72.4 39.43 73.68 37.78C75.35 35.59 77.55 34.09 80.4 33.21C81.94 32.72 85 32.44 85.03 32.44H85.05C85.47 32.44 85.79 32.59 86 32.84C86.22 33.09 86.32 33.43 86.27 33.77L86.2 34.29C86.08 35.17 85.95 36.08 85.75 36.96C85.29 39.08 84.48 40.92 83.33 42.44C82.25 43.92 80.85 45.16 79.06 46.22C78.29 46.66 77.52 47.05 76.74 47.45C76.31 47.67 75.87 47.89 75.44 48.12C75.18 48.25 74.93 48.31 74.69 48.31ZM79.07 38.41C78.84 38.41 78.62 38.48 78.43 38.6C78.1 38.83 77.91 39.18 77.91 39.57C77.91 39.96 78.1 40.31 78.43 40.54C78.61 40.66 78.83 40.73 79.06 40.73C79.29 40.73 79.51 40.66 79.7 40.54C80.03 40.31 80.22 39.96 80.22 39.57C80.22 39.18 80.03 38.83 79.7 38.6C79.52 38.48 79.3 38.41 79.07 38.41Z" fill="#ED5580"/>
<path d="M85.12 33.45C85.21 33.45 85.29 33.54 85.27 33.63C85.12 34.7 84.99 35.74 84.77 36.75C84.37 38.59 83.67 40.33 82.53 41.84C81.46 43.31 80.09 44.45 78.55 45.36C77.38 46.03 76.17 46.6 74.97 47.24C74.87 47.29 74.77 47.32 74.69 47.32C74.55 47.32 74.43 47.25 74.3 47.11C73.4 46.17 72.46 45.24 71.52 44.33C71.35 44.16 71.32 44.03 71.39 43.79C72.19 41.85 73.19 40.04 74.46 38.4C76.06 36.29 78.17 34.95 80.68 34.18C81.89 33.8 84.37 33.51 85.1 33.45C85.1 33.45 85.1 33.45 85.11 33.45M79.06 41.73C79.48 41.73 79.9 41.61 80.26 41.36C81.54 40.49 81.54 38.64 80.26 37.77C79.9 37.53 79.48 37.41 79.06 37.41C78.64 37.41 78.22 37.53 77.86 37.78C76.58 38.65 76.58 40.5 77.86 41.37C78.22 41.61 78.64 41.73 79.06 41.73ZM85.11 31.45H84.93C84.93 31.45 81.73 31.75 80.07 32.27C77.07 33.19 74.64 34.85 72.86 37.19C71.54 38.9 70.44 40.82 69.53 43.03L69.49 43.14L69.46 43.25C69.19 44.18 69.42 45.07 70.11 45.75C71.05 46.65 71.95 47.56 72.84 48.47C73.34 49.02 73.99 49.32 74.69 49.32C75.09 49.32 75.49 49.22 75.87 49.03C76.34 48.78 76.76 48.57 77.19 48.35C77.96 47.96 78.76 47.55 79.55 47.1C81.46 45.98 83 44.61 84.15 43.02C85.36 41.42 86.23 39.44 86.72 37.18C86.92 36.27 87.05 35.34 87.17 34.45L87.25 33.92C87.34 33.3 87.15 32.67 86.74 32.2C86.33 31.73 85.74 31.46 85.11 31.46V31.45ZM79.06 39.73C79.06 39.73 79 39.73 78.99 39.71C78.95 39.68 78.91 39.64 78.9 39.57C78.9 39.49 78.95 39.45 78.98 39.43C78.99 39.43 79.02 39.41 79.05 39.41C79.08 39.41 79.11 39.41 79.12 39.43C79.16 39.46 79.2 39.5 79.21 39.57C79.21 39.65 79.16 39.69 79.13 39.71C79.12 39.71 79.09 39.73 79.06 39.73Z" fill="#BA50A1"/>
<path d="M24.4 24.58C23.37 24.58 22.44 23.98 22.03 23.05C21.86 22.67 21.79 22.28 21.81 21.89L16.14 17.49C15.89 17.57 15.64 17.6 15.4 17.6C14.38 17.6 13.45 17 13.04 16.07C12.75 15.4 12.76 14.65 13.08 13.97C13.35 13.39 13.83 12.91 14.35 12.68C14.68 12.53 15.03 12.46 15.38 12.46C15.86 12.46 16.33 12.6 16.74 12.85L22.47 10.32C22.62 9.49001 23.17 8.79001 23.96 8.44001C24.28 8.30001 24.63 8.23001 24.98 8.23001C26.01 8.23001 26.94 8.83001 27.35 9.76001C27.63 10.38 27.64 11.08 27.39 11.72C27.19 12.23 26.84 12.66 26.4 12.95L26.33 14.41C26.63 14.66 26.88 14.99 27.05 15.36C27.33 15.98 27.34 16.68 27.09 17.32C26.84 17.96 26.36 18.47 25.74 18.74C25.43 18.88 25.11 18.95 24.77 18.95C23.66 18.95 22.75 18.19 22.37 17.48C22.37 17.46 22.35 17.45 22.34 17.43L20.95 17.24L21.39 14.32L22.89 14.53C23.15 14.32 23.32 14.19 23.44 14.11L23.49 13.01L18.92 15.02L18.81 15.86L23.53 19.57C23.8 19.48 24.08 19.43 24.36 19.43C25.39 19.43 26.32 20.03 26.73 20.96C27.01 21.58 27.02 22.28 26.77 22.92C26.52 23.56 26.04 24.07 25.42 24.34C25.1 24.48 24.75 24.56 24.4 24.56V24.58Z" fill="#EDCD51"/>
<path d="M24.99 9.00001C25.69 9.00001 26.36 9.40001 26.66 10.07C27.06 10.97 26.64 12.05 25.74 12.45C25.71 12.46 25.69 12.47 25.66 12.48L25.55 14.8C25.9 14.98 26.19 15.3 26.35 15.67C26.75 16.57 26.33 17.65 25.43 18.05C25.21 18.15 24.99 18.19 24.77 18.19C24 18.19 23.32 17.63 23.05 17.13C22.98 16.99 22.93 16.85 22.91 16.74L21.83 16.59C21.9 16.12 21.97 15.65 22.05 15.18C22.41 15.23 22.77 15.28 23.13 15.33C23.7 14.86 23.92 14.7 23.98 14.69C23.98 14.69 24.01 14.68 24.09 14.66C24.12 14.66 24.16 14.64 24.2 14.63L24.31 12.43C24.09 12.35 23.92 12.21 23.76 12.07L17.9 14.65L18.22 14.69L18.04 16.05L17.78 16.01L23.45 20.47C23.51 20.41 23.59 20.38 23.66 20.35C23.89 20.25 24.13 20.2 24.37 20.2C25.07 20.2 25.74 20.6 26.04 21.27C26.44 22.17 26.02 23.25 25.12 23.65C24.89 23.75 24.65 23.8 24.41 23.8C23.71 23.8 23.04 23.4 22.74 22.73C22.56 22.33 22.53 21.92 22.64 21.55L16.28 16.61C16.23 16.63 16.18 16.65 16.13 16.68C15.9 16.78 15.65 16.83 15.41 16.83C14.71 16.83 14.05 16.43 13.75 15.75C13.29 14.72 13.99 13.67 14.67 13.37C14.91 13.26 15.16 13.22 15.4 13.22C15.87 13.22 16.31 13.4 16.65 13.73L23.21 10.84C23.2 10.13 23.58 9.45001 24.28 9.14001C24.51 9.04001 24.75 8.99001 24.99 8.99001M24.99 7.46001C24.53 7.46001 24.08 7.55001 23.66 7.74001C22.77 8.13001 22.12 8.88001 21.83 9.77001L16.78 12C16.35 11.8 15.87 11.69 15.39 11.69C14.91 11.69 14.48 11.79 14.05 11.97C13.35 12.28 12.75 12.88 12.4 13.63C11.98 14.52 11.96 15.49 12.35 16.36C12.88 17.57 14.08 18.35 15.41 18.35C15.6 18.35 15.79 18.33 15.97 18.3L21.06 22.25C21.09 22.62 21.18 22.98 21.34 23.34C21.87 24.55 23.07 25.33 24.4 25.33C24.86 25.33 25.31 25.24 25.73 25.05C27.41 24.31 28.18 22.34 27.44 20.65C27.2 20.1 26.81 19.63 26.34 19.29C27.82 18.46 28.45 16.62 27.75 15.04C27.59 14.68 27.37 14.35 27.11 14.08L27.15 13.34C28.26 12.41 28.67 10.83 28.06 9.44001C27.53 8.23001 26.33 7.45001 25 7.45001L24.99 7.46001ZM19.64 15.54L20.49 15.17L20.35 16.1L19.65 15.55L19.64 15.54Z" fill="#EE9D5F"/>
<path d="M21.89 14.54H19.02V16.78H21.89V14.54Z" fill="#EE9D5F"/>
<path d="M18.56 16.13L18.74 14.78L19.83 14.93L19.64 16.28L18.56 16.13Z" fill="#EDCD51"/>
<path d="M20.3555 15.007L20.1688 16.3642L21.2487 16.5127L21.4353 15.1555L20.3555 15.007Z" fill="#EDCD51"/>
<path d="M79.97 13.31C79.58 13.31 79.21 13.13 78.97 12.82L77.23 10.56L74.41 11.01L74.21 11.03C73.74 11.03 73.32 10.77 73.1 10.35C72.88 9.93 72.91 9.43 73.17 9.05L74.78 6.69L73.48 4.15C73.28 3.75 73.3 3.29 73.53 2.92C73.76 2.54 74.16 2.31 74.61 2.31C74.73 2.31 74.85 2.33 74.97 2.36L77.71 3.17L79.73 1.15C79.97 0.909999 80.29 0.779999 80.62 0.779999C81.31 0.779999 81.87 1.32 81.89 2.01L81.97 4.86L84.51 6.16C84.96 6.39 85.23 6.86 85.2 7.37C85.17 7.87 84.84 8.31 84.36 8.48L81.67 9.44L81.22 12.26C81.12 12.88 80.6 13.33 79.97 13.33V13.31Z" fill="#F0AE5E"/>
<path d="M80.62 1.53C80.87 1.53 81.11 1.72 81.12 2.02L81.2 5.03C81.2 5.21 81.31 5.38 81.47 5.46L84.15 6.83C84.54 7.03 84.5 7.6 84.09 7.75L81.25 8.76C81.08 8.82 80.95 8.97 80.92 9.15L80.45 12.13C80.41 12.4 80.18 12.55 79.95 12.55C79.81 12.55 79.66 12.49 79.56 12.35L77.72 9.96C77.62 9.84 77.48 9.77 77.32 9.77C77.29 9.77 77.27 9.77 77.24 9.77L74.26 10.24C74.26 10.24 74.2 10.24 74.18 10.24C73.79 10.24 73.54 9.8 73.77 9.46L75.47 6.97C75.57 6.82 75.59 6.62 75.5 6.46L74.13 3.78C73.95 3.44 74.22 3.05 74.57 3.05C74.62 3.05 74.67 3.05 74.72 3.07L77.61 3.92C77.61 3.92 77.7 3.94 77.75 3.94C77.88 3.94 78.01 3.89 78.1 3.79L80.23 1.66C80.33 1.56 80.46 1.51 80.58 1.51M80.58 -0.0199988C80.04 -0.0199988 79.53 0.190001 79.15 0.580001L77.45 2.28L75.15 1.6C74.96 1.54 74.77 1.52 74.57 1.52C73.87 1.52 73.21 1.89 72.84 2.49C72.47 3.1 72.44 3.84 72.76 4.47L73.85 6.61L72.49 8.59C72.06 9.21 72.02 10.01 72.37 10.68C72.72 11.35 73.41 11.76 74.16 11.76C74.26 11.76 74.37 11.76 74.48 11.73L76.85 11.35L78.31 13.25C78.7 13.75 79.28 14.04 79.91 14.04C80.92 14.04 81.76 13.32 81.92 12.33L82.3 9.96L84.56 9.15C85.32 8.88 85.85 8.18 85.9 7.37C85.95 6.56 85.52 5.8 84.8 5.43L82.66 4.34L82.59 1.94C82.56 0.830001 81.67 -0.0299988 80.56 -0.0299988L80.58 -0.0199988Z" fill="#F38861"/>
</g>
<defs>
<clipPath id="clip0_99_3012">
<rect width="102.82" height="96.05" fill="white" transform="translate(0.589996)"/>
</clipPath>
</defs>
</svg>
