<?xml version="1.0" standalone="no"?>
<!DOCTYPE svg PUBLIC "-//W3C//DTD SVG 20010904//EN"
 "http://www.w3.org/TR/2001/REC-SVG-20010904/DTD/svg10.dtd">
<svg version="1.0" xmlns="http://www.w3.org/2000/svg"
 width="512.000000pt" height="512.000000pt" viewBox="0 0 512.000000 512.000000"
 preserveAspectRatio="xMidYMid meet">
<metadata>
Created by potrace 1.14, written by Peter Selinger 2001-2017
</metadata>
<g transform="translate(0.000000,512.000000) scale(0.100000,-0.100000)"
fill="#000000" stroke="none">
<path d="M0 2560 l0 -2560 2560 0 2560 0 0 2560 0 2560 -2560 0 -2560 0 0
-2560z m3177 1564 c323 -66 597 -296 713 -597 53 -136 64 -198 63 -357 0 -113
-5 -162 -21 -222 -50 -184 -135 -333 -267 -464 -101 -100 -198 -161 -355 -224
-68 -27 -126 -52 -131 -57 -5 -5 152 -276 347 -603 196 -327 358 -601 361
-608 4 -10 -74 -12 -387 -10 l-392 3 -302 510 -303 510 -176 3 -175 2 -12 -52
c-6 -29 -55 -260 -109 -513 l-97 -460 -307 -3 c-169 -1 -307 -1 -307 1 0 2 24
59 54 128 93 216 151 403 390 1254 20 72 48 154 61 184 91 198 288 384 490
462 145 57 246 72 440 66 175 -6 255 -18 395 -63 41 -13 76 -22 78 -20 1 2 -6
30 -18 62 -28 82 -104 189 -170 241 -159 126 -432 203 -723 203 -122 0 -126 1
-144 25 -54 73 -231 182 -377 231 -156 53 -350 69 -491 39 -38 -8 -73 -15 -77
-15 -5 0 -8 81 -8 180 l0 180 940 0 c816 0 951 -2 1017 -16z m-1439 -665 c180
-25 182 -26 140 -89 -38 -55 -71 -74 -141 -78 -68 -4 -123 15 -159 55 -23 26
-48 87 -48 119 0 22 4 25 23 21 12 -3 95 -15 185 -28z"/>
</g>
</svg>
