<?xml version="1.0" standalone="no"?>
<!DOCTYPE svg PUBLIC "-//W3C//DTD SVG 20010904//EN"
 "http://www.w3.org/TR/2001/REC-SVG-20010904/DTD/svg10.dtd">
<svg version="1.0" xmlns="http://www.w3.org/2000/svg"
 width="1024.000000pt" height="1024.000000pt" viewBox="0 0 1024.000000 1024.000000"
 preserveAspectRatio="xMidYMid meet">
<metadata>
Created by potrace 1.11, written by Peter Selinger 2001-2013
</metadata>
<g transform="translate(0.000000,1024.000000) scale(0.100000,-0.100000)"
fill="#000000" stroke="none">
<path d="M2461 7775 c3 -2 61 -24 129 -48 227 -81 437 -176 615 -277 114 -65
118 -67 193 -117 35 -24 65 -43 67 -43 8 0 178 -131 245 -189 97 -83 229 -213
280 -275 l45 -56 130 5 130 5 -25 -21 c-14 -12 -48 -43 -77 -70 l-52 -49 62
-95 62 -95 40 6 c22 4 49 8 60 10 11 1 37 5 59 8 21 4 41 8 45 10 3 2 33 7 66
11 33 3 79 11 103 17 23 6 45 9 47 6 4 -4 -41 -54 -229 -252 -31 -33 -56 -64
-56 -70 0 -6 13 -58 30 -116 28 -97 93 -378 104 -445 3 -16 7 -41 10 -55 3
-13 8 -42 11 -65 3 -22 10 -65 15 -95 8 -52 12 -79 25 -197 3 -27 8 -61 10
-78 25 -195 25 -722 1 -940 -2 -16 -7 -59 -10 -95 -8 -68 -11 -91 -26 -180 -5
-30 -12 -73 -15 -95 -3 -22 -7 -47 -10 -55 -2 -8 -6 -26 -9 -40 -27 -148 -88
-376 -152 -570 -38 -112 -132 -338 -199 -475 -90 -186 -136 -266 -241 -422
-46 -68 -81 -123 -79 -123 2 0 57 23 123 50 242 103 571 304 920 564 98 73
186 139 197 148 11 9 99 80 195 157 176 140 378 304 461 373 24 20 89 73 144
118 55 45 109 89 120 98 899 741 1408 1059 1880 1176 228 56 358 71 620 71
154 0 315 -9 374 -20 9 -1 41 -6 71 -10 30 -4 107 -16 170 -26 178 -30 253
-34 273 -15 15 16 15 21 -8 73 -34 77 -60 117 -124 193 -170 201 -489 445
-862 659 -103 59 -140 88 -216 165 -267 272 -577 450 -947 546 -234 60 -420
83 -671 84 -124 0 -353 -12 -365 -19 -3 -1 -36 -6 -75 -10 -38 -3 -88 -10
-110 -15 -22 -5 -60 -12 -85 -15 -24 -4 -94 -18 -155 -32 -60 -14 -119 -27
-130 -29 -15 -3 -34 14 -75 66 -68 87 -237 256 -350 350 -80 66 -388 280 -405
280 -4 0 -20 9 -35 20 -49 35 -321 167 -460 224 -233 94 -505 181 -735 235
-49 12 -106 26 -125 30 -41 11 -227 47 -285 56 -22 3 -69 10 -105 16 -36 6
-81 13 -100 15 -19 2 -46 6 -60 9 -14 2 -56 7 -95 10 -38 4 -77 8 -85 10 -8 2
-60 7 -115 10 -55 4 -118 9 -139 11 -21 2 -37 2 -35 -1z m5004 -1845 c82 -22
159 -54 234 -95 76 -42 80 -45 144 -95 l57 -45 -27 -7 c-34 -10 -201 -11 -263
-2 -142 20 -286 107 -336 202 -9 18 -10 31 -3 44 13 25 102 24 194 -2z"/>
<path d="M1080 7740 c0 -3 26 -17 58 -32 295 -139 762 -443 1077 -702 l80 -66
150 0 150 0 -1 -70 c-1 -57 2 -70 15 -71 9 -1 79 -2 156 -3 l140 -1 0 -232 c0
-200 2 -232 15 -235 8 -2 93 -3 188 -3 l172 1 0 -117 0 -117 -211 0 c-116 0
-212 -2 -215 -4 -2 -3 -5 -110 -6 -239 l-1 -234 226 -3 227 -2 0 160 0 160 55
0 c37 0 55 -4 56 -12 1 -7 2 -44 3 -83 l1 -69 132 0 131 0 0 -250 -1 -251 97
-3 96 -3 0 -229 0 -230 -63 0 -63 0 2 -62 c3 -91 1 -93 -51 -92 -35 1 -45 -2
-45 -14 0 -14 17 -75 66 -233 15 -50 101 -397 109 -439 3 -14 7 -34 9 -45 20
-88 60 -285 71 -350 8 -44 16 -91 19 -105 11 -56 57 -343 62 -387 3 -27 11
-86 18 -133 l13 -85 21 47 c31 70 104 311 127 418 25 121 38 179 41 200 12 69
24 139 29 175 4 22 10 67 15 100 6 33 12 96 16 140 3 44 8 82 9 85 7 11 19
288 19 430 0 145 -10 398 -18 455 -3 17 -7 54 -11 84 -5 53 -20 155 -31 221
-5 30 -45 217 -59 275 -23 96 -106 346 -139 420 -8 17 -24 55 -37 85 -150 356
-427 720 -744 979 -292 238 -593 402 -994 542 -79 28 -383 112 -441 123 -14 3
-81 16 -150 29 -187 37 -590 90 -590 77z"/>
<path d="M130 7340 l0 -120 114 0 114 0 -1 120 0 120 -114 0 -113 0 0 -120z"/>
<path d="M1263 7285 c-2 -6 -2 -72 -1 -146 l3 -134 113 0 112 0 0 -90 0 -91
113 1 112 0 2 105 c0 58 -1 112 -3 121 -3 13 -20 15 -94 14 l-90 -2 0 116 0
116 -131 0 c-83 0 -133 -4 -136 -10z"/>
<path d="M314 6701 c-2 -2 -4 -79 -4 -171 l0 -166 158 0 157 1 3 168 c1 92 -1
168 -5 168 -23 4 -305 4 -309 0z"/>
<path d="M2079 6515 c0 -22 0 -70 0 -107 l-1 -66 -131 0 c-73 0 -151 0 -174
-1 l-43 -1 0 -220 0 -220 211 0 211 0 -2 58 c-2 31 -2 65 -1 74 1 16 20 18
203 20 l202 3 0 250 0 250 -237 0 -237 1 -1 -41z"/>
<path d="M940 6291 l0 -210 197 2 197 2 1 208 0 207 -197 0 -198 0 0 -209z"/>
<path d="M0 5900 c0 -145 3 -190 13 -191 19 -1 257 -1 304 0 l42 1 -1 190 0
190 -179 0 -179 0 0 -190z"/>
<path d="M1030 5772 l-25 -3 1 -192 c1 -106 2 -195 3 -199 0 -5 84 -8 186 -8
l185 0 0 200 0 200 -32 1 c-178 3 -297 3 -318 1z"/>
<path d="M2297 5363 c1 -120 2 -221 2 -225 1 -5 95 -8 209 -8 l209 0 0 225 0
225 -211 0 -211 0 2 -217z"/>
<path d="M3278 5305 c-2 -62 -2 -120 0 -129 3 -14 21 -16 123 -16 l120 0 -3
128 -3 127 -117 1 -117 1 -3 -112z"/>
<path d="M470 5115 l0 -121 103 0 c56 1 107 4 112 8 8 5 13 191 6 228 -1 3
-50 5 -111 5 l-110 0 0 -120z"/>
<path d="M1628 5079 c-8 -5 -12 -161 -9 -321 l1 -37 168 0 168 1 0 179 -1 179
-30 1 c-210 3 -289 3 -297 -2z"/>
<path d="M2846 4841 c-2 -3 -3 -97 -3 -208 l0 -203 193 0 194 1 0 209 0 209
-190 -1 c-105 -1 -192 -4 -194 -7z"/>
</g>
</svg>
